<svg enable-background="new 0 0 992.1 1417.3" viewBox="0 0 992.1 1417.3" xmlns="http://www.w3.org/2000/svg" xmlns:xlink="http://www.w3.org/1999/xlink"><clipPath id="a"><path d="m0 0h992.1v1417.3h-992.1z"/></clipPath><clipPath id="b"><path d="m0 0h992.1v1417.3h-992.1z"/></clipPath><g clip-path="url(#a)"><path d="m-1.6 0h993.8v1417.3h-993.8z" fill="#fffca3"/><path d="m0 1028.6 67-114.1h853.7l71.4 114v388.8h-992.1z" fill="#fffca3"/><path d="m0 51.5 6.7-1.2 13.6-2.2 14.2-3.8 9.1-4.7 7.7-3.5 4.7-5.7 2.8-4.2 5.3-5.8 6.1-3.7 6.6-1.9h5.5l15.5 2.1 10.4 2.8 8.4.1 5.5 2.1 13.2 3 10.7 3.6 9 4.6 8 5.9 4.7 8.7.8 5.1-2.3 4.1-1.7 2.6-5.6 4.1-8.5 3.7-7 2.2-11.5 1.8-.7-4.2-3.5-2.9-2.9-.1-4.4 2.6-.8 1.9-3-2.4-5.8.9-1.6 2-.1 1.6-2.5-2.4-4.7-.6-3.4 1.8-1.1 3.1-2.2-2.1-3-.7-3.3 1-2.1 2.6 2 13.9-13.4-2.1-4.2 1.5-2 3.5 2.5 4.8 5.2 2.2-13.4 7.9-5.8-.3-6.6-4-4.6-2.1-4.4 1.3-4.4 6.8-2.5 3.4-3.2 3.7-6.9 5.2-6.8 4.6-18.3 8.6z" fill="#fff"/><path d="m280.8 780.5 21.3 135.6 109.4-1.8 61.3.2 111.3-115.9-191.7-49.8z" fill="#ffd58c"/><path d="m1005.7 555.7-78.3-70.1-91 41.6 29 122.9s60 58.9 62 59.6 24 6.3 24 6.3l51.7-117.9z" fill="#ffd58c"/><path d="m991.9 733.3-71.2-33.5-127.7 80.3-4 134.4h94.1l69.2-90.6 40.4-7z" fill="#ffd58c"/><path d="m855.2 760.7 18.8 123.3-40.3 30.4-40.9.1 2.1-113.4 23.3-43.6z" fill="#ffd58c"/><path d="m382.5 512.5c-.4 2.8 37.2 162 37.2 162l189.4-3.7 12.1-159z" fill="#ffd58c"/><path d="m992.3 929.6-55.9 10 55.7 88.9z" fill="#ffd58c"/><path d="m882.8 893.5-7.2-7-5.6-7.7-6.8-12-7.2-13-32.6-3.5-14 1.9.3 1.3 6.8 21.2 6.5 17.2 6 16.1 4.7 6.4 49.4.1z" fill="#ffd58c"/><path d="m67.3 517.8-.7-16.8-4.3 2.1-8.9 3-14.7 2.5-13.7-.8-17.1-3.9-7.9-4.6v123z" fill="#ffd58c"/><path d="m0 670.8v37.9l24.7 43.8 5.3-6-5.6-6.3-.6-4.8 2-5.1 2.7-1.1 2.1-1.8 1.2-2.5 2.2-3.4 2.4-1.7 1.4-4.2 2.8-2.7 2.2-.7 1.2-2.9 2.9-4.6 2.3-.8 6.7-.3 1.8-2.3.6-2.2-5.5-6.2-7.1-9.5-3.8-6.9-3.7-9.7-1.9-10.7-.7-10.8 1.3-9.4 1-5.8 3.8-11.2 5.4-10.2 5.8-7.3 7.1-6.9 6.5-4.1.6-21.5-1.9.9z" fill="#ffd58c"/><path d="m178.5 193.6-37.5-93.1-2.9-.7-13.7 3-41.1 8.8 33.2 107 5.1 3.5 6.1 4.9 6.5 6.6 5.4 6.9 4.4 8.3 2.2 6 2.2 6.1 1.4 8.2.9 7-1.2 14.2-1 5.1-4.5 13.6-4 6.1-7.3 9.4-4.7 5-8.3 6.3-7.6 4.7-8.8 3.4-9.3 2.3-6.5 1.3h-7l-8-.7-11.2-2.3-6.3-2-9.5-4.6-10.5-8.4-14.5 42.2 14.4-1.6 11.8.6 16.3 4.7 8.7 5.7 11.4 8.2 6.5 7.1 2 3.7 5.8 10.1 5 12.6.9 11.5v13.2l3.9-6.4 6-12.8 7.8-16.1 17.9-39.5 8-15.2 3.3-6.8 9.4-13.7 6.6-8.9 9-9.1 11.8-10.7 4.7-3.3-8-12.6-6.1-12.6-4-11-3.1-14.2-.9-15.6 1.1-13.7 2.5-13.4 2.8-10z" fill="#ffd58c"/><path d="m516.1 629.7 23.4-.4 7.5.4 1.4-2.1 2.4-2.5 1.4-4.6-2.6-31.1-76.5.5z" fill="#ecefec"/><path d="m650 69.9 2.6-2 1.9-1.9.3-6-.3-19.1-1.2-7.3-5.2-2.4-17.9.2-63.1.3-4.3 2.1-1.9 6.1.4 10.7-.4 13.6 1.2 3.5 3.4 2.4 5.8 1.2h73.9z" fill="#ecefec"/><path d="m158.8 580-8.1 1.2h-6-8.3l-9.6-2.8-8.1-3.2-9.6-5.5-4.4-3 .5 2.2.1 9.6 13.2 1.4 7.6 1.9 9.6 4.3 8.4 4.4 9.3 7.6 11 14.1.1-9.7 4.7-.4 1.7-23.3z" fill="#ffd58c"/><path d="m30.3 793.4 6.4 1.4 8.6 3.5 7.7 3.9 5.4 3.3 7.5 5.9 1.2.3-.1-75.7z" fill="#ffd58c"/><path d="m118.8 715.5-4.7.7-8.9.6-.5 35.6 17.1-37.7z" fill="#ffd58c"/><path d="m142.1 706.2-4.2 2.5-3.5 1.4-2.5 5.7-1.3 5.9 3.4 2.9 2.6 3.1 3.3 5.5 2.4 4.7 2.9 6.3 2.9 4.6 1.3-34.1 1.1-13.7h-1.3z" fill="#ffd58c"/><path d="m148.4 760.1-.2-8.9-1.3-3.5-.3 4.7-1.9 2.8-.5 2.5-1.4 3.3-1.6 3.5-5.1 5-3.4 3-1.8 4.6-2 6-3 7.2-4 10.6-4.9 12-5.1 12.3-2.9 6.4 41.1-1.1v-14l-2-32z" fill="#ffd58c"/><path d="m104.7 850.4v63.4l52 .6 86.5.1v-5.7l-29.3-3.4-56.6-6.9-4.5-45.7-11.4 1-19.7-.2-9.5-.1-3.9-1.4-3.6-3.6z" fill="#ffd58c"/><path d="m0 928.3v21.1l11.1-18.9z" fill="#ffd58c"/><path d="m66.9 911.4-3.7 2.8-6.7 5.3-4.4 1.9-3.8 2.9-27.3 40.7-21 32.9v30.7l67-114.1z" fill="#ffd58c"/><path d="m0 708.7v82.1l24.7-38.3z" fill="#ffd58c"/><path d="m766.7 218.9-12.2-17.8-4-8.7-2.5-12.3-1-7.9.5-8.7 1-8.1 4.4-13.6 9.7-20 8.3-17.6-58-51.1-40.1 34.8 12.8 19.3 35.7 49 6 8.2 1.9 6.4v6.2l-1.1 4.6-2.2 2.6-5.4 5-51.4 35.4-115.4 4.9-44.3-14.4 12.4 17.7-22.7 17.6 27.7 152.2 34.5 51.4 52.9-166.2 17.3 7.8 3.2 4.1 17.7 12 5-12.5 2.3-4.6 11.4-17.4 108.1-40.8z" fill="#ffd58c"/><path d="m500.9 53.1-67 18.2 23.9 69.1 19.7-12.9 57.5-34.5z" fill="#ffd58c"/><path d="m401.2 377.4-43.1 47.2 21.6 25.1 40.5-3 15.6-21.4-6.1-23.8z" fill="#ffd58c"/><path d="m841.1 86.7-54.3-16.1-20.6 43.6-10.9 22.7-3.1 7.1-2.8 8.6-2.4 9.7v7.1 7.7l2.3 10.4 2.7 8.2 3.1 6.4 3 6.5 6.2 7.9 8.2 9.8 16.7 22.7 42.1 252.5 40.7 1.1 1.7-19.4 5.8-13.4 8-12.3 6-6.3 7.3-6.1 7.5-4.6 13.3-5.5 12.6-2.5 9.1-.2 12.3 1.8 11.2 3.3 8.5 4.3 8.2 5.2 8.6 7.9.2-169.2-32.2-32.1-116.4-61.9-16.8-15.8-9.6-9.8-3.5-4.4-1.7-4.5-.4-6.1.6-3.1z" fill="#ffd58c"/><g fill="#fff"><path d="m243 909.3.2 6.8-.1 10.4-1.2 11.7-2.5 8.3-3 9.5-7.3 13.6-5.2 7-5.1 6.6-4.4 5.4-7.8 7.1-7.7 5.4-9.9 7.1-15.1 8.7-4 2.6 5.5 2.5 4.9 4.4 4.6 7.9 20.7 31 3.5 6.3 1.3 5.9v1.3l8.9-4.9 36.9-24.2 28.3-18.3 9.2-7.3 9.1-8 5.2-7.2 3.6-4.8 6-9.3 4-8.1 4.8-12.5 2.5-10.1 1.4-9.6 4-34.7z"/><path d="m683.9 970.4 23.6-.2 18.3-.1 1.2 11.7 2.4 8.3 3.1 9.4 7.2 13.6 5.3 7.1 5 6.5 4.4 5.5 7.9 7.1 7.7 5.4 9.8 7 15.2 8.8 3.9 2.6-5.5 2.5-4.9 4.4-4.6 7.9-20.6 30.9-3.5 6.4-1.4 5.9v1.3l-8.8-4.9-36.9-24.2-28.4-18.3-9.1-7.3-9.2-8-5.1-7.3-3.7-4.7-6-9.3-4-8.2-4.7-12.4-2.6-10.1-1.4-9.6-3.9-34.7 45.5 11.7z"/><path d="m592.7 955.8-77.1 193.1-5.4-2.9-7.8-2.9-32.3-3.5-24.5-3.2-9.1 2.9 4.5-12.9 60-194.7 91.7 22.5z"/><path d="m481.9 989.7-25-105.8-89.3 11 7.2 20.5 39.5 122.9 4-2.3 5.3-2.7 8.1-1 21.2-3 18.7-2.3 10.7-35.8z"/><path d="m105.4 752.5 21.2-47.5 3.5-1.5 3.9 1.5.3 2.5-1 6-2.6 7.9 2 2.7 3.5 2.6 1.3 2.1 2 3.7 1.9 3.3 3.3 7.7 2.4 4.5v4.4l-2.5 2.9-1.4 3.5-1.4 5.5-5.7 4-3.4 5.7-23.7 57.6-4.3 2.7v-81z"/><path d="m28.9 745.3-5.1-5.7.9-6.8 3.8-3.6 1.8-1 1.2-2.5 3.2-4 1.8-1.9 1.5-3.6 2.6-3.2 2.5-1.1.7-1.9 2.9-4.4 2.2-.9 2.3-1.1 3 .2 12.7 9-.2 4.2-1.3 3-3.1.2h-2v3l-1.5 3.5-1.5 1.2-5.2.4 1.3 2 .5 2.2-1.6 2.9-3.9 1.5-.9 1.5-.3 3.4-1.1 1.2-3 1.5-7.6-4.4-5.2 6.1z"/><path d="m809 829.7.6-4.9 2.9-4.3 3.6-1.6h4.1l3.2 1.5 2.8-1.3 6 .3 1.9.1 5.3-1 3.4.7 1.4 1 1.5-1 3.8-.3h3.7l2.6 2.8 1.5 2.2 1 5.8v8.9l-2.9 3-3.4.4-2.6-1.5-1.2-2-1.2 1.1-2.8 2.3h-2.1l-3-1.7-2-1.1-1.7 2.1-1.6 1-4-.6-1.2-1-1.4-1.9-2 2.3-3 1-2.2-.5-3-2.5-.7-8-7.3-.1z"/><path d="m560.1 359.2-.4-5.5-2.3-12.5-3.2-6.7-28-44.6-35.8-15.7-37.6 9.7.7 7.6 30 44.1-74.7-24.4-31.9 24.4-38.1-6.7c28.8-19.5 47.6-52.4 47.6-89.8 0-59.9-48.5-108.4-108.4-108.4s-108.4 48.5-108.4 108.4c0 24.7 8.3 47.5 22.2 65.7l-3.7 2.3-9.3 8.1-8.4 8.9-7.8 8.5-7.3 9.2-6.3 10.1-6.6 12.7-6.9 13.8-20.6 45.9-8 17.2-5.9 12.6-14 30.5-3.9 9-2.6 10.5-.8 7.9-.3 8.6 2.5 12 2.8 7.3 3.7 8.3 5.6 8.5 5.7 6.2 7.5 5.5 6.2 4.8 7.1 3.5 10.9 2.9 7.7 1 7.9.5 24-1.9-1.7 23.5 241.3-.1-29.9-194.6 2.6-.7 3.4-5.3 4.5-3.6 3.8-1.6 6.2.3 31.1 7.9 47.6 11.6 10.2 2.6 10.6.9 4.8-.4 8.5-1.2 4.5-.9 5.8-3.1 4.8-2.1 7.2-5.1 5.2-3.9 5-6.4 4.5-6.4 4.7-7.6 1.4-4.3 1.9-6 1.2-5.8z"/><circle cx="913.2" cy="202.4" r="69.2"/><circle cx="604.9" cy="361.2" r="69.2"/><circle cx="941.2" cy="502.6" r="69.2"/><ellipse cx="996.6" cy="675.1" rx="69.2" ry="69.2" transform="matrix(.3162 -.9487 .9487 .3162 41.0093 1407.1002)"/><path d="m1021.5 873.1c0 38.2-31 69.2-69.2 69.2-5.3 0-10.5-.6-15.5-1.7-.8-.2-.3-.6-.4-.9-.2-.5-.7-1.1-.9-1.8-.4-1.3-2.1-2.6-2.8-4.1-2.4-5.3-5.5-12.2-11.6-18.6-2-2.1-23 1.1-24.7-1.2-8.4-11.5-13.3-25.6-13.3-40.9 0-38.2 31-69.2 69.2-69.2s69.2 31 69.2 69.2z"/><circle cx="17.3" cy="861.6" r="69.2"/><circle cx="105.2" cy="647.7" r="69.2"/><circle cx="502.5" cy="729.4" r="69.2"/><ellipse cx="34.2" cy="439.6" rx="69.2" ry="69.5"/><circle cx="81.5" cy="278.3" r="69.2"/><circle cx="610.2" cy="188.3" r="69.2"/><path d="m790.5 69.4 8.5-24 2.8-4.2 3-1.4h4.2l5.2 2.8 3.2.2 3.7.8 2.4 1.7h2.5l3.6.3 1.8.9 2.6 2 2.9.1 3.4.3 3 2.1 2.1 2.8.6 3.5 3.9-.2 2.9.2 4.1 1.6-.2 3.6-.8 5.6-3.4 8.4-5.2 4.5-7 4.3-50.4-14z"/><path d="m416.8 602.4 2.6-3.6 50-21.2 9.7-.6 2.6 2.1 1.4 3.4-1 3.7-3.2 2.5-13.8 50.2-1.6 1.8-4.1 1.4-8.3 1-26.2 1.7-3.8-12.9-1.4-26-.7-3.4z"/><circle cx="483.5" cy="445.1" r="69.2"/><path d="m86.8 110.2-2.4-5.7-3.7-4-3.9-3.4-4.5-1.9-1.9-3.3-.2-3.3 2.1-2.8 1.5-1 15.4 2.6-2-9.8-.2-3.2 1.2-3.1 2.2-1.2 2.6-.6 2.7 1.2 2.6.6 1.3-2 2.6-1h3.8l2.4 1.9 2.5-1.1 2.2-2h3.7l3 2 2.2-2.9 2.4-1.7h3.6l3.1 3.2 6.4 32.1z"/><path d="m530.1 86 32.5-2.3 3.6-1.3 2.6-3.7-.3-2.6-1.4-2.6-2.4-1.6-3.8-.9-5.1-1.4-2.7-3.2-2.3-3.7-.9-3.1.2-5.9.1-6.4 1.8-7.8 4.1-5.9 3.7-2 6.3-1.3 9.3.2 6.2-.5 2.1-.9 1.3-2 .9-4.1-2.5-3.8-3.7-.9-17.8.8-12 1.2-11.9 4.3-7.9 6-21.7 30z"/><path d="m677.3 83.9-28.7-.2-3.6-1.3-2.5-3.7.3-2.6 1.3-2.7 2.4-1.5 3.9-1 5.1-1.4 2.7-3.1 2.2-3.7.9-3.2-.1-5.8-.2-6.4-1.8-7.8-4-6-3.8-2-6.2-1.2-9.4.2-6.2-.5-2.1-.9-1.3-2-.8-4.2 2.4-3.7 3.8-.9 17.7.8 12 1.1 11.9 4.4 8 5.9 21.6 30.1z"/><path d="m862.5 559.1-3-8.5-3.3-6.8-4.9-8.1-24.1-37.9-67.8-47.1c58.7-1.3 105.8-49.3 105.8-108.4s-48.5-108.3-108.3-108.3-108.4 48.5-108.4 108.4c0 12.4 2.1 24.2 5.9 35.3l-.5-.3-10.6 3-19.1 6.2-15.1 6.2-24 12.2-19.2 15-16.1 11.5-10 9.5-8.5 9.2-7.6 10.2-10.5 13.5-5.2 10.1-4 11-2.6 5.3-.7 5-2.6 12.2v12.9l2.2 11.2 2.8 10.3 5.3 11.3 5.7 10.8 6 7.6 8.6 11.2 9.7 9.6 10.4 7.7 9.1 6.8.3.2-.8 4.6-3.6 5.2-6.8 2.8-5.7 1.5-1.8 2.6.7 4.6 3.2 3.2 13.2.4h26.7l-5.6 49 22.6-1.6 163 1.6 95.4-78.4 2.8-7.3 3.1-13.1.5-12.4-.5-10.9zm-278.8 79.4v-4.3l.5.3zm13.7-126.3-.6 5.3-1 10.5-1 8.8-1.2 10.5-.2 4.8-2.2 5.9-1.1-3.2-3-8.3-1.4-9.6.3-5.3.3-5.3.4-3.5 2.3-8.9 3.2-7.5 3-5.6 3-5.6 1.2 2.1z"/></g><path d="m109.1 688.8 10.4.7h32.2l3.1-22.6h-36-6.6l-3.8 1-1.9 1.6-1.7 6.1.5 9.3z" fill="#ff9f90"/><path d="m126.6 830.9h-13l-4.6.7-4.3 2.7v-261.2-6.4l-7.7-7.3-4.6-5.7-5-8-2.7-7.4-3.5-9.8-1.4-14.6.8-10.8 2.7-8.9 5.5-13h-21.8v37.1l-67 104v48.5l67.1-103.8v1.9 118.1l-10.3 16.5 7.2 6.8 2.9 2.5.1 1.9-1.6 5.3h-2l-3.1.2v3l-.4 2-2.6 2.7-3.1.4h-1.2l1.1 3-.3 2.1-1.5 2-2.6 1.2h-2.9l.7 1.8.1 2.3-1.5 2.3-1.7 1.2-2.1.3-6.8-4.4-35.5 50.7v48.5l67-103.3v109.7l-67 103.7v48.5l67-103.1v19.7l37.7-.7v-65.3l1.4 1.9 6.1 3.1 11.4.9 29.2-.9-2.7-23z" fill="#ff9f90"/><path d="m475.7 830.9 6.7 22.6h19.1l10.7-22.6z" fill="#ff9f90"/><path d="m430.7 666.7 6.3 23.1 96.2-.3 45.7-13 1.1-9.6z" fill="#ff9f90"/><path d="m500.2 502.6h-42.6l1.6 12.2v10.5l38.9-.1z" fill="#ff9f90"/><path d="m992.1 677.6v-48.7l-71.4-110.3v-37.4h-37.6v26.7l-1.3-1.9-3.1-2.7-4.7-.7-42.7-1.1-.3 1.8 14.1 22.7 32.9-1.2 4.3-3.8.8-2v316.2l-1.8-1.6-3.9-2.5-18.8-.2-.3 7.7-1.4 1.9-1.5 1.1-3.4.4-1.6-.1-1-1.4-2.4-.9-2.8 2.3h-2.1-2.2l-2.8-2.8-1.7 2.1-1.6 1-4-.6-1.2-1-1.4-1.9-2 2.3-1.1.6-1.9.4-2.2-.5-1.9-1.4-1.1-3.3-.7-5.8h-17.6l-2 22.5 67.5.4 13.1-.4 4.3-3.2 1.5-3v67.2h37.6v-19.5l71.4 109.5v-48.5l-71.4-109.7v-110.7l71.4 110.4v-48.3l-71.4-110.7v-119.8z" fill="#ff9f90"/><path d="m597.9 503-3.9-.4-5.5 12.3-1.5 9.2.4 1.2 8.1-.1 2.8-21z" fill="#ff9f90"/><path d="m164.5 602.5v28l-2.6 8.4-3.7 13.5-3.1 11.6-1.3 10.6-1.9 13.4-1.3 11.7-1 12.8-.9 15.4-.5 17.2v24.7l.2 16.1.9 22.8 1.1 17 1.1 14.5 2.9 29.6 2.9 28.7 193.5 23.3h1.8l2.4-25.2 134.2-16.7-68.5-249.4-1.2-27.3z" fill="#ff696a"/><path d="m164.5 602.5v28l22.2.4 234-.4-1.2-27.3z" fill="#ff696a"/><path d="m219.9 630.9-1.6 16.1-2.3 19.7-1.1 11.5-2.1 21.6-1.4 16.3-1.6 20.7v18.5l.7 14.5-.3 20 1.1 20.7.8 19.2.6 20.9 4.2 54.8 50.6 6.3-2.8-9.6-2.5-22-1.7-17.6-1-23.8-.3-28.1-.3-41.3 1.8-48 .9-28.3 1.6-18 .6-16.5 2.2-27.6z" fill="#ff696a"/><path d="m210.4 1078.8-2.2-8.6-8.6-13.4-12.9-19.7-8.1-11.9-8.6-5.7-7.5-1-6.3 1.8-7.1 5-41.8 32.5-12.1 9.4-11.3 8-10.2 5.5-16.5 6.1-7 1.8-4 2.7-2.5 2.9-2.1 4.2-.9 4.7.5 5.6 1.3 3.8 57.8 123.2 4.6 5.7 4.8 3.4 5.7 2.2 6 .8h14.6l48.5-.1 4.7-1.3 4.1-2.8 3.6-4.9 1.4-3.3-.1-5-.6-3.3-1.7-3.6-4.4-4.4-5.8-2.5-9.7-2.5-14.5-2.7-15.5-7.5-8.3-40.1-.2-9.1 3.7-6.8 3.4-3.8 4-2.2 55.3-47.8 4-4.9s2.2-6.1 2.2-6.3.3-4.1.3-4.1z" fill="#ff696a"/><path d="m208 1089.4-2.6-3.1-4.5-3.1-3.4-1.4-4.7.4-4.2 1.1-6.7 5.6-41.4 31.9-3.8 3.6-1.3 4.2v6.6l2 8 2.2 7.7 2.4-3.4 5.9-4.6 6.1-4.9 49.5-43z" fill="#ff696a"/><path d="m138.7 1168.2-64.9-19.6 8.1 17.8 60.1 17.8z" fill="#ff696a"/><path d="m91.8 1187.8 8.5 19 59.8 5.2-.7-2.5-15.1-6.9z" fill="#ff696a"/><path d="m46.7 1092.8-.6-1.4-3.6 3.4-1.9 8.5.5 5.6 2.6 6.4 50.8 109.1 4.3 9 3.9 6.5 5.2 4 3.9 2.1 2.4.7 7.2 1.2h10.9l47.4-.4 7.5-.4 3.9-1.3 2.3-2.1 1.9-1.8 1.6-3.1 2-4.8v-2.4l-15.6-.3-32.7.3h-26.9l-8.6-3.5-5.3-3.4-4.2-7-5.9-12z" fill="#ff696a"/><path d="m758.1 1121.7 2.2-8.6 8.6-13.4 12.9-19.7 8.1-11.9 8.6-5.7 7.5-1 6.3 1.8 7.1 5 41.8 32.5 12.1 9.4 11.3 8 10.2 5.5 16.5 6.1 7 1.8 4 2.7 2.5 2.9 2.1 4.2.9 4.7-.5 5.6-1.3 3.8-57.8 123.2-4.6 5.7-4.8 3.4-5.7 2.2-6 .8h-14.6l-48.5-.1-4.7-1.3-4.1-2.8-3.5-4.9-1.4-3.3.1-5 .6-3.3 1.7-3.6 4.4-4.4 5.8-2.5 9.7-2.5 14.5-2.7 15.5-7.5 8.3-40.1.2-9.1-3.7-6.8-3.4-3.8-4-2.2-55.3-47.8-4-4.9s-2.2-6.1-2.2-6.3-.4-4.1-.4-4.1z" fill="#0087ff"/><path d="m760.6 1132.3 2.5-3.1 4.5-3.1 3.4-1.4 4.7.4 4.3 1.1 6.7 5.6 41.3 31.9 3.8 3.6 1.3 4.2v6.7l-2 7.9-2.1 7.7-2.5-3.4-5.9-4.6-6.1-4.9-49.5-43z" fill="#0087ff"/><path d="m829.8 1211.1 64.9-19.6-8.1 17.9-60.1 17.7z" fill="#0087ff"/><path d="m876.7 1230.7-8.4 19.1-59.9 5.1.7-2.5 15.2-6.9z" fill="#0087ff"/><path d="m921.8 1135.7.7-1.4 3.5 3.4 1.9 8.5-.5 5.6-2.6 6.4-50.7 109.1-4.4 9-3.9 6.5-5.2 4-3.9 2.1-2.4.7-7.1 1.2h-10.9l-47.5-.4-7.5-.4-3.8-1.3-2.3-2.1-2-1.8-1.6-3.1-1.9-4.8v-2.4l15.5-.3 32.7.3h27l8.6-3.5 5.3-3.4 4.1-7 5.9-12z" fill="#0087ff"/><path d="m469.6 1027-43 6-6.7 2.1-7.7 6.2-3.1 5.4-1.3 4.6.6 7.7 2.5 11.7 16.3 76 3.2-3.9 4.8-3.4 2.7-2.7 2.4-6.1 31.3-103.6z" fill="#ff696a"/><path d="m527.8 1119.9 1.7 9 3.2 6 5.7 5.6 9.1 3.3 13.3 2.9 14.6 3.5 64.4 15.4 7.1 3 5.8 4.6 3.3 4.4 2.3 4.8 1.3 7.1-.5 6.1-2 5.5-1.1 2-5.8 6.7-6.2 3.8-6.1 2.6h-10.8-113.7l7.9-41.1 1.7-9.2-1.9-7.4-2.5-6-3-3.6z" fill="#ff696a"/><path d="m545.5 1143.1 22.4 5.5-47.9 53.2h-4.4l4.8-21.9 2.6-12.2z" fill="#ff696a"/><path d="m589 1153.4 20.4 5.1-39 44-24.2-.6z" fill="#ff696a"/><path d="m656 1203.1-140.4-1.3-2.2 14.4h124.5l6.1-2.6 6.2-3.8z" fill="#ff696a"/><path d="m527.8 1119.9 4.9 15h-4.7l-5.3-2.3z" fill="#ff696a"/><path d="m514.3 1148.4-4.1-2.4-23.4-4.2-37.7-5-6.4.1-6.2 2.4-5.4 2.2-5.6 6.9-2 7.2-20.3 74.6-1 5.5-2.2 5.6-1.5 4.3-4 4.2-2.5 1.7-6.7 2.2-12.7 3.5-85 20.7-5.3 2.8-5.7 5.4-3.2 5.2-1.7 4.9v6.9l1 5.3 1.3 4.6 1.8 2.9 3.1 3.5 4.3 4 8 2.9 6.1 1 189.2-1.1 5.4-1.3 4.5-2.2 5.4-5.1 2.7-5.4 1.5-4.1-.8-3.2-2.5-12.4-1-7 .6-19.2 1.8-11.1 9.6-44.5 8.5-39.7.8-7.6-1.7-6.8z" fill="#0087ff"/><path d="m504.5 1312.2-229.4 2.5 2.6 3.4 4.5 3.8 4.9 3 4.1 1.4 8.8 1.5h12.1l174-.9 4.3-.9 4.3-2.1 4.6-2.6 2.5-3.7z" fill="#0087ff"/><path d="m381.6 1256.2 51.5 56-22.5.6-47.7-53 17.9-4.6z" fill="#0087ff"/><path d="m341.4 1264.8 43.2 48.2-24.5.2-39.6-43.6z" fill="#0087ff"/><path d="m428.7 1146.3 6.6 2.1 4.4 4.4 1.9 3.7 1.1 4.1-.9 7.1-13.3 63-3.8 6.6-4.9 4-4.8 1.8-17 4.2 3.1-4.9 1.3-5.4.6-5.8 2.5-7.9 19.1-71.9 2-4z" fill="#0087ff"/><path d="m658.5 689.8-61.9-.3-22.8 1.6-5.8 20.5v1.8l145.2 5.4-8-5.4-12.8-4.7-18.1-3-19.1-5.3z" fill="#0087ff"/><path d="m568 713.4-99.9 210.4 212 51.3 3.8-4.7h105.7l8.5-146.9 1.9-5.7 5.6-17.4 3.4-13.9.4-6-91.2-61.7z" fill="#0087ff"/><path d="m663.9 717.4-97.2 230.2 42 10.2 96.9-239z" fill="#0087ff"/><path d="m684.8 601.4-29.6 99 41.4 9.3 14 7.1 9.9 9 4.9 8 6 9.2 15 14.5 11.5 9.3 4.7 3.9 9 4.4 7.7 2.7 8 1.6 11.4 1.1 13.6-.5 10.4-2.7 10.4-4 12.4-6.6 12.6-8.7 10.1-8.3 9.4-9.7 5.5-6.7 6.6-10.9 4.3-9.6 1.7-5.2 2.3-10.2 1-9.8-.7-10.7-1.3-11.1-4.5-15-5.6-12.5-7.3-11-4.5-4.5-10.6-7.4-8.8-3.6-12.4-3.3-12.8-1.7-11.9-.4-14.2.2-6.8 2.4-12.8 4.5-4.6 1.6-8.3 1.5-10.3 1.2-9.9-.5-8.3-1.6z" fill="#0087ff"/><path d="m684.8 601.4-29.6 99 41.4 9.3 28.8-98.4z" fill="#0087ff"/><path d="m726.3 482.3 93.7 43.7 15.2-39.6 9-12.7 10.3-8.5 8.7-3.7 10-4.6 16.6-12.8 10.8-10 4.5-4 5.7-8.3 3.9-7.2 2.6-7.7 2.8-11.1 1.5-13.6-1.2-10.7-2.4-10.8-4.7-13.3-6.7-13.6-6.8-11.2-8.3-10.8-5.8-6.4-9.7-8.1-8.9-5.7-4.9-2.5-9.8-3.7-9.5-2.4-10.7-.9-11.2-.3-15.5 2.2-13.2 3.8-11.9 5.6-5.2 3.8-8.8 9.4-4.8 8.1-5.1 11.9-3.6 12.4-2.1 11.7-1.8 14.1 1.3 7 2.6 13.3.9 4.9.3 8.3-.4 10.4-1.8 9.8-2.8 7.9z" fill="#0087ff"/><path d="m726.3 482.3 93.7 43.7 13.6-35.3-92.2-45.6z" fill="#0087ff"/><path d="m216.7 495 24.2 100.6 39.9-7.5 11.8-2.1 10.9-2.1 8.7-.9 8.9.7 6.6 1 7.7 2.8 5.1 2.3 5.8 2.4 8 2.2 7.7 1.9 7.5 1.3 14.3.5 10.8-1 9.4-.9 12.8-3.2 6.6-11.4 7.1-8.6 7.5-11.9 13.4-4.6 3.7-9.7 3.1-13.3 1.2-15.7-1.8-15.2-4-12.2-1.5-3.9-2-4.6-2.6-4.6-3.5-5.4-5.3-7-9.5-10.3-9-7.9-12-8.9-9.9-5.8-12.2-5.3-15.5-5.4-12.5 3.3-12 4.8-10.5 5.6-12.2 7.1-10.9-1-6.7 5-7.1 7.1-6.8 7.4-4.6 7-5.3 6.6-7.2 5.9-8.1 5.2-12.7 3.9z" fill="#ff696a"/><path d="m216.7 495 24.2 100.6 39.9-7.5-26.8-98.9z" fill="none" stroke="#000" stroke-linecap="round" stroke-linejoin="round" stroke-width="2"/><path d="m499.1 250.4 22.7-17.6-23.4-33.2-13.2-18.9-5.7-10.8-4.5-14.6-1.1-7.6.1-8.9.1-8.3-.9-6.8-4-12-3.6-8.8-6.1-11.9-8.1-11.8-3.5-4.3-5.9-5.6-5.8-4.1-7.4-3.7-5.8-2-10-1.7h-10.4-12.9l-17.3 3.5-10.9 4.2-9.4 5.1-11.7 9.1-10.9 12.5-5.3 8.3-7.1 15 4.3 5.7 60.3-20.1-8.7 51.3 53.3 15.5-1.3 3.3-25.5 40.6 39.7 34.4 4.7-.1 7.7-.4 18.6.7 8.5.8 10.7 1.3z" fill="#ff696a"/><path d="m500.1 250.4 21.7-17.6-23.4-33.2-56.7 46.1h5.6 12.4l10.5.7 11.5.6 10.4 1.9z" fill="#ff696a"/><path d="m640.7 315.8-7.2-19.4-33.6-14.6-16.5-6.5-22.1-7.9-23.1-7.3-30.7-7.9-21.6-4.4-15.7-1.4-31-.2-18.4-15.9-21.3-18.5 26.8-43.9-53.3-15.5 8.7-51.2-60.3 20.1-40-50-13.9 59.2 16.7.3 13.1 1.8 13.1 2.1 8.7 4.1 7.4 3.1 9 5.1s6.6 4.8 7.2 5.1 9.9 8 9.9 8l6.2 6.3 6.4 7.7 5.1 7.4 6.5 12 3.6 8.8 3.5 11.9 2.8 20.5-.3 13.2-1.7 12.3-2.7 10.9-4.1 11-6.1 11.9-8.6 12.5-9.6 9.2-9.1 9.1-10.2 7-15.2 7.6-17.5 5.8-8.4 1.1.3 14.4 2.3 19.4 6 27.8 6.7 22 6.5 17.4 8.4 20.2 6.3 11.6 8.9 16.6 7.8 12.3 11.4 17.2 8.9 12.3 7.3 9.5 7.6 9.5 7.8 9.7 10.5 11.5 9.6 10.2 10.3 10.4 9.7 9.3 11 10.1 26.3 22.4 23.6 18.3 22.3 16 31.9 21 35.7 21.3 34.5 18.8 24 12 31.8 15.3 20.8 9.3 21.8 8.3 41.2 6-18.7-9.8-20.1-11.3-20.3-12.1-11.6-7.3-25.3-15.1-18.1-11.6-16-10.5-31.5-21.8-18-13.4-16.4-12.8-12.4-9.9-15.4-12-15.1-14.8-16.5-14.7-14.9-14.2-16.1-18.5-14.8-17.6-16.5-21.2-13.5-20-11.5-21.1-8-15.2-7.7-18-3.6-12.2-3.9-13-2.9-14-2.8-22.3v-14.7l.7-12.9 2.8-15.8 3.9-14.6 5.7-13.9 13.7-1.6-2.1-10.1 3.5-4.1 4.8-5.1 9.2-6.7 8.5-4.5 14-5.1 6.1-1.5 6.2-1.7 25.5-2.1h16.7l15.5 1.2 12.6 1.9 15.2 1.7 19.8 3.2 20.2 4.6z" fill="#ffec54"/><path d="m293.1 346.5 48.5 37.4 9.1-49.5 58.7-5.9-17.4-52.8 55.9-21.6-48.4-42.3 26.8-43.9-53.3-15.5 9.6-51.5-61.2 20.3-40-49.9-13.9 59.2h10.2l11 1.1 9.9.9 14.6 3.6 7.8 3.1 11.3 5.7 7.6 5 7.9 5.5 7.4 7.8 8.3 9.2 6.7 9.1 6.5 12 4 10.7 4.3 13.9 1.1 12.3.5 12.4-2 17.4-2.7 10.8-6.7 18.1-8.5 12.1-6 7.9-8.6 9.3-7.6 6.5-17.5 11-16 6.5z" fill="#ffec54"/></g><g clip-path="url(#b)"><path d="m992.1 1029.5c-.3 0-.7-.2-.8-.5l-70.7-113.6h-127.5c-.6 0-1-.4-1-1s.4-1 1-1h128.1c.3 0 .7.2.8.5l71 114.1c.3.5.1 1.1-.3 1.4-.2.1-.4.1-.6.1z"/><path d="m374.5 915.5h-21.9c-.6 0-1-.4-1-1s.4-1 1-1h21.9c.6 0 1 .4 1 1s-.5 1-1 1z"/><path d="m0 1029.6c-.2 0-.3 0-.5-.1-.5-.3-.6-.9-.4-1.4l67-114.1c.2-.3.5-.5.9-.5h176.2c.6 0 1 .4 1 1s-.4 1-1 1h-175.6l-66.7 113.6c-.2.3-.6.5-.9.5z"/><path d="m278.2 348.5c-60.4 0-109.5-49.1-109.5-109.5s49.1-109.5 109.5-109.5 109.5 49.1 109.5 109.5-49.1 109.5-109.5 109.5zm0-217c-59.3 0-107.5 48.2-107.5 107.5s48.2 107.5 107.5 107.5 107.5-48.2 107.5-107.5-48.2-107.5-107.5-107.5z"/><path d="m351.9 922.8h-.1l-194.6-23.3c-.5-.1-.8-.4-.9-.9l-4.6-45.6c-3.8-37.5-5.2-75-4.4-111.2.8-33.3 3.3-72.6 16.3-111.5.1-.4.5-.7.9-.7h219.4c.6 0 1 .4 1 1s-.4 1-1 1h-218.7c-12.7 38.4-15.2 77.3-15.9 110.3-.8 36.2.6 73.5 4.4 111l4.5 44.8 192.8 23 16.8-165.5c.1-.5.5-.9 1.1-.9.5.1.9.5.9 1.1l-16.9 166.5c0 .3-.2.5-.4.7-.2.1-.4.2-.6.2z"/><path d="m420.7 631.5h-36.9c-.6 0-1-.4-1-1s.4-1 1-1h35.8l-1.1-26h-52c-.6 0-1-.4-1-1s.4-1 1-1h52.9c.5 0 1 .4 1 1l1.2 28c0 .3-.1.5-.3.7-.1.2-.3.3-.6.3z"/><path d="m164.5 631.5c-.6 0-1-.4-1-1v-28c0-.6.4-1 1-1h202.1c.6 0 1 .4 1 1s-.4 1-1 1h-201.1v27c0 .6-.4 1-1 1z"/><path d="m330.8 300.7h-9c-.6 0-1-.5-1-1 0-.6.4-1 1-1h8.9.1c5.1 0 9.8-2.5 12.5-6.8 2.8-4.3 3.2-9.6 1.1-14.3l-9.2-20.5c-.2-.5 0-1.1.5-1.3s1.1 0 1.3.5l9.2 20.5c2.4 5.3 1.9 11.3-1.2 16.2-3.1 4.8-8.5 7.7-14.2 7.7z"/><circle cx="735.5" cy="338.4" r="4.6"/><path d="m735.5 344.1c-3.1 0-5.6-2.5-5.6-5.6s2.5-5.6 5.6-5.6 5.6 2.5 5.6 5.6-2.5 5.6-5.6 5.6zm0-9.3c-2 0-3.6 1.6-3.6 3.6s1.6 3.6 3.6 3.6 3.6-1.6 3.6-3.6-1.6-3.6-3.6-3.6z"/><circle cx="683.4" cy="311.1" r="4.6"/><path d="m683.4 316.8c-3.1 0-5.6-2.5-5.6-5.6s2.5-5.6 5.6-5.6 5.6 2.5 5.6 5.6-2.5 5.6-5.6 5.6zm0-9.3c-2 0-3.6 1.6-3.6 3.6s1.6 3.6 3.6 3.6 3.6-1.6 3.6-3.6-1.6-3.6-3.6-3.6z"/><path d="m699.7 370.3c-.2 0-.3 0-.5-.1l-7.9-4.1c-5.1-2.7-8.5-7.7-9.1-13.4-.5-5.8 1.9-11.3 6.4-14.9l17.7-13.9c.4-.3 1.1-.3 1.4.2.3.4.3 1.1-.2 1.4l-17.7 13.9c-4 3.2-6.1 8.1-5.7 13.2.5 5.1 3.5 9.5 8 11.9l7.9 4.1c.5.3.7.9.4 1.3 0 .2-.3.4-.7.4z"/><path d="m633.5 297.4c-.1 0-.3 0-.4-.1l-15.9-7.2c-42.3-18.4-121.7-48.4-177.4-42.7-.6.1-1-.3-1.1-.9-.1-.5.3-1 .9-1.1 56.1-5.7 135.9 24.4 178.4 42.9l15.9 7.2c.5.2.7.8.5 1.3-.2.4-.6.6-.9.6z"/><path d="m406.7 320.2c-.2 0-.4-.1-.6-.2-.5-.3-.6-.9-.2-1.4 17.5-24.8 53.8-35.2 108.1-31 45.1 3.5 92.1 16.6 116 24l10.9 3.1c.5.2.8.7.7 1.2-.2.5-.7.8-1.2.7l-10.9-3.1c-23.9-7.5-70.7-20.5-115.6-24-53.5-4.2-89.3 6-106.4 30.1-.2.5-.5.6-.8.6z"/><path d="m803.4 781.8c-1.5 0-3-.1-4.4-.2l-11.5-1c-9.3-.8-18.2-4.2-25.7-9.7-9.3-6.8-18.1-14.4-26.4-22.4l-1.1-1.1c-3.7-3.6-6.8-7.8-9.2-12.3l-.5-.9c-6.8-12.8-18.9-21.8-33.1-24.8l-36.4-7.6c-.3-.1-.5-.2-.7-.5-.1-.2-.2-.5-.1-.8l29.6-99.4c.2-.5.7-.8 1.2-.7l61.8 15.1c5.2 1.3 10.5 1.7 15.8 1.2l8.6-.7c6.4-.5 12.5-2.3 18.1-5.2 7.5-3.8 15.9-5.7 24.2-5.6l11.2.2c11.8.2 23.3 2.4 34.3 6.4 8.6 3.1 16.2 8.6 22 15.7l2.2 2.7c.3.4 22.8 32.7 15.1 70.7-5.3 26-23.1 48.5-53.1 67-9.2 5.7-19.3 9.9-30 12.5h-.1c-3.9 1-7.9 1.4-11.8 1.4zm-146.9-81.8 35.4 7.4c14.8 3.1 27.3 12.5 34.4 25.8l.5.9c2.4 4.4 5.3 8.4 8.9 11.9l1.1 1.1c8.2 8 17 15.5 26.2 22.3 7.2 5.3 15.8 8.5 24.7 9.3l11.5 1c5.3.5 10.6.1 15.7-1.2h.1c10.5-2.5 20.3-6.6 29.3-12.2 29.5-18.2 47-40.3 52.2-65.7 7.5-37.2-14.5-68.8-14.8-69.1l-2.2-2.7c-5.6-6.8-12.9-12-21.1-15.1-10.8-4-22.2-6.1-33.7-6.3l-11.2-.2c-8.1-.2-16.1 1.7-23.3 5.4-5.9 3-12.3 4.8-18.9 5.4l-8.6.7c-5.5.5-11.1 0-16.4-1.3l-60.9-14.9z"/><path d="m821.1 526.7c-.1 0-.3 0-.4-.1l-94.4-42.9c-.5-.2-.7-.8-.5-1.3l23.5-59.1c2-4.9 3.1-10.1 3.4-15.5l.5-8.6c.3-6.4-.6-12.6-2.7-18.7-2.8-7.9-3.5-16.5-2.2-24.8l1.8-11c1.9-11.6 5.6-22.8 11.1-33.1 4.3-8.1 10.7-14.9 18.5-19.7l3-1.8c.4-.2 35.5-18.2 72.1-5.3 25 8.8 44.9 29.5 59.1 61.7 4.3 9.8 7.1 20.4 8.2 31.3v.1c.6 5.5.2 11-1 16.4l-2.6 11.3c-2.1 9.1-6.6 17.4-13.1 24.1-8 8.2-16.7 16-25.8 23.1l-1.3 1c-4.1 3.2-8.6 5.7-13.5 7.5l-.9.3c-13.6 5-24.2 15.7-29.1 29.3l-12.8 35.1c-.1.3-.3.5-.6.6 0 .1-.2.1-.3.1zm-93.1-44.4 92.5 42 12.2-34c5.1-14.2 16.1-25.3 30.3-30.5l.9-.3c4.7-1.7 9-4.1 13-7.2l1.3-1c9.1-7 17.7-14.7 25.6-22.9 6.3-6.4 10.6-14.5 12.6-23.2l2.6-11.2c1.2-5.1 1.5-10.4 1-15.6v-.1c-1.1-10.8-3.8-21.2-8.1-30.9-14-31.7-33.4-52.1-57.9-60.7-35.8-12.6-70.1 5-70.5 5.2l-2.9 1.8c-7.5 4.6-13.7 11.1-17.8 18.9-5.4 10.2-9 21.1-10.9 32.5l-1.8 11c-1.3 8-.5 16.2 2.1 23.8 2.2 6.3 3.1 12.8 2.8 19.4l-.5 8.6c-.3 5.5-1.5 11-3.5 16.1z"/><path d="m713.2 719.8-77.9-2.9c-.6 0-1-.5-1-1 0-.6.5-1 1-1l77.9 2.9c.6 0 1 .5 1 1 0 .6-.4 1-1 1z"/><path d="m680.1 976.1c-.1 0-.2 0-.2 0l-212-50.8c-.3-.1-.5-.3-.7-.5-.1-.3-.1-.6 0-.9l99.9-210.9c.2-.4.5-.6.9-.6l6.1.2c.6 0 1 .5 1 1 0 .6-.4 1-1 1l-5.5-.2-99.1 209.2 210.2 50.4 69.8-86.6c4.7-5.8 10-11.8 16.3-18.3 23.3-24 38.5-55.6 42.6-88.8.1-.5.6-.9 1.1-.9.5.1.9.6.9 1.1-4.2 33.7-19.5 65.6-43.1 90-6.3 6.5-11.5 12.4-16.2 18.1l-70.2 87.1c-.2.3-.5.4-.8.4z"/><path d="m789.6 971.4h-105.7c-.6 0-1-.4-1-1s.4-1 1-1h104.7l9-148.5c0-.6.5-1 1.1-.9.6 0 1 .5.9 1.1l-9.1 149.4c.1.5-.4.9-.9.9z"/><path d="m713.2 781.8c-.1 0-.3 0-.4-.1-99.8-40.9-184-89.2-250.2-143.6-53.1-43.5-94.8-91-124.1-141.2-14.4-24.6-33.4-63.3-42.1-107.6-5.2-26.5-4.2-42.8-4.2-42.9 0-.4.2-.7.6-.8.3-.2.7-.1 1 .1l47.5 36.5 8.5-48.6c.1-.4.4-.8.9-.8l57.5-5.5-17-51.6c-.2-.5.1-1.1.6-1.2l54.5-20.9-47.3-41.1c-.4-.3-.5-.9-.2-1.3l26.6-42.3-52.5-15.7c-.5-.1-.8-.6-.7-1.1l9.2-50.2-59.5 20.2c-.4.1-.8 0-1.1-.3l-38.7-48.4-13.5 57.2c-.1.5-.7.9-1.2.7-.5-.1-.9-.7-.7-1.2l13.7-59.1c.1-.4.4-.7.8-.7.4-.1.8.1 1 .4l39.6 49.4 60.5-20.5c.3-.1.7 0 1 .2s.4.6.3.9l-9.3 51 52.9 15.8c.3.1.5.3.7.6.1.3.1.6-.1.9l-26.8 42.6 47.9 41.6c.3.2.4.6.3.9s-.3.6-.6.8l-55.3 21.1 17.1 51.9c.1.3.1.6-.1.9s-.4.4-.7.4l-58 5.5-8.6 49.4c-.1.3-.3.6-.6.8-.3.1-.7.1-1-.1l-47.3-36.3c-.1 5 .1 19.5 4.3 40.6 4.8 24.3 15.9 62.6 41.9 107 29.2 49.9 70.8 97.2 123.7 140.6 66.1 54.2 150.1 102.4 249.6 143.2.5.2.8.8.5 1.3-.1.4-.5.6-.9.6z"/><path d="m298.8 1328.3c-13.9 0-25.7-9.3-28.2-22.1-2.6-13.8 6.6-27.3 21.1-30.7l93.6-22.4c8.4-2 14.6-8.5 15.8-16.5.4-2.5.8-5.3 1.6-8.1l20.6-75.9c3-11.1 14.4-18.3 26.5-16.6l53.6 7.1h.1c6.8.9 12.8 4.5 16.6 9.8 3.5 5 4.7 10.9 3.5 16.8l-18 83.4c-3.8 17.6-3.5 35.4.8 52.8v.2c.2 5.3-1.8 10.4-5.7 14.4-4.1 4.3-10 6.7-16.1 6.8l-185.6 1.1c-.1-.1-.2-.1-.2-.1zm147.6-190.6c-9.9 0-18.7 6.2-21.2 15.4l-20.6 75.9c-.7 2.7-1.2 5.5-1.5 7.9-1.3 8.8-8 16-17.3 18.2l-93.6 22.4c-13.4 3.2-22 15.7-19.6 28.4 2.3 11.9 13.3 20.5 26.2 20.5h.2l185.6-1.1c5.6 0 10.9-2.3 14.7-6.2 3.4-3.5 5.2-8.1 5.1-12.8-4.3-17.7-4.6-35.8-.7-53.6l18-83.4c1.1-5.3 0-10.7-3.1-15.2-3.4-4.9-8.9-8.1-15.1-9h-.1l-53.8-7.1c-1.2-.3-2.2-.3-3.2-.3z"/><path d="m360.4 1314.5c-.3 0-.5-.1-.7-.3l-39.8-43.9c-.4-.4-.3-1 .1-1.4s1-.3 1.4.1l39.8 43.9c.4.4.3 1-.1 1.4-.2.1-.5.2-.7.2z"/><path d="m384.9 1314.3c-.3 0-.5-.1-.7-.3l-44-48.5c-.4-.4-.3-1 .1-1.4s1-.3 1.4.1l44 48.5c.4.4.3 1-.1 1.4-.3.1-.5.2-.7.2z"/><path d="m410.8 1314c-.3 0-.5-.1-.7-.3l-48.1-53.5c-.4-.4-.3-1 .1-1.4s1-.3 1.4.1l48.1 53.5c.4.4.3 1-.1 1.4-.2.1-.5.2-.7.2z"/><path d="m433.7 1313.8c-.3 0-.5-.1-.7-.3l-52.9-57.6c-.4-.4-.3-1 .1-1.4s1-.3 1.4.1l52.9 57.6c.4.4.3 1-.1 1.4-.2.1-.5.2-.7.2z"/><path d="m274.8 1315.2c-.5 0-1-.4-1-1s.4-1 1-1l229.7-2c.6 0 1 .4 1 1s-.4 1-1 1z"/><path d="m396.9 1248.6c-.4 0-.9-.3-1-.8s.2-1.1.7-1.2l18.5-4.8c6.2-1.3 11-5.8 12.3-11.6l14-65.4c.8-3.8 0-7.7-2.2-10.9-2.4-3.5-6.4-5.9-10.9-6.6-.5-.1-.9-.6-.8-1.1s.6-.9 1.1-.8c5 .8 9.4 3.5 12.2 7.5 2.6 3.7 3.5 8.1 2.5 12.5l-14 65.4c-1.4 6.6-6.8 11.7-13.8 13.1l-18.5 4.7z"/><path d="m847.2 1291.8h-61.3c-4.5 0-8.7-1.8-11.9-5s-4.9-7.5-4.8-12c.1-7.8 5.6-14.4 13.3-16.1l22.4-4.7 16.2-8.2 8.5-39.3c1.6-7.2-1.1-14.5-6.8-18.5-2.6-1.8-5.1-3.6-7.4-5.6l-51.5-44.5c-7.7-6.7-9.1-18.6-3.2-27.7l26.3-40.1c3.3-5.1 8.5-8.5 14.3-9.5 5.3-.9 10.6.4 14.8 3.7l59.6 46.4c12.6 9.8 26.8 16.4 42.4 19.6.1 0 .1 0 .2.1 4.3 1.9 7.7 5.5 9.4 10.1 1.8 4.9 1.5 10.6-.8 15.5l-56.7 121.1c-4.1 9-13.2 14.7-23 14.7zm-24.9-44.2-16.7 8.4c-.1 0-.2.1-.2.1l-22.5 4.7c-6.8 1.4-11.6 7.2-11.7 14.1-.1 4 1.4 7.7 4.2 10.5s6.5 4.4 10.5 4.4h61.3c9.1 0 17.4-5.3 21.2-13.5l56.7-121.1c2.1-4.4 2.4-9.5.7-14-1.5-4-4.4-7.2-8.2-8.9-15.8-3.3-30.3-10.1-43.1-20l-59.6-46.4c-3.8-2.9-8.5-4.1-13.3-3.3-5.2.9-9.9 4-12.9 8.6l-26.3 40.1c-5.4 8.2-4.2 19 2.8 25l51.5 44.5c2.3 2 4.7 3.7 7.3 5.5 6.3 4.5 9.3 12.6 7.6 20.6l-8.3 38.1 53.9-16c.5-.2 1.1.1 1.2.7.2.5-.1 1.1-.7 1.2z"/><path d="m805.2 1256.1c-.5 0-1-.4-1-.9 0-.6.4-1 .9-1.1l63.1-5.4c.6-.1 1 .4 1.1.9 0 .6-.4 1-.9 1.1z"/><path d="m826.1 1228.2c-.4 0-.8-.3-1-.7-.2-.5.1-1.1.7-1.2l61.1-17.9c.5-.2 1.1.2 1.2.7.2.5-.1 1.1-.7 1.2l-61.1 17.9s-.1 0-.2 0z"/><path d="m829.6 1212.2c-.4 0-.8-.3-1-.7-.2-.5.1-1.1.7-1.2l66.2-20.1c.5-.2 1.1.1 1.2.7.2.5-.1 1.1-.7 1.2l-66.2 20.1s-.1 0-.2 0z"/><path d="m841.1 1275.5h-70.9c-.6 0-1-.4-1-1s.4-1 1-1h70.9c9.1 0 17.4-5.3 21.2-13.5l59.2-126.1c.2-.5.8-.7 1.3-.5s.7.8.5 1.3l-59.2 126.1c-4.1 8.9-13.2 14.7-23 14.7z"/><path d="m829.1 1195.1c-.1 0-.2 0-.2 0-.5-.1-.9-.7-.7-1.2l3.9-15.3c1.4-5.4-.4-10.9-4.5-14.1l-46.8-36.2c-2.7-2.1-6.1-2.9-9.5-2.4-3.7.6-7.1 2.8-9.4 6.1-.3.5-.9.6-1.4.3s-.6-.9-.3-1.4c2.5-3.7 6.4-6.2 10.7-6.9 4-.6 7.9.4 11 2.8l46.8 36.2c4.7 3.7 6.8 10 5.2 16.2l-3.9 15.3c-.1.3-.5.6-.9.6z"/><path d="m758.1 1123.4c-.2 0-.4-.1-.5-.2l-72.2-47.3c-27.4-17.9-45-46.8-48.3-79.3l-3.4-32.3c-.1-.5.3-1 .9-1.1s1 .3 1.1.9l3.4 32.3c3.3 31.9 20.6 60.3 47.4 77.9l72.2 47.3c.5.3.6.9.3 1.4-.3.2-.6.4-.9.4z"/><path d="m798.6 1063.4c-.2 0-.4 0-.5-.1l-22.7-13.9c-29.6-18.1-47.7-46.1-51-78.8-.1-.5.3-1 .9-1.1.6 0 1 .3 1.1.9 3.2 32.1 21 59.6 50.1 77.3l22.7 13.9c.5.3.6.9.3 1.4-.3.2-.6.4-.9.4z"/><path d="m354.4 897.6c-.5 0-.9-.4-1-.9s.3-1 .9-1.1l133.6-16.6-68.1-248.3c-.1-.5.2-1.1.7-1.2s1.1.2 1.2.7l68.5 249.4c.1.3 0 .6-.1.8-.2.2-.4.4-.7.4l-134.8 16.7c-.1.1-.2.1-.2.1z"/><path d="m696.2 710.6c-.1 0-.2 0-.3 0-.5-.2-.8-.7-.7-1.2l29.1-98.3c.2-.5.7-.8 1.2-.7.5.2.8.7.7 1.2l-29.1 98.3c0 .4-.4.7-.9.7z"/><path d="m833.7 491.7c-.1 0-.3 0-.4-.1l-92-45.6c-.5-.2-.7-.8-.5-1.3s.8-.7 1.3-.5l91.9 45.6c.5.2.7.8.5 1.3-.1.4-.5.6-.8.6z"/><path d="m0 671.8c-.2 0-.4-.1-.5-.2-.5-.3-.6-.9-.3-1.4l84.7-131.1c.3-.5.9-.6 1.4-.3s.6.9.3 1.4l-84.8 131.2c-.2.2-.5.4-.8.4z"/><path d="m0 623.3c-.2 0-.4-.1-.5-.2-.5-.3-.6-.9-.3-1.4l73.8-114.1c1.7-2.7 4.4-4.6 7.4-5.5.5-.1 1.1.2 1.2.7s-.2 1.1-.7 1.2c-2.6.7-4.8 2.4-6.3 4.6l-73.8 114.3c-.2.3-.5.4-.8.4z"/><path d="m0 840.3c-.2 0-.4-.1-.5-.2-.5-.3-.6-.9-.3-1.4l95.9-148.4c1.6-2.5 2.1-5.4 1.5-8.3s-2.3-5.3-4.8-6.9l-1.9-1.2c-2.5-1.6-5.4-2.1-8.3-1.5s-5.3 2.3-6.9 4.8l-17.8 27.5c-.3.5-.9.6-1.4.3s-.6-.9-.3-1.4l17.8-27.5c3.9-6 12-7.8 18-3.9l1.9 1.2c6 3.9 7.8 12 3.9 18l-96 148.5c-.2.3-.5.4-.8.4z"/><path d="m0 791.8c-.2 0-.4-.1-.6-.2-.5-.3-.6-.9-.3-1.4l34.7-51.1c.3-.5.9-.6 1.4-.3s.6.9.3 1.4l-34.7 51.2c-.2.3-.5.4-.8.4z"/><path d="m0 998.9c-.2 0-.4-.1-.5-.2-.5-.3-.6-.9-.3-1.4l95.9-148.4c1.6-2.5 2.1-5.4 1.5-8.3s-2.3-5.3-4.8-6.9l-1.9-1.2c-5.1-3.3-11.9-1.8-15.2 3.3l-73.9 114.2c-.3.5-.9.6-1.4.3s-.6-.9-.3-1.4l73.9-114.2c1.9-2.9 4.8-4.9 8.2-5.6s6.9-.1 9.8 1.8l1.9 1.2c6 3.9 7.8 12 3.9 18l-96 148.4c-.2.2-.5.4-.8.4z"/><path d="m104.6 915.5c-.6 0-1-.4-1-1v-347.6c0-.6.4-1 1-1s1 .4 1 1v347.6c0 .6-.4 1-1 1z"/><path d="m67 519.3c-.6 0-1-.4-1-1v-37.1c0-.6.4-1 1-1h21.8c.6 0 1 .4 1 1s-.4 1-1 1h-20.8v36.1c0 .6-.4 1-1 1z"/><path d="m67 688c-.6 0-1-.4-1-1v-120.1c0-.6.4-1 1-1s1 .4 1 1v120.1c0 .5-.4 1-1 1z"/><path d="m67 803.2c-.6 0-1-.4-1-1v-66.8c0-.6.4-1 1-1s1 .4 1 1v66.8c0 .6-.4 1-1 1z"/><path d="m67 846.3c-.6 0-1-.4-1-1v-43c0-.6.4-1 1-1s1 .4 1 1v43c0 .5-.4 1-1 1z"/><path d="m67 915.5c-.6 0-1-.4-1-1v-20.3c0-.6.4-1 1-1s1 .4 1 1v20.3c0 .6-.4 1-1 1z"/><path d="m992.1 678.6c-.3 0-.6-.2-.8-.5l-100.3-155.2c-3.9-6-2.2-14.1 3.9-18l1.9-1.3c6-3.9 14.1-2.2 18 3.9l78.2 120.9c.3.5.2 1.1-.3 1.4s-1.1.2-1.4-.3l-78.2-120.8c-3.3-5.1-10.1-6.6-15.2-3.3l-1.9 1.3c-5.1 3.3-6.6 10.1-3.3 15.2l100.3 155.2c.3.5.2 1.1-.3 1.4-.2.1-.4.1-.6.1z"/><path d="m992.1 847c-.3 0-.6-.2-.8-.5l-94.5-146.2c-.3-.5-.2-1.1.3-1.4s1.1-.2 1.4.3l94.5 146.2c.3.5.2 1.1-.3 1.4-.2.1-.4.2-.6.2z"/><path d="m992.1 798.7c-.3 0-.6-.2-.8-.5l-78.2-121.1c-3.1-4.7-9.4-6.4-14.3-3.8-.5.3-1.1.1-1.3-.4-.3-.5-.1-1.1.4-1.4 5.9-3.1 13.3-1.1 16.9 4.5l78.2 121.2c.3.5.2 1.1-.3 1.4-.2.1-.4.1-.6.1z"/><path d="m992.1 1005.5c-.3 0-.6-.2-.8-.5l-100.3-155c-1.9-2.9-2.5-6.4-1.8-9.8s2.7-6.3 5.6-8.2l1.9-1.3c2.9-1.9 6.4-2.5 9.8-1.8s6.3 2.7 8.2 5.6l78.3 121c.3.5.2 1.1-.3 1.4s-1.1.2-1.4-.3l-78.2-120.8c-3.3-5.1-10.1-6.6-15.2-3.3l-1.9 1.3c-2.5 1.6-4.1 4-4.8 6.9-.6 2.9-.1 5.8 1.5 8.3l100.3 155c.3.5.2 1.1-.3 1.4-.2 0-.4.1-.6.1z"/><path d="m883.1 915.5c-.6 0-1-.4-1-1v-181.2c0-.6.4-1 1-1s1 .4 1 1v181.2c0 .6-.5 1-1 1z"/><path d="m883.1 632.4c-.6 0-1-.4-1-1v-150.2c0-.6.4-1 1-1h37.7c.6 0 1 .4 1 1v37.1c0 .6-.4 1-1 1s-1-.4-1-1v-36.1h-35.7v149.1c0 .6-.5 1.1-1 1.1z"/><path d="m920.7 688c-.6 0-1-.4-1-1v-120.1c0-.6.4-1 1-1s1 .4 1 1v120.1c0 .5-.4 1-1 1z"/><path d="m920.7 846.3c-.6 0-1-.4-1-1v-109.9c0-.6.4-1 1-1s1 .4 1 1v109.8c0 .6-.4 1.1-1 1.1z"/><path d="m920.7 915.5c-.6 0-1-.4-1-1v-20.3c0-.6.4-1 1-1s1 .4 1 1v20.3c0 .6-.4 1-1 1z"/><path d="m497.5 526.2h-38.2c-.6 0-1-.4-1-1s.4-1 1-1h38.2c.6 0 1 .4 1 1s-.5 1-1 1z"/><path d="m596 526.2h-9c-.6 0-1-.4-1-1s.4-1 1-1h9c.6 0 1 .4 1 1s-.5 1-1 1z"/><path d="m875.5 526.2h-31.1c-.6 0-1-.4-1-1s.4-1 1-1h31.1c3.6 0 6.6-3 6.6-6.6v-7.4c0-3.6-3-6.6-6.6-6.6l-45.7-1.2c-.6 0-1-.5-1-1 0-.6.4-1 1-1l45.7 1.2c4.7 0 8.6 3.8 8.6 8.6v7.4c0 4.8-3.9 8.6-8.6 8.6z"/><path d="m598.5 503.6h-4.5c-.6 0-1-.4-1-1s.4-1 1-1h4.5c.6 0 1 .4 1 1s-.4 1-1 1z"/><path d="m500.8 503.6h-43.2c-.6 0-1-.4-1-1s.4-1 1-1h43.2c.6 0 1 .4 1 1s-.4 1-1 1z"/><path d="m151.7 690.5h-39.4c-4.7 0-8.6-3.8-8.6-8.6v-7.4c0-4.7 3.8-8.6 8.6-8.6h42.9c.6 0 1 .4 1 1s-.4 1-1 1h-42.9c-3.6 0-6.6 3-6.6 6.6v7.4c0 3.6 3 6.6 6.6 6.6h39.4c.6 0 1 .4 1 1s-.5 1-1 1z"/><path d="m535.1 690.5h-98.2c-.6 0-1-.4-1-1s.4-1 1-1h98.2c.6 0 1 .4 1 1s-.5 1-1 1z"/><path d="m580 667.9h-13.3c-.6 0-1-.4-1-1s.4-1 1-1h13.3c.6 0 1 .4 1 1s-.5 1-1 1z"/><path d="m501.6 667.9h-69.8c-.6 0-1-.4-1-1s.4-1 1-1h69.8c.6 0 1 .4 1 1s-.4 1-1 1z"/><path d="m152.8 854.5h-40.5c-4.7 0-8.6-3.8-8.6-8.6v-7.4c0-4.7 3.8-8.6 8.6-8.6h38.5c.6 0 1 .4 1 1s-.4 1-1 1h-38.5c-3.6 0-6.6 3-6.6 6.6v7.4c0 3.6 3 6.6 6.6 6.6h40.5c.6 0 1 .4 1 1s-.5 1-1 1z"/><path d="m501.7 854.5h-19.8c-.6 0-1-.4-1-1s.4-1 1-1h19.8c.6 0 1 .4 1 1s-.5 1-1 1z"/><path d="m875.5 854.5h-78.8c-.6 0-1-.4-1-1s.4-1 1-1h78.8c3.6 0 6.6-3 6.6-6.6v-7.4c0-3.6-3-6.6-6.6-6.6h-16.9c-.6 0-1-.4-1-1s.4-1 1-1h16.9c4.7 0 8.6 3.8 8.6 8.6v7.4c0 4.7-3.9 8.6-8.6 8.6z"/><path d="m817 832-18.9-.1c-.6 0-1-.5-1-1 0-.6.5-1 1-1l18.9.1c.6 0 1 .5 1 1s-.5 1-1 1z"/><path d="m512.4 831.9h-36.7c-.6 0-1-.4-1-1s.4-1 1-1h36.7c.6 0 1 .4 1 1s-.5 1-1 1z"/><path d="m145.9 582.2c-21.8 0-41.9-10.3-54.6-28.4-14-19.8-16.3-44.9-6.2-66.9l52.7-114.4 1.6-3.6c11.2-25.9 29.1-48.4 51.8-65.2.4-.3 1.1-.2 1.4.2s.2 1.1-.2 1.4c-22.4 16.6-40.1 38.9-51.1 64.4l-1.6 3.6-52.8 114.4c-9.9 21.4-7.6 45.7 6 64.9s35.8 29.4 59.2 27.3l82.5-10.9c.5-.1 1.1.3 1.1.9.1.5-.3 1.1-.9 1.1l-82.6 10.9c-2 .2-4.2.3-6.3.3z"/><path d="m147.5 522.3c-.5 0-.9-.3-1-.8s.3-1.1.8-1.2l72.5-12.7c.5-.1 1.1.3 1.2.8s-.3 1.1-.8 1.2l-72.5 12.7c-.1 0-.1 0-.2 0z"/><path d="m162.8 519.4c-.1 0-.3 0-.4-.1-.5-.2-.8-.8-.5-1.3l37.7-91.7c.2-.5.8-.8 1.3-.5.5.2.8.8.5 1.3l-37.7 91.7c-.2.4-.5.6-.9.6z"/><path d="m384.4 599.1c-1.2 0-2.3 0-3.5-.1l-9.3-.3c-1.3 0-2.7-.2-4-.4l-3.1-.5c-.8-.2-19.9-4.3-29.7-9.4-1.5-.8-2.8-1.3-4.1-1.8l-.4-.1c-1.7-.6-3.4-1-5.1-1.2l-5.8-.8c-5.3-.7-10.6-.6-15.8.4l-62.5 11.9c-.5.1-1-.2-1.2-.7l-24.3-100.8c-.1-.3 0-.6.1-.8.2-.2.4-.4.7-.4l36.8-5.7c14.3-2.2 26.8-10.6 34.3-23l.5-.8c2.6-4.4 5.8-8.2 9.7-11.6.7-.8 9.6-10.4 14.3-12.7.5-.2 1.1 0 1.3.5s0 1.1-.5 1.3c-4.5 2.1-13.6 12.1-13.7 12.3 0 0 0 .1-.1.1-3.7 3.3-6.8 6.9-9.3 11.1l-.5.8c-7.8 12.9-20.8 21.6-35.7 24l-35.7 5.6 23.8 98.8 61.6-11.7c5.4-1 11-1.2 16.5-.4l5.8.8c1.8.2 3.7.7 5.4 1.3l.4.1c1.4.5 2.8 1.1 4.4 1.9 9.6 4.9 29 9.1 29.2 9.2l3 .5c1.2.2 2.5.3 3.7.4l9.3.3c11.7.4 22.7-1.1 33.7-4.4.5-.2 1.1.1 1.2.7.2.5-.1 1.1-.7 1.2-9.8 2.8-20.2 4.4-30.7 4.4z"/><path d="m451.4 557.5c-.1 0-.3 0-.4-.1-.5-.2-.7-.8-.5-1.3 5.2-12.2 10.6-31.2 6.4-52.3-4.8-24-20.9-45.5-47.7-64.2-7.2-5-15.1-9.1-23.4-12.1-.5-.2-.8-.8-.6-1.3s.8-.8 1.3-.6c8.5 3.1 16.6 7.2 23.9 12.3 27.2 18.9 43.6 40.9 48.5 65.4 4.4 21.6-1.1 41-6.5 53.4-.2.6-.6.8-1 .8z"/><path d="m280.8 589.1c-.4 0-.8-.3-1-.7l-27.4-98.9c-.1-.5.2-1.1.7-1.2s1.1.2 1.2.7l27.4 98.9c.1.5-.2 1.1-.7 1.2 0 0-.1 0-.2 0z"/><path d="m410.5 603.5c-.5 0-.9-.4-1-.9l-1.1-7.4c-.1-.5.3-1.1.8-1.1.5-.1 1.1.3 1.1.8l1.1 7.4c.1.5-.3 1.1-.8 1.1 0 .1-.1.1-.1.1z"/><path d="m500.4 421c-4.8 0-9.7-.6-14.6-1.7l-12.5-3-71.5-18c-7.4-1.9-15 2.4-17.3 9.6l-.1 1.2c-.1.5-.5.9-1.1.9-.5-.1-.9-.6-.9-1.1l.1-1.3c0-.1 0-.1 0-.2 2.6-8.3 11.3-13.2 19.8-11.1l71.5 18 12.5 2.9c24.2 5.7 48-3.4 62.1-23.9 14.1-20.4 14.3-46 .4-66.6l-10.6-15.8-12.9-20.7c-.3-.5-.1-1.1.3-1.4.5-.3 1.1-.1 1.4.3l12.9 20.7 10.6 15.7c14.4 21.3 14.2 47.7-.4 68.8-11.8 17.3-30 26.7-49.7 26.7z"/><path d="m490.1 346.4c-.3 0-.6-.2-.8-.4l-36.7-53.9c-.3-.5-.2-1.1.3-1.4s1.1-.2 1.4.3l36.7 53.9c.3.5.2 1.1-.3 1.4-.2 0-.4.1-.6.1z"/><path d="m483.5 336.9c-.1 0-.2 0-.3 0l-72.3-22.5c-.5-.2-.8-.7-.7-1.3s.7-.8 1.3-.7l72.3 22.5c.5.2.8.7.7 1.3-.2.5-.6.7-1 .7z"/><path d="m499.1 251.5c-.3 0-.6-.1-.8-.4-.3-.4-.3-1.1.2-1.4l21.9-17.1-36-51.3c-3.2-4.5-5.6-9.5-7.2-14.8l-2.4-8.2c-1.9-6.4-2.5-13-1.8-19.5.8-8-.4-16.2-3.5-23.6l-4.3-10.3c-4.4-10.6-10.5-20.4-18.1-29.1-5.8-6.6-13.3-11.5-21.7-14.2l-3.3-1.1c-.1 0-19-4.6-41.1-.1-20.4 4.2-47.8 17.2-62.9 55.6-.2.5-.8.8-1.3.6s-.8-.8-.6-1.3c15.4-39.3 43.5-52.6 64.4-56.9 22.6-4.6 41.8.1 42 .1l3.4 1.1c8.7 2.8 16.5 7.9 22.6 14.8 7.8 8.8 14 18.8 18.5 29.7l4.3 10.3c3.2 7.8 4.5 16.3 3.6 24.6-.6 6.3-.1 12.6 1.7 18.8l2.4 8.2c1.5 5.1 3.8 9.9 6.9 14.3l36.5 52.1c.3.4.2 1-.2 1.4l-22.7 17.7c-.1-.1-.3 0-.5 0z"/><path d="m440.1 248c-.3 0-.6-.1-.8-.4-.3-.4-.3-1.1.1-1.4l58.3-47.4c.4-.3 1.1-.3 1.4.1s.3 1.1-.1 1.4l-58.3 47.4c-.2.2-.4.3-.6.3z"/><path d="m169.2 603.5c-.6 0-1-.5-1-1.1l1.7-24.1c0-.6.5-1 1.1-.9.6 0 1 .5.9 1.1l-1.7 24.1c-.1.5-.5.9-1 .9z"/><path d="m678.5 623.5c-.1 0-.2 0-.4-.1s-25.2-9.9-49-26.2c-31.7-21.8-46.9-45.3-43.9-68.1.1-.8.2-1.5.2-2.2.3-4.1 2.3-19 16.6-40.3l12.5-15.7c.3-.4 1-.5 1.4-.2s.5 1 .2 1.4l-12.4 15.7c-14 20.8-16 35.3-16.2 39.3 0 .7-.1 1.5-.2 2.3-6.9 53.3 90.7 91.8 91.7 92.2.5.2.8.8.6 1.3-.3.4-.7.6-1.1.6z"/><path d="m754.5 787.5c-.2 0-.3 0-.5-.1-117.1-63-208.3-127.9-271.1-193.1-49.1-50.9-80.8-101.8-94.3-151.2-10-36.8-7.7-65.9-4-83.7 4-19.4 10.3-29.9 10.6-30.4s.9-.6 1.4-.3.6.9.3 1.4c-.3.4-25.3 42.9-6.3 112.6 13.4 49.1 45 99.7 93.8 150.4 62.6 64.9 153.6 129.7 270.5 192.6.5.3.7.9.4 1.4-.1.2-.5.4-.8.4z"/><path d="m715.3 609.8c-.1 0-.2 0-.2 0-.5-.1-.9-.7-.7-1.2l28.1-118.4c.1-.5.7-.9 1.2-.7.5.1.9.7.7 1.2l-28.1 118.4c-.2.4-.6.7-1 .7z"/><path d="m792 595.7c-.6-.1-1-.6-1-1.1l9-78.1c.1-.5.6-.9 1.1-.9.5.1.9.6.9 1.1l-9 78.1c-.1.5-.5.9-1 .9z"/><path d="m858.7 613.7c-.1 0-.3 0-.4-.1-.5-.2-.7-.8-.5-1.3 10.4-23.6 8.4-50.7-5.3-72.4l-23.5-37.9c-.3-.5-.1-1.1.3-1.4.5-.3 1.1-.1 1.4.3l23.5 37.9c14.1 22.3 16.1 50.1 5.4 74.3-.2.4-.5.6-.9.6z"/><path d="m658.6 690.5h-61.9c-.6 0-1-.4-1-1s.4-1 1-1h61.9c.6 0 1 .4 1 1s-.5 1-1 1z"/><path d="m568 714.4c-.6 0-1-.4-1-1v-3.7c0-.6.4-1 1-1s1 .4 1 1v3.7c0 .5-.4 1-1 1z"/><path d="m578.9 677.4c-.6-.1-1-.6-1-1.1l4.8-42.5c.1-.5.5-.9 1.1-.9.5.1.9.6.9 1.1l-4.8 42.5c-.1.5-.5.9-1 .9z"/><path d="m592.3 559c-.6-.1-1-.6-1-1.1l7.4-65.8c.1-.5.6-.9 1.1-.9.5.1.9.6.9 1.1l-7.4 65.8c-.1.5-.5.9-1 .9z"/><path d="m664.1 671.8c-.1 0-.2 0-.3 0-.4-.1-36-11.6-73.8-32.8-35-19.6-79-51.8-90.2-93.9-8.5-32.1 3-65.5 34.2-99.4 28.7-31.2 65.9-54 107.6-65.9l12-3.4c.5-.1 1.1.2 1.2.7s-.2 1.1-.7 1.2l-12 3.4c-41.4 11.8-78.3 34.4-106.7 65.3-30.7 33.3-42.1 66.2-33.7 97.6 11 41.4 54.6 73.2 89.2 92.6 37.6 21.1 73.1 32.5 73.5 32.6.5.2.8.7.6 1.3-.1.4-.5.7-.9.7z"/><path d="m437.3 1139.4c-.1 0-.2 0-.3 0-.5-.2-.8-.7-.7-1.2l62.9-204.8c.2-.5.7-.8 1.2-.7.5.2.8.7.7 1.2l-62.9 204.8c0 .4-.4.7-.9.7z"/><path d="m515.6 1150.4c-.1 0-.2 0-.4-.1-.5-.2-.8-.8-.6-1.3l77.1-193.6c.2-.5.8-.8 1.3-.6s.8.8.6 1.3l-77.1 193.6c-.1.5-.5.7-.9.7z"/><path d="m739.5 451.2c-.1 0-.1 0-.2 0-25.4-4.1-48.7-17.1-65.5-36.8-17-19.8-26.4-45.2-26.4-71.3 0-60.4 49.1-109.5 109.5-109.5 37.1 0 71.3 18.5 91.7 49.6.3.5.2 1.1-.3 1.4s-1.1.2-1.4-.3c-20-30.5-53.6-48.7-90-48.7-59.3 0-107.5 48.2-107.5 107.5 0 25.7 9.2 50.6 25.9 70 16.6 19.3 39.4 32.1 64.3 36.1.5.1.9.6.8 1.1 0 .5-.4.9-.9.9z"/><path d="m300.4 260.6c-.3 0-.5-.1-.7-.3-.4-.4-.4-1 0-1.4l7-7.1c.4-.4 1-.4 1.4 0s.4 1 0 1.4l-7 7.1c-.2.2-.4.3-.7.3z"/><path d="m307.5 260.6c-.3 0-.5-.1-.7-.3l-7-7.1c-.4-.4-.4-1 0-1.4s1-.4 1.4 0l7 7.1c.4.4.4 1 0 1.4-.2.3-.5.3-.7.3z"/><path d="m358.3 262c-.3 0-.5-.1-.7-.3-.4-.4-.4-1 0-1.4l9.7-9.8c.4-.4 1-.4 1.4 0s.4 1 0 1.4l-9.7 9.8c-.2.2-.5.3-.7.3z"/><path d="m368 262c-.3 0-.5-.1-.7-.3l-9.7-9.8c-.4-.4-.4-1 0-1.4s1-.4 1.4 0l9.7 9.8c.4.4.4 1 0 1.4-.2.2-.5.3-.7.3z"/><path d="m299.1 262c-.3 0-.5-.1-.7-.3-.4-.4-.4-1 0-1.4l9.7-9.8c.4-.4 1-.4 1.4 0s.4 1 0 1.4l-9.7 9.8c-.2.2-.4.3-.7.3z"/><path d="m308.8 262c-.3 0-.5-.1-.7-.3l-9.7-9.8c-.4-.4-.4-1 0-1.4s1-.4 1.4 0l9.7 9.8c.4.4.4 1 0 1.4-.2.2-.5.3-.7.3z"/><path d="m427.2 1147.7c-.5 0-.9-.3-1-.8-.3-1.6-.6-3.3-1-4.9l-18-83.4c-1.3-5.8 0-11.8 3.5-16.8 3.8-5.4 9.8-9 16.6-9.8l44.1-5.8c.5-.1 1.1.3 1.1.9.1.5-.3 1.1-.9 1.1l-44.1 5.8c-6.2.8-11.8 4.1-15.2 9-3.2 4.5-4.3 9.9-3.1 15.2l18 83.4c.4 1.6.7 3.3 1 5 .1.5-.3 1.1-.8 1.2-.1-.2-.2-.1-.2-.1z"/><path d="m632 1217.2c-.1 0-.1 0-.2 0l-119.2-.7c-.6 0-1-.5-1-1 0-.6.5-1 1-1l119.2.7c13 .1 24.1-8.5 26.4-20.5 2.4-12.7-6.2-25.2-19.6-28.4l-93.6-22.4c-9.2-2.2-16-9.3-17.3-18.2-.1-.6-.1-1.1-.2-1.5-.2-1.7-.3-2.7-.9-4.7-.1-.5.2-1.1.7-1.2s1.1.2 1.2.7c.6 2.1.7 3.3.9 4.9.1.4.1.9.2 1.5 1.1 8 7.3 14.5 15.8 16.5l93.6 22.4c14.5 3.5 23.7 17 21.1 30.7-2.4 12.9-14.2 22.2-28.1 22.2z"/><path d="m570.4 1203.3c-.2 0-.5-.1-.7-.3-.4-.4-.4-1-.1-1.4l39.8-43.9c.4-.4 1-.4 1.4-.1.4.4.4 1 .1 1.4l-39.8 43.9c-.1.3-.4.4-.7.4z"/><path d="m545.9 1203.1c-.2 0-.5-.1-.7-.3-.4-.4-.4-1-.1-1.4l44-48.5c.4-.4 1-.4 1.4-.1.4.4.4 1 .1 1.4l-44 48.5c-.1.3-.4.4-.7.4z"/><path d="m520 1202.9c-.2 0-.5-.1-.7-.3-.4-.4-.4-1-.1-1.4l48.1-53.5c.4-.4 1-.4 1.4-.1s.4 1 .1 1.4l-48.1 53.5c-.2.3-.4.4-.7.4z"/><path d="m522.7 1169.6c-.2 0-.5-.1-.7-.3-.4-.4-.4-1-.1-1.4l22.8-24.8c.4-.4 1-.4 1.4-.1.4.4.4 1 .1 1.4l-22.8 24.8c-.1.3-.4.4-.7.4z"/><path d="m656 1204.1-140.5-1.2c-.6 0-1-.5-1-1s.5-1 1-1l140.5 1.2c.6 0 1 .5 1 1s-.4 1-1 1z"/><path d="m533.9 1137.4c-.1 0-.2 0-.2 0l-11.9-3.1c-.5-.1-.9-.7-.7-1.2.1-.5.7-.9 1.2-.7l11.9 3.1c.5.1.9.7.7 1.2-.1.4-.5.7-1 .7z"/><path d="m182.7 1248.9h-61.3c-9.8 0-18.9-5.8-23.1-14.7l-56.7-121.1c-2.3-4.9-2.6-10.6-.8-15.5 1.7-4.6 5-8.2 9.4-10.1.1 0 .1 0 .2-.1 15.6-3.3 29.8-9.9 42.4-19.6l59.6-46.3c4.2-3.3 9.5-4.6 14.8-3.7 5.8 1 11 4.4 14.3 9.5l26.3 40.1c5.9 9.1 4.6 21-3.2 27.7l-52.3 45.2c-1.5 1.3-3.6 3-5.8 4.4-6.2 3.8-9.2 11.5-7.6 19.1l8.5 39.3 16.2 8.2 22.4 4.7c7.7 1.6 13.1 8.2 13.3 16.1.1 4.5-1.6 8.8-4.8 12-3.1 3-7.3 4.8-11.8 4.8zm-131.8-159.5c-3.8 1.7-6.7 4.9-8.2 8.9-1.6 4.4-1.4 9.5.7 14l56.7 121.1c3.8 8.2 12.2 13.5 21.2 13.5h61.3c4 0 7.7-1.6 10.5-4.4s4.3-6.6 4.2-10.5c-.1-6.9-4.9-12.7-11.7-14.1l-22.5-4.7c-.1 0-.2 0-.2-.1l-16.6-8.4h-.1l-55.4-16.5c-.5-.2-.8-.7-.7-1.2.2-.5.7-.8 1.2-.7l53.9 16-8.3-38.1c-1.8-8.4 1.6-16.9 8.5-21.2 2.1-1.3 4.1-3 5.6-4.2l52.3-45.2c7-6 8.2-16.8 2.8-25l-26.3-40.1c-3-4.6-7.7-7.8-12.9-8.6-4.8-.8-9.5.4-13.2 3.3l-59.7 46.2c-12.8 9.9-27.3 16.6-43.1 20z"/><path d="m163.4 1213.2c-.1 0-.1 0 0 0l-63.2-5.4c-.6 0-1-.5-.9-1.1s.5-1 1.1-.9l63.1 5.4c.6 0 1 .5.9 1.1-.1.5-.5.9-1 .9z"/><path d="m142.4 1185.3c-.1 0-.2 0-.3 0l-61.1-17.9c-.5-.2-.8-.7-.7-1.2.2-.5.7-.8 1.2-.7l61.1 17.9c.5.2.8.7.7 1.2-.1.4-.5.7-.9.7z"/><path d="m138.9 1169.3c-.1 0-.2 0-.3 0l-66.2-20.1c-.5-.2-.8-.7-.7-1.2.2-.5.7-.8 1.2-.7l66.2 20.1c.5.2.8.7.7 1.2-.1.4-.5.7-.9.7z"/><path d="m198.3 1232.6h-70.9c-9.8 0-18.9-5.7-23-14.6l-59.2-126.1c-.2-.5 0-1.1.5-1.3s1.1 0 1.3.5l59.2 126.1c3.8 8.2 12.2 13.5 21.2 13.5h70.9c.6 0 1 .4 1 1s-.4.9-1 .9z"/><path d="m139.3 1151.9c-.4 0-.9-.3-1-.8l-3.8-15c-1.6-6.1.5-12.5 5.2-16.2l46.8-36.2c3.1-2.4 7.1-3.4 11-2.8 4.3.7 8.2 3.2 10.7 6.9.3.5.2 1.1-.3 1.4s-1.1.2-1.4-.3c-2.2-3.3-5.6-5.5-9.4-6.1-3.4-.5-6.8.3-9.5 2.4l-46.8 36.2c-4.1 3.2-5.9 8.7-4.5 14.1l3.8 15c.1.5-.2 1.1-.7 1.2.1.2 0 .2-.1.2z"/><path d="m210.5 1080.5c-.3 0-.6-.2-.8-.5-.3-.5-.2-1.1.3-1.4l72.2-47.3c26.9-17.6 44.1-46 47.4-77.9l3.6-33.8c.1-.5.5-1 1.1-.9.5.1.9.5.9 1.1l-3.6 33.8c-3.4 32.5-21 61.4-48.3 79.3l-72.2 47.3c-.3.2-.5.3-.6.3z"/><path d="m170 1020.5c-.3 0-.7-.2-.9-.5-.3-.5-.1-1.1.3-1.4l22.7-13.9c25.5-15.6 42.7-39.3 48.4-66.7 1.1-5.2 1.6-10.9 1.6-16.8v-12.5c0-.6.4-1 1-1s1 .4 1 1v12.5c0 6.1-.6 11.9-1.7 17.2-5.8 28-23.4 52.2-49.3 68l-22.7 13.9c-.1.2-.3.2-.4.2z"/><path d="m482.4 992.7c-.5 0-.9-.3-1-.8l-25.5-107.9c-.1-.5.2-1.1.7-1.2s1.1.2 1.2.7l25.5 107.9c.1.5-.2 1.1-.7 1.2 0 .1-.1.1-.2.1z"/><path d="m414.3 1040c-.4 0-.8-.3-1-.7l-46.1-144.2c-.2-.5.1-1.1.6-1.3s1.1.1 1.3.6l46.1 144.2c.2.5-.1 1.1-.6 1.3-.1.1-.2.1-.3.1z"/><path d="m780.6 238.2c-.3 0-.6-.1-.8-.4l-19.4-25.3c-16.1-21-19-48.8-7.6-72.6l33.3-69.9c.2-.4.7-.7 1.2-.5l54.6 15.5c.3.1.5.3.6.5s.1.6 0 .8l-28.2 60.8c-2.7 5.8-1.4 12.7 3.1 17.2l27.9 27.5c.4.4.4 1 0 1.4s-1 .4-1.4 0l-27.9-27.3c-5.2-5.1-6.6-12.9-3.5-19.5l27.7-59.8-52.7-15-32.9 69c-11 23.2-8.2 50.2 7.4 70.6l19.4 25.3c.3.4.3 1.1-.2 1.4-.2.2-.4.3-.6.3z"/><path d="m81.5 348.5c-38.7 0-70.2-31.5-70.2-70.2s31.5-70.2 70.2-70.2 70.2 31.5 70.2 70.2-31.5 70.2-70.2 70.2zm0-138.4c-37.6 0-68.2 30.6-68.2 68.2s30.6 68.2 68.2 68.2 68.2-30.6 68.2-68.2-30.6-68.2-68.2-68.2z"/><path d="m610.2 258.5c-38.7 0-70.2-31.5-70.2-70.2s31.5-70.2 70.2-70.2 70.2 31.5 70.2 70.2-31.5 70.2-70.2 70.2zm0-138.4c-37.6 0-68.2 30.6-68.2 68.2s30.6 68.2 68.2 68.2 68.2-30.6 68.2-68.2-30.6-68.2-68.2-68.2z"/><path d="m992.1 745c-36.9-2.4-65.7-33.1-65.7-70.1 0-22 10-42.4 27.6-55.8.4-.3 1.1-.3 1.4.2.3.4.3 1.1-.2 1.4-17 13-26.8 32.8-26.8 54.2 0 35.9 28 65.8 63.8 68.1.6 0 1 .5.9 1.1 0 .5-.4.9-1 .9z"/><path d="m978.9 609c-.4 0-.8-.3-1-.7-.1-.5.2-1.1.7-1.2 4.3-1.1 8.8-1.9 13.2-2.2.6 0 1 .4 1.1.9 0 .6-.4 1-.9 1.1-4.3.3-8.6 1-12.8 2.1-.2 0-.2 0-.3 0z"/><path d="m439.8 700.9c-.1 0-.3 0-.4-.1-.5-.2-.7-.8-.5-1.3 1.7-3.6 3.7-7 5.9-10.1.3-.5.9-.6 1.4-.2.5.3.6.9.2 1.4-2.2 3.1-4.1 6.4-5.7 9.9-.1.1-.5.4-.9.4z"/><path d="m502.4 799.6c-14.1 0-27.6-4.1-39.2-12-.5-.3-.6-.9-.3-1.4s.9-.6 1.4-.3c11.3 7.6 24.5 11.6 38.1 11.6 9.5 0 18.7-1.9 27.4-5.7.5-.2 1.1 0 1.3.5s0 1.1-.5 1.3c-8.9 4-18.4 6-28.2 6z"/><path d="m473.1 667.7c-.4 0-.7-.2-.9-.6-.2-.5 0-1.1.5-1.3 6.6-3.1 13.6-5.1 20.9-6 .5-.1 1 .3 1.1.9.1.5-.3 1-.9 1.1-7 .9-13.9 2.9-20.3 5.9-.2 0-.3 0-.4 0z"/><path d="m58.8 700.5c-.2 0-.5-.1-.7-.3-15.1-13.3-23.7-32.5-23.7-52.6 0-23.8 11.9-45.8 31.9-58.8.5-.3 1.1-.2 1.4.3s.2 1.1-.3 1.4c-19.4 12.7-31 34-31 57.2 0 19.5 8.4 38.1 23 51.1.4.4.5 1 .1 1.4-.1.1-.4.3-.7.3z"/><path d="m104.7 717.8c-.6 0-1-.4-1-1s.4-1 1-1c5.7 0 11.4-.7 16.8-2.1.5-.1 1.1.2 1.2.7s-.2 1.1-.7 1.2c-5.6 1.5-11.5 2.2-17.3 2.2z"/><path d="m134 711.3c-.4 0-.7-.2-.9-.6-.2-.5 0-1.1.5-1.3 5.7-2.7 11.1-6.2 15.9-10.4.4-.4 1-.3 1.4.1s.3 1-.1 1.4c-5 4.3-10.5 7.9-16.4 10.7-.1.1-.2.1-.4.1z"/><path d="m164.4 613.7c-.3 0-.7-.2-.9-.5-12.2-20.8-34.8-33.8-58.9-33.8-.6 0-1-.4-1-1s.4-1 1-1c24.8 0 48.1 13.3 60.6 34.8.3.5.1 1.1-.4 1.4 0 .1-.2.1-.4.1z"/><path d="m12.2 931.5c-.1 0-.1 0 0 0-4.3-.4-8.4-1.1-12.4-2.2-.5-.1-.8-.7-.7-1.2s.7-.8 1.2-.7c3.9 1.1 7.9 1.8 12 2.2.6 0 1 .5.9 1.1-.1.4-.5.8-1 .8z"/><path d="m47.6 925.3c-.4 0-.7-.2-.9-.6-.2-.5 0-1.1.5-1.3 7.1-3.3 13.5-7.8 19.1-13.3.4-.4 1-.4 1.4 0s.4 1 0 1.4c-5.7 5.7-12.4 10.3-19.7 13.7-.2.1-.3.1-.4.1z"/><path d="m67 813.3c-.3 0-.5-.1-.7-.3-10-9.9-22.5-16.3-36.3-18.7-.5-.1-.9-.6-.8-1.2.1-.5.6-.9 1.2-.8 14.1 2.4 27.1 9.1 37.3 19.2.4.4.4 1 0 1.4-.2.3-.5.4-.7.4z"/><path d="m920.7 812.5c-.4 0-.7-.2-.9-.5-.3-.5-.1-1.1.4-1.3 10-5.1 20.7-7.7 32-7.7 4.5 0 8.9.4 13.3 1.2.5.1.9.6.8 1.2-.1.5-.6.9-1.2.8-4.2-.8-8.5-1.2-12.9-1.2-10.9 0-21.4 2.5-31.1 7.5 0 0-.2 0-.4 0z"/><path d="m951.4 943.3c-4.6-.1-9.2-.6-13.6-1.5-.5-.1-.9-.6-.8-1.2.1-.5.6-.9 1.2-.8 4.3.9 8.8 1.4 13.2 1.5.6 0 1 .5 1 1 0 .6-.5 1-1 1z"/><path d="m980.1 937.5c-.4 0-.8-.2-.9-.6-.2-.5 0-1.1.5-1.3 4.2-1.8 8.2-4.1 11.9-6.7.5-.3 1.1-.2 1.4.2s.2 1.1-.2 1.4c-3.8 2.7-8 5-12.3 6.9-.2.1-.3.1-.4.1z"/><path d="m551 431c-.5 0-.9-.3-1-.8-2-8.9-5.7-17.2-11-24.6-.3-.4-.2-1.1.2-1.4.5-.3 1.1-.2 1.4.2 5.5 7.7 9.3 16.2 11.3 25.4.1.5-.2 1.1-.8 1.2 0 0 0 0-.1 0z"/><path d="m414.3 442.9c-.6 0-1-.5-1-1 .6-13.9 5.3-27.2 13.6-38.3.3-.4 1-.5 1.4-.2s.5 1 .2 1.4c-8 10.9-12.6 23.7-13.2 37.3 0 .4-.4.8-1 .8z"/><circle cx="618.8" cy="156.8" r="3.1"/><path d="m618.8 160.9c-2.2 0-4.1-1.8-4.1-4.1s1.8-4.1 4.1-4.1 4.1 1.8 4.1 4.1-1.8 4.1-4.1 4.1zm0-6.1c-1.1 0-2.1.9-2.1 2.1 0 1.1.9 2.1 2.1 2.1 1.1 0 2.1-.9 2.1-2.1s-.9-2.1-2.1-2.1z"/><circle cx="579.8" cy="156.2" r="3.1"/><path d="m579.8 160.3c-2.2 0-4.1-1.8-4.1-4.1s1.8-4.1 4.1-4.1 4.1 1.8 4.1 4.1-1.9 4.1-4.1 4.1zm0-6.2c-1.1 0-2.1.9-2.1 2.1s.9 2.1 2.1 2.1c1.1 0 2.1-.9 2.1-2.1s-1-2.1-2.1-2.1z"/><path d="m606.8 186.8-6-.1c-4 0-7.6-2.1-9.7-5.4-2.1-3.4-2.4-7.5-.7-11.1l6.4-13.5c.2-.5.8-.7 1.3-.5s.7.8.5 1.3l-6.3 13.5c-1.4 3-1.2 6.4.5 9.2s4.7 4.5 8 4.5l5.9.1c.6 0 1 .5 1 1 .1.6-.4 1-.9 1z"/><circle cx="88.6" cy="282.8" r="3.1"/><path d="m88.6 286.9c-2.2 0-4.1-1.8-4.1-4.1s1.8-4.1 4.1-4.1 4.1 1.8 4.1 4.1-1.9 4.1-4.1 4.1zm0-6.1c-1.1 0-2.1.9-2.1 2.1 0 1.1.9 2.1 2.1 2.1s2.1-.9 2.1-2.1c-.1-1.2-1-2.1-2.1-2.1z"/><circle cx="127.6" cy="282.2" r="3.1"/><path d="m127.6 286.3c-2.2 0-4.1-1.8-4.1-4.1s1.8-4.1 4.1-4.1 4.1 1.8 4.1 4.1-1.8 4.1-4.1 4.1zm0-6.2c-1.1 0-2.1.9-2.1 2.1 0 1.1.9 2.1 2.1 2.1 1.1 0 2.1-.9 2.1-2.1 0-1.1-.9-2.1-2.1-2.1z"/><path d="m100.6 312.8c-.5 0-1-.4-1-1s.4-1 1-1l5.9-.1c3.3 0 6.3-1.7 8-4.5s1.9-6.2.6-9.2l-6.4-13.5c-.2-.5 0-1.1.5-1.3s1.1 0 1.3.5l6.4 13.5c1.7 3.6 1.4 7.7-.7 11.1s-5.7 5.4-9.7 5.4z"/><path d="m913.2 272.3c-38.7 0-70.2-31.5-70.2-70.2s31.5-70.2 70.2-70.2 70.2 31.5 70.2 70.2-31.5 70.2-70.2 70.2zm0-138.4c-37.6 0-68.2 30.6-68.2 68.2s30.6 68.2 68.2 68.2 68.2-30.6 68.2-68.2-30.6-68.2-68.2-68.2z"/><circle cx="913.4" cy="207" r="3.1"/><path d="m913.4 211.1c-2.2 0-4.1-1.8-4.1-4.1s1.8-4.1 4.1-4.1 4.1 1.8 4.1 4.1-1.8 4.1-4.1 4.1zm0-6.1c-1.1 0-2.1.9-2.1 2.1s.9 2.1 2.1 2.1c1.1 0 2.1-.9 2.1-2.1s-.9-2.1-2.1-2.1z"/><circle cx="874.4" cy="206.4" r="3.1"/><path d="m874.4 210.5c-2.2 0-4.1-1.8-4.1-4.1s1.8-4.1 4.1-4.1 4.1 1.8 4.1 4.1-1.9 4.1-4.1 4.1zm0-6.2c-1.1 0-2.1.9-2.1 2.1 0 1.1.9 2.1 2.1 2.1s2.1-.9 2.1-2.1-1-2.1-2.1-2.1z"/><path d="m901.4 237-6-.1c-4 0-7.6-2.1-9.7-5.4-2.1-3.4-2.4-7.5-.7-11.1l6.4-13.5c.2-.5.8-.7 1.3-.5s.7.8.5 1.3l-6.3 13.5c-1.4 3-1.2 6.4.6 9.2 1.7 2.8 4.7 4.5 8 4.5l5.9.1c.6 0 1 .5 1 1 0 .6-.5 1-1 1z"/><path d="m940 432.6c-.5 0-1-.4-1-1l-1.9-81c0-.6.4-1 1-1 .5-.1 1 .4 1 1l1.9 81c0 .6-.4 1-1 1z"/><path d="m992.1 286.6c-.3 0-.5-.1-.7-.3l-32.3-32.3c-.4-.4-.4-1 0-1.4s1-.4 1.4 0l32.4 32.4c.4.4.4 1 0 1.4-.3.1-.5.2-.8.2z"/><path d="m646.7 72h-78c-4.9 0-8.8-4-8.8-8.8v-23.8c0-4.9 4-8.8 8.8-8.8h78c4.9 0 8.8 4 8.8 8.8v23.7c0 4.9-3.9 8.9-8.8 8.9zm-78-39.4c-3.8 0-6.8 3.1-6.8 6.8v23.7c0 3.8 3.1 6.8 6.8 6.8h78c3.8 0 6.8-3.1 6.8-6.8v-23.7c0-3.8-3.1-6.8-6.8-6.8z"/><path d="m474.5 130.1c-.3 0-.7-.2-.9-.5-.3-.5-.1-1.1.4-1.4l60.5-35.1-34.1-39.1-58.1 16.2c-.5.1-1.1-.2-1.2-.7s.2-1.1.7-1.2l58.7-16.3c.4-.1.8 0 1 .3l35.3 40.5c.2.2.3.5.2.8 0 .3-.2.6-.5.7l-61.5 35.7c-.2.1-.3.1-.5.1z"/><path d="m555.2 231.3c-.1 0-.2 0-.3 0l-45.4-14.4c-.5-.2-.8-.7-.7-1.3.2-.5.7-.8 1.3-.6l45.4 14.4c.5.2.8.7.7 1.3-.2.3-.5.6-1 .6z"/><path d="m669.1 225.7c-.3 0-.6-.1-.8-.4-.3-.5-.2-1.1.2-1.4l52.9-36.9c7.2-5 9.3-14.8 4.8-22.2l-54.9-75.8c-.3-.4-.2-1 .2-1.3l41.1-35.3c.4-.3.9-.3 1.3 0l57.7 51.3c.4.4.4 1 .1 1.4-.4.4-1 .4-1.4.1l-57-50.7-39.7 34.2 54.4 75.2c5.1 8.5 2.7 19.4-5.3 25l-52.9 36.9c-.3-.2-.5-.1-.7-.1z"/><circle cx="112.1" cy="622.4" r="3.1"/><path d="m112.1 626.5c-2.2 0-4.1-1.8-4.1-4.1s1.8-4.1 4.1-4.1 4.1 1.8 4.1 4.1-1.8 4.1-4.1 4.1zm0-6.2c-1.1 0-2.1.9-2.1 2.1 0 1.1.9 2.1 2.1 2.1 1.1 0 2.1-.9 2.1-2.1s-.9-2.1-2.1-2.1z"/><circle cx="145.7" cy="602.4" r="3.1"/><path d="m145.7 606.5c-2.2 0-4.1-1.8-4.1-4.1s1.8-4.1 4.1-4.1 4.1 1.8 4.1 4.1-1.9 4.1-4.1 4.1zm0-6.2c-1.1 0-2.1.9-2.1 2.1 0 1.1.9 2.1 2.1 2.1 1.1 0 2.1-.9 2.1-2.1 0-1.1-1-2.1-2.1-2.1z"/><path d="m137 642.5c-.3 0-.7-.2-.9-.5-.3-.5-.1-1.1.4-1.4l5.1-3c2.8-1.7 4.6-4.6 4.7-7.9s-1.4-6.4-4.1-8.2l-12.2-8.5c-.5-.3-.6-.9-.2-1.4.3-.5.9-.6 1.4-.2l12.2 8.6c3.2 2.3 5.1 6 4.9 9.9-.2 4-2.3 7.5-5.7 9.5l-5.1 3c-.1.1-.3.1-.5.1z"/><circle cx="16.1" cy="851.7" r="3.1"/><path d="m16.1 855.7c-2.2 0-4.1-1.8-4.1-4.1s1.8-4.1 4.1-4.1 4.1 1.8 4.1 4.1-1.8 4.1-4.1 4.1zm0-6.1c-1.1 0-2.1.9-2.1 2.1s.9 2.1 2.1 2.1c1.1 0 2.1-.9 2.1-2.1s-.9-2.1-2.1-2.1z"/><circle cx="43.4" cy="823.7" r="3.1"/><path d="m43.4 827.7c-2.2 0-4.1-1.8-4.1-4.1s1.8-4.1 4.1-4.1 4.1 1.8 4.1 4.1-1.9 4.1-4.1 4.1zm0-6.1c-1.1 0-2.1.9-2.1 2.1s.9 2.1 2.1 2.1c1.1 0 2.1-.9 2.1-2.1s-1-2.1-2.1-2.1z"/><path d="m45.1 864.7c-.3 0-.5-.1-.7-.3-.4-.4-.4-1 0-1.4l4.2-4.2c2.3-2.3 3.2-5.6 2.5-8.8s-3-5.8-6.1-6.9l-14-5.1c-.5-.2-.8-.8-.6-1.3s.8-.8 1.3-.6l14 5.1c3.7 1.4 6.5 4.5 7.3 8.3.9 3.9-.3 7.9-3 10.7l-4.2 4.2c-.2.2-.4.3-.7.3z"/><circle cx="521.1" cy="716.8" r="3.1"/><path d="m521.1 720.8c-2.2 0-4.1-1.8-4.1-4.1s1.8-4.1 4.1-4.1 4.1 1.8 4.1 4.1-1.8 4.1-4.1 4.1zm0-6.1c-1.1 0-2.1.9-2.1 2.1 0 1.1.9 2.1 2.1 2.1s2.1-.9 2.1-2.1-.9-2.1-2.1-2.1z"/><circle cx="482.1" cy="716.1" r="3.1"/><path d="m482.1 720.2c-2.2 0-4.1-1.8-4.1-4.1s1.8-4.1 4.1-4.1 4.1 1.8 4.1 4.1-1.9 4.1-4.1 4.1zm0-6.1c-1.1 0-2.1.9-2.1 2.1 0 1.1.9 2.1 2.1 2.1 1.1 0 2.1-.9 2.1-2.1-.1-1.2-1-2.1-2.1-2.1z"/><path d="m509.1 746.8-6-.1c-4 0-7.6-2.1-9.7-5.4s-2.4-7.5-.7-11.1l6.4-13.5c.2-.5.8-.7 1.3-.5s.7.8.5 1.3l-6.3 13.5c-1.4 3-1.2 6.4.6 9.2 1.7 2.8 4.7 4.5 8 4.5l5.9.1c.6 0 1 .5 1 1s-.5 1-1 1z"/><circle cx="473" cy="428.4" r="3.1"/><path d="m473 432.5c-2.2 0-4.1-1.8-4.1-4.1s1.8-4.1 4.1-4.1 4.1 1.8 4.1 4.1-1.9 4.1-4.1 4.1zm0-6.2c-1.1 0-2.1.9-2.1 2.1 0 1.1.9 2.1 2.1 2.1 1.1 0 2.1-.9 2.1-2.1 0-1.1-1-2.1-2.1-2.1z"/><circle cx="433.9" cy="427.8" r="3.1"/><path d="m433.9 431.8c-2.2 0-4.1-1.8-4.1-4.1s1.8-4.1 4.1-4.1 4.1 1.8 4.1 4.1-1.8 4.1-4.1 4.1zm0-6.1c-1.1 0-2.1.9-2.1 2.1s.9 2.1 2.1 2.1c1.1 0 2.1-.9 2.1-2.1s-.9-2.1-2.1-2.1z"/><path d="m460.9 458.4-6-.1c-4 0-7.6-2.1-9.7-5.4-2.1-3.4-2.4-7.5-.7-11.1l6.4-13.5c.2-.5.8-.7 1.3-.5s.7.8.5 1.3l-6.4 13.5c-1.4 3-1.2 6.4.6 9.2 1.7 2.8 4.7 4.5 8 4.5l5.9.1c.6 0 1 .5 1 1 .1.6-.3 1-.9 1z"/><circle cx="976.3" cy="674.2" r="3.1"/><path d="m976.3 678.2c-2.2 0-4.1-1.8-4.1-4.1s1.8-4.1 4.1-4.1 4.1 1.8 4.1 4.1-1.8 4.1-4.1 4.1zm0-6.1c-1.1 0-2.1.9-2.1 2.1 0 1.1.9 2.1 2.1 2.1 1.1 0 2.1-.9 2.1-2.1s-.9-2.1-2.1-2.1z"/><circle cx="948.3" cy="646.9" r="3.1"/><path d="m948.3 651c-2.2 0-4.1-1.8-4.1-4.1s1.8-4.1 4.1-4.1 4.1 1.8 4.1 4.1-1.8 4.1-4.1 4.1zm0-6.2c-1.1 0-2.1.9-2.1 2.1 0 1.1.9 2.1 2.1 2.1s2.1-.9 2.1-2.1c0-1.1-.9-2.1-2.1-2.1z"/><path d="m947.6 688c-.2 0-.5-.1-.7-.3l-4.3-4.1c-2.8-2.8-4.1-6.7-3.3-10.6s3.4-7.1 7.1-8.5l13.9-5.5c.5-.2 1.1.1 1.3.6s-.1 1.1-.6 1.3l-13.9 5.5c-3 1.2-5.3 3.8-5.9 7s.4 6.5 2.7 8.8l4.3 4.1c.4.4.4 1 0 1.4 0 .2-.3.3-.6.3z"/><circle cx="945.8" cy="859.3" r="3.1"/><path d="m945.8 863.4c-2.2 0-4.1-1.8-4.1-4.1s1.8-4.1 4.1-4.1 4.1 1.8 4.1 4.1-1.8 4.1-4.1 4.1zm0-6.2c-1.1 0-2.1.9-2.1 2.1 0 1.1.9 2.1 2.1 2.1s2.1-.9 2.1-2.1c0-1.1-.9-2.1-2.1-2.1z"/><circle cx="984.9" cy="858.7" r="3.1"/><path d="m984.9 862.8c-2.2 0-4.1-1.8-4.1-4.1s1.8-4.1 4.1-4.1 4.1 1.8 4.1 4.1-1.9 4.1-4.1 4.1zm0-6.2c-1.1 0-2.1.9-2.1 2.1 0 1.1.9 2.1 2.1 2.1 1.1 0 2.1-.9 2.1-2.1s-1-2.1-2.1-2.1z"/><path d="m957.9 889.3c-.5 0-1-.4-1-1s.4-1 1-1l5.9-.1c3.3 0 6.3-1.7 8-4.5s1.9-6.2.5-9.2l-6.3-13.5c-.2-.5 0-1.1.5-1.3s1.1 0 1.3.5l6.3 13.5c1.7 3.6 1.4 7.7-.7 11.1s-5.7 5.4-9.7 5.4z"/><path d="m547.4 323.9c-.2 0-.4-.1-.6-.2-.5-.3-.6-.9-.3-1.4 7-10.6 16.8-19.1 28.2-24.6.5-.2 1.1 0 1.3.5s0 1.1-.5 1.3c-11.1 5.3-20.6 13.6-27.4 23.9-.1.3-.4.5-.7.5z"/><path d="m565.9 419.1c-.2 0-.4-.1-.6-.2-7.9-5.5-14.6-12.4-19.7-20.6-.3-.5-.1-1.1.3-1.4.5-.3 1.1-.1 1.4.3 5 7.9 11.4 14.7 19.1 20 .5.3.6.9.3 1.4-.2.4-.5.5-.8.5z"/><circle cx="621.1" cy="344.5" r="3.1"/><path d="m621.1 348.6c-2.2 0-4.1-1.8-4.1-4.1s1.8-4.1 4.1-4.1 4.1 1.8 4.1 4.1-1.8 4.1-4.1 4.1zm0-6.2c-1.1 0-2.1.9-2.1 2.1 0 1.1.9 2.1 2.1 2.1 1.1 0 2.1-.9 2.1-2.1 0-1.1-.9-2.1-2.1-2.1z"/><circle cx="582.1" cy="343.9" r="3.1"/><path d="m582.1 347.9c-2.2 0-4.1-1.8-4.1-4.1s1.8-4.1 4.1-4.1 4.1 1.8 4.1 4.1-1.9 4.1-4.1 4.1zm0-6.1c-1.1 0-2.1.9-2.1 2.1 0 1.1.9 2.1 2.1 2.1s2.1-.9 2.1-2.1-1-2.1-2.1-2.1z"/><path d="m609.1 374.5-6-.1c-4 0-7.6-2.1-9.7-5.4-2.1-3.4-2.4-7.5-.7-11.1l6.4-13.5c.2-.5.8-.7 1.3-.5s.7.8.5 1.3l-6.3 13.5c-1.4 3-1.2 6.4.5 9.2s4.7 4.5 8 4.5l5.9.1c.6 0 1 .5 1 1 .1.6-.4 1-.9 1z"/><path d="m883 540.2c-.3 0-.6-.2-.8-.5-2.9-4.5-5.3-9.3-7.1-14.3-.2-.5.1-1.1.6-1.3s1.1.1 1.3.6c1.8 4.8 4.1 9.5 6.9 13.9.3.5.2 1.1-.3 1.4-.2.1-.4.2-.6.2z"/><path d="m953.7 570.5c-.5 0-.9-.3-1-.8s.3-1.1.8-1.2c14.5-2.7 27.9-10.1 37.9-21.1.4-.4 1-.4 1.4-.1.4.4.4 1 .1 1.4-10.3 11.2-24.1 18.9-39 21.7-.1.1-.1.1-.2.1z"/><path d="m871.8 502.5c-.6 0-1-.4-1-1 0-38.7 31.5-70.2 70.2-70.2 19.7 0 38.7 8.4 52 23 .4.4.3 1-.1 1.4s-1 .3-1.4-.1c-12.9-14.2-31.3-22.3-50.5-22.3-37.6 0-68.2 30.6-68.2 68.2 0 .5-.4 1-1 1z"/><circle cx="941.2" cy="512.5" r="3.1"/><path d="m941.2 516.5c-2.2 0-4.1-1.8-4.1-4.1s1.8-4.1 4.1-4.1 4.1 1.8 4.1 4.1-1.9 4.1-4.1 4.1zm0-6.1c-1.1 0-2.1.9-2.1 2.1 0 1.1.9 2.1 2.1 2.1 1.1 0 2.1-.9 2.1-2.1s-1-2.1-2.1-2.1z"/><circle cx="980.3" cy="511.8" r="3.1"/><path d="m980.3 515.9c-2.2 0-4.1-1.8-4.1-4.1s1.8-4.1 4.1-4.1 4.1 1.8 4.1 4.1-1.9 4.1-4.1 4.1zm0-6.2c-1.1 0-2.1.9-2.1 2.1s.9 2.1 2.1 2.1c1.1 0 2.1-.9 2.1-2.1s-1-2.1-2.1-2.1z"/><path d="m953.3 542.5c-.5 0-1-.4-1-1s.4-1 1-1l5.9-.1c3.3 0 6.3-1.7 8-4.5s1.9-6.2.6-9.2l-6.3-13.5c-.2-.5 0-1.1.5-1.3s1.1 0 1.3.5l6.4 13.5c1.7 3.6 1.4 7.7-.7 11.1s-5.7 5.4-9.7 5.4z"/><path d="m116.5 219.6c-.4 0-.8-.3-1-.7l-33.3-107c-.1-.3 0-.6.1-.8s.4-.4.7-.5l56.8-11.8c.5-.1.9.2 1.1.6l39.1 95c.2.5 0 1.1-.5 1.3s-1.1 0-1.3-.5l-38.7-94.2-54.9 11.4 32.9 105.9c.2.5-.1 1.1-.7 1.3-.1 0-.2 0-.3 0z"/><path d="m103 451.3c-.1 0-.1 0-.2 0-.5-.1-.9-.6-.8-1.1 3.5-21.9-3.9-44.2-19.8-59.7-21.8-21.2-55.4-25.4-81.7-10.2-.5.3-1.1.1-1.4-.4s-.1-1.1.4-1.4c27.1-15.7 61.6-11.4 84.1 10.5 16.3 15.9 24 38.9 20.4 61.4-.1.5-.5.9-1 .9z"/><path d="m34.7 509.5c-12.2 0-24.4-3.1-35.2-9.4-.5-.3-.6-.9-.4-1.4s.9-.6 1.4-.4c20 11.6 45.1 12.1 65.6 1.5.5-.3 1.1-.1 1.3.4.3.5.1 1.1-.4 1.3-10 5.4-21.2 8-32.3 8z"/><circle cx="30.6" cy="449.7" r="3.1"/><path d="m30.6 453.8c-2.2 0-4.1-1.8-4.1-4.1s1.8-4.1 4.1-4.1 4.1 1.8 4.1 4.1-1.8 4.1-4.1 4.1zm0-6.1c-1.1 0-2.1.9-2.1 2.1 0 1.1.9 2.1 2.1 2.1 1.1 0 2.1-.9 2.1-2.1s-.9-2.1-2.1-2.1z"/><circle cx="69.1" cy="456.4" r="3.1"/><path d="m69.1 460.4c-2.2 0-4.1-1.8-4.1-4.1s1.8-4.1 4.1-4.1 4.1 1.8 4.1 4.1-1.8 4.1-4.1 4.1zm0-6.1c-1.1 0-2.1.9-2.1 2.1 0 1.1.9 2.1 2.1 2.1 1.1 0 2.1-.9 2.1-2.1s-.9-2.1-2.1-2.1z"/><path d="m44.8 482.7c-.7 0-1.4-.1-2-.2l-5.8-1c-.5-.1-.9-.6-.8-1.2.1-.5.6-.9 1.2-.8l5.9 1c3.2.6 6.5-.5 8.7-2.9s3.1-5.7 2.2-8.9l-3.7-14.4c-.1-.5.2-1.1.7-1.2s1.1.2 1.2.7l3.7 14.4c1 3.8 0 7.9-2.7 10.8-2.3 2.4-5.4 3.7-8.6 3.7z"/><path d="m677.6 84.7h-29.1c-2.8 0-5.4-1.6-6.5-4.2-1-2.2-.9-4.7.4-6.8s3.5-3.3 5.9-3.4h.6c3.3-.1 6.2-1.5 8.4-3.9 2.1-2.4 3.1-5.6 2.8-8.8l-1.6-15.2c-.6-5.6-5.3-10.1-11-10.3l-16.7-.8c-3.7-.2-6.7-3.2-6.7-7 0-1.9.8-3.7 2.2-5.1 1.4-1.3 3.2-2 5.2-2l22.7 1c13.4.6 26 7.6 33.6 18.7l16.2 23.7c.3.5.2 1.1-.3 1.4s-1.1.2-1.4-.3l-16.2-23.7c-7.2-10.6-19.2-17.3-32-17.8l-22.7-1c-1.4-.1-2.7.4-3.7 1.4s-1.5 2.2-1.5 3.6c0 2.7 2.1 4.9 4.8 5l16.7.8c6.7.3 12.2 5.4 12.8 12.1l1.6 15.2c.4 3.7-.8 7.5-3.3 10.3-2.5 2.9-6 4.5-9.8 4.6h-.6c-1.8.1-3.3.9-4.2 2.4s-1 3.3-.3 4.9c.8 1.8 2.7 3 4.7 3h29.1c.6 0 1 .4 1 1s-.5 1.2-1.1 1.2z"/><path d="m530.1 87c-.5 0-1-.4-1-.9 0-.6.4-1 .9-1.1l32.4-2.3c2.1 0 3.9-1.2 4.8-3 .7-1.6.6-3.4-.3-4.9s-2.5-2.4-4.2-2.4h-.6c-3.8-.1-7.3-1.8-9.8-4.6s-3.7-6.6-3.3-10.3l1.6-15.2c.7-6.6 6.2-11.8 12.8-12.1l16.6-.8c2.7-.1 4.8-2.3 4.8-5 0-1.4-.5-2.7-1.5-3.6-1-1-2.3-1.4-3.7-1.4l-22.7 1c-12.8.6-24.8 7.2-32 17.8l-16.2 23.7c-.3.5-.9.6-1.4.3s-.6-.9-.3-1.4l16.2-23.7c7.6-11.1 20.1-18.1 33.6-18.7l22.7-1c1.9-.1 3.8.6 5.2 2 1.4 1.3 2.2 3.1 2.2 5.1 0 3.7-2.9 6.8-6.7 7l-16.6.8c-5.7.3-10.4 4.7-11 10.3l-1.6 15c-.3 3.2.7 6.4 2.8 8.8s5.1 3.8 8.4 3.9h.6c2.4.1 4.6 1.3 5.9 3.4s1.4 4.6.4 6.8c-1.2 2.5-3.7 4.2-6.5 4.2z"/><path d="m104.7 755.2c-.1 0-.3 0-.4-.1-.5-.2-.7-.8-.5-1.3l2.7-6.1 18.6-41.9c1-2.4 3.6-3.7 6.2-3.1 1.5.3 2.8 1.3 3.6 2.7s.9 3 .4 4.4l-8.5 25.4c-.2.5-.7.8-1.3.6-.5-.2-.8-.7-.6-1.3l8.6-25.5c.3-.9.2-2-.3-2.8-.5-.9-1.3-1.5-2.3-1.7-1.6-.4-3.2.5-3.9 2l-18.6 41.9-2.7 6.1c-.3.4-.7.7-1 .7z"/><path d="m119.4 753.4c-.3 0-.6-.1-.8-.4-.3-.4-.2-1.1.2-1.4l11.1-8.3c1.7-1.3 2.2-3.6 1.2-5.5-.6-1.1-1.7-1.9-2.9-2.2-1.3-.3-2.6.1-3.6.9l-5.3 4.3c-.4.3-1.1.3-1.4-.1-.4-.4-.3-1.1.1-1.4l5.3-4.3c1.5-1.2 3.4-1.7 5.2-1.3 1.9.4 3.4 1.5 4.3 3.2 1.5 2.7.7 6.2-1.8 8l-11.1 8.3c0 .1-.3.2-.5.2z"/><path d="m132.7 741.2c-.2 0-.5-.1-.7-.3-.4-.4-.4-1-.1-1.4l3.3-3.6c3.8-3.8.2-8.4-1.1-9.8l-4.7-3.9c-.4-.4-.5-1-.1-1.4s1-.5 1.4-.1l4.8 4 .1.1c4.1 4.4 4.5 9.2 1.1 12.6l-3.3 3.6c-.1 0-.4.2-.7.2z"/><path d="m132.6 751.1c-1.3 0-2.5-.4-3.6-1.1-1.1-.8-2-2-2.4-3.4-.2-.5.1-1.1.7-1.2.5-.2 1.1.1 1.2.7.3.9.8 1.7 1.6 2.3 1 .7 2.3.9 3.7.6.2 0 .3-.1.4-.1 2.3-1 9.6-5 6.4-12.3l-4.1-6.5c-.3-.5-.2-1.1.3-1.4s1.1-.2 1.4.3l4.1 6.6.1.1c2.6 5.9-.3 11.8-7.4 15-.2.1-.5.2-.8.3-.4 0-1 .1-1.6.1z"/><path d="m140.7 757.4c-1.9 0-3.9-.8-5.3-2.2l-4.2-4.3c-.4-.4-.4-1 0-1.4s1-.4 1.4 0l4.2 4.3c2.1 2.1 5.4 2.2 7.5.2 1.8-1.6 2.3-4.1 1.3-6.3l-4.1-8.9c-.2-.5 0-1.1.5-1.3s1.1 0 1.3.5l4.1 8.9c1.4 2.9.7 6.4-1.7 8.6-1.5 1.3-3.3 1.9-5 1.9z"/><path d="m109 832.6c-.1 0-.3 0-.4-.1-.5-.2-.8-.8-.5-1.3l23.7-58.1c.8-1.9 2-3.7 3.6-5.1l3.8-3.4c2.6-2.4 4.1-5.7 4-9.2 0-.6.4-1 1-1s1 .4 1 1c.1 4.1-1.6 8-4.6 10.8l-3.8 3.4c-1.3 1.2-2.4 2.7-3.1 4.4l-23.8 58c-.1.4-.5.6-.9.6z"/><path d="m543.9 630.3h-23c-.6 0-1-.4-1-1s.4-1 1-1h23c3.8 0 6.8-3.1 6.8-6.8v-8.8c0-.6.4-1 1-1s1 .4 1 1v8.8c0 4.8-3.9 8.8-8.8 8.8z"/><path d="m526.8 590.9h-46.4c-.6 0-1-.4-1-1s.4-1 1-1h46.4c.6 0 1 .4 1 1s-.4 1-1 1z"/><path d="m582.8 643.1h-37.1c-2.8 0-5.4-1.6-6.5-4.2-1-2.2-.9-4.7.4-6.8s3.5-3.3 5.9-3.4h.6c6-.2 10.9-5 11.2-11 0-.6.5-1 1-1 .6 0 1 .5 1 1-.3 7-6.1 12.7-13.1 12.9h-.6c-1.8.1-3.3.9-4.2 2.4s-1 3.3-.3 4.9c.8 1.8 2.7 3 4.7 3h37.1c.6 0 1 .4 1 1s-.6 1.2-1.1 1.2z"/><path d="m416.8 603.5c-.2 0-.4-.1-.6-.2-.5-.3-.6-.9-.3-1.4l2.9-4.2c.3-.5.9-.6 1.4-.3s.6.9.3 1.4l-2.9 4.2c-.1.3-.5.5-.8.5z"/><path d="m478.7 589.4c-.5 0-1-.4-1-1s.4-1 1-1c.8 0 3.4-.2 3.4-4.8 0-1.4-.5-2.7-1.5-3.6-1-1-2.3-1.4-3.7-1.4l-8.5.4c-.6 0-1-.4-1-1s.4-1 1-1l8.6-.4c1.9-.1 3.8.6 5.2 2 1.4 1.3 2.2 3.1 2.2 5.1-.3 5.6-3.7 6.6-5.7 6.7z"/><path d="m424.5 645.4c-.5 0-1-.4-1-.9 0-.6.4-1 .9-1.1l35.2-2.3c2.2 0 3.8-.9 4.5-2.6.2-.5.8-.7 1.3-.5s.7.8.5 1.3c-1.1 2.4-3.4 3.8-6.3 3.8z"/><path d="m20.2 372.7c-.1 0-.2 0-.3-.1-.5-.2-.8-.8-.6-1.3l14.7-42.1c.2-.5.8-.8 1.3-.6s.8.8.6 1.3l-14.7 42.1c-.1.4-.5.7-1 .7z"/><path d="m91.6 401.1c-.1 0-.2 0-.4-.1-.5-.2-.8-.8-.6-1.3l9-22.7c.2-.5.8-.8 1.3-.6s.8.8.6 1.3l-9 22.7c-.1.5-.5.7-.9.7z"/><path d="m131.9 72.3c-.5 0-.9-.3-1-.8s.2-1.1.8-1.2l7.1-1.5c.3 0 22.9-3.6 27.8-13.9 1.5-3.2 1.1-6.7-1.1-10.6-11.2-19.3-57.3-23.9-57.8-23.9-.1 0-.1 0-.2 0-29.3-8.3-40.6-6-50.5 10.3-10.1 16.6-55 21.6-56.9 21.8-.5.1-1-.3-1.1-.9s.3-1 .9-1.1c.5 0 45.8-5.1 55.4-20.9 10.3-17 22.6-19.6 52.6-11.2 1.1.1 12.5 1.3 25 4.7 17.8 4.8 29.3 11.6 34.2 20.2 2.6 4.5 3 8.7 1.2 12.5-5.4 11.2-28.2 14.8-29.2 15z"/><path d="m137.5 100.8c-.5 0-.9-.3-1-.8l-6.2-31.3c-.3-1.4-1.2-2.5-2.5-3.1s-2.7-.6-4 0c-1.8.9-2.9 3-2.4 5l2.3 11.1c.1.5-.2 1.1-.8 1.2-.5.1-1.1-.2-1.2-.8l-2.3-11.1c-.6-2.9.9-5.9 3.5-7.2 1.8-.9 3.9-.9 5.8 0 1.8.9 3.1 2.5 3.6 4.5l6.2 31.4c.1.5-.2 1.1-.8 1.2-.1-.1-.1-.1-.2-.1z"/><path d="m111.5 85.1c-.5 0-.9-.3-1-.8l-2.3-11.1c-.6-3 .9-6 3.6-7.3 1.8-.9 3.9-.9 5.8-.1 1.8.9 3.2 2.5 3.7 4.5.1.5-.2 1.1-.7 1.2s-1.1-.2-1.2-.7c-.3-1.4-1.3-2.5-2.6-3.1s-2.8-.6-4.1.1c-1.9.9-2.9 3.1-2.5 5.1l2.3 11.1c.1.5-.2 1.1-.8 1.2 0-.1-.1-.1-.2-.1z"/><path d="m100.3 86.6c-.5 0-.9-.3-1-.8l-2.3-11c-.6-3 .9-6 3.6-7.3 1.8-.9 3.9-.9 5.8-.1 1.8.9 3.2 2.5 3.7 4.5.1.5-.2 1.1-.7 1.2s-1.1-.2-1.2-.7c-.3-1.4-1.3-2.5-2.6-3.1s-2.8-.6-4.1.1c-1.9.9-2.9 3.1-2.5 5.1l2.3 11.1c.1.5-.2 1.1-.8 1.2-.1-.2-.2-.2-.2-.2z"/><path d="m86.8 111.9c-.4 0-.8-.3-1-.7l-.6-2.2c-1.6-5.9-6.1-10.4-11.9-12.2-2.9-1-4.7-3.8-4.5-6.8.2-2 1.2-3.9 2.9-5 1.7-1.2 3.8-1.5 5.7-.9l10.3 2.1-2-9.6c-.6-3 .9-6 3.6-7.3 1.8-.9 3.9-.9 5.8-.1 1.8.9 3.2 2.5 3.7 4.5.1.5-.2 1.1-.7 1.2s-1.1-.2-1.2-.7c-.3-1.4-1.3-2.5-2.6-3.1s-2.8-.6-4.1.1c-1.9.9-2.9 3.1-2.5 5.1l2.3 10.9c.1.3 0 .7-.3.9s-.6.3-.9.3l-11.9-2.4c-1.5-.4-2.9-.2-4.1.6s-1.9 2.1-2 3.5c-.2 2.1 1.1 4.1 3.1 4.8 6.4 2 11.4 7.1 13.2 13.6l.6 2.2c.1.5-.2 1.1-.7 1.2 0 0-.1 0-.2 0z"/><path d="m-1.6 133.9c-.4 0-.8-.2-.9-.6-.2-.5.1-1.1.6-1.3.3-.1 32.2-12.3 40-27.8 1.9-3.7 3.9-5.8 6.3-6.4 3.4-.9 6.6 1.3 9.7 3.4 3.5 2.3 6.8 4.5 9.9 2.6 8.7-5.3 12.5-7.4 12.5-7.5.5-.3 1.1-.1 1.4.4s.1 1.1-.4 1.4c0 0-3.8 2.1-12.5 7.4-4.2 2.6-8.4-.2-12.1-2.7-2.9-1.9-5.6-3.8-8.1-3.1-1.8.5-3.4 2.2-5 5.4-3.4 6.8-11.4 13.8-23.7 20.6-9.1 5-17.3 8.2-17.4 8.2 0 0-.2 0-.3 0z"/><path d="m4.3 114.9c-.5 0-.9-.3-1-.8s.2-1.1.8-1.2c.2 0 15.7-3.5 18.1-14.1 1.3-5.6 6-10.4 12.5-12.8 6.1-2.2 12.2-1.7 16.1 1.2.4.3.5 1 .2 1.4s-1 .5-1.4.2c-3.4-2.6-8.8-2.9-14.2-1-5.9 2.1-10.1 6.4-11.2 11.4-2.7 11.9-19 15.5-19.7 15.7-.1 0-.2 0-.2 0z"/><path d="m77.2 33.1c-.4 0-.7-.2-.9-.5-.3-.5-.1-1.1.4-1.4.2-.1 5.7-3 13.5-4.7 10.3-2.3 19.6-1.4 26.9 2.6.5.3.7.9.4 1.4s-.9.7-1.4.4c-8.6-4.7-18.6-3.9-25.4-2.4-7.5 1.7-13 4.5-13 4.6-.2 0-.4 0-.5 0z"/><path d="m4.3 70.1c-.3 0-.7-.2-.9-.5-.3-.5-.1-1.1.4-1.4s1.4-.6 2.9-1c4.1-1.2 12.7-3.6 24-10.4 14.5-8.7 32.4-7.2 40.7-4.8.5.1.8.7.7 1.2s-.7.8-1.2.7c-8-2.2-25.2-3.8-39.2 4.6-11.5 7-20.2 9.5-24.5 10.7-1.2.3-2.2.6-2.5.8-.1.1-.3.1-.4.1z"/><path d="m789.9 72.3c-.1 0-.2 0-.3-.1-.5-.2-.8-.8-.6-1.3l9.1-25.9c1.8-5 7.4-7.8 12.4-6.1 5 1.6 7.9 6.9 6.5 12l-2.5 9.1c-.5 1.7-1.7 3.2-3.3 3.9-1.6.8-3.5.8-5.1.1-2.9-1.2-4.3-4.4-3.4-7.4l1.7-5.6c.2-.5.7-.8 1.2-.7.5.2.8.7.7 1.2l-1.7 5.6c-.6 2 .4 4.2 2.3 5 1.1.5 2.4.5 3.4-.1 1.1-.5 1.9-1.5 2.2-2.7l2.5-9.1c1.1-4.1-1.2-8.3-5.2-9.6-4.1-1.3-8.5.9-9.9 4.9l-9.1 25.9c-.1.6-.5.9-.9.9z"/><path d="m818.3 67.7c-.8 0-1.7-.2-2.5-.5-2.9-1.2-4.3-4.4-3.4-7.4.2-.5.7-.8 1.2-.7.5.2.8.7.7 1.2-.6 2 .4 4.2 2.3 5 1.1.5 2.4.5 3.4-.1 1.1-.5 1.9-1.5 2.2-2.7l2.5-9.1c1.1-4.1-1.2-8.3-5.2-9.6-1.6-.5-3.2-.5-4.8 0-.5.2-1.1-.1-1.3-.7-.2-.5.1-1.1.7-1.3 2-.6 4-.6 6 .1 5 1.6 7.9 6.9 6.5 12l-2.5 9.1c-.5 1.7-1.7 3.2-3.3 3.9-.7.6-1.6.8-2.5.8z"/><path d="m828.3 70.4c-.8 0-1.7-.2-2.5-.5-2.9-1.2-4.3-4.4-3.4-7.4.2-.5.7-.8 1.2-.7.5.2.8.7.7 1.2-.6 2 .4 4.2 2.3 5 1.1.5 2.4.5 3.4-.1 1.1-.5 1.9-1.5 2.2-2.7l2.5-9.1c1.1-4.1-1.2-8.3-5.2-9.6-1.6-.5-3.2-.5-4.8 0-.5.2-1.1-.1-1.3-.7-.2-.5.1-1.1.7-1.3 2-.6 4-.6 6 .1 5 1.6 7.9 6.9 6.5 12l-2.5 9.1c-.5 1.7-1.7 3.2-3.3 3.9-.7.6-1.6.8-2.5.8z"/><path d="m838.3 73.6c-.8 0-1.7-.2-2.5-.5-2.9-1.2-4.3-4.4-3.4-7.4.2-.5.7-.8 1.2-.7.5.2.8.7.7 1.2-.6 2 .4 4.2 2.3 5 1.1.5 2.4.5 3.4-.1 1.1-.5 1.9-1.5 2.2-2.7l2.5-9.1c1.1-4.1-1.2-8.3-5.2-9.6-1.6-.5-3.2-.5-4.8 0-.5.2-1.1-.1-1.3-.7-.2-.5.1-1.1.7-1.3 2-.6 4-.6 6 .1 5 1.6 7.9 6.9 6.5 12l-2.5 9.1c-.5 1.7-1.7 3.2-3.3 3.9-.7.6-1.6.8-2.5.8z"/><path d="m839.1 86.3c-.4 0-.7-.2-.9-.6-.2-.5 0-1.1.5-1.3l4.8-2.3c5.8-2.8 10.1-8.2 11.4-14.5l.9-4.2c.3-1.3 0-2.6-.8-3.7s-2-1.7-3.3-1.9c-2.1-.2-4.1 1.1-4.8 3.1l-3.2 9.2c-.2.5-.8.8-1.3.6s-.8-.7-.6-1.3l3.2-9.2c1-2.9 3.8-4.7 6.9-4.4 1.9.2 3.6 1.1 4.7 2.7 1.1 1.5 1.5 3.4 1.1 5.3l-.9 4.2c-1.5 6.9-6.2 12.9-12.5 15.9l-4.8 2.3c-.1 0-.3.1-.4.1z"/><path d="m82.3 77.7c-.3 0-.6-.1-.8-.4l-11.1-14.7c-.3-.4-.2-1.1.2-1.4s1.1-.2 1.4.2l11.1 14.7c.3.4.2 1.1-.2 1.4-.1.1-.4.2-.6.2z"/><path d="m131.2 63c-.1 0-.3 0-.4-.1-.5-.2-.7-.8-.5-1.3l6.3-15c.2-.5.8-.7 1.3-.5s.7.8.5 1.3l-6.3 15c-.1.4-.5.6-.9.6z"/><path d="m822.1 843c-.2 0-.5 0-.7 0-3.1-.4-5.4-3-5.4-6.2v-5.9c0-.5.5-1 1-1 .6 0 1 .5 1 1v5.9c0 2.1 1.6 3.9 3.6 4.2 1.2.1 2.4-.2 3.3-1s1.4-2 1.4-3.2l-.2-9.4c-.1-4.2-3.5-7.6-7.7-7.7s-7.9 3.3-8.1 7.5l-.2 3.8c0 .6-.5 1-1 1-.6 0-1-.5-1-1l.2-3.8c.3-5.3 4.8-9.6 10.2-9.4 5.3.1 9.5 4.4 9.6 9.7l.2 9.4c0 1.8-.7 3.5-2 4.7-1.2.8-2.7 1.4-4.2 1.4z"/><path d="m832.3 843.2c-.2 0-.5 0-.7 0-3.1-.4-5.4-3-5.4-6.2 0-.5.5-1 1-1 .6 0 1 .5 1 1 0 2.1 1.6 3.9 3.6 4.1 1.2.1 2.4-.2 3.3-1s1.4-2 1.4-3.2l-.2-9.4c-.1-4.2-3.5-7.6-7.7-7.7-1.7 0-3.2.4-4.6 1.3-.5.3-1.1.2-1.4-.3s-.2-1.1.3-1.4c1.7-1.1 3.7-1.7 5.8-1.7 5.3.1 9.5 4.4 9.6 9.7l.2 9.4c0 1.8-.7 3.5-2 4.7-1.2 1.2-2.7 1.7-4.2 1.7z"/><path d="m842.7 842.9c-.2 0-.5 0-.7 0-3.1-.4-5.4-3-5.4-6.2 0-.5.5-1 1-1 .6 0 1 .5 1 1 0 2.1 1.6 3.9 3.6 4.1 1.2.1 2.4-.2 3.3-1s1.4-2 1.4-3.2l-.2-9.4c-.1-4.2-3.5-7.6-7.7-7.7-1.6 0-3.2.4-4.6 1.3-.5.3-1.1.2-1.4-.3s-.2-1.1.3-1.4c1.7-1.1 3.7-1.7 5.8-1.7 5.3.1 9.5 4.4 9.6 9.7l.2 9.4c0 1.8-.7 3.5-2 4.7-1.2 1.2-2.7 1.7-4.2 1.7z"/><path d="m853.2 843.1c-.2 0-.5 0-.7 0-3.1-.4-5.4-3-5.4-6.2 0-.6.5-1 1-1 .6 0 1 .5 1 1 0 2.1 1.6 3.9 3.6 4.1 1.2.1 2.4-.2 3.3-1s1.4-2 1.4-3.2l-.2-9.4c-.1-4.2-3.5-7.6-7.7-7.7-1.6 0-3.2.4-4.6 1.3-.5.3-1.1.2-1.4-.3s-.2-1.1.3-1.4c1.7-1.1 3.7-1.7 5.8-1.7 5.3.1 9.5 4.4 9.6 9.7l.2 9.4c0 1.8-.7 3.5-2 4.7-1.2 1.2-2.7 1.7-4.2 1.7z"/><path d="m833.8 915.5c-.3 0-.6-.1-.8-.4-11.1-13.6-22.9-59.5-23.4-61.4-.1-.5.2-1.1.7-1.2s1.1.2 1.2.7 12.1 47.4 23 60.6c.3.4.3 1.1-.1 1.4-.2.2-.4.3-.6.3z"/><path d="m883.1 895.2c-.2 0-.3 0-.5-.1-8.9-5.3-26.9-39.7-27.6-41.1-.3-.5-.1-1.1.4-1.3.5-.3 1.1-.1 1.3.4.2.4 18.4 35.4 26.9 40.3.5.3.6.9.4 1.4-.2.2-.6.4-.9.4z"/><path d="m48.9 704.5c-.4 0-.7-.2-.9-.5l-31.9-59c-.3-.5-.1-1.1.4-1.4s1.1-.1 1.4.4l31.9 59c.3.5.1 1.1-.4 1.4-.2.1-.3.1-.5.1z"/><path d="m24.7 753.5c-.4 0-.7-.2-.9-.5l-24.7-44.5c-.3-.5-.1-1.1.4-1.4s1.1-.1 1.4.4l24.7 44.5c.3.5.1 1.1-.4 1.4-.1.1-.3.1-.5.1z"/><path d="m29.7 747c-.2 0-.5-.1-.7-.2l-2.9-2.5c-4.1-3.6-4.6-9.6-1.1-13.8 3.4-4.1 9.3-4.8 13.6-1.6l7.5 5.6c1.4 1.1 2.3 2.7 2.4 4.5s-.5 3.5-1.8 4.8c-2.2 2.2-5.7 2.4-8.2.5l-4.6-3.7c-.4-.3-.5-1-.2-1.4s1-.5 1.4-.2l4.6 3.7c1.6 1.3 4 1.2 5.5-.3.9-.9 1.3-2 1.2-3.2s-.7-2.3-1.7-3l-7.5-5.7c-3.4-2.5-8.1-2-10.8 1.3-2.8 3.3-2.4 8.2.9 11l2.8 2.5c.4.4.5 1 .1 1.4.1.1-.2.3-.5.3z"/><path d="m49 737.7c-1.4 0-2.7-.4-3.8-1.3-.4-.3-.5-1-.2-1.4s1-.5 1.4-.2c1.6 1.3 4 1.2 5.5-.3.9-.9 1.3-2 1.2-3.2s-.7-2.3-1.7-3l-7.5-5.7c-3.4-2.5-8.1-2-10.8 1.3-1 1.3-1.7 2.8-1.8 4.4 0 .6-.5 1-1.1.9-.6 0-1-.5-.9-1.1.2-2.1.9-4 2.3-5.6 3.4-4.1 9.3-4.8 13.6-1.6l7.5 5.6c1.4 1.1 2.3 2.7 2.4 4.5s-.5 3.5-1.8 4.8c-1.2 1.3-2.7 1.9-4.3 1.9z"/><path d="m55.2 729.3c-1.4 0-2.7-.4-3.8-1.3-.4-.3-.5-1-.2-1.4s1-.5 1.4-.2c1.6 1.3 4 1.2 5.5-.3.9-.9 1.3-2 1.2-3.2s-.7-2.3-1.7-3l-7.5-5.7c-3.4-2.5-8.1-2-10.8 1.3-1.1 1.3-1.7 2.8-1.8 4.4 0 .6-.5 1-1.1.9-.6 0-1-.5-.9-1.1.2-2.1.9-4 2.3-5.6 3.4-4.1 9.3-4.8 13.6-1.6l7.5 5.6c1.4 1.1 2.3 2.7 2.4 4.5s-.5 3.5-1.8 4.8c-1.2 1.3-2.8 1.9-4.3 1.9z"/><path d="m61.8 721.2c-1.4 0-2.7-.4-3.8-1.3-.4-.3-.5-1-.2-1.4s1-.5 1.4-.2c1.6 1.3 4 1.2 5.5-.3.9-.9 1.3-2 1.2-3.2s-.7-2.3-1.7-3l-7.5-5.7c-3.4-2.5-8.1-2-10.8 1.3-1.1 1.3-1.7 2.8-1.8 4.4 0 .6-.5 1-1.1.9-.6 0-1-.5-.9-1.1.2-2.1.9-4 2.3-5.6 3.4-4.1 9.3-4.8 13.6-1.6l7.5 5.6c1.4 1.1 2.3 2.7 2.4 4.5s-.5 3.5-1.8 4.8c-1.2 1.3-2.7 1.9-4.3 1.9z"/><path d="m14.9 600.3h-.1c-.5-.1-.9-.6-.9-1.1l5.6-46.6c.1-.5.6-.9 1.1-.9.5.1.9.6.9 1.1l-5.6 46.6c-.1.6-.5.9-1 .9z"/><path d="m216.7 905.3c-.5 0-1-.4-1-.9-.1-1.3-9.3-131-6.2-175.7 3.1-44.6 9.5-97.9 9.5-98.4.1-.5.6-.9 1.1-.9.5.1.9.6.9 1.1-.1.5-6.4 53.8-9.5 98.3s6.1 174.1 6.2 175.4c0 .6-.4 1.1-1 1.1z"/><path d="m267.2 912.3c-.4 0-.8-.3-1-.7-7.3-25.4-9.8-80.3-7.4-163.1 1.8-61.7 5.7-116.6 5.8-117.1 0-.6.5-1 1.1-.9.6 0 1 .5.9 1.1 0 .5-4 55.4-5.8 117.1-2.3 81.5.2 137.7 7.4 162.5.2.5-.2 1.1-.7 1.2-.1-.1-.2-.1-.3-.1z"/><path d="m566.7 948.9c-.1 0-.3 0-.4-.1-.5-.2-.7-.8-.5-1.3l82.4-195.2c.2-.5.8-.7 1.3-.5s.7.8.5 1.3l-82.4 195.2c-.2.4-.5.6-.9.6z"/><path d="m658.5 731.5c-.1 0-.3 0-.4-.1-.5-.2-.7-.8-.5-1.3l5.4-12.8c.2-.5.8-.7 1.3-.5s.7.8.5 1.3l-5.4 12.8c-.2.4-.5.6-.9.6z"/><path d="m607.9 958.8c-.1 0-.3 0-.4-.1-.5-.2-.8-.8-.5-1.3l77.1-188.7c.2-.5.8-.8 1.3-.5.5.2.8.8.5 1.3l-77.1 188.7c-.1.4-.5.6-.9.6z"/><path d="m692.4 752.1c-.1 0-.3 0-.4-.1-.5-.2-.8-.8-.5-1.3l13.2-32.3c.2-.5.8-.8 1.3-.5.5.2.8.8.5 1.3l-13.2 32.3c-.1.4-.5.6-.9.6z"/><path d="m571.3 46.1c-2.8 0-5.2-2.3-5.2-5.2s2.3-5.2 5.2-5.2 5.2 2.3 5.2 5.2-2.4 5.2-5.2 5.2zm0-8.3c-1.7 0-3.2 1.4-3.2 3.2s1.4 3.2 3.2 3.2 3.2-1.4 3.2-3.2-1.5-3.2-3.2-3.2z"/><path d="m865.2 830.7c-.5 0-.9-.4-1-.9l-9.4-70c-.1-.5.3-1.1.9-1.1.5-.1 1 .3 1.1.9l9.4 70c.1.5-.3 1.1-1 1.1.1 0 .1 0 0 0z"/><path d="m874 885c-.5 0-.9-.4-1-.9l-4.5-30.2c-.1-.5.3-1.1.8-1.1.6-.1 1.1.3 1.1.8l4.5 30.2c.1.5-.3 1.1-.8 1.1 0 .1-.1.1-.1.1z"/><path d="m472.8 915.5h-8.6c-.6 0-1-.4-1-1s.4-1 1-1h8.6c.6 0 1 .4 1 1s-.5 1-1 1z"/></g></svg>