<?xml version="1.0" encoding="UTF-8"?>
<svg id="a" xmlns="http://www.w3.org/2000/svg" version="1.1" viewBox="0 0 1080 1080">
  <defs>
    <style>
      .cls-1 {
        fill: none;
      }

      .cls-1, .cls-2, .cls-3, .cls-4, .cls-5 {
        stroke: #000;
        stroke-linecap: round;
        stroke-linejoin: round;
      }

      .cls-2, .cls-4, .cls-5 {
        fill: #e1e2de;
      }

      .cls-3, .cls-6 {
        fill: #fcfdf7;
      }

      .cls-4 {
        stroke-width: 1px;
      }

      .cls-5 {
        stroke-width: 1px;
      }

      .cls-6 {
        stroke-width: 0px;
      }
    </style>
  </defs>
  <g id="b">
    <rect class="cls-6" width="1080" height="1080"/>
  </g>
  <g id="c">
    <path id="i" class="cls-2" d="M335.7,345c34.5,2.4,406.3,1.5,406.3,1.5l80.3,207.6-588.1-26.2,101.6-182.8h0Z"/>
    <g id="j">
      <path class="cls-3" d="M880.2,950.9c0,8.8,6.9,16.1,15.7,16.5h0c9.2.4,16.9-6.8,17.1-16l1.9-173-73.6,6.9-99.3-18.3,16.7,210.6"/>
      <path class="cls-3" d="M780.2,952.7v28.7c-.8,8.8-7.3,16.4-16.4,18.3h0c-11.2,2.4-22.2-4.8-24.5-16l.9-86,.2-138.7,77.1,9.6,90,10.8"/>
      <path class="cls-3" d="M813.8,958.4l-.7,16.6c-.2,9.2-8,16.3-17.1,16h0c-8.8-.4-15.8-7.7-15.7-16.5"/>
      <path class="cls-3" d="M847.1,947.4l-.7,16.6c-.2,9.2-8,16.3-17.1,16h0c-8.8-.4-15.8-7.7-15.7-16.5"/>
      <path class="cls-3" d="M880.4,942.4l-.7,16.6c-.2,9.2-8,16.3-17.1,16h0c-8.8-.4-15.8-7.7-15.7-16.5"/>
    </g>
    <g id="k">
      <path class="cls-3" d="M203.2,952.7c0,8.9-7,16.2-15.9,16.6h0c-9.2.4-17-6.9-17.3-16.1l.2-152.8,72.1-14.8,100.2-18.4-16.8,212.5"/>
      <path class="cls-3" d="M304.1,954.4v29c.8,8.9,7.3,16.6,16.5,18.5h0c11.3,2.4,22.4-4.9,24.8-16.2l-.9-86.8-.2-139.9-77.8,9.7-88.1,24.8"/>
      <path class="cls-3" d="M270.2,960.2l.7,16.7c.2,9.2,8,16.5,17.3,16.1h0c8.9-.4,15.9-7.7,15.9-16.6"/>
      <path class="cls-3" d="M236.7,949.1l.7,16.7c.2,9.2,8,16.5,17.3,16.1h0c8.9-.4,15.9-7.7,15.9-16.6"/>
      <path class="cls-3" d="M203.1,944.1l.7,16.7c.2,9.2,8,16.5,17.3,16.1h0c8.9-.4,15.9-7.7,15.9-16.6"/>
    </g>
    <path id="m" class="cls-2" d="M666.9,821.6l42.2,11c55.3,14.4,113.3,14.7,168.7.9h0c26.8-6.7,43.8-33,38.9-60.2l-7.8-43.2c-7.7-42.8-11.1-86.4-10-129.9v-4.1c1.3-50.3-3.3-100.5-13.8-149.7h0c-7.9-37-16-32.1-17.3-69.9l-115.7,27.5"/>
    <path id="o" class="cls-2" d="M347.2,279.4h-28.4l-106.2,39.4-.5,15.2c-1.3,37.8-5.9,75.4-13.7,112.4h0c-10.5,49.2-15.1,99.4-13.9,149.7v4.1c1.2,43.5-2.2,87-9.9,129.9l-7.8,43.2c-4.9,27.2,12.1,53.5,38.9,60.2h0c55.4,13.8,113.4,13.5,168.7-.9l42.1-11"/>
    <g id="p">
      <path class="cls-2" d="M685.1,796.8h57.4v220.7c0,15.8-12.8,28.7-28.7,28.7h0c-15.8,0-28.7-12.8-28.7-28.7v-220.7h0Z"/>
      <path class="cls-2" d="M339.7,796.7h57.4v220.7c0,15.8-12.9,28.7-28.7,28.7h0c-15.8,0-28.7-12.8-28.7-28.7v-220.7h0Z"/>
      <path class="cls-3" d="M711.5,440h-340.9c-17.1,0-31,13.9-31,31v340.8c0,17.1,13.9,31,31,31h116.4v50.2c0,29.1,23.6,52.7,52.7,52.7h0c29.1,0,52.7-23.6,52.7-52.7v-50.2h119c17.1,0,31-13.9,31-31v-340.9c0-17.1-13.9-31-31-31h0Z"/>
    </g>
    <g id="s">
      <path class="cls-3" d="M435.1,491.9h0c13.1-9.6,28.7-15.4,44.9-16.6l4.7-.4c18.1-1.3,30.4-19.8,23.7-36.7-.2-.4-.3-.8-.5-1.2h0c-4.6-10.2-14.9-14.2-25.6-15.2-3.1-.3-6.3-.2-9.5,0l-15.5,1.5c-10.4,1-21.9-5.6-27.6-14.3l-114.3,44.6,2.5,79,1.2,62.1,54.5-10.7,61.5-92.1h0Z"/>
      <path class="cls-3" d="M328.5,601l-1.1,4c-4.6,17-6.2,34.5-4.8,52l.8,9.9c1.3,11.5,11.8,19.6,23.2,18.2h0c10.9-1.4,18.9-11,18.1-22l-.6-9.3c-.8-11.6-.1-23.3,2.8-34.6l1-4,2.9-10.5"/>
      <path class="cls-3" d="M322.1,589.3l-1.1,4c-4.6,17-6.2,34.5-4.8,52l.8,9.9c1.3,11.5,11.8,19.6,23.2,18.2h0c10.9-1.4,18.9-11,18.1-22l-.6-9.3c-.8-11.6-.1-23.3,2.8-34.6l1-4,2.9-10.5"/>
      <path class="cls-3" d="M369.5,576.8l-3.9,10.2-1.4,3.8c-4.1,10.9-6,22.5-6.4,34.1l-.4,9.4c-.4,11-9.3,19.8-20.3,20h0c-11.5.2-21-9-21.2-20.5l.2-9.9c.2-10.1,1.5-20.1,3.7-29.9,2.4-10.5,6.2-20.7,11-30.4l4.6-9"/>
    </g>
    <path id="t" class="cls-3" d="M622.2,499.6h0c-8.5-13.9-20.8-25.1-35.4-32.3l-4.2-2.1c-16.3-8-20.7-29.8-8.2-42.9.3-.3.6-.6.9-.9h0c8.1-7.7,19.9-9.3,29.5-4.4,1.1.6,4.7,2.4,8.8,4.5,12.9,6.5,27.8,7.8,41.4,3,3.9-1.4,7.3-3.1,10.6-5.3l60,96.5"/>
    <path id="u" class="cls-3" d="M365.1,591.8l-1.3,3.9c-5.4,16.7-7.9,34.2-7.4,51.7l.3,9.9c.7,11.5,10.7,20.2,22.2,19.3h0c11-.8,19.4-10.1,19.2-21.1v-9.4c-.3-11.6.9-23.3,4.4-34.4l1.2-3.9,3.4-10.4"/>
    <path id="v" class="cls-3" d="M367.5,270.2l77.4,123.3-146.4,148.9-97-160.9c-6.7-10.9-12.1-22.6-16-34.8h0C125.7,137.6,313.6,63,507.7,41.6h0l72.7-6.4h0c194.1,21.3,381.9,95.9,322.2,305.1h0c-4,12.2-9.3,23.9-16,34.8l-105.9,164.7-151.4-136.8,79-136.3"/>
    <g id="w">
      <circle class="cls-3" cx="541.1" cy="641.5" r="184.5"/>
      <line class="cls-1" x1="541.1" y1="456.9" x2="541.1" y2="826"/>
      <line class="cls-1" x1="725.6" y1="641.5" x2="356.5" y2="641.5"/>
      <g id="x">
        <line class="cls-1" x1="527.5" y1="457.5" x2="527.5" y2="641.3"/>
        <line class="cls-1" x1="514.2" y1="459.1" x2="514.2" y2="641.7"/>
        <line class="cls-1" x1="499.9" y1="461.7" x2="499.9" y2="641.5"/>
        <line class="cls-1" x1="486.6" y1="464.5" x2="486.6" y2="641.8"/>
        <line class="cls-1" x1="471.8" y1="469.9" x2="471.8" y2="640.9"/>
        <line class="cls-1" x1="458.5" y1="475.9" x2="458.5" y2="641.2"/>
        <line class="cls-1" x1="444.1" y1="484.3" x2="444.1" y2="641.5"/>
        <line class="cls-1" x1="429.3" y1="494.3" x2="429.3" y2="640.6"/>
        <line class="cls-1" x1="416" y1="505.6" x2="416" y2="640.9"/>
        <line class="cls-1" x1="402.1" y1="520.5" x2="402.1" y2="641.5"/>
        <line class="cls-1" x1="387.3" y1="539.7" x2="387.3" y2="640.6"/>
        <line class="cls-1" x1="374" y1="564.6" x2="374" y2="640.9"/>
        <line class="cls-1" x1="555" y1="825" x2="555.2" y2="641.7"/>
        <line class="cls-1" x1="568.4" y1="823.3" x2="568.5" y2="641.5"/>
        <line class="cls-1" x1="582.6" y1="820.7" x2="582.7" y2="641.7"/>
        <line class="cls-1" x1="595.9" y1="817.9" x2="596" y2="641.5"/>
        <line class="cls-1" x1="610.7" y1="812.6" x2="610.8" y2="641.6"/>
        <line class="cls-1" x1="624" y1="806.5" x2="624.2" y2="641.8"/>
        <line class="cls-1" x1="638.4" y1="798.1" x2="638.5" y2="641.6"/>
        <line class="cls-1" x1="653.3" y1="788.2" x2="653.4" y2="641.9"/>
        <line class="cls-1" x1="666.6" y1="776.9" x2="666.7" y2="641.6"/>
        <line class="cls-1" x1="680.5" y1="762" x2="680.5" y2="641.8"/>
        <line class="cls-1" x1="695.3" y1="742.8" x2="695.4" y2="641.9"/>
        <line class="cls-1" x1="708.6" y1="718" x2="708.7" y2="641.7"/>
        <line class="cls-1" x1="356.9" y1="656" x2="540.8" y2="654.7"/>
        <line class="cls-1" x1="358.7" y1="669.3" x2="541.2" y2="668"/>
        <line class="cls-1" x1="361.4" y1="683.5" x2="541.2" y2="682.2"/>
        <line class="cls-1" x1="364.3" y1="696.8" x2="541.6" y2="695.5"/>
        <line class="cls-1" x1="369.7" y1="711.6" x2="540.7" y2="710.4"/>
        <line class="cls-1" x1="375.9" y1="724.9" x2="541.1" y2="723.7"/>
        <line class="cls-1" x1="384.4" y1="739.2" x2="541.6" y2="738"/>
        <line class="cls-1" x1="394.5" y1="753.9" x2="540.8" y2="752.9"/>
        <line class="cls-1" x1="405.9" y1="767.2" x2="541.2" y2="766.2"/>
        <line class="cls-1" x1="420.9" y1="780.9" x2="541.9" y2="780.1"/>
        <line class="cls-1" x1="440.2" y1="795.6" x2="541.1" y2="794.9"/>
        <line class="cls-1" x1="465.1" y1="808.8" x2="541.5" y2="808.2"/>
        <line class="cls-1" x1="726.4" y1="627.6" x2="542.5" y2="628.7"/>
        <line class="cls-1" x1="724.7" y1="614.3" x2="542.1" y2="615.3"/>
        <line class="cls-1" x1="722" y1="600.1" x2="542.2" y2="601.1"/>
        <line class="cls-1" x1="719.1" y1="586.8" x2="541.8" y2="587.8"/>
        <line class="cls-1" x1="713.7" y1="572" x2="542.7" y2="573"/>
        <line class="cls-1" x1="707.6" y1="558.8" x2="542.3" y2="559.7"/>
        <line class="cls-1" x1="699.1" y1="544.4" x2="541.8" y2="545.3"/>
        <line class="cls-1" x1="689" y1="529.7" x2="542.7" y2="530.5"/>
        <line class="cls-1" x1="677.6" y1="516.4" x2="542.3" y2="517.2"/>
        <line class="cls-1" x1="662.6" y1="502.6" x2="541.6" y2="503.3"/>
        <line class="cls-1" x1="643.4" y1="487.9" x2="542.5" y2="488.4"/>
        <line class="cls-1" x1="618.4" y1="474.7" x2="542.1" y2="475.1"/>
      </g>
    </g>
    <g id="y">
      <path class="cls-3" d="M686.6,454.8l73.2,65.3-.2,1.2s-9.2,26.8-9.6,28.3c-1.9,8.4-3.8,12.4-3.9,23.2,0,14.3.7,27.3,3,41.6l.8,7.2c.7,6.7-1.7,13.4-6.8,17.8-4,3.5-9.4,5.4-15.2,5h0c-11-.9-18.1-10.3-19.1-21.2l-3.2-39.3-26.9-36-33.1-33.9"/>
      <path class="cls-3" d="M684.1,547.9l-.9,4c-2.4,11.4-7.1,22.2-12.9,32.2l-4.7,8.1c-5.6,9.5-2.8,21.7,6.3,27.8h0c9.6,6.4,22.6,3.8,28.9-5.9l5.1-8.5c9.1-15,15.5-31.5,19-48.7l.8-4"/>
      <path class="cls-3" d="M653,521l-2.2,3.4c-6.4,9.7-14.7,18.1-23.7,25.3l-7.3,5.8c-8.7,6.8-10.5,19.2-4.2,28.2h0c6.6,9.5,19.7,11.7,29,5l7.8-6c13.9-10.7,25.9-23.7,35.4-38.5l2.2-3.5"/>
      <path class="cls-3" d="M670.5,512.1l-3.3,2.5c-14.1,10.5-29.9,18.4-46.7,23.5l-9.5,2.9c-11.2,3-22.6-3.8-25.4-14.9h0c-2.7-10.7,3.4-21.6,13.9-24.9l8.9-2.9c11-3.5,21.8-8.5,31.2-15.3l3.3-2.4,8.8-6.5"/>
    </g>
    <ellipse id="aa" class="cls-2" cx="537.3" cy="1020.8" rx="113.8" ry="44.6"/>
    <path id="ac" class="cls-2" d="M539.2,842.4l-22,43.5c-8.5,16.9,3.8,36.8,22.7,36.5h0c18.8-.2,30.8-20.3,22-36.9l-22.7-43.1h0Z"/>
    <path id="ad" class="cls-2" d="M415.7,347l-46.3-73.5c-29.9-56.7-75.9-137.7-95.7-170.5-3.5-5.8-1.5-13.2,4.3-16.6l14.2-8.1c5.8-3.3,13.2-1.2,16.4,4.7,19.1,35.1,116.9,190.6,146.4,263.9"/>
    <path id="ae" class="cls-2" d="M661.6,347.1l46.2-73.2c29.9-56.7,75.9-137.7,95.7-170.5,3.5-5.8,1.5-13.2-4.3-16.6l-14.2-8.1c-5.8-3.3-13.2-1.2-16.4,4.7-19.1,35.1-116.6,190.5-146.1,263.8"/>
    <g id="af">
      <path class="cls-2" d="M311,89.3s103.5-63.9,202.1-65.9l64-.7c97.7,1.6,193.3,57.5,193.3,57.5l-459.5,9.1h0Z"/>
      <ellipse class="cls-5" cx="520.7" cy="305.9" rx="36.5" ry="16.9" transform="translate(-4.6 603.9) rotate(-60)"/>
      <ellipse class="cls-4" cx="563.3" cy="303.8" rx="16.9" ry="36.5" transform="translate(-66.7 416.2) rotate(-38.5)"/>
      <path class="cls-2" d="M664,160c-1,56.1-55.9,106.5-127.2,105.2-71.3-1.3-123.2-50.2-122.2-106.2v11.8c-1,53.5,53.2,113,121.2,114.2,68,1.3,128.2-62.1,129.2-115.6"/>
      <circle class="cls-2" cx="537.7" cy="281.3" r="18.2"/>
      <g id="al">
        <circle class="cls-3" cx="539.4" cy="147.4" r="127.3"/>
      </g>
      <path class="cls-2" d="M422,210.4s98.6-66.5,219-8.8l15.7,5.8c12.5-27.9,16.3-58.9,10.8-89,0-.2,0-.3,0-.5l-3.8-11.8c-7.8-23.7-23.2-44.2-43.8-58.2l-43.9-29.8h-64.3l-51.4,33.3c-15.5,10.1-28.4,23.8-37.3,40l-1.6,2.8c-6.3,11.4-10.3,23.8-11.8,36.7,0,.2,0,.5,0,.8-2.9,26.5,1.4,53.3,12.3,77.7l.4,1h0Z"/>
      <path class="cls-2" d="M487.7,12.1l109.4-1.1c20-.2,38.2,11.8,46,30.3l12.1,29-54.5,117c-3.1,6.7-9.8,11.1-17.3,11.2l-84.3,1.4c-7.7.1-14.8-4.3-18-11.3l-52.3-114.2,14.2-32.6c7.8-17.8,25.2-29.4,44.6-29.6h0Z"/>
      <polyline class="cls-2" points="655 70.2 544.8 11.5 428.8 74.3"/>
    </g>
  </g>
</svg>