<?xml version="1.0" encoding="utf-8"?>
<!-- Generator: Adobe Illustrator 27.1.1, SVG Export Plug-In . SVG Version: 6.00 Build 0)  -->
<svg version="1.1" id="Layer_1" xmlns="http://www.w3.org/2000/svg" xmlns:xlink="http://www.w3.org/1999/xlink" x="0px" y="0px"
	 viewBox="0 0 1000 1000" style="enable-background:new 0 0 1000 1000;" xml:space="preserve">
<style type="text/css">
	.st0{fill:#ABABAB;}
	.st1{clip-path:url(#SVGID_00000129188833407732492390000014926260019897878695_);}
	.st2{fill:#EBEDEB;}
	.st3{fill:#EBEDEB;stroke:#000000;stroke-miterlimit:10;}
	.st4{fill:#0085FF;}
	.st5{fill:#F93D00;}
	.st6{fill:#FFFAA5;}
	.st7{fill:#FFFFFF;}
	.st8{fill:#ABABAB;stroke:#000000;stroke-miterlimit:10;}
	.st9{fill:none;stroke:#000000;stroke-linecap:round;stroke-linejoin:round;}
	.st10{fill:none;}
	.st11{clip-path:url(#SVGID_00000181769630370410811010000016551605489587797170_);}
	.st12{clip-path:url(#SVGID_00000104707478181734958580000009640486310262946222_);}
	.st13{clip-path:url(#SVGID_00000181800490612364366380000013063427554388208021_);}
	.st14{clip-path:url(#SVGID_00000005232468182647262180000010532052764968612796_);}
	.st15{clip-path:url(#SVGID_00000114787185815525769940000007225572726969403531_);}
	.st16{clip-path:url(#SVGID_00000067945104765224840830000012486557582490579377_);}
</style>
<path class="st0" d="M0,480.9h1000V1000H0V480.9z"/>
<path class="st0" d="M0,0h1000v452.2H0V0z"/>
<g>
	<defs>
		<rect id="SVGID_1_" width="1000" height="1000"/>
	</defs>
	<clipPath id="SVGID_00000028298912240551471370000015319149742342277776_">
		<use xlink:href="#SVGID_1_"  style="overflow:visible;"/>
	</clipPath>
	<g style="clip-path:url(#SVGID_00000028298912240551471370000015319149742342277776_);">
		<path class="st2" d="M-4.7,214.3l264.4-0.3c7.9,0,14.4-4,14.4-8.9V-7.7L-4.7-5.8"/>
		<path class="st2" d="M753.2-6.2v211.4c0,5.2-6.9,9.5-15.4,9.5H319.2c-8.5,0-15.4-4.3-15.4-9.5V-6.2"/>
		<path class="st0" d="M1003,434.3H793.2V-3.6c0-7.3,90.9-5.9,98.2-5.9L1003-4.8"/>
	</g>
</g>
<path class="st3" d="M-2,345.9h1004.2v135.1H-2L-2,345.9z"/>
<path class="st4" d="M155.6,559l-1,8.1l-1.9,10.7l-1.3,7.6l-2.7,15.6l-2.1,14.8l-1.4,11.4l-1.5,11.1l-1.2,5.7l-3.5,11.7l-3.2,7.8
	l-3.8,7.4l-7.3,11.4l-56.9,72.1l-9.2,11.7l83.5,2.9h1.1l1.4-1.9l5.8-7.9l35.7-49l8.4-13.6l4.6-8.3l6.7-13.5l5.9-13.7l3-7.8
	l43.1,36.5l19.9,17l2.4,3.3l1.4,3.4l0.6,4.7l-0.4,3.4l-0.9,2.8l-1.5,2.7l-2.4,3.2L226,797.8l-0.7,1l7.3,1.2l41.8,5.6l52.5-68
	l18.9-31l4.1-15.7l-21.5-24.3l-64.8-47.8h-5.4l-16.8-1.8l-20.4-5.8l-16.8-7.8l-10.8-6.9l-5-3.7l-5.6-3.6l-4-2.5l-5.3-4.2l-5-3.4
	l-6.5-4.9l-3.6-4.7l-2.2-6.5L155.6,559z"/>
<path class="st4" d="M497.3,718.8l0.7,1.4l3.1,2l38.5,24.9l6.1,4.5l5.4,4.6l5.5,5.3l2.7,3l5.6,6.8l5,7.3l4.6,8.1l2.9,6.2l2.5,6.3
	l1.8,5.3l2.1,7.9l2,12.6l0.5,9.1l-0.2,8.3l-1,9.1l-1.9,9.7l-12.2,46.7l-0.5,1.1h-7.2l-81.7,0.7l4.1-9.3l4.8-11.1l12.1-28.4l3.3-8.9
	l1.7-8.1l0.3-11.1l-1.5-8.9l-1.6-5.4l-3.7-8.3l-5-7.5l-7.3-7.6l-7.4-5.4l-13.6-6.3l-8.9-3.7l-11.4-4.7l-9.3-3l-7.9-1.4l-11.9,0.5
	l-7,1.6l-7.4,2.8l-6.1,3.3l-6.8,5.2l-4.7,4.8l-97.7,120.8h-34h-61.5l1.6-2.1l153.9-198.7L497.3,718.8z"/>
<path class="st4" d="M557,646.7l-11.5,7.3l61.6,61.1l19.2-15.2l14.3-11.5l16.6-14.9l11.8-12.1l13.1-14.7l11-15l8.3-12.4l11.1-18.9
	l15-28l9.6-13.9l4.2-5.3l9-10l13.8-12.8l10.7-8.2l8.5-5.6l6.2-3l6.8-2l9.6-0.8l7.8,1l7,2.2l4.4,2.1l5.9,3.9l4.2,3.8l2.1,2.3l4.6,6.7
	l12.5,29.7l61.4-37.1l-4.8-7.5l-7.8-12.9L883,471.8l-5.6-7.8l-7-7.8l-8.4-7.4l-10.8-7.2l-13.2-6.1l-3.3-1.1l-12.5-3.1l-11.8-1.4
	l-16.2,0.5l-12.1,2.8l-18,7l-111.9,76.2l-3.8,16.8l-8,33.8L557,646.7z"/>
<path class="st4" d="M544.9,313.7l-167.6,1.6l-6.5,9.5l-7.6,7l-11.3,12l-7.3,10l-3.9,6.5l-4.2,8.3l-2.4,5.7l-3,8.5l-2.3,8.8
	l-1.5,8.5l-1,9.9l-0.2,11.7l1.5,23.4l3.2,27.1l41.4-0.5l30.7-83.8l8.7-12.2l7.1-5.9l23.9-17.2l4.5-2.1l5.2-0.7l4.5,0.8l3.2,1.2
	l3,1.9l2.3,2.3l2.5,3.9l2,4.7l6.6,16.1l4.4,9.1l5.9,9.9l6.1,8.4l5.5,6.5l6.8,6.9l9.5,8l10.6,7.2l7.2,4.1l2.6,1.7l23.6,16.5l6.5-10.1
	l7.9-10.8l10.5-12.1l8.3-8.8l6.7-6.6l-5.7-3l-15.6-9l-5.7-4l-5.3-4.4l-6.8-7.5l-4.3-6.4l-3-4.6l-3.3-7.2l-3.2-11.3l-0.8-4.2
	l-0.6-9.9L544.9,313.7z"/>
<path class="st5" d="M666.4,560.4l21.8-28.7l39.7,38.5l-25.5,31.3l-33.1-35.6L666.4,560.4z"/>
<path class="st4" d="M955.5,775.8l-50-7.9l-78.9-52.8l-80,5.7l-15.9,28.3l10.7,26.8l10,8l6.7,8.3l46.6,57.9l139.6-0.4l7.3-6l4.6-5.5
	l4.4-7.8l2.2-6.3l1.6-10.6l-0.2-4.7l-1.4-8.1l-3.7-12L955.5,775.8z"/>
<path class="st6" d="M158.7,298l-37.5,41.2L222,435.9l2.3,2.7l2.9,4.5l2.1,5.4l1,5.1l0.1,6l-0.9,5.2l-1,3l-2,4.3l-5.8,7.5l-6.5,7.1
	l-45.9,50.3l-6.4,7l-2.8,3.5l-2.4,5.2l-0.8,3.7l0,4.7l0.6,3.3c0,0,1.8,4.5,1.9,4.7c0.1,0.2,3.5,4.6,3.6,4.7c0.1,0.1,6.5,4.9,6.5,4.9
	s7.4,5.2,7.9,5.5s11.2,7.9,11.2,7.9l8.5,5.9l6.1,3.8l6.2,3.4c0,0,5.5,2.6,5.9,2.8s12.2,4.7,12.2,4.7l12.6,3.3l13.9,2l10.6,0.5
	l24.7,71.2l53.8-15.4l-32.5-111.9l3.7-5l5.7-7.9l3.5-5.5l4.8-10l2.2-6.8l1.6-6.9l1.1-8.6v-10.5l-1.6-9l-2-7.5l-1.7-5.2l-48.4-69.3
	L158.7,298L158.7,298z"/>
<path class="st6" d="M430.1,417.8l-58.9,2.2l-0.5,129l-0.1,10.7l-0.7,13.9l-1.6,14.3l-2.3,13l-2.7,11.7l-2,8.6l-2.1,12.6l-1.1,8.3
	l-1.6,13l-2.5,15.3l-4.3,19.4l-4.4,19.2l-0.2,8.2l3.1,4.4l4.9,2.5l8.6,0.5l121.1,4.7l6.4-1.6l4.8-3.5l3.3-5.4l1.4-5.9l7.7-38.9
	l3.3-7.7l3.4-5.8l5-5.2l5.9-4.2l4.1-2l7.2-2.2l5.7-0.7l7.7,0l9.1,0l13.9-0.8l10.7-1.4l8.2-2l9.4-2.7l7.7-2.7l6.6-2.8l69.5-29.5
	l1.3-0.8l-27.4-44.9l-17.8,8.6l-30.6,14.7l-15,6l-12.2,3.6l-11.7,2.5l-14.4,1.1l-15.3-0.4l-32.8-1.6l-17.5-1.4l-7.6-1.2l-17.1-5.1
	L429.3,500l1.4-82L430.1,417.8z"/>
<path class="st6" d="M460.1,103.3l11,5.4l15.4,8.9l16.5,11.3l11.9,9.6l12.7,11.7l12.1,14.2l9.2,10.9l5.4,7l2.8,6.9l0.8,6.2l-1,7.2
	l-3.2,7.8l-2.9,4.8l-5.3,6.5l-8.7,7.2l-7.3,4l15.4,80.8l-167.6,1.5l-37.5-21.8l-5.8,0l18.2-130.9l6.1-13.4l9.5-15l9.3-11.1
	l12.9-11.8L460.1,103.3z"/>
<path class="st6" d="M611.5,399.7l-11.2,9.4l-9.8,9.3l-8,8.4l-14.2,17.5l-9.5,14.4l-45.2,78.4l0.9,1l9.5,2.7l42.9,11.8l10.8-22.6
	l4.6-9.7l7.7-15.6l6.3-11.2l9.8-15.4l7.1-8.9l15.8-17.8l5.1-4.6l3.3-0.7l2.6,0.6l2.6,2l1.5,2.5l0.4,4.4l8.6,60l8.7,1.1l18.6,2.4
	l10.2,0.9l11.7-1.2l8.5-2.5l8.4-4l6.8-3.9l6-3.6l8.3-4.8l6.7-4.9l4.4-4.1l6-7.5l4-7l3.9-10.8l1.2-6.3l0.4-4.3v-7.9l-1.3-8L747.6,405
	l-34.4-68.6l-23.6-48.1l-39.5-80.7l-56.9,12.2l50.4,99.1L611.5,399.7z"/>
<path class="st6" d="M863.3,638.1l-85.1,15l-8.7,10l-7.6,9.9l-5.9,9.3l-54.8,94.4l39.6,22.3l1.9,1l8.6-16.2l-9.4-11.7l-5.3-8.6
	l-1.9-12l0.9-8.1l2.7-6.7l3.8-5.8l4.3-4.4l4.9-3.4l6.5-2.8l8-1.4l7.9,0.6l5.1,1.2l5.5,2.9l12.2,8.2l3.7-4l5-3.9l7.3-3.2l6-1.6
	l5.2-0.1l3.5,0.2l5.4,1.2l5.9,2.5l3.7,2.4l63.3,42.5l50,7.9l-2.1-7l-4.1-11.4l-1.9-4.7l-7.1-15.2l-5.5-10l-6-9.4l0.7-5.5l-0.5-9.2
	l-1.5-6l-3.3-6.9l-3.1-4.2l-3-3.1L863.3,638.1z"/>
<path class="st5" d="M467.4,159.9l-6.3,4.6L419.7,175l-4.5,0.9l-5.2-40.3l47.8-11.1l6.4-0.7L467.4,159.9z"/>
<path class="st7" d="M338.6,675.2l0.6,3.3l7,8.3l5.4,6.5l0.8,2.1l-1.1,3.4l-1.7,1.3l-3,0.3l-2.1-1.1l0.5,5.7v5.5l-0.4,8.9l0.2,5.8
	l-0.7,3.7l-1.5,1.7l-1.6,0.7l-3.3-0.7l-2-2.5l0-6.4l0-4.6l-1-2.7l0,6.1l0,9.9l-0.3,3l-0.8,2.3l-3.1,2.2l-2.8-0.4l-2.2-1.3l-1.1-2.4
	v-3.2l0.3-9.8l-0.1-1.2l-0.7-0.5l-0.5,3.8v2.7l-0.7,2.1l-2.6,1.4l-2.5,0.1l-2.3-1.3l-1.1-2.6v-4.3l-0.1-4.5l-0.7-2.2l-0.5,0.2
	l-0.1,3.4l-0.9,3.6l-1.4,1.4l-2,0.9l-2-0.5l-2.1-2.6l0.1-2.8l0.2-4.3l-0.7-8l-6.1-18.6L338.6,675.2z"/>
<path class="st8" d="M303.5,51.8h449.7v12.6H303.5L303.5,51.8z"/>
<g>
	<path class="st7" d="M333.7,455.6c0,25.2-20.5,45.7-45.7,45.7s-45.7-20.5-45.7-45.7s20.5-45.7,45.7-45.7S333.7,430.3,333.7,455.6"
		/>
	<path class="st7" d="M495.3,542.2c0,25.2-20.5,45.7-45.7,45.7s-45.7-20.5-45.7-45.7s20.5-45.7,45.7-45.7S495.3,517,495.3,542.2"/>
	<path class="st7" d="M657.2,354c0,25.2-20.5,45.7-45.7,45.7s-45.7-20.5-45.7-45.7s20.5-45.7,45.7-45.7S657.2,328.8,657.2,354"/>
	<path class="st7" d="M864,630.5c0,25.2-20.5,45.7-45.7,45.7s-45.7-20.5-45.7-45.7s20.5-45.7,45.7-45.7S864,605.3,864,630.5"/>
	<path class="st7" d="M467.4,77.7c0,25.2-20.5,45.7-45.7,45.7S376,102.9,376,77.7S396.5,32,421.7,32S467.4,52.4,467.4,77.7"/>
	<path class="st7" d="M150.6,306.1l-14-7.2l-13.2-4.9l-18.1-3.8l-13.8-0.8l-9.4,0.6l-2.8,2l-1,2.4l0.3,3l1.5,2.1l1.8,1.1l3.5,0.3
		l11.4,0.2l6.5,1.4l6.5,2.2l6,3l4.7,3.2h-11.7l-2.7,0.7l-2.3,2l-0.6,1.7l0.3,2.6l1.4,2l1.5,1.2h3.8l27.7-1l13.6-13.9L150.6,306.1z"
		/>
	<path class="st7" d="M522.8,540.4l17.2,4.7l8.5,26.2l1.3,4.1l-0.4,2.6l-1.3,1.9l-1.7,1h-2l-1.9-0.2l-1.5-1.2l-4.3-13.4l-1,1
		l-1.2,3.8l-0.9,4l-0.6,5l-0.1,4.7l0.4,4.7l0.9,5.2l-12.2-0.9l-1.6-5.7l-0.9-9.8l-0.4-8.3v-7l1.2-9.8l1-5.9L522.8,540.4z"/>
	<path class="st7" d="M427.1,417.4l4.8-12.3l0.4-3.6l-1.5-2.9l-2.8-1.2h-2.5l-2.4,1.2l-2.4,2.9l-1.5,2.7l-0.4-12.5v-16.4l-1.1-3.1
		l-1.9-1.5h-3.1l-2.5,1.1l-1.3,2.5v5.1l-0.1,12.8l-1.5-2.5l-3.2-0.7h-2.3l-2.3,2l-0.8,2.6l-1.4-1.3L396,391l-2.7,0l-2.6,1l-1.8,2
		v1.7l-1.4-0.8l-2.1-1.1l-2.3-0.1l-2.3,0.9l-1.8,1.4v3.2v20.5l47.7-1.8L427.1,417.4z"/>
	<path class="st7" d="M387.9,293.6l5.5,12.8l-0.1,4.4l-2.2,2.8l-2.5,0.1l-2.4,0.2l-2.5-1l-1.2-3.2l-2.1-2.8l0.5,13.4l0.8,16.3
		l-0.8,3.2l-1.8,1.6l-3,0.3l-2.6-0.9l-1.5-2.3l-0.5-5.1l-0.6-12.8l-2.8,2l-3,0.8l-2.4-1.2l-1.4-1.4l-0.6-1.5l-1.4,1.3l-1.6,0.6
		l-1.7,0.3l-2.8-0.5l-1.8-1.2l-0.7-2.9l-1.4,0.9l-1.6,1.5l-1.9,0.3l-1.9-0.6l-1.8-0.5l-1.3-2.1l-1-23l45.4-0.2L387.9,293.6z"/>
	<path class="st7" d="M710.4,782.5l-8.5,15.3l-2.4,5.8l-1.6,7.6l-0.1,6.2l1.2,19.7l0.7,3l1.9,2.1l1.9,1h2.4l2.6-1.3l1.9-2.8l0.2-4.5
		l0.2-17.5l2.1-3.3l3.1-1.4l2.5,0.1l2.5,1.2l1.7,2.1l3,8.3l1.5,2.4l3.5,1.7l3.3-0.5l2.4-2l1-2.2l0.1-2.7l-5.2-26.6l-21.5-12.2
		L710.4,782.5z"/>
	<path class="st7" d="M659.8,561.3l7.7-8.8l2.7-2.6h3.6l0.1,0.7l-7.5,9.8l2.8,5.5l27.7-12.8l2.3-0.3l2,0.9l1.5,1.7l0.7,2.5l-0.2,1.7
		l-1,1.8l-4.2,2.2l2.7,0.9l1.8,1.4l0.9,2.1l-0.3,2.2l-0.7,1.4L700,574l2.9,0.8l1.3,1l1,2l0,2.3l-0.7,1.6l-2.6,2.1l0.4,0.8l2.4,1.1
		l1.3,1.7l0.4,2.8l-0.8,1.8l-2.1,2l-19.2,8.8l-25-41.2L659.8,561.3z"/>
	<path class="st7" d="M472.6,163.1l-2.2-11.5l-1.4-3l-2.7-2.4l-0.4,0.6l1.6,13.1l-4.8,3.2l-17.5-26l-2.3-1.2l-2.2-0.2l-1.8,1
		l-1.8,1.9l-0.6,1.4l0.1,1.7l1.8,4.1l-2.8-0.6l-2.3,0.3l-1.9,1.3l-0.9,2.1l-0.1,1.5l1,3.4l-2.9-0.8l-1.6,0.2l-1.9,1.2l-1.1,2.1
		l-0.2,1.8l1.2,3.1l-0.8,0.5l-2.6-0.3l-2,0.8l-1.8,2.2l-0.2,1.9l0.8,2.8l12.1,17.3l42.4-22.9L472.6,163.1z"/>
	<path class="st7" d="M602.7,217.2l-3.4-12l-1.8-6.2l-1.8-10.3l-0.4-9l0.7-7.5l5.9-27.2l1.3-2.5l2.1-1.5l2.3-0.4l3.1,1.1l1.6,1.9
		l0.7,2.5l-0.8,4.9l-6-1l-8.3,31.9l13.4,5.9l9-15.1l2.6-2.5l3.8-0.7l2.9,1.1l2,2.2l0.8,2.2v1.9l-7.5,17.2l5.5,17.6l-27.4,6.2
		L602.7,217.2z"/>
	<path class="st7" d="M906.1,531.6l-47.2,28.2l11.3,11.8l35.9-39V531.6z"/>
	<path class="st7" d="M599.8,487.7l1.7,5l42.3-39.8l-0.5-2.4l-2,2.1l-33.9,24.1L599.8,487.7z"/>
</g>
<path class="st4" d="M608.2,475.2l11.6-14.1l9-9.8l3.9-4l2.3-0.9l4-0.5l2.7,1.5l1.7,2.9l-2,2.1l-33,23.6L608.2,475.2z"/>
<path class="st5" d="M547.3,656.5l-22.5,7.8l18.9,33.9l6-0.9l2.8,5l14.5,25.8l3.1,3.8l2.8,2.1l3.2,1.6l3.7,1.2l7.1,0.7l49.2,1.7
	l2.4-6.2l1.3-5.7l-0.7-2.8l-3.3-1.2l-36.2-0.6l-2.9-1l0-1.4l0.3-2.5l2.7-9.7L547.3,656.5z"/>
<path class="st5" d="M131.1,769l2,4.6l2.7,4.7l5.5,7l5.7,5.2l5.9,4.7l2.7,2.1l1.2,1.2l0,3.7l-0.7,4l-1.4,3.6l-7.1-0.1l-16.1-0.2
	l-9.1-0.8l-9.3-1.7l-7.3-2.1l-6.7-2.6l-10.8-6L62,779.8l0.3-13.6L131.1,769z"/>
<path class="st5" d="M232.1,800.3l-6.5,17.8l36.4,3.2l12.4-15.8L232.1,800.3z"/>
<path class="st5" d="M283,909.8l-0.1,33.2l-45.2,0.3l-1-6.5l-7.8,6.5l-74.6-0.3l-2.3-11.8l-0.6-5.2l0.7-3.9l1.8-2.7l2.8-1l3.6-0.3
	l25.8-0.4l8.1-0.8l4.2-1.9l4.5-4.3l0.3-1.1L283,909.8z"/>
<path class="st5" d="M485.6,909.8l0.1,33.2l45.2,0.3l1-6.5l7.8,6.5l74.6-0.3l2.3-11.8l0.6-5.2l-0.7-3.9l-1.8-2.7l-2.8-1l-3.5-0.3
	l-25.8-0.4l-8.1-0.8l-4.2-1.9l-4.5-4.3l-0.5-1.8L485.6,909.8z"/>
<path class="st5" d="M867.1,575.8l20.2,20.1l28.2-28l-3.6-4.8l9.1-0.7l46-46.8l-6.3-8.4l-3.2-3.9l-2.3-1.7l-3-0.6l-2.3,0.9l-2.2,2.3
	l-15.5,15.1l-5.4,5.2l-5.1,2.1l-5.7-0.7l-8.8,5.8L867.1,575.8z"/>
<path class="st5" d="M643.8,452.9l-44.3,41.7l2.3,7.5l0.9,4.7l-0.3,1.7l-7,1.1l-7.9-0.3l-7.6,15.9l19.1-0.6l16.7-0.6l5.6-1l6.2-3
	l4-3.9l2.7-4.5l14.1-25.2L643.8,452.9z"/>
<path class="st5" d="M361.4,505.1l-29.1,0.1v-3.9l-0.8-5.3l-1.1-4.8l-1.3-5.3l-1.6-4.9l-0.5-1.4l1.1-1.3l1.9-0.8l4.1-3.9l0.7-1.4
	l36.1-0.2v36.9l-1.7-10.4L361.4,505.1z"/>
<path class="st5" d="M942.8,850.4l-0.1,33.2l-45.2,0.3l-1-6.5l-7.8,6.6l-74.6-0.3l-2.3-11.8l-0.6-5.2l0.7-3.9l1.8-2.7l2.8-1l3.5-0.3
	l25.8-0.4l8.2-0.8l4.2-2l4.5-4.3l0.3-1L942.8,850.4z"/>
<path class="st5" d="M830.1,883.8l-74.6-0.3l-2.3-11.8l-0.6-5.2l0.7-3.9l1.8-2.7l2.8-1l3.5-0.3l25.8-0.4l8.2-0.8l4.2-2l4.5-4.3
	l0.3-1l58.7,0"/>
<path d="M921.4,561.9l45.5-46.3l3.3,4.7l-40.2,41.9l-9.1,0.2L921.4,561.9z"/>
<path d="M648.1,488.2l-6.7,19.2l-3.6,10.3l-1.8,3.8l-2.2,2.5l-2.7,2l-3,1.5l-3.5,1.1l-5.5,0.5l-41.7,0.8l2.3-4.7h5.6l7.9-0.4
	l10.5-0.4l9.5-0.4l7.8-1l4.3-1.6l4.3-3.5l2.5-3.1l15.2-26.7L648.1,488.2z"/>
<path d="M354,511.8l-21.7-0.1v-6.6l29.1-0.1L354,511.8z"/>
<path d="M887.3,595.8l4.9,4.6l27.1-27.5l-3.8-5.1L887.3,595.8z"/>
<path d="M524.8,664.3l-10.5,3.6l19,32.6l10.4-2.3L524.8,664.3z"/>
<path d="M551.3,701.8l3.8,11l3.8,11l2.3,6.7l1.7,3.8l2.3,2.8l3.1,2.3l3.3,1.6l3.8,1l4.9,0.3l53.5,1.1l2.1-4.4l-23.3-0.8l-21.6-0.8
	l-9.3-0.5l-5.7-1.4l-3.2-1.6l-2-1.5l-2.2-1.8l-1.7-2.4l-15.1-26.6L551.3,701.8z"/>
<path d="M62,779.8c0,0-0.2,11.1,0.3,11.2s11.8,7.2,11.8,7.2h7.6l1.7,6.5c0,0,4.7,2.5,4.9,2.6s8.4,4.3,8.4,4.3l11.1,4l10,2l9.4,0.6
	h19.3l3.8-2.2l2.4-2.6l2-3.3h-11l-12.1-0.3l-11.2-1.2l-7.9-1.1l-6.7-2.3l-8.8-3.4L62,779.8L62,779.8z"/>
<path d="M225.5,818.1l-3.4,7.9l34.2,3.3l5.5-8L225.5,818.1z"/>
<path d="M282.9,943l-0.2,7.4l-43.9-0.2l-1-7L282.9,943z"/>
<path d="M228.2,943.3l-73.9-0.3l1.3,7.2h65.8l7.5-6.9H228.2z"/>
<path d="M485.6,943l0.2,7.4l43.9-0.2l1-7L485.6,943z"/>
<path d="M540.4,943.3l73.9-0.3l-1.3,7.2h-65.8l-7.5-6.9H540.4z"/>
<path d="M942.8,883.6l-0.2,7.4l-43.9-0.2l-1-7L942.8,883.6z"/>
<path d="M888,883.9l-73.8-0.3l1.3,7.2h65.8l7.5-6.9H888z"/>
<path d="M814.2,883.6l-58.7,0l1.3,7.2l58.7,0l-0.7-3.6L814.2,883.6z"/>
<path class="st5" d="M658.2,899.2v10.5l31,11l-1-4.5l9.5,2.7l2.5-0.8l7.2-3.3L728,905l4,0.4l0.3-7l-38.7-14.5l-35.4,14.5"/>
<path class="st5" d="M341,753.8l8.4-10.4l38.2,16.8l-7.2,12l-5.9-1.2l-9.9-3.8l-8.4-3.8l-9.2-5.6L341,753.8z"/>
<path class="st5" d="M659.6,160.7L606.2,150l-8.3,31.9l13.4,5.9l9-15.2l1.9-2.4l2.5-0.9l2,0l2.9,1.1l2.1,2.2l0.7,2.2v2.5l-7.5,16.6
	l3,1.3l7.4,2.4l3.7,0.1l4.3-1.6l2.9-2.8l1.6-2.4L659.6,160.7z"/>
<path class="st7" d="M729,905.1l5.6,1.1l8.6,3.8l2.3,1.2l-21.3,10.1l8.2,6.5l-40,7.5l-4.2-19.1l9.5,2.7l4.5-1.6L728,905L729,905.1z"
	/>
<path d="M405,550.1l7.4-0.3l4-0.1l2.3-1.3l2.4-3.2l2.9-4.6l4.3-4.2l5-3.3l5.6-2.5l5.8-1.3l7.6-0.2l7.2,0.8l4.3,1.1l4.4,2.4l5.8,3.8
	l4.2,5.2l2.2,3.6l1.5,0.2l13.5-3.8l-1.2,10.5l-3.2,9.4l-2.6,4.8l-6.3,7.9l-8.1,6.3l-9.5,4.3l-5.4,1.5l-10.6,1l-8.1-1l-5.3-1.4
	l-5.8-2.4l-6.7-4.1l-3.9-3.2l-5.1-5.4l-4.1-6.5l-3.6-8.5L405,550.1z"/>
<path d="M245.3,440.3l5.5,2.5l7.8,2.4l10.1,2.9l9.9,1.3l10.4,0.2l10.7-0.9l33.3-3l-0.9-4.6l-3.7-7.7l-3.5-5.4l-4.8-5.5l-9.1-6.7
	l-5.3-2.5l-7.2-2.2l-9.9-1.2l-11.5,1.3l-7.1,2.5l-8.4,4.5l-9.7,9.3L245.3,440.3z"/>
<path d="M376.6,70.6l2.2-1.3l1.8,0.6l1.3,1.3l2.2,0.5l2.4-3l1.8-4.5L389,62l2.3-2.4l2.5-1.2l2.9-0.4l2.6,0.2l3.7,1.2l4.8,0.4
	l5.2-0.6l4.4-0.9l4.8-2.7l4.9-2l5.6-0.9l5.2-0.4l4.9,0.9l3,0.8l2.9,1.8l2.4,2.9l2.1,4.9l1.8,1.8l2.3-0.6l0.8-1.2l1.7-1.6l2.9-0.5
	l2.3,1l-2.7-6.2l-2.9-4.7l-8.6-9.3l-6.1-3.8l-7.2-3.4l-8.6-2.3l-7.2-0.9l-11.7,1.7l-10.4,4.3l-7.1,4.9l-5.1,4.9l-6.5,9.5L376.6,70.6
	z"/>
<path d="M561.2,347.3c0,0-13.7,0.2-1.3-23.3c13.8-26.1,83-32.3,96.4,0c12.2,29.4-11,26.4-11,26.4s-7-20.6-11.6-16.3
	s-3.5,14.8-6.1,18.3s-20.9-22.1-32.8-15.4S561.2,347.3,561.2,347.3"/>
<path class="st9" d="M561.2,347.3c0,0-13.7,0.2-1.3-23.3c13.8-26.1,83-32.3,96.4,0c12.2,29.4-11,26.4-11,26.4s-7-20.6-11.6-16.3
	s-3.5,14.8-6.1,18.3s-20.9-22.1-32.8-15.4S561.2,347.3,561.2,347.3L561.2,347.3z"/>
<path class="st10" d="M0,0h1000v1000H0V0z"/>
<g>
	<defs>
		<rect id="SVGID_00000063617256284211880780000005590510691635683713_" width="1000" height="1000"/>
	</defs>
	<clipPath id="SVGID_00000019656491465381721130000007928738860134122151_">
		<use xlink:href="#SVGID_00000063617256284211880780000005590510691635683713_"  style="overflow:visible;"/>
	</clipPath>
	<g style="clip-path:url(#SVGID_00000019656491465381721130000007928738860134122151_);">
		<path class="st9" d="M888.6,480.9h113"/>
	</g>
</g>
<path class="st9" d="M429.6,480.9h116"/>
<g>
	<defs>
		<rect id="SVGID_00000015318994501153186450000012101244381109067164_" width="1000" height="1000"/>
	</defs>
	<clipPath id="SVGID_00000021102198327675606150000009670781790883241630_">
		<use xlink:href="#SVGID_00000015318994501153186450000012101244381109067164_"  style="overflow:visible;"/>
	</clipPath>
	<g style="clip-path:url(#SVGID_00000021102198327675606150000009670781790883241630_);">
		<path class="st9" d="M-25.9,480.9h245.4"/>
	</g>
</g>
<g>
	<defs>
		<rect id="SVGID_00000117660294858727049540000000890908452946791096_" width="1000" height="1000"/>
	</defs>
	<clipPath id="SVGID_00000162317608299757499920000005436248853869732789_">
		<use xlink:href="#SVGID_00000117660294858727049540000000890908452946791096_"  style="overflow:visible;"/>
	</clipPath>
	<g style="clip-path:url(#SVGID_00000162317608299757499920000005436248853869732789_);">
		<path class="st9" d="M866.2,452.2h135.3"/>
	</g>
</g>
<path class="st9" d="M430.1,452.2h119.1"/>
<g>
	<defs>
		<rect id="SVGID_00000118370607318475153670000007219389889533233818_" width="1000" height="1000"/>
	</defs>
	<clipPath id="SVGID_00000076565138388292195080000009190350676123145097_">
		<use xlink:href="#SVGID_00000118370607318475153670000007219389889533233818_"  style="overflow:visible;"/>
	</clipPath>
	<g style="clip-path:url(#SVGID_00000076565138388292195080000009190350676123145097_);">
		<path class="st9" d="M-25.9,452.2h256"/>
	</g>
</g>
<path class="st9" d="M565.8,350h-19.9"/>
<g>
	<defs>
		<rect id="SVGID_00000150797168931353802910000012540976680376715394_" width="1000" height="1000"/>
	</defs>
	<clipPath id="SVGID_00000071544874978829866430000006220411990757408415_">
		<use xlink:href="#SVGID_00000150797168931353802910000012540976680376715394_"  style="overflow:visible;"/>
	</clipPath>
	<g style="clip-path:url(#SVGID_00000071544874978829866430000006220411990757408415_);">
		<path class="st9" d="M753.2-9.5v213.6c0,5.5-5.7,10-12.8,10h-87.2"/>
		<path class="st9" d="M345.1,214.3l-28.9-0.1c-7,0-12.8-4.5-12.8-10V-9.5"/>
		<path class="st9" d="M793.2-9.5v440.2"/>
		<path class="st9" d="M214.5,214.2H-25.6"/>
		<path class="st9" d="M274-9.5v213.6c0,5.5-5.7,10-12.8,10h-46.8"/>
		<path class="st9" d="M601.8,214.3l-50.3,0"/>
	</g>
</g>
<g>
	<defs>
		<rect id="SVGID_00000047043389676577753660000000879390580491305875_" width="1000" height="1000"/>
	</defs>
	<clipPath id="SVGID_00000033328683153374636030000008040290214193311167_">
		<use xlink:href="#SVGID_00000047043389676577753660000000879390580491305875_"  style="overflow:visible;"/>
	</clipPath>
	<g style="clip-path:url(#SVGID_00000033328683153374636030000008040290214193311167_);">
		<g>
			<path class="st9" d="M655.5,366.2c-6.7,24.3-31.9,38.6-56.2,31.9s-38.6-31.9-31.9-56.2s31.9-38.6,56.2-31.9
				S662.2,341.9,655.5,366.2z"/>
			<path class="st9" d="M464.4,94.3c-9,23.6-35.4,35.4-59,26.5c-23.6-9-35.4-35.4-26.5-59s35.4-35.4,58.9-26.5
				C461.5,44.4,473.4,70.8,464.4,94.3L464.4,94.3z"/>
			<path class="st9" d="M334.1,455.6c0,25.2-20.5,45.7-45.7,45.7s-45.7-20.5-45.7-45.7s20.5-45.7,45.7-45.7S334.1,430.3,334.1,455.6
				z"/>
			<path class="st9" d="M495.3,542.2c0,25.2-20.5,45.7-45.7,45.7s-45.7-20.5-45.7-45.7s20.5-45.7,45.7-45.7S495.3,517,495.3,542.2z"
				/>
			<path class="st9" d="M460.1,103.3c25.7,11.9,48.6,28,68.2,47.7l23.1,27.5c6.1,7.3,8,17,4.8,25.8c-5.2,14.7-17.5,26.2-33.2,31
				l-4.8,1.5c-26.1,7.9-54.7-1.1-70.7-22.2l-20.2-26.7l46.2-24.4l25.4,34.5"/>
			<path class="st9" d="M381,315.2l163.9-1.5l-15.4-80.8"/>
			<path class="st9" d="M326.7,430.8l-0.4-10.6c-1.3-33.3,12-65.4,36.4-88.1l8.1-7.5"/>
			<path class="st9" d="M370.6,471.6l-39.4,0.5"/>
			<path class="st9" d="M408.8,379.4c-2.6,3.2-4.6,6-6.5,9.6"/>
			<path class="st9" d="M558.7,458.7l-25.5-17.8c-26.1-13.2-46.5-35.4-57.6-62.5l-7.4-17.9c-4.3-10.4-17.2-14.1-26.3-7.5l-21.8,15.8
				c-1.1,0.8-2.1,1.6-3.2,2.4"/>
			<path class="st9" d="M643.4,450.9l-36.1,25.9"/>
			<path class="st9" d="M544.9,313.7l-0.6,22.9c-0.7,26.1,13.1,50.4,35.8,63.2l18.5,10.5"/>
			<path class="st9" d="M652.8,515.6l-9.2-63.8c-0.8-5.5-7.4-7.7-11.3-3.9c-19.2,18.6-34.8,40.5-46.4,64.6l-19.1,39.9l-53.6-14.8
				l41.5-72.5c15-25,33.9-47.5,56.8-65.5"/>
			<path class="st9" d="M647,325.2l-53.8-105.4l56.9-12.2l72.8,148.4l42.3,83.7"/>
			<path class="st9" d="M640.6,567l12.2-51.4l30.6,3.9c12.3,1.6,24.8-0.9,35.5-7.2l19.8-11.5c21.2-12.4,32-37.1,26.6-61
				c42.2-21.6,94-7,118.7,33.5l32,52.5l-61.4,36.7L844,537.1c-10.1-24.5-39.9-33.9-62.2-19.6c-28,17.9-50.3,43.4-64.4,73.5"/>
			<path class="st9" d="M334.6,727.6l1.2-1.4"/>
			<path class="st9" d="M497.3,719.8l40.1,25.9c38.8,25,57.1,72.2,45.4,116.8l-12.1,46.2l-89.2,1l22.7-53
				c10.9-27.8-2.5-59.3-30.1-70.7l-27.9-11.5c-0.6-0.2-1.1-0.5-1.7-0.7c-21.1-7.9-45-0.9-59.2,16.7l-96.3,119.2h-95.5l133.6-172.3"
				/>
			<path class="st9" d="M274.4,805.4l-49.2-6.6l53.4-70.6c5.5-7,4.5-17.1-2.3-22.8l-61.6-52.1"/>
			<path class="st9" d="M304,542.7l38.2,131.7l-53.8,15.4l-52.8-152.2"/>
			<path class="st9" d="M155.9,559.5l-6.2,35.6c-2.1,12-3.6,24.1-5,36.2c-2.3,20.5-10.6,40-23.9,56l-62.1,78.7l84.6,2.9l31.5-42.8
				c18.6-24.1,32.9-51.1,42.5-80l5-19"/>
			<path class="st9" d="M390.1,111.1l-1.8,1.5c-16.2,13.2-28.6,30.4-36,49.9"/>
			<path class="st9" d="M279.2,410.8L158.7,298l-37.8,41.5L221.1,435c12,11.4,12.6,30.3,1.5,42.6l-61.3,67.3
				c-8.5,9.3-6.9,24,3.4,31.2l29,20.4c20.5,14.4,44.9,22.1,70,22.1"/>
			<path class="st9" d="M327,480c9.4,23.6,6.1,50.4-8.9,70.9l-8.4,11.5"/>
			<path class="st9" d="M297.9,687.1l6.1,18.5l0.9,10.6l-0.4,3.2c-0.3,2.4,1.7,4.5,4.2,4.3c1.9-0.1,3.4-1.6,3.6-3.4l0.4-3
				c0.1-1.1,0.1-2.2,0-3.2l-0.8-7.2"/>
			<path class="st9" d="M564.9,908.8c1.9,3.2,5,7.2,9.3,8.2c5.6,1.4,25.6,0.9,37.7,1.5c5.5,0.3,6.1,7.7,4.6,13.1l-3.3,18.7h-66
				l-15.3-13.5l-2,13.5l-43.9,0.2l-0.3-40.6"/>
			<path class="st9" d="M485.6,943l44.6,0.3"/>
			<path class="st9" d="M539.9,943.3l74.4-0.2"/>
			<path class="st9" d="M915.8,525.8c3.1,0.8,6.7,0.9,9.9-1.1c4.3-2.6,16.2-15.4,24-22.6c3.6-3.3,8.5,0.9,11,5.1l9.6,13.5L929.9,562
				l-17.8,1.3l7.2,9.5l-26.7,27.5l-25.5-24.6l41.1-45.4"/>
			<path class="st9" d="M887.9,596l27.4-27.7"/>
			<path class="st9" d="M921.2,562.2l45.3-46.7"/>
			<path class="st9" d="M525,664.5l18.8,33.7"/>
			<path class="st9" d="M599.9,707.9l-0.6,2.2c0,0-3.6,10.2-2.3,11.8c1.4,1.7,35.9,0.7,41.2,1.9c5.3,1.2-4.2,19.6-4.2,19.6
				l-55.2-1.1c-8-0.2-14.9-4.5-17-10.7l-12-34.3l-16.4,3.2l-19-32.6l33.2-11.5"/>
			<path class="st9" d="M635.8,739l-51.3-1.7c-7.7-0.3-14.5-4-17.7-9.7l-17-30.3"/>
			<path class="st9" d="M717.4,591l-3,5.9c-19.4,37.2-46.3,69.9-79.2,96l-28,22.2L545.5,654l12.2-7.7"/>
			<path class="st9" d="M203.2,909.7c-1.9,3.2-4.6,6.2-8.8,7.2c-5.6,1.4-25.6,0.9-37.6,1.5c-5.6,0.3-6.1,7.7-4.6,13.1l3.3,18.7h66.1
				l15.3-13.5l2,13.5l43.9,0.2l0.3-40.6"/>
			<path class="st9" d="M282.9,943l-44.6,0.3"/>
			<path class="st9" d="M228.7,943.3l-74.4-0.2"/>
			<path class="st9" d="M344.9,716.7c1.3,4.2,5.4,7.5,10.2,7.7l126.4,5c7.9,0.3,14.9-5.2,16.4-13l7.8-39.9
				c3.4-17.5,18.7-30.2,36.6-30.2l14.3,0c21.4,0,42.5-4.9,61.7-14.3c4-2,8-3.8,12.2-5.5l54.5-22.6l-27.4-45.1l-45.9,22
				c-20.6,9.2-41.1,15.7-63.7,14.5l-41.9-2.3c-16.5-0.9-25.9-1.9-41.4-7.8"/>
			<path class="st9" d="M347.3,700.5l-2.2,9.2"/>
			<path class="st9" d="M429.3,501.3l1.4-83.5l-59.5,2.2l-0.5,136c-0.1,19.6-2.7,39.1-7.8,58c-4.9,18.4-5.3,39.4-9.2,57.4l-4.2,19.3
				"/>
			<path class="st9" d="M352.3,162.5l-18.2,130.9h56l8.5-85.7"/>
			<path class="st9" d="M62.2,766.2v24.6l11.8,7.4l5.1-9.3l4.3,15.8l10,5.3c10.5,5.4,22,8.2,33.8,8.2H145c7.4,0,13.7-13.1,11.5-20.2
				"/>
			<path class="st9" d="M156.4,797.9l-9.6-7.6c-6.9-5.4-12.2-12.5-15.4-20.7l-0.4-1.1"/>
			<path class="st9" d="M79.8,791.2l10.3,6.4c13.7,8.6,28.8,11.8,44.9,12.1l19.6,0.2"/>
			<path class="st9" d="M62.2,779.5l13.5,9.1l2.5,1.6"/>
			<path class="st9" d="M74.1,798.2h7.6"/>
			<path class="st9" d="M858.9,559.8l11.7,12.1"/>
			<path class="st9" d="M338.4,675.5l3.9,12.4c2,6.3,2.9,12.8,2.8,19.4l-0.3,19.7c0,2.5-2,4.4-4.5,4.4s-4.5-2-4.5-4.5v-7.3
				c0-1.4-0.1-2.7-0.3-4.1l-1.9-11.8"/>
			<path class="st9" d="M311.9,706.9l1.8,7.8c0.4,1.7,0.6,3.3,0.6,5v4.9c0,2.6,2.1,4.7,4.7,4.7s4.6-2,4.7-4.6l0.2-8.9l-1.5-10.3"/>
			<path class="st9" d="M333.6,703.8l1,13.6c0.1,0.8,0.1,1.6,0.1,2.4l-0.3,13.2c0,2.7-2.3,4.9-5,4.9c-2.8,0-5-2.3-5-5.1l0.3-12.4
				l-2.5-14.7"/>
			<path class="st9" d="M339.3,678.5l12,14.5c1.4,1.7,1.4,4,0.1,5.8c-1.5,1.9-4.2,2.4-6.2,1l-0.5-0.3"/>
			<path class="st9" d="M232.2,799.8L222.2,826l33.8,3"/>
			<path class="st9" d="M225.2,818.1l36.8,3.2"/>
			<path class="st9" d="M418.8,410.7v-35.5c0-2.8-2.2-5-5-5s-5,2.2-5,5l0,18.1"/>
			<path class="st9" d="M408.8,408.2v-14.9c0-2.4-2.2-4.4-5-4.4s-5,2-5,4.4v13.3"/>
			<path class="st9" d="M398.8,408.1v-12.9c0-2.3-2.2-4.2-5-4.2s-5,1.9-5,4.2v12.9"/>
			<path class="st9" d="M388.8,408.1v-10.2c0-2.3-2.2-4.2-5-4.2s-5,1.9-5,4.2v21.9"/>
			<path class="st9" d="M426.9,417.8l5-12.7c1.4-3.7-1.2-7.7-5.2-7.9c-2.2-0.1-4.2,1-5.2,2.9l-2.7,4.7"/>
			<path class="st9" d="M380.1,300.9l1.3,35.5c0.1,2.8-2,5.1-4.8,5.2c-2.8,0.1-5.1-2-5.2-4.8l-0.7-18.1"/>
			<path class="st9" d="M370.2,303.8l0.6,14.9c0.1,2.4-2.1,4.4-4.8,4.5s-5.1-1.8-5.2-4.2l-0.5-13.3"/>
			<path class="st9" d="M360.2,304.3l0.5,12.9c0.1,2.3-2.1,4.3-4.8,4.4c-2.8,0.1-5.1-1.7-5.1-4l-0.5-12.9"/>
			<path class="st9" d="M350.2,304.7l0.4,10.2c0.1,2.3-2.1,4.3-4.8,4.4s-5.1-1.7-5.1-4l-0.5-12.9l-0.3-9"/>
			<path class="st9" d="M387.9,293.6l5.4,12.5c1.6,3.6-0.9,7.8-4.9,8.1c-2.1,0.2-4.2-0.9-5.4-2.7l-2.9-4.6"/>
			<path class="st9" d="M332.1,512.1l21.9-0.3l15.1-13.7l1.8,11.1"/>
			<path class="st9" d="M334.8,472c-1.6,2.8-3.5,5-6.7,6.4"/>
			<path class="st9" d="M361.8,504.8l-29.5,0.3"/>
			<path class="st9" d="M577.6,529.9l43-0.9c8-0.2,14.9-4.5,17-10.7l10.9-31.3"/>
			<path class="st9" d="M643.8,452.9l-44.3,41.7l0.6,2.1c0,0,3.6,10.2,2.3,11.8c-0.6,0.7-7,0.9-14.9,1.1"/>
			<path class="st9" d="M579.8,525.2l35-1.2c7.7-0.3,14.5-4,17.7-9.7l16-28.5"/>
			<path class="st9" d="M601.4,492.7l-1.7-5"/>
			<path class="st9" d="M450.8,163.7l-10.6-16c-1.7-2.6-5-3.4-7.2-1.9s-2.8,4.9-1.1,7.4l9.4,14.2"/>
			<path class="st9" d="M442.4,169.1l-9.1-13.8c-1.6-2.5-4.9-3.3-7.2-1.8s-2.8,4.8-1.2,7.3l9.1,13.8"/>
			<path class="st9" d="M434,174.6l-7.3-11c-1.6-2.5-4.9-3.3-7.2-1.8s-2.8,4.8-1.2,7.3l9.1,13.8l2.3,3.5"/>
			<path class="st9" d="M472.8,163.7l-2.7-12.6c-0.5-2.2-2-3.7-3.9-4.3"/>
			<path class="st9" d="M422,174.6l-6.9,1.3l-5.1-40.3l48.6-11.3l3.6,38.7l-16.9-25.6c-1.3-2-4.2-2.4-6.5-0.9s-3.1,4.4-1.8,6.4
				l8.6,13"/>
			<path class="st9" d="M458.7,124.4l5.5-0.6l3.3,36l-5.1,3.2"/>
			<path class="st9" d="M138.4,320.2l-30.1,1c-2.9,0.1-5.2-2.2-5.2-5s2.3-5.1,5.1-5.1h12.8c-8.5-6.6-19-10.2-29.8-10.2h-7.2
				c-3.1,0-5.6-2.5-5.6-5.6c0-2.9,2.2-5.4,5.2-5.6c21.3-1.7,42.6,2.9,61.3,13.2l6.4,3.5"/>
			<path class="st9" d="M602.9,217.8l-4.9-17.5c-3.1-11.1-3.4-22.8-0.9-34.1l4.8-21.2c0.6-2.6,2.9-4.4,5.5-4.4
				c3.5,0,6.1,3.1,5.6,6.5l-0.6,4"/>
			<path class="st9" d="M624.7,194.3l9.3,3.1c5.3,1.8,11.1-0.9,13.2-6.1l12.4-30.5l-53.4-10.9l-8.4,32.2l13.7,5.8l8.7-15.2
				c1.7-2.9,5.3-4.1,8.4-2.7c3.2,1.5,4.7,5.3,3.2,8.6L624.7,194.3l5.7,17.7"/>
			<path class="st9" d="M659.6,160.7l-4,2.8c-2,1.4-4.5,1.9-6.9,1.3l-39.9-10.4l-8.1,28.8"/>
			<path class="st9" d="M678.5,572.6l17.4-8c2.8-1.3,6-0.3,7.2,2.2c1.2,2.5-0.2,5.6-3,6.9l-15.5,7.2"/>
			<path class="st9" d="M682.9,581.6l15-6.9c2.7-1.3,5.9-0.2,7,2.3s-0.1,5.6-2.8,6.8l-15,6.9"/>
			<path class="st9" d="M687,590.7l12-5.5c2.7-1.3,5.9-0.2,7,2.3c1.2,2.5-0.1,5.6-2.8,6.8l-15,6.9l-3.8,1.8"/>
			<path class="st9" d="M659.3,561.5l9.4-9.7c1.5-1.6,3.6-2.1,5.5-1.6"/>
			<path class="st9" d="M697.2,597l5.1,4.8l25.6-31.5L692.5,535l-23.5,31l27.9-12.8c2.2-1,4.9,0.2,6,2.7c1.2,2.5,0.3,5.3-1.8,6.3
				l-14.2,6.5"/>
			<path class="st9" d="M692.5,535l-4.3-3.3l-21.8,28.9l2.7,5.4"/>
			<path class="st9" d="M521.9,593.9c-3.8-16.2-3.8-33-0.1-49.3l1-4.2"/>
			<path class="st9" d="M540,545.1l9.5,29.4c0.9,2.7-0.7,5.6-3.4,6.4c-2.7,0.8-5.5-0.8-6.2-3.5l-3.5-12.3
				c-3.8,9.3-4.6,19.5-2.2,29.3"/>
			<path class="st9" d="M339.3,752.6c0,0,24.3,18.7,46.1,20.2"/>
			<path class="st9" d="M341,753.8l8.4-10.4l38.6,17.2l-7.6,11.5"/>
			<path class="st9" d="M349.4,743.5l1.6,5.3l34.4,15.8"/>
			<path class="st9" d="M351,748.8l-5.9,7.9"/>
		</g>
		<path d="M426.8,76.1c0,1.2,1.1,2.2,2.3,2.1s2.2-1.1,2.1-2.3s-1.1-2.2-2.3-2.1S426.8,74.9,426.8,76.1"/>
		<path class="st9" d="M426.8,76.1c0,1.2,1.1,2.2,2.3,2.1s2.2-1.1,2.1-2.3s-1.1-2.2-2.3-2.1S426.8,74.9,426.8,76.1"/>
		<path d="M426.8,76.1c0,1.2,1.1,2.2,2.3,2.1s2.2-1.1,2.1-2.3s-1.1-2.2-2.3-2.1S426.8,74.9,426.8,76.1"/>
		<path class="st9" d="M426.8,76.1c0,1.2,1.1,2.2,2.3,2.1s2.2-1.1,2.1-2.3s-1.1-2.2-2.3-2.1S426.8,74.9,426.8,76.1z"/>
		<path d="M398.6,79.2c0,1.2,1.1,2.2,2.3,2.1s2.2-1.1,2.1-2.3s-1.1-2.2-2.3-2.1S398.5,77.9,398.6,79.2"/>
		<path class="st9" d="M398.6,79.2c0,1.2,1.1,2.2,2.3,2.1s2.2-1.1,2.1-2.3s-1.1-2.2-2.3-2.1S398.5,77.9,398.6,79.2"/>
		<path d="M398.6,79.2c0,1.2,1.1,2.2,2.3,2.1s2.2-1.1,2.1-2.3s-1.1-2.2-2.3-2.1S398.5,77.9,398.6,79.2"/>
		<path class="st9" d="M398.6,79.2c0,1.2,1.1,2.2,2.3,2.1s2.2-1.1,2.1-2.3s-1.1-2.2-2.3-2.1S398.5,77.9,398.6,79.2z"/>
		<path class="st9" d="M413.9,78.2l-3.4,10.3c-1.7,5.3,2.6,10.7,8.2,10L423,98"/>
		<path d="M291.2,468.3c0,1.2-1.1,2.2-2.3,2.1s-2.2-1.1-2.1-2.3s1.1-2.2,2.3-2.1S291.3,467.1,291.2,468.3"/>
		<path class="st9" d="M291.2,468.3c0,1.2-1.1,2.2-2.3,2.1s-2.2-1.1-2.1-2.3s1.1-2.2,2.3-2.1S291.3,467.1,291.2,468.3"/>
		<path d="M291.2,468.3c0,1.2-1.1,2.2-2.3,2.1s-2.2-1.1-2.1-2.3s1.1-2.2,2.3-2.1S291.3,467.1,291.2,468.3"/>
		<path class="st9" d="M291.2,468.3c0,1.2-1.1,2.2-2.3,2.1s-2.2-1.1-2.1-2.3s1.1-2.2,2.3-2.1S291.3,467.1,291.2,468.3z"/>
		<path d="M319.4,471.4c0,1.2-1.1,2.2-2.3,2.1s-2.2-1.1-2.1-2.3s1.1-2.2,2.3-2.1S319.5,470.1,319.4,471.4"/>
		<path class="st9" d="M319.4,471.4c0,1.2-1.1,2.2-2.3,2.1s-2.2-1.1-2.1-2.3s1.1-2.2,2.3-2.1S319.5,470.1,319.4,471.4"/>
		<path d="M319.4,471.4c0,1.2-1.1,2.2-2.3,2.1s-2.2-1.1-2.1-2.3s1.1-2.2,2.3-2.1S319.5,470.1,319.4,471.4"/>
		<path class="st9" d="M319.4,471.4c0,1.2-1.1,2.2-2.3,2.1s-2.2-1.1-2.1-2.3s1.1-2.2,2.3-2.1S319.5,470.1,319.4,471.4z"/>
		<path class="st9" d="M304.2,470.4l3.4,10.3c1.7,5.3-2.6,10.7-8.2,10l-4.3-0.5"/>
		<path d="M461.5,516.4c0,1.2,1.1,2.2,2.3,2.1s2.2-1.1,2.1-2.3s-1.1-2.2-2.3-2.1S461.5,515.2,461.5,516.4"/>
		<path class="st9" d="M461.5,516.4c0,1.2,1.1,2.2,2.3,2.1s2.2-1.1,2.1-2.3s-1.1-2.2-2.3-2.1S461.5,515.2,461.5,516.4"/>
		<path d="M461.5,516.4c0,1.2,1.1,2.2,2.3,2.1s2.2-1.1,2.1-2.3s-1.1-2.2-2.3-2.1S461.5,515.2,461.5,516.4"/>
		<path class="st9" d="M461.5,516.4c0,1.2,1.1,2.2,2.3,2.1s2.2-1.1,2.1-2.3s-1.1-2.2-2.3-2.1S461.5,515.2,461.5,516.4z"/>
		<path d="M433.3,519.5c0,1.2,1.1,2.2,2.3,2.1c1.2,0,2.2-1.1,2.1-2.3s-1.1-2.2-2.3-2.1S433.2,518.3,433.3,519.5"/>
		<path class="st9" d="M433.3,519.5c0,1.2,1.1,2.2,2.3,2.1c1.2,0,2.2-1.1,2.1-2.3s-1.1-2.2-2.3-2.1S433.2,518.3,433.3,519.5"/>
		<path d="M433.3,519.5c0,1.2,1.1,2.2,2.3,2.1c1.2,0,2.2-1.1,2.1-2.3s-1.1-2.2-2.3-2.1S433.2,518.3,433.3,519.5"/>
		<path class="st9" d="M433.3,519.5c0,1.2,1.1,2.2,2.3,2.1c1.2,0,2.2-1.1,2.1-2.3s-1.1-2.2-2.3-2.1S433.2,518.3,433.3,519.5z"/>
		<path class="st9" d="M443.3,515.5v-11.2c0-3,2.4-5.4,5.4-5.4s5.4,2.4,5.4,5.4v11.2"/>
		<path d="M605,354.3c0,1.2,1.1,2.2,2.3,2.1s2.2-1.1,2.1-2.3s-1.1-2.2-2.3-2.1S605,353.1,605,354.3"/>
		<path class="st9" d="M605,354.3c0,1.2,1.1,2.2,2.3,2.1s2.2-1.1,2.1-2.3s-1.1-2.2-2.3-2.1S605,353.1,605,354.3"/>
		<path d="M605,354.3c0,1.2,1.1,2.2,2.3,2.1s2.2-1.1,2.1-2.3s-1.1-2.2-2.3-2.1S605,353.1,605,354.3"/>
		<path class="st9" d="M605,354.3c0,1.2,1.1,2.2,2.3,2.1s2.2-1.1,2.1-2.3s-1.1-2.2-2.3-2.1S605,353.1,605,354.3z"/>
		<path d="M576.8,357.4c0,1.2,1.1,2.2,2.3,2.1c1.2,0,2.2-1.1,2.1-2.3s-1.1-2.2-2.3-2.1S576.8,356.2,576.8,357.4"/>
		<path class="st9" d="M576.8,357.4c0,1.2,1.1,2.2,2.3,2.1c1.2,0,2.2-1.1,2.1-2.3s-1.1-2.2-2.3-2.1S576.8,356.2,576.8,357.4"/>
		<path d="M576.8,357.4c0,1.2,1.1,2.2,2.3,2.1c1.2,0,2.2-1.1,2.1-2.3s-1.1-2.2-2.3-2.1S576.8,356.2,576.8,357.4"/>
		<path class="st9" d="M576.8,357.4c0,1.2,1.1,2.2,2.3,2.1c1.2,0,2.2-1.1,2.1-2.3s-1.1-2.2-2.3-2.1S576.8,356.2,576.8,357.4z"/>
		<path class="st9" d="M592.1,356.4l-3.4,10.3c-1.7,5.3,2.6,10.7,8.2,10l4.3-0.5"/>
		<path class="st9" d="M633.8,338.7c0,0,9.5,3.8,3.6,15.5"/>
		<path class="st9" d="M633.8,344.5c0,0,2,1.2,1,3.4"/>
		<path class="st9" d="M495.3,542.2l-14.7,4c-5.7-11-17.2-17.7-29.6-17.2l-3.7,0.1c-11.7,0.5-22.3,7.3-27.4,17.8
			c-0.9,1.7-2.6,2.8-4.5,2.9l-10.8,0.3"/>
		<path class="st9" d="M245.3,440.3l8.4,3.3c12.4,4.9,25.7,6.8,39,5.6l40.3-3.6"/>
		<path class="st9" d="M250.2,448.6c0,0-6.6,9.3,1.3,15.3"/>
		<path class="st9" d="M251.5,454.5c0,0-0.5,3,0.8,3.8"/>
		<path class="st9" d="M465.2,64.1c-3.1-4.9-6.1-2.3-7.9,0.2c-1,1.4-3.1,1.2-4-0.3c-0.6-1.2-1.3-2.7-2.5-5.1c-3.7-7.3-18.6-9.2-31-2
			c-7.9,4.6-15.4,3.3-19.8,1.8c-3.6-1.3-7.7-0.5-10.2,2.3c-0.8,0.9-1.5,2-1.8,3.3c-0.5,1.9-1.6,4.4-3.1,6.6
			c-0.8,1.1-2.4,1.2-3.3,0.1c-1.2-1.4-3-2.6-5,0.1"/>
		<path class="st9" d="M461,63c0,0,5.9,3.9,2.4,12.1"/>
		<path class="st9" d="M459.5,65.7c0,0,1.7,3.1,0.8,6.3"/>
		<path class="st9" d="M379,72.2c0,0-4.8,7.6,2.9,12.8"/>
		<path class="st9" d="M380.5,76c0,0-1,2.9,1.3,3.8"/>
		<path class="st9" d="M863.6,630.5c0,25.2-20.5,45.7-45.7,45.7s-45.7-20.5-45.7-45.7s20.5-45.7,45.7-45.7S863.6,605.3,863.6,630.5z
			"/>
		<path class="st9" d="M751.3,783.9l-8.6,16.2l-41.5-23.3l54.8-94.4c4.4-7.6,9.6-14.8,15.4-21.4l6.8-7.8"/>
		<path class="st9" d="M862.9,850.3c-1.9,3.2-4.6,6.2-8.8,7.2c-5.6,1.4-25.6,0.9-37.7,1.5c-5.5,0.3-6.1,7.7-4.6,13.1l3.3,18.7h66
			l15.3-13.5l2,13.5l43.9,0.2l0.3-40.6"/>
		<path class="st9" d="M942.7,883.5l-44.6,0.3"/>
		<path class="st9" d="M804.4,850.1c-1.9,3.2-4.6,6.2-8.8,7.2c-5.6,1.4-25.6,0.9-37.7,1.5c-5.5,0.3-6.1,7.7-4.6,13.1l3.3,18.7
			l58.5,0.2"/>
		<path class="st9" d="M888.5,883.8l-132.9-0.5"/>
		<path class="st9" d="M916.9,775.8l-76-51.2c-13.4-9-31.3-7-42.3,4.8c-11.1,11.9-11.7,30.2-1.5,42.8l62.7,77.8l84.5-0.4l-93-77.4
			l93,77.4c16.3-10.7,23.7-30.8,18.3-49.6l-7-24.2c-4.9-17-12-33.3-20.9-48.6l-6.2-9.6"/>
		<path class="st9" d="M796.5,731.8l-10.8-7.3c-13.4-9-31.3-7-42.3,4.8c-11.1,11.9-11.7,30.2-1.5,42.8l62.7,77.8h55.1"/>
		<path class="st9" d="M863,637.8l53.4,44c19.5,16,16.6,46.6-5.5,58.7l-25.3,13.8"/>
		<path class="st9" d="M878.9,705.9l-37.9,18.6"/>
		<path class="st9" d="M778.2,720.8l9.1-20.8"/>
		<path class="st9" d="M710.6,782.1l-8.3,14.9c-3.5,6.2-5,13.3-4.6,20.4l1.3,20.4c0.2,3.1,2.7,5.5,5.8,5.5s5.8-2.6,5.8-5.8v-18.7
			c0-3.8,3.2-6.7,6.9-6.4c2.5,0.2,4.7,1.9,5.6,4.3l2.7,7.6c1.3,3.7,5.7,5.3,9.1,3.2c2.2-1.4,3.3-3.9,2.8-6.4l-5.3-26.6"/>
		<path class="st9" d="M693,883.6l39.4,14.8l-34.7,16.4l-39.5-15.6L693,883.6z"/>
		<path class="st9" d="M732,905.4l0.3-7"/>
		<path class="st9" d="M697.7,914.8v4.1"/>
		<path class="st9" d="M658.2,899.2v10.5l31,11"/>
		<path class="st9" d="M727.4,905.2c4.9-1.8,18.4,6.1,18.4,6.1s-29.8,14-31.6,12.2c-1.8-1.9-12.7-6-12.7-6L727.4,905.2z"/>
		<path class="st9" d="M723.8,921l8.6,6.8l-40,7.5l-4.2-19.1l9.5,2.7l3.8-1.3"/>
		<path d="M813.8,632.8c0,1.2,1.1,2.2,2.3,2.1s2.2-1.1,2.1-2.3s-1.1-2.2-2.3-2.1S813.8,631.6,813.8,632.8"/>
		<path class="st9" d="M813.8,632.8c0,1.2,1.1,2.2,2.3,2.1s2.2-1.1,2.1-2.3s-1.1-2.2-2.3-2.1S813.8,631.6,813.8,632.8"/>
		<path d="M813.8,632.8c0,1.2,1.1,2.2,2.3,2.1s2.2-1.1,2.1-2.3s-1.1-2.2-2.3-2.1S813.8,631.6,813.8,632.8"/>
		<path class="st9" d="M813.8,632.8c0,1.2,1.1,2.2,2.3,2.1s2.2-1.1,2.1-2.3s-1.1-2.2-2.3-2.1S813.8,631.6,813.8,632.8z"/>
		<path d="M785.6,635.9c0,1.2,1.1,2.2,2.3,2.1s2.2-1.1,2.1-2.3s-1.1-2.2-2.3-2.1S785.5,634.7,785.6,635.9"/>
		<path class="st9" d="M785.6,635.9c0,1.2,1.1,2.2,2.3,2.1s2.2-1.1,2.1-2.3s-1.1-2.2-2.3-2.1S785.5,634.7,785.6,635.9"/>
		<path d="M785.6,635.9c0,1.2,1.1,2.2,2.3,2.1s2.2-1.1,2.1-2.3s-1.1-2.2-2.3-2.1S785.5,634.7,785.6,635.9"/>
		<path class="st9" d="M785.6,635.9c0,1.2,1.1,2.2,2.3,2.1s2.2-1.1,2.1-2.3s-1.1-2.2-2.3-2.1S785.5,634.7,785.6,635.9z"/>
		<path class="st9" d="M800.8,634.9l-3.4,10.3c-1.7,5.3,2.6,10.7,8.2,10l4.3-0.5"/>
		<path class="st9" d="M688.2,916.2L658.8,905"/>
		<path class="st9" d="M904.9,767.8l50.5,8"/>
		<path class="st9" d="M869.8,710.4L845.3,692"/>
		<path class="st9" d="M845.7,619.4c0,0,9.5,3.8,3.6,15.5"/>
		<path class="st9" d="M845.7,625.2c0,0,2,1.2,1,3.4"/>
	</g>
</g>
<path class="st10" d="M0,0h1000v1000H0V0z"/>
<path class="st8" d="M-3.4,51.8H274v12.6H-3.4L-3.4,51.8z"/>
<path class="st8" d="M528.1-4.2h15.7v56.1h-15.7V-4.2z"/>
<path class="st8" d="M-3.4-4.3h19.1v56.1H-3.4V-4.3z"/>
<path class="st9" d="M56,181.7l84.8-81.3"/>
<path class="st9" d="M54.7,204.3l46-44.1"/>
<path class="st9" d="M89.8,128.5l46-44.1"/>
<path class="st3" d="M859.1,16.9h88.4c6.5,0,11.7,5.2,11.7,11.7V205c0,6.5-5.2,11.7-11.7,11.7h-88.4c-6.5,0-11.7-5.2-11.7-11.7V28.6
	C847.4,22.1,852.7,16.9,859.1,16.9z"/>
<path class="st8" d="M983.1,287.9L983.1,287.9c3.3,0,6,2.7,6,6v27.5c0,3.3-2.7,6-6,6l0,0c-3.3,0-6-2.7-6-6v-27.5
	C977.1,290.6,979.8,287.9,983.1,287.9z"/>
<path class="st9" d="M533.8,157.5l65.1-62.4"/>
<path class="st9" d="M543.8,169.3l15-14.4"/>
<path class="st9" d="M547.9,123.2l46-44.1"/>
</svg>
