<?xml version="1.0" encoding="UTF-8"?><svg id="uuid-4f19456a-0dbc-4a20-b277-89920edd6b68" xmlns="http://www.w3.org/2000/svg" viewBox="0 0 1080 1080"><defs><style>.uuid-9305efb7-655c-4e65-b149-4729b8e8f85c,.uuid-9bca32bb-cdcc-47a1-ac74-44d9efb8e1b7{fill:#fff;}.uuid-e96d195a-5e83-44aa-92cb-765ef0b35690{fill:#fef9bb;}.uuid-d817f1c3-29e1-4824-b82b-842d49a29264{fill:#7e6044;}.uuid-d817f1c3-29e1-4824-b82b-842d49a29264,.uuid-9bca32bb-cdcc-47a1-ac74-44d9efb8e1b7,.uuid-183dc878-75f7-4bc1-86d1-0eaf36308f4c{stroke:#7e6044;stroke-linecap:round;stroke-linejoin:round;stroke-width:1.5px;}.uuid-183dc878-75f7-4bc1-86d1-0eaf36308f4c{fill:none;}</style></defs><rect class="uuid-9305efb7-655c-4e65-b149-4729b8e8f85c" x="0" width="1080" height="1080"/><g><polygon class="uuid-e96d195a-5e83-44aa-92cb-765ef0b35690" points="397.51 701.29 743.65 401.64 757.01 388.43 766.21 377.45 771.67 368.61 791.79 372.65 806.21 375.55 831.46 381.46 854 387.74 876.15 394.81 899.96 402.9 919.28 410.75 945.84 423 961.71 431.45 979.22 442.15 988.88 448.53 998.8 457.24 1008.6 465 1017.12 474.05 1024.73 482.57 1031.3 492.44 1035.41 500.35 1038.8 507.85 1041.17 514.32 1043.43 523.68 1044.66 531.07 1044.35 542.58 1043.33 551.83 1041.37 559.95 1038.8 567.24 1033.67 576.7 1025.55 589.13 1016.28 598.09 1006.44 608.24 997.4 615.95 984.06 625.43 968.76 635.16 957.4 640.96 934.92 651.85 914.52 660.66 891.57 668.77 873.49 674.57 849.84 681.06 815.07 689.64 762.22 699.37 724.44 704.7 672.28 709.8 645.62 711.43 604.59 713.28 564.03 713.28 532.73 713.28 488.92 711.19 439.08 707.49 401.65 702.71 397.51 701.29"/><polygon class="uuid-e96d195a-5e83-44aa-92cb-765ef0b35690" points="397.51 370.34 213.98 530.11 201.21 540.7 189.06 550.24 178.85 558.96 168.65 569.16 154.37 580.66 146.02 587.71 143.8 589.94 141.04 592.36 134.89 597.36 122.58 608.78 117.53 603.99 106.82 594.22 99.63 583.66 93.61 574.32 87.55 557.23 86.93 545.66 88.09 535.32 90.12 524.6 92.76 516.75 96.58 509.43 101.05 502.4 105.1 496.31 110.51 489.56 116.33 483.47 124.58 475.63 137.02 464.67 146.62 457.78 156.49 451.15 165.41 445.47 177.72 438.98 193.81 430.6 206.66 424.51 221.8 418.43 240.31 410.37 257.38 405 272.22 399.23 298.05 392.85 316.46 387.06 342.43 380.93 356.23 377.86 378.85 373.89 391.23 370.81 397.51 370.34"/><path class="uuid-9bca32bb-cdcc-47a1-ac74-44d9efb8e1b7" d="m719.94,191.74l48.47-42.23c7.09-7.09,16.87-11.47,27.69-11.47,21.62,0,39.15,17.53,39.15,39.15,0,11.93-5.33,22.61-13.74,29.79l-46.1,39.92"/><path class="uuid-9bca32bb-cdcc-47a1-ac74-44d9efb8e1b7" d="m141.04,592.36l426.5-370.25c23.13-26.84,57.37-43.84,95.58-43.84,69.65,0,126.11,56.46,126.11,126.11,0,41.09-19.65,77.6-50.08,100.62l-433.83,377.58"/><path class="uuid-9bca32bb-cdcc-47a1-ac74-44d9efb8e1b7" d="m98.95,743.26c-6.34-15.04-9.84-31.57-9.84-48.92,0-69.65,56.46-126.11,126.11-126.11s126.11,56.46,126.11,126.11-56.46,126.11-126.11,126.11c-23.58,0-45.65-6.47-64.53-17.74"/><path class="uuid-9bca32bb-cdcc-47a1-ac74-44d9efb8e1b7" d="m53.13,783.75l134.41-117.1c7.09-7.09,16.87-11.47,27.69-11.47,21.62,0,39.15,17.53,39.15,39.15,0,11.93-5.33,22.61-13.74,29.79l-134.53,116.52"/><g><path class="uuid-183dc878-75f7-4bc1-86d1-0eaf36308f4c" d="m398.29,702.39l3.89.55c8.62,1.11,17.36,2.13,26.21,3.08,25.51,2.72,51.96,4.74,79.21,6.01,74.37,3.44,146.71.79,212.99-6.92,176.61-21.05,306.87-79.21,322.4-152.75,16.83-79.71-96.45-151.93-267.07-182.68l-3.2-.51"/><path class="uuid-183dc878-75f7-4bc1-86d1-0eaf36308f4c" d="m122.2,608.82c-33.05-28.61-44.23-61.03-28.28-94.55,30.88-64.91,150.81-118.26,301.24-143.85l1.67-.31"/><g><path class="uuid-d817f1c3-29e1-4824-b82b-842d49a29264" d="m676.09,528.58c-.66,5.18-12.3,9.24-26.02,9.05-13.72-.19-24.26-4.53-23.53-9.71.72-5.17,12.38-9.22,26.03-9.04,13.65.18,24.18,4.52,23.52,9.7Z"/><path class="uuid-d817f1c3-29e1-4824-b82b-842d49a29264" d="m989.37,541.05c-.23,5.26-11.51,9.38-25.2,9.19-13.69-.18-24.55-4.59-24.25-9.83.3-5.25,11.59-9.36,25.22-9.19,13.62.17,24.47,4.57,24.23,9.83Z"/><path class="uuid-183dc878-75f7-4bc1-86d1-0eaf36308f4c" d="m820.52,534.96l38.25,43.44c20.28,22.63-27.97,45.26-91.15,42.55l-48.57-2.08"/></g></g><circle class="uuid-9bca32bb-cdcc-47a1-ac74-44d9efb8e1b7" cx="76.16" cy="815.42" r="39.15"/></g></svg>