<?xml version="1.0" encoding="utf-8"?>
<!-- Generator: $$$/GeneralStr/196=Adobe Illustrator 27.6.0, SVG Export Plug-In . SVG Version: 6.00 Build 0)  -->
<svg version="1.1" id="Layer_1" xmlns="http://www.w3.org/2000/svg" xmlns:xlink="http://www.w3.org/1999/xlink" x="0px" y="0px"
	 viewBox="0 0 2000 2000" style="enable-background:new 0 0 2000 2000;" xml:space="preserve">
<style type="text/css">
	.st0{fill:#81C7FF;}
	.st1{fill:#FF3C00;}
	.st2{fill:#FBFFFF;}
	.st3{fill:#FDFAA2;}
	.st4{fill:#FCD2A5;}
	.st5{fill:#ACACAC;}
	.st6{fill:none;stroke:#000000;stroke-width:2;stroke-linecap:round;stroke-linejoin:round;}
</style>
<g id="a">
	<rect x="-0.5" y="-0.5" class="st0" width="2001" height="2001"/>
	<polygon class="st1" points="0,1117.6 520.6,737.9 537.9,726.6 548.2,720.7 565.7,712 579.5,706.2 598.2,699.8 619.8,694.3 
		637,691.3 651.2,689.7 659.8,689 670.4,688.7 682.6,688.8 695.9,689.5 704.9,690.4 745,694.4 814.5,701 825,702.4 842.6,706 
		857.2,710.4 870.8,715.4 884,721.5 896.7,728.7 902.8,732.2 904.3,733.1 906.9,742.2 940.1,859.4 941.5,884.3 948.9,1025.2 
		950.1,1046.4 950.6,1060.2 950.4,1072.5 948.7,1092.5 946.5,1106.6 943.4,1120.6 938.9,1136.3 933.1,1151.9 928.4,1162.7 
		922,1175.5 909.5,1196 894.6,1215.6 844.1,1269.9 788.6,1328.8 0,1259.7 	"/>
	<polygon class="st2" points="0,1259.7 9.5,1254.3 26,1246 41.3,1237.9 63.7,1227.9 79,1221.7 106.3,1211.2 120,1206.1 
		137.4,1200.9 163.7,1193.3 185.2,1187.5 206.9,1183 247.3,1175.8 267.6,1173.7 301.8,1170.5 324.7,1169.6 368.9,1169.6 
		407.6,1171.9 452.5,1176.6 472.7,1180.6 518.7,1190.6 559.7,1202.1 611,1220.3 638.9,1232.6 673.8,1250.1 727.3,1280.4 776,1315.2 
		801,1335.8 816.7,1349.2 832,1363.7 851.1,1382.2 883.2,1417.7 910.7,1451.5 935.7,1488 950.2,1511.4 963.5,1534.2 976,1557.7 
		986.7,1580.1 1001.9,1615.7 1012.4,1643.8 1026,1688.7 1033.1,1716.2 1038.5,1745.7 1043.7,1773 1045.6,1790.9 1047.3,1807.7 
		1049.6,1835.8 1050.7,1861.3 1050.7,1878.7 1049.9,1905.7 1049.3,1923 1046.8,1949.4 1043.9,1971.5 1039.5,2000 0,2000 	"/>
	<polygon class="st2" points="1599.5,1415.2 1614.5,1386.8 1650.3,1315.8 1716.1,1188.2 1733.8,1154.8 1739.7,1140.3 1744.5,1123.1 
		1746.3,1105.4 1745,1091.2 1739.7,1075.7 1726,1057.2 1711.3,1044.6 1700.4,1036.5 1686.2,1027.4 1684.9,1014.4 1680.1,994.4 
		1673.9,978.1 1669,967.8 1657.8,952.9 1650.8,944.8 1643.7,937.2 1633.3,928.1 1624.9,923 1624.5,915.8 1621.2,899.3 1614.4,880.5 
		1607.2,865.5 1596.9,849.9 1588.5,841.4 1579.2,831.9 1567.9,822.8 1560.5,818.5 1547.9,812 1538.4,788.9 1526.7,772.2 
		1518.6,764.1 1508,755.2 1495.1,748.1 1483.5,742.9 1468.1,739.1 1456.9,737.8 1444.3,738.6 1433.6,739.6 1418.8,743.5 
		1385.5,756.7 1240.5,852.4 1226.4,869.6 1210.6,890.9 1202.4,910.6 1199.7,919.8 1198,932.5 1198,948.1 1200,961.5 1203,973.3 
		1209.1,986.4 1217.9,1002.5 1223.7,1015.6 1228.6,1032.4 1231.5,1048.3 1232.5,1068 1232.5,1080.2 1230.7,1092.6 1228.9,1101.8 
		1226.8,1110.9 1222.2,1124.6 1216.4,1137.4 1203.6,1160.1 1216.7,1160.5 1228.6,1162.6 1247.1,1167.4 1285.6,1176.3 1330.4,1188.3 
		1360.5,1196.5 1382.6,1204.7 1405.7,1216.1 1431.5,1232.4 1451.7,1248.1 1471.5,1267.5 1488.2,1286.4 1503.3,1304.4 1596.5,1413.5 
		1598.8,1416.3 	"/>
	<polygon class="st2" points="946.7,982.8 998.8,949.2 1024.8,933.5 1042.7,924 1064,914.2 1237.5,852.1 1364.6,733.3 1377.6,706.6 
		1398.5,667.7 1407.5,649.6 1416.9,635.3 1422.4,616.5 1424.2,595.8 1420.3,573.3 1319.9,287.7 1314.1,278.5 1304.5,268.9 
		1292.3,258.2 1277.7,244.1 1254.6,223.2 1244.1,213.2 1229.1,202.9 1220.3,197 1198.4,187 1234.8,154.8 1258.2,134.7 1268.3,124.2 
		1272.9,113.3 1274.3,105 1273.5,90.9 1267.3,78.6 1258.8,69.6 1246.1,62.7 1236.6,61.5 1227.1,61.5 1218.9,64.5 1212.4,67.7 
		1207.6,70.8 1197.3,78.6 1046.9,202.6 981.2,253.8 963.4,269 951.5,280.9 938.2,294.8 930.6,304.7 918.7,320.9 910.4,334.2 
		901.2,350 891.9,368.2 886.9,379.5 879.2,396.2 868.6,418.5 856,442.2 845.3,461 834.3,480.9 710.5,690.9 825,702.4 861.4,711.7 
		889.5,724.4 904.3,733.1 940.1,859.4 	"/>
	<path class="st3" d="M1076.9,542.2l4.1-20.1l4.8-24.2l2.8-20.1l0.8-16.8l-2-18.9l-2.4-14.6l-4.4-13.1l-8.8-17l-10.4-14.8l-8.4-8.9
		l-9.1-8.1l-8.4-5.7l-21.2-12l6.9,0.3l14.5,3.5l16.2,3.3l24.8,4.1l19.6,1.7l30.2,0.5l26.8-1.7l27.1-4.2l21.2-4.8l21.4-7.2
		c0,0,23.3-8.7,23.9-8.9s13.1-6.5,13.1-6.5l19.7-11.4l15.7-9.6l23.3-17.3l20.4-17.5l18.7-18.6l28.6-31.7l-3.3,11.4l-2.6,15.8
		l-2.7,17.7l-2,17.9l-0.7,24l1.7,29.4l2.9,17.6l3.9,18.1l2.8,11.8l5.3,16.5l6.2,16.4l8.3,16.7l10.6,19.1l10.3,14.5l20.1,24.8
		l19.9,19.9l32.8,26.2l24.6,15.6l38.6,20.6l-24.3-1.7l-41.7-1l-32.3,2.7l-19.2,2.9l-27.8,7.2l-23.3,9.4l-21.5,14.5l-13.9,14.7
		l-9.6,14.8l-7,15.9l-3.5,18.6l-1.1,28L1076.9,542.2L1076.9,542.2z"/>
	<polygon class="st4" points="1133.7,722.3 1309.1,931.5 1319,932.5 1339.1,932 1352.2,929.4 1369.7,924.2 1377.9,920.7 
		1387.8,915.4 1399.4,907.9 1411.7,896.8 1424.2,881.7 1432.1,869.7 1437.3,857.9 1441.7,847.2 1444.3,840.5 1444.3,833.8 
		1441.4,823.9 1431.6,812 1256.6,606.3 	"/>
	<polygon class="st5" points="1038,878.3 1033,883.1 985.1,921.9 971.2,903.9 954.3,881 934.8,851.8 919.4,822.2 912.4,802.6 
		908.6,786.9 906.1,775.4 904.4,753.2 904.4,740.5 906.7,724.8 911.1,707.7 916.9,692.5 923.2,681.7 930.6,670.8 940.9,659.8 
		1152.3,481.9 1157.7,479.6 1170,476.5 1186.9,472.1 1189.3,459.2 1191.2,454.3 1197.1,443.8 1204.7,435 1233,412.4 1252.6,396.8 
		1260.8,398.3 1276.4,406.1 1292.2,415.8 1304.2,425.4 1315,435.1 1328.3,450.4 1336.8,461.8 1346.8,479 1353.1,489.9 1364.5,516.8 
		1368.2,528.9 1365.3,533.2 1317.8,571.9 1311.7,575.2 1301.4,578.6 1293.1,579.9 1286.1,579.5 1273,577.7 1269.7,579.9 
		1262.4,591.3 1256.6,606.3 1175.9,680.9 1133.7,722.3 1099.3,724.2 1099.9,733 1102.2,745.8 1105.7,757.6 1121.3,813 1064.7,857.8 
		1044.3,835.8 1025,811.6 1000.6,777.4 991.7,762.5 981.9,745.1 967.3,719 966,726.7 968.6,744.2 975.1,768.3 981.7,784.8 
		996.1,815.2 1007.2,833.4 1019.9,853.4 	"/>
	<polygon class="st1" points="1444.3,2000 1629.3,1524.4 1632.4,1506.4 1632.4,1482.3 1626.4,1457.3 1615.7,1436.9 1604.6,1423.3 
		1528.1,1333.5 1488.2,1286.4 1471.5,1267.5 1444.3,1242 1421.8,1225.4 1411.3,1218.9 1389.7,1207.1 1365.6,1198.2 1324.1,1186.8 
		1233,1163.8 1223.2,1161.7 1213.6,1160.2 1205.5,1160.2 1198.5,1160.7 1191.8,1161.8 1182.7,1164.2 1172.5,1168.3 1167.1,1171.2 
		1162.4,1174.1 1156.6,1178.5 1151,1183.4 1147.7,1186.8 1143.8,1191.4 1140.5,1195.9 935.7,1488 945.3,1503.2 955.7,1520.8 
		965.5,1537.5 979.3,1564.5 987.9,1583 1001.9,1615.7 1014,1649.1 1019.5,1666.6 1031.5,1712 1038.5,1745.7 1047,1801.3 
		1050.7,1861.3 1049.7,1911.1 1047.5,1942.5 1043.9,1971.5 1039.5,2000 	"/>
</g>
<g id="b">
	<polyline class="st6" points="1338,463.6 1400.6,463.6 1410,470.7 1400.9,477.8 1380.2,477.8 	"/>
	<path class="st6" d="M1334.3,400.4c17.8,16.3,21.7,42.3,11.2,63.2"/>
	<path class="st6" d="M1316.2,573.3c0.1,20.1-7.1,39.8-20.4,55.2l-9.2,10.7l0,0"/>
	<path class="st6" d="M1345.3,474.2c3-0.8,6.2-1.3,9.7-1.5l0,0c23.4-1.5,44.5,14,49.9,36.8l16.9,70.3c4.7,19.7,2.2,40.5-7.2,58.4
		l-3,5.8l-1.5,2.8l0,0c-16.2,27.4-32,57.6-45.5,86.4"/>
	<path class="st6" d="M955.6,358.7l88.2-76.8c49.6-43.2,119.9-53.1,179.5-25.3l0,0c15.3,7.2,29.5,16.6,41.9,28l57.5,52.7
		c17.8,16.3,22.1,42.2,11.6,63l-25.5-23.1l-32.5-29.4c-12.5-11.4-26.6-20.9-41.9-28l0,0c-59.6-27.8-129.9-17.9-179.5,25.3
		l-20.4,17.8l-54.8,54.3"/>
	<path class="st6" d="M1039.5,208.1l168.4-137.7c15-12.3,36.7-12.3,51.7,0.1l0,0c19.5,16,19.9,45.8,0.8,62.3l-61.5,53.3"/>
	<path class="st6" d="M710.5,690.9l126.7-215.8c20.4-34.8,38.7-70.7,55.3-107.5c19.3-42.8,48.1-80.9,84.9-110.6
		c1.5-1.2,3-2.4,4.5-3.6l47.3-36.9c49.6-43.2,119.9-53.1,179.5-25.3l0,0c15.3,7.2,29.5,16.6,41.9,28l57.5,52.7
		c17.6,16.1,22,41.6,12,62.3"/>
	<path class="st6" d="M1007,605.3L1007,605.3c22.7,66.6,56.8,130.8,100.2,189.3l14.4,19.3l-56.7,43.7l0,0
		c-33.6-34.3-62.3-73.4-84.8-115.3l-13.4-24.8c-4.2,67.8,72.1,160.8,72.1,160.8L985.1,922c-21.4-26.8-38.6-51.7-52.4-74.5
		C890.4,777.6,896,696.8,946,655.6L1007,605.3L1007,605.3z"/>
	<path class="st6" d="M1175.9,680.9L1175.9,680.9c-47.5-21.5-88.1,14.4-73.7,65.1l19.3,67.9"/>
	<path class="st6" d="M1154.1,480.4L1007,605.3L1154.1,480.4l49.3-12.2c12.5-3.1,22.4-11.3,27.7-23.1l22.1-48.9"/>
	<path class="st6" d="M1383.3,917.8L1176,680.9l-42.7,41.4l176.3,209.1l0,0c55.2,7.5,108.3-23.8,128.7-75.6l4.5-11.5
		c3.2-8.1,1.7-17.3-4-23.9l-182.2-214.3"/>
	<path class="st6" d="M1345.6,532.8l23.1-2.3c-31.9-111.8-115.5-134.3-115.5-134.3l-47.1,38.4c-10.9,8.9-17.8,22.2-19.4,37.8l0,0"/>
	<path class="st6" d="M1368.7,530.5l-47.5,38.7c-12.8,10.4-30.6,13.3-49,8.1l0,0"/>
	<line class="st6" x1="1345.6" y1="532.8" x2="1283.4" y2="579.5"/>
	<line class="st6" x1="1133.2" y1="722.3" x2="1099.3" y2="724.4"/>
	<path class="st6" d="M1175.9,680.9l80.5-74.8l6.4-15.2c18.1-30.5,47.3-51,82.7-58.2l0,0C1298,431,1243.7,417.1,1243.7,417.1l-54,44
		"/>
	<path class="st6" d="M1498.6,978.1l36.7-75.6c35.2-65,9.9-133.1-44.6-156.8c-26-11.3-55.7-10.5-81.6,1.2l-24.3,10"/>
	<path class="st6" d="M1547.9,812c65.1,29.9,98.6,110,63.2,182.4l-22.2,45.3"/>
	<path class="st6" d="M1664.1,1113.1l8.3-16.9c32.4-66.2,7.4-138.6-47.1-173.3"/>
	<path class="st6" d="M1598.8,1416.3l131.5-255c32.5-66.4,14.2-97.2-41-132l-2.4-1.6"/>
	<path class="st6" d="M1203.5,1160.2l7.3-12.3c28.3-47.4,29.6-106.5,2.4-154.5c-0.5-0.9-1-1.8-1.5-2.6l0,0
		c-21.3-35.8-17.9-81,8.4-113.3l21.7-26.5l-162.5,57.4c-27.1,9.7-53.1,22.5-77.2,38.2l-55.4,36.1"/>
	<path class="st6" d="M1073.2,549l66.1-75.8c11.6-13.3,26.3-23.5,42.9-29.7l23.9-8.9"/>
	<path class="st6" d="M-2.2,1119.2l520.9-379.8c52.2-38.1,116.6-55.7,180.9-49.5L812,700.7c33,3.2,64.7,14.4,92.4,32.6l0,0"/>
	<path class="st6" d="M790.5,1327.1l96.1-102.5c44.1-47.1,67.1-110.1,63.7-174.5l-10.1-190.8"/>
	<path class="st6" d="M935.7,1488l205.2-292.7c19.7-28.1,54.7-41.1,87.9-32.7l116.3,29.5c51.4,13,97.5,41.7,132,82l130.4,152.5
		c25.1,29.4,32.1,70.2,18.1,106.3L1444.3,2000"/>
	<path class="st6" d="M0,1259.7c102.2-57.7,220.2-90.5,345.9-90.5c389.3,0,704.9,315.6,704.9,704.9c0,43-3.8,85.1-11.2,125.9"/>
	<path class="st6" d="M1338,701.7c-10.2-163.9,227.7-124.8,227.7-124.8C1305.9,456,1387,220.4,1387,220.4
		c-172.4,213.6-370.1,119.4-375,126.9c0,0,96.2,33,74.2,147.5l-9.4,50.2"/>
</g>
</svg>
