<?xml version="1.0" encoding="UTF-8"?><svg id="b" xmlns="http://www.w3.org/2000/svg" viewBox="0 0 1000 1000"><defs><style>.c{fill:#fff;}.c,.d{stroke:#211915;stroke-linecap:round;stroke-linejoin:round;}.d{fill:none;}.e{fill:#0085ff;}.f{fill:#ebeeea;}.g{fill:#e4d4d2;}.h{fill:#f2a0b5;}.i{fill:#2bc670;}</style></defs><polygon class="f" points="0 0 0 688.59 1000 691.7 1000 0 0 0"/><polygon class="e" points="280.24 433.57 269.87 437.03 259.5 440.93 250.32 444.26 237.55 449.84 225.98 455.83 214.55 462.74 202.31 471.38 193.25 478.1 181.18 489 170.57 500.59 166.1 507.2 162.59 511.88 156.95 523.36 154.12 532.12 152.47 541.08 152.01 548.38 153.15 560.16 155.97 569.79 159.28 577.1 164.98 585.96 170.5 593.29 181.88 604.5 192.58 612.95 205.68 621.06 225.42 631.35 249.03 641.01 262.09 645.59 275 649.65 287.6 652.92 307.81 657.72 327.33 661.36 360.3 665.9 385.51 668.27 422.77 670.35 459.93 670.35 501.18 668.67 532.21 666.14 558.19 662.65 581.16 659.41 614.11 653.15 638.89 647.62 668.72 639.32 696.98 629.82 716.46 622.36 737.39 613.34 756.99 603.24 770.7 595.42 787.3 584.24 801.37 572.81 809.93 565.39 818.65 555.87 824.97 547.42 829.91 539.13 833.46 531.76 836.15 523.11 838 515.03 838.53 508.36 838.17 500 837.49 494.97 835.45 487.11 831.67 478.19 829.25 473.88 824.57 467 818.98 460.05 812.91 453.9 803.65 445.74 794.06 439.01 784.16 433.07 769.78 425.34 754.75 419.11 741.52 414.48 727.04 410.96 701.58 406.53 692.54 404.5 678.12 404.63 435.97 412.25 418.02 411.84 280.24 433.57"/><path class="i" d="m653.66,315.4l-2.38.77-7.06,3.57-7.91,5.96-6.55,6.3-5.11,6.3-3.4,5.53-4.25,7.91-3.66,9.27-2.58,9.2-5.83-1.51-7.18-2.7-4.59-2.24-9.02-3.16-6.38-1.12-6.55.55-8.5,3.21-3.87,1.58-4.02,1.12-4.28.05h-4.43l-6.73-.71-10.75,50.55-1.47.96-4.59.32-3.47-1.46-3.68-3.38-5.43-7.41-4.34-6.29-3.52-3.47-5.15-2.98-7.59-.81-6.8.87,4.56-36.88v-2.84l-1.11-2.33-4.86-.71h-8.1l-15.9,2.13-13.27,2.53-4.56,33.56-29.12-9.79-3.41.07-4.57.65-7.4,1.74-6.61,2.54-6.31,3.34-5.95,3.7-5.6,5.15-4.85,5.08-4.79,5.48-4.59,7.1-7.17,13.75-.21,10.25h-.05s1.57-61.61,1.57-61.61l-5.35,4.95-2.76,1.8-2.81,1.35-2.36.79-2.53-.67-2.43-1.74-5.16-4.56-5.81-5.63-5.16-4.02-4.92-2.52-3.55-.3h-1.9l-2.52.78-3,1.68-3.78,3.78-4.89,4.94-5.78,4.1-4.22,1.43-3.35.43-2.73-.06-3.97-1.43-2.94-2.02-3.92-2.78,20.87,73.06,6.46,4.59,18.81,9.15-4.09,7.77-3.61,8.72-4.32,13.63-3.02,11.54-2.26,13.06-1.28,7.33,68.8,17.96,11.62,3.35,4.78.93-4.58-17.7-1.11-5.83-.72-6.12-.77-5.11-.09-6.45v-5.03l.89-5.58.84-2.9,2.59-5.01,3.43-3.1,4.03-1.48,5.49-.09,3.63,1.06,23.42,2.25,29.94,1.35,17.03.07,19.68-.73,28.9-2.1,18.18-2.13,17.2-2.51,19.21-3.34,15.05-3.39,13.8-3.54,23.56-7.23,11.13-4.19,12.54-5.29,7.28-3.47,10.42-5.79,9.01-5.54,5.13-4.4,2.27-11.99,3.2-12.99,1.9-6.09,4.06-11.61,4.82-10.78,4.01-6.55,5.31-7.34,3.62-3.93,5.96-5.01,7.49-3.87,6.85-2.22,5.27-.51-73.38-34.86Zm-235.47,96.45l3.33-2.86,7.59-5.98,4.7-2.79,3.65-2.04.46-.26-1.95,14.35-17.78-.4Z"/><polygon class="g" points="0 688.59 1000 691.7 1000 1000 0 1000 0 688.59"/><polygon class="h" points="0 915.48 8.34 912.8 19.47 909.28 33.79 904.96 45.15 901.55 60.61 897.24 75.38 893.03 95.02 887.71 112.66 883.37 129.88 879.03 144.63 876 158.23 872.81 173.27 869.78 186.58 866.74 200.18 864.28 212.77 861.82 222.31 860.23 233.31 858.35 245.75 856.47 260.79 854.01 273.06 851.95 295.19 849.22 306.4 847.55 319.22 846.48 330.33 845.37 341.75 844.09 377.93 840.81 395.18 839.69 428.16 838.26 459.39 836.9 469.86 836.9 503.56 836.74 551.16 837.62 600.92 840.33 632.55 842.73 661.7 845.76 689 848.58 716.71 852.3 747.95 857.2 782.24 862.94 818.39 870.04 844.74 875.78 869.06 881.52 888.32 886.25 925.14 896.05 945.08 901.96 966.5 908.4 1000 919.17 1000 1000 0 1000 0 915.48"/><line class="d" x1="690.35" y1="690.74" x2="1000" y2="691.7"/><line class="d" y1="688.59" x2="690.35" y2="690.74"/><path class="d" d="m0,915.48l11.52-3.67c317.6-101.28,659-100.14,975.91,3.26l12.57,4.1"/><line class="d" y1="803.15" x2="1000" y2="808.2"/><line class="d" x1="207.18" y1="689.23" x2="131.03" y2="803.15"/><path class="d" d="m0,945.51l10.57-3.37c317.6-101.28,659-100.14,975.91,3.26l13.52,4.41"/><line class="d" x1="196.35" y1="475.14" x2="196.35" y2="69.4"/><line class="d" x1="167.3" y1="591.5" x2="84.34" y2="688.85"/><line class="d" x1="809.93" y1="564.9" x2="916.08" y2="691.44"/><path class="d" d="m83.02,688.85V255.78c0-115.89,93.95-209.84,209.84-209.84h414.28c115.89,0,209.84,93.95,209.84,209.84v435.66"/><line class="d" x1="803.65" y1="446.08" x2="803.65" y2="69.41"/><path class="d" d="m692.51,404.82l-.03.15c-1.14,6.86-4.05,13.01-8.73,18.17-43.35,47.74-181.65,74.26-291.68,60.05"/><path class="d" d="m310.41,462.29c-13.22-5.84-24.88-12.8-34.49-20.94-1.04-.88-2.08-1.74-3.17-2.55l-2.34-1.76-2.83.91c-23.41,7.55-45.6,18.6-65.41,33.19-33.57,24.74-52.09,52.71-50.01,81.16,5.7,77.96,163.93,129.94,353.41,116.09,189.49-13.85,338.48-88.27,332.78-166.23-1.9-26.07-20.8-49.23-52.23-68-20.73-12.38-43.67-20.63-67.45-24.86l-24.8-4.41c-.9-.16-1.82-.24-2.74-.24l-12.47-.03"/><path class="d" d="m464.06,524.19s89.06,140.19,137.32,0"/><path class="d" d="m467.33,550.91s89.06,140.19,137.32,0"/><path class="d" d="m672.26,433.64s10.2-82.56,55.1-83.32l-73.82-35.01s-57.06,17.55-43.86,110.36"/><path class="d" d="m414.22,485.38c-7.78-27.18-100.82-111.91-122.26,38.81l85.16,22.3s-24.03-75.14,14.96-63.3"/><path class="d" d="m285.27,448.45l-21.02-73.98s7.93,11.63,21.02,5.36,14.48-22.97,31.18-11.83c16.7,11.14,16.03,25.46,34.11,6.47l-1.86,62.57"/><polyline class="d" points="397.1 460.95 456.69 407.19 497.33 455.59 452.23 486.82"/><path class="d" d="m517.73,483.15s19.93-47.92,22.99-83.98c0,0,12.22,10.39,24.45,4.28,12.22-6.11,24.82-24.48,39.48-15.92,0,0-9.13,67.57-23.39,84.53"/><path class="d" d="m465.72,417.95s2.79-28.29,26.42-26.58c23.64,1.71,17.54,41.12,47.23,18.64"/><line class="d" x1="599.44" y1="417.95" x2="641.12" y2="451.95"/><path class="d" d="m348.99,427.23s16.8-48.84,62.02-49.43l39.87,13.5s-58.92,22.23-49.62,65.9"/><line class="d" x1="434.48" y1="427.23" x2="437.46" y2="398.17"/><path class="d" d="m439.47,387.43c.35.12,4.28-33.37,4.28-33.37,0,0,68.85-14.93,33.39,8.02l-5.38,39.14"/><line class="d" x1="487.29" y1="353.13" x2="482.22" y2="392.66"/><line class="d" x1="418.02" y1="412.25" x2="436.02" y2="412.25"/><path class="d" d="m610.75,370.2s-6.52-1.21-16.87-5.93c-10.34-4.72-18.2-6.37-26.47-3.06-8.27,3.31-10.56,6.53-28.03,3.68l-10.86,51.3"/><line class="c" x1="270.42" y1="437.03" x2="281.04" y2="433.57"/><polyline class="d" points="483.82 459.63 483.82 459.63 444.17 486.75"/><line class="d" x1="459.02" y1="421.24" x2="488.4" y2="453.78"/><polyline class="d" points="399.94 463.83 450.88 421.24 450.88 421.24"/><circle class="d" cx="447.22" cy="454" r="7.14"/><path class="d" d="m361.92,528.4h0s-6.68-46.6,11.93-50.72"/><line class="d" x1="302.22" y1="518.36" x2="353.08" y2="531.42"/><circle class="d" cx="335.21" cy="493.95" r="7.14"/><line class="d" x1="274.43" y1="394.72" x2="291.95" y2="452.76"/><path class="d" d="m340.4,390.86c-2.19.83-5.52,2.08-9.85,3.72-8.34,3.16-15.53-11.22-23.15-14.38s-12.52,5.46-17.41,11.09c-3,3.45-8.82,1.85-12.87.09"/><line class="d" x1="343.49" y1="437.03" x2="343.49" y2="392.69"/><path class="d" d="m353.08,437.03s15.01-51.47,53.13-53.05"/><line class="d" x1="412.99" y1="385.3" x2="432.22" y2="391.3"/><path class="d" d="m422.61,397.14c-.4.26-34.37,22.21-29.37,55.61"/><path class="d" d="m302.84,508.94s18.89-100.66,80.8-49.31"/><circle class="d" cx="306.37" cy="412.25" r="7.14"/><circle class="d" cx="395.89" cy="402.69" r="7.14"/><path class="d" d="m478.56,402.69s11.73-8.79,21.37,0c9.64,8.79,5.45,28.75,19.69,24.54,14.24-4.22,12.36-4.01,12.36-4.01"/><path class="d" d="m527.15,434.95s-8.59,34.35-17.39,44.4"/><path class="d" d="m487.45,443.11c.7-3.2,3.56-5.6,6.97-5.6,3.94,0,7.14,3.2,7.14,7.14s-3.2,7.14-7.14,7.14"/><path class="d" d="m545.41,414.62s20.41,8.97,28.72-1.33c8.31-10.3,16.61-12.65,19.94-12.07"/><path class="d" d="m547.07,427.23s-11.05,43.64-15.02,47.91"/><path class="d" d="m592.88,410.25s-4.03,23.18-7.83,32.29"/><circle class="d" cx="566.06" cy="440.77" r="7.14"/><path class="d" d="m616.34,401.23c0-1.27,0-59.82,35.55-74.11"/><line class="d" x1="661.29" y1="331.65" x2="699.28" y2="346.98"/><path class="d" d="m692.54,354.06s-35.43,39.56-27.76,73.74"/><circle class="d" cx="648.26" cy="371.31" r="7.14"/><line class="d" x1="604.65" y1="432.35" x2="626.75" y2="447.91"/><path class="d" d="m548.92,375.09s11.13,2.39,18.78-3.23c7.66-5.62,24.04,1.01,28.47,3.74"/><line class="d" x1="547.36" y1="381.43" x2="544.27" y2="395.41"/><path class="d" d="m449.18,359.47s40.44-8.3,31.77,0"/><line class="d" x1="446.19" y1="393.32" x2="444.12" y2="412.7"/><line class="d" x1="448.63" y1="370.41" x2="446.57" y2="389.69"/><line class="d" x1="414.22" y1="419.19" x2="432.22" y2="419.19"/><line class="d" x1="513.52" y1="409.81" x2="529.97" y2="409.29"/><line class="d" x1="349.12" y1="422.71" x2="350.97" y2="422.42"/></svg>