<svg viewBox="0 0 3000 3000" xmlns="http://www.w3.org/2000/svg"><path d="m0 0h3000v3000h-3000z" fill="#e6bcfe"/><path d="m1786.7 554.97 51.67-13.92 38.76 1.28 37.09 6.76 23.55 18.31 28.77 32.7 11.12 24.85 8.23 33.91.77 36.06-16.2 41.85-189.78-161.52z" fill="#ffde12"/><path d="m792.62 1979.08-30.5 64.6 10.69 86.6 23.29 341.51 221.1 1.77 17.43-192.59-165.85-257.22z" fill="#fff"/><path d="m1900.12 2105.82 311.22 291.68 195.83-187.71-380.05-355.18z" fill="#fff"/><path d="m1279.43 2120.77-21.43 171.32-432.99-25.78 34-209.44-41.51-155.79 69.48-492.84 20.48-101.42 26.52-74 28.36-59.2 20.35-24.67 115.94 24.67 98.05 20.35 117.17 20.86 14.8 2.58-9.11 49.07-7.06 49.78-8.62 55.26-13.72 60.76-27.09 118.48-16.17 73.2-29.59 99.34-34.52 100.29-36.17 90.42-31.24 60.83-32.13 39.46 80.99 50.26 61.36 29.57z" fill="#ffde12"/><path d="m714.57 790.04-29.72 61.54-12.98 45.63-9.63 36.42-.83 18.42 147.66 140.96 47.78 15.61 142.07 43.79 99.71 21.21 98.05 20.35 131.97 23.44-2.51 38.63-17.47 84.66-19.59 96.23-19.59 88.29-35.66 142.54-29.2 101.91-30.6 89.13-27.43 55.21-31.24 60.83-32.13 39.46 39.91 28.22 72.01 40.5 84.28 37.75 54.95 10.22 42.07 1.53 24.22-5.51-10.03 46.34-21.15 106.95-22.92 119.29-12.19 152.21 9.25 65.23 20.57 32.91 8.23 3.94 546.3-57.57-23.35-77.83-29.35-115.38-22.95-99.06-17.97-106.91-5.49-91.8 1.72-75.49 3.02-67.65 12.94-126.82 15.49-90.04 11.77-55.33v-61.67l-42.13-186.48-91.69-229.53-27.84-61.97 73.98-34.59 89.78-50.51 48.61-37.24 43.63-39.57 13.36-25.24 22.78-46.2 12.65-45.94-6.98-39.76-11.78-52.08-18.6-34.72-22.9-44.86-46.61-60.64-81.07-63.48-115.47-51.75z" fill="#ff5723"/><path d="m1706.08 570.67c5.71-19.2 8.8-39.53 8.8-60.58 0-117.1-94.93-212.03-212.03-212.03-46.6 0-89.68 15.04-124.67 40.52-38.85-43.98-95.66-71.72-158.95-71.72-117.1 0-212.03 94.93-212.03 212.03 0 8.64.53 17.16 1.53 25.53-30.02-16.28-64.4-25.53-100.95-25.53-117.1 0-212.03 94.93-212.03 212.03s94.93 212.03 212.03 212.03c49.57 0 95.16-17.01 131.27-45.51 22.89 92.38 106.34 160.87 205.8 160.87 22.69 0 44.55-3.56 65.04-10.16 10.47-3.37 5.29-21.28 14.98-26.17 10.34-5.21 13.11-24.84 23.79-30.35 10.2-5.26 20.73-13.49 33.92-18.28 11.88-4.32 26.51-5.2 34.93-9.88 12.17-6.77 12.63-13.06 18.83-26.07 37.57 33.81 87.28 54.4 141.8 54.4 117.1 0 212.03-94.93 212.03-212.03 0-69.04-33.01-130.37-84.1-169.09z" fill="#fff"/><path d="m1822.76 2120.77 67.87-15.67 74.54-21.21 75.15-31.51 20.61-20-6.06-30.91-39.31-191.26-39.12-186.77-26.69-123.44-26.78-122.57 284.82 81.87 56.44-183.34v-10.53l-294.38-78.57 357.92-88.19-45-196.54-323.87 86.31-28.2 26.49-39.31 33.32-54.69 37.6-59.82 29.91-72.6 39.82 26.46 56.74 76.37 182.42 18.04 53.39 41.11 212.83-13.47 84.37-18.55 107.84-9.04 61.64-2.77 79.64v83.73z" fill="#ffde12"/><path d="m2261.82 1292.44 47.31-10.45 64.86-6.03 9.02 14.38-5.81 12.2-35.96 14.45 78.34 6.1 5.78 16.05-4.5 12.2-72.56-3.21-4.71 10.28 81.77 19.02 3.85 14.37-3.85 16.05h-26.33l-60.36-12.84 6.85 7.78 48.37 23.68 3.86 16.05-4.5 9.64h-12.49l-62.64-25.05-7.7 7.07 17.35 10.08 17.75 7.9v8.32l-1.71 14.15-12.85 3.21-11.55-3.21-53.94-28.9-41.12-38.03z" fill="#fff"/><path d="m2288.72 916.5 39.05-50.68 36.95-30.08 14.65 2.77 3.95 9.1-11.48 28.19h8.26l44.39-30.56 14.64 2.37 7.52 7.92-4.75 9.1-52.24 43.15 3.56 7.12 71.64-27.7 12.67-.4 6.73 9.5-3.96 13.46-58.98 32.04.4 6.75 50.66-6.75 11.88 4.77v16.39l-10.29 6.17-62.54 17.81 3.16 8.31 26.13-1.18 17.81 1.18 5.14 9.11-5.14 12.66-14.65 6.73-65.31 11.09-34.83-2.78-29.04 7.37z" fill="#fff"/><path d="m1034.51 1933.49 6.68 85.5-6.68 22.85-17.31 5.58-14.38-6.09-7.45-12.6-3.04-39.16-7.84-7.24-12.05 4.01-57.64 61.08-23.15-3.74-3.65-9.11h-9.16l-10.05 7.9-15.74-1.98-7.64-10.62-11.78 3.41-12.95-5.13-4.44-9.16v-11.71l-15.03-13.49v-13.17l22.34-69.88 205.04 15.15z" fill="#fff"/><path d="m817.5 1871.22-61.54-15.11-26.91 24.28-47.54 49.97-2.71 15.42 10.35 8.85h5.53l23.97-14.84v14.84l-29.31 45.19 5.34 8.29 6.3 8.59 8.59-2.29 37.62-49.52 10.49-6.04-23.25 75.72v12.85l8 7.37h8.6l41.59-75.71.85 20.74-8.58 43.86 7.35 11.11h5.07 9.9l7-11.11 6.47-15.53-9.52-17.18-3.65-8.02-11.51-17.02 7.04-18.96 17.64-55.16-4.44-3.56z" fill="#fff"/><path d="m1819.75 596.02 28.69-32.53 21.46-3.23 9.58 11.98v8.48h13.71l14.98 11.34-1.1 10.9 11.66 10.26 9.15 14.52 1.64 12.93 7.77 7.88 10.14 16.85-28.7 38.04-17.91-1.5-10.78-12.26 4.14-17.84-14.7-5.52-5.91-7.46-1.44-18.19-9.17-5.5-8.82-8.92-3.35-11.4-16.07 2.48-14.97-7.47z" fill="#fff"/><path d="m1831.25 1509.39-16.85-35.65 14.73-12.97h16.39l33.32 53.17 7.13 16.55-4.13 11.29 13.65 13.14.94 14.63-7.65 13.35 4.17 12.34 2.54 14.58-14.8 13.62 5.28 10.68v14.48l-15.23 8.44-35.41 2.77-11.11-9.02-1.79-17.36 13.59-7.64-4.64-11.63v-17.41l11.58-10.72-7.63-9.53-3.8-10.74 5.88-15-14.98-5.27v-22.36l6.7-6.22z" fill="#fff"/><path d="m506.03 527.44-22.16-14.62-36.76-12.72-57.98-35.35-6.12-15.09 7.07-8.95 13.19-4.71 24.04 16.49 11.79-.47.94-5.65-26.22-20.54-30.81-22.23-4.03-17.57 12.98-7.54 22.16 8.49 38.02 25.32-5.97-13.07-44.78-48.08 1.41-13.66 10.84-8.02 8.49 3.77 60.8 52.79 5.66-4.24-32.05-55.62-2.83-13.66 10.84-6.6h11.95l40.37 54.67-2.36-28.28 6.13-10.37 11.78.47 11.79 7.07 26.39 57.98 10.92 38.38-72.19 107.73z" fill="#fff"/><path d="m632.3 1078.43 13.9-42.96 5.7-41.72 17.48-49.02 10.26-7.6h11.78l4.32 9.22-2.42 20.8-4.14 18.62 8.7 3.04 26.98-63.46 9.57-6.04 14.75 3.38 3.42 9.88-15.66 53.58 5.02 1.9 39.14-58.14 15.07-.39 6.97 9.51-3.8 14.82-31.92 64.45 4.18 4.71 49.02-48.26 10.64-.76 7.22 8.36v14.48l-33.34 43.28 2.56 3.42 19.76-7.22 11.02 6.46 3.65 9.12-24.9 26.54-31.95 26.66-37.62 18.56-115.36-39.42z" fill="#fff"/><path d="m825.01 1103.62-181.16 793.76 63.28 5.57 21.92-22.56 26.91-24.28 61.54 15.11 78.21-506.23 13.83-73.86 20.01-59.26 29.96-52.33 23.18-30.59-34.44-12.37-114.54-35.03z" fill="#ffde12"/><path d="m601.85 1074-47.95 78.4-35.88 58.48-11.61 41.79 4.94 55.37s13.34 36.2 16.19 36.2 37.15 31.44 37.15 31.44l23.82 12.38 27.63 7.62 32.39 1.08 29.53-10.6 40.96-16.19 53.05-34.36 52.95-231.99-19.87-13.23-19.86 14.7-37.62 18.56-145.81-49.64z" fill="#ffde12"/><path d="m694.96 742.75-216.72-165.22 114.73-163.03 167.72 117.54-17.62 24.7-20.95 21.89-19.19 49.67-5.24 51.49.87 48.86z" fill="#ffde12"/><path d="m1034.63 2280.97-25.25 311.99 314.18 12.65 36.08-472.23-80.21-12.61-18.14 171.32z" fill="#fff"/><path d="m1870.54 2112.47 27.85 348.97-17.42 1.53-14.56-50.06-14.97-69.17-17.03-82.6-9.3-64.01-5.16-64.01 2.81-12.35z" fill="#fff"/><path d="m1296.05 2605.61.8 106.42-130.28.8-4.61-20.06-23.31 20.06-216.71-.8-5.98-40.45v-21.72l5.98-7.15 16.01-2.53 62.46.7 29.89-3.37 17.56-4.66 17.1-18.14 8.02-19.19z" fill="#ff5723"/><path d="m1500.72 2640.36v57.45l129.48 3.43 3.99-20.06 28.82 24.39 12.2-4.33 200.19-.37 4.97-27.9 2.27-26.43-2.85-12.35-13.29-3.32-92.98-3.92-25.73-6.53-6.18-5.45z" fill="#ff5723"/><path d="m1887.49 2487.47 28.07 85.82 104.53-.37 7.97-42.54-2.58-22.95-5.95-3.88-38.51-2.91-62.29-1.92z" fill="#ff5723"/><path d="m2235.68 2375.89 52.76 91.7 112.45-65.1-5.59-18.49 29.91 6.05 13.07-8.81 177.41-99.88-15.7-41.41-9.49-14.87-12.39-3.3-19.41 8.26-41.3 23.54-31.98 14.92-17.99 4.07-22.09-4.07-10.95-7.08-14.12 7.08-33.37-36.03z" fill="#ff5723"/><path d="m1007.19 2580.03-54.24.75-4.62-20.28-23.3 21.95-217.27-2.42-7.98-46.23 3.7-17.1 4.84-8.76h18.94l89.41-2.48 19.46-6.7 15.43-17.52 4.47-7.68h161.17z" fill="#ff5723"/><path d="m1007.19 2580.03-4.05 21.02h-48.82l-1.37-20.27z" fill="#fff"/><path d="m707.76 2580.03 3.74 21.02 192.11.47 21.42-19.07z" fill="#fff"/><path d="m1296.85 2712.03v23.54h-128.14l-2.14-22.74z" fill="#fff"/><path d="m1138.65 2712.83-20.51 19.38-193.11 1.4-3.09-21.58z" fill="#fff"/><path d="m1502.67 2700.87v19.43l123.89 2.15 3.64-21.21z" fill="#fff"/><path d="m1661.75 2701.67 17.32 20.78h192.54l3.79-21.58z" fill="#fff"/><path d="m1911.74 2571.23 8.26 22.72 94.57-.68 7.8-22.04z" fill="#fff"/><path d="m2288.44 2467.59 10.89 16.48 111.88-63.19-10.32-18.39z" fill="#fff"/><path d="m2425.21 2390.05 31.13 7.45 166.57-97.33-7.22-18.81z" fill="#fff"/><g stroke="#000" stroke-linecap="round" stroke-linejoin="round" stroke-width="10"><path d="m1308.11 1007.95c-10.21 3.19-20.79 5.64-31.69 7.29-115.41 17.44-223.11-61.99-240.55-177.4s61.99-223.11 177.4-240.55 223.11 61.99 240.55 177.4c8.24 54.55-5.15 107.37-33.76 149.76" fill="none"/><path d="m1038.42 854.16c-28.1 22.53-62.34 38.18-100.51 43.95-115.41 17.44-223.11-61.99-240.55-177.4s61.99-223.11 177.4-240.55c109.93-16.61 212.85 54.65 237.46 161.19" fill="none"/><path d="m1389.05 650.92c28.94-61.92 87.34-108.67 159.99-119.64 115.41-17.44 223.11 61.99 240.55 177.4s-61.99 223.11-177.4 240.55c-66.09 9.99-129.65-11.79-175.18-53.9" fill="none"/><path d="m1313.77 605.97c-9.66-19.32-16.49-40.46-19.89-62.97-17.44-115.41 61.99-223.11 177.4-240.55s223.11 61.99 240.55 177.4c4.7 31.1 2.36 61.64-5.81 90.01" fill="none"/><path d="m1827.23 582.77c-61.04-39.7-113.71-53.9-113.71-53.9" fill="none"/><path d="m1704.28 1150.35c156.87-66.67 339.91-172.19 291.94-344.08-13.47-48.29-34.89-88.81-60.07-122.62" fill="none"/><path d="m805.14 1090.39c57.52 23.7 127.69 44.16 202.05 62.02 106.9 25.67 265.82 64.83 406.16 67.72l14.19.17" fill="none"/><path d="m717 783.17s-56.26 98.72-55.65 171.4l.83 8.38" fill="none"/><path d="m1523.1 977.17s116.81-73.32 191.12 40.47-110.4 230.08-156 234.65c-45.61 4.56-130.68-31.99-130.68-31.99s-61.2-2.39-113.31-75.19c-26.26-36.68-18.53-91.38-4.4-136.64 22.49-72.04 106.59-104.94 171.47-66.41 24.79 14.72 49.32 38.38 70.08 75.58 77.53 138.87 6.84 234.65 6.84 234.65" fill="none"/><path d="m860.46 2047.97-35.45 216.41 435.16 27.71 19.26-175.15" fill="none"/><path d="m1703.05 1155.58s73.65 149.04 122.2 294.66l3.88 10.54" fill="none"/><path d="m1427.53 1220.3s19.78 3.3 28.68 112.71 106.23 280.09 46.63 437.65c-59.61 157.55-247.57 852.59-131.21 883.22l547.09-59.93s-99.67-314.59-99.11-473.17c1.03-292.88 32.95-341.38 46.19-455.26.23-2.01.43-4.06.59-6.15" fill="none"/><path d="m1331.24 1214.83s-105.8 656.2-248.02 801.08c0 0 219.58 149.71 317.44 111.1" fill="none"/><path d="m825.01 1098.26-181.16 801.85 63.28 2.84" fill="none"/><path d="m1033.47 2277.66-26.28 315.21 314.89 12.74 37.56-472.23" fill="none"/><path d="m1953.07 990.23 328.94-89.72 45.76 197.75-364.88 88.6" fill="none"/><path d="m1748.19 1130.87 519 135.34-58.82 194.27-351.58-102.31" fill="none"/><path d="m1922.97 1377.43s135.5 615.75 135.5 654.2-238.85 89.15-238.85 89.15" fill="none"/><path d="m725.74 1274.25 57.34-139.03-181.02-61.22-77.42 125.99c-23.61 38.43-25.47 86.39-4.89 126.53 34.16 66.63 117.64 90.33 181.71 51.61l69.84-42.21" fill="none"/><path d="m766.11 2034.57 30.06 438.25h221.03" fill="none"/><path d="m1500.25 2639.79.63 82.66 127.94-.5 5.87-39.29 44.51 39.29h192.44s9.68-54.39 9.68-54.39c4.27-15.6 2.73-37.23-13.44-38.05-35.09-1.78-93.46-.42-109.69-4.48-7.58-1.9-11.99-4.8-17.08-10.59" fill="none"/><path d="m1500.72 2700.87 129.48.75" fill="none"/><path d="m1658.12 2701.67 216.71-.75" fill="none"/><path d="m1296.85 2607.54-.96 126.07-127.94-.5-5.87-39.29-44.51 39.29h-192.44s-9.68-54.39-9.68-54.39c-4.27-15.6-2.73-37.23 13.44-38.05 35.09-1.78 93.46-.42 109.69-4.48 12.36-3.09 21.65-14.66 27.08-23.94l4.01-6.64" fill="none"/><path d="m1296.05 2712.03-129.48.75" fill="none"/><path d="m1138.65 2712.83-216.71-.75" fill="none"/><path d="m2025.04 1853.17 382.13 357.98-195.22 187.53-313.56-296.81" fill="none"/><path d="m2235.68 2375.09 62.94 109.24 111.09-63.47-14.25-37.09 58.09 12.26 167.47-94.81-18.38-52.1c-3.97-15.68-15.97-33.75-30.44-26.5-31.42 15.74-81.54 45.68-97.66 50.14-12.28 3.4-26.06-2.09-35.36-7.49l-6.76-3.8-196.75 113.62z" fill="none"/><path d="m2287.85 2465.63 113.04-63.14" fill="none"/><path d="m2425.21 2388.78 188.22-107.42" fill="none"/><path d="m1868.69 2109.4 29.45 353.11-11.38.46" fill="none"/><path d="m1918.73 2593.95h97.62s9.68-54.39 9.68-54.39c4.27-15.6 2.73-37.23-13.44-38.05-25-1.27-61.82-.94-86.8-2.12-13.64-.64-26.85-4.92-38.3-12.35" fill="none"/><path d="m1912.37 2573.29 107.16-.37" fill="none"/><path d="m2384.98 2232.47 35.29 36.03" fill="none"/><path d="m1128.65 1350.06-84.2 580.3-228.2-23 78.53-543.34c10.12-78.91 40.45-153.87 88.07-217.6" fill="none"/><path d="m1070.85 2601.52-116.52-.45-5.87-39.29-44.51 39.29h-192.44s-9.68-54.39-9.68-54.39c-4.27-15.6-2.73-37.23 13.44-38.05 35.09-1.78 93.46-.42 109.69-4.48 12.36-3.09 21.65-14.66 27.08-23.94l4.01-6.64" fill="none"/><path d="m1006.01 2580.43-53.06.3" fill="none"/><path d="m925.03 2580.78-216.71-.75" fill="none"/><path d="m1034.51 1933.49 7.58 89.44c.97 11.43-6.75 21.79-17.98 24.12-13.02 2.71-25.56-6.31-27.14-19.51l-4.4-36.74c-.92-7.68-10.34-10.86-15.73-5.31l-56.25 57.95c-4.54 4.68-11.28 6.51-17.57 4.76-12.33-3.43-21.07-18.29-13.05-28.26" fill="none"/><path d="m632.3 1078.43s7.11-12.98 8.62-22.42 6.3-45.43 6.3-45.43l19.63-62.52c2.7-8.58 11.41-13.44 19.46-10.85 8.05 2.59 12.39 11.65 9.7 20.23l-7.78 24.77c-1.52 4.85 2.67 9.56 7.66 8.62 2.27-.43 4.15-1.99 5-4.13l22.75-57.49c3.31-8.37 12.35-12.58 20.19-9.41 7.84 3.17 11.52 12.52 8.2 20.88l-22.85 57.74c-.69 1.73.23 3.68 2 4.26 1.39.46 2.91-.07 3.71-1.29l6.63-10.06 35.28-55.22c4.84-7.58 14.52-10 21.62-5.39 7.09 4.6 8.92 14.48 4.08 22.06l-36.9 62.51c-1.23 2.08-.98 4.72.63 6.54 2.2 2.49 6.07 2.52 8.3.07l41.54-44.21c5.28-5.62 13.99-6.22 19.99-1.38 6.6 5.32 7.37 15.1 1.67 21.39l-54.84 60.45" fill="none"/><path d="m782.93 1058.15 32.18-17.99c1.3-.69 2.56-1.45 3.81-2.23 6.95-4.37 15.84-2.8 20.45 3.86 4.91 7.09 3.13 17.25-3.98 22.71l-51.75 39.73-33.42 19.42" fill="none"/><path d="m2314.7 1039.43s13.82-5.3 23.38-5.52 45.87-.11 45.87-.11l64.59-11.02c8.87-1.51 14.86-9.49 13.38-17.82-1.48-8.33-9.87-13.85-18.74-12.34l-25.59 4.36c-5.01.85-9.12-3.94-7.51-8.76.73-2.19 2.53-3.85 4.77-4.4l60.03-14.78c8.74-2.15 14.13-10.54 12.05-18.74-2.08-8.2-10.85-13.1-19.59-10.95l-60.29 14.85c-1.81.45-3.62-.72-3.96-2.56-.26-1.44.47-2.87 1.78-3.5l10.87-5.22 59.48-27.5c8.17-3.78 11.86-13.04 8.26-20.69-3.6-7.65-13.15-10.79-21.31-7.02l-66.92 28.12c-2.23.94-4.81.33-6.39-1.5-2.17-2.51-1.68-6.35 1.05-8.24l49.41-35.2c6.28-4.47 8.05-13.03 4.07-19.62-4.38-7.26-13.97-9.34-20.96-4.54l-67.3 46.17" fill="none"/><path d="m2355.13 892.92 22.17-29.45c.86-1.2 1.78-2.34 2.72-3.47 5.27-6.3 4.91-15.31-1.06-20.79-6.36-5.82-16.67-5.43-23.04.87l-46.35 45.91-23.75 30.49" fill="none"/><path d="m2224.72 1412.3s-2.46-1.13 5.17 4.63 36.02 28.39 36.02 28.39l57.48 31.47c7.89 4.32 17.54 1.79 21.55-5.66 4.01-7.45.86-16.99-7.03-21.31l-22.77-12.47c-4.45-2.44-4.7-8.75-.45-11.52 1.93-1.26 4.37-1.44 6.47-.49l56.24 25.68c8.18 3.74 17.62.51 21.08-7.21 3.46-7.72-.37-17-8.56-20.74l-56.48-25.79c-1.69-.77-2.39-2.82-1.51-4.46.68-1.29 2.15-1.96 3.57-1.64l11.76 2.66 63.7 15.37c8.75 2.11 17.4-2.86 19.32-11.09 1.93-8.24-3.6-16.62-12.35-18.73l-69.92-19.5c-2.33-.65-3.98-2.73-4.08-5.15-.14-3.32 2.63-6.02 5.94-5.8l60.59 3.09c7.7.39 14.4-5.21 15.37-12.86 1.07-8.41-5.15-15.99-13.62-16.58l-81.42-5.59" fill="none"/><path d="m2330.8 1316.99 35.66-9.33c1.41-.41 2.85-.73 4.29-1.03 8.04-1.67 13.36-8.95 12.07-16.95-1.37-8.51-9.7-14.61-18.6-13.62l-64.84 7.21-37.55 9.16" fill="none"/><path d="m1845.63 565.91-20.99 22.3c-6.94 7.37-6.43 19.02 1.13 25.76 7.18 6.4 18.12 6.02 24.84-.85l21.41-21.91c7.05-7.22 6.79-18.83-.59-25.72l-.42-.39c-7.24-6.76-18.58-6.4-25.37.82z" fill="none"/><path d="m1876.67 586.38-20.99 22.3c-6.94 7.37-6.43 19.02 1.13 25.76 7.18 6.4 18.12 6.02 24.84-.85l21.41-21.91c7.05-7.22 6.79-18.83-.59-25.72l-.42-.39c-7.24-6.76-18.58-6.4-25.37.82z" fill="none"/><path d="m1898.02 617.19-20.99 22.3c-6.94 7.37-6.43 19.02 1.13 25.76 7.18 6.4 18.12 6.02 24.84-.85l21.41-21.91c7.05-7.22 6.79-18.83-.59-25.72l-.42-.39c-7.24-6.76-18.58-6.4-25.37.82z" fill="none"/><path d="m1915.92 650.82-20.99 22.3c-6.94 7.37-6.43 19.02 1.13 25.76 7.18 6.4 18.12 6.02 24.84-.85l21.41-21.91c7.05-7.22 6.79-18.83-.59-25.72l-.42-.39c-7.24-6.76-18.58-6.4-25.37.82z" fill="none"/><path d="m1780.68 556.07s101.17-35.44 148.84 2.57 76.91 106.58 41.41 181.61" fill="none"/><path d="m1865.21 1510.42-30.29 4.56c-10.01 1.51-16.81 10.98-15.03 20.95 1.69 9.47 10.52 15.93 20.06 14.67l30.37-4c10.01-1.32 16.97-10.61 15.43-20.59l-.09-.56c-1.52-9.79-10.66-16.51-20.46-15.03z" fill="none"/><path d="m1876.98 1545.69-30.29 4.56c-10.01 1.51-16.81 10.98-15.03 20.95 1.69 9.47 10.52 15.93 20.06 14.67l30.37-4c10.01-1.32 16.97-10.61 15.43-20.59l-.09-.56c-1.52-9.79-10.66-16.51-20.46-15.03z" fill="none"/><path d="m1874.73 1583.1-30.29 4.56c-10.01 1.51-16.81 10.98-15.03 20.95 1.69 9.47 10.52 15.93 20.06 14.67l30.37-4c10.01-1.32 16.97-10.61 15.43-20.59l-.09-.56c-1.52-9.79-10.66-16.51-20.46-15.03z" fill="none"/><path d="m1868.02 1620.61-30.29 4.56c-10.01 1.51-16.81 10.98-15.03 20.95 1.69 9.47 10.52 15.93 20.06 14.67l30.37-4c10.01-1.32 16.97-10.61 15.43-20.59l-.09-.56c-1.52-9.79-10.66-16.51-20.46-15.03z" fill="none"/><path d="m1876.65 1512.5-29.44-44.22c-5.74-8.34-17.23-10.31-25.41-4.35-7.77 5.66-9.72 16.43-4.42 24.46l16.88 25.56" fill="none"/><path d="m760.69 532.04-169.96-119.74-114.23 167.79 225.39 162.66" fill="none"/><path d="m509.97 529.97s-10.97-9.94-19.8-13.61-42.72-16.7-42.72-16.7l-56.23-33.65c-7.72-4.62-10.42-14.22-6.02-21.45 4.39-7.23 14.22-9.34 21.94-4.72l22.27 13.33c4.36 2.61 9.92-.37 10.17-5.45.11-2.3-.97-4.5-2.85-5.83l-50.61-35.51c-7.37-5.17-9.36-14.94-4.45-21.83 4.91-6.89 14.85-8.29 22.22-3.12l50.83 35.66c1.52 1.07 3.64.63 4.61-.95.77-1.24.6-2.84-.39-3.91l-8.24-8.79-45.49-47.16c-6.25-6.48-6.34-16.45-.21-22.28 6.13-5.83 16.16-5.3 22.41 1.17l52.21 50.43c1.74 1.68 4.37 2.05 6.5.91 2.93-1.56 3.86-5.31 2-8.06l-33.32-50.69c-4.23-6.44-2.79-15.06 3.31-19.77 6.71-5.18 16.4-3.65 21.19 3.35l46.03 67.4" fill="none"/><path d="m525.31 378.77-10.01-35.48c-.37-1.42-.81-2.83-1.28-4.22-2.63-7.78.96-16.05 8.51-18.99 8.03-3.12 17.51.97 21.16 9.15l26.59 59.58 11.1 37.02" fill="none"/><path d="m821.74 1869.28-79.31-16.65 123.96-632.33" fill="none"/><path d="m817.5 2027.75-2.58 16.31c-1.97 8.78-10.25 14.34-18.49 12.43-8.24-1.91-13.32-10.58-11.35-19.36l13.61-60.58c.41-1.82-.8-3.6-2.64-3.9-1.44-.23-2.86.53-3.46 1.85l-4.99 10.97-26.28 60.03c-3.61 8.24-12.79 12.13-20.52 8.68-7.72-3.45-11.06-12.92-7.45-21.16l26.74-67.48c.89-2.25.23-4.82-1.63-6.36-2.56-2.11-6.38-1.54-8.21 1.22l-34.18 50.12c-4.34 6.37-12.86 8.32-19.54 4.47-7.35-4.23-9.62-13.78-4.97-20.87l44.78-68.23" fill="none"/><path d="m736.35 1925.89-28.99 22.77c-1.18.88-2.31 1.83-3.41 2.79-6.19 5.4-15.21 5.23-20.8-.64-5.95-6.24-5.77-16.56.4-23.05l44.95-47.28 30-24.37" fill="none"/><ellipse cx="1191.95" cy="765.03" rx="10.99" ry="10.89" transform="matrix(.99948439 -.03210854 .03210854 .99948439 -23.9 38.59)"/><ellipse cx="1331.73" cy="760.55" rx="10.99" ry="10.89" transform="matrix(.99948439 -.03210854 .03210854 .99948439 -23.69 43.07)"/><path d="m1267.43 762.58 23.38 47.22c12.14 24.52-5.32 53.31-32.88 54.19l-21.19.68" fill="none"/><path d="m934.8 1960.93-58.77 77.34c-4.54 4.68-11.28 6.51-17.57 4.76-12.33-3.43-17.13-18.36-9.11-28.34l37.83-58.73" fill="none"/><path d="m844.83 2027.95c-4.54 4.68-11.28 6.51-17.57 4.76-12.33-3.43-17.13-18.36-9.11-28.34l34.89-58.59" fill="none"/><path d="m815.84 2004.73c-12.79.5-21.92-12.26-17.32-24.2l26.5-72.28" fill="none"/><ellipse cx="1601.51" cy="661.31" rx="10.99" ry="10.89" transform="matrix(.99948439 -.03210854 .03210854 .99948439 -20.37 51.66)"/><ellipse cx="1741.29" cy="656.83" rx="10.99" ry="10.89" transform="matrix(.99948439 -.03210854 .03210854 .99948439 -20.15 56.14)"/><path d="m1676.98 658.86 23.38 47.22c12.14 24.52-5.32 53.31-32.88 54.19l-21.19.68" fill="none"/><ellipse cx="877.38" cy="718.82" rx="10.99" ry="10.89" transform="matrix(.99948439 -.03210854 .03210854 .99948439 -22.58 28.49)"/><ellipse cx="1017.16" cy="714.34" rx="10.99" ry="10.89" transform="matrix(.99948439 -.03210854 .03210854 .99948439 -22.37 32.96)"/><path d="m952.86 716.36 23.38 47.22c12.14 24.52-5.32 53.31-32.88 54.19l-21.19.68" fill="none"/><ellipse cx="1536.66" cy="516.76" rx="10.99" ry="10.89" transform="matrix(.8571673 -.51503807 .51503807 .8571673 -46.64 865.37)"/><ellipse cx="1656.53" cy="444.73" rx="10.99" ry="10.89" transform="matrix(.8571673 -.51503807 .51503807 .8571673 7.59 916.82)"/><path d="m1601.36 477.84 43.43 29.84c12.05 8.28 17.32 21.74 16 34.65" fill="none"/><ellipse cx="1198.54" cy="422.51" rx="10.89" ry="10.99" transform="matrix(.03210854 -.99948439 .99948439 .03210854 737.84 1606.89)"/><ellipse cx="1058.76" cy="418.03" rx="10.89" ry="10.99" transform="matrix(.03210854 -.99948439 .99948439 .03210854 607.02 1462.84)"/><path d="m1117.41 431.46-17.73 35.81c-12.14 24.52 5.32 53.31 32.88 54.19l21.19.68" fill="none"/><path d="m300 372.43s38.36-91.08 136.17-106.04" fill="none"/><path d="m278.9 300.05s42.19-98.48 111.24-92.73" fill="none"/><path d="m866.39 207.08 114.53 112.33" fill="none"/><path d="m805.14 300.05 154.61 41.52" fill="none"/><path d="m2719.39 2161.72s57.81 172.93-96.48 281.56" fill="none"/><path d="m2800.52 2240.64s31.9 234.02-179.5 285.55" fill="none"/><path d="m1006.13 500.02c-12.69-112.35 65.71-215.52 178.45-232.55 74.77-11.3 146.31 18.06 192.15 71.52" fill="none"/><circle cx="1189.19" cy="423.28" fill="none" r="65.23"/><circle cx="1035.24" cy="428.87" fill="none" r="65.23"/><path d="m1098.43 412.66 26.17 1.5" fill="none"/><path d="m1250.77 401.74h71.42" fill="none"/></g></svg>