<?xml version="1.0" encoding="UTF-8"?>
<svg id="i" xmlns="http://www.w3.org/2000/svg" version="1.1" viewBox="0 0 1080 1080">
  <defs>
    <style>
      .cls-1 {
        fill: none;
      }

      .cls-1, .cls-2, .cls-3, .cls-4 {
        stroke: #000;
        stroke-linecap: round;
        stroke-linejoin: round;
      }

      .cls-2 {
        fill: #e1e2de;
      }

      .cls-3, .cls-5, .cls-4 {
        fill: #fcfdf7;
      }

      .cls-5 {
        stroke-width: 0px;
      }

      .cls-4 {
        stroke-width: 1px;
      }
    </style>
  </defs>
  <g id="k">
    <rect class="cls-5" width="1080" height="1080"/>
  </g>
  <g id="l">
    <path class="cls-2" d="M219.4,224l.2,634.3c-.6,66.2,147.4,121.1,330.3,122.6,183,1.5,331.8-50.9,332.3-117.1l-.2-634.3"/>
    <path class="cls-2" d="M552.1,95.8c183,1.5,330.8,63.7,330.2,138.9-.6,75.2-149.5,134.9-332.5,133.4s-331.4-63.7-330.8-138.9c.6-75.2,150.1-134.9,333.1-133.4Z"/>
    <path class="cls-3" d="M219.4,365.1c-.6,66.2,146.1,121.3,329.1,122.9,183,1.5,333.5-50.3,334-116.5l.3-45.6c-.5,66.2-150.7,118.8-333.7,117.2-183-1.5-330.1-56.5-329.6-122.7v44.7q0,0,0,0Z"/>
    <path class="cls-3" d="M219.7,785.7c-.6,66.2,147,121.1,330,122.6,183,1.5,331.8-50.9,332.3-117.1l.2-44.8c-.5,66.2-149,118.5-332,117-183-1.5-331.2-56.7-330.7-122.8v45.1c0,0,0,0,0,0Z"/>
    <path class="cls-3" d="M231.8,267.2c39.6,57.1,167.1,99.7,318.1,100.9,151.5,1.3,279.7-39.5,319.6-96.2v-.2c-39.5-57.1-166.6-99.8-317.7-101-151.5-1.3-279.5,39.4-319.5,96.1"/>
    <polyline class="cls-1" points="846.2 425 781.3 331.7 716.6 473.2 713.7 849.2 781.3 948.7 843.4 801.8"/>
    <polyline class="cls-1" points="716.5 473.3 631.7 364.7 549.2 488.1 546.1 863 632 977.8 713.7 849.2"/>
    <polyline class="cls-1" points="549 488 461.1 362.5 382.3 470.3 379.2 844.6 460.8 975.6 546.1 863.2"/>
    <polyline class="cls-1" points="876.4 883.8 843.4 801.8 846.5 425.1 882.2 240.8"/>
    <polyline class="cls-1" points="226.2 882.3 260.9 799.5 263.9 426.2 219.8 240"/>
    <polyline class="cls-1" points="379.2 844.7 313.8 942.8 261 799.3"/>
    <polyline class="cls-1" points="264 426 313.8 325.6 382.4 470.5"/>
  </g>
  <path id="r" class="cls-4" d="M833.1,215.1c-34.7-9.4-67.7-5.5-88,8L211.1,61c-16-4.8-32.9,4.2-37.7,20.1h0c-4.9,16,4.2,32.9,20.1,37.7l537.2,163.1c11.7,23,39.8,44.1,75.4,53.7,51.8,14.1,99.9-1.5,107.4-34.8,7.5-33.3-28.5-71.7-80.3-85.7h0Z"/>
  <path id="s" class="cls-4" d="M695.5,191.9h0c-16-4.8-32.8,4.2-37.7,20.2l-188.2,620.9c-23.9,11-46,39.8-56,76.4-14.1,51.8,1.5,99.9,34.8,107.4,33.3,7.5,71.7-28.5,85.7-80.3,9.1-33.6,5.8-65.5-6.7-86l188.2-621c4.8-16-4.2-32.9-20.2-37.7h0Z"/>
</svg>