<svg viewBox="0 0 1080 1080" xmlns="http://www.w3.org/2000/svg"><g stroke="#7e6044" stroke-linecap="round" stroke-linejoin="round" stroke-width="1.5"><path d="m301.59 951.89c-3.86 6.6-10.47 14.82-19.25 17.02-11.54 2.89-53.04 1.92-77.99 3.18-11.49.58-12.59 15.96-9.55 27.06l6.88 38.67h136.82s31.65-27.94 31.65-27.94l4.17 27.94 90.96.35.66-86.29" fill="#fff"/><path d="m778.41 951.89c3.86 6.6 10.47 14.82 19.25 17.02 11.54 2.89 53.04 1.92 77.99 3.18 11.49.58 12.59 15.96 9.55 27.06l-6.88 38.67h-136.82s-31.65-27.94-31.65-27.94l-4.17 27.94-90.96.35-.66-86.29" fill="#fff"/><path d="m465.79 1022.83-92.45.53" fill="#fff"/><path d="m353.49 1023.4-154.08-.53" fill="#fff"/><path d="m614.21 1022.83 92.45.53" fill="#fff"/><path d="m726.51 1023.4 154.08-.53" fill="#fff"/><path d="m375.15 520.18-91.45 431.7h191.5l63.62-332.06 68.78 332.06h180.5l-86.35-433.99" fill="#fff"/><ellipse cx="293.45" cy="491.13" fill="#f0f0f0" rx="35.07" ry="66.16" transform="matrix(.02286182 -.99973863 .99973863 .02286182 -204.28 773.25)"/><ellipse cx="304.06" cy="431.36" fill="#f0f0f0" rx="35.07" ry="66.16" transform="matrix(.02286182 -.99973863 .99973863 .02286182 -134.16 725.45)"/><ellipse cx="297.52" cy="368.72" fill="#f0f0f0" rx="35.07" ry="66.16" transform="matrix(.02286182 -.99973863 .99973863 .02286182 -77.93 657.71)"/><ellipse cx="314.89" cy="306.51" fill="#f0f0f0" rx="35.07" ry="66.16" transform="matrix(.02286182 -.99973863 .99973863 .02286182 1.25 614.29)"/><ellipse cx="365.19" cy="248.33" fill="#f0f0f0" rx="35.07" ry="66.16" transform="matrix(.02286182 -.99973863 .99973863 .02286182 108.56 607.73)"/><circle cx="533.2" cy="127.57" fill="#fff" r="85.74"/><g fill="#f0f0f0"><ellipse cx="778.36" cy="487.64" rx="66.16" ry="35.07" transform="matrix(.99973863 -.02286182 .02286182 .99973863 -10.97 17.96)"/><ellipse cx="767.75" cy="427.87" rx="66.16" ry="35.07" transform="matrix(.99973863 -.02286182 .02286182 .99973863 -9.6 17.71)"/><ellipse cx="751.02" cy="368.36" rx="66.16" ry="35.07" transform="matrix(.99973863 -.02286182 .02286182 .99973863 -8.24 17.31)"/><ellipse cx="733.65" cy="306.15" rx="66.16" ry="35.07" transform="matrix(.99973863 -.02286182 .02286182 .99973863 -6.82 16.89)"/><ellipse cx="706.61" cy="244.83" rx="66.16" ry="35.07" transform="matrix(.99973863 -.02286182 .02286182 .99973863 -5.42 16.26)"/><ellipse cx="533.31" cy="213.31" rx="131.78" ry="33.83"/><ellipse cx="533.2" cy="276.17" rx="210.35" ry="67.38"/><ellipse cx="533.2" cy="349.55" rx="263.32" ry="67.38"/><ellipse cx="532.13" cy="478.03" rx="210.35" ry="67.38"/><ellipse cx="536.24" cy="407.16" rx="263.32" ry="57.6"/></g><path d="m808.53 628.23.94-.1c6.13-.75 10.55-6.23 9.99-12.37l-3.21-35.52c-.15-1.69-.37-3.38-.66-5.05l-5.42-36-5.53-1.31-44.85 3.86" fill="#fff"/><path d="m806.94 582.84 3.44 38.05c.56 6.15-3.87 11.62-9.99 12.37-1.54.19-3.04.06-4.45-.33l-.7-46.84" fill="#fff"/><path d="m797.84 584.45 3.42 37.81c.56 6.15-3.87 11.62-9.99 12.37-2.15.26-4.23-.09-6.07-.92l-4.91-44.96" fill="#fff"/><path d="m787.59 587.04 3.24 35.82c.56 6.15-3.87 11.62-9.99 12.37-6.51.8-12.36-4.04-12.79-10.59l-1.84-35.87c-.15-2.97-1.96-5.61-4.67-6.82-3.94-1.76-8.57-.05-10.41 3.86l-5.02 10.67c-2.79 5.94-10 8.31-15.78 5.19-5.43-2.93-7.55-9.65-4.79-15.17l24.08-46.4 60.55-.91" fill="#fff"/><rect fill="#f0f0f0" height="33.72" rx="12" width="102.62" x="720.9" y="518.52"/><circle cx="531.14" cy="109.35" fill="#7e6044" r="4.4"/><circle cx="587.14" cy="109.35" fill="#7e6044" r="4.4"/><path d="m561.38 109.34 8.75 19.38c4.55 10.06-2.81 21.46-13.86 21.46h-8.49" fill="none"/><path d="m272.03 627.24-.94-.1c-6.13-.75-10.55-6.23-9.99-12.37l3.21-35.52c.15-1.69.37-3.38.66-5.05l5.42-36 5.53-1.31 44.85 3.86" fill="#fff"/><path d="m273.62 581.86-3.44 38.05c-.56 6.15 3.87 11.62 9.99 12.37 1.54.19 3.04.06 4.45-.33l.7-46.84" fill="#fff"/><path d="m282.72 583.47-3.42 37.81c-.56 6.15 3.87 11.62 9.99 12.37 2.15.26 4.23-.09 6.07-.92l4.91-44.96" fill="#fff"/><path d="m292.97 586.06-3.24 35.82c-.56 6.15 3.87 11.62 9.99 12.37 6.51.8 12.36-4.04 12.79-10.59l1.84-35.87c.15-2.97 1.96-5.61 4.67-6.82 3.94-1.76 8.57-.05 10.41 3.86l5.02 10.67c2.79 5.94 10 8.31 15.78 5.19 5.43-2.93 7.55-9.65 4.79-15.17l-24.08-46.4-60.55-.91" fill="#fff"/><rect fill="#f0f0f0" height="33.72" rx="12" transform="matrix(-1 -0 0 -1 609.98 1068.04)" width="102.62" x="253.68" y="517.16"/></g></svg>