<?xml version="1.0" encoding="UTF-8"?><svg xmlns="http://www.w3.org/2000/svg" viewBox="0 0 1000 1000"><defs><style>.c{fill:none;stroke:#000;stroke-linecap:round;stroke-linejoin:round;}.d{fill:#ff3c00;}.e{fill:#edd6d4;}.f{fill:#fff;}.g{fill:#ffeb55;}.h{fill:#f2a0b5;}.i{fill:#cabbba;}.j{fill:#adadad;}.k{fill:#1e1e1e;}.l{fill:#2bc670;}.m{fill:#81c7ff;}</style></defs><g id="a"><rect class="e" width="1000" height="1000"/><rect class="i" x=".09" y="561.51" width="1000" height="438.49"/><path class="m" d="m452.13,367.14v-7.03l.46-6.72.46-6.08.42-9.63v-13.6l-.21-11.39-.52-16.23-.38-8.74-.52-10.11-.54-8.93-2.5-18.01-1.84-19.68-.67-7.16,14.7,7.36,16.41,8.42,6.52,3.11,4.01,2.33,3.21,2.15,3,2.26,1.48,1.22,2.42-1.5,8.39,2.87,53.15,46.57,2.28.03,2.85.31,2.46.56,2.39.8,2.28,1.01,2.81,1.37,1.22,1.06,2.12,1.87,1.64,2.16.99,1.75-.81-3.36-2.27-7.56-4.42-12.96-3.21-8.32-22.3-52.36-4.77-6.26-7.01-7.7-3.9-3.99-3.09-2.95-2.85-2.34-1.65-1.17-2.34-1.46-7.67-3.94-11.55-5.74-14.86-7.39-11.89-5.9-4.6-2.12-5.02-2.08-6.12-2.22-5.92-1.83-6.27-1.62-4.27-.92-4.82-.87-5.32-.75-5.58-.56-5.32-.42-8.42-.66-98.68-1.77-.71.06-3.34,1.27-12.98,1.77-7.11,1.28-8.54.85-7.32,1-6.49,1.04-7.22,1.55-6.14,1.65-7.83,2.57-7.53,2.99-7.68,3.62-7.75,4.25-22.66,12.91-14.59,8.31-10.96,6.62-6.14,4.71-3.83,3.81-2.62,3.31-2.34,3.65-2.31,4.7-2.92,6.19-2.72,7.99-11.95,36.55-3.82,12.45-2.74,9.56-1.8,6.84-1.23,5.18s-.99,4.37-.88,4.06c.11-.31,1.74-3.01,1.74-3.01l2.21-2.57,2.37-1.94,5.15-2.78,2.6-.93,2.88-.66,3.65-.33,3.79.21,3.84.94,2.87,1.23,2.67,1.57,2.95,2.1,1.66,1.86,1.79,2.02,1.26,2.56,1.48,3.9-2.74,9.53,3.37-1.47.13-.54,5.67-13.11,5.73-13.26,4.97-11.48,4.59-10.6,1.79-4.6,3.22-6.63,3.36-5.41,3.13-4.18,5.41-5.91,3.7-3.33,4.44-3.4,6.19-3.86,30.34-16.96,8.12-4.66.68,6.7.63,11.03.45,8.95-.66,16.98-.36,8.42-.44,10.24-.79,18.51-1.09,25.54-1.07,14.54-1.92,25.04-.77,9.51-1.64,18.23-.66,5.34-.11,1.43.19,1.54.54,1.74,1.01,2,1.59,2.19,2.94,2.71,4.85,3.83,7.31,3.59,7.14,1.55,11.04.49h13.7l11.81-.2s24.2-.41,24.7-.44c.51-.03,12.52-1.14,12.52-1.14l11.7-1.87,10.69-.71,9.21-.18,17.75.4,22.8.57,6.56-.28s4.48-.42,4.9-.94c.12-.15,4.83-1.24,7.97-3.35l2.33-1.62,2.44-2.23,2.12-1.92,2.61-2.08,3.35-2.68,2.38-1.9-1.44-2.75-1.7-3.58-2.13-5.01-6.81-26.39Z"/><polygon class="e" points="440.9 260.02 438.72 280.29 439.86 281.65 441.39 283.33 443.55 285.66 445.91 287.82 447.66 289.33 449.12 290.48 451.06 292.01 453.33 293.58 456.48 295.52 459 296.86 461.05 297.92 464.46 299.43 467.16 300.43 470.43 301.48 473.31 302.26 477.24 303.04 481.25 303.64 485.74 304.03 488.72 304.09 491.97 304.09 493.01 303.99 494.19 302.35 496.15 300.12 497.57 298.97 499.08 297.97 500.01 297.45 501.35 296.83 503.31 296.17 505.35 295.71 507.2 295.52 509.08 295.53 512.89 296.4 517.91 297.15 522.77 297.43 530 297.05 535.28 296.17 541.03 294.65 545.33 293.2 549.5 291.85 554.33 290.32 557.9 289.14 559.01 286.06 560.63 283.38 562.3 281.42 564.77 279.34 567.61 277.74 569.29 277.09 570.88 276.65 573.48 276.26 576.63 276.29 582.31 276.31 585.22 275.97 589.18 275.11 592.81 273.9 595.98 272.46 598.32 271.14 600.79 269.56 603.28 267.96 606.44 265.9 608.41 264.14 609.78 262.25 610.86 259.74 611.27 257.67 611.27 254.79 609.87 255.68 601.54 260.96 597.47 263.48 595.36 264.52 593.47 265.23 591.32 265.81 588.26 266.28 586.21 266.36 583.09 266.14 581.55 265.87 579.22 265.25 575.79 264.08 533.9 249.72 530.5 252.11 530.78 248.66 507.64 240.73 506.42 252.04 544.1 264.95 544.53 274.09 542.19 275.57 540.05 276.93 535.89 279.56 532.66 281.6 530.52 282.89 529.05 283.62 527.8 284.14 525.94 284.76 523.5 285.32 521.26 285.6 519.38 285.66 517.35 285.55 515.51 285.3 513.15 284.74 510.86 283.99 507.04 282.68 467.16 269.02 463.76 271.4 464.04 267.95 440.9 260.02"/><path class="e" d="m153.21,625.46l-3.21,4.54c-2.81,3.97-4.25,8.75-4.1,13.61v.2s-.23,19.61-.23,19.61l15.58,7.77,24.35,11.97,17.26,8.73,8.06,3.15,8.74,1.6h6.05s9.08-.72,9.08-.72l25.26-2.54.65-2.86,1.07-5.89v-5.14s-.15-4.71-.15-4.71l-1.3-4.51-2.2-3.21-3.03-2.83-2.95-.81-1.88-.18-5.23-.32-5.2-.39-5.81-1.05-6.05-1.94-3.94-1.75-4.16-3.18-3.04-5.39-.66-5.26v-3.92s-19.44-4.48-19.44-4.48l-43.53-10.09Z"/><polygon class="e" points="415.18 658.28 415.18 658.28 415.13 663.98 414.89 683.59 430.48 691.36 454.82 703.33 472.09 712.05 480.14 715.2 488.88 716.8 494.93 716.79 504.02 716.08 529.28 713.54 529.93 710.67 531 704.79 530.99 699.65 530.84 694.94 529.55 690.43 527.35 687.22 524.32 684.39 521.37 683.59 519.49 683.41 514.26 683.09 509.06 682.7 503.25 681.65 497.19 679.71 493.26 677.96 489.1 674.77 486.06 669.38 485.4 664.12 485.41 661.57 465.61 660.64 415.18 658.28"/><polygon class="l" points="260.75 412.98 260.53 418.45 260.1 428.71 259.55 441.8 258.74 461.59 258.38 467.67 256.93 478.44 253.52 492.2 249.57 502.88 245.42 511.55 238.18 523.39 229.16 534.85 149.36 624.21 252.17 648.41 273.24 622.18 295.22 595.03 308.15 578.92 316.62 567.7 322.06 560.09 329.04 549.79 334.88 540.67 343.61 526.08 349.91 514.71 357.44 500 363.55 486.96 369.41 473.33 375.26 458.47 378.33 450.93 380.68 448.67 383.54 447.78 386.93 448.31 389.66 450.4 391.3 453.94 401.86 483.1 405.83 496.59 408.07 507.02 409.92 519.94 410.8 536.96 410.36 549.38 407.27 575.29 396.62 657.41 490.2 661.8 496.94 618 504.26 570.12 505.76 554.09 506 538.98 504.89 521.43 503.06 508.26 499.63 492.14 495.99 479.51 490.88 465.36 485.64 453.39 477.31 437.56 460.4 407.9 455.87 411.52 452.43 414.65 447.82 417.99 441.02 420.64 436.12 421.57 426.53 421.78 419.23 421.81 411.08 421.39 402.7 421.19 396.01 421.04 384.7 420.84 379.8 421.06 372.01 421.57 367.55 422.12 361.6 422.97 353.42 424.03 343.48 424.81 334.82 424.97 323.36 425.16 308.39 425.42 296.03 425.52 286.33 425.05 280.94 424.35 277.54 423.61 273.34 421.92 268.33 419.82 262.7 415.15 261.07 412.79 260.75 412.98"/><polygon class="d" points="288.61 328.47 288.42 331.2 288.42 331.27 288.61 328.47"/><polygon class="d" points="289.99 294.14 289.1 291.67 288.78 290.74 288.91 291.15 290.3 295.02 289.99 294.14"/><polygon class="d" points="291.09 317.25 291.74 314.76 290.88 317.97 289.82 321.86 290.5 319.35 291.09 317.25"/><polygon class="d" points="315.04 239.29 316.59 239.14 316.6 239.14 314.27 239.32 313.99 239.34 315.04 239.29"/><path class="d" d="m292.71,309.94l.15-1.51-.15,1.51Z"/><polygon class="d" points="322.35 238.12 323.56 237.75 324.03 237.7 324.47 237.68 325.85 237.76 327.06 237.94 328.64 238.27 332.38 239.31 334.81 240.1 338.11 241.27 340.23 242.07 342.78 243.07 344.32 243.69 346.87 244.74 348.75 245.54 355.18 248.36 356.45 248.94 357.05 249.14 357.93 249.14 358.94 249.25 361.37 249.7 365.52 250.84 370.94 252.69 376.48 254.81 381.71 256.96 386.59 259.04 391.75 261.35 394.65 262.6 432.39 276.6 433.08 271.92 439.86 269.7 440.13 266.94 438.92 264.71 437.71 262.75 435.84 260.57 432.99 258.11 430.66 256.45 427.9 254.65 425.03 252.77 422.48 250.9 419.65 248.33 418.37 246.8 417.17 245.01 416.04 243.03 415.15 241.36 414.23 239.71 412.86 237.63 411.17 235.73 409.51 234.4 407.38 233.21 404.89 232.27 402.12 231.65 399.28 231.35 396.33 231.35 393.63 231.52 390.22 231.92 384.77 232.64 380.72 232.96 377.41 232.94 373.75 232.6 370.07 232.04 366.43 231.35 362.29 230.53 358.25 229.85 353.98 229.33 351.19 229.33 348.07 229.54 345.01 230.06 341.8 230.9 338.26 232.1 333.11 234.16 329.33 235.71 325.6 237.1 323.83 237.68 322.08 238.18 321.38 238.33 322.35 238.12"/><polygon class="d" points="312.34 239.46 311.24 239.54 312.22 239.47 312.34 239.46"/><polygon class="d" points="295.36 254.48 293.54 257.83 293.2 258.53 295.36 254.48"/><polygon class="d" points="297.3 251.05 299.08 248.02 300.33 246.04 299.93 246.62 298.39 249.15 295.89 253.5 295.36 254.48 297.3 251.05"/><polygon class="d" points="288.42 333.79 288.58 336.52 288.91 339.18 289.45 342.06 288.7 337.5 288.42 333.79"/><polygon class="d" points="287.94 287.92 288.15 288.78 288.32 289.3 287.94 287.92"/><polygon class="d" points="293.02 352.12 294.23 354.39 294.37 354.61 293.02 352.12"/><polygon class="d" points="289.46 342.06 290.06 344.43 290.88 347.04 290.91 347.12 289.46 342.06"/><polygon class="d" points="296.13 357.42 298.15 360.12 295.57 356.52 296.13 357.42"/><polygon class="d" points="303.17 365.29 303.71 365.75 305.45 367.23 307.08 368.76 307.98 369.81 308.76 370.98 309.43 372.43 310.25 374.41 311.26 376.35 312.45 378.19 313.82 379.91 316.11 382.17 317.77 383.44 320.38 384.99 322.81 386.13 325.87 387.39 329.42 388.63 332.63 389.56 338.11 390.78 342 391.39 346.86 391.85 351.8 392.01 357.1 391.86 361.4 391.5 368.38 390.49 374.74 389.13 380.89 387.43 386.52 385.56 393.5 382.83 306.21 365.89 303.17 365.29"/><path class="d" d="m292.74,303.7l.19,1.75-.19-1.75Z"/><polygon class="d" points="286.92 282.63 287.45 285.97 287.18 284.28 286.92 282.63"/><polygon class="d" points="291.65 261.72 291.5 262.02 290.99 263.23 291.65 261.72"/><polygon class="d" points="290.45 264.49 290.14 265.21 289.69 266.47 290.45 264.49"/><polygon class="d" points="287.3 275.43 287.63 273.61 288.15 271.32 288.89 268.73 288.78 269.02 287.86 272.38 287.18 276.08 287.03 277.8 287.3 275.43"/><polygon class="d" points="286.92 279.06 286.92 280.83 286.96 278.68 286.92 279.06"/><polygon class="g" points="324.47 237.67 328.64 238.27 332.38 239.31 334.81 240.1 340.23 242.07 344.32 243.69 352.32 247.11 357.05 249.14 354.79 249.62 350.83 251.21 346.47 253.54 342.91 255.52 339.31 257.52 334.7 259.89 331.13 261.72 326.91 263.23 321.9 264.95 318.81 266.14 314.9 268.37 311.79 270.71 308.42 273.88 305.23 277.34 301.59 281.91 299.37 284.92 296 290.38 291.56 298.62 289.1 291.67 287.45 285.97 286.92 282.63 286.92 279.06 287.3 275.43 288.15 271.32 289.69 266.47 291.5 262.02 293.2 258.53 297.3 251.05 299.93 246.62 301.6 244.31 303.47 242.39 305.97 240.81 309.18 239.83 312.34 239.46 315.04 239.29 318.72 238.89 321.38 238.33 323.56 237.75 324.47 237.67"/><path class="f" d="m422.98,132.02c0,32.08-26,58.08-58.08,58.08s-58.08-26-58.08-58.08,26-58.08,58.08-58.08,58.08,26,58.08,58.08"/><path class="f" d="m579.94,308.15l-2.85-3.34-2.43-2.11-3.55-1.47-2.63-1.31-3.56-1.11-2.65-.17-2.38-.03-2.73,19.78-.92,6.96-1.2,6.92-.25,2.18,1.45,2.29,1.68,3.52.74,2.79.17,3.58-.87,3.67-1.51,3.93-2.12,5.64-.39,1.61.49,1.71.77,1.22s1.79,1.05,2,1.05h2.22l1.71-1.56,1.77-2.57.74,1.46.59.67,1.32.54,1.86.25,1.16-.55,2.69-4.58.28,2.67s1.05.91,1.2.96c.15.05,1.91.55,1.91.55l2.06-.25,1.71-2.01,2.22-5.09.6,1.66.5,1.36.98.47,2.34-.06,1.71-1.26.86-1.96,1.11-3.32,1.17-5.9.46-6.42-.39-5.42-2.07-7.78-6.64-16.41-1.36-2.73Z"/><path class="f" d="m171.93,334.81l2.71-8.61-.62-2.43-2.35-4.89-3.45-3.88-2.08-1.6-5.04-2.96-4.28-.98-5.86-.3-4.59.77-4.52,1.62-3.59,2.13-4.42,4.1-1.62,2.35-1.4,4.07-3.33,8.23-1.71,5.89-1.57,6.99s-.33,2.85-.48,3.14c-.15.29.18,5.73.18,5.73,0,0,.66,5.18.76,5.54.1.35,1.96,5.45,1.94,5.78-.02.32,1.18,3.23,1.18,3.23l1.21,1.8,1.66.69,1.67-.11,1.71-2.01.34-1.37.81.97,1.21,2.68,1.16,2.04,1.92,1.41,1.54-.26,1.52-.63,1.6-2.77,1.68,2.56,1.83,1.31,1.51.27-1.16-2.35.6-8.31,3.61,6.2,3.88-1.99,1.46-5.64-.9-3.26-.95-2.86-.05-3.66.61-3.13,1.38-3.58,5.1-7.92,9.19-4Z"/><polygon class="f" points="159.11 626.82 170.94 629.57 196.74 635.55 159.11 626.82"/><polygon class="h" points="432.39 276.6 414.42 269.93 404.25 266.16 395.78 263.16 393.33 262.03 390.12 260.62 385.76 258.69 380.06 256.28 373.6 253.71 369.24 252.08 364.89 250.67 361.37 249.7 358.94 249.25 357.93 249.14 357.05 249.14 355.78 249.36 353.78 249.94 350.83 251.21 348.01 252.68 344.53 254.62 339.31 257.52 334.7 259.89 330.32 261.89 325.65 263.72 321.9 264.95 318.81 266.15 314.9 268.37 310.22 272.09 306.66 275.65 303.19 279.76 300.33 283.61 297.84 287.34 296.62 289.3 294.28 293.34 291.57 298.62 292.51 302.35 292.92 305.45 292.86 308.43 292.45 311.57 291.74 314.76 290.88 317.97 289.82 321.86 288.89 326.29 288.42 331.2 288.42 333.79 288.91 339.18 289.63 342.84 290.53 346 291.54 348.79 292.66 351.38 294.23 354.39 295.57 356.53 297.41 359.08 298.84 360.94 300.12 362.37 302.01 364.26 303.17 365.29 309.78 366.59 419.47 387.56 438.04 390.94 446.25 392.43 452.15 393.39 455.98 393.61 460.37 393.4 464.21 392.82 467.46 392.01 470.66 390.93 474.87 389.02 480.32 385.56 484.23 382.2 486.99 379.21 490.19 374.79 491.97 371.63 495.42 372.27 499.01 372.72 502.41 372.92 505.82 372.9 512.28 372.24 517.09 371.22 521.15 369.97 525.48 368.23 529.23 366.34 533.86 363.46 539.31 359.09 543.54 354.76 546.86 350.52 549.55 346.28 552.77 339.53 554.19 335.41 555.03 332.27 556.69 322.4 561.33 288.03 556.15 289.71 550.62 291.49 545.33 293.2 539.48 295.08 535.28 296.17 531.66 296.83 528.26 297.23 524.95 297.42 522.77 297.43 520.64 297.36 518.96 297.25 516.85 297.04 514.15 296.65 511.88 296.21 509.08 295.53 507.21 295.52 505.36 295.71 501.94 296.6 500.01 297.45 497.57 298.97 495.64 300.63 493.72 302.91 493.01 303.99 489.18 304.1 484.02 303.99 478.58 303.31 473.66 302.35 469.92 301.35 467.62 300.61 464.46 299.43 460.76 297.79 456.48 295.52 453.33 293.58 451.06 292.01 446.92 288.75 443.56 285.66 440.3 282.16 438.72 280.29 439.86 269.7 433.09 271.92 432.39 276.6"/><polygon class="k" points="530.89 218.21 508.78 231.74 507.81 240.73 530.95 248.66 530.66 252.11 534.06 249.72 559.86 258.56 573.95 263.39 580.05 265.45 584.25 266.26 586.28 266.36 588.16 266.3 590.41 266.03 592.85 265.47 595.95 264.33 599.57 262.31 611.44 254.79 611.01 245.66 581.92 235.69 564.94 229.88 555.55 235.69 554.11 226.17 530.89 218.21"/><polygon class="k" points="463.98 237.5 441.87 251.03 440.9 260.02 464.04 267.95 463.76 271.4 467.16 269.02 492.95 277.85 507.04 282.68 513.15 284.74 517.35 285.55 519.38 285.66 521.26 285.6 523.5 285.32 525.94 284.76 529.05 283.62 532.66 281.6 544.53 274.09 544.1 264.95 515.01 254.99 498.03 249.17 488.64 254.99 487.2 245.46 463.98 237.5"/><polygon class="j" points="160.86 400.8 176.77 393.13 188.26 344.13 179.79 331.6 162.95 338.99 159.46 344.46 157.85 346.79 156.81 349.57 156.51 350.39 156.22 351.5 156.02 352.65 155.88 354.27 155.94 355.99 156 357.18 156.44 359.01 157.01 360.72 157.69 362.2 158.03 362.82 156.5 368.95 152.64 370.97 149.02 363.89 148.94 365.27 148.44 373.11 151.99 379.27 154.24 377.97 152.01 386.93 160.86 400.8"/><polygon class="k" points="145.67 663.42 145.45 683.5 164.09 691.52 175.93 691.52 177.2 694.63 198.75 705.39 202.83 707.43 204.33 708.18 207.67 709.35 209.42 709.79 212.35 710.34 214.8 710.64 218.84 710.88 222.29 710.88 224.73 710.72 241.29 709.06 246.51 708.51 248.75 708 250.85 707.13 252.33 706.23 254.27 704.6 255.18 703.61 256.46 701.88 257.53 700.07 258.68 697.58 259.55 695.15 260.06 693.37 249.03 694.48 232.82 696.07 225.71 696.62 219.66 696.63 214.94 695.61 210.92 695.03 207.33 693.65 203.61 692.18 185.6 683.16 145.67 663.42"/><polygon class="k" points="414.89 683.58 414.67 703.67 433.32 711.68 445.16 711.68 446.42 714.79 467.97 725.56 472.05 727.6 473.56 728.35 476.89 729.52 478.64 729.96 481.58 730.5 484.02 730.8 488.06 731.05 491.51 731.05 493.95 730.88 510.51 729.23 515.73 728.68 517.97 728.17 520.07 727.3 521.56 726.4 523.49 724.77 524.4 723.77 525.68 722.05 526.75 720.24 527.9 717.75 528.77 715.31 529.28 713.54 518.25 714.65 502.04 716.23 494.93 716.79 488.88 716.8 484.16 715.77 480.14 715.2 476.56 713.82 472.84 712.34 454.82 703.33 414.89 683.58"/><path d="m359.53,145.21c.12,1.66-1.14,3.1-2.79,3.21-1.66.12-3.1-1.14-3.21-2.79-.12-1.66,1.14-3.1,2.8-3.21,1.66-.12,3.1,1.13,3.21,2.79"/><path d="m397.83,145.18c.11,1.66-1.14,3.1-2.79,3.21-1.66.12-3.1-1.14-3.21-2.79-.12-1.66,1.14-3.1,2.8-3.21,1.66-.12,3.1,1.13,3.21,2.79"/><path d="m165.87,394.57c-2.37,1.36-5.39.54-6.75-1.83-1.36-2.37-.54-5.39,1.83-6.75,2.37-1.36,5.39-.54,6.75,1.83,1.36,2.37.54,5.39-1.83,6.75"/></g><g id="b"><line class="c" x1="505.58" y1="561.51" x2="1000.36" y2="561.51"/><line class="c" x1="321.34" y1="561.51" x2="408.91" y2="561.51"/><line class="c" x1=".36" y1="561.51" x2="205.35" y2="561.51"/><path class="c" d="m505.72,302.24l-9.57,57.25c-3.36,22.3-24.48,37.4-46.67,33.36l-84.26-15.34-61.71-12.33"/><path class="c" d="m421.09,355.17l12.35-83.36,4.71,7.04s21.7,32.99,67.55,23.39l-5.65-4.74"/><path class="c" d="m423.15,131.91c0,31.97-25.92,57.89-57.89,57.89s-57.89-25.92-57.89-57.89,25.92-57.89,57.89-57.89,57.89,25.92,57.89,57.89Z"/><path class="c" d="m359.89,145.11c.12,1.66-1.14,3.1-2.79,3.21-1.66.12-3.1-1.14-3.21-2.79-.12-1.66,1.14-3.1,2.8-3.21,1.66-.12,3.1,1.13,3.21,2.79Z"/><path class="c" d="m398.19,145.08c.11,1.66-1.14,3.1-2.79,3.21-1.66.12-3.1-1.14-3.21-2.79-.12-1.66,1.14-3.1,2.8-3.21,1.66-.12,3.1,1.13,3.21,2.79Z"/><path class="c" d="m377.57,145.98l6.02,13.33c3.11,6.88-1.94,14.68-9.5,14.65l-5.82-.02"/><path class="c" d="m448.84,246.91c-.05-.38-.09-.75-.13-1.1l-2.07-22.1"/><path class="c" d="m266.19,225.23v.05c1.26,10.69,1.67,21.46,1.21,32.21l-3.17,74.44s-4.65,64.64-6.04,72.42c-1.39,7.78,10.69,18.66,28.7,21.05l48.16-.39c9.15-.07,18.29-.81,27.34-2.19,12.63-1.93,25.43-2.6,38.19-1.97,13.69.68,30.9,1.3,36.53.53,9.83-1.36,14.94-6.14,14.94-6.14l3.85-3.57,8.67-6.93s-2.49-4.39-5.27-11.34"/><path class="c" d="m131.93,321.58c3.57-19.39,16.61-57.01,22.71-75.77,2.91-8.95,6.23-18.03,12.4-25.13,5.64-6.49,13.27-10.88,20.75-15.13,13.21-7.53,26.43-15.06,39.65-22.58.1-.05.19-.11.29-.17,14.92-8.49,31.33-14.03,48.34-16.34l39.21-5.33"/><path class="c" d="m270.6,222.7l-44.25,25.4c-13.91,7.99-24.47,20.73-29.72,35.89l-21.18,48.96"/><path class="c" d="m140.62,312.39c11.37-6.53,25.68-2.96,31.95,7.97,2.31,4.03,3.23,8.23,2.88,12.59"/><polyline class="c" points="176.61 393.01 188.2 344.09 179.76 331.55 167.35 379.06 176.61 393.01 160.7 400.64 151.89 386.76 159.19 357.78 156.64 358.78"/><line class="c" x1="167.35" y1="379.06" x2="151.89" y2="386.76"/><line class="c" x1="162.93" y1="338.9" x2="179.76" y2="331.55"/><path class="c" d="m138.79,344.9l-.33,2.23c-.97,6.49.23,13.12,3.42,18.86l3.48,6.25s1.67,3.95,4.17,2.75"/><path class="c" d="m143.81,369.46c.94,1.69.35,3.82-1.33,4.78-1.76,1.01-4,.34-4.91-1.47l-2.63-5.2c-2.27-4.5-3.32-9.52-3.03-14.55l.34-5.92"/><path class="c" d="m165.59,334.76l-7.22,11.24c-3.24,5.05-3.4,11.49-.41,16.69"/><path class="c" d="m152.52,370.84l-4.24-8.57c-2.94-5.95-3.49-12.79-1.55-19.13"/><line class="c" x1="171.97" y1="334.95" x2="174.7" y2="325.34"/><polyline class="c" points="156.47 368.57 148.47 373.16 148.96 363.64"/><polyline class="c" points="148.48 373.16 151.89 379.11 154.14 377.81"/><path class="c" d="m140.65,312.38s-6.35,2.84-8.72,9.2l-4.06,10.9c-1.63,4.36-2.79,8.87-3.48,13.46-.74,4.91-.36,9.92.97,14.71l1.01,3.68c.5,1.8,1.21,3.53,2.13,5.15l.17.3c.88,1.55,2.85,2.1,4.4,1.21,1.48-.85,1.69-3.98.93-5.5"/><path class="c" d="m547.27,223.7c-3.76-5.02-8.19-9.81-11.89-13.62-6-6.17-8.87-9.15-16.57-12.98-13.62-6.77-27.24-13.54-40.86-20.3-.1-.05-.2-.1-.3-.15-15.37-7.64-32.07-12.24-49.18-13.59l-13.74-1.08"/><path class="c" d="m581.14,309.8c-2.08-8.56-6.25-20.64-10.87-33.02"/><path class="c" d="m437.09,218.93l45.62,22.86c4.75,2.38,9.27,5.4,13.26,8.78"/><path class="c" d="m571.94,301.12c-3.8-1.9-7.78-2.73-11.7-2.6"/><path class="c" d="m575.6,333.48l.46,2.21c1.33,6.43.51,13.11-2.35,19.02l-3.12,6.44s-1.44,4.04-4,2.98c0,0-4.05-.59-3.22-3.98"/><path class="c" d="m571.98,358.28c-.84,1.74-.13,3.83,1.6,4.7,1.81.91,4.01.11,4.82-1.75l2.33-5.34c2.01-4.62,2.77-9.69,2.2-14.69l-.68-5.89"/><path class="c" d="m554.92,334.02l1.2,1.65c3.52,4.86,4.05,11.27,1.36,16.64"/><path class="c" d="m571.91,301.11s6.5,2.48,9.23,8.69l4.67,10.65c1.87,4.26,3.29,8.7,4.24,13.24,1.02,4.86.92,9.89-.13,14.74l-.81,3.73c-.39,1.82-1.01,3.59-1.83,5.26l-.15.31c-.79,1.6-2.73,2.25-4.33,1.45-1.53-.77-1.92-3.87-1.24-5.44"/><path class="c" d="m557.48,352.32l-2.92,7.61c-.81,2.11.28,4.48,2.4,5.24,1.96.7,4.12-.2,5.01-2.08l1.39-2.94,3.74-8.79c2.6-6.1,2.77-12.97.46-19.19"/><path class="c" d="m261.11,412.88l-1.97,47.23c-.55,26.09-9.99,51.21-26.75,71.21l-83.38,92.97,103.52,24.02,50.76-62.91c29.38-36.29,52.93-76.94,69.79-120.48l4.97-12.83c2.32-5.98,10.81-5.9,13.01.13l9.96,27.37c9.21,25.29,12.2,52.42,8.74,79.11l-12.78,98.61,93.57,4.39,13.44-87.38c.17-1.13.34-2.25.49-3.38,6.31-45.57-3.14-91.93-25.93-131.89l-17.81-31.24"/><path class="c" d="m216.55,639.96l-.07,1.41c0,.17,0,.33,0,.5l.11,3.54c.17,5.51,3.5,10.44,8.55,12.64,5.58,2.69,11.56,4.25,17.65,4.62l7.84.47c6.37.38,11.37,6.06,11.45,12.98,0,0,1.92,30.52-15.81,32.37l-19.01,1.94c-16.6,1.67-24.06-3.1-24.06-3.1l-25.63-12.8-5.77-14.17-7.33,11.06-18.64-8.01s-.72-31.78.46-42.29c1.02-9.07,7.3-15.75,7.3-15.75"/><path class="c" d="m146.03,663.32l55.05,27.45c9.24,4.62,19.44,6.51,29.56,5.49l29.77-2.99"/><line class="c" x1="164.46" y1="691.41" x2="176.29" y2="691.41"/><path class="c" d="m415.54,658.17l-.5,45.81,18.64,8.01,7.33-11.06,5.77,14.17,25.63,12.8s7.46,4.77,24.06,3.1l19.01-1.94c17.74-1.85,15.82-32.37,15.82-32.37-.08-6.92-5.08-12.6-11.45-12.98l-7.83-.47c-6.09-.37-12.07-1.93-17.65-4.62-5.06-2.21-8.39-7.13-8.56-12.64l-.04-4.52"/><path class="c" d="m415.25,683.9l55.05,27.45c9.24,4.62,19.44,6.51,29.56,5.49l29.77-2.99"/><path class="c" d="m509.44,295.43h0c10.34,2.78,21.26,2.51,31.45-.78l20.8-6.72-5.4,39.35c-4.1,29.88-32.38,50.23-62.01,44.62l-1.95-.39"/><line class="c" x1="364.7" y1="299.41" x2="425.78" y2="323.52"/><line class="c" x1="442.23" y1="250.93" x2="439.08" y2="280.19"/><line class="c" x1="487.56" y1="245.35" x2="465.16" y2="258.79"/><line class="c" x1="442.23" y1="250.93" x2="464.34" y2="237.4"/><polyline class="c" points="476.45 262.65 464.12 271.3 465.16 258.79"/><line class="c" x1="476.45" y1="262.65" x2="498.39" y2="249.07"/><line class="c" x1="487.56" y1="245.35" x2="489" y2="254.88"/><path class="c" d="m467.52,268.91l44.94,15.4c6.61,2.27,13.89,1.41,19.8-2.33l12.63-8"/><line class="c" x1="441.26" y1="259.92" x2="464.41" y2="267.85"/><path class="c" d="m476.45,262.65l36.11,12.37c6.7,2.29,14.07,1.38,20.01-2.47l11.89-7.71.48,10.24c.19,4.12-1.82,8.04-5.29,10.27l-7.03,4.53c-6.33,4.09-13.79,6.06-21.31,5.64l-1.96-.11c-6.61-.37-12.71,3-16,8.46"/><line class="c" x1="442.23" y1="250.93" x2="465.16" y2="258.79"/><line class="c" x1="464.34" y1="237.4" x2="487.56" y2="245.35"/><line class="c" x1="433.45" y1="271.81" x2="440.22" y2="269.59"/><line class="c" x1="544.46" y1="264.85" x2="498.39" y2="249.07"/><line class="c" x1="508.97" y1="231.64" x2="506.78" y2="251.94"/><line class="c" x1="554.3" y1="226.06" x2="531.9" y2="239.49"/><line class="c" x1="508.97" y1="231.64" x2="531.08" y2="218.11"/><polyline class="c" points="543.19 243.36 530.86 252 531.9 239.49"/><line class="c" x1="543.19" y1="243.36" x2="565.13" y2="229.77"/><line class="c" x1="554.3" y1="226.06" x2="555.74" y2="235.59"/><path class="c" d="m534.26,249.62l44.94,15.4c6.61,2.27,13.89,1.41,19.8-2.33l12.63-8"/><line class="c" x1="508" y1="240.62" x2="531.15" y2="248.55"/><path class="c" d="m543.19,243.36l36.11,12.37c6.7,2.29,14.07,1.38,20.01-2.47l11.89-7.71.48,10.24c.19,4.12-1.82,8.04-5.29,10.27l-7.02,4.53c-6.33,4.09-13.79,6.06-21.31,5.64l-1.96-.11c-8.17-.46-15.57,4.8-17.83,12.66l-.02.25"/><line class="c" x1="508.97" y1="231.64" x2="531.9" y2="239.49"/><line class="c" x1="531.08" y1="218.11" x2="554.3" y2="226.06"/><line class="c" x1="611.2" y1="245.56" x2="565.13" y2="229.77"/><path class="c" d="m393.86,382.72c-35.79,15.12-60.49,8.43-73.12,2.16-5.17-2.57-8.98-7.13-10.95-12.56-.12-.33-.25-.65-.41-.97-1.27-2.57-3.7-4.31-5.87-6.17-11.41-9.83-16.94-26.01-13.95-40.77,1.31-6.46,4.13-12.76,3.7-19.33-.43-6.66-4.15-12.66-5.46-19.21-2.57-12.85,4.31-25.51,10.94-36.82,1.77-3.02,3.67-6.17,6.71-7.91,3.62-2.07,8.07-1.7,12.22-2.16,10.81-1.22,20.26-8.43,31.09-9.58,10.42-1.1,20.66,3.55,31.14,3.48,5.58-.03,11.07-1.41,16.64-1.65,5.57-.25,11.61.86,15.48,4.87,2.91,3.02,4.19,7.24,6.7,10.59,5.52,7.34,16.34,9.76,20.55,17.92l1.23,2.28"/><path class="c" d="m291.93,298.51s13.02-28.45,30.34-33.66c17.32-5.22,27.79-15.07,35.04-15.78,7.25-.71,36.84,13.11,36.84,13.11l38.61,14.32"/><path class="c" d="m357.31,249.07s-27.24-12.71-33.43-11.4"/><line class="c" x1="433.68" y1="712" x2="445.52" y2="712"/></g></svg>