<?xml version="1.0" encoding="UTF-8"?>
<svg id="e" xmlns="http://www.w3.org/2000/svg" version="1.1" viewBox="0 0 1080 1080">
  <defs>
    <style>
      .cls-1 {
        fill: none;
      }

      .cls-1, .cls-2, .cls-3, .cls-4 {
        stroke: #000;
        stroke-linecap: round;
        stroke-linejoin: round;
      }

      .cls-2 {
        fill: #e1e2de;
      }

      .cls-3, .cls-4, .cls-5 {
        fill: #fcfdf7;
      }

      .cls-4 {
        stroke-width: 1px;
      }

      .cls-5 {
        stroke-width: 0px;
      }
    </style>
  </defs>
  <g id="f">
    <rect class="cls-5" width="1080" height="1080"/>
  </g>
  <path class="cls-2" d="M495.7,643h94.8v364.8c0,26.2-21.2,47.4-47.4,47.4h0c-26.2,0-47.4-21.2-47.4-47.4v-364.9h0Z"/>
  <path class="cls-2" d="M192.5,377.8h94.8v364.8c0,26.2-21.2,47.4-47.4,47.4h0c-26.2,0-47.4-21.2-47.4-47.4v-364.9h0Z"/>
  <path class="cls-2" d="M803.2,377.8h94.8v364.8c0,26.2-21.2,47.4-47.4,47.4h0c-26.2,0-47.4-21.2-47.4-47.4v-364.9h0Z"/>
  <path class="cls-3" d="M898.8,386.7v70.7c0,16-6.4,31.4-17.7,42.7l-291.3,291.3c-24.9,24.9-65.2,24.9-90.1,0L210,501.8c-12.4-12.4-19.3-29.1-19.3-46.6v-67.8"/>
  <rect class="cls-4" x="279.3" y="121.8" width="530.9" height="530.9" rx="57.2" ry="57.2" transform="translate(-114.3 498.6) rotate(-45)"/>
  <path class="cls-3" d="M400,691.9l-37.1,37.5c-33.8,34.3-89,34.7-123.3.9h0c-19.8-19.5-28.3-46.1-25.5-71.7,2.1-18.8,10.2-37.1,24.6-51.6l65.4-62.9"/>
  <path class="cls-3" d="M417.3,632.7l-58.2,59c-33.8,34.3-89,34.7-123.3.9h0c-34.3-33.8-34.7-89-.9-123.3l58.2-59"/>
  <g id="m">
    <path class="cls-3" d="M782.3,271v124.6c-2.1,131.5-110.4,236.4-241.9,234.2-131.5-2.2-236.4-110.5-234.2-242v-111.1"/>
  </g>
  <g id="n">
    <circle class="cls-3" cx="544.3" cy="262.8" r="238.2"/>
    <line class="cls-1" x1="379.3" y1="91.1" x2="709.3" y2="434.6"/>
    <line class="cls-1" x1="716" y1="97.8" x2="372.6" y2="427.8"/>
    <g id="o">
      <line class="cls-1" x1="367.1" y1="103.7" x2="531.6" y2="274.9"/>
      <line class="cls-1" x1="356.2" y1="117.2" x2="519.5" y2="287.1"/>
      <line class="cls-1" x1="345.3" y1="132.3" x2="506.1" y2="299.6"/>
      <line class="cls-1" x1="335.4" y1="146.8" x2="494" y2="311.9"/>
      <line class="cls-1" x1="326.4" y1="165.1" x2="479.3" y2="324.2"/>
      <line class="cls-1" x1="319.4" y1="182.6" x2="467.2" y2="336.4"/>
      <line class="cls-1" x1="313.5" y1="203.3" x2="454.1" y2="349.6"/>
      <line class="cls-1" x1="308.7" y1="225.8" x2="439.5" y2="362"/>
      <line class="cls-1" x1="306.4" y1="248.2" x2="427.4" y2="374.2"/>
      <line class="cls-1" x1="306.8" y1="274.5" x2="415" y2="387.2"/>
      <line class="cls-1" x1="310.2" y1="305.7" x2="400.4" y2="399.6"/>
      <line class="cls-1" x1="320" y1="340.7" x2="388.3" y2="411.8"/>
      <line class="cls-1" x1="721.4" y1="421.1" x2="557.6" y2="250.4"/>
      <line class="cls-1" x1="732.3" y1="407.7" x2="569.9" y2="238.4"/>
      <line class="cls-1" x1="743.2" y1="392.5" x2="583.3" y2="225.8"/>
      <line class="cls-1" x1="753.2" y1="378.1" x2="595.5" y2="213.8"/>
      <line class="cls-1" x1="762.2" y1="359.8" x2="609.4" y2="200.5"/>
      <line class="cls-1" x1="769.2" y1="342.3" x2="622" y2="188.8"/>
      <line class="cls-1" x1="775" y1="321.6" x2="635.2" y2="175.9"/>
      <line class="cls-1" x1="780" y1="299.1" x2="649.2" y2="162.8"/>
      <line class="cls-1" x1="782.2" y1="276.6" x2="661.3" y2="150.6"/>
      <line class="cls-1" x1="781.8" y1="250.4" x2="673.9" y2="138.2"/>
      <line class="cls-1" x1="778.5" y1="219.2" x2="687.5" y2="125.3"/>
      <line class="cls-1" x1="768.7" y1="184.2" x2="700.5" y2="113.2"/>
      <line class="cls-1" x1="385.9" y1="441.1" x2="555.9" y2="275.4"/>
      <line class="cls-1" x1="399.4" y1="451.9" x2="568.2" y2="287.4"/>
      <line class="cls-1" x1="414.7" y1="462.7" x2="580.9" y2="300.7"/>
      <line class="cls-1" x1="429.2" y1="472.5" x2="593.1" y2="312.7"/>
      <line class="cls-1" x1="447.5" y1="481.4" x2="605.6" y2="327.3"/>
      <line class="cls-1" x1="465.1" y1="488.2" x2="617.9" y2="339.3"/>
      <line class="cls-1" x1="485.9" y1="493.9" x2="631.2" y2="352.2"/>
      <line class="cls-1" x1="508.5" y1="498.6" x2="643.7" y2="366.8"/>
      <line class="cls-1" x1="530.9" y1="500.7" x2="656" y2="378.8"/>
      <line class="cls-1" x1="557.2" y1="500.1" x2="669" y2="391.1"/>
      <line class="cls-1" x1="588.3" y1="496.5" x2="681.5" y2="405.6"/>
      <line class="cls-1" x1="623.2" y1="486.5" x2="693.8" y2="417.7"/>
      <line class="cls-1" x1="704.5" y1="84.2" x2="534.2" y2="249.6"/>
      <line class="cls-1" x1="691" y1="73.4" x2="521.9" y2="237.6"/>
      <line class="cls-1" x1="675.7" y1="62.6" x2="509.3" y2="224.3"/>
      <line class="cls-1" x1="661.2" y1="52.8" x2="497" y2="212.2"/>
      <line class="cls-1" x1="642.9" y1="43.8" x2="484.6" y2="197.7"/>
      <line class="cls-1" x1="625.3" y1="37" x2="472.3" y2="185.6"/>
      <line class="cls-1" x1="604.6" y1="31.2" x2="459" y2="172.6"/>
      <line class="cls-1" x1="582" y1="26.5" x2="446.6" y2="158.1"/>
      <line class="cls-1" x1="559.6" y1="24.3" x2="434.3" y2="146"/>
      <line class="cls-1" x1="533.3" y1="24.9" x2="421.3" y2="133.7"/>
      <line class="cls-1" x1="502.2" y1="28.4" x2="408.8" y2="119.2"/>
      <line class="cls-1" x1="467.2" y1="38.4" x2="396.5" y2="107.1"/>
    </g>
  </g>
</svg>