<?xml version="1.0" encoding="UTF-8"?><svg id="a" xmlns="http://www.w3.org/2000/svg" viewBox="0 0 1080 1080"><defs><style>.b{fill:none;}.b,.c,.d,.e{stroke:#7e6044;stroke-linecap:round;stroke-linejoin:round;stroke-width:1.5px;}.c{fill:#fef9bb;}.d{fill:#fff;}.e{fill:#7e6044;}</style></defs><path class="d" d="M434.19,956.82c-3.44,5.88-9.33,13.21-17.15,15.17-10.28,2.57-47.25,1.71-69.48,2.84-10.24.52-11.22,14.22-8.51,24.1l6.13,34.45h121.9s28.2-24.89,28.2-24.89l3.72,24.89,81.04.32.58-76.87"/><line class="d" x1="580.48" y1="1020.02" x2="498.12" y2="1020.5"/><line class="d" x1="480.43" y1="1020.53" x2="343.16" y2="1020.05"/><path class="d" d="M524.41,956.56c-3.44,5.88-9.33,13.21-17.15,15.17-10.28,2.57-47.25,1.71-69.48,2.84-10.24.52-11.22,14.22-8.51,24.1l6.13,34.45h121.9s28.2-24.89,28.2-24.89l3.72,24.89,81.04.32.58-76.87"/><path class="d" d="M479.03,134.33c-.58-3.79-.88-7.68-.88-11.63,0-42.19,34.2-76.39,76.39-76.39s76.39,34.2,76.39,76.39c0,5.97-.68,11.78-1.98,17.36"/><circle class="e" cx="560.07" cy="103.68" r="3.92"/><circle class="e" cx="510.17" cy="103.68" r="3.92"/><path class="b" d="M533.13,103.67l-7.8,17.26c-4.05,8.97,2.51,19.12,12.34,19.12h7.56"/><path class="d" d="M424.92,539.75l-50.57,158.56c-17.58,49.66-19.16,103.59-4.52,154.2l30.1,104.05h275.14l-39.89-97.3c-21.33-52.02-24.66-109.67-9.46-163.8l43.72-155.71"/><path class="d" d="M673.76,499.17c8.59,41.14-15.3,51.68-29.12,56.59-10.42,3.7-45.73-5.95-88.37.36-3.06.45-6.14.64-9.22.62-8.72-.06-28.43-.81-67.91-4.75-47.5-4.73-51.68-9.34-54.23-12.24-8.11-9.23-10-20.36-10.48-21.66-1.8-4.88-2.19-10.62-1.73-17.22l2.03-40.31,274.59-2.52-15.55,41.13Z"/><path class="c" d="M729.72,465.43l11.07-42.53c18.42-70.76,18.42-145.27,0-216.03l-11.07-42.53c34.72,0,62.87-10.32,62.87-23.05s-28.15-23.05-62.87-23.05-62.87,10.32-62.87,23.05l-30.65-6.29c-53.92-11.07-109.42-11.13-163.37-.18l-31.86,6.47c-5.79-10.54-31.18-18.47-61.63-18.47-34.72,0-62.87,10.32-62.87,23.05s28.15,23.05,62.87,23.05l-.8,2.26c-32.73,92.78-32.45,194.53.8,287.11h0c-34.72,0-62.87,10.32-62.87,23.05s28.15,23.05,62.87,23.05c24.62,0,45.92-5.19,56.24-12.75h0c72.63,21.43,149.51,22.3,222.57,2.52l9.29-2.52c4.2,11.23,30.47,19.89,62.27,19.89,34.72,0,62.87-10.32,62.87-23.05s-28.15-23.05-62.87-23.05Z"/><path class="b" d="M528.75,388.15c-22.39-30.86-14.99-79.29-10.2-100.57"/><path class="b" d="M514.04,317.57l-10.32-4.12c-20.79-8.3-36.9-25.64-43.99-47.33l-3.67-11.23,14.11,6.52c18.91,8.74,33.46,25.1,40.2,45.22l3.67,10.95Z"/><path class="b" d="M514.46,317.64l7.73-8.13c15.57-16.38,37.43-24.82,59.67-23.04l11.52.92-11.36,10.77c-15.23,14.44-35.6,21.79-56.3,20.29l-11.26-.81Z"/><path class="b" d="M518.55,287.58l-.48-11.35c-.97-22.85,8.02-44.96,24.52-60.35l8.55-7.97-.13,15.87c-.18,21.27-8.92,41.52-24.16,55.95l-8.29,7.85Z"/><line class="d" x1="670.7" y1="1019.76" x2="588.34" y2="1020.24"/><line class="d" x1="570.65" y1="1020.27" x2="433.38" y2="1019.8"/><polygon class="d" points="660.92 303.11 636.01 303.33 610.19 318.73 615.85 375.36 632.78 390.59 642.06 388.09 649.64 387.75 655.37 388.98 660.92 303.11"/><path class="d" d="M650.78,388.1l-27.16,4.4-11.05,1.35c-6.57.8-13.21.81-19.79.03l-10.85-1.29c-4.73-1.17-7.84-5.68-7.27-10.51h0c.65-5.49,5.77-9.31,11.22-8.38l.8.14,30.96-4.72"/><path class="d" d="M618.98,372.59l-11.05,1.35c-6.57.8-13.21.81-19.79.03l-10.85-1.29c-4.73-1.17-7.84-5.68-7.27-10.51h0c.65-5.49,5.73-9.57,11.18-8.64l1.7.2,33.89-4.09"/><path class="d" d="M617.89,352.85l-11.05,1.35c-6.57.8-13.21.81-19.79.03l-10.85-1.29c-4.73-1.17-7.84-5.68-7.27-10.51h0c.65-5.49,5.7-9.48,11.15-8.55l1.13.13,34.09-3.52"/><path class="d" d="M642.79,302.85l-28.97-9.55c-5.76-1.9-11.91,1.48-13.41,7.36h0c-1.13,4.45.77,9.11,4.69,11.5l9.85,6.63"/><path class="d" d="M616.07,313.01l-7.36,1.35c-9.51,1.74-19.25,1.8-28.78.17l-.8-.14c-5.45-.93-10.57,2.89-11.22,8.38h0c-.57,4.84,2.54,9.34,7.27,10.51l10.85,1.29c6.57.78,13.22.77,19.79-.03l11.05-1.35"/><path class="d" d="M639.97,293.17l10.44,104.6,96.48-17.02c23.1-4.1,39.47-24.85,38.09-48.27h0c-1.49-25.16-22.84-44.5-48.03-43.49l-96.98,4.18Z"/><polygon class="d" points="389.12 305.3 411.53 294.41 441.5 296.71 461.64 349.93 453.27 371.11 443.84 373 436.9 376.07 432.32 379.73 389.12 305.3"/><path class="d" d="M436.04,376.89l26.28-8.15,10.49-3.71c6.24-2.21,12.19-5.15,17.73-8.78l9.14-5.98c3.71-3.15,4.5-8.58,1.83-12.65h0c-3.03-4.63-9.31-5.77-13.78-2.51l-.66.48-29.83,9.55"/><path class="d" d="M457.61,348.85l10.49-3.71c6.24-2.21,12.19-5.15,17.73-8.78l9.14-5.98c3.71-3.15,4.5-8.58,1.83-12.65h0c-3.03-4.63-9.39-6.02-13.85-2.76l-1.43.94-32.17,11.43"/><path class="d" d="M449.8,330.68l10.49-3.71c6.24-2.21,12.19-5.15,17.73-8.78l9.14-5.98c3.71-3.15,4.5-8.58,1.83-12.65h0c-3.03-4.63-9.33-5.95-13.79-2.69l-.95.62-32.09,12.03"/><path class="d" d="M405.24,297l21.69-21.44c4.31-4.26,11.33-3.98,15.28.62h0c2.99,3.48,3.36,8.5.92,12.39l-5.86,10.32"/><path class="d" d="M433.69,294.2l7.19-2.07c9.29-2.68,18.04-6.96,25.85-12.66l.66-.48c4.47-3.26,10.75-2.11,13.78,2.51h0c2.67,4.08,1.88,9.5-1.83,12.65l-9.14,5.98c-5.54,3.63-11.49,6.57-17.73,8.78l-10.49,3.71"/><path class="d" d="M403.46,287.08l37.21,98.31-93.97,27.71c-22.51,6.61-46.4-4.68-55.59-26.27h0c-9.87-23.19.65-50.02,23.65-60.32l88.7-39.43Z"/><path class="b" d="M506.08,956.17l-30.56-105.08c-14.64-50.61-13.06-104.53,4.52-154.2l25.58-72.27"/></svg>