<?xml version="1.0" encoding="utf-8"?>
<!-- Generator: $$$/GeneralStr/196=Adobe Illustrator 27.6.0, SVG Export Plug-In . SVG Version: 6.00 Build 0)  -->
<svg version="1.1" id="uuid-f563a2c6-a864-499b-82e0-eaf5db66c3e4"
	 xmlns="http://www.w3.org/2000/svg" xmlns:xlink="http://www.w3.org/1999/xlink" x="0px" y="0px" viewBox="0 0 960 841"
	 style="enable-background:new 0 0 960 841;" xml:space="preserve">
<style type="text/css">
	.st0{fill:none;stroke:#000000;stroke-linecap:round;stroke-linejoin:round;}
	.st1{fill:none;stroke:#000000;stroke-miterlimit:10;}
</style>
<path d="M145.4,224c13.8,0,27.4,2.3,40.6,6.8c31.6,10.8,57.2,33.4,71.9,63.4s16.8,64,6,95.6c-17.4,50.6-64.9,84.6-118.4,84.6
	c-13.8,0-27.4-2.3-40.6-6.8c-31.6-10.8-57.2-33.4-71.9-63.4s-16.8-64-6-95.6C44.4,258,92,224,145.4,224L145.4,224 M145.4,223
	C93,223,44,255.9,26.1,308.3C3.5,374.2,38.6,446,104.5,468.6c13.6,4.6,27.4,6.9,40.9,6.9c52.4,0,101.4-32.9,119.4-85.3
	c22.6-65.9-12.5-137.7-78.5-160.3C172.8,225.2,159,223,145.4,223L145.4,223L145.4,223z"/>
<g>
	<g>
		<path d="M155.7,324.2c-2.7,0-5-1.7-5.8-4.3c-1-3.2,0.8-6.6,4-7.6c0.6-0.2,1.2-0.3,1.8-0.3c2.7,0,5,1.7,5.8,4.3
			c1,3.2-0.8,6.6-4,7.6C156.9,324.2,156.3,324.2,155.7,324.2z"/>
		<path d="M155.7,312.6L155.7,312.6c2.4,0,4.6,1.6,5.3,3.9c0.9,2.9-0.7,6-3.7,7c-0.5,0.2-1.1,0.2-1.6,0.2c-2.4,0-4.6-1.6-5.3-3.9
			c-0.9-2.9,0.7-6,3.7-7C154.6,312.7,155.1,312.6,155.7,312.6 M155.7,311.6c-0.6,0-1.3,0.1-1.9,0.3c-3.5,1.1-5.4,4.8-4.3,8.2
			c0.9,2.8,3.5,4.6,6.3,4.6c0.6,0,1.3-0.1,1.9-0.3c3.5-1.1,5.4-4.8,4.3-8.2C161.1,313.4,158.5,311.6,155.7,311.6L155.7,311.6z"/>
	</g>
	<g>
		<path d="M237,305.1c-2.7,0-5-1.7-5.8-4.3c-0.5-1.5-0.3-3.2,0.4-4.6s2-2.5,3.6-3c0.6-0.2,1.2-0.3,1.8-0.3c2.7,0,5,1.7,5.8,4.3
			c0.5,1.5,0.3,3.2-0.4,4.6s-2,2.5-3.6,3C238.2,305,237.6,305.1,237,305.1z"/>
		<path d="M237,293.5L237,293.5c2.4,0,4.6,1.6,5.3,3.9c0.4,1.4,0.3,2.9-0.4,4.2c-0.7,1.3-1.9,2.3-3.3,2.7c-0.5,0.2-1.1,0.2-1.6,0.2
			c-2.4,0-4.6-1.6-5.3-3.9c-0.9-2.9,0.7-6,3.7-7C235.9,293.5,236.4,293.5,237,293.5 M237,292.5c-0.6,0-1.3,0.1-1.9,0.3
			c-3.5,1.1-5.4,4.8-4.3,8.2c0.9,2.8,3.5,4.6,6.3,4.6c0.6,0,1.3-0.1,1.9-0.3c3.5-1.1,5.4-4.8,4.3-8.2
			C242.4,294.3,239.8,292.5,237,292.5L237,292.5z"/>
	</g>
	<path class="st0" d="M199.6,307.8l19.3,25.1c10,13,3.3,32.1-12.8,35.9l-12.3,2.9"/>
</g>
<polyline class="st0" points="809.1,700 811.7,721 579.6,724.8 626.6,501.5 "/>
<path class="st0" d="M590.8,724.6l0.5,65.2l0.1,15l0.2,22.9l112.4-0.4l5.2-34.5l39.1,34.5h169.1l4.1-23l4.4-24.8
	c3.8-13.7,2.4-32.7-11.8-33.4c-30.8-1.6-82.1-0.4-96.4-3.9c-10.9-2.7-19-12.9-23.8-21"/>
<line class="st0" x1="591.5" y1="808.7" x2="705.3" y2="809.4"/>
<line class="st0" x1="729.8" y1="809.4" x2="920.3" y2="808.8"/>
<path class="st0" d="M834.1,378.3c8.2-4.8,18.3-12.9,21-23.8c3.6-14.3,2.4-65.6,3.9-96.4c0.7-14.2,19.7-15.6,33.4-11.8l47.8,8.5V424
	l-34.5,39.1l34.5,5.2l0.4,112.4l-106.7,0.8"/>
<line class="st0" x1="921.8" y1="581.3" x2="922.5" y2="467"/>
<line class="st0" x1="922.5" y1="442.5" x2="921.9" y2="252"/>
<path class="st0" d="M597.4,279.1c-6.2,1.2-12.2,2.9-18.2,5l-6.4,2.9c-16.2,7.3-31,17.3-43.8,29.6l-96.9,92.5"/>
<path class="st0" d="M793.4,569.1l40.7,29.6V355.4L680.3,288c-2.6-1.1-4.8-2-7.4-3"/>
<path class="st0" d="M449.8,152.5l-48,58c-8.7,10.5-13,23.9-12,37.5l0,0c1.8,25.5,6.7,50.7,14.6,75.1l30.8,95.3l47.4,140.3"/>
<path class="st0" d="M201.9,236.3C243.5,120.2,381.1,36.1,381.1,36.1c48.5-35.5,116-28.9,156.6,15.4l85.3,88.1l-95.2,96.5
	l-92.7-101.2"/>
<path class="st0" d="M157.1,619.4l-1.3,34.7c-0.9,23.6,18.6,42.8,42.2,41.7l74.8,0.3l-1.2,131.6l-126.2-1.5
	c-60-3.1-108.1-50.9-111.7-110.9c0,0-16.8-122.8,16-202.1c4.4-10.7,19.8-41.1,29.9-56.6"/>
<path class="st0" d="M272.8,704.6l39.8-20.2c4.3-2.2,9.5-1.8,13.4,1.2l0,0c6.2,4.6,6.9,13.7,1.4,19.2l-16.7,16.8
	c-2.7,2.7-2.2,7.3,1.1,9.3l0,0c1.8,1.1,4.1,1.2,6,0.1l19.9-11.2c11.2-6.3,19.8-16.4,24.2-28.4l1-2.8c2.8-7.6,11.8-10.9,18.9-6.8l0,0
	c5,2.9,7.5,8.7,6.2,14.3l-3.2,13.8c-2.9,12.3-10.3,23.1-20.7,30.2l-18.2,12.5"/>
<path class="st0" d="M399,707.1l153.8-273.4l31.6-53.8c5.2-8.9,11.7-16.8,19.4-23.7l0,0c10.1-9,22-15.9,34.9-20.2l5.5-1.8
	c5.9-1.9,11.9-3.4,18-4.1c2.1-0.2,4.2-0.4,6.4-0.5l0,0c20.7-1.1,40.5,4,57.4,13.9c27.7,16.2,45.7,44.9,49.5,76.7L809.1,700"/>
<path class="st0" d="M386.3,702.8c2.9-0.6,6-0.3,8.9,1.2l0,0c5.1,2.7,7.8,8.4,6.7,14.1l-2.7,13.9c-2.4,12.4-9.4,23.5-19.5,31
	l-17.7,13.2"/>
<path class="st0" d="M400.5,725.2c1,0.2,2.1,0.6,3.1,1.2l0,0c5.1,2.7,7.8,8.4,6.7,14.1l-2.7,13.9c-2.4,12.4-9.4,23.5-19.5,31
	l-17.7,13.2"/>
<path class="st0" d="M408.7,748.3c3.3,3,4.9,7.6,4,12.1l-2.7,13.9c-2.4,12.4-9.4,23.5-19.5,31l0,0c-11.5,8.5-25.4,13.2-39.7,13.2
	l-79.1,0.3"/>
<path class="st0" d="M536.8,227.6l15.9,41.7c1.7,4.5,5.9,7.7,10.7,8.1l0,0c7.7,0.7,14.3-5.5,13.9-13.3l-1.1-23.6
	c-0.2-3.9,3.3-6.9,7.1-6.1l0,0c2.1,0.4,3.8,1.9,4.5,3.9l7.3,21.6c4.1,12.2,3.7,25.4-1.1,37.3l-1.1,2.8c-3,7.5,1.5,16,9.4,17.7l0,0
	c5.6,1.2,11.4-1.4,14.2-6.5l6.8-12.4c6.1-11.1,7.8-24,4.9-36.3l-5.1-21.4"/>
<path class="st0" d="M619.8,305.1c1.7,2.4,4.3,4.2,7.4,5l0,0c5.6,1.4,11.4-1,14.4-5.9l7.3-12.1c6.5-10.8,8.8-23.7,6.3-36.1
	l-4.3-21.6"/>
<path class="st0" d="M645.4,298c0.9,0.5,2,0.9,3,1.2l0,0c5.6,1.4,11.4-1,14.4-5.9l7.3-12.1c6.5-10.8,8.8-23.7,6.3-36.1l-4.3-21.6"/>
<path class="st0" d="M667.3,286.2c4.5,0,8.4-2.2,10.8-6.1l7.3-12.1c6.5-10.8,8.8-23.7,6.3-36.1l0,0c-2.8-14-10-26.8-20.6-36.4
	l-54.6-49.4"/>
<line class="st1" x1="591.6" y1="827.7" x2="271.6" y2="827.7"/>
</svg>
