<?xml version="1.0" encoding="UTF-8"?>
<svg xmlns="http://www.w3.org/2000/svg" xmlns:xlink="http://www.w3.org/1999/xlink" version="1.1" viewBox="0 0 1190 1757">
  <defs>
    <style>
      .cls-1, .cls-2 {
        fill: none;
      }

      .cls-3, .cls-4 {
        fill: #f93d00;
      }

      .cls-5, .cls-6 {
        fill: #00c86c;
      }

      .cls-7 {
        fill: #ffd3a6;
      }

      .cls-2, .cls-8, .cls-9, .cls-10, .cls-11, .cls-4, .cls-12 {
        stroke: #000;
      }

      .cls-2, .cls-9, .cls-10, .cls-11, .cls-12 {
        stroke-linecap: round;
        stroke-linejoin: round;
      }

      .cls-13 {
        fill: #ff6969;
      }

      .cls-13, .cls-8, .cls-14, .cls-4, .cls-6 {
        stroke-miterlimit: 10;
      }

      .cls-13, .cls-14, .cls-6 {
        stroke: #1c1c1b;
      }

      .cls-8, .cls-14, .cls-15 {
        fill: #fffaa5;
      }

      .cls-10 {
        fill: #fff800;
      }

      .cls-16 {
        fill: #ff9d8f;
      }

      .cls-17 {
        fill: #009357;
      }

      .cls-18 {
        fill: #81c7ff;
      }

      .cls-19 {
        fill: #a86e4d;
      }

      .cls-11 {
        fill: lime;
      }

      .cls-20 {
        fill: #fdffff;
      }

      .cls-21 {
        fill: #0085ff;
      }

      .cls-22 {
        clip-path: url(#clippath);
      }

      .cls-12 {
        fill: #ffc734;
      }

      .cls-23 {
        fill: #8d67a8;
      }
    </style>
    <clipPath id="clippath">
      <rect class="cls-1" width="1190" height="1757"/>
    </clipPath>
  </defs>
  <!-- Generator: Adobe Illustrator 28.7.1, SVG Export Plug-In . SVG Version: 1.2.0 Build 142)  -->
  <g>
    <g id="b">
      <g class="cls-22">
        <g>
          <polygon class="cls-7" points="-.3 1350.7 1190.3 1348.4 1190.3 1757.2 -.3 1757.2 -.3 1350.7"/>
          <polygon class="cls-15" points="-.3 -.2 -.3 1350.7 1190.3 1348.4 1190.3 -.2 -.3 -.2"/>
          <polygon class="cls-18" points="382.8 1178.4 382.8 794.8 1190.2 794.8 1190.2 1178.8 382.8 1178.4"/>
          <polygon class="cls-18" points="-.3 794.8 176.3 794.8 176.3 1350.3 -.3 1350.7 -.3 794.8"/>
          <polygon class="cls-3" points="939.4 1349.6 958.1 1332.8 957.5 1299.8 977.5 1270.8 959.7 1264.3 956.7 1239.8 928.9 1241.6 928.9 1216.2 907.1 1220.3 904.7 1210.1 901 1191.7 877.7 1196.8 847.5 1172.9 816.6 1179.1 814.5 1177.6 779.2 1141.2 742 1149.7 740.7 1149.6 719.5 1119.9 681.6 1128.6 654.8 1108.8 625.5 1124.9 600.8 1113.9 582.3 1134.9 563.8 1131.2 552.3 1152.2 532.1 1156.8 526.1 1173.8 506.7 1176.2 502.8 1188.2 502.5 1189.1 469.4 1178.4 453.4 1185.7 433.3 1182.1 418.2 1194.8 260.8 1238.2 205.7 1336.2 167.9 1352.8 55.2 1401.6 50.4 1521.9 50.4 1522.8 411.6 1680.8 877.8 1415.4 939.4 1349.6"/>
          <polygon class="cls-18" points="830.5 1336.2 816.4 1328.4 813 1315.3 786.2 1281.2 764.7 1287.4 745.2 1317.3 713 1311.8 600.8 1364.2 260.8 1238.2 205.7 1336.2 559.5 1480.3 783.7 1360.8 801.1 1358.6 810.4 1342.2 830.5 1336.2"/>
          <polygon class="cls-18" points="466.8 90.6 466.8 467.6 714.2 468 714.2 90.9 466.8 90.6"/>
          <polygon class="cls-18" points="858.7 88.8 858.7 465.6 1106.2 465.9 1106.2 88.8 858.7 88.8"/>
          <polygon class="cls-18" points="74.8 90.9 74.8 279.1 322.3 279.5 322.3 90.6 74.8 90.9"/>
          <polygon class="cls-16" points="382.8 794.8 304.9 920 306.9 923.5 310.7 928.5 316.2 933.8 321 938 327.4 942 332 945 338.6 948.2 345.6 950.3 353.7 952.2 361.5 953 369.5 953 377.6 952 384.3 950.7 392.5 948 400.9 943.8 409.9 937.5 417 931.2 422.7 924.8 425.7 919.7 485.7 794.8 382.8 794.8"/>
          <polygon class="cls-21" points="485.7 794.8 425.8 920 427.8 923.5 431.5 928.5 437.1 933.8 441.9 938 448.2 942 452.9 945 459.5 948.2 466.4 950.3 474.5 952.2 482.3 953 490.3 953 498.4 952 505.2 950.7 513.3 948 521.7 943.8 530.8 937.5 537.8 931.2 543.5 924.8 546.5 919.7 606.5 794.8 485.7 794.8"/>
          <polygon class="cls-16" points="606.1 794.8 546.2 920 548.1 923.5 551.9 928.5 557.5 933.8 562.3 938 568.6 942 573.2 945 579.9 948.2 586.8 950.3 594.9 952.2 602.7 953 610.7 953 618.8 952 625.6 950.7 633.7 948 642.1 943.8 651.2 937.5 658.2 931.2 663.9 924.8 666.9 919.7 726.9 794.8 606.1 794.8"/>
          <polygon class="cls-21" points="726.8 794.8 666.9 920 668.9 923.5 672.6 928.5 678.2 933.8 683 938 689.3 942 694 945 700.6 948.2 707.5 950.3 715.6 952.2 723.5 953 731.4 953 739.5 952 746.3 950.7 754.4 948 762.9 943.8 771.9 937.5 778.9 931.2 784.7 924.8 787.7 919.7 847.7 794.8 726.8 794.8"/>
          <polygon class="cls-16" points="847.4 794.8 787.5 920 789.5 923.5 793.2 928.5 798.8 933.8 803.6 938 809.9 942 814.6 945 821.2 948.2 828.1 950.3 836.2 952.2 844 953 852 953 860.1 952 866.9 950.7 875 948 883.5 943.8 892.5 937.5 899.5 931.2 905.2 924.8 908.3 919.7 968.2 794.8 847.4 794.8"/>
          <polygon class="cls-21" points="968 794.8 908.1 920 910.1 923.5 913.8 928.5 919.4 933.8 924.2 938 930.5 942 935.2 945 941.8 948.2 948.7 950.3 956.8 952.2 964.7 953 972.6 953 980.7 952 987.5 950.7 995.6 948 1004.1 943.8 1013.1 937.5 1020.2 931.2 1025.9 924.8 1028.9 919.7 1088.9 794.8 968 794.8"/>
          <polygon class="cls-16" points="1088.5 794.8 1028.6 920 1030.6 923.5 1034.4 928.5 1039.9 933.8 1044.7 938 1051.1 942 1055.7 945 1062.3 948.2 1069.3 950.3 1077.4 952.2 1085.2 953 1093.2 953 1101.3 952 1108 950.7 1116.2 948 1124.6 943.8 1133.6 937.5 1140.7 931.2 1146.4 924.8 1149.4 919.7 1190 835.1 1190 794.8 1088.5 794.8"/>
          <polygon class="cls-21" points="1190 835.3 1149.3 920 1151.2 923.5 1155 928.5 1160.5 933.8 1165.4 938 1171.7 942 1176.3 945 1182.9 948.2 1190 950.3 1190 835.3"/>
          <polygon class="cls-19" points="1045.7 1421.4 1047.3 1354.1 1121.7 1321.1 1190 1348.5 1190 1455.1 1155.2 1472.3 1045.7 1421.4"/>
          <polygon class="cls-19" points="1051.1 1349.8 1049.9 1352.2 1045.1 1355.8 1015 1376.7 1012.9 1378.7 1011.2 1378.6 947.8 1374.3 939.4 1349.6 958.1 1332.8 957.5 1299.8 977.5 1270.8 959.7 1264.3 956.7 1239.8 928.9 1241.6 928.9 1216.2 907.1 1220.3 901 1191.7 877.7 1196.8 847.5 1172.9 816.6 1179.1 779.2 1141.2 742 1149.7 740 1148.2 719.5 1119.9 681.6 1128.6 654.8 1108.8 625.5 1124.9 600.8 1113.9 582.3 1134.9 563.8 1131.2 552.3 1152.2 532.1 1156.8 526.1 1173.8 506.7 1176.2 502.5 1189.1 469.4 1178.4 453.4 1185.7 445.2 1184.3 418.7 1096.3 471.3 1053.2 555.9 1046.2 567.2 1035.7 649.3 1033.2 665.1 1099.6 689.3 1046.2 769.1 1068.9 811.1 1114.4 818.2 1111.6 832 1108.8 844 1109.2 851.3 1110.7 856.8 1112.2 858.8 1111.6 885.2 1114.2 888.9 1112.6 895.9 1110.4 900.9 1109.2 910 1109.3 917.8 1110.8 924.5 1114.1 928.5 1117.9 930.5 1118.7 941.5 1119.2 941.5 1149.9 989.2 1146.8 1018.2 1147.8 1044.9 1148.8 1047.4 1243.8 1049.2 1244.4 1050.5 1245.8 1050.8 1247.7 1051.6 1259.4 1051.8 1269.8 1052.5 1284.6 1052.7 1297.2 1052.7 1310.7 1052.7 1322.9 1052.1 1342.8 1051.7 1346.2 1051.1 1349.8"/>
          <polygon class="cls-21" points="74.8 279.1 74.8 467.6 322.4 467.8 322.3 279.5 74.8 279.1"/>
          <polygon class="cls-20" points="97 467 94.3 460 93.5 454.4 94.6 448.4 100.2 439 105.9 432.5 111.3 428.2 117.3 424.2 122.1 422 127.4 420.4 134.6 418.9 140.3 418.5 145.7 418.9 150.6 419.8 155.1 421 159.9 422.8 165.9 424.5 170.4 426.1 177.8 428 184 429.5 191.8 431 198.6 431.6 208.4 432.5 218 433.1 223.1 434.1 228 435.5 232.5 437.5 237.9 439.5 245.7 442.2 253.1 443.5 258.8 443.9 258.4 440.6 258.8 436 260.4 433.5 261.9 431.8 264.8 429.9 267.2 428.8 267.7 422.9 268.7 421.5 270.5 421.1 271.8 421.6 273.3 423 277 428.4 279.3 427.5 284.4 426.9 285.5 426.4 288.2 421 289.2 420 291 419.9 292.3 420.5 293.3 423.8 295.6 432 297.5 435.5 299 440.5 299 446 297.6 451.6 294.4 457.5 287.8 467.6 97.2 467.6 97 467"/>
          <polygon class="cls-17" points="499.9 1077.3 490.8 1068.8 481.3 1060.8 470.5 1052.7 462.5 1047.2 453.4 1041.9 444.6 1037.8 437.8 1035.2 430.4 1033.2 424.1 1032.2 418.7 1031.8 410.5 1032.8 404.1 1034.8 399.9 1036.9 395.6 1039.8 392.4 1043.8 390.3 1048.3 389.8 1053.7 390.3 1058.4 391.8 1063.1 394.5 1068.4 397.7 1073.9 400.9 1078.4 405 1082.8 409.9 1088.6 413.7 1091.8 418.7 1096.3 510.8 1086.2 508 1085.2 504.4 1083.1 501.3 1079.2 499.9 1077.3"/>
          <polygon class="cls-5" points="491.8 1068.6 491.9 1068.3 497.1 1060.8 502.1 1055.2 508.6 1049.6 511.6 1047.6 514.8 1046.2 517.8 1045.2 522.8 1043.8 530.1 1042.9 535.3 1043.2 538.7 1044.2 541 1045.2 543.5 1047.6 545.7 1051.2 546.9 1054.7 527.2 1073.4 529.5 1084.2 499.9 1077.3 491.3 1069.3 491.8 1068.6"/>
          <polygon class="cls-23" points="729.2 1057.7 734.2 1058.8 735.9 1057.9 737 1056.3 737.5 1055.2 737.5 1052.7 736.4 1050.7 734.4 1049.3 731.5 1048.9 731.5 1046.9 730.5 1044.4 728.2 1042.8 726 1042.3 723.5 1043.3 722.2 1044.7 720.6 1043.9 718.2 1044.2 717.1 1045.1 715.8 1043.7 713.7 1041.8 711.5 1041.8 709.3 1042.1 707.8 1043.2 707.1 1044.4 704.9 1043.9 702.6 1044.4 700.6 1045.4 699.6 1047.1 699.4 1048.2 699.4 1049.1 729.2 1057.7"/>
          <path class="cls-5" d="M801.7,1125.2l1.1-3.3,2.3-3.2,4.1-2.8s2.7-1.8,3.2-2.1,5.8-2.3,5.8-2.3l13.8-2.9,12.3.5,7.5,1.3,5,1.9,3.4,1.8,3.2,2.3,1.7,3,.8,2.4v2.4l-1,2.7-2.2,3.5-3.3,2.6-57.7-7.8h0Z"/>
          <polygon class="cls-17" points="861.7 1133.2 864.3 1130.3 868.4 1126.2 873 1122.3 877.3 1119.2 882.5 1115.8 886.5 1113.7 894.4 1110.9 899.9 1109.4 907.5 1109.2 911.6 1109.3 914.9 1110.2 922.4 1112.8 926 1115.8 929.9 1119.2 932.2 1121.7 884.3 1136.8 861.7 1133.2"/>
          <path class="cls-23" d="M925.2,1167.3l-1.3-1.1-1.3-3.5.8-2.6,1.8-2.2,2.9-1.8,4.2-1.1,2.1-.2,1-1.5,2.1-1.6,4-1.8,3.3-.2h.7l.7-1.1,1-2.2,4.9-2.4,3.9-.8,1.6.2,1.1-.3,1.9-1.2,2.9-1.3,2-.5h2.7c0,0,3.3,1.3,3.3,1.3l2.9,3.6,1.9-.7,3.7-1.7h4c0,0,2.4,1.3,2.4,1.3l2,2.1.9,1.2,6.9.4,2-1.5,2.7-1.1,2.6-.7,3.4.3,2.7,1.6s1.9,1.6,2,1.8,1,2.3,1,2.3l2.5.6,1.2-.8,3.8-2.2,2.4-.7h2.6l2.9.9,1.8,1.9,1.8,2.6.7,3-.8,1.8-.9,1.4-3.2.6-2.2.8.2,2.1-19.8,12.5-79.3-6-1.1-1.5h0Z"/>
          <polygon class="cls-2" points="55.4 1401.6 418.5 1555.6 411.6 1680.8 50.3 1522.8 55.4 1401.6"/>
          <polyline class="cls-2" points="55.4 1401.6 205.7 1336.2 260.8 1238.2 600.8 1364.2 559.9 1480.3"/>
          <line class="cls-2" x1="559.9" y1="1480.3" x2="205.7" y2="1336.2"/>
          <path class="cls-9" d="M590.9,1598.7c-1.6,38.4-21.8,68.8-45.1,67.8s-40.8-32.9-39.2-71.3c1.6-38.4,21.8-68.8,45.1-67.8s40.8,32.8,39.2,71.3Z"/>
          <polyline class="cls-2" points="764.7 1287.4 745.1 1317.4 713 1311.8 600.8 1364.2"/>
          <polyline class="cls-2" points="801.2 1301.1 786.3 1281.3 764.7 1287.4 745.1 1256.2 706.9 1256.2 679.4 1235.3 619 1225.8 600.8 1205.8 559.9 1222.3 541 1197.1 504.9 1189.7 469.4 1178.4"/>
          <polyline class="cls-2" points="801.2 1301.1 813 1315.2 816.4 1328.3 830.5 1336.2 810.4 1342.2 801.2 1358.4 784.2 1360.6 770.6 1367.8 418.5 1555.6"/>
          <polyline class="cls-2" points="928.9 1241.6 928.9 1215.9 907 1220.4 900.9 1191.7 877.2 1196.9"/>
          <polyline class="cls-2" points="941.4 1347.7 958.2 1332.9 957.8 1299.8 977.5 1270.6 959.9 1264.3 956.6 1239.8 928.9 1241.6"/>
          <line class="cls-2" x1="590.2" y1="1579.2" x2="866.3" y2="1421.8"/>
          <line class="cls-2" x1="411.6" y1="1680.8" x2="509.2" y2="1624.8"/>
          <polyline class="cls-2" points="532.1 1156.8 552.4 1152.1 563.9 1131.4 582.3 1134.9 600.8 1113.9 625.4 1125.1 654.9 1108.8 681.4 1128.4 719.5 1119.9 741.3 1149.8 779.2 1141.2 815.9 1178.9 847.3 1172.8 877.2 1196.9 881.6 1217.2 869.1 1230.3 877.2 1251.1 852.2 1261.1 849.1 1287.4 830.5 1299.4 830.5 1336.2"/>
          <polyline class="cls-2" points="502.5 1189.1 506.7 1176.1 526 1173.8 532.1 1156.8"/>
          <polyline class="cls-2" points="260.8 1238.2 418.5 1194.8 433.3 1181.9 453.2 1185.8 469.4 1178.4"/>
          <line class="cls-2" x1="726" y1="1501.8" x2="713" y2="1311.8"/>
          <path class="cls-2" d="M738.9,1146.4l30.2-77.6c-24.4-6.6-79.8-22.7-79.8-22.7l-29.9,65.9"/>
          <path class="cls-2" d="M790.5,1123.4c30.7,5.2,63.1,8.2,93.8,13.4v58.4"/>
          <polyline class="cls-2" points="856.4 1111.9 858.7 1111.6 885.4 1114.1"/>
          <polyline class="cls-2" points="790.5 1152.8 790.5 1144.9 790.5 1123.4 803 1121.2"/>
          <path class="cls-2" d="M948.3,1373.9c24.2,2.6,38.3,2,62.5,4.6.8,0,1.7.2,2.4-.2,1.2-.7,1.4-2.2,1.5-3.6,1.5-29,.9-58.1-1.8-87,0-1-.2-2.1-.8-3-.8-1.1-2.3-1.4-3.7-1.7-14.1-2.6-23-3.7-37.3-2.8"/>
          <path class="cls-2" d="M1028.5,1148.2c5.2.2,10.5.4,16.4.7"/>
          <path class="cls-2" d="M1011.4,1147.7c2.6,0,5.1,0,7.7.2"/>
          <path class="cls-2" d="M989.2,1146.8c2.3,0,4.6.2,6.8.3"/>
          <line class="cls-2" x1="911.9" y1="1167.1" x2="922.9" y2="1162.2"/>
          <path class="cls-9" d="M949.7,1397.2c-1.6,38.4-21.8,68.8-45.1,67.8s-40.8-32.9-39.2-71.3,21.8-68.8,45.1-67.8,40.8,32.9,39.2,71.3Z"/>
          <line class="cls-2" x1="1189.8" y1="1178.8" x2="1045.7" y2="1178.8"/>
          <line class="cls-2" x1="382.8" y1="794.8" x2="1189.8" y2="794.8"/>
          <polyline class="cls-2" points="443.6 1178.8 382.8 1178.8 382.8 950.8"/>
          <polyline class="cls-2" points="176.3 1348.9 176.3 794.8 -.3 794.8"/>
          <line class="cls-2" x1="-.3" y1="1350.7" x2="172.5" y2="1350.7"/>
          <rect class="cls-2" x="466.8" y="90.9" width="247.6" height="377.1"/>
          <rect class="cls-4" x="486.1" y="595.5" width="595.2" height="136.7"/>
          <rect class="cls-2" x="858.7" y="88.8" width="247.6" height="377.1"/>
          <polyline class="cls-2" points="1112.5 1178.4 1112.7 980.5 542.2 980.5"/>
          <polyline class="cls-2" points="1112.7 980.5 1032.9 1091.7 1032.9 1148.2"/>
          <line class="cls-2" x1="1032.9" y1="1091.7" x2="790.5" y2="1091.7"/>
          <path class="cls-2" d="M912.6,1219.3l-.7-52.2s92.6,7.1,93.6,7.1,39.4-25.4,39.4-25.4l2.6,95"/>
          <path class="cls-2" d="M1005.5,1174.2l6.5,110.6,32.9-39.8c1.9-2.3,5.6-1.1,5.8,1.9,2.1,32.7,2.6,65.6,1.3,98.3,0,1.7-.2,3.5-.9,5.1-.8,1.7-2.3,2.9-3.8,4-13.5,10.4-20.6,13.6-34.1,24"/>
          <polyline class="cls-2" points="884.3 1136.8 941.5 1119.2 941.5 1149.9"/>
          <line class="cls-2" x1="769.1" y1="1068.9" x2="811.2" y2="1114.6"/>
          <polyline class="cls-2" points="567 1035.7 649.2 1033.1 612.5 1065.9 625.4 1125.1"/>
          <polyline class="cls-2" points="545.1 1153.8 527.2 1073.4 567 1035.7"/>
          <line class="cls-2" x1="649.2" y1="1033.1" x2="665.1" y2="1099.6"/>
          <line class="cls-2" x1="612.5" y1="1065.9" x2="527.2" y2="1073.4"/>
          <polyline class="cls-2" points="529.5 1084.2 418.7 1096.3 445.2 1184.3"/>
          <path class="cls-2" d="M418.7,1096.3s-49.7-40.5-19-59.3c28-17.2,70,10.6,101.3,41.3"/>
          <line class="cls-2" x1="507.6" y1="1050.2" x2="471.4" y2="1053.2"/>
          <line class="cls-2" x1="555.9" y1="1046.2" x2="543.5" y2="1047.2"/>
          <line class="cls-2" x1="542.2" y1="980.5" x2="491.3" y2="1051.6"/>
          <path class="cls-2" d="M425.4,920.8l2.8,3.7c30.1,39.7,90.3,37.8,117.8-3.7"/>
          <path class="cls-2" d="M546.2,920.8l2.8,3.7c30.1,39.7,90.3,37.8,117.8-3.7"/>
          <path class="cls-2" d="M666.8,920.8l2.8,3.7c30.1,39.7,90.3,37.8,117.8-3.7"/>
          <path class="cls-2" d="M787.4,920.8l2.8,3.7c30.1,39.7,90.3,37.8,117.8-3.7"/>
          <path class="cls-2" d="M908,920.8l2.8,3.7c30.1,39.7,90.3,37.8,117.8-3.7"/>
          <path class="cls-2" d="M1028.6,920.8l2.8,3.7c30.1,39.7,90.3,37.8,117.8-3.7"/>
          <path class="cls-2" d="M1149.3,920.8l2.8,3.7c10,13.2,23.4,21.8,37.7,25.9"/>
          <path class="cls-2" d="M382.8,794.8l-78,126,2.8,3.7c30.1,39.7,90.3,37.8,117.8-3.7l60.3-126"/>
          <polyline class="cls-2" points="125.7 467.6 322.4 467.6 322.4 90.6 74.8 90.6 74.8 467.6 125.7 467.6"/>
          <line class="cls-2" x1="322.4" y1="279.5" x2="74.8" y2="279.1"/>
          <line class="cls-2" x1="525.5" y1="310.8" x2="626.8" y2="219.6"/>
          <line class="cls-2" x1="597.9" y1="294.8" x2="683.2" y2="219.6"/>
          <line class="cls-2" x1="551.6" y1="376.2" x2="654.9" y2="288"/>
          <line class="cls-2" x1="542.2" y1="233.6" x2="627.6" y2="158.4"/>
          <line class="cls-2" x1="903.7" y1="308.5" x2="1004.9" y2="217.4"/>
          <line class="cls-2" x1="976" y1="292.5" x2="1061.4" y2="217.4"/>
          <line class="cls-2" x1="929.7" y1="374" x2="1033" y2="286"/>
          <line class="cls-2" x1="920.4" y1="231.4" x2="1005.7" y2="156.4"/>
          <path class="cls-14" d="M137.9,1079.4c0,6.9-5.6,12.5-12.5,12.5s-12.5-5.6-12.5-12.5,5.6-12.5,12.5-12.5,12.5,5.7,12.5,12.5Z"/>
          <line class="cls-2" x1="546" y1="920.8" x2="606.3" y2="794.8"/>
          <line class="cls-2" x1="666.8" y1="920.8" x2="727.1" y2="794.8"/>
          <line class="cls-2" x1="787.4" y1="920.8" x2="847.7" y2="794.8"/>
          <line class="cls-2" x1="908" y1="920.8" x2="968.3" y2="794.8"/>
          <line class="cls-2" x1="1028.6" y1="920.8" x2="1089" y2="794.8"/>
          <line class="cls-2" x1="1149.3" y1="920.8" x2="1190.3" y2="835"/>
          <line class="cls-2" x1="149.6" y1="193.1" x2="237.6" y2="132.4"/>
          <line class="cls-2" x1="168.7" y1="241.4" x2="226.6" y2="199.6"/>
          <path class="cls-2" d="M280.3,441.8c-38.6,7.5-43.6-6.7-62.9-8.6s-31-.6-60.8-11.6c-6.8-2.5-13.4-3.2-19.4-2.9-18.5,1-34.8,12.8-42.4,29.7h0c-1.7,4-1.8,8.5-.3,12.4l2.6,6.8"/>
          <path class="cls-2" d="M258.9,443.9s-3.2-9,5.2-13.8l3.1-1.3"/>
          <path class="cls-2" d="M267,433.1l.6-9.7c.1-2.3,3.1-3.3,4.5-1.5l6.7,8.1"/>
          <path class="cls-2" d="M283.6,429.8l4.5-8.6c1.1-2.1,4.1-1.8,4.8.5l2.8,10.1s6.5,9.8,1.5,20.2c-5,10.4-9.6,15.6-9.6,15.6"/>
          <path class="cls-2" d="M277,428s6.1-1.6,8-.9"/>
          <rect class="cls-1" x=".1" y="-.2" width="1189.7" height="1757.5"/>
          <rect class="cls-1" x=".1" y="-.2" width="1189.7" height="1757.5"/>
          <g>
            <path class="cls-8" d="M566.3,699.5l-8.2-71.4h15.7l4.7,53.6h.2l27.1-53.6h16.3l-38.1,71.4h-17.7Z"/>
            <path class="cls-8" d="M652.4,628.2l-15.1,71.4h-15.7l15-71.4h15.8Z"/>
            <path class="cls-8" d="M673.8,699.5l-8.2-71.4h15.7l4.7,53.6h.2l27.1-53.6h16.3l-38.1,71.4h-17.7Z"/>
            <path class="cls-8" d="M796.5,628.2l-2.7,13.2h-38.8l-3.2,15.3h35.9l-2.6,12.2h-35.9l-3.7,17.5h39.4l-2.8,13.2h-55l14.9-71.4h54.5Z"/>
            <path class="cls-8" d="M847.7,628.2c3.2,0,6.1.2,8.7.8s4.9,1.7,6.8,3.2c1.9,1.5,3.3,3.5,4.3,5.8s1.5,5.3,1.5,8.8-.4,4.7-1.2,6.9-1.9,4.2-3.4,5.8c-1.5,1.7-3.2,3.1-5.2,4.2s-4.2,1.9-6.6,2.2v.2c2.9.9,4.9,2.5,5.9,4.8s1.5,4.9,1.5,7.8,0,3.5-.2,5.8-.2,4.5-.2,6.7,0,3.1.2,4.5.4,2.7.8,3.8h-15.3c-.2-.9-.4-1.7-.5-2.5s-.2-1.5-.2-2.3c0-2.4,0-4.8.4-7.2s.4-4.8.4-7.2-.2-3.2-.8-4.2-1.2-2-2.1-2.7c-.9-.7-2-1.1-3.2-1.3s-2.7-.3-4.2-.3h-14.8l-5.9,27.9h-15.7l14.9-71.4h34.1ZM837.1,660.5c2.1,0,4.2-.2,6.1-.7,1.9-.4,3.7-1.1,5.2-2s2.7-2.1,3.6-3.5c.9-1.4,1.3-3.2,1.3-5.2s-.3-3.5-1-4.7c-.6-1.2-1.5-2-2.5-2.7-1.1-.6-2.3-1-3.7-1.2s-2.9-.3-4.4-.3h-14.9l-4.2,20.1,14.5.2h0Z"/>
            <path class="cls-8" d="M944.2,628.2l-2.7,13.2h-38.8l-3.2,15.3h35.9l-2.6,12.2h-35.9l-3.7,17.5h39.4l-2.8,13.2h-55l14.9-71.4h54.5Z"/>
            <path class="cls-8" d="M962.1,682.2c.7,1.7,1.8,3,3.2,4s3.1,1.7,5,2.2c1.9.4,4,.7,6.3.7s3.2-.2,4.8-.6c1.6-.4,3-1,4.3-1.8s2.4-1.8,3.2-3.1,1.2-2.8,1.2-4.6-.5-3.2-1.6-4.2c-1.1-1.1-2.5-2-4.2-2.8s-3.6-1.5-5.8-2.1-4.3-1.2-6.5-1.9c-2.3-.7-4.5-1.5-6.6-2.4s-4-2.1-5.8-3.6-3.1-3.3-4.1-5.4c-1-2.1-1.5-4.7-1.5-7.8s.8-7.4,2.5-10.2,3.8-5.1,6.5-6.8c2.7-1.8,5.7-3.1,9-3.9s6.8-1.2,10.2-1.2,7.1.4,10.3,1.2,6.1,2.2,8.5,4,4.4,4.2,5.8,7.2c1.4,2.9,2.2,6.4,2.2,10.5h-14.9c0-2-.2-3.7-.8-5s-1.5-2.5-2.7-3.3-2.5-1.5-4.2-1.8c-1.6-.4-3.3-.5-5.1-.5s-3,.2-4.5.5-2.8.8-4,1.5-2.2,1.6-2.9,2.8c-.7,1.1-1.1,2.5-1.1,4.2s.7,3.2,2,4.3,2.9,2.1,4.7,2.9c1.8.8,3.7,1.4,5.7,1.8,1.9.4,3.5.8,4.7,1,2.8.7,5.4,1.6,7.7,2.5s4.3,2.2,6,3.8,3,3.4,4,5.6c.9,2.2,1.4,4.9,1.4,8.1s-.9,7.9-2.7,10.9-4,5.4-6.8,7.3c-2.8,1.9-5.9,3.2-9.3,4s-6.9,1.2-10.3,1.2c-10,0-17.4-2-22.3-6.1-4.9-4.1-7.3-10.5-7.3-19.2h14.9c-.1,2.4.2,4.4.9,6.1h0Z"/>
          </g>
          <polyline class="cls-2" points="1189.8 1387.2 1154.9 1402.8 1047.3 1354.2 1121.6 1321.1 1189.8 1348.4"/>
          <line class="cls-2" x1="1154.9" y1="1402.8" x2="1154.9" y2="1472.7"/>
          <polyline class="cls-2" points="1047.3 1354.2 1045.7 1421.8 1154.9 1472.7 1189.8 1454.9"/>
          <path class="cls-2" d="M699.2,1048.9c0-2.8,2.3-5.1,5-5.1s5,2.3,5,5.1c0,0,0,1.8-1.1,2.7"/>
          <path class="cls-2" d="M708.7,1051.8c.8-1.7,2.5-2.8,4.5-2.8s5,2.3,5,5.1v.6"/>
          <path class="cls-2" d="M707.1,1044.4c.7-2,2.6-3,4.8-3s5,2.3,5,5.1-.2,2.1-1,3"/>
          <path class="cls-2" d="M716.8,1045.1c.9-.7,2-1.2,3.2-1.2s1.5.2,2.2.5"/>
          <path class="cls-2" d="M729.1,1057.4c.9-.9,1.4-2.1,1.4-3.5,0-2.8-2.3-5.1-5-5.1s-5,2.3-5,5.1v1.2"/>
          <path class="cls-2" d="M722.1,1049.9c-.5-.8-.7-1.6-.7-2.6,0-2.8,2.3-5.1,5-5.1s5,2.3,5,5.1,0,1-.2,1.5"/>
          <path class="cls-2" d="M729.2,1050.2c.9-.8,2.1-1.4,3.5-1.4,2.8,0,5,2.3,5,5.1s-1.4,4.1-3.4,4.8l-.7.2"/>
          <path class="cls-13" d="M773.9,1074.1c11.2-11.4,3.2-15.7-2.9-18-3.3-1.3-5.4-3.7-6.6-5.6-1.4-2.2-3.8-3.5-6.4-3.5-13.2.4-12.1,15.5-12.1,15.5l23.3,6.5,4.7,5.1Z"/>
          <path class="cls-2" d="M767.4,1053.9s5.1-5.6,3.8-9.3"/>
          <path class="cls-11" d="M769.5,1051.3s-4-4-4.4-7.4c-.4-3.5,5,1.9,4.4,7.4Z"/>
          <path class="cls-2" d="M720,1043.8s1-5.5-4.8-6.8"/>
          <path class="cls-2" d="M801.7,1125.1c1.3-8,14.5-15.1,31-16.2,17.7-1.2,32.6,4.9,33.2,13.6.2,3.7-2.2,7.3-6.4,10.4"/>
          <path class="cls-2" d="M861.5,1133.3s22.8-29.1,51.4-23.7c0,0,10.3.7,19.5,12.2"/>
          <line class="cls-2" x1="941.5" y1="1119.2" x2="929.3" y2="1118.4"/>
          <path class="cls-2" d="M938,1166.2c-2.6,1.2-6.4,1.7-10.4,2-4.7.3-6.6-7.6-2.5-10.4,4.6-3.1,9.9-4.5,14,.2.6.7,1,1.3,1.4,1.9"/>
          <path class="cls-2" d="M934.3,1154.9c.3-1,1-1.9,2-2.6,4.6-3.1,9.9-4.5,14,.2.5.6,1,1.2,1.3,1.8"/>
          <path class="cls-2" d="M945.9,1149.6c.2-1.6.8-2.7,2.2-3.6,4.6-3.1,9.9-4.5,14,.2.7.9,1.1,1.3,1.4,2"/>
          <path class="cls-2" d="M958.1,1143.4c.3-.3.6-.6.9-.8,4.6-3.1,9.9-4.5,14,.2.5.7,1,1.2,1.3,1.8"/>
          <path class="cls-2" d="M939.4,1169.2c-2-2.4-2-6.9.9-8.8,4.6-3.1,9.9-4.5,14,.2,4.7,5.5.9,8.1-4.9,9.3"/>
          <path class="cls-2" d="M960.9,1164.4c-1.5.3-2.8.5-4.5.7"/>
          <path class="cls-2" d="M949.4,1157.6c.3-1,1-1.9,2-2.6,4.6-3.1,9.9-4.5,14,.2,1.4,1.7,2.1,3.1,2.1,4.3"/>
          <path class="cls-2" d="M972.5,1157.9c-1.6.4-3.2.6-5.1.8"/>
          <path class="cls-2" d="M961,1152.2c.2-1.5.9-2.9,2.2-3.8,4.6-3.1,9.9-4.5,14,.2,1.7,2.1,2.3,3.7,2,5"/>
          <path class="cls-2" d="M973.2,1145.9c.3-.3.6-.6.9-.8,4.6-3.1,9.9-4.5,14,.2.7.9,1.3,1.7,1.6,2.4"/>
          <path class="cls-2" d="M961.8,1170.8c-1.9-2.4-1.9-6.8,1-8.7,4.6-3.1,9.9-4.5,14,.2,4.7,5.5.9,8.2-5,9.4"/>
          <path class="cls-2" d="M980.9,1166.6c-.7,0-1.4.2-2.1.3"/>
          <path class="cls-2" d="M971.9,1159.2c.3-1,1-1.9,2-2.6,4.6-3.1,9.9-4.5,14,.2,1.7,2,2.3,3.6,2.1,5"/>
          <path class="cls-2" d="M992.3,1160.2c-.7,0-1.5.2-2.2.2"/>
          <path class="cls-2" d="M983.5,1153.8c.2-1.6.8-2.7,2.2-3.6,4.6-3.1,9.9-4.5,14,.2,2.2,2.6,2.6,4.6,1.7,6"/>
          <path class="cls-2" d="M995.9,1147.6c.2-.2.5-.5.8-.7,4.6-3.1,9.9-4.5,14,.2.9,1.1,1.5,2,1.8,2.9"/>
          <path class="cls-2" d="M980.5,1172.2c-.9-2.4-.4-5.6,1.7-7.4,4.3-3.6,9.9-4.5,14,.2,3.6,4.3,2.2,6.8-1.4,8.3"/>
          <path class="cls-2" d="M991.5,1161.8c.4-1,1-1.8,1.9-2.4,4.6-3.1,9.9-4.5,14,.2,5.7,6.7-1.1,9.2-9,9.9"/>
          <path class="cls-2" d="M1003,1156.7c.2-1.5.9-2.8,2.2-3.7,4.6-3.1,9.9-4.5,14,.2,5.9,6.9-1.5,9.3-9.7,10"/>
          <path class="cls-2" d="M1015.4,1150.3c.2-.2.5-.5.8-.7,4.6-3.1,9.9-4.5,14,.2,5.9,7-1.3,9.3-9.5,10"/>
          <path class="cls-2" d="M1004.3,1168.6s4.7-.2,4.8,3.6"/>
          <path class="cls-2" d="M1013.5,1162.7s4.4.2,4.1,4"/>
          <path class="cls-2" d="M1024.9,1159.4s.7.3.3,2.3"/>
          <path class="cls-12" d="M1066.3,1524.8c-79.7-15-59.6-46.6-45.4-60.9,5-5.1,13.6-.7,12.5,6.3,0,0,0,.3,0,.4-2.5,14.2-15.6,23.5,35.1,41.1,3.6,1.2,6.1,4.5,6.2,8.2,0,3.3-1.6,6.3-8.3,4.9h0Z"/>
          <path class="cls-13" d="M1131,1557.2c4-1.1,7.5-3.6,9.5-7.2,4.2-7.5-2.1-10.7-7.1-12.7-3.3-1.3-5.4-3.7-6.6-5.6-1.4-2.2-3.8-3.5-6.4-3.5-13.2.4-12.2,15.5-12.2,15.5,0,0-1.6,8.6,10.6,11.6,0,0,4.8-.3,6.2,1.9.7,1.1,3.4.7,6,0h0Z"/>
          <path class="cls-2" d="M1129.9,1535.3s5.1-5.6,3.8-9.3"/>
          <path class="cls-6" d="M1131.9,1532.7s-4-4-4.4-7.4c-.3-3.5,5.1,1.8,4.4,7.4Z"/>
          <path class="cls-6" d="M1106.2,1468.3s-7.2-.6-5.3,6.3-10.4,13.8-3.5,23.6c6.9,9.8,15.4,5,18.2,4.7,2.8-.3,14.8-7.1,9.4-16.6s-10.7-4.5-12.3-11.7c-1.5-7.3-6.5-6.3-6.5-6.3h0Z"/>
          <path class="cls-2" d="M1106.2,1468.3s-4.1-4.6-8.8-6.6"/>
          <path class="cls-10" d="M1048,1588.6c-3.9.2-4.7,2.9-5,4-.5,1.6,1,2.9,2.3,4,1.9,1.5,4.6.5,7,.5,2.8,0,5.3,1.3,8,2.2,5.4,1.9,11.4,2,16.9.4,3-.9,6.1-2.4,7.4-5.2.8-1.7,1.1-3.9,2.6-5.1,1.4-1,3.4-.8,4.7-1.9,1.6-1.2,1.6-4,0-5.2-1.1-.8-2.5-.8-3.6-1.6-1.1-.8-1.6-2.2-2.4-3.3-1.5-2.2-9.5-3.3-12.1-3.6-2.6-.3-9.4.8-12,1.4-9,1.9-9.5,5-13.7,13.4"/>
          <path class="cls-2" d="M549.3,989s3.1-2.6,4.9-.8c1.8,1.8,4,1.7,5.8,1s4.5-.3,4.7,1.3"/>
          <path class="cls-2" d="M543.5,998s3.1-2.6,4.9-.8,4,1.7,5.8,1,4.5-.3,4.7,1.3"/>
          <path class="cls-2" d="M537.1,1005.7s3.1-2.6,4.9-.8c1.8,1.8,4,1.7,5.8,1s4.5-.3,4.7,1.3"/>
          <path class="cls-2" d="M531.7,1013s3.1-2.6,4.9-.8c1.8,1.8,4,1.7,5.8,1s4.5-.3,4.7,1.3"/>
          <path class="cls-2" d="M526.8,1020.7s3.1-2.6,4.9-.8c1.8,1.8,4,1.7,5.8,1s4.5-.3,4.7,1.3"/>
          <path class="cls-2" d="M520,1029.8s3.1-2.6,4.9-.8c1.8,1.8,4,1.7,5.8.9s4.5-.3,4.7,1.3"/>
          <path class="cls-2" d="M513.6,1038.8s3.1-2.6,4.9-.8c1.8,1.8,4,1.7,5.8.9s4.5-.3,4.7,1.3"/>
          <path class="cls-2" d="M574.1,989.7s3.1-2.6,4.9-.8,4,1.7,5.8,1,4.5-.3,4.7,1.3"/>
          <path class="cls-2" d="M568.2,998.7s3.1-2.6,4.9-.8c1.8,1.8,4,1.7,5.8,1s4.5-.3,4.7,1.3"/>
          <path class="cls-2" d="M561.6,1007s3.1-2.6,4.9-.8c1.8,1.8,4,1.7,5.8,1s4.5-.3,4.7,1.3"/>
          <path class="cls-2" d="M555.9,1015.3s3.1-2.6,4.9-.8c1.8,1.8,4,1.7,5.8,1s4.5-.3,4.7,1.3"/>
          <path class="cls-2" d="M550.2,1022.7s3.1-2.6,4.9-.8c1.8,1.8,4,1.7,5.8,1s4.5-.3,4.7,1.3"/>
          <path class="cls-2" d="M543.5,1031.8s3.1-2.6,4.9-.8,4,1.7,5.8.9,4.5-.3,4.7,1.3"/>
          <path class="cls-2" d="M537.1,1040.8s3.1-2.6,4.9-.8,4,1.7,5.8.9c1.7-.7,4.5-.3,4.7,1.3"/>
          <path class="cls-2" d="M599.6,990.8s3.1-2.6,4.9-.8c1.8,1.8,4,1.7,5.8,1s4.5-.3,4.7,1.3"/>
          <path class="cls-2" d="M592.6,1001s3.1-2.6,4.9-.8,4,1.7,5.8,1,4.5-.3,4.7,1.3"/>
          <path class="cls-2" d="M587.3,1009.2s3.1-2.6,4.9-.8c1.8,1.8,4,1.7,5.8,1s4.5-.3,4.7,1.3"/>
          <path class="cls-2" d="M581.8,1016.3s3.1-2.6,4.9-.8c1.8,1.8,4,1.7,5.8,1s4.5-.3,4.7,1.3"/>
          <path class="cls-2" d="M577.3,1024.2s3.1-2.6,4.9-.8c1.8,1.8,4,1.6,5.8,1,1.7-.7,4.5-.3,4.7,1.3"/>
          <path class="cls-2" d="M632.9,994s8.5-12.1,18,0"/>
          <path class="cls-2" d="M624.7,1005.2s8.5-12.1,18,0"/>
          <path class="cls-2" d="M616.4,1018s8.5-12.1,18,0"/>
          <path class="cls-2" d="M608.7,1028.8s8.5-12.1,18,0"/>
          <path class="cls-2" d="M663.4,995.5s8.5-12.1,18,0"/>
          <path class="cls-2" d="M655.7,1007.3s8.5-12.1,18,0"/>
          <path class="cls-2" d="M646,1020.2s8.5-12.1,18,0"/>
          <path class="cls-2" d="M637.7,1031.2s8.5-12.1,18,0"/>
          <path class="cls-2" d="M692.7,996.2s8.5-12.1,18,0"/>
          <path class="cls-2" d="M684.2,1008.3s8.5-12.1,18,0"/>
          <path class="cls-2" d="M674.7,1022s8.5-12.1,18,0"/>
          <path class="cls-2" d="M667.1,1032.7s8.5-12.1,18,0"/>
          <path class="cls-2" d="M734.9,999.5s15,3,24-10.2"/>
          <path class="cls-2" d="M722.9,1015.8s15,3,24-10.2"/>
          <path class="cls-2" d="M711.4,1032.2s15,3,24-10.2"/>
          <path class="cls-2" d="M766,1003.2s15,3,24-10.2"/>
          <path class="cls-2" d="M754,1019.7s15,3,24-10.2"/>
          <path class="cls-2" d="M742.5,1036.1s15,3,24-10.2"/>
          <path class="cls-2" d="M799.4,1006.7s15,3,24-10.2"/>
          <path class="cls-2" d="M787.4,1023s15,3,24-10.2"/>
          <path class="cls-2" d="M775.9,1039.4s15,3,24-10.2"/>
          <path class="cls-2" d="M858.8,997s3.1-2.6,4.9-.8c1.8,1.8,4,1.7,5.8,1s4.5-.3,4.7,1.3"/>
          <path class="cls-2" d="M852.9,1006s3.1-2.6,4.9-.8c1.8,1.8,4,1.7,5.8,1s4.5-.3,4.7,1.3"/>
          <path class="cls-2" d="M846.5,1013.7s3.1-2.6,4.9-.8c1.8,1.8,4,1.7,5.8,1s4.5-.3,4.7,1.3"/>
          <path class="cls-2" d="M841.2,1021s3.1-2.6,4.9-.8c1.8,1.8,4,1.7,5.8,1s4.5-.3,4.7,1.3"/>
          <path class="cls-2" d="M836.2,1028.7s3.1-2.6,4.9-.8,4,1.7,5.8.9,4.5-.3,4.7,1.3"/>
          <path class="cls-2" d="M829.5,1037.8s3.1-2.6,4.9-.8,4,1.7,5.8.9,4.5-.3,4.7,1.3"/>
          <path class="cls-2" d="M823,1046.9s3.1-2.6,4.9-.8c1.8,1.8,4,1.7,5.8.9s4.5-.3,4.7,1.3"/>
          <path class="cls-2" d="M815.7,1055.9s3.1-2.6,4.9-.8c1.8,1.8,4,1.7,5.8.9s4.5-.3,4.7,1.3"/>
          <path class="cls-2" d="M809.9,1064.9s3.1-2.6,4.9-.8c1.8,1.8,4,1.7,5.8.9s4.5-.3,4.7,1.3"/>
          <path class="cls-2" d="M803.5,1072.7s3.1-2.6,4.9-.8c1.8,1.8,4,1.7,5.8.9,1.7-.7,4.5-.3,4.7,1.3"/>
          <path class="cls-2" d="M798.1,1079.9s3.1-2.6,4.9-.8c1.8,1.8,4,1.7,5.8.9,1.7-.7,4.5-.3,4.7,1.3"/>
          <path class="cls-2" d="M885.8,998.2s3.1-2.6,4.9-.8c1.8,1.8,4,1.7,5.8,1s4.5-.3,4.7,1.3"/>
          <path class="cls-2" d="M880,1007.2s3.1-2.6,4.9-.8c1.8,1.8,4,1.7,5.8,1s4.5-.3,4.7,1.3"/>
          <path class="cls-2" d="M873.6,1014.8s3.1-2.6,4.9-.8c1.8,1.8,4,1.7,5.8,1s4.5-.3,4.7,1.3"/>
          <path class="cls-2" d="M868.2,1022.2s3.1-2.6,4.9-.8c1.8,1.8,4,1.7,5.8,1s4.5-.3,4.7,1.3"/>
          <path class="cls-2" d="M863.3,1029.8s3.1-2.6,4.9-.8c1.8,1.8,4,1.7,5.8.9s4.5-.3,4.7,1.3"/>
          <path class="cls-2" d="M856.5,1038.9s3.1-2.6,4.9-.8c1.8,1.8,4,1.7,5.8.9,1.7-.7,4.5-.3,4.7,1.3"/>
          <path class="cls-2" d="M850.1,1048.1s3.1-2.6,4.9-.8c1.8,1.8,4,1.7,5.8.9s4.5-.3,4.7,1.3"/>
          <path class="cls-2" d="M842.8,1057.2s3.1-2.6,4.9-.8c1.8,1.8,4,1.7,5.8.9s4.5-.3,4.7,1.3"/>
          <path class="cls-2" d="M837,1066.2s3.1-2.6,4.9-.8c1.8,1.8,4,1.7,5.8.9,1.7-.7,4.5-.3,4.7,1.3"/>
          <path class="cls-2" d="M830.5,1073.8s3.1-2.6,4.9-.8c1.8,1.8,4,1.7,5.8.9,1.7-.7,4.5-.3,4.7,1.3"/>
          <path class="cls-2" d="M825.2,1081.2s3.1-2.6,4.9-.8c1.8,1.8,4,1.7,5.8.9,1.7-.7,4.5-.3,4.7,1.3"/>
          <path class="cls-2" d="M912.9,999s3.1-2.6,4.9-.8c1.8,1.8,4,1.7,5.8,1s4.5-.3,4.7,1.3"/>
          <path class="cls-2" d="M907.1,1008s3.1-2.6,4.9-.8c1.8,1.8,4,1.7,5.8,1s4.5-.3,4.7,1.3"/>
          <path class="cls-2" d="M900.7,1015.7s3.1-2.6,4.9-.8c1.8,1.8,4,1.7,5.8,1s4.5-.3,4.7,1.3"/>
          <path class="cls-2" d="M895.3,1023s3.1-2.6,4.9-.8c1.8,1.8,4,1.7,5.8,1s4.5-.3,4.7,1.3"/>
          <path class="cls-2" d="M890.4,1030.7s3.1-2.6,4.9-.8c1.8,1.8,4,1.7,5.8.9s4.5-.3,4.7,1.3"/>
          <path class="cls-2" d="M883.6,1039.8s3.1-2.6,4.9-.8c1.8,1.8,4,1.7,5.8.9s4.5-.3,4.7,1.3"/>
          <path class="cls-2" d="M877.2,1048.8s3.1-2.6,4.9-.8c1.8,1.8,4,1.7,5.8.9,1.7-.7,4.5-.3,4.7,1.3"/>
          <path class="cls-2" d="M869.9,1057.9s3.1-2.6,4.9-.8c1.8,1.8,4,1.7,5.8.9s4.5-.3,4.7,1.3"/>
          <path class="cls-2" d="M864,1066.9s3.1-2.6,4.9-.8c1.8,1.8,4,1.7,5.8.9,1.7-.7,4.5-.3,4.7,1.3"/>
          <path class="cls-2" d="M857.6,1074.6s3.1-2.6,4.9-.8,4,1.7,5.8.9c1.7-.7,4.5-.3,4.7,1.3"/>
          <path class="cls-2" d="M852.3,1081.8s3.1-2.6,4.9-.8c1.8,1.8,4,1.7,5.8.9s4.5-.3,4.7,1.3"/>
          <path class="cls-2" d="M926.2,1043.9s15,3,24-10.2"/>
          <path class="cls-2" d="M914.2,1060.3s15,3,24-10.2"/>
          <path class="cls-2" d="M902.7,1076.7s15,3,24-10.2"/>
          <path class="cls-2" d="M957.2,1047.8s15,3,24-10.2"/>
          <path class="cls-2" d="M945.2,1064.1s15,3,24-10.2"/>
          <path class="cls-2" d="M933.8,1080.6s15,3,24-10.2"/>
          <path class="cls-2" d="M990.6,1051.1s15,3,24-10.2"/>
          <path class="cls-2" d="M978.6,1067.4s15,3,24-10.2"/>
          <path class="cls-2" d="M967.1,1083.8s15,3,24-10.2"/>
          <path class="cls-2" d="M955.8,1004.2s8.5-12.1,18,0"/>
          <path class="cls-2" d="M947.6,1015.5s8.5-12.1,18,0"/>
          <path class="cls-2" d="M986.3,1005.7s8.5-12.1,18,0"/>
          <path class="cls-2" d="M978.6,1017.5s8.5-12.1,18,0"/>
          <path class="cls-2" d="M1015.6,1006.3s8.5-12.1,18,0"/>
          <path class="cls-2" d="M1007.1,1018.5s8.5-12.1,18,0"/>
          <path class="cls-2" d="M1067.8,995s3.1-2.6,4.9-.8,4,1.7,5.8,1,4.5-.3,4.7,1.3"/>
          <path class="cls-2" d="M1061.9,1004s3.1-2.6,4.9-.8,4,1.7,5.8,1,4.5-.3,4.7,1.3"/>
          <path class="cls-2" d="M1055.5,1011.5s3.1-2.6,4.9-.8,4,1.7,5.8,1,4.5-.3,4.7,1.3"/>
          <path class="cls-2" d="M1050.1,1019s3.1-2.6,4.9-.8,4,1.7,5.8,1,4.5-.3,4.7,1.3"/>
          <path class="cls-2" d="M1045.2,1026.6s3.1-2.6,4.9-.8,4,1.7,5.8.9c1.7-.7,4.5-.3,4.7,1.3"/>
          <path class="cls-2" d="M1038.5,1035.8s3.1-2.6,4.9-.8,4,1.7,5.8.9,4.5-.3,4.7,1.3"/>
          <path class="cls-2" d="M1032,1044.8s3.1-2.6,4.9-.8,4,1.7,5.8.9c1.7-.7,4.5-.3,4.7,1.3"/>
          <path class="cls-2" d="M1024.7,1053.8s3.1-2.6,4.9-.8,4,1.7,5.8.9c1.7-.7,4.5-.3,4.7,1.3"/>
          <path class="cls-2" d="M1018.9,1062.8s3.1-2.6,4.9-.8c1.8,1.8,4,1.7,5.8.9s4.5-.3,4.7,1.3"/>
          <path class="cls-2" d="M1012.5,1070.4s3.1-2.6,4.9-.8,4,1.7,5.8.9,4.5-.3,4.7,1.3"/>
          <path class="cls-2" d="M1007.1,1077.8s3.1-2.6,4.9-.8c1.8,1.8,4,1.7,5.8.9s4.5-.3,4.7,1.3"/>
          <path class="cls-2" d="M658.1,1047.2s8.5-12.1,18,0"/>
          <path class="cls-2" d="M654.8,1055.6c3.4-2.1,8.1-2.7,13.5,4.1"/>
          <path class="cls-2" d="M491.3,1069.3s11.7-21.2,28.8-24.8c17-3.7,23.6-1.2,26.9,10.2"/>
          <path class="cls-12" d="M585.1,1305.8c-79.7-15-59.6-46.6-45.4-60.9,5-5.1,13.6-.7,12.5,6.3,0,0,0,.3,0,.4-2.5,14.2-15.6,23.5,35.1,41.1,3.5,1.2,6.1,4.5,6.2,8.2,0,3.3-1.6,6.3-8.3,4.9h0Z"/>
          <path class="cls-6" d="M344,1480.1c.3,4.1,2,8.1,5.1,10.8,6.5,5.7,10.9.2,13.8-4.4,1.9-3,4.7-4.5,6.8-5.3,2.4-.9,4.2-3,4.7-5.6,2.3-13-12.7-15.1-12.7-15.1,0,0-8.1-3.3-13.5,8,0,0-.7,4.8-3.1,5.7-1.2.5-1.3,3.1-1.1,5.9h0Z"/>
          <path class="cls-2" d="M365.6,1483.3s4.5,6.2,8.3,5.7"/>
          <path class="cls-6" d="M367.8,1485.8s4.7-3.1,8.1-2.8c3.5.4-2.8,4.7-8.1,2.8Z"/>
          <path class="cls-6" d="M481.6,1233.2s4.3-5.9-2.6-7.8c-6.9-2-6.5-16-18.4-15.2-11.9.9-12.3,10.6-13.5,13.2s-1.6,16.3,9.3,16.7c10.9.3,9.4-6.8,16.4-4.4s8.8-2.5,8.8-2.5h0Z"/>
          <path class="cls-2" d="M481.6,1233.2s6.1-1.1,10.2-4.1"/>
          <path class="cls-10" d="M735.5,1195.8c1.9,3.5,4.6,2.9,5.8,2.8,1.7-.3,2.2-2.2,2.6-3.8.5-2.4-1.6-4.4-2.7-6.5-1.3-2.5-1.2-5.4-1.6-8.1-.7-5.7-3.2-11.1-7-15.4-2.1-2.3-4.8-4.4-8-4.4s-4,.8-5.7,0c-1.5-.8-2.2-2.7-3.8-3.4-1.8-.9-4.3.3-4.7,2.3-.2,1.3.4,2.6,0,3.9-.2,1.3-1.2,2.4-1.9,3.6-1.3,2.3,1.2,10,2.1,12.5s4.8,8.1,6.5,10.2c6,7.3,9,6.3,18.3,6.4"/>
          <path class="cls-6" d="M842,1216.2s-.2-7.3-6.9-4.6c-6.7,2.7-14.9-8.7-23.8-.7s-3.2,15.9-2.5,18.7c.6,2.8,8.8,13.9,17.6,7.4s3.2-11.2,10.2-13.6c6.9-2.3,5.4-7.2,5.4-7.2h0Z"/>
          <path class="cls-2" d="M842,1216.2s4.1-4.6,5.5-9.5"/>
          <path class="cls-13" d="M562,1221.6c-.3,0-.8-.5-1.2-.7-3.7-1.9-6.3-5.2-7.6-9.2-.8-2.5-1.4-5.2-.3-6,2.1-1.5,1.6-6.3,1.6-6.3,2.5-12.3,11.1-11.1,11.1-11.1,0,0,15-1.8,16,11.4.2,2.6-1,5.1-3.2,6.6-1.9,1.3-4.2,3.5-5.3,6.8-.5,1.5-.9,3.1-1.7,4.5l-9.4,4h0Z"/>
          <path class="cls-2" d="M575,1209.6s5.9,4.3,9.4,2.9"/>
          <path class="cls-6" d="M578.2,1211.1s3.8-4.2,7.2-4.7c3.4-.6-1.6,5.2-7.2,4.7Z"/>
          <path class="cls-13" d="M530.5,1070.2c-1.6-1.1-3.6-2-5.4-2.7-3.3-1.3-5.4-3.7-6.6-5.6-1.4-2.2-3.8-3.5-6.4-3.5-13.2.4-12.1,15.5-12.1,15.5,0,0-.6,9.1,11.6,12.2l18-2-2.4-10.7,3.3-3.2h0Z"/>
          <path class="cls-2" d="M521.6,1065.4s5.1-5.6,3.8-9.3"/>
          <path class="cls-11" d="M523.6,1062.8s-4-4-4.4-7.4c-.3-3.5,5.1,1.8,4.4,7.4Z"/>
          <path class="cls-10" d="M173,1629.4c3.4-2,2.8-4.7,2.6-5.9-.3-1.6-2.2-2.1-3.8-2.5-2.4-.5-4.3,1.7-6.4,2.8-2.4,1.3-5.3,1.4-8.1,1.8-5.7.8-11.1,3.5-15.2,7.4-2.3,2.2-4.2,4.9-4.2,8.1s.9,4,0,5.7c-.8,1.5-2.6,2.3-3.3,3.8-.9,1.8.5,4.3,2.5,4.6,1.3.2,2.6-.4,3.9-.2,1.4.2,2.4,1.2,3.6,1.8,2.4,1.3,9.9-1.4,12.4-2.4s7.9-5,10-6.8c7.2-5.8,6.1-8.8,6-18.2"/>
        </g>
      </g>
    </g>
  </g>
</svg>