<?xml version="1.0" encoding="UTF-8"?><svg xmlns="http://www.w3.org/2000/svg" viewBox="0 0 3000 3000"><g id="uuid-ab5ddd44-5ae9-4f06-bd21-160bf376cb62"><rect width="3000" height="3000" fill="#ffde12"/><circle cx="604.47" cy="797.42" r="207.85" fill="#fff"/><circle cx="1303.49" cy="1195.76" r="207.85" fill="#fff"/><circle cx="2346.04" cy="778.79" r="209.01" fill="#fff"/><circle cx="2255.91" cy="1767.35" r="207.85" fill="#fff"/><polygon points="511.99 2227.91 467.71 2322.52 350.51 2267.47 354.43 2247.44 325.29 2255.5 129.42 2161.56 141.98 2116.76 154.45 2102 167.91 2100.65 194.17 2112.1 263.64 2142.12 284.64 2142.12 297.87 2134.99 309.82 2129.35 511.99 2227.91" fill="#fff"/><polygon points="129.42 2166.4 123.81 2183.19 292.8 2265.47 325.29 2255.5 129.42 2166.4" fill="#ff5723"/><polygon points="350.51 2267.47 343.73 2288.83 454.84 2341.93 467.71 2322.52 350.51 2267.47" fill="#ff5723"/><polygon points="364.05 2094.59 336.03 2142.12 511.99 2227.91 515.79 2220.4 370.3 2093.03 364.05 2094.59" fill="#fff"/><polygon points="888.31 2593.23 888.31 2698.1 756.26 2697.77 753.65 2678.72 730.11 2700.19 512.97 2698.52 504.95 2646.71 509.78 2633.26 532.51 2625.68 595.64 2624.66 628.27 2622.23 640.71 2616.81 650.04 2608.03 664.64 2586.47 888.31 2593.23" fill="#fff"/><polygon points="437.45 2461.12 437.45 2574.65 567.72 2576.32 573.42 2557 593.27 2575.9 640.71 2575.52 649.43 2461.21 437.45 2461.12" fill="#ff5723"/><polygon points="980.68 2354.83 989.89 2378.37 1005.76 2393.22 1026.23 2398.85 1108.13 2400.38 1131.62 2403.4 1136.79 2412.67 1139.86 2431.61 1131.62 2472.77 914.61 2474.92 905.95 2465.39 910.74 2353.8 980.68 2354.83" fill="#ff5723"/><polygon points="437.45 2574.65 438.95 2597.94 566.17 2597.2 567.72 2576.32 437.45 2574.65" fill="#fff"/><polygon points="593.27 2575.9 621.75 2599.23 656.87 2597.94 660.53 2586.29 640.71 2586.47 640.71 2575.52 593.27 2575.9" fill="#fff"/><polygon points="512.97 2698.52 517.06 2719.3 707.18 2719.3 730.11 2700.19 512.97 2698.52" fill="#ff5723"/><polygon points="756.26 2697.77 760.5 2719.3 888.31 2719.3 888.31 2698.1 756.26 2697.77" fill="#ff5723"/><polygon points="914.61 2474.92 938.01 2493.8 1126.41 2495.25 1131.62 2472.77 914.61 2474.92" fill="#fff"/><polygon points="468.93 1323.68 456.59 1344.35 455.02 1370.38 468.93 1416 483.87 1441.96 675.44 1452.34 685.77 1428.82 685.47 1406.91 680.69 1388.01 671.62 1372.08 674.95 1350.05 673.95 1328.02 667.16 1301.72 676.09 1283.93 679.29 1271.11 670.58 1253.04 653.97 1249.1 644.52 1249.1 602 1297.42 551.9 1341.72 525.62 1356.9 503.74 1357.36 488.71 1350.05 475.04 1331.18 468.93 1323.68" fill="#fff"/><polygon points="1723.96 1962.47 1584.41 1987.66 1572.78 2016.88 1560.6 2050.37 1554.31 2071.4 1559.59 2081.82 1569.39 2085.98 1580.89 2083.7 1600.85 2047.66 1594.42 2099.75 1625.02 2094.05 1630.61 2064.57 1639.13 2065.12 1641.83 2085.98 1667.89 2078.14 1662.4 2058.48 1751.02 2030.68 1743.58 2010.12 1723.96 1962.47" fill="#fff"/><polygon points="1663.55 2079.21 1490.55 2131.88 1485.01 2147.55 1491.89 2161.89 1513.39 2163.23 1554.31 2156.56 1566.37 2175.78 1589.04 2189.77 1602.17 2204.03 1624.91 2216.8 1654.95 2233.58 1673.58 2229.27 1686.96 2224.73 1718.1 2233.58 1663.55 2079.21" fill="#fff"/><polygon points="961.99 1235.76 885.21 1384.88 937.88 1402.92 951.82 1398.31 956.44 1382.62 956.44 1372.86 982.54 1381.68 996.64 1380.46 1004.44 1371.76 1005.78 1353.38 1033.92 1365.26 1049.41 1365.26 1055.63 1360.43 1059.46 1347.7 1053.22 1336.05 1068 1334.91 1077.81 1326.53 1077.81 1312.3 1072.85 1305.06 1011.86 1275.68 1040.11 1261.47 1042.18 1250.63 1039.46 1235.76 1028.24 1231 961.99 1235.76" fill="#fff"/><polygon points="1116.75 529.9 1200.27 650.19 1328.22 569.77 1333.16 556.3 1328.67 540.59 1317.44 529.9 1301.73 529.9 1280.84 544.06 1264.47 549.57 1249.65 549.12 1240.22 541.94 1230.42 529.9 1225.16 507.37 1234.75 494.35 1244.26 483.34 1259.98 480.43 1285.57 475.04 1291.64 471.23 1296.79 459.78 1291.64 444.06 1278.83 438.68 1251.45 438.68 1198.92 450.35 1162.55 471.9 1137.41 505.12 1116.75 529.9" fill="#fff"/><polygon points="1801.12 382.33 1770.38 340.6 1747.98 316.01 1704.94 300.63 1667.14 294.37 1638.62 294.37 1625.44 301.95 1625.44 317.86 1638.62 330.5 1670.24 337.53 1690 351.14 1693.52 366.95 1690 386.28 1678.58 396.17 1656.18 402.09 1639.49 399.45 1622.37 385.84 1607.43 385.84 1589.87 396.17 1588.55 406.04 1595.13 424.93 1692.8 485.08 1801.12 382.33" fill="#fff"/><polygon points="2197.89 1380.2 2140.35 1381.06 2144.93 1358.97 2144.93 1322.06 2134.38 1293.79 2152.39 1290.21 2162.74 1282.02 2169.12 1271.79 2196.6 1273.93 2197.89 1380.2" fill="#fff"/><polygon points="2108.2 1387.03 2087.39 1397.28 2087.39 1424.64 2076.35 1440.21 2059.19 1441.44 2049.23 1431.31 2041.71 1436.4 2032.18 1441.44 2021.06 1437.98 2010.65 1434.81 2005.67 1442.75 1992.59 1447.52 1977.52 1438.3 1965.45 1447.52 1953.37 1449.99 1938.44 1441.44 1928.08 1394.45 1930.5 1363.29 1960.05 1327.72 1995.64 1292.45 2068.31 1278.23 2081.44 1287.68 2097.32 1291.49 2108.2 1293.79 2112.44 1310.03 2118.57 1333.76 2117.03 1361.72 2108.2 1387.03" fill="#fff"/><polygon points="2406.85 2552.12 2406.78 2663.78 2274.74 2663.45 2272.12 2644.4 2248.58 2665.87 2031.44 2664.2 2023.42 2612.39 2028.25 2598.93 2050.98 2591.36 2114.11 2590.34 2146.74 2587.91 2159.19 2582.49 2168.51 2573.71 2183.11 2552.15 2406.85 2552.12" fill="#ff5723"/><polygon points="2031.44 2664.2 2035.53 2684.98 2225.65 2684.98 2248.58 2665.87 2031.44 2664.2" fill="#fff"/><polygon points="2274.74 2663.45 2278.97 2684.98 2406.78 2684.98 2406.78 2663.78 2274.74 2663.45" fill="#fff"/><path d="m2675.76,2457.73l67,22.45-50.63,152.12,14.32,36.23-235.03-5.08-6.45-39.42,2.34-28.41,45.09-4.38,46.84-8.78s31.03-14.64,32.79-15.22c1.76-.59,33.38-22.25,33.38-22.25l28.69-33.96,21.67-53.28Z" fill="#ff5723"/><polygon points="2742.77 2480.18 2770.74 2492.71 2716.82 2643.11 2692.14 2632.3 2742.77 2480.18" fill="#fff"/><polygon points="2706.46 2668.53 2714.77 2687.09 2474.17 2684.66 2471.42 2663.45 2706.46 2668.53" fill="#fff"/><polygon points="2865.04 2276.05 2871.9 2384.19 2729.16 2397.39 2717.23 2370.89 2713.26 2398.55 2692.14 2399.31 2701.16 2370.23 2701.78 2360.33 2707.74 2356.11 2716.82 2349.32 2717.23 2337.68 2701.16 2297.28 2865.04 2276.05" fill="#e6bcfe"/><polygon points="2871.9 2384.19 2871.9 2405.84 2739.94 2414.54 2729.16 2397.39 2871.9 2384.19" fill="#fff"/><polygon points="2692.14 2399.31 2713.26 2398.55 2707.66 2418.96 2684.99 2421.62 2692.14 2399.31" fill="#fff"/><polygon points="2326.48 2178.13 2294.87 2166.9 2231.15 2158.35 2221.06 2168.24 2226.88 2185.94 2265.16 2199.8 2186.47 2201.09 2175.59 2209.25 2177.92 2222.46 2186.08 2228.29 2253.3 2232.57 2253.69 2240.34 2177.92 2258.21 2168.99 2264.43 2167.43 2276.86 2175.98 2285.41 2261.85 2274.53 2246.96 2285.41 2198.51 2307.55 2195.57 2323 2205.12 2332.81 2274.67 2309.89 2280.89 2311.83 2282.05 2318.82 2252.13 2333.59 2246.31 2346.02 2255.19 2360.22 2265.16 2360.81 2318.96 2337.47 2363.67 2307.48 2326.48 2178.13" fill="#fff"/><path d="m542,2243.72l-230.37-200.02,89.66-68.43,121.04-86.08s59.93-45.89,62.74-48.7c2.81-2.81,47.76-33.71,47.76-33.71l81.47-31.84,59-8.43,56.19-5.27,65.55,8.07,206.95,49.63,34.86-8.64,36.08-4.4,54.55-.07,62.74,15.92,71.17,25.28,62.74,19.67,51.5,4.68,48.7-5.62,26.55,121.88-34.98,37.32-38.39,28.09-27.16,13.11-67.07,19.81-69.65,5.48-65.02-14.94-47.02-5.11-38.84,6.18-158.31,8.4-43.54,10.49-24.39,29.19-18.35,44.64-7.43,183.49-10.16,237.5-259.86-4.83,8.72-125.26,20.24-319.47-127.67,101.98Z" fill="#e6bcfe"/><polygon points="409.11 2320.07 405.72 2461.12 649.43 2461.21 669.67 2141.74 542 2243.72 515.79 2220.4 454.84 2341.93 409.11 2320.07" fill="#fff"/><polygon points="992.62 2174.51 992.62 2354.83 910.74 2353.8 918.16 2170.31 992.62 2174.51" fill="#fff"/><polygon points="375.67 1584.89 397.36 1930.7 401.3 1975.27 537.7 1875.75 585.08 1840.49 632.84 1806.78 689.2 1784.75 726.95 1773.14 773.3 1766.51 829.49 1761.25 895.04 1769.32 960.9 1784.75 942.78 1658.87 911.84 1658.9 895.18 1680.06 861.09 1702.29 830.05 1716.54 787.75 1724.2 749.22 1725.26 706.25 1716.54 668.29 1696.47 624.1 1658.87 571.37 1652.74 509.17 1646.72 466.19 1632.65 375.67 1584.89" fill="#fff"/><polygon points="2698.36 1463.11 2876.19 2269.9 2701.16 2297.28 2645.2 2158.35 2665.18 2109.01 2670.04 2056.96 2664.4 2010.35 2636.43 1949.76 2600.39 1910.45 2553.98 1880.2 2452.72 1834.35 2463.38 1779.87 2463.76 1743.9 2454.88 1707.09 2435.82 1663.22 2392.64 1610.82 2346.85 1580.41 2312.48 1567.3 2249.5 1559.61 2220.13 1562.58 2182.5 1572.84 2144.93 1591.59 2121.11 1609.16 2126.62 1468.92 2178.88 1511.63 2236.37 1545.81 2279.29 1559.51 2332.7 1565.23 2418.92 1565.23 2488.84 1562.9 2542.44 1555.99 2577.4 1537.94 2642.26 1500 2698.36 1463.11" fill="#ff5723"/><polygon points="2699.78 2360.22 2675.76 2457.73 2654.1 2511.02 2610.68 2555 2580.5 2575.29 2559.24 2582.45 2512.4 2591.24 2443.98 2595.62 2406.85 2592.88 2406.85 2552.12 2157.91 2549.77 2013.23 2351.6 1974.3 2291.13 1967.16 2243.72 1979.15 2188.4 2022.02 2139.87 2047.9 2126.93 2085.92 2119.65 2121.11 2121.36 2149.78 2130.95 2182.67 2149.58 2235.17 2197.01 2186.47 2201.09 2175.59 2209.25 2177.92 2222.46 2186.08 2228.29 2206.38 2230.08 2253.3 2232.57 2253.69 2240.34 2232.87 2244.61 2177.92 2258.21 2168.99 2264.43 2167.43 2276.86 2175.98 2285.41 2261.85 2274.53 2246.96 2285.41 2198.51 2307.55 2195.57 2323 2201.68 2331.35 2215.35 2330.92 2274.67 2309.89 2280.89 2311.83 2282.05 2318.82 2252.13 2333.59 2246.31 2346.02 2250.86 2357.63 2265.16 2360.81 2318.96 2337.47 2363.67 2307.48 2370.03 2327.75 2385.46 2323 2395.63 2333.13 2433.46 2329.24 2533.86 2325.19 2607.4 2333.13 2671.74 2345.15 2697.55 2354.34 2699.78 2360.22" fill="#fff"/><polygon points="2645.2 2158.35 2710.18 2319.72 2716.82 2344.31 2707.74 2356.11 2684.99 2347.92 2631.63 2335.38 2588.97 2329.99 2520.48 2325.73 2444.82 2326.21 2395.63 2333.13 2385.46 2323 2370.03 2327.75 2320.57 2173.14 2244.58 2154.23 2225.63 2158.35 2218.72 2182.15 2155.9 2131.89 2121.11 2121.36 2094.3 2119.03 2047.9 2126.93 2015.09 2144.76 1985.98 2163.03 1726.86 2252.62 1662.4 2058.48 2104.46 1914.78 2143.89 1942.54 2167.43 1955.48 2208.23 1969.09 2255.91 1975.2 2298.11 1967.6 2349.55 1952.96 2384.32 1930.8 2411.61 1905.02 2439.57 1864.75 2452.72 1834.35 2507.6 1858.21 2547.62 1877.32 2600.39 1910.45 2621.6 1933.58 2640.78 1959.17 2665.22 2017.15 2672.76 2050.42 2668.01 2086.49 2662.06 2116.71 2645.2 2158.35" fill="#e6bcfe"/><polygon points="2134.38 1293.79 2152.39 1290.21 2162.74 1282.02 2163.34 1272.16 2148.86 1264.54 2126.62 1260.25 2096.55 1261.82 2077.78 1267.47 2068.31 1278.23 2091.5 1291.66 2108.2 1293.79 2112.44 1314.4 2118.57 1333.76 2117.49 1353.37 2113.88 1380.2 2115.82 1393.29 2126.62 1396.86 2138.79 1391.79 2142.28 1371.77 2144.93 1351.58 2146.73 1328.56 2140.35 1306 2134.38 1293.79" fill="#ff5723"/><polygon points="470.61 1316.96 451.94 1259.97 447.79 1227.91 456.59 1210.49 479.85 1195.76 607.52 1205.34 632.19 1219.76 645.39 1237.41 644.52 1249.1 591.49 1309.85 551.9 1341.72 525.62 1356.9 493.93 1353.58 477.04 1339.03 470.61 1316.96" fill="#ff5723"/><polygon points="429.48 917.31 399.44 956.62 363.9 1008.76 337.71 1064.65 326.95 1117.69 328.31 1159.61 337.71 1204.13 366.77 1262.8 387.65 1289.81 372.9 1360.43 346.97 1500 346.97 1541.62 366.01 1575.07 391.77 1593.27 426.03 1609.49 466.19 1632.65 509.17 1646.72 549.87 1650.28 624.1 1658.87 440.38 1445.34 483.87 1441.96 468.93 1416 456.59 1381.63 455.02 1351.84 460.88 1334.24 470.61 1316.96 447.79 1247.87 447.79 1227.91 456.59 1210.49 479.85 1195.76 617.61 1207.77 632.19 1219.76 645.39 1237.41 644.52 1249.1 664.71 1251.64 678.17 1255.71 679.29 1271.11 676.09 1283.93 667.16 1301.72 673.95 1328.02 674.95 1350.05 671.62 1372.08 680.69 1388.01 685.47 1406.91 685.77 1428.82 675.44 1452.34 713.42 1454.06 764.27 1500 827.34 1424.4 868.69 1420.4 971.39 1216.73 967.59 1209.15 893.64 1195.76 889.38 1082.85 888.1 998.22 902.84 932.19 926.56 880.26 953.49 844.99 987.47 811.66 1050.3 771.91 1207.44 667.33 1108.26 519.05 782.32 683.21 787.96 703.57 803.93 740.49 808.83 799.87 803.93 842.25 788.46 895.13 767.19 930.55 714.13 972.95 673.73 991.91 634.32 1001.88 595.41 1006.37 562.48 1001.38 529.56 992.41 500.13 976.44 467.2 951.5 433.78 912.59 429.48 917.31" fill="#e6bcfe"/><polygon points="1550.88 1987.66 1740.49 1956.58 1678.62 1599.58 1652.66 1492.25 1605.57 1424.4 1572.04 1396.86 1531.7 1373.29 1433.41 1357.99 1397.18 1381.35 1347.17 1395.47 1311.25 1399.69 1271.82 1396.17 1207.44 1377.16 1167.75 1353.16 1146.47 1328.02 1059.46 1347.7 1055.63 1360.43 1040.06 1367.05 1005.78 1353.38 1004.44 1371.76 996.64 1380.46 982.54 1381.68 956.44 1372.86 956.44 1382.62 951.82 1398.31 937.88 1402.92 885.21 1384.88 868.69 1420.4 827.34 1424.4 764.27 1500 713.42 1454.06 440.38 1445.34 551.93 1574.99 653.97 1684.29 706.25 1716.54 764.27 1726.5 811.61 1721.81 845.24 1710.11 887.32 1685.19 914.61 1652.74 1003.59 1557.78 989.14 1636.66 976.15 1721.81 977.53 1771.38 983.19 1790.47 1101.99 1818.96 1172.93 1805.91 1227.48 1805.85 1278.14 1816.68 1354.61 1843.78 1400.37 1858.83 1453.96 1869.67 1524.33 1865.78 1550.88 1987.66" fill="#fff"/><path d="m1203.63,1581.36l-10.04-18.34v-17.52l15.72-9.12,17.47,3.93,11.14,19.11,25.54-21.73-8.3-23.14-20.96-7.42-22.27-4.68-27.95,8.18-16.59,8.73-11.35,20.52v21.4l12.23,27.07,1.31,9.61-25.76,24.89-9.17,29.9,6.11,29.92,16.59,19.65,29.69,14.22,33.62,1.93,24.89-10.92,22.27-17.9,22.71,20.52,41.05-5.24-127.95-123.58Zm21.11,98.52l-20.52,5.31-19.1-3.18-10.26-23.13,1.77-16.48,15.21-20.52,36.43,29,9.63,17.41-13.17,11.59Z" fill="#ff5723"/><polygon points="974.07 1593.61 969.77 1619.89 960.9 1642.32 928.44 1656.67 911.84 1658.9 974.07 1593.61" fill="#e6bcfe"/><polygon points="918.16 2170.31 936.51 2125.67 960.9 2096.48 1004.44 2085.98 1201.58 2071.4 1248.61 2083.7 1288.87 2089.59 1327.91 2094.05 1369.99 2088.65 1414.27 2076.83 1477.51 2053.07 1525.13 2015.13 1550.88 1987.66 1584.41 1987.66 1555.43 2063.33 1559.59 2081.82 1569.39 2085.98 1580.89 2083.7 1600.85 2047.66 1594.42 2099.75 1490.55 2131.88 1480.83 2142.22 1414.78 2154.82 1394.13 2170.31 1372.46 2204.03 1368.16 2243.72 1382.53 2720.83 1380.72 2744.42 1369.83 2761.36 1352.89 2772.15 1329.3 2769.83 1309.68 2758.42 1300.19 2737.71 1300.19 2711.4 1288.87 2280.2 1282.98 2235.96 1265.99 2204.03 1248.61 2194.08 1222.48 2509.67 1203 2530.45 1186.94 2532.74 1170.1 2524.64 1159.5 2511.54 1158.88 2489.72 1190.28 2176.27 918.16 2170.31" fill="#ff5723"/><polygon points="1625.02 2094.05 1630.61 2064.57 1639.13 2065.12 1641.83 2085.98 1625.02 2094.05" fill="#ff5723"/><polygon points="1695.63 2229.27 1753.15 2576.31 1765.68 2595.62 1778.33 2604.52 1795.37 2604.52 1808.7 2600.01 1816.57 2591.3 1824.32 2575.57 1824.32 2552.12 1762.47 2240.3 1726.86 2252.62 1718.1 2233.58 1695.63 2229.27" fill="#ff5723"/><polygon points="1828.63 363.55 1667.14 507.47 1971.08 782.14 2023.18 831.34 2058.64 882.02 2083.26 933.78 2097.9 978.46 2105.6 1037.77 2110.27 1260.25 2153.51 1264.54 2169.12 1271.79 2196.6 1273.93 2197.89 1380.2 2144.93 1381.06 2138.79 1391.79 2126.62 1396.86 2115.82 1393.29 2108.2 1387.03 2112.44 1435.39 2126.62 1468.92 2153.51 1495.81 2192.31 1521.48 2226.45 1540.77 2288.37 1562.54 2337.96 1565.23 2410.59 1565.23 2463.76 1563.74 2515.15 1559.51 2548.99 1549.39 2590.56 1533.66 2673.23 1477.52 2711.88 1443.8 2692.79 1352.81 2711.88 1307.26 2714.64 1257.17 2698.07 1145.8 2678.27 1050.76 2646.36 989.99 2597.43 937.98 2525.83 879.52 2496.55 918.34 2455.35 958.29 2402.98 977.54 2357.57 989.66 2321.16 987.8 2285.03 981.15 2237.84 958.36 2193.44 921 2149.72 847.88 2138 792.35 2139.49 744.74 2152.02 691.49 2173.94 658.29 2189.03 640.6 1828.63 363.55" fill="#e6bcfe"/><polyline points="2108.32 1043.43 2148.58 1076.14 2208.79 1114.54 2291.39 1147 2379.9 1167.65 2470.62 1172.81 2508.8 1166 2513.39 1208.95 2508.2 1243.73 2486.1 1264.54 2466.93 1276.06 2201.88 1264.54 2196.6 1273.93 2108.32 1230.39" fill="#ff5723"/><polygon points="2153.51 1088.27 2122.65 1166 2144.42 1243.73 2184.38 1181.29 2153.51 1088.27" fill="#e6bcfe"/><polygon points="2279.34 1146.03 2226.45 1201.13 2235.73 1261.82 2269.21 1261.82 2301.01 1223.4 2279.34 1146.03" fill="#e6bcfe"/><polygon points="2411.7 1176.8 2356.03 1243.73 2367.16 1271.36 2429.28 1271.36 2447.85 1252.16 2411.7 1176.8" fill="#e6bcfe"/></g><g id="uuid-a09737e3-f5e6-4f23-acf9-aef418dbf710"><path d="m1301.99,992.3c27.19,0,53.55,5.32,78.37,15.82,23.97,10.14,45.51,24.66,64,43.15,18.49,18.49,33.01,40.03,43.15,64,10.5,24.82,15.82,51.18,15.82,78.37s-5.32,53.55-15.82,78.37c-10.14,23.97-24.66,45.51-43.15,64-18.49,18.49-40.03,33.01-64,43.15-24.82,10.5-51.18,15.82-78.37,15.82s-53.55-5.32-78.37-15.82c-23.97-10.14-45.51-24.66-64-43.15-18.49-18.49-33.01-40.03-43.15-64-10.5-24.82-15.82-51.18-15.82-78.37s5.32-53.55,15.82-78.37c10.14-23.97,24.66-45.51,43.15-64,18.49-18.49,40.03-33.01,64-43.15,24.82-10.5,51.18-15.82,78.37-15.82m0-10c-116.72,0-211.34,94.62-211.34,211.34s94.62,211.34,211.34,211.34,211.34-94.62,211.34-211.34-94.62-211.34-211.34-211.34h0Z"/><path d="m1470.36,1627.45l82.59,363.34,187.54-34.33-70.93-409.16c-18.97-109.41-113.91-189.31-224.95-189.31h-16.28" fill="none" stroke="#000" stroke-linecap="round" stroke-linejoin="round" stroke-width="10"/><path d="m1220.16,2074.01l-209.39,11.28c-50.66,2.73-90.93,43.54-92.98,94.23l-16.67,411.78-260.41-5.32,29.07-445.99" fill="none" stroke="#000" stroke-linecap="round" stroke-linejoin="round" stroke-width="10"/><path d="m2256.19,1565.99c48.38,0,95.23,17.58,131.93,49.51,37.02,32.2,60.95,76.76,67.4,125.46,3.57,26.95,1.75,53.79-5.4,79.77-6.91,25.1-18.48,48.35-34.39,69.11-15.91,20.76-35.35,37.98-57.79,51.17-23.23,13.66-48.67,22.39-75.62,25.96-8.84,1.17-17.82,1.76-26.67,1.76-48.38,0-95.24-17.58-131.94-49.5-37.02-32.2-60.96-76.76-67.4-125.46-3.57-26.95-1.75-53.79,5.4-79.77,6.91-25.1,18.48-48.35,34.39-69.11,15.91-20.76,35.35-37.98,57.79-51.17,23.23-13.66,48.67-22.39,75.62-25.96,8.84-1.17,17.81-1.76,26.68-1.76h0m-.01-10c-9.23,0-18.58.61-27.98,1.85-115.71,15.31-197.11,121.52-181.8,237.23,14.06,106.31,104.85,183.65,209.25,183.65,9.23,0,18.58-.61,27.98-1.85,115.71-15.31,197.11-121.52,181.8-237.23-14.06-106.31-104.85-183.66-209.25-183.65h0Z"/><path d="m604.47,596.08c27.19,0,53.55,5.32,78.37,15.82,23.97,10.14,45.51,24.66,64,43.15,18.49,18.49,33.01,40.03,43.15,64,10.5,24.82,15.82,51.18,15.82,78.37s-5.32,53.55-15.82,78.37c-10.14,23.97-24.66,45.51-43.15,64-18.49,18.49-40.03,33.01-64,43.15-24.82,10.5-51.18,15.82-78.37,15.82s-53.55-5.32-78.37-15.82c-23.98-10.14-45.51-24.66-64-43.15-18.49-18.49-33.01-40.03-43.15-64-10.5-24.82-15.82-51.18-15.82-78.37s5.32-53.55,15.82-78.37c10.14-23.97,24.66-45.51,43.15-64,18.49-18.49,40.03-33.01,64-43.15,24.82-10.5,51.18-15.82,78.37-15.82m0-10c-116.72,0-211.34,94.62-211.34,211.34s94.62,211.34,211.34,211.34,211.34-94.62,211.34-211.34-94.62-211.34-211.34-211.34h0Z"/><path d="m819.95,1561.9l-105.08-107.83-277.42-12.11,191.96,220.68c28.56,32.83,67.72,54.61,110.68,61.56h0c55.51,8.97,112.09-7.65,153.94-45.21l110.42-124.5s-44.23,170.53-23.18,232.91" fill="none" stroke="#000" stroke-linecap="round" stroke-linejoin="round" stroke-width="10"/><path d="m782.32,683.21l325.26-165.7,99.85,147.82-202.27,135.67c-76.52,51.32-121.01,138.6-117.61,230.67l6.07,164.09" fill="none" stroke="#000" stroke-linecap="round" stroke-linejoin="round" stroke-width="10"/><path d="m2112.44,1387.74l.9,33.94c.42,23.47,11.06,45.58,29.14,60.55l26.42,21.88c52.11,43.15,118.3,65.58,185.91,62.99l122.44-4.69c54.4-2.08,106.96-20.27,151.01-52.25l70.1-50.88" fill="none" stroke="#000" stroke-linecap="round" stroke-linejoin="round" stroke-width="10"/><path d="m624.1,1658.87c-3.65-.3-7.29-.67-10.92-1.11l-86.9-10.42c-9-1.08-17.92-2.71-26.71-4.87h0c-17.43-4.29-34.28-10.67-50.18-19l-56.84-29.78c-32.68-17.12-50.59-53.36-44.34-89.73l36.92-214.68" fill="none" stroke="#000" stroke-linecap="round" stroke-linejoin="round" stroke-width="10"/><polyline points="2104.46 1914.78 1661.64 2059.15 1725.32 2252.62 2003.66 2156.46" fill="none" stroke="#000" stroke-linecap="round" stroke-linejoin="round" stroke-width="10"/><line x1="2385.46" y1="2323" x2="2464.45" y2="2389.22" fill="none" stroke="#000" stroke-linecap="round" stroke-linejoin="round" stroke-width="10"/><path d="m2398.21,2552.12l-242-2.76-164.54-227.59c-41.35-57.19-29.35-137.69,27.96-178.88.81-.58,1.64-1.16,2.47-1.73h0c47.68-32.62,111.24-29.52,155.51,7.59l58.25,48.83" fill="none" stroke="#000" stroke-linecap="round" stroke-linejoin="round" stroke-width="10"/><path d="m1550.88,1981.68c-30.95,45.74-79.63,81.29-135.65,95.96l-28.58,7.49c-36.92,9.67-75.64,10.17-112.8,1.46l-274.29-64.29c-93.23-21.85-191.32.66-265.7,60.97l-191.15,160.46-232.91-201.72,224.22-163.57c14.1-10.29,28.06-20.76,41.66-31.7,93.69-75.38,217.44-103.12,334.81-74.34l193.02,47.33c11.85-5.08,26.89-8.59,42.78-10.99,52.99-8,107.15-1.69,157.24,17.37,53.94,20.52,134.13,47.63,173.35,44.11,39.45-3.54,38.58-3.36,47.45-5.29" fill="none" stroke="#000" stroke-linecap="round" stroke-linejoin="round" stroke-width="10"/><path d="m1116.75,529.9l35.2-43.41c19.36-23.88,47.25-39.28,77.77-42.96l45.27-5.45c9.18-1.11,17.89,4.31,20.96,13.03h0c4,11.37-3.04,23.64-14.88,25.91l-25.92,4.98c-22.64,4.35-34.63,29.36-23.83,49.73h0c9.5,17.93,32.41,23.73,49.3,12.48l16.1-10.72c14.46-9.63,34.02-.95,36.59,16.23h0c1.4,9.4-2.95,18.73-11.05,23.7l-125.12,76.78" fill="none" stroke="#000" stroke-linecap="round" stroke-linejoin="round" stroke-width="10"/><path d="m996.64,1268.54l72.12,33.84c8.78,4.12,12.56,14.58,8.44,23.36h0c-3.9,8.32-19.26,11.1-27.85,7.84" fill="none" stroke="#000" stroke-linecap="round" stroke-linejoin="round" stroke-width="10"/><polyline points="632.19 1143.45 974.07 1211.85 866.67 1424.4 683.07 1394.59" fill="none" stroke="#000" stroke-linecap="round" stroke-linejoin="round" stroke-width="10"/><path d="m429.96,916.64l-58.92,81.65c-58.48,81.04-59.12,190.92.09,271.43.79,1.07,1.58,2.13,2.38,3.19h0c22.24,29.21,50.74,52.65,83.08,68.81" fill="none" stroke="#000" stroke-linecap="round" stroke-linejoin="round" stroke-width="10"/><path d="m2706.46,2294.8l169.73-20.51-177.82-815.02s11.78-9.23,14.08-18.81-19.65-92.09-19.65-92.09" fill="none" stroke="#000" stroke-linecap="round" stroke-linejoin="round" stroke-width="10"/><line x1="2126.4" y1="1468.92" x2="2121.11" y2="1606.95" fill="none" stroke="#000" stroke-linecap="round" stroke-linejoin="round" stroke-width="10"/><path d="m918.16,2170.31l272.29,4.19c39.31.44,74.67,23.98,90.26,60.08h0c5.38,12.46,8.15,43.5,8.15,57.07l11.32,440.81c.57,22.08,18.63,39.69,40.72,39.69h0c23.04,0,41.5-19.1,40.71-42.12l-13.72-496.11c-1.19-43.14,30.29-80.27,73.05-86.14l44.07-6.05" fill="none" stroke="#000" stroke-linecap="round" stroke-linejoin="round" stroke-width="10"/><path d="m888.31,2593.23l-.96,126.07-127.94-.5-5.87-39.29-44.51,39.29h-192.44s-9.68-54.39-9.68-54.39c-4.27-15.6-2.73-37.23,13.44-38.05,35.09-1.78,93.46-.42,109.69-4.48,12.36-3.09,21.65-14.66,27.08-23.94l4.01-6.64" fill="none" stroke="#000" stroke-linecap="round" stroke-linejoin="round" stroke-width="10"/><line x1="887.51" y1="2697.72" x2="758.03" y2="2698.47" fill="none" stroke="#000" stroke-linecap="round" stroke-linejoin="round" stroke-width="10"/><line x1="730.11" y1="2698.52" x2="513.4" y2="2697.77" fill="none" stroke="#000" stroke-linecap="round" stroke-linejoin="round" stroke-width="10"/><path d="m513.4,2228.54l-55.12,113.39-115.27-55.51,11.61-38-57.09,16.31-173.71-82.82,14.67-53.26c2.86-15.92,13.56-34.78,28.5-28.57,32.44,13.49,84.54,39.84,100.94,43.16,12.48,2.53,25.85-3.91,34.75-9.96l6.47-4.27,204.25,99.52Z" fill="none" stroke="#000" stroke-linecap="round" stroke-linejoin="round" stroke-width="10"/><line x1="467.71" y1="2322.52" x2="350.51" y2="2267.47" fill="none" stroke="#000" stroke-linecap="round" stroke-linejoin="round" stroke-width="10"/><line x1="325.29" y1="2255.5" x2="129.99" y2="2161.56" fill="none" stroke="#000" stroke-linecap="round" stroke-linejoin="round" stroke-width="10"/><line x1="336.03" y1="2142.12" x2="366.85" y2="2091.4" fill="none" stroke="#000" stroke-linecap="round" stroke-linejoin="round" stroke-width="10"/><path d="m1190.46,2174.51l-32.89,322.58c-1.96,19.27,13.16,36.01,32.53,36.01h0c17,0,31.16-13.02,32.58-29.96l25.93-309.06" fill="none" stroke="#000" stroke-linecap="round" stroke-linejoin="round" stroke-width="10"/><line x1="1592.08" y1="2101.49" x2="1603.51" y2="2041.31" fill="none" stroke="#000" stroke-linecap="round" stroke-linejoin="round" stroke-width="10"/><path d="m1640.91,2085.98l-.27-17.15c-.04-2.42-1.63-4.54-3.94-5.25h0c-3.17-.97-6.49,1.02-7.12,4.28l-4.55,21.84" fill="none" stroke="#000" stroke-linecap="round" stroke-linejoin="round" stroke-width="10"/><path d="m1722.58,1962.84s-.47-2.66,3.17,6.18c1.79,4.35,6.26,14.59,10.33,23.88,5.36,12.21,9.67,24.84,12.9,37.77h0" fill="#fff" stroke="#000" stroke-linecap="round" stroke-linejoin="round" stroke-width="10"/><path d="m1603.51,2041.31l-18.06,32.14c-.75,1.26-1.43,2.57-2.08,3.89-3.65,7.36-12.05,10.66-19.46,7.38h0c-7.89-3.48-11.67-13.08-8.46-21.45l23.4-60.9,9.79-18.11" fill="none" stroke="#000" stroke-linecap="round" stroke-linejoin="round" stroke-width="10"/><path d="m927.12,1360.43l19.21,9.02c8.78,4.12,12.56,14.58,8.44,23.36h0c-3.9,8.32-13.55,12.23-22.15,8.97l-42.37-16.1" fill="none" stroke="#000" stroke-linecap="round" stroke-linejoin="round" stroke-width="10"/><path d="m957.37,1331.18l38.29,17.97c8.78,4.12,12.56,14.58,8.44,23.36h0c-3.9,8.32-13.55,12.23-22.15,8.97l-35.63-12.03" fill="none" stroke="#000" stroke-linecap="round" stroke-linejoin="round" stroke-width="10"/><path d="m989.38,1305.06l59.97,28.52c8.78,4.12,12.56,14.58,8.44,23.36h0c-3.9,8.32-13.55,12.23-22.15,8.97l-39.98-16.75" fill="none" stroke="#000" stroke-linecap="round" stroke-linejoin="round" stroke-width="10"/><path d="m961.99,1238.83l62.15-8.27c8.05-1.11,15.84,3.29,19.06,10.75h0c3.83,8.88-.01,19.2-8.72,23.42l-22.62,10.96" fill="none" stroke="#000" stroke-linecap="round" stroke-linejoin="round" stroke-width="10"/><line x1="1143.62" y1="1328.02" x2="1059.46" y2="1350.05" fill="none" stroke="#000" stroke-linecap="round" stroke-linejoin="round" stroke-width="10"/><line x1="374.01" y1="1580.56" x2="401.3" y2="1975.27" fill="none" stroke="#000" stroke-linecap="round" stroke-linejoin="round" stroke-width="10"/><polyline points="409.59 2318.48 404.8 2461.12 644.48 2461.12" fill="none" stroke="#000" stroke-linecap="round" stroke-linejoin="round" stroke-width="10"/><line x1="831.65" y1="1419.24" x2="764.27" y2="1500" fill="none" stroke="#000" stroke-linecap="round" stroke-linejoin="round" stroke-width="10"/><path d="m483.87,1441.96l-21.31-43.24c-10.48-21.26-10.26-46.23.6-67.3l7.6-14.76-22.16-66.05c-9.35-27.86,12.69-56.26,42-54.11l112.73,8.25c17.78,1.3,32.7,13.91,36.95,31.23l5.1,15.8" fill="none" stroke="#000" stroke-linecap="round" stroke-linejoin="round" stroke-width="10"/><path d="m524.7,1357.36h0c27.06-13.29,51.38-31.54,71.69-53.8l43.79-47.99c12.26-11.81,32.64-6.75,37.96,9.42h0c2.78,8.47.44,17.79-6.02,23.93l-39.92,62.63" fill="none" stroke="#000" stroke-linecap="round" stroke-linejoin="round" stroke-width="10"/><path d="m470.76,1316.66s6.63,49.73,53.94,40.7" fill="none" stroke="#000" stroke-linecap="round" stroke-linejoin="round" stroke-width="10"/><path d="m665.8,1298.83h0c13.21,26.97,12.82,58.62-1.04,85.26l-10.79,20.75" fill="none" stroke="#000" stroke-linecap="round" stroke-linejoin="round" stroke-width="10"/><path d="m670.58,1370.38l7.88,12.88c11.08,21.24,9.3,46.38-3.54,65.59" fill="none" stroke="#000" stroke-linecap="round" stroke-linejoin="round" stroke-width="10"/><polyline points="437.45 2461.12 438.4 2597.1 566.34 2596.6 572.22 2557.31 616.73 2596.6 657.11 2597.94" fill="none" stroke="#000" stroke-linecap="round" stroke-linejoin="round" stroke-width="10"/><line x1="438.24" y1="2575.52" x2="567.72" y2="2576.27" fill="none" stroke="#000" stroke-linecap="round" stroke-linejoin="round" stroke-width="10"/><line x1="595.64" y1="2576.32" x2="641.35" y2="2576.17" fill="none" stroke="#000" stroke-linecap="round" stroke-linejoin="round" stroke-width="10"/><path d="m914.61,1658.87s55.73,3.56,59.46-62.86" fill="none" stroke="#000" stroke-linecap="round" stroke-linejoin="round" stroke-width="10"/><line x1="942.78" y1="1658.87" x2="960.9" y2="1784.75" fill="none" stroke="#000" stroke-linecap="round" stroke-linejoin="round" stroke-width="10"/><line x1="740.08" y1="1724.2" x2="730.39" y2="1771.38" fill="none" stroke="#000" stroke-linecap="round" stroke-linejoin="round" stroke-width="10"/><polyline points="992.62 2174.51 992.62 2353.8 914.61 2353.8" fill="none" stroke="#000" stroke-linecap="round" stroke-linejoin="round" stroke-width="10"/><path d="m908.01,2469.1l27.98,24.7h192.44s9.68-54.39,9.68-54.39c4.27-15.6,2.73-37.23-13.44-38.05-35.09-1.78-93.46-.42-109.69-4.48-12.36-3.09-21.65-14.66-27.08-23.94l-9.08-15.87" fill="none" stroke="#000" stroke-linecap="round" stroke-linejoin="round" stroke-width="10"/><line x1="914.91" y1="2473.52" x2="1131.62" y2="2472.77" fill="none" stroke="#000" stroke-linecap="round" stroke-linejoin="round" stroke-width="10"/><path d="m1804.12,383.63l-35.2-43.41c-19.36-23.88-47.25-39.28-77.77-42.96l-45.27-5.45c-9.18-1.11-17.89,4.31-20.96,13.03h0c-4,11.37,3.04,23.64,14.88,25.91l25.92,4.98c22.64,4.35,34.63,29.36,23.83,49.73h0c-9.5,17.93-32.41,23.73-49.3,12.48l-16.1-10.72c-14.46-9.63-34.02-.95-36.59,16.23h0c-1.4,9.4,2.95,18.73,11.05,23.7l90.06,55.27" fill="none" stroke="#000" stroke-linecap="round" stroke-linejoin="round" stroke-width="10"/><path d="m2110.89,1261.82l-4.36-220.14c-4.24-91.15-44.56-176.88-112.07-238.27l-327.33-297.68,162.96-143.46,358.93,278.34" fill="none" stroke="#000" stroke-linecap="round" stroke-linejoin="round" stroke-width="10"/><line x1="2140.35" y1="1380.2" x2="2197.89" y2="1380.2" fill="none" stroke="#000" stroke-linecap="round" stroke-linejoin="round" stroke-width="10"/><path d="m2108.32,1295.58l5.32,18.65c6.62,20.54,6.53,42.66-.27,63.15l-.82,2.47c-2.57,7.75,2.53,15.92,10.62,17.01h0c6.53.88,12.68-3.25,14.34-9.63l4.15-15.93c4.34-16.69,4.36-34.22.05-50.92l-9.17-26.6" fill="none" stroke="#000" stroke-linecap="round" stroke-linejoin="round" stroke-width="10"/><ellipse cx="2118.57" cy="1277.8" rx="47.67" ry="15.98" fill="none" stroke="#000" stroke-linecap="round" stroke-linejoin="round" stroke-width="10"/><line x1="2162.74" y1="1271.79" x2="2195.62" y2="1273.93" fill="none" stroke="#000" stroke-linecap="round" stroke-linejoin="round" stroke-width="10"/><path d="m2070.9,1277.8l-46.83,7.7c-18.59,3.06-35.66,12.15-48.57,25.87l-33.11,35.2c-12.4,13.18-17.39,31.68-13.31,49.31l9.08,39.23c2.04,8.83,10.26,14.81,19.29,14.04h0c10.83-.92,18.45-11.06,16.32-21.72l-11.34-56.69" fill="none" stroke="#000" stroke-linecap="round" stroke-linejoin="round" stroke-width="10"/><path d="m1974.54,1431.36c1.68,8.9,9.64,15.22,18.69,14.83h0c10.86-.47,18.89-10.29,17.2-21.03l-8.98-57.12" fill="none" stroke="#000" stroke-linecap="round" stroke-linejoin="round" stroke-width="10"/><path d="m2010.43,1425.16c1.68,8.9,12.33,16.66,21.38,16.27h0c10.86-.47,18.89-10.29,17.2-21.03l-8.98-57.12" fill="none" stroke="#000" stroke-linecap="round" stroke-linejoin="round" stroke-width="10"/><path d="m2049.22,1423.76c1.68,8.9,11.69,18.06,20.74,17.67h0c10.86-.47,18.89-10.29,17.2-21.03l-6.78-43.11" fill="none" stroke="#000" stroke-linecap="round" stroke-linejoin="round" stroke-width="10"/><line x1="2085.46" y1="1398.23" x2="2111.94" y2="1385.19" fill="none" stroke="#000" stroke-linecap="round" stroke-linejoin="round" stroke-width="10"/><polyline points="2684.99 2423.24 2709.75 2420.87 2717.23 2373.3 2738.61 2416.48 2873.44 2405.71 2864.46 2279.96" fill="none" stroke="#000" stroke-linecap="round" stroke-linejoin="round" stroke-width="10"/><line x1="2871.9" y1="2384.19" x2="2728.64" y2="2396.35" fill="none" stroke="#000" stroke-linecap="round" stroke-linejoin="round" stroke-width="10"/><path d="m2454.02,1834.35l97.8,44.83c58.15,26.66,100.43,79.04,114.22,141.5h0c1.88,8.52,3.08,17.65,3.64,27.17,5.14,87.31-45.59,168.35-125.62,203.61l-173.17,76.29-50.32-169.56,191.3-67.51" fill="none" stroke="#000" stroke-linecap="round" stroke-linejoin="round" stroke-width="10"/><line x1="2442.1" y1="2022.65" x2="2492.98" y2="2097.35" fill="none" stroke="#000" stroke-linecap="round" stroke-linejoin="round" stroke-width="10"/><path d="m2363.67,2307.48c-6.21,4.07-24.49,16.71-32.34,22.16-2.44,1.69-5.02,3.17-7.71,4.41l-55.4,25.67c-8.16,3.78-17.62.61-21.12-7.09h0c-3.5-7.7.28-17.01,8.44-20.79l23.55-10.92c4.61-2.14,5.27-8.41,1.22-11.47h0c-1.84-1.39-4.27-1.73-6.42-.92l-57.83,21.86c-8.42,3.18-17.62-.67-20.55-8.6h0c-2.93-7.93,1.51-16.94,9.92-20.12l58.08-21.96c1.74-.66,2.57-2.65,1.81-4.35h0c-.6-1.33-2.01-2.1-3.45-1.87l-11.91,1.86-64.59,11.07c-8.87,1.52-17.17-4.01-18.54-12.36h0c-1.37-8.35,4.71-16.34,13.58-17.86l71.07-14.79c2.37-.49,4.15-2.46,4.41-4.86h0c.36-3.3-2.22-6.18-5.54-6.19l-60.66-.97c-7.71-.12-14.02-6.16-14.48-13.86h0c-.51-8.47,6.21-15.61,14.69-15.63l81.62-.13" fill="none" stroke="#000" stroke-linecap="round" stroke-linejoin="round" stroke-width="10"/><path d="m2271.53,2199.8l-34.96-11.69c-1.38-.5-2.79-.92-4.21-1.31-7.91-2.2-12.73-9.83-10.91-17.72h0c1.94-8.4,10.65-13.93,19.47-12.34l64.21,11.53,19.63,6.21" fill="none" stroke="#000" stroke-linecap="round" stroke-linejoin="round" stroke-width="10"/><line x1="2149.78" y1="2279.96" x2="2320.57" y2="2440.48" fill="none" stroke="#000" stroke-linecap="round" stroke-linejoin="round" stroke-width="10"/><path d="m2413.61,2592.63c50.29,6.5,209.33,15.13,258.99-125.31,0,0,26.01-88.7,27.17-109.3,1.15-20.6-214.52-46.52-301.56-24.33" fill="none" stroke="#000" stroke-linecap="round" stroke-linejoin="round" stroke-width="10"/><polyline points="2320.57 2440.48 2433.49 2552.12 2398.21 2552.12" fill="none" stroke="#000" stroke-linecap="round" stroke-linejoin="round" stroke-width="10"/><polyline points="2715.37 2687.09 2690.87 2636.06 2715.37 2644.48 2770.74 2492.06 2680.43 2461.68" fill="none" stroke="#000" stroke-linecap="round" stroke-linejoin="round" stroke-width="10"/><path d="m2552.85,2582.21c14.96.32,28.48,1.95,36.73,5.92" fill="none" stroke="#000" stroke-linecap="round" stroke-linejoin="round" stroke-width="10"/><path d="m2715.37,2687.09l-240.87-3.78-8.92-57.52c-2.14-8.54-2.6-18.74-.2-26.67" fill="none" stroke="#000" stroke-linecap="round" stroke-linejoin="round" stroke-width="10"/><line x1="2690.87" y1="2636.06" x2="2742.77" y2="2482.65" fill="none" stroke="#000" stroke-linecap="round" stroke-linejoin="round" stroke-width="10"/><line x1="2471.4" y1="2663.29" x2="2706.46" y2="2668.53" fill="none" stroke="#000" stroke-linecap="round" stroke-linejoin="round" stroke-width="10"/><line x1="2571.42" y1="2575.29" x2="2589.57" y2="2588.13" fill="none" stroke="#000" stroke-linecap="round" stroke-linejoin="round" stroke-width="10"/><path d="m1613.64,2209.95l32.83,19.97c9.35,5.69,21.31,4.66,29.56-2.53h0c10.19-8.89,11.51-24.25,2.99-34.75l-14.74-18.16" fill="none" stroke="#000" stroke-linecap="round" stroke-linejoin="round" stroke-width="10"/><path d="m1580.95,2186.95l23.69,19.06c22.12,12.88,43.21,1.24,56.23-20.62.43-.72.79-1.48,1.09-2.26h0c2.23-5.78,2.23-12.38-.79-17.78-2.22-3.97-3.37-6.03-7.77-7.93l-1.15-.58" fill="none" stroke="#000" stroke-linecap="round" stroke-linejoin="round" stroke-width="10"/><path d="m1553.17,2154.82l13.2,20.23c12.02,14.01,28.49,20.85,42.93,9.37l15.6-11.18" fill="none" stroke="#000" stroke-linecap="round" stroke-linejoin="round" stroke-width="10"/><line x1="1678.62" y1="2224.73" x2="1719.13" y2="2233.81" fill="#fff" stroke="#000" stroke-linecap="round" stroke-linejoin="round" stroke-width="10"/><path d="m1607.61,2143.26l-102.65,21.8c-10.14,2.23-19.97-4.85-21.06-15.17h0c-.87-8.25,4.21-15.98,12.13-18.45l170.94-53.3,16.56,47.53-42.27,40.99c-7.04,7.5-18.51,8.69-26.94,2.82h0c-10.69-7.45-11.93-22.8-2.57-31.87l19.07-18.48" fill="none" stroke="#000" stroke-linecap="round" stroke-linejoin="round" stroke-width="10"/><g><ellipse cx="608.3" cy="757.88" rx="10.99" ry="10.89" transform="translate(-223.75 255.78) rotate(-20.14)" stroke="#000" stroke-linecap="round" stroke-linejoin="round" stroke-width="10"/><ellipse cx="739.6" cy="709.72" rx="10.99" ry="10.89" transform="translate(-199.14 298.05) rotate(-20.14)" stroke="#000" stroke-linecap="round" stroke-linejoin="round" stroke-width="10"/><path d="m679.18,731.84l37.03,37.49c19.23,19.47,11.69,52.28-14.2,61.78l-19.9,7.3" fill="none" stroke="#000" stroke-linecap="round" stroke-linejoin="round" stroke-width="10"/></g><g><ellipse cx="1290.81" cy="1185.64" rx="10.89" ry="10.99" transform="translate(-266.77 1989.3) rotate(-69.86)" stroke="#000" stroke-linecap="round" stroke-linejoin="round" stroke-width="10"/><ellipse cx="1159.51" cy="1137.49" rx="10.89" ry="10.99" transform="translate(-307.66 1834.45) rotate(-69.86)" stroke="#000" stroke-linecap="round" stroke-linejoin="round" stroke-width="10"/><path d="m1219.93,1159.61l-37.03,37.49c-19.23,19.47-11.69,52.28,14.2,61.78l19.9,7.3" fill="none" stroke="#000" stroke-linecap="round" stroke-linejoin="round" stroke-width="10"/></g><g><ellipse cx="2356.49" cy="803.17" rx="10.99" ry="10.89" transform="translate(-133.1 795.49) rotate(-18.64)" stroke="#000" stroke-linecap="round" stroke-linejoin="round" stroke-width="10"/><ellipse cx="2223.97" cy="847.88" rx="10.99" ry="10.89" transform="translate(-154.35 755.47) rotate(-18.64)" stroke="#000" stroke-linecap="round" stroke-linejoin="round" stroke-width="10"/><path d="m2284.92,827.28l-5.38,52.42c-2.8,27.22,23.64,48.08,49.76,39.26l20.09-6.78" fill="none" stroke="#000" stroke-linecap="round" stroke-linejoin="round" stroke-width="10"/></g><g><ellipse cx="2239.51" cy="1779.87" rx="10.99" ry="10.89" transform="translate(-261.07 390.46) rotate(-9.42)" stroke="#000" stroke-linecap="round" stroke-linejoin="round" stroke-width="10"/><ellipse cx="2101.54" cy="1802.75" rx="10.99" ry="10.89" transform="translate(-266.67 368.19) rotate(-9.42)" stroke="#000" stroke-linecap="round" stroke-linejoin="round" stroke-width="10"/><path d="m2165.01,1792.19l-13.72,50.88c-7.12,26.42,15.62,51.24,42.82,46.73l20.91-3.47" fill="none" stroke="#000" stroke-linecap="round" stroke-linejoin="round" stroke-width="10"/></g><path d="m1338.98,1709.59c-1.01.06-1.65.12-2.3.12-14.79,0-29.58,0-44.37-.09-1.06,0-2.34-.54-3.12-1.25-7.22-6.62-14.34-13.34-21.5-20.03-2.89,2.99-5.57,6.04-8.55,8.76-11.19,10.22-24.52,16.03-39.39,18.29-14.16,2.15-28.21,1.49-41.71-3.53-23.14-8.61-37.52-24.93-40.64-49.7-2.41-19.13,3.3-36.14,16.73-50.19,4.68-4.89,9.95-9.21,14.96-13.78.66-.6,1.38-1.14,1.85-1.52-3.34-5.74-6.97-11.13-9.77-16.92-9.3-19.2-8.25-37.93,4.3-55.32,8.97-12.43,21.91-18.92,36.87-21.17,12.8-1.93,25.28-.54,37.03,5.27,11.99,5.92,20.01,15.48,24.99,27.74.22.55.03,1.68-.39,2.03-8.69,7.13-17.43,14.18-26.18,21.24-.16.13-.4.14-.46.16-1.36-3.61-2.41-7.31-4.09-10.7-5.82-11.77-19.57-16.36-31.39-10.69-10.59,5.08-14.64,17.76-9.33,28.99,2.99,6.32,7.44,11.54,12.43,16.26,19.51,18.44,39.12,36.79,58.7,55.16,20.35,19.1,40.71,38.18,61.06,57.28,4.4,4.13,8.78,8.28,13.16,12.43.3.29.58.61,1.1,1.17Zm-144.04-89.7c-1.78,1.35-3.42,2.54-5,3.82-8.12,6.55-14.34,14.28-16.39,24.9-3.71,19.23,9.79,37.48,30.88,36.96,15.48-.38,27.18-7.26,35.51-20.21,1.03-1.6.95-2.46-.46-3.75-5.9-5.38-11.68-10.9-17.51-16.37-8.96-8.4-17.91-16.81-27.03-25.36Z" fill="none" stroke="#000" stroke-linecap="round" stroke-linejoin="round" stroke-width="10"/><path d="m2645.2,2158.11l70.76,175.96c4.61,11.46-3.83,23.95-16.18,23.95h0" fill="none" stroke="#000" stroke-linecap="round" stroke-linejoin="round" stroke-width="10"/><path d="m2106.53,1041.68s153.86,156.59,402.26,124.33l4.83,46.95c3.58,34.78-24.71,64.55-59.63,62.75l-256.11-13.23,3.99,173.67,315.46,13.7c120.41,4.53,214.61-102.68,194.61-221.51l-22.61-134.37c-9.63-57.26-38.76-109.43-82.44-147.68l-77.84-67.76" fill="none" stroke="#000" stroke-linecap="round" stroke-linejoin="round" stroke-width="10"/><line x1="2110.27" y1="1230.39" x2="2189.03" y2="1273.93" fill="none" stroke="#000" stroke-linecap="round" stroke-linejoin="round" stroke-width="10"/><polygon points="2157.95 1088.27 2122.65 1161.94 2144.93 1243.73 2184.38 1182.41 2157.95 1088.27" fill="none" stroke="#000" stroke-linecap="round" stroke-linejoin="round" stroke-width="10"/><polyline points="2267.35 1263.95 2301.01 1225.37 2279.27 1145.8 2226.45 1201.81 2236.16 1264.54" fill="none" stroke="#000" stroke-linecap="round" stroke-linejoin="round" stroke-width="10"/><polyline points="2367.18 1271.22 2356.86 1243.73 2412.45 1176.8 2447.85 1252.16 2426.8 1273.93" fill="none" stroke="#000" stroke-linecap="round" stroke-linejoin="round" stroke-width="10"/><polyline points="2131.38 1038.53 2156.95 1014.08 2166.24 1058.05 2202.45 1031.27 2216.67 1082.67 2255.91 1051.87 2276.55 1103.26 2314.36 1072.49 2328.66 1117.65 2365.06 1086.73 2375.93 1129.98 2408.34 1092.99 2427.3 1138.2 2462.25 1100.45 2480.73 1138.2" fill="none" stroke="#000" stroke-linecap="round" stroke-linejoin="round" stroke-width="10"/><line x1="2710.18" y1="2397.8" x2="2692.14" y2="2399.31" fill="none" stroke="#000" stroke-linecap="round" stroke-linejoin="round" stroke-width="10"/><path d="m1695.63,2228.54l58.71,346.6c3.74,22.09,26.88,35.12,47.71,26.88h0c15.71-6.22,24.8-22.73,21.64-39.33l-61.31-322.88" fill="none" stroke="#000" stroke-linecap="round" stroke-linejoin="round" stroke-width="10"/><path d="m2406.85,2552.12l-1.03,135.23-127.94-.5-5.87-39.29-44.51,39.29h-192.44s-9.68-54.39-9.68-54.39c-4.27-15.6-2.73-37.23,13.44-38.05,35.09-1.78,93.46-.42,109.69-4.48,12.36-3.09,21.65-14.66,27.08-23.94l4.01-6.64,6.75-9.58" fill="none" stroke="#000" stroke-linecap="round" stroke-linejoin="round" stroke-width="10"/><line x1="2405.99" y1="2665.78" x2="2276.51" y2="2666.53" fill="none" stroke="#000" stroke-linecap="round" stroke-linejoin="round" stroke-width="10"/><line x1="2248.59" y1="2666.58" x2="2031.88" y2="2665.83" fill="none" stroke="#000" stroke-linecap="round" stroke-linejoin="round" stroke-width="10"/><path d="m2345.73,576.97c27.19,0,53.55,5.32,78.37,15.82,23.97,10.14,45.51,24.66,64,43.15,18.49,18.49,33.01,40.03,43.15,64,10.5,24.82,15.82,51.18,15.82,78.37s-5.32,53.55-15.82,78.37c-10.14,23.97-24.66,45.51-43.15,64-18.49,18.49-40.03,33.01-64,43.15-24.82,10.5-51.18,15.82-78.37,15.82s-53.55-5.32-78.37-15.82c-23.97-10.14-45.51-24.66-64-43.15-18.49-18.49-33.01-40.03-43.15-64-10.5-24.82-15.82-51.18-15.82-78.37s5.32-53.55,15.82-78.37c10.14-23.97,24.66-45.51,43.15-64,18.49-18.49,40.03-33.01,64-43.15,24.82-10.5,51.18-15.82,78.37-15.82m0-10c-116.72,0-211.34,94.62-211.34,211.34s94.62,211.34,211.34,211.34,211.34-94.62,211.34-211.34-94.62-211.34-211.34-211.34h0Z"/><path d="m1974.54,1273.93s30.07-38.86,69.29-34.59" fill="none" stroke="#000" stroke-linecap="round" stroke-linejoin="round" stroke-width="10"/><path d="m1992.59,1239.02s23.75-29.55,51.23-24.21" fill="none" stroke="#000" stroke-linecap="round" stroke-linejoin="round" stroke-width="10"/><circle cx="2354.33" cy="795.67" r="65.23" fill="none" stroke="#000" stroke-linecap="round" stroke-linejoin="round" stroke-width="10"/><circle cx="2214.88" cy="861.15" r="65.23" fill="none" stroke="#000" stroke-linecap="round" stroke-linejoin="round" stroke-width="10"/><line x1="2266.66" y1="821.47" x2="2291.33" y2="812.6" fill="none" stroke="#000" stroke-linecap="round" stroke-linejoin="round" stroke-width="10"/><path d="m2398.85,748l29.88-36.24c11.11-13.47,29.57-18.36,45.89-12.14l19.76,13.13" fill="none" stroke="#000" stroke-linecap="round" stroke-linejoin="round" stroke-width="10"/><circle cx="1488.02" cy="317.06" r="65.23" fill="none" stroke="#000" stroke-linecap="round" stroke-linejoin="round" stroke-width="10"/><circle cx="1334.02" cy="312.59" r="65.23" fill="none" stroke="#000" stroke-linecap="round" stroke-linejoin="round" stroke-width="10"/><line x1="1398.14" y1="300.54" x2="1424.16" y2="303.75" fill="none" stroke="#000" stroke-linecap="round" stroke-linejoin="round" stroke-width="10"/><path d="m1549.26,294.6l70.74,36.63c18.6,9.63,25.72,32.61,15.84,51.07h0" fill="none" stroke="#000" stroke-linecap="round" stroke-linejoin="round" stroke-width="10"/><path d="m1396.31,336.01l8.45,4.38c18.6,9.63,25.72,32.61,15.84,51.07h0" fill="none" stroke="#000" stroke-linecap="round" stroke-linejoin="round" stroke-width="10"/><path d="m1313.4,278.69s-22.19,17.47-12.75,42.96" fill="none" stroke="#000" stroke-linecap="round" stroke-linejoin="round" stroke-width="10"/><path d="m1468.26,281.99s-27.86,14.64-19.36,49.57" fill="none" stroke="#000" stroke-linecap="round" stroke-linejoin="round" stroke-width="10"/><path d="m1502.03,359.68s20.04-2.95,31.88-28.11" fill="none" stroke="#000" stroke-linecap="round" stroke-linejoin="round" stroke-width="10"/></g></svg>