<?xml version="1.0" encoding="UTF-8"?><svg id="a" xmlns="http://www.w3.org/2000/svg" viewBox="0 0 1080 1080"><defs><style>.b{fill:none;}.b,.c,.d{stroke:#7e6044;stroke-linecap:round;stroke-linejoin:round;stroke-width:1.5px;}.c{fill:#e4eeff;}.d{fill:#fff;}</style></defs><path class="d" d="M192.82,209.38v661.24c0,72.41,151.21,131.1,337.73,131.1s337.73-58.7,337.73-131.1V209.38"/><path class="c" d="M271.29,366.55l-31.34,80.54c-8.58,22.05,7.68,45.83,31.34,45.83h0c23.66,0,39.92-23.78,31.34-45.83l-31.34-80.54Z"/><ellipse class="c" cx="530.55" cy="209.38" rx="337.73" ry="131.1"/><path class="c" d="M360.38,492.92l-31.34,80.54c-8.58,22.05,7.68,45.83,31.34,45.83h0c23.66,0,39.92-23.78,31.34-45.83l-31.34-80.54Z"/><path class="c" d="M265.72,581.03l-31.34,80.54c-8.58,22.05,7.68,45.83,31.34,45.83h0c23.66,0,39.92-23.78,31.34-45.83l-31.34-80.54Z"/><path class="b" d="M271.29,175.83l31.05-16.38c26.28-13.86,57.03-16.57,85.33-7.52h0c27.11,8.67,56.52,6.57,82.11-5.88l19.7-9.58c23.52-11.44,50.32-14.18,75.67-7.73l59.33,15.09"/><path class="b" d="M466.35,273.3l31.05-16.38c26.28-13.86,57.03-16.57,85.33-7.52h0c27.11,8.67,56.52,6.57,82.11-5.88l19.7-9.58c23.52-11.44,50.32-14.18,75.67-7.73l59.33,15.09"/><path class="b" d="M377.71,226.34l31.05-16.38c26.28-13.86,57.03-16.57,85.33-7.52h0c27.11,8.67,56.52,6.57,82.11-5.88l19.7-9.58c23.52-11.44,50.32-14.18,75.67-7.73l59.33,15.09"/><path class="d" d="M760.56,398.66h0c73.06,12.18,126.61,75.39,126.61,149.46v177.77c0,38.74-14.84,76.01-41.47,104.15l-69.3,73.22"/><path class="d" d="M671.2,903.26l73.88-91.43c27.41-33.91,42.39-76.18,42.47-119.78l.14-76.59c.16-87.82-59.56-164.44-144.75-185.74h0"/></svg>