<?xml version="1.0" encoding="utf-8"?>
<!-- Generator: Adobe Illustrator 27.1.1, SVG Export Plug-In . SVG Version: 6.00 Build 0)  -->
<svg version="1.1" id="Layer_1" xmlns="http://www.w3.org/2000/svg" xmlns:xlink="http://www.w3.org/1999/xlink" x="0px" y="0px"
	 viewBox="0 0 1080 1080" style="enable-background:new 0 0 1080 1080;" xml:space="preserve">
<style type="text/css">
	.st0{clip-path:url(#SVGID_00000108286160968796509920000006261743408735375759_);fill:#EDD6D4;}
	.st1{clip-path:url(#SVGID_00000108286160968796509920000006261743408735375759_);}
	.st2{fill:#EDD6D4;stroke:#000000;stroke-width:2;stroke-linecap:round;stroke-linejoin:round;}
	.st3{fill:#FFFAA5;stroke:#000000;stroke-width:2;stroke-miterlimit:10;}
	
		.st4{clip-path:url(#SVGID_00000108286160968796509920000006261743408735375759_);fill:#EDD6D4;stroke:#000000;stroke-width:2;stroke-linecap:round;stroke-linejoin:round;}
</style>
<g>
	<defs>
		<rect id="SVGID_1_" width="1080" height="1080"/>
	</defs>
	<clipPath id="SVGID_00000137852936798658828200000007745344831157384329_">
		<use xlink:href="#SVGID_1_"  style="overflow:visible;"/>
	</clipPath>
	<path style="clip-path:url(#SVGID_00000137852936798658828200000007745344831157384329_);fill:#EDD6D4;" d="M-3.9-1.8h1085.1
		v1083.9H-3.9L-3.9-1.8z"/>
	<g style="clip-path:url(#SVGID_00000137852936798658828200000007745344831157384329_);">
		<g>
			<path class="st2" d="M1088.9,817.6l-177,1c0,0-54.5,24.7-75.5,31.4c-154.5,49.4-341,59.4-507.5,30.8
				c-61.8-10.6-118.8-30.6-167.1-58.1s-172.6,1-172.6,1l5.5-72.8l237.2-2.4c39,22.4,85,38.7,134.8,47.4
				C500.9,819.2,651.4,811,776,770.8c17-5.5,33.2-11.9,48.5-19.3l12.4-6.3l248.6-4L1088.9,817.6L1088.9,817.6z"/>
			<path class="st2" d="M342.1,77.5l123.6,1.7l-1.9,61.4l-23.2,76.6L337,90.1L342.1,77.5z"/>
			<path class="st2" d="M465.7,80l1.8,61.7l-1.2,74.1l-19.9,19.1l-19.5-44.6L465.7,80z"/>
			<path class="st2" d="M565.7,143.6l-98.2-1.9l-28.3,72.9l10.7,22.4l77.4-45.2L565.7,143.6z"/>
			<path class="st2" d="M449.9,237l115.8-93.4l-0.1,51.9l-49.7,47.3l-64.3,37L449.9,237z"/>
			<path class="st2" d="M483.7,512.7l427.3-5.3l47.9,32.4l-19,21.5l-456.7-0.9L483.7,512.7z"/>
			<path class="st2" d="M863.3,422.3l51.5,29.7l-17,35.2l-413.4-4.4l0.2-30.1l360.3-36L863.3,422.3z"/>
			<path class="st2" d="M565.6,195.5l130,7.1l-21.6,28.2l-210,75.3l-10.5-33.2L565.6,195.5z"/>
			<path class="st2" d="M791.6,335.9l72.1,29.2l-142.6,48.9l-243.5,7l-4.5-52.3L791.6,335.9z"/>
			<path class="st2" d="M483.8,549l475-9.2l0,66.9l-476,6.3L483.8,549z"/>
			<path class="st2" d="M485.2,462.6l429.6-10.5l0,57.5l-430.5,5.6L485.2,462.6z"/>
			<path class="st2" d="M483.6,405l380.2-39.9l-0.5,57.3L483,463.1L483.6,405z"/>
			<path class="st2" d="M472.4,296.9l223.2-94.3l-1.3,53.5l-108.5,50.2L466,339.5l-4-37.9L472.4,296.9z"/>
			<path class="st2" d="M477.7,334.5l216.6-78.4l103.6,21.5l-24.7,34.8l-296.9,44.3L477.7,334.5z"/>
			<path class="st2" d="M478.4,342.3l5.5,63.1l313.5-66.1l0.6-61.6L478.4,342.3z"/>
			<path class="st2" d="M341.2,501.3l-341.6,1.5l-3.7-0.1L-2.9-3.1l211.8-3.1l94.6,67.5l96.2,106.7l55,140.4l2.8,291.8l-16,12.4
				L341.2,501.3l2.3-364.8"/>
			<path class="st2" d="M244.4-1.5l38.3,25.2l14.7,11.2c87.6,66.6,149.9,161.1,176.9,267.8l2.4,9.5c9.2,36.3,13.5,73.7,12.9,111.1
				l-2.9,189.8l-45.1-0.4l1.8-190c0.3-36.5-4-72.8-12.9-108.2c-27.6-109.7-92.6-206.3-183.8-273.2l-22.4-16.4L179.4-1.7L244.4-1.5z"
				/>
		</g>
		<path class="st3" d="M31,151.5h247.7v67.1H31L31,151.5z"/>
		<path class="st2" d="M958.9,606.8L1082,605l1.6-608.1L958.1-2.9L958.9,606.8z"/>
		<path class="st2" d="M-7.5,859.5l96.6-0.1c59.3,31.8,129.4,54.9,205.3,67.2c204.5,33,433.8,21.1,623.6-36.3
			c25.8-7.8,50.6-17,74-27.5l18.9-9l77.4,0.8l-0.4,95.8l-77.4-0.8l-18.9,9c-23.4,10.5-48.1,19.7-74,27.5
			c-189.8,57.4-419,69.3-623.6,36.3C218,1010.1,148,987,88.6,955.2s-96.6,0.1-96.6,0.1L-7.5,859.5L-7.5,859.5z"/>
		<path class="st2" d="M892.3,177.7c0,0-149.6-158.3-368.6-180.4l-103.5,2c266.1,7.4,453.5,198.8,453.5,198.8"/>
	</g>
	<path style="clip-path:url(#SVGID_00000137852936798658828200000007745344831157384329_);" d="M84.7,197h-5.4l-10.4-12.4h-5.8V197
		H59l0-31.1h8.7c1.9,0,3.4,0.1,4.7,0.4s2.4,0.7,3.4,1.3c1.1,0.7,2,1.6,2.6,2.7s0.9,2.4,0.9,4.1c0,2.2-0.6,4.1-1.7,5.6
		s-2.7,2.6-4.7,3.4L84.7,197L84.7,197z M75,174.7c0-0.9-0.2-1.7-0.5-2.4s-0.8-1.3-1.6-1.8c-0.6-0.4-1.3-0.7-2.1-0.9
		s-1.8-0.2-2.9-0.2h-4.9v11.8h4.2c1.3,0,2.4-0.1,3.4-0.3s1.8-0.7,2.5-1.3c0.6-0.6,1.1-1.3,1.4-2S75,175.8,75,174.7z"/>
	<path style="clip-path:url(#SVGID_00000137852936798658828200000007745344831157384329_);" d="M107.3,185.4c0,3.8-1,6.8-2.9,9
		s-4.6,3.3-7.8,3.3c-3.3,0-5.9-1.1-7.9-3.3c-1.9-2.2-2.9-5.2-2.9-9s1-6.8,2.9-9c1.9-2.2,4.6-3.3,7.9-3.3c3.3,0,5.9,1.1,7.8,3.3
		S107.3,181.6,107.3,185.4L107.3,185.4z M103.2,185.4c0-3-0.6-5.3-1.8-6.7s-2.8-2.2-4.9-2.2c-2.1,0-3.8,0.7-5,2.2s-1.8,3.7-1.8,6.7
		c0,2.9,0.6,5.1,1.8,6.7s2.8,2.3,4.9,2.3c2.1,0,3.7-0.8,4.9-2.2C102.6,190.6,103.2,188.4,103.2,185.4z"/>
	<path style="clip-path:url(#SVGID_00000137852936798658828200000007745344831157384329_);" d="M133.2,185.4c0,3.8-1,6.8-2.9,9
		s-4.6,3.3-7.8,3.3c-3.3,0-5.9-1.1-7.9-3.3c-1.9-2.2-2.9-5.2-2.9-9s1-6.8,2.9-9c1.9-2.2,4.6-3.3,7.9-3.3c3.3,0,5.9,1.1,7.8,3.3
		S133.2,181.6,133.2,185.4L133.2,185.4z M129.2,185.4c0-3-0.6-5.3-1.8-6.7s-2.8-2.2-4.9-2.2c-2.1,0-3.8,0.7-5,2.2s-1.8,3.7-1.8,6.7
		c0,2.9,0.6,5.1,1.8,6.7s2.8,2.3,4.9,2.3c2.1,0,3.7-0.8,4.9-2.2C128.6,190.6,129.2,188.4,129.2,185.4z"/>
	<path style="clip-path:url(#SVGID_00000137852936798658828200000007745344831157384329_);" d="M173.4,197.1h-3.9v-13.3
		c0-1,0-2-0.1-2.9c-0.1-0.9-0.3-1.7-0.6-2.2c-0.3-0.6-0.8-1.1-1.4-1.4s-1.5-0.5-2.6-0.5c-1.1,0-2.2,0.3-3.3,0.8s-2.2,1.2-3.3,2.1
		c0,0.3,0.1,0.7,0.1,1.1c0,0.4,0,0.9,0,1.3v14.9h-3.9v-13.3c0-1,0-2-0.1-2.9s-0.3-1.7-0.6-2.2c-0.3-0.6-0.8-1.1-1.4-1.4
		s-1.5-0.4-2.6-0.4c-1.1,0-2.1,0.3-3.2,0.8s-2.2,1.2-3.2,2v17.4h-3.9l0-23.4h3.9v2.6c1.2-1,2.4-1.8,3.7-2.4s2.5-0.9,3.9-0.9
		c1.6,0,2.9,0.3,4,1c1.1,0.7,1.9,1.6,2.5,2.8c1.6-1.3,3-2.3,4.4-2.9s2.7-0.9,4.2-0.9c2.6,0,4.5,0.8,5.7,2.3c1.2,1.6,1.8,3.7,1.8,6.5
		L173.4,197.1L173.4,197.1z"/>
	<path style="clip-path:url(#SVGID_00000137852936798658828200000007745344831157384329_);" d="M197.7,190.4c0,2.1-0.9,3.9-2.6,5.2
		c-1.8,1.4-4.2,2.1-7.2,2c-1.7,0-3.3-0.2-4.8-0.6c-1.4-0.4-2.6-0.9-3.6-1.4v-4.4h0.2c1.2,0.9,2.6,1.7,4.1,2.2s3,0.8,4.4,0.8
		c1.7,0,3.1-0.3,4.1-0.8c1-0.6,1.5-1.4,1.5-2.6c0-0.9-0.3-1.6-0.8-2.1s-1.6-0.9-3.1-1.2c-0.6-0.1-1.3-0.3-2.2-0.4
		c-0.9-0.2-1.7-0.4-2.5-0.6c-2.1-0.5-3.5-1.3-4.4-2.4c-0.9-1.1-1.3-2.4-1.3-3.9c0-1,0.2-1.9,0.6-2.7s1-1.6,1.8-2.3
		c0.8-0.6,1.8-1.2,3-1.6c1.2-0.4,2.6-0.6,4.1-0.6c1.4,0,2.8,0.2,4.2,0.5c1.4,0.3,2.6,0.8,3.6,1.2v4.2h-0.2c-1-0.7-2.2-1.4-3.7-1.9
		s-2.8-0.8-4.2-0.8c-1.4,0-2.6,0.3-3.6,0.8s-1.5,1.4-1.5,2.5c0,1,0.3,1.7,0.9,2.2c0.6,0.5,1.5,0.9,2.8,1.2c0.7,0.2,1.5,0.3,2.4,0.5
		c0.9,0.2,1.6,0.3,2.2,0.5c1.8,0.4,3.2,1.1,4.2,2.2C197.2,187.3,197.7,188.7,197.7,190.4L197.7,190.4z"/>
	<path style="clip-path:url(#SVGID_00000137852936798658828200000007745344831157384329_);" d="M239.5,165.8h4.1V197h-4.1V165.8z"/>
	<path style="clip-path:url(#SVGID_00000137852936798658828200000007745344831157384329_);" d="M239.5,165.8l3,2.8l-11.3,12.3
		l-3-2.8L239.5,165.8z"/>
	<path style="clip-path:url(#SVGID_00000137852936798658828200000007745344831157384329_);" d="M255,178.1l-3,2.8l-11.3-12.3l3-2.8
		L255,178.1z"/>
	
		<ellipse style="clip-path:url(#SVGID_00000137852936798658828200000007745344831157384329_);fill:#EDD6D4;stroke:#000000;stroke-width:2;stroke-linecap:round;stroke-linejoin:round;" cx="881.9" cy="187.4" rx="13.5" ry="14.4"/>
</g>
</svg>
