<?xml version="1.0" encoding="utf-8"?>
<!-- Generator: Adobe Illustrator 27.1.1, SVG Export Plug-In . SVG Version: 6.00 Build 0)  -->
<svg version="1.1" id="a" xmlns="http://www.w3.org/2000/svg" xmlns:xlink="http://www.w3.org/1999/xlink" x="0px" y="0px"
	 viewBox="0 0 1080 1080" style="enable-background:new 0 0 1080 1080;" xml:space="preserve">
<style type="text/css">
	.st0{fill:none;}
	.st1{fill:#1D1D1B;}
	.st2{fill:#FFFFFF;}
	.st3{fill:url(#SVGID_1_);}
	.st4{fill:#FFFFFF;stroke:#1D1D1B;stroke-width:2;stroke-linecap:round;stroke-linejoin:round;}
	.st5{fill:none;stroke:#1D1D1B;stroke-width:2;stroke-linecap:round;stroke-linejoin:round;}
	.st6{fill:none;stroke:#1D1D1B;stroke-width:2;stroke-miterlimit:10;}
	.st7{fill:#FFFFFF;stroke:#1D1D1B;stroke-width:2;stroke-miterlimit:10;}
</style>
<pattern  y="1080" width="5.7" height="5.7" patternUnits="userSpaceOnUse" id="c" viewBox="0 -5.7 5.7 5.7" style="overflow:visible;">
	<g>
		<rect x="0" y="-5.7" class="st0" width="5.7" height="5.7"/>
		<g>
			<rect y="-5.7" class="st0" width="5.7" height="5.7"/>
			<circle class="st1" cx="2.8" cy="-2.8" r="1"/>
		</g>
	</g>
</pattern>
<g id="b">
	<rect class="st2" width="1080" height="1080"/>
	<g>
		<g>
			<pattern  id="SVGID_1_" xlink:href="#c" patternTransform="matrix(1 0 0 -1 -3739.2202 -14528.0098)">
			</pattern>
			<rect x="40" y="104.4" class="st3" width="1000" height="614.6"/>
			<rect x="41" y="772.2" class="st4" width="998.3" height="202.3"/>
			<rect x="40.9" y="717.6" class="st4" width="998.9" height="54.5"/>
			<rect x="181.5" y="586.8" class="st4" width="717.7" height="237"/>
			<rect x="181.5" y="824.1" class="st4" width="205.8" height="150.5"/>
			<rect x="693.4" y="823.7" class="st4" width="205.8" height="150.7"/>
			<rect x="422.7" y="617.8" class="st4" width="241.3" height="158"/>
			<rect x="435.9" y="617.9" class="st4" width="215" height="140.7"/>
			<line class="st5" x1="543.5" y1="617" x2="543.7" y2="738.9"/>
			<rect x="119.2" y="167" class="st5" width="842.2" height="354.4"/>
			<rect x="181.5" y="823.8" class="st4" width="717.8" height="17.7"/>
			<path class="st4" d="M463.4,736.9h153.8c25.5,0,46.2,20.7,46.2,46.2v191.3H417.2V783.1C417.2,757.6,437.9,736.9,463.4,736.9
				L463.4,736.9z"/>
			<path class="st4" d="M463.7,769.5h153.7c25.5,0,46.2,20.7,46.2,46.2v159.1H417.5V815.7C417.5,790.2,438.2,769.5,463.7,769.5
				L463.7,769.5z"/>
			<ellipse class="st4" cx="250.9" cy="623.7" rx="43.5" ry="16.4"/>
			<path class="st4" d="M240.7,553.6H263v62.6c0,3.1-2.5,5.7-5.7,5.7h-10.9c-3.1,0-5.7-2.5-5.7-5.7V553.6L240.7,553.6z"/>
			<ellipse class="st4" cx="251.9" cy="553" rx="11.4" ry="8.2"/>
			<ellipse class="st4" cx="222.7" cy="606.1" rx="10.9" ry="10.9"/>
			<line class="st5" x1="241.5" y1="596.9" x2="263" y2="596.9"/>
			<path class="st5" d="M678.1,199.9c-12.3,1.7-23.4,5.4-32.1,10.4c-7-3.3-14.6-5.2-22.6-5.2c-16.6,0-31.7,7.9-43,20.8
				c-12.7-14.3-36-24-62.6-24c-23.1,0-43.7,7.3-57.1,18.6c-6.4-3.2-13.7-5-21.5-5s-14.8,1.8-21.1,4.8"/>
			<path class="st5" d="M701.7,323.6c6.1-0.3,12-0.9,17.5-1.7c10.2,15.2,26.4,25.2,44.7,25.2s33.6-9.3,43.8-23.8
				c3,0.5,6.1,0.7,9.3,0.7c2.5,0,4.9-0.2,7.2-0.5c9,10.1,30.3,17.2,55.2,17.2c33,0,59.7-12.5,59.7-27.9c0-5.2-3.1-10-8.3-14.1
				c5.6-10,9-22.1,9-35.3c0-33.9-22-61.4-49.2-61.4c-17.2,0-32.2,11-41,27.6c-9.8-15.8-31-26.8-55.7-26.8c-16.8,0-32,5.1-43.1,13.3
				c-11.1-9.4-28.9-15.8-49.4-17.1"/>
			<path class="st5" d="M418,350.4c16.3-4.6,28.5-17.1,30.7-32.4c11.4,4.2,25.3,6.7,40.4,6.7c25.2,0,47.2-6.9,59.3-17.3
				c5.1,1.2,10.6,2.1,16.3,2.5c9.2,28.7,32,49,58.7,49c22.3,0,41.8-14.1,53-35.5c0.8,0,1,0.1,1.7,0.1"/>
			<path class="st5" d="M393.8,232.9c-11.3-3.4-25.5-5.4-40.9-5.4c-3.6,0-7.2,0.1-10.7,0.4c-2.9-17.1-22.8-30.3-46.9-30.3
				c-20.1,0-37.3,9.3-44.1,22.3c-10.3-4-23.3-6.4-37.5-6.4c-33.3,0-60.3,13.1-60.3,29.4c0,1.4,0.3,2.8,0.7,4.1
				c-14.2,6.3-23.2,15.2-23.2,25.2c0,6.9,4.3,13.3,11.6,18.7c-3.7,4.1-5.9,8.7-5.9,13.7c0,16,22,28.9,49.1,28.9
				c20.2,0,37.5-7.2,45-17.4c7.4,2.9,16.5,4.7,26.4,4.7c3.9,0,7.7-0.3,11.3-0.8c10.5,9.1,27.4,15,46.5,15s34.7-5.4,45.2-13.9
				c3.5,14.9,16.7,26.7,33.6,30.2"/>
			<rect x="119.3" y="167" class="st5" width="274.7" height="354.3"/>
			<rect x="417.7" y="167" class="st5" width="260.7" height="354.3"/>
			<rect x="701.2" y="167" class="st5" width="260.2" height="354.3"/>
			<path class="st5" d="M204.6,331.9c0,0,5,138.8-44.4,158.2"/>
			<path class="st5" d="M285,329.2c0,0-13.1,102.7,27,144"/>
			<path class="st5" d="M376.7,344.9c0,0-2.3,136.4-85.2,161.4"/>
			<path class="st5" d="M473.8,325c0,0-10.9,139.3,43.1,178.1"/>
			<path class="st5" d="M534,317.7c0,0,9.6,66.9-24.9,118.8"/>
			<path class="st5" d="M604.9,356.4c0,0-9.2,77,32,105.8"/>
			<path class="st5" d="M735.2,339.8c0,0,6.3,73.9-33.5,131.7"/>
			<path class="st5" d="M816.4,325.2c0,0,7.6,136.6,62.5,173.1"/>
			<path class="st5" d="M867.7,341.2c0,0,4,46.3-19.4,68.7"/>
			<path class="st5" d="M914.5,338.4c0,0-2.4,63.8,23.4,88.4"/>
			<ellipse class="st4" cx="280.4" cy="888.8" rx="10.6" ry="10.7"/>
			<ellipse class="st4" cx="796.8" cy="888.2" rx="10.6" ry="10.7"/>
			<rect x="181.5" y="841.5" class="st5" width="206" height="98.5"/>
			<rect x="693.7" y="841.6" class="st5" width="205.6" height="98.5"/>
			<path class="st4" d="M251.9,553c0,0-11.1-4.6-12.9-9.2c-1.8-4.7,0.1-8.9,5.4-16c5.3-7.1,3.7-16.9,3.7-16.9s14.1,19.6,13,28
				C260,547.3,251.9,553,251.9,553L251.9,553z"/>
			<rect x="40" y="105.2" class="st6" width="1000" height="868.8"/>
		</g>
		<ellipse class="st7" cx="236.3" cy="480.4" rx="29" ry="19.2"/>
		<ellipse class="st7" cx="214.7" cy="400.3" rx="60.5" ry="40.2"/>
		<ellipse class="st7" cx="310.4" cy="274.3" rx="111.8" ry="74.2"/>
	</g>
</g>
</svg>
