<?xml version="1.0" encoding="UTF-8"?><svg id="a" xmlns="http://www.w3.org/2000/svg" viewBox="0 0 1080 1080"><defs><style>.b{fill:#fef9bb;}.b,.c{stroke:#7e6044;stroke-linecap:round;stroke-linejoin:round;stroke-width:1.5px;}.c{fill:#fff;}</style></defs><path class="c" d="M941.77,383.43l-10.81-9.76c-9.02-7.77-22.37-7.81-31.42-.07h0c-2.61,2.23-4.63,4.9-6.04,7.8l-5.03,14.77,53.71-1.48-.4-11.25"/><path class="c" d="M207.59,438.31l16.4-9.27c13.58-7.27,30.44-3.55,39.7,8.77h0c.21.27.41.55.6.83,3.17,4.52,4.92,9.89,5.28,15.4l.26,4.02-6.46,27.07-55.78-46.82Z"/><path class="b" d="M143.77,568.59c0,29.36,12.72,56.24,33.81,77,37.74,37.15,94.61,46.82,142.97,25.23,16.07-7.17,77.51-42.88,136.72-42.86,97.07,1.62,241.51,85.03,267.59,96.67,80.57,35.97,175.32,19.86,238.2-42.04,35.14-34.59,56.33-79.37,56.33-128.28,0-52.85-24.75-100.88-65.09-136.44-65.3-57.55-161.07-63.87-234.35-16.9-27.47,17.6-169.2,126.96-264.98,126.96-56.63-1.06-115.18-40.94-131.46-51.38-43.98-28.19-101.47-24.4-140.67,10.14-24.22,21.34-39.07,50.17-39.07,81.89ZM594.66,547.82c0,5.65-34.22,10.23-76.44,10.23-42.21,0-76.44-4.58-76.44-10.23s34.22-10.23,76.44-10.23c42.21,0,76.44,4.58,76.44,10.23ZM441.79,609.57c0-6.17,34.22-11.16,76.44-11.16,42.21,0,76.44,5,76.44,11.16s-34.22,11.16-76.44,11.16c-42.21,0-76.44-5-76.44-11.16ZM350.07,579.13c0-5.88,34.22-10.65,76.44-10.65,42.21,0,76.44,4.77,76.44,10.65,0,5.88-34.22,10.65-76.44,10.65-42.21,0-76.44-4.77-76.44-10.65Z"/><path class="c" d="M101.31,540l120.39-74.42c13.31-7.76,30.29-4.64,39.99,7.33h0c11.16,13.79,8.61,34.09-5.62,44.69l-63.57,42.53c-18.99,12.7-26.82,36.75-18.96,58.2h0c5.51,15.03,17.95,26.47,33.39,30.71l52.71,14.46c13.46,4.24,22.05,17.41,20.49,31.44h0c-1.96,17.56-18.79,29.49-36.01,25.51l-82.72-17.07c-19.93-4.11-38.71-12.55-55.02-24.72,0,0,0,0,0,0l-20.71-18.43c-13.58-12.09-23.19-28-27.56-45.65h0c-3.82-15.43-3.49-31.59.96-46.84l6.64-22.79c6.55-22.48,21.55-41.6,41.95-53.1.88-.5,1.77-.98,2.66-1.46l97.27-52.07c13.58-7.27,30.44-3.55,39.7,8.77h0c3.94,5.24,5.98,11.31,6.24,17.38v1.2"/><path class="c" d="M1004.81,478.05l-78.28-76.43c-8.74-8.09-22.07-8.61-31.4-1.21h0c-10.74,8.52-12.24,24.27-3.29,34.66l31.2,36.24c9.74,11.31,17.83,23.95,24.03,37.53l1.6,3.5c7.14,15.63,11.68,32.33,13.45,49.42l.22,2.08c1.75,16.96.76,34.1-2.96,50.74h0c-4.52,20.26-12.98,39.43-24.9,56.42l-3.42,4.87-11.1,15.38c-6.39,8.85-5.62,20.98,1.83,28.95h0s0,0,0,0c11.24,11.81,29.73,12.85,42.22,2.37l35.26-42.25,19.19-26.6c12.98-18,21.47-38.83,24.76-60.78h0c5.55-37.01,2.53-74.79-8.82-110.45l-.44-1.38c-4.97-15.6-13.85-29.74-26.05-40.67-.51-.45-1.01-.9-1.53-1.34l-64.6-55.67c-9.02-7.77-22.37-7.81-31.42-.07h0c-3.86,3.29-6.41,7.53-7.63,12.06l-.2.81"/></svg>