<?xml version="1.0" encoding="UTF-8"?><svg id="uuid-e911f71d-080a-48d5-b0cf-9a971208f244" xmlns="http://www.w3.org/2000/svg" viewBox="0 0 1200 1200"><rect x="895.88" y="-35.28" width="1550.78" height="1248.51" fill="#ebeeea"/><polygon points="936.39 -7.88 1109.38 124.6 1011.65 277.71 1145.21 386.84 993.55 643.8 1143.65 746.78 1047.96 944.06 1199.57 1208.65 -2417.65 1243.04 -2417.65 -20.92 936.39 -7.88" fill="#adadad" stroke="#000" stroke-miterlimit="10" stroke-width=".75"/><path d="m1252.65,714.48c-9.21,1.15-22,.85-30.59-5.99-11.29-8.98-40.96-49.67-60.58-72.76-9.04-10.64-24.66-.36-33.1,10.75l-32.17,35.15,100.91,131.78,50.25,9.88-23.83,24.62,66.74,87.87,83.16-62.69" fill="#fff" stroke="#000" stroke-linecap="round" stroke-linejoin="round"/><line x1="1223.03" y1="818.5" x2="1108.93" y2="668.42" fill="#fff" stroke="#000" stroke-linecap="round" stroke-linejoin="round"/><polygon points="361.72 608.76 343.15 744.2 511.35 793.35 553.95 692.86 484.05 636.07 361.72 608.76" fill="#0085ff" stroke="#000" stroke-miterlimit="10"/><polygon points="350.48 390.16 369.28 641.68 617.91 657.58 675.73 528.93 603.45 410.39 350.48 390.16" fill="#fff" stroke="#000" stroke-linecap="round" stroke-linejoin="round"/><polygon points="-527.69 308.65 -241.57 243.67 -195.11 236.77 -18.4 238.83 53.72 444.31 -168.08 414.58 -290.63 404.97 -300.9 390.75 -439.86 423.69 -527.69 308.65" fill="#f93d00" stroke="#000" stroke-miterlimit="10"/><path d="m840.82,136.4l15.26-22c4.14-5.61,11.63-7.57,17.99-4.71h0c7.69,3.47,10.93,12.65,7.11,20.17l-4.89,9.64c-.85,1.68-.58,3.72.68,5.13h0c1.7,1.89,4.62,2.03,6.5.31l39.34-36.22c4.59-4.23,11.7-4.09,16.12.32h0c4.73,4.72,4.54,12.44-.42,16.91l-34.05,30.7c-1.01.91-.97,2.51.09,3.36h0c.77.62,1.87.66,2.67.08l38.48-27.51c4.97-3.77,12.04-2.96,16.02,1.85,4.26,5.14,3.34,12.81-2.02,16.79l-36.99,27.47c-1.05.78-1.27,2.26-.51,3.31h0c.71.98,2.04,1.27,3.09.68l42.45-23.86c5.45-3.05,12.33-1.27,15.61,4.04,3.51,5.68,1.54,13.15-4.32,16.36l-42.06,22.76c-1.45.78-2.02,2.57-1.31,4.05h0c.68,1.42,2.32,2.09,3.8,1.57l33.28-11.74c5.9-2.04,12.36.93,14.65,6.73,2.45,6.21-.81,13.21-7.14,15.33l-34.06,11.4c-7.9,2.64-15.59,5.89-23.01,9.7l-17.95,9.3-64.42-111.93Z" fill="#fff" stroke="#000" stroke-linecap="round" stroke-linejoin="round"/><path d="m1270.22,488.85l-8.41-40.8-42.47-14.66-25.3,14.63c-13.44,7.77-25.22,18.13-34.66,30.46l-7.16,9.37-11.58,16.3" fill="#fff" stroke="#000" stroke-linecap="round" stroke-linejoin="round"/><path d="m646.6,1065.81c4.68,8.01,12.7,17.98,23.36,20.65,14,3.5,64.34,2.32,94.6,3.86,13.94.71,15.27,19.36,11.59,32.82l-8.35,46.91h-165.98s-38.39-33.89-38.39-33.89l-5.06,33.89-110.35.43-.79-104.14" fill="#fff" stroke="#000" stroke-linecap="round" stroke-linejoin="round"/><line x1="447.88" y1="1151.88" x2="560.99" y2="1152.53" fill="#fff" stroke="#000" stroke-linecap="round" stroke-linejoin="round"/><line x1="582.02" y1="1152.57" x2="770.55" y2="1151.92" fill="#fff" stroke="#000" stroke-linecap="round" stroke-linejoin="round"/><polyline points="658.89 644.71 659.92 1070.66 434.11 1070.66 433.26 762.63" fill="#0085ff" stroke="#000" stroke-miterlimit="10"/><path d="m937.44,1065.21c4.68,8.01,12.7,17.98,23.36,20.65,14,3.5,64.34,2.32,94.6,3.86,13.94.71,15.27,19.36,11.59,32.82l-8.35,46.91h-165.98s-38.39-33.89-38.39-33.89l-5.06,33.89-110.35.43-.79-104.14" fill="#fff" stroke="#000" stroke-linecap="round" stroke-linejoin="round"/><line x1="738.72" y1="1151.28" x2="851.82" y2="1151.93" fill="#fff" stroke="#000" stroke-linecap="round" stroke-linejoin="round"/><line x1="872.85" y1="1151.97" x2="1061.38" y2="1151.32" fill="#fff" stroke="#000" stroke-linecap="round" stroke-linejoin="round"/><path d="m458.71,1065.32c4.68,8.01,12.7,17.98,23.36,20.65,14,3.5,64.34,2.32,94.6,3.86,13.94.71,15.27,19.36,11.59,32.82l-8.35,46.91h-165.98s-38.39-33.89-38.39-33.89l-5.06,33.89-110.35.43-.79-104.14" fill="#fff" stroke="#000" stroke-linecap="round" stroke-linejoin="round"/><line x1="259.99" y1="1151.39" x2="373.1" y2="1152.04" fill="#fff" stroke="#000" stroke-linecap="round" stroke-linejoin="round"/><line x1="394.12" y1="1152.08" x2="582.66" y2="1151.43" fill="#fff" stroke="#000" stroke-linecap="round" stroke-linejoin="round"/><polyline points="487.61 749.88 486.56 1067.75 246.22 1070.18 251.55 703.51" fill="#0085ff" stroke="#000" stroke-miterlimit="10"/><path d="m-160.68,1065.62c-4.68,8.01-12.7,17.98-23.36,20.65-14,3.5-64.34,2.32-94.6,3.86-13.94.71-15.27,19.36-11.59,32.82l8.35,46.91H-115.9l38.39-33.89,5.06,33.89,110.35.43.79-104.14" fill="#fff" stroke="#000" stroke-linecap="round" stroke-linejoin="round"/><line x1="38.04" y1="1151.69" x2="-75.06" y2="1152.34" fill="#fff" stroke="#000" stroke-linecap="round" stroke-linejoin="round"/><rect x="-175.07" y="582.58" width="225.81" height="482.55" fill="#fff" stroke="#000" stroke-linecap="round" stroke-linejoin="round"/><path d="m-300.62,380.9l2.04,204.06c-.29,28.57,16.05,54.7,41.87,66.94h0c41.51,19.68,87.39,28.3,133.21,25.04l54.41-3.87c35.08-2.5,68.64-15.37,96.38-36.98h0c16.39-12.77,26.59-31.89,28.05-52.61l10.14-143.18" fill="#f93d00" stroke="#000" stroke-miterlimit="10"/><path d="m268.89,575.73l16.21,37.81,13.32,43.06,64.15,16.29,47.13,7.42c41.52,6.54,83.91,5.1,124.89-4.23l63.21-14.39,72.3-63.14" fill="#fff" stroke="#000" stroke-linecap="round" stroke-linejoin="round"/><path d="m1286.64,530.42l15.99,12.89,3.41,42.83-22.61,25.09-43.67,4.34c-15.08,1.5-30.3-.78-44.28-6.63l-16.66-6.97-9.08-9" fill="#fff" stroke="#000" stroke-linecap="round" stroke-linejoin="round"/><g><polygon points="1133.04 505.95 1160.55 505.45 1185.57 578.49 1147.04 595 1133.04 505.95" fill="#fff" stroke="#000" stroke-linecap="round" stroke-linejoin="round"/><path d="m1141.62,506.61l50.62-21.55c7.95-3.38,17.16,0,21.02,7.73h0c4.25,8.5.38,18.82-8.41,22.43l-44.64,18.32" fill="#fff" stroke="#000" stroke-linecap="round" stroke-linejoin="round"/><path d="m1154.05,526.97l50.62-21.55c7.95-3.38,17.16,0,21.02,7.73h0c4.25,8.5.38,18.82-8.41,22.43l-44.64,18.32" fill="#fff" stroke="#000" stroke-linecap="round" stroke-linejoin="round"/><path d="m1157.02,550.52l50.62-21.55c7.95-3.38,17.16,0,21.02,7.73h0c4.25,8.5.38,18.82-8.41,22.43l-44.64,18.32" fill="#fff" stroke="#000" stroke-linecap="round" stroke-linejoin="round"/><path d="m1152.33,579.14l50.62-21.55c7.95-3.38,17.16,0,21.02,7.73h0c4.25,8.5.38,18.82-8.41,22.43l-94.09,34.46-25.61-8.33-1.14-20.07-15.53-59.85,15.56-24.07,33.26-33.89c7.32-7.52,19.23-8.04,27.18-1.19h0c8.75,7.54,9.24,20.92,1.07,29.09l-14.04,14.03" fill="#fff" stroke="#000" stroke-linecap="round" stroke-linejoin="round"/></g><path d="m494.55,1087.61c18.44.16,66.14-.29,81.51.34,14.29.59,15.84,19.69,12.2,33.52l-8.1,48.16-67.86.65-56.51.54c-26.64.25-48.45-21.14-48.7-47.78l-.95-99.58,34.35-39.67-34.78-4.86-1.52-113.07,119.1,4.97" fill="#fff" stroke="#000" stroke-linecap="round" stroke-linejoin="round"/><path d="m490.19,1129.02c.21-16.19.72-30.12,2.27-36.56,2.63-10.95,12.77-19.26,20.93-24.14l-3.61-62.47-40.27-71.97" fill="#fff" stroke="#000" stroke-linecap="round" stroke-linejoin="round"/><line x1="423.13" y1="866.53" x2="423.96" y2="980.79" fill="#fff" stroke="#000" stroke-linecap="round" stroke-linejoin="round"/><path d="m423.86,1002.99l1.42,109.11h0c.4,22.74,19.07,40.9,41.81,40.68l116.09-1.11" fill="none" stroke="#000" stroke-linecap="round" stroke-linejoin="round"/><polygon points="659.21 1032.87 513.96 1082.89 508.58 987.02 647.15 989.14 659.21 1032.87" fill="#fff" stroke="#000" stroke-linecap="round" stroke-linejoin="round"/><path d="m479.95,785.82l-12.57,24.13c-15.67,32.43-19.36,69.36-10.41,104.25l3.28,12.79c11.89,46.36,44.85,84.44,89.02,102.87h0c40.67,16.96,86.68,15.5,126.19-3.99l148.15-67.88,1.44-113.87-109.54-54.77-235.57-3.51Z" fill="#fff" stroke="#000" stroke-linecap="round" stroke-linejoin="round"/><path d="m565.96,839.43l-65.84-99.25-3.37-67.55c38.09-64.18,106.59-104.23,181.11-108.37l33.36-1.85,66.68,7.97,311.6-83.07,32.2,142.54-231.62,65.1c-38.91,12.39-68.79,43.81-79.22,83.3l-1.38,5.22" fill="#f93d00" stroke="#000" stroke-miterlimit="10"/><path d="m755.69,762.37l11.66-4.39c22.88-8.62,48.33-7.29,70.18,3.69h0c20.93,10.51,36.77,28.96,44,51.23l3.66,48.58-116.06,20.91-39.26-104.97,25.82-15.04Z" fill="#fff" stroke="#000" stroke-linecap="round" stroke-linejoin="round"/><path d="m816.97,896.75l-93.41,170.15,238.73-2.47-2.96-143.9c-.4-70.37-68.41-120.54-135.76-100.15l-180.66,34.92" fill="#fff" stroke="#000" stroke-linecap="round" stroke-linejoin="round"/><path d="m609.9,789.99l117.13-66.63,72.77,102.41-112.8,55.48c-64.17,31.56-141.75,12.36-183.79-45.5h0c-32.92-45.31-32.57-113.56-6.47-163.11" fill="#f93d00" stroke="#000" stroke-miterlimit="10"/><line x1="595.05" y1="717.33" x2="631.42" y2="777.45" fill="#fff" stroke="#000" stroke-linecap="round" stroke-linejoin="round"/><path d="m20.35,487.58l-32.88-75.72-134.08,68.29,29.15,63.24c17.77,38.55,53.59,65.7,95.51,72.39h0c60.21,9.61,118.76-24.84,139.62-82.13l4.38-12.03c8.38-23.01,9.94-47.95,4.49-71.82l-15.13-66.33c-9.85-43.2-41.43-78.19-83.41-92.4l-35.45-17.92" fill="#f93d00" stroke="#000" stroke-miterlimit="10"/><circle cx="-115.07" cy="197.06" r="133.18" fill="#fff" stroke="#000" stroke-linecap="round" stroke-linejoin="round"/><g><path d="m202.45,225.57l-27.21,15.27h0c34.1,72.53,46.26,153.45,34.99,232.8l-.58,4.07h0c29.21-81.89,26.69-171.74-7.08-251.86l-.12-.28Z" fill="#fff" stroke="#000" stroke-linecap="round" stroke-linejoin="round"/><path d="m191.5,204.8l-27.98,13.81h0C122.97,149.48,63.11,93.7-8.72,58.14l-3.68-1.82h0c84.06,22.2,156.75,75.09,203.74,148.23l.17.26Z" fill="#fff" stroke="#000" stroke-linecap="round" stroke-linejoin="round"/><polygon points="-259.48 492.57 -278.15 457.14 198.22 188.55 216.89 223.98 -259.48 492.57" fill="#fff" stroke="#000" stroke-linecap="round" stroke-linejoin="round"/></g><path d="m389.06,426.04l-2.47,301-160.94,5.6,9.17-292.25c1.79-56.92,29.24-109.97,74.68-144.3h0c30.83-23.29,67.82-37.02,106.38-39.47l192.95-12.31,226.85-119.4,76.66,133.62-191.54,109.45c-21.17,12.1-34.03,34.81-33.51,59.19l2.25,105.99" fill="#fff" stroke="#000" stroke-linecap="round" stroke-linejoin="round"/><circle cx="484.04" cy="200.04" r="133.18" fill="#fff" stroke="#000" stroke-linecap="round" stroke-linejoin="round"/><g><circle cx="493.38" cy="184.49" r="6.93" stroke="#000" stroke-linecap="round" stroke-linejoin="round"/><circle cx="581.41" cy="180.31" r="6.93" stroke="#000" stroke-linecap="round" stroke-linejoin="round"/><path d="m540.91,182.21l15.2,29.8c7.9,15.48-2.82,33.95-20.18,34.77l-13.34.63" fill="none" stroke="#000" stroke-linecap="round" stroke-linejoin="round"/></g><path d="m634.73,156.74c0-72.82-66.93-131.85-149.5-131.85s-149.5,59.03-149.5,131.85h299Z" fill="#ebeeea" stroke="#000" stroke-miterlimit="10"/><circle cx="545.92" cy="108.55" r="30.61" fill="#fff" stroke="#000" stroke-linecap="round" stroke-linejoin="round"/><circle cx="556.95" cy="108.04" r="30.61" fill="#fffba3" stroke="#000" stroke-miterlimit="10"/><g><circle cx="779.3" cy="585.11" r="133.66" fill="#fff" stroke="#000" stroke-linecap="round" stroke-linejoin="round"/><g><circle cx="784.74" cy="551.64" r="6.95" stroke="#000" stroke-linecap="round" stroke-linejoin="round"/><circle cx="868.75" cy="523.97" r="6.95" stroke="#000" stroke-linecap="round" stroke-linejoin="round"/><path d="m830.1,536.68l22.7,24.74c11.79,12.85,6.38,33.58-10.18,39.04l-12.73,4.19" fill="#fff" stroke="#000" stroke-linecap="round" stroke-linejoin="round"/></g></g><path d="m895.53,465.12c-33.91-64.44-120.64-85.51-193.7-47.06-73.07,38.45-104.8,121.86-70.89,186.3l264.59-139.25Z" fill="#ebeeea" stroke="#000" stroke-miterlimit="10"/><circle cx="794.49" cy="463.83" r="30.61" fill="#fff" stroke="#000" stroke-linecap="round" stroke-linejoin="round"/><circle cx="804.02" cy="458.24" r="30.61" fill="#fffba3" stroke="#000" stroke-miterlimit="10"/><path d="m33.86,142.57C33.86,69.75-33.07,10.71-115.63,10.71s-149.5,59.03-149.5,131.85H33.86Z" fill="#ebeeea" stroke="#000" stroke-miterlimit="10"/><path d="m1256.27,490.75l-47.31,33.6c-8.27,6.46-20.15,5.36-27.09-2.51h0c-7.64-8.66-6.32-21.98,2.88-28.96l25.34-18.71" fill="#fff" stroke="#000" stroke-linecap="round" stroke-linejoin="round"/><path d="m1240.88,580.74l-27.56-2.24c-10.42-1.24-18.08-10.39-17.47-20.86h0c.67-11.53,11-20.06,22.45-18.53l46.66,2.56" fill="#fff" stroke="#000" stroke-linecap="round" stroke-linejoin="round"/><path d="m371.27,727.61l12.29,23.79c3.02,6.28,1.24,13.82-4.26,18.1h0c-6.66,5.17-16.3,3.73-21.16-3.16l-6.23-8.84c-1.09-1.54-3.01-2.26-4.85-1.8h0c-2.47.62-3.96,3.13-3.31,5.6l13.58,51.72c1.59,6.04-1.87,12.25-7.83,14.1h0c-6.38,1.97-13.11-1.82-14.74-8.29l-11.18-44.47c-.33-1.32-1.76-2.03-3.01-1.49h0c-.91.39-1.45,1.34-1.32,2.33l6.28,46.88c1.01,6.16-3.02,12.02-9.14,13.29-6.54,1.36-12.88-3.05-13.89-9.65l-6.95-45.55c-.2-1.29-1.4-2.18-2.69-2h0c-1.2.17-2.08,1.21-2.05,2.42l1.2,48.68c.15,6.24-4.65,11.49-10.88,11.9-6.67.44-12.34-4.8-12.43-11.48l-.41-47.82c-.01-1.65-1.32-2.99-2.96-3.05h0c-1.57-.06-2.94,1.07-3.17,2.63l-5.22,34.9c-.96,6.17-6.61,10.49-12.81,9.79-6.64-.74-11.3-6.9-10.2-13.49l5.88-35.43c1.37-8.22,2.1-16.53,2.21-24.87l.19-20.22,129.07-4.49Z" fill="#fff" stroke="#000" stroke-linecap="round" stroke-linejoin="round"/><rect x="-2510.78" y="1170.21" width="5121.3" height="107.06" fill="#adadad" stroke="#000" stroke-miterlimit="10" stroke-width=".75"/></svg>