<svg viewBox="0 0 3000 3000" xmlns="http://www.w3.org/2000/svg"><path d="m0 0h3000v3000h-3000z" fill="#fae2d3"/><path d="m1601.55 1367.42 202.1-26.84 146.96 499.44v120.59l-18.78 34.27-30.63 22.78-25.69 15.42-33.04 9.9-43.66 4.79-22.03 4.86-417.79-90.41-14.04-97.72-8.2-68.62-2.04-93.81 6.79-97.45 17.49-93.37 31.24-135.74 173.66 21.23-5.02 52.79-15.06 105.61-2.95 67.2 8.23 60.28 21.24-24.49 23.86-48.35 6.21-94.51-3.27-46.2 3.27-88.32z" fill="#ffde12"/><ellipse cx="1570.33" cy="2007.22" fill="#fff" rx="206.45" ry="205.25"/><path d="m1786.41 1337.56-52.96-108.53-18.35-38.87-19.4-3.56-12.58 5.73-6.75 8.39 13.04 63.97-1.57 12.58-5.77 7.34-15.2-1.05-3.67-11.01v-11.82l-8.9-11.55h-18.42l-8.33 10.26-1.19 35.13 9.57 63.44 154.67-15.2z" fill="#fff"/><path d="m1545.91 1394.56-10.64-83.74-4.57-19.24-10.11-6.97-9.44 1.57-7.37 5.4-5.22 11.69 3.68 11.79-2.24 9.79-6.67 4.32-11.54 2.1-7.86-11.53v-25.17-39.31l-10.49-14.17-13.38-1.48-11.26 3.58-7.53 9.69-23.07 124.98z" fill="#fff"/><path d="m854.18 423.96-278.38 396.35 150.05 3.95-309.38 439.02 218.86 2.23-378.89 546.82 479.64 2.51v152.12l53.33-66.35 199.16 150.92 1.92-236.06 121.73-.63 27.06-45.06 19.92-14.06 36.32-9.37 28.12-1.99 107.55-8.88 5.56-52.86v-57.05l-15.87-22.16-234.62-337.46 219.56-1.2-305.77-442.39 150.07-1.47-285.26-407.73z" fill="#fff"/><path d="m2187.12 2729.39 3.21-20.05-3.21-16.03-41.69-24.06-56.33-20.92-115.25-27.18-129.09-19.25-165.97-14.43-103.43-3.2-207.66-3.04-161.16 7.04-141.92 8.02-105.87 12.69-83.35 14.57-89.8 15.24-60.93 22.45-36.89 17.64-24 22.52-4.01 18.37 4.01 14.43 24 20.84 64.15 24.86 77.77 20.85 84.19 14.43 110.64 16.03 128.29 9.63 219.69 8.01h198.84l148.33-9.62 149.13-12.02 165.97-31.27 54.32-13.86 46.71-17.41 37.68-19.25z" fill="#ff5723"/><path d="m2795.19 2263.05 23.34-1040.66-8.61-44.66-21.98-29.78-34.73-16.51-87.2-1.39h-97.12l-167.24 1.39-7.61 35.27-4.75 30.23 14.97 35.39-3 15.59-9.59 4.96-20.75-36.97-1.78-34.97 7.1-49.5h-141.66l-114.31 55.16-26.52 21.74-10.36 32 5.71 35.78 31.95 70.6 67.78 159.1 15.06 49.9 12.24 59.31-2.82 73.43-14.46 41.45-33.14 2.35-89.18 4.24-62.99 13.45-36.74 30.84-25.3 42.77-4.49 83.01 4.49 64.21-26.6 32.59-41.54 25.05-70.95 21.1-35.63 3.11-9.5 23.35-4.07 14.81-25.97 37.24-32.61 39.2-63.44 32.84-47.13 12.41h-40.59l-57.01-10.48-38.17-17.39-41.9-40.61-24.62-33.69-20.08-40.83-6.5-28.79-6.2-73.71-9.76-68.76-8.6-73.25-6.36-86.32-3.08-3.17-135.67 10.87-45.45 15.82-25.66 28.98-14.04 33.82v93.76l5.71 391.04 5.99 35.49 18.9 24.44 20.75 18.44 32.27 7.83h61.31l928.25 41.25 50.46-5.8 274.63-41.28 214.33-37.92 32.43-20.07 21.1-18.53 13.38-26.25z" fill="#fff"/><path d="m2271.96 955.31 16.97 32.79 8.11 20.83 7.71 12.73 9.02 10.41 3.56 3.1 15.33 37.31-125.96 69.3-77.07 40.3-30.81 23.43-11.55 26.79v32.33l15.4 40.77 58.66 140.91 36.21 77.86 15.69 61.56 3.62 54.31-18 89.87-100.89 5.57-53.15 2.59-46.45 21.38-35.09 42.52-12.66 38.05-36.29-130.7-108.4-364.51-19.51-7.25-33.65-71.57-33.02-71.61-16.69-10.42-18.77 4.17-12.17 13.21-77.92-233.57 27.78-15.64 20.94-9.99 15.23-5.72 20.94-7.61 27.13-11.42 9.51-6.67 16.19-4.76 7.61-6.8 45.94-14.1 90.05 182.06 353.51-190.5 20.97 39.64z" fill="#ffde12"/><path d="m1616.2 1219.81-13.35 39.01-1.3 46.58s-1.3 63.35 0 62.03 34.38-9.41 34.38-9.41l-4.69-50.65-4.88-38.28v-16.2l2.93-6.12-9.16-28.67-3.92 1.72z" fill="#ffde12"/><path d="m1733.8 783.28-18.88-55.79-424.32 157.57 23.51 29.54 66.95-4.29 128.25-18.38 2.89-24.14 11.29-3.57 7.67 7.96.77 14.64 13.98-2.63 17.98-7.57 30.3-28.65 31.39-17.4 25.65 2.01h31.68l27.56-7.73 11.17-7.86 12.16-13.07z" fill="#ff5723"/><path d="m1563.89 976.46-17.98 9.7 83.68 266.72 24.71-8.52-18.37-59.9-67.93-205.08z" fill="#ffde12"/><path d="m2364.46 856.4s12.71-34.5 13.92-36.32 20.58-70.82 20.58-70.82l32.08-96.24 12.71-30.87 21.19-9.59h19.76l-8.26 83.44-40.25 368.26-49.4-5.72-29.04-20.3-6.22-23.85s13.38-38 14.14-39.51 13.95-30.55 13.95-30.55l6.41-28.07-8.18-25.31-13.4-34.55z" fill="#ff5723"/><path d="m2484.7 612.56 70.97 3.35-44.17 451.21-75.31-2.87z" fill="#fff"/><path d="m1715.72 720.44-27.95-59.43-426.95 155.67 29.78 68.38 424.32-157.57z" fill="#fff"/><path d="m2412.61 848.22-7.89-9.81h-9.61v18.42l10.32 19.79 9.09 23.74 3.6 25.29-2.47 31.7-7.17 42.27-7.22 46.05-15.42 47.55-9.6 42.5-7.1 45.22 1.78 34.97 11.5 20.49 9.25 16.48 9.59-4.96 3-12.41-9.36-20-3.02-23.78 1.75-28.31 10.63-36.23 8.38-38.12 14.64-68.42 4.69-56.65 1.08-37.53.53-28.86-12.31-38.09z" fill="#fff"/><path d="m2436.19 1068.39 4.36 38.26 9.34 17.48 8.13 5.92 15.16-2.01-11.84-24.4-6.65-29.95 1.22-8.01z" fill="#fff"/><path d="m1542.06 888.54 21.83-8.87 105.93 314.8 9.28 26.51 7.15 28.2 2.73 18.94-1.14 9.15-11.47 6.95-9.5-.66-3.08-14.27-1.36-16.41-11.23-15.23z" fill="#fff"/><path d="m1530.15 869.52-11.18-3.88-6.77 2.15-2.89 24.14-3.08 33.42-29.17 371.39.62 30.2 9.2 3.41 13.12-5.5 2.24-9.79-3.68-11.79 4.2-20.82 5.66-52.31 23.51-346.92z" fill="#fff"/><path d="m977.66 396.95-134.06-125.48-7.25-21.76 5.39-12.4 15.1-7.01 13.48 4.85 10.79 12.94h11.33l17.26-14.02v-8.09l-10.79-12.4-23.73-14.02-23.07-1.75-23.31 4.99-15.1 10.25-9.17 15.64-3.78 20.49 3.24 14.02 10.25 25.35-4.44 8.83-21.45 22.45-6.17 24.81 3.47 25.35 7.55 15.64 12.4 14.56 16.18 7.01 17.8 4.44h20.49l19.84-4.82 17.37-7.17 17.26-16.18 20.49 22.65 53.39-1.08-10.79-8.09zm-94.6-33.31-14.88 12.28-16.29 4.77-16.07-5.31-14.02-10.79-1.08-22.11 8.63-18.34 11.86-6.47 41.85 37.44z" fill="#ff5723"/><path d="m430.52 2044.39-3.11 219.85 125.32 109.16 259.79 1.92v-172.34l159.28 114.1 128.02-184.02-310.41-232.45-105.39 140.12-243.43-3.89z" fill="#ffde12"/><path d="m2364.41 869.73-114.42 46.53 64.29 122.28s34.47-15.27 35.25-17.23 12.14-39.17 12.14-39.17l17.96-37.8 4.83-21.15-6.6-32.23-8.93-23.03z" fill="#fff"/><path d="m1710.47 824.85 29.05 79.32-145.33 63.6-30.3-91.15 24.69-25.6 17.65-12.97 26.51-6.49 34.55 2.17 29.72-4.33z" fill="#fff"/><path d="m1570.33 1805.88c27.19 0 53.55 5.32 78.37 15.82 23.98 10.14 45.51 24.66 64 43.15s33.01 40.03 43.15 64c10.5 24.82 15.82 51.18 15.82 78.37s-5.32 53.55-15.82 78.37c-10.14 23.97-24.66 45.51-43.15 64s-40.03 33.01-64 43.15c-24.82 10.5-51.18 15.82-78.37 15.82s-53.55-5.32-78.37-15.82c-23.97-10.14-45.51-24.66-64-43.15s-33.01-40.03-43.15-64c-10.5-24.82-15.82-51.18-15.82-78.37s5.32-53.55 15.82-78.37c10.14-23.97 24.66-45.51 43.15-64s40.03-33.01 64-43.15c24.82-10.5 51.18-15.82 78.37-15.82m0-10c-116.72 0-211.34 94.62-211.34 211.34s94.62 211.34 211.34 211.34 211.34-94.62 211.34-211.34-94.62-211.34-211.34-211.34z"/><g stroke="#000" stroke-linecap="round" stroke-linejoin="round" stroke-width="10"><path d="m2089.1 1735.56 360.01-14.92c73.7-4.74 131.06-65.91 131.06-139.76v-368.24c0-44.85 36.36-81.2 81.2-81.2h75.97c45.47 0 82.08 37.33 81.19 82.79l-20.18 1033.42c-1.06 54.02-40.67 99.52-94.03 108l-513.14 81.57.94-625.79" fill="none"/><path d="m1370.31 2069.98c-32.85-5.27-58.05-33.4-58.73-67.62l-3.18-159.63c-1.09-54.64-45.69-98.36-100.34-98.36-56.19 0-101.43 46.13-100.34 102.3l9.02 466.38c.85 43.97 35.75 79.7 79.69 81.58l994.75 42.6" fill="none"/><path d="m2192.1 1811.43c-12.42-46.23-55.17-77.72-103-75.87l-22.38.86c-64.56 1.3-116.12 54.19-115.77 118.77l.88 163.61c.18 32.75-26.56 59.28-59.31 58.84l-125.24-1.66" fill="none"/><path d="m1331.19 1732.94-123.14 11.42" fill="none"/><path d="m1617.73 1216.43c-9.62 19.47-15.22 41.3-15.68 64.43l-5.99 297.37c-.83 41.17-18.69 78.28-46.97 104.38" fill="none"/><path d="m2376.24 1131.44h-147.22" fill="none"/><path d="m2661.36 1131.44h-257.1" fill="none"/><path d="m1951.5 1843.07-146.7-502.49-204.4 22.07 101.16 418.14" fill="none"/><path d="m1557.66 1744.36c-16.48-66.99-20.19-136.48-10.95-204.84l19.27-142.53-177.09-21.47-33.26 151.04c-23.7 107.6-27.81 218.59-12.15 327.65l20.21 140.67" fill="none"/><path d="m1568.06 976.46-22.15 9.34 85.33 267.08" fill="none"/><path d="m2192.1 1725.73-407.25-840.67-190.66 80.38" fill="none"/><path d="m1875.51 1072.21 353.51-195.59 105.94 200.21-208.76 106.39c-34.78 17.73-49.98 59.29-34.85 95.28l101.36 240.92c28.42 67.56 30.14 142.63 6.14 210.49" fill="none"/><path d="m1289.49 882.07-28.67-65.45 426.06-155.61 28.84 65.52z" fill="none"/><path d="m1531.16 886.82c4.13-.64 6.87-1.23 10.3-1.76 12.5-1.94 24.03-7.86 32.88-16.89l18.7-19.07c11.03-11.25 26.12-17.59 41.88-17.59h47.97c8.53 0 16.95-1.86 24.69-5.45l3.9-1.81c18.22-8.45 27.17-29.25 20.79-48.29l-16.56-49.44" fill="none"/><path d="m1289.49 882.07s11.67 36.94 41.8 34.02c20.24-1.96 116.8-16.64 178.02-26.06" fill="none"/><path d="m1408.2 1375.51 21.27-116.99c2.32-12.73 14.67-21.06 27.34-18.42 10.67 2.22 18.32 11.63 18.32 22.54v56.22c0 6.45 4.68 11.95 11.05 12.98 9.62 1.55 17.52-7.53 14.66-16.84l-1.51-4.91c-3.2-10.41 3.13-21.34 13.75-23.76 10.87-2.47 21.48 5.05 22.75 16.13l10.06 88.05" fill="none"/><path d="m1788.13 1340.58-68.28-140.19c-5.19-11.86-19.14-17.1-30.86-11.61-9.87 4.63-15.14 15.55-12.63 26.16l12.98 54.7c1.49 6.28-1.8 12.71-7.76 15.18-9 3.73-18.79-3.28-18.15-13l.33-5.13c.71-10.87-7.97-20.05-18.86-19.94-11.15.11-19.74 9.88-18.41 20.95l10.54 87.99" fill="none"/><path d="m1477.06 1291.58 34.06-416.37c.44-5.41 4.96-9.57 10.38-9.57 6.05 0 10.83 5.14 10.39 11.18l-30.41 414.75" fill="none"/><path d="m1711.48 824.26 28.04 79.91" fill="none"/><path d="m1676.37 1214.94-112.48-338.32" fill="none"/><path d="m1541.46 885.06 112.84 364.12" fill="none"/><path d="m2484.7 613.03 71.4 2.95-47.06 451.14-71.53-2.83z" fill="none"/><path d="m2421.27 1062.15 16.23 2.14s-7.5 46.32 16.31 65.76" fill="none"/><path d="m2484.7 613.03s-38.31-5.72-48.91 22.64c-8.57 22.94-49.13 153.45-64.31 202.48-3.74 12.08-3.47 25.04.75 36.96l8.93 25.17c5.27 14.85 4.34 31.19-2.57 45.35l-21.04 43.11c-3.74 7.66-5.77 16.05-5.93 24.58l-.08 4.3c-.39 20.08 14.36 37.24 34.27 39.87l8 1.05" fill="none"/><path d="m2249.99 916.26 119.76-50.62" fill="none"/><path d="m2313.77 1036.79 37.77-19.18" fill="none"/><path d="m1775.95 2049.49s152.24 4.46 175.55-92.28" fill="none"/><path d="m2408.36 838.42c65.74 76.88-17.68 314.53-18.6 348.18s16.67 47.84 16.67 47.84l-11.8 18.44s-31.09-11.01-24.87-77.92 58.83-211.89 48.37-258.7c-7.24-32.37-18.12-56.4-24.15-68.14-4.5-8.78 6.91-17.38 13.81-10.33.2.2.39.41.58.64z" fill="none"/><path d="m2453.81 1067.12s6.03 53.03 19.36 64.32" fill="none"/><ellipse cx="1425.47" cy="2715.2" fill="none" rx="765.7" ry="133.98"/><path d="m989.29 2052.52v-237.68h121.08" fill="none"/><path d="m1336.75 1625.57-251.5-360.06h222.54l-308.61-441.8h151.28l-287.76-411.94-287.75 411.94h151.28l-308.61 441.8h222.54l-383.72 549.33h483.08v153.7" fill="none"/><path d="m427.41 2264.24v-223.51h256.61" fill="none"/><path d="m812.33 2200.61v175.39h-256.61v-223.51h193.98" fill="none"/><path d="m427.41 2040.73 128.31 111.76" fill="none"/><path d="m427.41 2264.24 128.31 111.76" fill="none"/><path d="m967.94 2312.8-151.16-109.82 132.78-179.8 151.16 109.82z" fill="none"/><path d="m816.78 2202.98-159.47-123.11 132.77-179.79 159.48 123.1" fill="none"/><path d="m604.74 2101.6 65.92 50.89-1.92 223.51" fill="none"/><path d="m525.89 2040.73 47.84 36.93" fill="none"/><path d="m635.95 2076.49-43.4-35.76" fill="none"/><path d="m724.34 2376 3.84-223.51-64.4-53.06" fill="none"/><path d="m573.73 2077.66-101.24 2.33v223.51" fill="none"/><path d="m657.31 2075.73-21.36.76" fill="none"/><path d="m604.74 2101.6-104.02 2.99 1.81 225.08" fill="none"/><path d="m682.63 2099.43h-18.85" fill="none"/><path d="m707.85 2115.63 131.67-173.78" fill="none"/><path d="m736.08 2145.08 134.96-178.12" fill="none"/><path d="m1008.11 2065.72-137.07 176.68" fill="none"/><path d="m1038.81 2088.02-134.03 178.89" fill="none"/><path d="m925.23 2004.41s-31.85-83.88-7.69-81.87 51 51.66 15.43 81.87c0 0 114.36-69.11 105.83-21.47-8.52 47.65-99.23 26.84-99.23 26.84" fill="none"/><path d="m624.39 2090.65s-119.31-73.69-63.96-85.49c55.35-11.81 63.96 85.49 63.96 85.49z" fill="none"/><path d="m624.39 2090.65s24.33-128.34 46.27-104.72 3.33 99.56-46.27 104.72z" fill="none"/><ellipse cx="1590.61" cy="1988.51" rx="10.89" ry="10.99" transform="matrix(.49894158 -.86663562 .86663562 .49894158 -926.35 2374.67)"/><ellipse cx="1469.42" cy="1918.73" rx="10.89" ry="10.99" transform="matrix(.49894158 -.86663562 .86663562 .49894158 -926.59 2234.68)"/><path d="m1525.16 1950.86 4.98-52.46c2.59-27.24 32.59-42.52 56.49-28.76l18.37 10.58" fill="none"/><path d="m986.38 404.82c-1.01.06-1.65.12-2.3.12-14.79 0-29.58 0-44.37-.09-1.06 0-2.34-.54-3.12-1.25-7.22-6.62-14.34-13.34-21.5-20.03-2.89 2.99-5.57 6.04-8.55 8.76-11.19 10.22-24.52 16.03-39.39 18.29-14.16 2.15-28.21 1.49-41.71-3.53-23.14-8.61-37.52-24.93-40.64-49.7-2.41-19.13 3.3-36.14 16.73-50.19 4.68-4.89 9.95-9.21 14.96-13.78.66-.6 1.38-1.14 1.85-1.52-3.34-5.74-6.97-11.13-9.77-16.92-9.3-19.2-8.25-37.93 4.3-55.32 8.97-12.43 21.91-18.92 36.87-21.17 12.8-1.93 25.28-.54 37.03 5.27 11.99 5.92 20.01 15.48 24.99 27.74.22.55.03 1.68-.39 2.03-8.69 7.13-17.43 14.18-26.18 21.24-.16.13-.4.14-.46.16-1.36-3.61-2.41-7.31-4.09-10.7-5.82-11.77-19.57-16.36-31.39-10.69-10.59 5.08-14.64 17.76-9.33 28.99 2.99 6.32 7.44 11.54 12.43 16.26 19.51 18.44 39.12 36.79 58.7 55.16 20.35 19.1 40.71 38.18 61.06 57.28 4.4 4.13 8.78 8.28 13.16 12.43.3.29.58.61 1.1 1.17zm-144.04-89.7c-1.78 1.35-3.42 2.54-5 3.82-8.12 6.55-14.34 14.28-16.39 24.9-3.71 19.23 9.79 37.48 30.88 36.96 15.48-.38 27.18-7.26 35.51-20.21 1.03-1.6.95-2.46-.46-3.75-5.9-5.38-11.68-10.9-17.51-16.37-8.96-8.4-17.91-16.81-27.03-25.36z" fill="none"/><path d="m1525.16 436.55s340.51 47.19 495.18 384.5" fill="none"/><path d="m1794.48 436.55s212.85 80.31 294.62 276.28" fill="none"/></g></svg>