<?xml version="1.0" encoding="UTF-8"?><svg xmlns="http://www.w3.org/2000/svg" viewBox="0 0 3000 3000"><g id="uuid-91b2de4f-4c0b-4c45-a0bf-be83a8961c53"><rect width="3000" height="3000" fill="#22533a"/><polygon points="1901.18 1623.78 1768.07 1610.23 1689.96 1592.13 1664.13 1565 1654.44 1521.72 1649.42 1439.32 1625.07 955.56 1523.38 688.95 1468.89 556.33 1446.66 488.21 1453.5 422.81 1479.35 375.9 1513.81 341.43 1554.36 322.03 1588.48 312.71 1621.03 312.71 1664.12 318.46 1956.11 455.36 1768.56 599.99 1836.77 711.59 2184.99 978.43 2258.53 1047.94 2328 1143.54 2360.05 1204.35 2385.65 1278.8 2496.95 1667.03 2334.23 1667.95 2276.62 1655.73 2243.98 1555 2143.4 1608.96 2048.68 1443.83 2022.48 1451.6 1990.43 1281.48 1971.8 1262.51 1946.83 1265.91 1937.48 1276.81 1933.59 1312.44 1946.05 1361.15 1942.62 1396.71 1927.68 1409.35 1907.49 1412.13 1888.64 1406.13 1862.93 1389.85 1841.08 1392.42 1829.95 1399.28 1819.8 1413.85 1820.52 1430.56 1899.78 1528.67 1873.22 1552.23 1905.47 1621.89 1901.18 1623.78" fill="#fff"/><path d="m2237.82,1558.31l-69.8,40.41-43.79,10.24-234.36,10.82-173.31-17.27s117.92,774.2,119.61,772.37,323.05-13.11,323.05-13.11l117.39-706.03-32.64-100.73-6.16,3.31Z" fill="#fae2d3"/><polygon points="638.47 988.45 522.05 642.5 279.95 721.88 431.63 1200.55 455.61 1280.02 476.16 1332.77 482.6 1371.13 483.01 1432.79 477.53 1552.67 464.83 1846.44 466.21 1867.14 478.09 1891.89 499.37 1910.7 535.01 1917.14 591.94 1922.58 685.36 1927.6 749.07 1928.86 826.03 1929.16 887.22 1920.66 934.53 1904.89 981.84 1884.71 1022.85 1867.67 1067 1855.69 1093.5 1856.32 1123.78 1851.9 1140.18 1841.18 1155.32 1818.47 1156.6 1801.47 1156.6 1779.36 1121.05 1563.4 1117.29 1508.51 1121.58 1485.07 1140.32 1459.1 1173.8 1438.71 1244.14 1402.47 1518.77 1266.24 1457.91 1074.09 993.61 1228.51 638.47 988.45" fill="#fae2d3"/><circle cx="808.86" cy="1120.75" r="211.33" fill="#fff"/><polygon points="465.35 659.32 482.26 584.18 485.66 562.11 480.85 550.37 465.35 537.56 447.98 537.56 434.83 542.85 421.21 573.38 412.28 594.51 400.54 600.15 384.51 603.44 374.24 603.91 358.75 596.39 292.53 524.07 273.56 516.46 254.02 521.25 241.13 534.4 241.81 548.02 246.5 563.52 337.14 699.71 465.35 659.32" fill="#fff"/><polygon points="1515.93 1243.33 1657.74 1188.26 1669.6 1180.36 1674.04 1173.65 1678.73 1158.62 1674.04 1143.79 1662.68 1137.37 1626.61 1129.46 1591.53 1123.53 1578.91 1107.37 1551.57 1047.94 1544.02 1032.73 1515.93 1050.94 1462.39 1088.23 1511.98 1247.55 1515.93 1243.33" fill="#fff"/><polygon points="1134.6 1851.25 1477.12 2374.87 1288.76 2570.07 857.61 2084.2 727.73 2682.2 462.01 2684.44 501.53 1919.37 521.99 1918.43 570.69 1923.2 659.49 1929.16 737.79 1929.16 818.48 1929.16 869.09 1922.25 899.36 1915.43 961.42 1895.93 997.36 1878.58 1037.84 1865.77 1087 1858.34 1122.94 1856.27 1129.71 1848.03 1134.6 1851.25" fill="#ff5723"/><polygon points="1045.49 1065.51 1069.07 642.5 1057.28 624.6 1043.46 624.55 1029.21 633.36 694.44 922.3 1045.49 1065.51" fill="#ff5723"/><polygon points="694.44 922.3 649.37 962.99 1037.35 1125.48 1042.41 1120.75 1045.49 1065.51 694.44 922.3" fill="#fff"/><polygon points="2042.05 1439.32 1873.22 1552.23 2011.37 1846.73 2062.57 1956.3 2076.02 1990.55 2091.05 2051.24 2132.19 2271.98 2179.56 2244.75 2216.85 2234.79 2268.27 2238.75 2300.71 2255 2451.83 2365.34 2522.26 2409.82 2703.62 2438.88 2684.57 2380.9 2641.64 2284.81 2606.88 2234.38 2612.94 2191.44 2598.02 2144.42 2565.99 2100.8 2531.23 2076.27 2424.56 1990.55 2175.14 1673.26 2042.05 1439.32" fill="#ff5723"/><polygon points="289.86 369.7 273.56 437.25 275.12 464.24 283.76 493.97 300.35 516.46 319.36 537.52 338.38 548.58 379.86 555.49 418.92 549.62 438.62 534.41 455.21 520.58 470.77 497.77 485.66 457.67 495.93 427.48 487.7 404.78 443.46 379.9 393.96 358.12 357.73 351.55 304.5 355.7 289.86 369.7" fill="#ff5723"/><polygon points="1027.47 592.52 1015.99 561.3 1017.18 538.59 1032.44 511.27 1052.31 497.79 1071.11 488.92 1093.11 488.21 1115.11 494.95 1130.01 506.3 1146.69 522.63 1149.17 540.37 1152.36 561.3 1150.59 575.14 1142.43 595.01 1127.17 610.62 1109.08 621.26 1086.37 624.46 1065.44 622.68 1049.47 614.52 1027.47 592.52" fill="#fff"/><polygon points="704.9 2683.03 704.9 2791.29 574.63 2791.66 570.94 2769.75 546.71 2793.33 329.99 2790.86 322.4 2745.05 322.4 2733.64 329.99 2721.54 360.22 2714.95 411.17 2718.81 447.44 2714.18 462.01 2706.09 477.71 2684.44 704.9 2683.03" fill="#fae2d3"/><polygon points="1305.21 2554.62 1377.99 2629.3 1472.09 2540.36 1463.46 2524.1 1489.01 2524.1 1649.73 2371.76 1617.41 2326.45 1602.62 2321.74 1591.19 2327.79 1579.09 2339.89 1538.36 2374.87 1511.86 2395.02 1495.06 2399.73 1482.93 2399.67 1468.17 2391.66 1305.21 2554.62" fill="#fae2d3"/><polygon points="704.9 2791.29 704.9 2812.44 577.9 2812.44 574.63 2791.66 704.9 2791.29" fill="#fff"/><polygon points="329.99 2790.86 333.14 2812.44 524.83 2812.44 546.71 2793.33 329.99 2790.86" fill="#fff"/><polygon points="1377.99 2629.3 1392.51 2644.79 1487.29 2554.67 1472.09 2540.36 1377.99 2629.3" fill="#fff"/><polygon points="1497.63 2521.1 1520.85 2523.14 1662.14 2387.86 1649.73 2371.76 1497.63 2521.1" fill="#fff"/><path d="m1548.41,1041.13c1.17,2.79,30.5,66.24,30.5,66.24l12.62,16.16,39.15,6.82h28.45l10.29,7.78,7.14,13.59v13.14l5.39-.34,28.63-6.71,26.4-11.19,22.64-19.69,22.64-41.3,5.28-33.86,4.92-8.5,5.64-15.21v-11.63l-10.57-15.21-12.53-6.89-4.92-2.31-15.66-48.51-11.19,22.46-25.95,23.63-38.19,24.16-37.43,18.98-34.34,8.4-23.85,5.46-20.35,1.17-14.73-6.63Z" fill="#ff5723"/><polygon points="1544.02 1032.73 1560.7 1007.94 1602.3 978.85 1644.02 955.56 1676.05 943.51 1681.05 969.91 1678.61 988.12 1667.73 998.91 1647.04 1006.15 1614.83 1009.28 1586.2 1019.57 1563.14 1038.88 1548.41 1041.13 1544.02 1032.73" fill="#ff5723"/><polygon points="1557.93 1041.13 1578.91 1025.43 1595.21 1016.71 1619.3 1009.67 1637.22 1007.1 1657.65 1002.44 1667.73 998.91 1678.61 988.12 1681.05 969.91 1676.05 943.51 1673.25 906.79 1684.42 884.12 1702.18 871.45 1724.71 872.88 1741.57 880.97 1747.46 896.85 1747.46 909.42 1743.92 923 1747.46 935.07 1754.42 943.51 1743.92 960.01 1717.29 989.59 1690.98 1004.98 1670.59 1018.07 1641.68 1032.73 1621.17 1037.75 1595.21 1045.26 1574.33 1047.94 1563.14 1047.76 1557.93 1041.13" fill="#fae2d3"/><polygon points="1586.84 908.05 1581.49 903.68 1584.17 894.53 1607.49 875.21 1630.92 878.27 1637.67 887.4 1642.43 901.7 1642.43 911.62 1636.48 918.49 1625.76 913.61 1612.91 905.45 1605.11 905.27 1586.84 908.05" fill="#fae2d3"/><polygon points="294.81 369.7 294.81 342.44 319.37 288.55 343.33 264.99 360.09 262.48 366.48 267.79 360.09 284.55 348.52 312.9 350.11 353.22 357.7 369.7 378.06 387.16 393.96 390.19 415.99 392.35 437.54 392.75 453.11 398.33 473.39 409.27 495.93 427.48 482.26 437.25 449.92 437.25 407.2 430.27 369.28 416.3 328.95 396.74 304.2 380.37 294.81 369.7" fill="#fae2d3"/><polygon points="489.59 1441.02 586.51 1463.35 736.24 1494.46 821.72 1502.55 908.29 1510.17 1000.86 1511.4 1074.36 1507.45 1115.74 1500.91 1117.29 1534.13 1141.2 1685.8 1063.47 1709.99 969.28 1725.78 862.56 1731.23 758.56 1727.96 681.73 1720.87 607.74 1710.97 471.67 1688.24 479.79 1479.14 482.6 1439.32 489.59 1441.02" fill="#ff5723"/><polygon points="565.02 1475.36 513.11 1583.45 553.56 1697.48 610 1593.24 565.02 1475.36" fill="#fae2d3"/><polygon points="736.24 1494.46 681.73 1609.73 722.6 1720.02 779.24 1618.24 736.24 1494.46" fill="#fae2d3"/><polygon points="901.81 1515.53 851.45 1618.24 894.26 1729.61 944.3 1628.29 901.81 1515.53" fill="#fae2d3"/><polygon points="1052.44 1520.06 1014.82 1615.92 1056.06 1708.73 1096.64 1622.57 1052.44 1520.06" fill="#fae2d3"/><circle cx="2036.02" cy="788.11" r="211.89" fill="#fff"/><polygon points="1930.28 482.77 1768.56 599.99 1805.3 635.66 1820.42 635.66 1836.77 630.41 1854.76 630.41 1876.56 621.94 1887.04 622.67 1909.22 608.18 1909.22 569.29 1927.23 606.25 1975.93 588.7 1966.73 549.11 1955.05 516.14 1930.28 482.77" fill="#fff"/><polygon points="2022.48 1451.6 1990.43 1281.48 1979.22 1266.15 1956.29 1262.51 1942.39 1271.08 1935.31 1281.27 1935.79 1305.67 1944.21 1380.28 1935.31 1402.9 1921.38 1410.22 1901.28 1410.16 1883.1 1401.78 1854.8 1388.12 1841.08 1392.42 1822.6 1406.66 1817.72 1419.35 1819.8 1439.32 1901.64 1534 2022.48 1451.6" fill="#fff"/><ellipse cx="2264.08" cy="1861.44" rx="206.45" ry="205.25" fill="#fff"/><polygon points="2475.38 1671.71 2502.65 1774.11 2504.9 1796.91 2488.34 1812.33 2463.84 1809.43 2435.16 1746.51 2397.8 1705.07 2365.99 1682.89 2342.13 1667.24 2464.64 1667.24 2475.38 1671.71" fill="#fff"/><polygon points="1871.27 2376.81 1855.99 2397.89 1839.34 2405.78 1808.25 2408.41 1743.43 2411.47 1723.28 2414.1 1716.19 2433.37 1722.84 2464.03 1723.72 2479.36 1941.44 2483.76 1969.36 2460.96 1947.09 2388.7 1906.35 2370.79 1871.27 2376.81" fill="#ff5723"/><polygon points="2703.62 2438.88 2522.26 2409.82 2451.83 2365.34 2369.51 2305.23 2292.62 2254.99 2251.51 2237.46 2216.85 2234.79 2179.56 2244.75 2130.38 2284.26 2123.53 2272.28 2088.44 2251.73 2055.05 2239.75 2023.38 2234.79 1985.72 2242.32 1949.77 2268 1928.37 2291.11 1915.53 2318.5 1910.39 2350.17 1917.24 2389.55 1936.18 2424.5 2162.26 2705.24 2665.37 2705.24 2703.62 2665.75 2725.29 2630.08 2735.21 2593.27 2732.14 2541.91 2708.17 2457.17 2703.62 2438.88" fill="#fff"/><polygon points="2638.05 2707.18 2638.05 2812.47 2506.12 2812.47 2504.2 2795.81 2479.86 2814.14 2263.14 2811.67 2255.84 2757.23 2263.14 2742.35 2274.11 2738.96 2322.8 2739.07 2371.5 2737.15 2391.86 2731.52 2409.69 2707.18 2638.05 2707.18" fill="#fae2d3"/><polygon points="2409.69 2707.18 2197.7 2707.18 2184.7 2723.78 2172.07 2734.93 2144.95 2738.64 2093.68 2738.64 2053.82 2742.35 2042.78 2758.33 2045.29 2769.25 2049.84 2806.63 2056.52 2812.1 2263.14 2811.67 2254.93 2769.25 2254.61 2749.04 2266.43 2739.38 2302.84 2739.03 2371.5 2737.15 2391.86 2731.52 2401.3 2720.07 2409.69 2707.18" fill="#fae2d3"/><polygon points="2638.05 2812.47 2638.05 2833.25 2510.11 2833.25 2506.12 2812.47 2638.05 2812.47" fill="#fff"/><polygon points="2479.86 2814.14 2456.95 2833.25 2266.31 2831.91 2263.14 2811.67 2479.86 2814.14" fill="#fff"/><polygon points="2056.52 2812.1 2058.93 2833.25 2250.64 2833.25 2263.14 2811.67 2056.52 2812.1" fill="#fff"/><polygon points="1941.44 2483.76 1723.72 2479.36 1731.86 2502.49 1920.4 2502.49 1941.44 2483.76" fill="#fff"/><polygon points="1967.29 2479.36 1973.47 2502.49 1997.23 2502.49 1980.33 2479.36 1967.29 2479.36" fill="#fff"/></g><g id="uuid-7e45c69b-a581-430e-b1c8-0310a7dc08ed"><path d="m1020.19,1115.73c0,.61,0,1.22,0,1.83,0,116.72-94.62,211.34-211.34,211.34s-211.34-94.62-211.34-211.34c0-57.61,23.05-109.83,60.43-147.95" fill="none" stroke="#000" stroke-miterlimit="10" stroke-width="10"/><path d="m1751.12,938.9c8.03,16.21-31.17,51.98-87.56,79.91-56.38,27.93-108.6,37.43-116.63,21.22-8.03-16.21,31.17-51.98,87.56-79.91,13.67-6.77,27.1-12.46,39.71-16.96" fill="none" stroke="#000" stroke-linecap="round" stroke-linejoin="round" stroke-width="10"/><line x1="1768.56" y1="992.02" x2="1750.65" y2="939.91" fill="none" stroke="#000" stroke-linecap="round" stroke-linejoin="round" stroke-width="10"/><path d="m1734.4,1019.84l13.85-2.83c13.65-2.79,27.31,4.78,32.18,17.83h0c6.43,17.2-4.98,35.88-23.22,38.02l-10.38,1.22" fill="none" stroke="#000" stroke-linecap="round" stroke-linejoin="round" stroke-width="10"/><path d="m1678.73,1164.87c14.48-.44,29.11-3.79,43.04-10.35h0c39.9-18.79,63.54-59.06,62.51-101.19l.03-6.37c11.26-6.74,16.94-20.92,11.97-34.21h0c-4.88-13.06-18.53-20.62-32.18-17.83l-13.85,2.83" fill="none" stroke="#000" stroke-linecap="round" stroke-linejoin="round" stroke-width="10"/><path d="m1547.37,1038.88l29.79,64.18c.56,1.18,1.15,2.34,1.75,3.49" fill="none" stroke="#000" stroke-linecap="round" stroke-linejoin="round" stroke-width="10"/><polyline points="1131.17 1846.44 1479.27 2378.16 1289.39 2570.65 855.02 2081.7 729.26 2683.03 462.01 2683.03 501.92 1915.38" fill="none" stroke="#000" stroke-linecap="round" stroke-linejoin="round" stroke-width="10"/><path d="m704.9,2686.37l-.96,126.07-127.94-.5-5.87-39.29-44.51,39.29h-192.44s-9.68-54.39-9.68-54.39c-4.27-15.6-2.73-37.23,13.44-38.05,35.09-1.78,93.46-.42,109.69-4.48,12.36-3.09,21.65-14.66,27.08-23.94l4.01-6.64" fill="none" stroke="#000" stroke-linecap="round" stroke-linejoin="round" stroke-width="10"/><line x1="704.11" y1="2790.86" x2="574.63" y2="2791.61" fill="none" stroke="#000" stroke-linecap="round" stroke-linejoin="round" stroke-width="10"/><line x1="546.71" y1="2791.66" x2="329.99" y2="2790.91" fill="none" stroke="#000" stroke-linecap="round" stroke-linejoin="round" stroke-width="10"/><path d="m1305.21,2554.33l87.82,90.46,92.13-88.78-22.91-32.46,59.33-2.36,139.09-133-30.6-46c-7.69-14.23-23.76-28.8-36.01-18.22-26.6,22.96-67.84,64.29-82.37,72.57-11.07,6.31-25.78,4.37-36.12,1.41l-7.48-2.03" fill="none" stroke="#000" stroke-linecap="round" stroke-linejoin="round" stroke-width="10"/><line x1="1377.99" y1="2629.3" x2="1472.09" y2="2540.36" fill="none" stroke="#000" stroke-linecap="round" stroke-linejoin="round" stroke-width="10"/><line x1="1492.31" y1="2521.1" x2="1648.42" y2="2370.79" fill="none" stroke="#000" stroke-linecap="round" stroke-linejoin="round" stroke-width="10"/><path d="m1554.36,1041.13s38.37-27.21,59.48-31.18c21.11-3.97,42.76.87,61.52-17.05,18.76-17.92-22.24-84.46,11.72-112.96,33.97-28.5,67.75,11.48,60.76,29.88s-6.45,19.2,3.27,29.08" fill="none" stroke="#000" stroke-linecap="round" stroke-linejoin="round" stroke-width="10"/><path d="m1644.32,909.19c.31,7.9-9.04,12.29-14.89,6.97-7.64-6.94-17.14-13.37-24.2-10.84-49.2,17.64-11.64-40.2,20.29-28.55,14.39,5.25,18.31,19.83,18.8,32.42Z" fill="none" stroke="#000" stroke-linecap="round" stroke-linejoin="round" stroke-width="10"/><path d="m1511.31,1243.33l149.19-58.14c11.46-3.77,19.04-14.68,18.58-26.74h0c-.53-13.86-11.45-25.07-25.29-25.96l-42.28-2.74c-15.31-.99-29.16-11.2-33.92-25.79h0" fill="none" stroke="#000" stroke-linecap="round" stroke-linejoin="round" stroke-width="10"/><path d="m2263.14,1660.04c27.19,0,53.55,5.32,78.37,15.82,23.97,10.14,45.51,24.66,64,43.15,18.49,18.49,33.01,40.03,43.15,64,10.5,24.82,15.82,51.18,15.82,78.37s-5.32,53.55-15.82,78.37c-10.14,23.97-24.66,45.51-43.15,64-18.49,18.49-40.03,33.01-64,43.15-24.82,10.5-51.18,15.82-78.37,15.82s-53.55-5.32-78.37-15.82c-23.97-10.14-45.51-24.66-64-43.15s-33.01-40.03-43.15-64c-10.5-24.82-15.82-51.18-15.82-78.37s5.32-53.55,15.82-78.37c10.14-23.97,24.66-45.51,43.15-64,18.49-18.49,40.03-33.01,64-43.15,24.82-10.5,51.18-15.82,78.37-15.82m0-10c-116.72,0-211.34,94.62-211.34,211.34s94.62,211.34,211.34,211.34,211.34-94.62,211.34-211.34-94.62-211.34-211.34-211.34h0Z"/><path d="m2174.34,1670.24l-129.91-230.92-172.17,112.04,206.82,439.18,54.32,290.5-38.57-26.05c-48.01-32.44-112.5-25.05-151.93,17.4-39.75,42.79-42.05,108.27-5.42,153.75l224.79,279.1h197.79" fill="none" stroke="#000" stroke-linecap="round" stroke-linejoin="round" stroke-width="10"/><path d="m2565.35,2438.87l-272.73-183.88c-48.01-32.44-112.5-25.05-151.94,17.4-39.75,42.78-42.05,108.26-5.42,153.75l224.79,279.1,303.28-1.44-333.61-277.86,333.61,277.86h0c58.48-38.55,85.04-110.69,65.52-177.96l-25.24-86.97c-17.74-61.13-42.95-119.65-74.94-174.27l-22.14-34.36" fill="none" stroke="#000" stroke-linecap="round" stroke-linejoin="round" stroke-width="10"/><path d="m2428.73,1990.55l134.81,110.91c69.85,57.46,59.53,167.3-19.8,210.75l-90.74,49.7" fill="none" stroke="#000" stroke-linecap="round" stroke-linejoin="round" stroke-width="10"/><line x1="2428.73" y1="2188.1" x2="2292.62" y2="2255" fill="none" stroke="#000" stroke-linecap="round" stroke-linejoin="round" stroke-width="10"/><line x1="2522.26" y1="2410.13" x2="2703.62" y2="2438.88" fill="none" stroke="#000" stroke-linecap="round" stroke-linejoin="round" stroke-width="10"/><line x1="2396.24" y1="2204.07" x2="2308.42" y2="2138.04" fill="none" stroke="#000" stroke-linecap="round" stroke-linejoin="round" stroke-width="10"/><path d="m2638.05,2707.18l-.96,126.07-127.94-.5-5.87-39.29-44.51,39.29h-192.44s-9.68-54.39-9.68-54.39c-4.27-15.6-2.73-37.23,13.44-38.05,35.09-1.78,93.46-.42,109.69-4.48,12.36-3.09,21.65-14.66,27.08-23.94l4.01-6.64" fill="none" stroke="#000" stroke-linecap="round" stroke-linejoin="round" stroke-width="10"/><line x1="2637.26" y1="2811.67" x2="2507.78" y2="2812.42" fill="none" stroke="#000" stroke-linecap="round" stroke-linejoin="round" stroke-width="10"/><line x1="2479.86" y1="2812.47" x2="2263.14" y2="2811.72" fill="none" stroke="#000" stroke-linecap="round" stroke-linejoin="round" stroke-width="10"/><path d="m2263.14,2820.67l-13.69,12.09h-192.44s-9.68-54.39-9.68-54.39c-4.27-15.6-2.73-37.23,13.44-38.05,35.09-1.78,93.46-.42,109.69-4.48,12.36-3.09,21.65-14.66,27.08-23.94l4.01-6.64" fill="none" stroke="#000" stroke-linecap="round" stroke-linejoin="round" stroke-width="10"/><line x1="2263.14" y1="2811.72" x2="2053.82" y2="2811.72" fill="none" stroke="#000" stroke-linecap="round" stroke-linejoin="round" stroke-width="10"/><path d="m2022.97,1453.15l-32.85-167.94c-3.09-15.82-18.85-25.8-34.48-21.82h0c-13.75,3.5-22.73,16.71-20.92,30.78l10.4,80.94c1.79,13.9-5.12,27.47-17.4,34.22h0c-11.46,6.29-25.51,5.48-36.16-2.09l-17.47-12.41c-14.48-10.29-34.41-7.86-45.99,5.61h0c-11.11,12.92-11.08,32.03.07,44.91l69.67,80.51" fill="none" stroke="#000" stroke-linecap="round" stroke-linejoin="round" stroke-width="10"/><path d="m639.23,991.48l-117.29-351.46-243.55,79.76,194.4,609.02c8.52,26.68,12.25,54.66,11.03,82.65l-19.28,441.81c-1.43,32.87,23.11,61.11,55.86,64.26,74.32,7.14,206.42,16.74,317.8,8.43,83.16-6.2,146.72-44.99,182.01-56.35,24.08-7.75,51.97-10.76,76.97-11.56,37.05-1.19,64.61-34.71,58.89-71.34l-39.87-255.51c-5.56-35.6,12.59-70.7,44.86-86.74l357.72-177.88-61.48-191.62-469.12,154.51" fill="none" stroke="#000" stroke-linecap="round" stroke-linejoin="round" stroke-width="10"/><path d="m466.67,653.24l18.2-79.88c4.76-20.91-12.77-40.16-34.03-37.36h0c-11.96,1.57-21.9,9.99-25.43,21.53l-6.38,20.89c-3.86,12.64-13.96,22.41-26.73,25.84h0c-14.05,3.78-29.03-.71-38.69-11.59l-58.42-65.85c-10.18-11.48-27.25-13.76-40.09-5.35h0c-14.38,9.42-18.32,28.76-8.76,43.06l88.21,131.97" fill="none" stroke="#000" stroke-linecap="round" stroke-linejoin="round" stroke-width="10"/><path d="m350.23,349.88c16.12,2.49,34.46,6.97,53.52,13.37,56.05,18.82,97.11,47.13,91.7,63.23s-55.23,13.89-111.28-4.93c-56.05-18.82-97.11-47.13-91.7-63.23" fill="none" stroke="#000" stroke-linecap="round" stroke-linejoin="round" stroke-width="10"/><path d="m292.47,358.32l-16.28,71.11c-11.94,52.15,17.83,104.8,68.66,121.47h0c53.81,17.64,111.8-11.23,130.16-64.79l20.44-59.62s-41.4-39.61-76.05-34.08c-34.65,5.53-105.29-31.17-56.01-111.56,14.98-24.44-42.65-44.25-70.93,77.48Z" fill="none" stroke="#000" stroke-linecap="round" stroke-linejoin="round" stroke-width="10"/><path d="m485.66,455.03l14.21,4.06c12.59,3.6,20.11,16.49,17.04,29.22h0c-3.34,13.85-17.77,21.92-31.32,17.51l-16.7-5.44" fill="none" stroke="#000" stroke-linecap="round" stroke-linejoin="round" stroke-width="10"/><line x1="1544.02" y1="1032.73" x2="1462.39" y2="1085.65" fill="none" stroke="#000" stroke-linecap="round" stroke-linejoin="round" stroke-width="10"/><path d="m1976.94,584.39c18.55-5.32,38.14-8.17,58.4-8.17,116.72,0,211.34,94.62,211.34,211.34s-94.62,211.34-211.34,211.34-211.34-94.62-211.34-211.34c0-76.6,40.75-143.68,101.75-180.75" fill="none" stroke="#000" stroke-linecap="round" stroke-linejoin="round" stroke-width="10"/><path d="m1909.22,565.44c11.57,17.01,18.79,36.76,20.81,57.53l1.94,19.95c1.82,18.77,22.74,29.08,38.73,19.09h0c8.46-5.28,13.04-15.03,11.72-24.91l-6.62-49.42c-4.62-34.47-17.83-67.22-38.42-95.24l-7.09-9.65" fill="none" stroke="#000" stroke-linecap="round" stroke-linejoin="round" stroke-width="10"/><path d="m1595.89,880.97l-145.97-373.13c-26.05-131.62,108.54-237.01,230.07-180.16l277.71,129.89-231.66,174.43-140.14-142.6" fill="none" stroke="#000" stroke-linecap="round" stroke-linejoin="round" stroke-width="10"/><line x1="1628.12" y1="963.35" x2="1605.99" y2="906.79" fill="none" stroke="#000" stroke-linecap="round" stroke-linejoin="round" stroke-width="10"/><path d="m2333.9,1667.03h161.61l-108.72-385.18c-32.64-115.63-99.57-218.65-191.97-295.45l-34.32-28.53" fill="none" stroke="#000" stroke-linecap="round" stroke-linejoin="round" stroke-width="10"/><path d="m2474.48,1667.03l29.77,119.06c3.33,13.33-6.75,26.24-20.49,26.24h0c-8.9,0-16.85-5.58-19.87-13.96-9.11-25.28-27.74-75.54-27.74-75.54" fill="none" stroke="#000" stroke-linecap="round" stroke-linejoin="round" stroke-width="10"/><line x1="1764.21" y1="603.26" x2="1837.59" y2="712.83" fill="none" stroke="#000" stroke-linecap="round" stroke-linejoin="round" stroke-width="10"/><path d="m2139.86,1608.96l13.41-5.45c30.73-12.48,60.11-28.06,87.69-46.49l3.02-2.02" fill="none" stroke="#000" stroke-linecap="round" stroke-linejoin="round" stroke-width="10"/><path d="m1630.68,1196.81l25.87,334.72c2.46,31.79,24.94,58.45,55.86,66.23l10.44,2.63c56.7,14.28,114.95,21.5,173.42,21.5h9.21" fill="none" stroke="#000" stroke-linecap="round" stroke-linejoin="round" stroke-width="10"/><line x1="2152.96" y1="1262.51" x2="2273.63" y2="1650.29" fill="none" stroke="#000" stroke-linecap="round" stroke-linejoin="round" stroke-width="10"/><polyline points="1716.19 1598.72 1835.25 2371.76 1912.91 2370.79" fill="none" stroke="#000" stroke-linecap="round" stroke-linejoin="round" stroke-width="10"/><path d="m1998.96,2502.49l-28.23-.11-5.87-39.29-44.51,39.29h-192.44s-9.68-54.39-9.68-54.39c-4.27-15.6-2.73-37.23,13.44-38.05,35.09-1.78,93.46-.42,109.69-4.48,12.36-3.09,21.65-14.66,27.08-23.94l4.01-6.64" fill="none" stroke="#000" stroke-linecap="round" stroke-linejoin="round" stroke-width="10"/><line x1="1981.89" y1="2481.3" x2="1969.36" y2="2482.05" fill="none" stroke="#000" stroke-linecap="round" stroke-linejoin="round" stroke-width="10"/><line x1="1941.44" y1="2482.1" x2="1724.72" y2="2481.35" fill="none" stroke="#000" stroke-linecap="round" stroke-linejoin="round" stroke-width="10"/><path d="m1774,603.26l18.68,23.46c6.5,8.16,17.02,12.02,27.25,9.98h0c14.34-2.85,24.04-16.29,22.23-30.8l-4.56-36.61" fill="none" stroke="#000" stroke-linecap="round" stroke-linejoin="round" stroke-width="10"/><path d="m1836.77,627.74c5.31,2.51,11.38,3.32,17.35,2.14h0c14.34-2.85,24.04-16.29,22.23-30.8l-4.56-36.61" fill="none" stroke="#000" stroke-linecap="round" stroke-linejoin="round" stroke-width="10"/><path d="m1870.56,619.81c5.4,2.65,11.62,3.54,17.74,2.33h0c14.34-2.85,24.04-16.29,22.23-30.8l-4.56-36.61" fill="none" stroke="#000" stroke-linecap="round" stroke-linejoin="round" stroke-width="10"/><path d="m646.92,963.35l395.15,163.48,26.97-482.71c1-17.86-19.94-28.16-33.48-16.47l-388.64,335.69Z" fill="none" stroke="#000" stroke-linecap="round" stroke-linejoin="round" stroke-width="10"/><line x1="692.16" y1="924.28" x2="1045.49" y2="1065.51" fill="none" stroke="#000" stroke-miterlimit="10" stroke-width="10"/><circle cx="1084.47" cy="556.07" r="68.48" fill="none" stroke="#000" stroke-linecap="round" stroke-linejoin="round" stroke-width="10"/><g><ellipse cx="814.22" cy="1095.65" rx="10.89" ry="10.99" transform="translate(-505.65 1444.01) rotate(-68.17)" stroke="#000" stroke-linecap="round" stroke-linejoin="round" stroke-width="10"/><ellipse cx="684.4" cy="1043.64" rx="10.89" ry="10.99" transform="translate(-538.91 1290.83) rotate(-68.17)" stroke="#000" stroke-linecap="round" stroke-linejoin="round" stroke-width="10"/><path d="m744.14,1067.54l-38.12,36.38c-19.8,18.89-13.23,51.91,12.37,62.17l19.68,7.88" fill="none" stroke="#000" stroke-linecap="round" stroke-linejoin="round" stroke-width="10"/></g><g><ellipse cx="2043.39" cy="794.07" rx="10.89" ry="10.99" transform="translate(341.51 2175.96) rotate(-60.31)" stroke="#000" stroke-linecap="round" stroke-linejoin="round" stroke-width="10"/><ellipse cx="1921.9" cy="724.8" rx="10.89" ry="10.99" transform="translate(340.37 2035.45) rotate(-60.31)" stroke="#000" stroke-linecap="round" stroke-linejoin="round" stroke-width="10"/><path d="m1977.81,756.64l-42.74,30.83c-22.19,16.01-20.2,49.62,3.75,63.28l18.42,10.5" fill="none" stroke="#000" stroke-linecap="round" stroke-linejoin="round" stroke-width="10"/></g><g><ellipse cx="2263.31" cy="1870.3" rx="10.89" ry="10.99" transform="translate(-658.46 1580.73) rotate(-33.91)" stroke="#000" stroke-linecap="round" stroke-linejoin="round" stroke-width="10"/><ellipse cx="2185.29" cy="1754.23" rx="10.89" ry="10.99" transform="translate(-606.98 1517.46) rotate(-33.91)" stroke="#000" stroke-linecap="round" stroke-linejoin="round" stroke-width="10"/><path d="m2215.33,1808.58l-46.11,7.64c-27,4.47-40.16,35.46-24.78,58.34l11.83,17.59" fill="none" stroke="#000" stroke-linecap="round" stroke-linejoin="round" stroke-width="10"/></g><path d="m482.6,1439.32s388.95,106.35,634.69,60.68" fill="none" stroke="#000" stroke-linecap="round" stroke-linejoin="round" stroke-width="10"/><path d="m471.84,1685.8s416.43,103.18,668.48,0" fill="none" stroke="#000" stroke-linecap="round" stroke-linejoin="round" stroke-width="10"/><polygon points="567.07 1471.07 513.11 1584.27 554.37 1697.48 610 1596.09 567.07 1471.07" fill="none" stroke="#000" stroke-linecap="round" stroke-linejoin="round" stroke-width="10"/><polygon points="735.68 1494.46 681.73 1607.66 722.99 1720.87 778.62 1619.48 735.68 1494.46" fill="none" stroke="#000" stroke-linecap="round" stroke-linejoin="round" stroke-width="10"/><polygon points="1052.06 1515.53 1012.61 1616.17 1055.03 1710.97 1096.64 1620.39 1052.06 1515.53" fill="none" stroke="#000" stroke-linecap="round" stroke-linejoin="round" stroke-width="10"/><polygon points="903.78 1511.4 852.85 1618.24 891.8 1725.08 944.3 1629.39 903.78 1511.4" fill="none" stroke="#000" stroke-linecap="round" stroke-linejoin="round" stroke-width="10"/><polyline points="513.11 1416.03 542.36 1384.4 569.58 1424.86 600.47 1392.5 621.07 1429.27 653.43 1396.91 681.73 1439.32 713.75 1405 735.09 1445.46 764.51 1414.93 792.46 1456.49 820.7 1420.64 849.1 1456.49 879.26 1420.45 905.01 1460.91 933.7 1425.6 956.5 1471.07 985.27 1434.46 999.9 1471.07 1025.65 1439.32 1045.38 1475.36" fill="none" stroke="#000" stroke-linecap="round" stroke-linejoin="round" stroke-width="10"/><polyline points="516.96 1782.12 538.92 1743.21 568.83 1781.72 597.45 1747.32 620.5 1782.61 650.59 1748.12 681.7 1788.51 711.32 1752.08 735.35 1790.99 762.63 1758.53 793.35 1798.09 828.32 1759.58 849.86 1794.23 877.49 1756.22 905.93 1794.83 932.15 1757.65 958 1801.47 980.43 1754.06 1001.3 1798.51 1023.53 1753.95 1046.52 1788.58 1074.82 1743.21 1101.46 1783.79" fill="none" stroke="#000" stroke-linecap="round" stroke-linejoin="round" stroke-width="10"/><path d="m222.28,295.45s18.4-49.25,56.11-58.63" fill="none" stroke="#fff" stroke-linecap="round" stroke-linejoin="round" stroke-width="10"/><path d="m189.45,236.82s6.86-46.9,60.89-44.56" fill="none" stroke="#fff" stroke-linecap="round" stroke-linejoin="round" stroke-width="10"/><path d="m571.72,437.25s2.35,66.93-25.8,97.42" fill="none" stroke="#fff" stroke-linecap="round" stroke-linejoin="round" stroke-width="10"/><path d="m621.01,471.35s5.88,78.63-33.43,97.95" fill="none" stroke="#fff" stroke-linecap="round" stroke-linejoin="round" stroke-width="10"/><path d="m1490.3,990.33s7.74-64.95,40.94-83.54" fill="none" stroke="#fff" stroke-linecap="round" stroke-linejoin="round" stroke-width="10"/><path d="m1462.39,969.61s-3.58-69.31,37.61-88.64" fill="none" stroke="#fff" stroke-linecap="round" stroke-linejoin="round" stroke-width="10"/><path d="m1842.37,1079.6s-3.15,57.04-63.69,117.21" fill="none" stroke="#000" stroke-linecap="round" stroke-linejoin="round" stroke-width="10"/><path d="m1897.66,1095.65s-7.71,96.23-77.86,147.68" fill="none" stroke="#000" stroke-linecap="round" stroke-linejoin="round" stroke-width="10"/><circle cx="2272.83" cy="1871.15" r="65.23" fill="none" stroke="#000" stroke-linecap="round" stroke-linejoin="round" stroke-width="10"/><circle cx="2185.12" cy="1744.49" r="65.23" fill="none" stroke="#000" stroke-linecap="round" stroke-linejoin="round" stroke-width="10"/><line x1="2232.84" y1="1788.97" x2="2245.68" y2="1811.83" fill="none" stroke="#000" stroke-linecap="round" stroke-linejoin="round" stroke-width="10"/><path d="m2327.23,1907.14l40.66,46.58c9.97,11.42,10.22,28.37.61,40.09h0" fill="none" stroke="#000" stroke-linecap="round" stroke-linejoin="round" stroke-width="10"/></g></svg>