<?xml version="1.0" encoding="utf-8"?>
<!-- Generator: Adobe Illustrator 27.1.1, SVG Export Plug-In . SVG Version: 6.00 Build 0)  -->
<svg version="1.1" id="Layer_1" xmlns="http://www.w3.org/2000/svg" xmlns:xlink="http://www.w3.org/1999/xlink" x="0px" y="0px"
	 viewBox="0 0 1296 1728" style="enable-background:new 0 0 1296 1728;" xml:space="preserve">
<style type="text/css">
	.st0{fill:#B0DCD4;}
	.st1{fill:#28C870;}
	.st2{fill:#ECEFEC;}
	.st3{fill:#FEFFFF;}
	.st4{fill:#FFD3A8;}
	.st5{fill:#FF9F91;}
	.st6{fill:#E1631D;}
	.st7{fill:#0085FF;}
	.st8{fill:#81C9FF;}
	.st9{fill:#FFFFFF;}
	.st10{fill:#FFFBA9;}
	.st11{fill:#FF0000;}
</style>
<g>
	<rect class="st0" width="1296" height="166.6"/>
</g>
<g>
	<rect y="433.6" class="st1" width="1296" height="1294.4"/>
</g>
<g>
	<rect y="166.8" class="st2" width="1296" height="267.1"/>
</g>
<g>
	<polygon class="st3" points="1297.4,472.2 -1,472.5 -0.9,453.1 1297.4,453.1 	"/>
	<path d="M-1.5,473l0.1-20.4h1299.3v20.1h-0.5L-1.5,473z M-0.4,453.6L-0.5,472l1297.4-0.3v-18.1H-0.4z"/>
</g>
<g>
	<ellipse class="st4" cx="872.3" cy="794.1" rx="367.9" ry="153.4"/>
</g>
<g>
	<path class="st4" d="M0,1547.3c96.5-63.5,254-104.9,433.2-104.9c294,0,532.4,111.5,532.4,249c0,12.8-2.3,24.4-6.3,36.7H0V1547.3z"
		/>
</g>
<g>
	<polygon class="st5" points="600.8,1020.5 596.9,1025.4 591.8,1029.9 576.3,1040.7 432.9,1140.7 424.4,1146.8 419.4,1148.5 
		413.2,1149.2 407.8,1148.4 401.5,1145.3 396.3,1140.5 375.1,1118.4 361.2,1104.4 348.4,1089.5 336,1073.9 320.9,1052.8 
		309.2,1034.1 296.7,1010.9 291.4,999.7 284.3,983.5 279.5,972.1 275.6,959.1 253.2,1048.8 251.2,1055.8 247.4,1070.7 243.8,1082 
		243,1086.1 238.9,1093.8 234.7,1103.5 184,1214.3 183.4,1216.2 157.9,1215.6 141.6,1214.4 122.6,1210.7 116.6,1208.4 119.9,1193.1 
		141,1091.4 148.8,1054.1 152.3,1037.2 156.1,1017.5 162,990 169.7,951.5 174.5,928.3 178.7,910.3 184.7,891.8 190.3,879.1 
		197.1,866.3 204.6,855 211.5,845.1 222.2,833.8 232,823.9 246.2,812.1 263.1,801.9 283.2,790.1 364.9,742.8 378.8,735.3 389,730.9 
		400.8,727.9 409.2,726.9 417.2,727 425.5,727.3 432.4,729 445.7,732.4 454.5,737.1 478.5,752 542.7,794.1 556.5,803.1 564.1,808.6 
		570.7,814.7 577.9,823.2 582.7,829.8 588.2,839.7 592.1,849.1 595.1,859 596.8,869 597.4,881 596.3,894.2 594.4,903.2 592.7,909 
		589.4,917.7 578,948.9 584.8,960.2 594.8,977 600.3,986 603.5,992.2 604.9,997.2 605.5,1003.4 605.2,1009.5 603.1,1016 	"/>
</g>
<g>
	<circle class="st3" cx="280" cy="691.5" r="98.8"/>
</g>
<g>
	<polygon class="st3" points="407.7,1149.2 404.3,1155.3 381.8,1195.5 370.5,1215.4 363.5,1228.3 358.5,1238.6 353.8,1249 
		348.8,1262.1 344.8,1272.9 340.5,1288.3 336.8,1305.2 334.2,1320.8 333.2,1330.8 332.1,1345.4 331.7,1357.8 332.1,1374.5 
		333.3,1392.2 336.2,1410.2 345,1449.8 349,1464.7 353.8,1474 359,1481 363.4,1485.6 372.2,1491.7 380.2,1495 387,1496.7 
		393.6,1497.5 400.7,1497.8 413,1498.3 422.9,1496.7 433,1492.9 440.1,1488.2 446.6,1482.2 453,1473.5 455.8,1468.5 457.2,1463.9 
		459.6,1455.1 460.3,1440.9 462.3,1409.9 463.3,1389.7 464.1,1379.8 465.1,1360.1 467.5,1344.2 470.9,1328.4 473.9,1319.5 
		477.2,1309.2 483.2,1295.3 488.1,1284.8 494.3,1274.3 500.8,1264.4 511.6,1249.5 560,1185.4 563.3,1181.9 566.9,1179.7 572,1178.1 
		576.6,1177.9 580.6,1178.9 586.5,1181.6 593.3,1184.4 635.5,1198.8 670.6,1211.1 716.4,1227.1 746.8,1237 774.5,1244.5 
		805.2,1250.7 830.3,1255.6 838.2,1256.9 849.2,1257.2 857.6,1256 868,1253.1 873.9,1250.4 880.7,1247.1 889,1240.8 897.2,1231.8 
		902.8,1222.5 907.8,1211.1 911.5,1201.8 914.7,1193.9 916.6,1185.4 917.1,1177.9 916.1,1168.6 914,1161.5 908.7,1151.5 
		903.7,1145.4 897,1139.7 889.6,1135.6 883.9,1133 877.5,1131.9 863,1129.4 844.2,1125.9 824.9,1121.1 810.8,1117 795.1,1111.7 
		779.4,1105.5 760.5,1097.3 736.8,1085.7 712.5,1071.2 692.8,1059.2 676.1,1048.9 649.8,1033.1 637,1025.4 628.3,1021.2 
		620.5,1018.2 612,1017.2 602.9,1017.1 600.8,1020.5 596.9,1025.4 592.6,1029.2 582.9,1036.1 461.9,1120.6 431.3,1142.1 
		425.3,1146.5 420.5,1148.6 414.6,1149.2 408,1148.7 	"/>
</g>
<g>
	<polygon class="st5" points="911.4,1154.9 1034,1222.5 1031.3,1224.2 1026.8,1227.8 1024.3,1230.7 1021,1235.6 1019.3,1239.6 
		1016,1251.7 1012.5,1263.5 1011.4,1268.8 1011,1274.5 1012.3,1282.3 1013.7,1285.9 872.7,1251.8 875.7,1249.9 880.7,1247.1 
		885.8,1243.7 892.5,1237.1 896.4,1233 900.7,1226.4 904.5,1219.4 907.5,1212 914,1195 916.1,1189.3 917.1,1182.6 916.9,1172.4 
		914.8,1163.9 	"/>
</g>
<g>
	<polygon class="st5" points="361.7,1484.2 366.7,1516 378.5,1590.2 383.3,1590.2 387,1588.5 391.7,1585.2 395.9,1582.2 
		399.8,1580.8 406.2,1579.6 417.4,1578.9 425.3,1578.8 432.8,1579.8 437.8,1582.3 441.6,1585.2 445,1588.1 447.7,1589.3 
		451.7,1589.7 452.9,1588.8 453.1,1583.1 455,1469.8 453,1473.5 451.2,1476.7 445.8,1483.3 442.2,1486.9 433.9,1492.5 427.7,1495.1 
		418.2,1497.7 406.2,1498 392.2,1497.6 383.4,1496 374.5,1492.6 368.4,1488.9 	"/>
</g>
<g>
	<polygon class="st3" points="458.7,1590.4 456.2,1647.4 455.6,1653.2 454.4,1656.1 452,1659.4 448.7,1661.6 446.2,1662.7 
		441,1663.2 428.6,1663.5 408.4,1664.2 399.2,1664.2 391.5,1662.9 383.8,1660.4 375.3,1655.3 370,1649.8 352.6,1627.3 326.1,1592.8 
		317.6,1580.1 318,1573.9 320.3,1566.7 323.9,1559.9 329.5,1554 337.4,1549.1 344.2,1547 370.9,1545.1 378.5,1590.2 382.5,1590.4 
		388.1,1588.3 392.5,1584.7 398.2,1581.2 403,1579.8 414.1,1578.9 426.5,1578.6 432.8,1579.5 436.9,1581.4 441.1,1584.5 
		444.2,1587.2 446.6,1588.8 449.6,1589.5 452.8,1589.7 455.7,1588.3 457.9,1589 	"/>
</g>
<g>
	<polygon class="st3" points="1053.1,1219.2 1041.4,1220 1035,1222.2 1028,1226.8 1022.8,1232.5 1019.3,1239.6 1015.1,1254.7 
		1011.4,1268.8 1011,1274.5 1012.6,1283.4 1015.1,1288.7 1018.8,1294 1030.1,1302.1 1028.3,1294.8 1025.7,1282.3 1025.1,1272 
		1025.1,1265.6 1027.4,1254.2 1030.3,1246.6 1033.2,1240.7 1037.8,1233.6 1043.7,1227.1 	"/>
</g>
<g>
	<polygon class="st6" points="455.6,1655 455.6,1660.7 454,1666.5 450.8,1671.2 447.1,1675.3 441.5,1678.6 436.6,1680.1 
		427.4,1680.4 399.7,1680.4 391.3,1679.7 381.5,1676.6 375.6,1673.1 371.4,1670.2 366.4,1665.2 362.7,1660.3 321.2,1596.5 
		318.9,1590.4 317.7,1585.5 317.4,1580.8 319.1,1583 322,1587 326.1,1592.8 330.9,1599.2 361.9,1639.6 368.9,1648.8 374.2,1654 
		381,1658.5 386.1,1661.1 392.1,1663.3 402.3,1664.4 409,1664.4 438.4,1663.3 443.9,1663.1 448.7,1661.6 451.8,1660 454.3,1656.6 	
		"/>
</g>
<g>
	<polygon class="st3" points="1200.4,863.5 1200.9,863.8 1296,888.7 1296,907.8 1180.7,877.8 	"/>
</g>
<g>
	<polygon class="st6" points="1085.4,1216.7 1071.4,1218.2 1053.1,1219.2 1043,1227.9 1037.8,1233.6 1033.2,1240.7 1029.2,1249 
		1026.7,1257.4 1025.1,1266.8 1025.1,1275.6 1025.7,1283.2 1027.7,1292.9 1030.7,1302.1 1037,1306.6 1048.5,1313.3 1050.9,1315.4 
		1056.4,1319.2 1062.1,1322.6 1069,1325 1152.3,1346.5 1159.5,1348 1168,1348 1175.3,1346.7 1181.5,1344 1187.7,1340.7 
		1191.5,1337.4 1195.3,1334.2 1198.3,1330.7 1203.5,1320.7 1204.7,1315.9 1206.9,1305 1210.2,1285.4 1209.7,1274.9 1207,1265.5 
		1202.8,1258.3 1198,1252.7 1193.1,1247.9 1186.8,1244.4 1178.3,1241.4 1108.9,1222.1 	"/>
</g>
<g>
	<polygon class="st6" points="190.6,1217.9 186.8,1216.7 180.2,1216.1 165.9,1215.8 147.5,1214.8 126.8,1211.5 114.6,1207.7 
		107.7,1205.3 102.5,1205.6 98.6,1206.8 94.9,1208.7 92.1,1211.3 89.7,1214.2 87.3,1218.7 85.7,1222 82.3,1235 79.5,1246.1 
		75.9,1258.3 74.5,1264.2 72.4,1270.6 69,1278.5 66.2,1283.9 59.3,1294.2 48.9,1307.3 41.5,1316.7 39.3,1321.7 38,1327.2 38,1333.6 
		39.8,1339.2 42.4,1344.2 45.2,1348.3 49.6,1352.1 69.2,1370.6 89.5,1389.6 94.5,1392.5 99.4,1393.7 103.5,1394.2 108.9,1393.6 
		112.6,1392.4 116.8,1390.4 120.4,1388.2 124.1,1384.5 127.8,1381.4 142.4,1369.9 157,1355.9 170.4,1340.9 182.7,1324.1 
		194.5,1304.4 199.7,1292.9 202.1,1290 207.3,1281.3 210.2,1273.1 211.9,1265.1 212.1,1257 210.9,1249 209.3,1243.7 204.3,1233.2 
		200.1,1225.4 196.8,1221.6 	"/>
</g>
<g>
	<path class="st7" d="M1115.2,350.9l-1.6-10.9l-3.2-9.4l-4.8-9.9l-6.2-8.8l-9.5-9.8L1078,293l-12.9-10.2l-114.4-4l-30.9,13.3
		l-36.5,37.2l3.1,0.4l2.1,1l2.1,2.4l0.6,2.2l-0.5,3.1l-1.6,2.5l-2.5,2.4l-1.3,2.3l-0.2,2.7l0.6,3.5l6.5,7.5l-39.5,27l0.6,1.8
		l4.3,5.5l7.2,8.6l8.8,9.8l11,9.4l7.6,5.6l-1.5,3.1l-1.2,4l-0.1,2.7l0.4,5l1,3.1l2.5,4.5l3.7,4.9l3.8,4l7.2,6.2l14.2,10.6l9.9,6.4
		l9.8,4l14.2,2.9l26.4,3.4l24.6,0.8l20.5-0.8l20.3-2.4l15.6-3.3l8.3-2.8l7.8-4.7l2.7-2.6l6.9-8.5l4.8-9.2l3.8-9.1l3.9-13.4l1.8-6.5
		l1.7-9.7l1.6-10.5l1.4-11.3l0.9-12.4l1.9-5l2.6-8.1l0.7-4.4l1.1-7.9L1115.2,350.9L1115.2,350.9z M937.7,351.5l-17.4,31.7L900,363.8
		l37.7-13.4V351.5L937.7,351.5z"/>
</g>
<g>
	<polygon class="st6" points="834.8,353 794.2,397.2 790.4,394.5 786.8,394.5 784.5,397.2 784.5,400.2 786.8,402.5 803.2,416.6 
		806.7,418 808.3,417.2 809.7,416.4 810.5,414.9 810.5,413.2 809.4,411.3 806.7,408.3 846.7,366.8 	"/>
</g>
<g>
	<polygon class="st6" points="852.9,324.1 846.7,335.4 866.5,349.3 886.9,325.6 1057.9,149.9 1092.3,114.4 1101.3,105.1 
		1104.7,101.4 1107.5,96.8 1109.6,91.1 1110.4,85 1109.8,78.6 1106.8,70.6 1102.8,65.1 1098.8,61.7 1090.4,57.3 1083.3,55.9 
		1076.4,56.4 1071.3,57.8 1066.8,60 1063.1,62.8 1060,65.9 928.9,229.3 	"/>
</g>
<g>
	
		<ellipse transform="matrix(0.7071 -0.7071 0.7071 0.7071 134.6452 780.9136)" class="st3" cx="1010" cy="227.9" rx="77.6" ry="77.6"/>
</g>
<g>
	<polygon class="st8" points="1078.6,479.7 1074.3,482.6 1068.8,484.6 1058.6,487.8 1047.8,489.7 1035.7,491.4 1024.7,492.3 
		1012.2,492.8 1000,492.9 985.5,492.2 971.2,491.1 959.1,489.6 947.2,487.1 937.2,484 930.2,481.2 924.4,477.5 918.6,473 
		910.9,467.2 902.4,460.3 895.2,452.8 891.1,446.2 889.4,439.9 889.7,433.5 886.6,435.7 878.2,441.4 866.5,449.9 852.4,459.9 
		840,468.7 823.6,480.5 813.8,488.5 805.3,495.9 798.3,503.3 791.8,510.1 785.1,518.6 778.7,527 772.3,537.3 766.3,547.4 
		759.3,561.1 755.4,569.7 752,579.4 747.6,592.4 744,602.2 741.2,611 739.3,617.1 738.4,623.8 738.4,629 739.6,636.5 741.3,641.6 
		743.3,646.4 747.9,653.5 752.8,658.8 758.4,663.1 764.4,666.3 770.3,668.6 776.2,669.8 782.2,670.2 789.7,669.6 797.2,667.7 
		801.9,666 804.4,664.6 806.8,663.1 811.2,659.9 814.9,656.3 818.5,652.1 821.8,646.6 824,642 825.5,638.1 831.6,623.7 834.9,616.3 
		839,608.3 843.6,602 849.2,594.9 856.6,587.8 862.5,583.7 870.3,578.6 912.6,553.2 945.4,533.4 945.4,536.3 943.3,582.2 
		942.5,587.9 942.1,596.7 941.9,605.9 942.4,616.2 943.7,626.7 947,640.6 949.6,648.8 952.7,656.8 965.3,681.5 977,703.4 
		983.2,714.8 987.8,723.7 993.9,730.7 1001.9,736.8 1006.6,739.3 1013.4,741.5 1021.8,742.8 1030,742.3 1038.3,740.5 1043.2,738.3 
		1049,734.8 1053.9,730.9 1059.1,725.1 1061.2,721.5 1063.6,716.9 1065.3,712.4 1066.6,707.7 1067.3,699.9 1066.6,691.8 
		1065.2,686.4 1060.4,676.1 1054.8,661.8 1051.6,650.3 1049.1,638.2 1047.9,625.3 1047.7,614.9 1048.3,605.6 1049.5,597.8 
		1051.1,589 1053.6,579.9 1054.7,575.4 1059.9,561.7 1064.6,548.9 1071.4,530 1076.6,516 1079.5,507.8 1081.2,502.7 1082.3,495.8 
		1082.5,491.1 1081.8,485.4 1080.5,481.9 	"/>
</g>
<g>
	<polygon class="st3" points="891.2,358.4 885.3,351 884.7,347.4 885.6,344.6 888.5,341.8 890.8,338.7 891.3,337.1 890.2,332.1 
		886.4,329.9 882.2,330.1 879.3,333.1 874.5,338.6 871.4,340.9 867.2,341.5 862.9,340.5 858.1,337.1 853.5,331.9 852.4,329 
		852.9,324.1 862.7,311.8 857.5,312.1 848,314.2 841.7,317.7 837,322.4 833.1,328.3 831.2,333.4 830.9,343.3 830.6,345.2 
		821.5,350.1 819.5,352.7 819.2,354.9 813.8,358.3 812.6,361.5 811.1,363.2 807.3,368 806.7,371 805.6,372.6 802.2,376.5 
		801.8,378.6 802.1,380.6 804.3,383.9 812.4,393 814,394.2 816.9,394.2 818.4,393.5 819.9,392.4 821.2,390.4 820.6,386.4 
		823.3,385.3 825.1,383.8 825.9,382.1 826,379.7 825.6,377.5 827.5,377.5 829.3,376.5 830.6,375.4 831.3,374.2 831.8,369.8 
		834.2,369.9 836.4,368.9 838,366.7 838.6,363.8 837.4,361.2 832.6,355.1 834.8,353 846.7,366.8 832.4,381.8 833.8,385 837.8,386.7 
		841.2,385 844,381.7 847.7,377.1 850.1,371 859.3,382.1 892.4,359.8 	"/>
</g>
<g>
	<polygon class="st7" points="1061.2,721.5 1084,768.3 1083.6,770.8 1081.9,775.7 1079.5,781.1 1075.4,788.1 1070.9,793.5 
		1066,797.7 1064.6,794.5 1062.9,790.1 1060.4,787.3 1056.4,783.9 1048.8,781.4 1044.3,780.7 1036.3,780.7 1034.2,781.1 
		1031.6,777.2 1005.1,739 1010.1,740.7 1016.7,742.4 1023.6,743.1 1030.9,742.6 1037.8,740.9 1045.3,737.4 1049.6,734.7 
		1054.6,730.3 1058,726.2 	"/>
</g>
<g>
	<path class="st7" d="M802.9,665.9l-23.2,53.8c0,0-2.3,1.3-2.5,1.4s-7.7,2.2-7.7,2.2l-7.1,1.2l-7.6,0.5l-6.9-1.1l-3.9-1.1l2.4-3.6
		l1.7-2.9l1.3-5.1v-3.6l-1.1-5.2l-1.7-4.4l-3.2-5.2l-2.8-3.7l-4.3-4.1l-2.3-1.6l6.6-43.7l3.1,7.4l4.1,6.5l4.9,5.2l7.8,5.6l8.7,3.7
		l8.6,2l6.4,0.2l4.9-0.4c0,0,3.9-0.9,4-0.9s10-3.7,10-3.7L802.9,665.9L802.9,665.9z"/>
</g>
<g>
	<polygon class="st3" points="1083.6,767.6 1079.2,759 1083.6,759.5 1085.6,762.1 1090.1,766.1 1097.2,772.8 1103.8,780.5 
		1107.2,786.9 1108.2,789.7 1108.3,793.2 1107.4,797.7 1105.8,804.1 1103.2,812.6 1100.2,820.6 1097.4,828 1094,836.2 1087.5,849.8 
		1082.8,858.3 1078.7,864.6 1075.1,870 1071.7,874.2 1065.5,879.8 1062.9,881.5 1059.3,883.4 1056.1,884.7 1051.6,885.9 
		1046.4,887.1 1039,887.5 1032,887.1 1025.2,885.6 1019.5,883 1016.6,880.3 1014.2,877.1 1013.8,873.2 1014.3,870 1016.4,862.1 
		1020.2,851.6 1026.5,833.7 1029.1,825.2 1030,820.7 1029.8,815.4 1028.2,807.6 1026.2,802.8 1023.4,796.8 1022.8,791.5 
		1023.4,787.4 1025.9,784 1031.3,781.5 1035.7,781.1 1043.2,780.8 1048.1,781.2 1054.8,783.1 1058.1,785.4 1061.5,787.8 
		1063.6,791.4 1066,797.7 1070.2,794.1 1075.2,788.6 1079.5,781.1 1083,773.7 1084,768.3 	"/>
</g>
<g>
	<polygon class="st6" points="1108.9,790 1112.2,796.3 1112.2,799.1 1111.9,801.4 1116.6,806.2 1116.8,808.5 1116.2,810.4 
		1115.2,811.2 1112.8,812 1109.3,811.2 1106.1,821.2 1109.6,824.4 1110.9,826.3 1110.7,828.6 1109.8,830.2 1107.8,831.4 
		1105.7,831.4 1102.8,829.9 1097.6,842.7 1100.5,845.8 1101.8,847.2 1102.7,849.6 1102,852.5 1099.4,853.9 1097.6,853.8 
		1093.7,851.5 1087.8,862.2 1091.4,865.5 1092.3,867.8 1092.4,870 1091.4,871.4 1089.8,872.4 1088.6,872.6 1086.7,872.3 1083.3,870 
		1078.2,876.9 1073.2,882.4 1066.2,887.1 1060.1,890 1054.4,891.8 1048.3,892.8 1043.2,893 1038,893 1032.9,892.2 1029.2,891.1 
		1024.1,888.9 1020.3,885.5 1018.7,882.7 1026.3,885.8 1032.9,887.2 1039.9,887.5 1046.9,886.9 1053.2,885.8 1059.3,883.4 
		1066.9,878.8 1069.7,876.3 1072.9,872.7 1078.7,864.6 1085.8,853.4 1093.1,838.5 1098.5,825.4 1103.2,812.6 1106.2,802.6 
		1107.5,796.3 	"/>
</g>
<g>
	<polygon class="st3" points="779.8,718.7 783,710.5 785.1,714.4 784.2,717.5 783.7,723.5 782.4,733.2 780,743.1 776.8,749.5 
		775.1,752 772.3,754.2 768.3,756 762,758.5 753.7,761.4 745.4,763.6 737.8,765.7 729.2,767.8 714.4,770.5 704.7,771.7 697.2,772 
		690.7,772.4 685.3,772 677.1,770.3 674.2,769.2 670.5,767.4 667.6,765.5 664,762.6 660,759.1 655.3,753.4 651.6,747.5 648.8,741.1 
		647.5,735 648,731 649.2,727.2 652.1,724.6 655,723.1 662.7,720.2 673.4,717 691.6,711.7 700,708.8 704.2,706.9 708.3,703.7 
		713.7,697.7 716.4,693.3 719.6,687.6 723.6,683.9 727.3,682 731.5,682 736.6,684.9 739.6,688.2 744.2,694.1 746.8,698.3 
		749.2,704.9 749.2,708.9 749.2,713.1 747.6,716.9 744,722.5 749.2,723.8 756.7,724.6 765.3,723.7 773.4,722.2 779.5,720.1 	"/>
</g>
<g>
	<polygon class="st6" points="775.3,752.7 772.1,759.1 769.8,760.8 767.8,761.9 766.8,768.5 765,770 763.1,770.6 761.8,770.3 
		759.8,768.9 758.4,765.5 748.4,768.7 747.8,773.5 747.1,775.6 745.1,776.8 743.3,777.1 741.2,776.2 739.9,774.5 739.5,771.2 
		726,774.5 725.2,778.7 724.9,780.6 723.4,782.7 720.7,783.8 718,782.5 717.1,781 716.7,776.5 704.5,778.1 703.9,782.8 702.6,785 
		700.9,786.3 699.2,786.4 697.4,785.6 696.5,784.8 695.7,783.1 695.5,779 687,778.9 679.5,778 671.6,775.2 665.7,772 660.9,768.3 
		656.5,764 653.3,760 650.3,755.8 647.9,751.2 646.7,747.5 645.5,742.1 646,737 647.3,734.1 649.2,742.1 652,748.3 655.8,754.1 
		660.5,759.4 665,763.9 670.5,767.4 678.7,770.9 682.4,771.7 687.2,772.2 697.2,772 710.4,771.3 726.8,768.4 740.5,765.1 
		753.7,761.4 763.5,757.9 769.4,755.3 	"/>
</g>
<g>
	<polygon class="st7" points="801.5,168.1 800.2,147.8 798.1,115.6 797.8,109.3 799.3,102.6 802.2,97.8 805,94.8 808.6,92.5 
		811.7,91.2 817.3,89.6 822.7,87.5 827.6,84.4 832.7,79.6 835.6,75.6 838.2,70.3 840.2,63.4 840.2,57.4 838.4,48.3 835.4,42.1 
		830.5,36.1 825.1,31.5 816.9,26.5 810.3,24.6 804.6,24 800.4,24 795.8,25.2 768.3,31.6 761.2,34.4 752.7,38.4 743.9,42.6 
		735.1,46.7 726.5,50.8 721.3,53.4 713.1,59.3 707.1,65.4 702.2,72.5 698,81.8 695.9,90.2 695.2,99.2 695.5,105.1 697.5,114.2 
		700.3,121.3 702.8,125.9 707.1,133.1 710.2,138 714.2,142.4 719.2,146.2 725.2,149.4 731.7,151.2 739.2,151.8 745.6,151.6 
		750.8,152.7 756.8,156 760.1,158.9 763,162.6 765.8,168.3 768.5,174.4 770.6,178.9 773.2,182.3 777.7,184.6 780.8,185.5 
		785.6,186.1 789.5,185.4 792.1,184.5 794.7,183 796.5,181.4 799.1,178.1 801.2,173.5 	"/>
</g>
<g>
	<ellipse class="st9" cx="193.6" cy="134.2" rx="40.8" ry="42"/>
</g>
<g>
	<path class="st10" d="M984.6,140.8l1.8,10.3l0.5,7v10.1l-2,11.2l-2.1,5.4l-3.2,7.2l-3,4.3l-2.8,2.8l-3.7,3l-4.2,2.9l-7.3,3.8
		l-7.5,1.9l-9.2,1.7l-7.9,0.3l-13.5-0.3l-9.9-0.9l5.5,2.2l11.8,4.3l6.9,3.5l6.4,3.8l6.2,4.3l4.5,4.1l4.3,4.7l3.8,5.2l3,5.1l2.6,7.2
		l1,6l0.5,5.2l-0.8,8.8l-1.3,5.2l-5,15l1-0.4l2-2.6l4-4.4l6.1-6.3l8.1-6.4l9.7-5.2l7.4-2.5l8.8-1.3l8-0.2l9.1,1.9l6.8,2.5l6.5,2.7
		l10,6.6c0,0,10.6,8.3,10.9,8.4s6.1,5.2,6.1,5.2l-2.8-5.2l-6-10.4l-4.3-10.8l-2.4-10.2l-0.9-7.2l-0.1-4.5l1.2-9.9l1.5-5l1.8-4.8
		l5.4-8.9l6.6-7.2l4.9-4.4l13.9-9.5l9-4.4l-6.7,0.8l-7.8,1.7l-11.2,1.5l-10.9,0.6l-10.6-1l-6.9-1.3l-7.7-2.2l-8-3.6l-8.2-4.2l-6-4.9
		l-5.6-5.5l-4.6-5.5l-7.5-12.3l-4-9.3L984.6,140.8L984.6,140.8z"/>
</g>
<g>
	<circle class="st3" cx="1004" cy="227.9" r="28"/>
</g>
<g>
	<polygon class="st5" points="307.4,187 308.9,147.1 182.2,159.2 170.5,160.3 163.5,161.6 158.1,164.1 152.8,167.7 148.6,171.7 
		144.9,177.2 142.7,182.5 140.9,189.1 140.9,191.9 138.5,198.1 136.1,205.7 132.2,218.5 129.2,230.4 127.4,242 126.9,250.9 
		126.8,259.2 127.2,271.8 128.1,279.4 129.2,283.5 130.6,287.3 132.9,290.6 136.5,294.6 141.5,297.2 146.9,298.8 152.6,299.4 
		160.5,301.1 175.9,302.9 185.4,303.6 198.2,303.7 209.1,303.2 218.7,302.2 235.6,299.8 240.8,299 245.7,298.2 249.9,295.6 
		254.1,290.9 255.4,286.5 281.5,288 261.9,193.3 	"/>
</g>
<g>
	<polygon class="st3" points="254.3,292.5 266.3,401.4 267.3,411.5 267.3,415.3 266,421.7 264.8,424.8 261.5,430 258.1,433.5 
		254.3,436 250.5,437.8 245.9,438.5 241.4,438.5 237.8,437.5 231.8,434.5 227.8,430.9 224.8,426.7 222.2,420.5 199.1,344.8 
		197.3,340.8 194.7,339.1 192.6,338.9 189.6,339.5 187.7,341.3 186.4,342.8 184.9,348.8 168.2,418 166.1,424 162.4,429.8 
		158.9,433.4 153.9,436.5 150.2,437.7 145.4,438.5 139.2,438.1 135.2,436.6 130.5,433.4 124.8,427.5 122.2,422.6 120.8,417.2 
		120.1,412.5 120.6,406.5 121.3,401.3 131.6,293.3 132,290.3 134.6,292.5 139.4,296.1 145,298.4 151.6,299.5 159.4,300.7 
		175.9,302.9 183.7,303.7 193.9,303.7 203.4,303.7 212.1,303 230.9,300.5 240.8,299 243.2,299 247.2,297.7 249.9,295.6 253.4,291.7 
			"/>
</g>
<g>
	<polygon class="st5" points="124.8,427.5 125.7,444.6 127.9,472.2 155.7,473.3 158.1,473.8 162.4,429.8 160.1,432.5 155.8,435.7 
		149.1,438.2 141.2,438.5 135.2,436.6 131.6,434.3 127.1,430.6 	"/>
</g>
<g>
	<polygon class="st5" points="229.3,432.6 239.3,473.2 268.4,472.2 268,465.1 264.8,424.8 262.9,428.2 259.1,432.9 253.4,436.6 
		247.7,438.5 242.6,438.7 237.2,437.4 232.7,435.3 	"/>
</g>
<g>
	<polygon class="st3" points="160.9,494.5 161.2,484 161.1,478 159.3,475 157.1,473.8 151.1,473 127.4,472.2 125.3,470.8 
		123.7,469.1 122.2,468.5 120.3,468.5 119,470.1 117.4,471.9 110.8,477.4 106.1,480 102.3,481.9 97.3,483 92.1,484 87.8,484.8 
		85.8,486.1 84.4,488.4 83.4,491.1 83.8,494 85.5,496.5 87.6,498.4 91.2,499.7 100,499.7 152.9,499.9 156.2,499.1 158.6,497.8 
		160.5,496.2 	"/>
</g>
<g>
	<polygon class="st6" points="159.3,497.5 159.3,500.4 158.5,503 156.2,505.5 152.2,506.8 148,506.8 92.2,506.8 90.3,506.5 
		88.7,505.7 86.9,504.5 85.5,502.7 85.1,500.3 85,497.6 85.1,496.6 87.6,498.4 90.1,499.5 93.1,499.9 98.4,499.7 151.6,499.9 
		155.7,499.5 157.8,498.3 	"/>
</g>
<g>
	<polygon class="st3" points="235.2,494.2 234.9,483.7 235.1,477.8 236.8,474.8 239.1,473.6 245,472.7 268.8,471.9 270.8,470.5 
		272.5,468.9 274,468.2 275.8,468.2 277.1,469.9 278.8,471.6 285.3,477.1 290,479.7 293.9,481.6 298.9,482.8 304,483.7 308.4,484.5 
		310.4,485.8 311.7,488.1 312.7,490.8 312.3,493.7 310.6,496.2 308.5,498.1 305,499.4 296.1,499.4 243.2,499.6 239.9,498.8 
		237.5,497.5 235.6,495.9 	"/>
</g>
<g>
	<polygon class="st6" points="236.8,497.2 236.8,500.1 237.6,502.7 239.9,505.2 244,506.5 248.1,506.5 303.9,506.5 305.8,506.2 
		307.4,505.4 309.2,504.3 310.6,502.4 311,500 311.1,497.4 311.1,496.3 308.5,498.1 306.1,499.2 303.1,499.6 297.7,499.4 
		244.6,499.6 240.4,499.2 238.3,498.1 	"/>
</g>
<g>
	<polygon class="st6" points="256.5,286.6 275.5,287.7 274,293.8 272.5,298.7 270.2,304.2 267.3,309.9 263.6,315.2 260.3,319.3 
		257.6,322.4 254.3,292.5 254.3,289.7 255.1,287.7 255.8,286.1 	"/>
</g>
<g>
	<path class="st3" d="M308.9,148.9l42.5,1.6c0,0,5,0.3,5.4,0.5s2.6,2.2,2.6,2.2l-0.5,3.9l-3.1,2.2l-16.4,1.3l3,2.1l1.1,1.5l0.5,2.8
		l-0.6,2.2l-20.6,14.3l-2.5,0.7l-3.3-0.8l-1.9-3.2l0.4-3.4l-7.4,1.4L308.9,148.9L308.9,148.9z"/>
</g>
<g>
	<polygon class="st5" points="154.4,119.5 154.4,111.2 156.3,104.3 159.7,97.5 163.5,92.8 167.5,89.2 171.6,86.6 177.4,84 183,82.1 
		187.7,79.9 193.6,78.9 201.8,78.3 209.6,78.7 213.6,79.8 218,82.9 220.4,85.8 222.3,90.4 223.1,95.6 228.7,95.8 234.9,96.3 
		242.4,97.5 248.6,99.3 224,106.8 220.5,104.8 215.4,103.3 210.1,102.1 203.3,101.5 195.4,102.1 190.3,103.3 186.9,104.7 
		174.6,108.9 154.4,121.4 	"/>
</g>
<g>
	<path class="st3" d="M479.8,990.6l-16.2,10.4l-70.3-109.7l-8.6,39.9l-17.1-3.8l12.5-56.8l16.2-10.4L479.8,990.6L479.8,990.6z"/>
	<path d="M463.4,1001.7l-0.3-0.4l-69.6-108.7l-8.5,39.2l-18.1-4l12.7-57.5l16.8-10.8l0.3,0.4l83.8,130.8L463.4,1001.7z M393.1,890
		l70.7,110.3l15.4-9.9l-83-129.6l-15.6,10L368.2,927l16.1,3.6L393.1,890z"/>
</g>
<g>
	<polygon class="st3" points="0,549.2 225.9,608.4 224.9,609.5 220.6,612.4 208.4,623.5 199.8,621.1 0,568.9 	"/>
</g>
<g>
	<polygon class="st3" points="557.8,714.4 550.2,712.7 376,667 374.3,662.1 371.9,654.3 367.9,645.7 579.6,701 	"/>
</g>
<g>
	<polyline class="st3" points="367.5,645.5 579.5,701.1 557.5,714.6 375.7,666.9 	"/>
	<path d="M557.5,715.1c0,0-0.1,0-0.1,0l-181.8-47.7c-0.3-0.1-0.4-0.3-0.4-0.6c0.1-0.3,0.3-0.4,0.6-0.4l181.6,47.6l20.8-12.8
		L367.4,646c-0.3-0.1-0.4-0.3-0.4-0.6c0.1-0.3,0.3-0.4,0.6-0.4l212,55.6c0.2,0.1,0.3,0.2,0.4,0.4s-0.1,0.4-0.2,0.5l-22,13.5
		C557.7,715.1,557.6,715.1,557.5,715.1z"/>
</g>
<g>
	<path d="M280,790.8c-54.8,0-99.3-44.5-99.3-99.3s44.5-99.3,99.3-99.3s99.3,44.5,99.3,99.3S334.8,790.8,280,790.8z M280,593.2
		c-54.2,0-98.3,44.1-98.3,98.3s44.1,98.3,98.3,98.3s98.3-44.1,98.3-98.3S334.2,593.2,280,593.2z"/>
</g>
<g>
	<path class="st11" d="M997.1,255.3l-2.8-1.2c0.3-0.7,0.7-1.5,1.3-2.6c3-5.4,8.5-15.4,4-25.9c-2.1-4.8-5.4-7.2-10.8-7.8
		c-4.3-0.5-9.6-1.5-9.8-1.5l0.5-3c0.1,0,5.4,1,9.6,1.5c6.4,0.7,10.7,3.9,13.2,9.6c5.2,11.9-1.1,23.2-4.1,28.6
		C997.8,253.9,997.3,254.8,997.1,255.3z"/>
</g>
<g>
	<path class="st11" d="M1029.9,237.6c-28.2-15.6-18.7-36.7-18.6-36.9l2.7,1.3c-0.4,0.8-8.3,18.9,17.4,33.1L1029.9,237.6z"/>
</g>
<g>
	<path d="M1296,434.1h-193.9c-0.3,0-0.5-0.2-0.5-0.5s0.2-0.5,0.5-0.5H1296c0.3,0,0.5,0.2,0.5,0.5S1296.3,434.1,1296,434.1z"/>
</g>
<g>
	<path d="M889.3,434.1H266.1c-0.3,0-0.5-0.2-0.5-0.5s0.2-0.5,0.5-0.5h623.2c0.3,0,0.5,0.2,0.5,0.5S889.6,434.1,889.3,434.1z"/>
</g>
<g>
	<path d="M229.3,434.1h-67.4c-0.3,0-0.5-0.2-0.5-0.5s0.2-0.5,0.5-0.5h67.4c0.3,0,0.5,0.2,0.5,0.5S229.6,434.1,229.3,434.1z"/>
</g>
<g>
	<path d="M124.8,434.1H0c-0.3,0-0.5-0.2-0.5-0.5s0.2-0.5,0.5-0.5h124.8c0.3,0,0.5,0.2,0.5,0.5S125.1,434.1,124.8,434.1z"/>
</g>
<g>
	<path d="M1296,167.3h-238.1c-0.3,0-0.5-0.2-0.5-0.5s0.2-0.5,0.5-0.5H1296c0.3,0,0.5,0.2,0.5,0.5S1296.3,167.3,1296,167.3z"/>
</g>
<g>
	<path d="M962.2,167.3H801.5c-0.3,0-0.5-0.2-0.5-0.5s0.2-0.5,0.5-0.5h160.7c0.3,0,0.5,0.2,0.5,0.5S962.5,167.3,962.2,167.3z"/>
</g>
<g>
	<path d="M764.9,167.3H344c-0.3,0-0.5-0.2-0.5-0.5s0.2-0.5,0.5-0.5h420.9c0.3,0,0.5,0.2,0.5,0.5S765.2,167.3,764.9,167.3z"/>
</g>
<g>
	<path d="M153.6,167.3H0c-0.3,0-0.5-0.2-0.5-0.5s0.2-0.5,0.5-0.5h153.6c0.3,0,0.5,0.2,0.5,0.5S153.9,167.3,153.6,167.3z"/>
</g>
<g>
	<path d="M414,1149.5c-6.3,0-12.5-2.7-16.9-7.8l-28.2-28.9c-35.9-36.8-64.3-79.6-84.3-127.1l-3.7-8.8c-1.1-2.6-2-4.9-2.6-7.3
		l-3.3-10.6c-0.1-0.3,0.1-0.5,0.3-0.6c0.3-0.1,0.5,0.1,0.6,0.3l3.3,10.6c0.6,2.3,1.5,4.6,2.6,7.1l3.7,8.8
		c20,47.4,48.3,90,84.1,126.7l28.2,28.9c7.2,8.3,19.4,9.9,28.4,3.6l165.6-115.8c13.3-9.2,17.2-27.4,8.9-41.2l-25.6-42.9
		c-21.3-35.7-46.6-68.8-75.1-98.5l-53.4-55.7c-0.2-0.2-0.2-0.5,0-0.7c0.2-0.2,0.5-0.2,0.7,0l53.4,55.7c28.6,29.8,53.9,63,75.3,98.7
		l25.6,42.9c8.6,14.3,4.6,33-9.1,42.6l-165.6,115.8C422.9,1148.2,418.5,1149.5,414,1149.5z"/>
</g>
<g>
	<path d="M1163.8,1348.4c-3.5,0-7.1-0.4-10.6-1.3l-84.6-21.7c0,0,0,0,0,0c-21.6-5.6-35.1-26.5-31.4-48.6l4.3-25.1
		c2-11.9,9-22.4,19.1-28.8c10.2-6.5,22.6-8.4,34.3-5.2l84.5,23.3c21.3,5.9,34.5,26.8,30.7,48.6l-4.2,23.6
		c-2.1,11.8-8.8,21.9-18.9,28.4C1180,1346.1,1171.9,1348.4,1163.8,1348.4z M1068.8,1324.4l84.6,21.7c11.4,2.9,23.1,1,33-5.3
		c9.9-6.4,16.4-16.2,18.5-27.8l4.2-23.6c3.8-21.3-9.1-41.6-29.9-47.4l-84.5-23.3c-11.4-3.1-23.6-1.3-33.5,5
		c-9.9,6.3-16.7,16.6-18.7,28.2l-4.3,25.1C1034.5,1298.5,1047.7,1318.9,1068.8,1324.4L1068.8,1324.4z"/>
</g>
<g>
	<path d="M410.3,1498.8c-0.9,0-1.8,0-2.8-0.1l-14.3-0.8c-21.9-1.2-40.2-16.3-45.6-37.6l-7.2-28.4c-18.1-71.1-9.2-145,25-208.2
		c0.3-0.7,0.7-1.4,1.1-2.1c0.4-0.7,0.7-1.3,1.1-2l40.1-71.6c0.1-0.2,0.4-0.3,0.7-0.2c0.2,0.1,0.3,0.4,0.2,0.7l-40.1,71.6
		c-0.3,0.7-0.7,1.4-1.1,2c-0.4,0.7-0.7,1.3-1.1,2c-34.1,63-43,136.6-25,207.5l7.2,28.4c5.3,20.8,23.2,35.6,44.6,36.8l14.3,0.8
		c26.8,1.5,50-19.1,51.7-45.8l4.4-69.8c0-44.8,14.9-89.3,41.9-125.2l55.7-73.8c5.4-5.6,13.9-7.2,21.1-4.1l8.7,3.9l131.1,45.6
		c24.7,8.6,50.2,15.4,75.8,20.3l35.5,6.8c30.1,5.7,60.2-10.8,71.6-39.4l8.1-20.5c5.3-13.4,4.2-28.3-3-40.8
		c-7.3-12.5-19.6-20.8-34-22.8c-55.3-7.8-107.5-26.3-155-55.2l-84.9-51.4c-10.1-6.2-22.1-9-33.8-8c-0.3,0-0.5-0.2-0.5-0.5
		c0-0.3,0.2-0.5,0.5-0.5c11.9-1,24.1,1.9,34.4,8.2l84.9,51.4c47.4,28.8,99.4,47.3,154.6,55c14.6,2.1,27.3,10.6,34.7,23.3
		c7.4,12.7,8.5,27.9,3.1,41.7l-8.1,20.5c-11.6,29-42.2,45.8-72.8,40l-35.5-6.8c-25.7-4.9-51.3-11.7-76-20.3l-131.1-45.6l-8.7-3.9
		c-6.8-3-14.8-1.5-19.9,3.8l-55.7,73.8c-26.9,35.7-41.7,80-41.7,124.6l-4.4,69.8C458.7,1478.3,436.5,1498.8,410.3,1498.8z"/>
</g>
<g>
	<path d="M1010,306c-20,0-40-7.6-55.2-22.8c-14.8-14.8-22.9-34.4-22.9-55.2c0-20.9,8.1-40.5,22.9-55.2l0,0
		c30.5-30.5,80-30.5,110.4,0c30.5,30.5,30.5,80,0,110.4C1050,298.4,1030,306,1010,306z M1010,150.9c-19.7,0-39.5,7.5-54.5,22.5
		c-14.6,14.6-22.6,33.9-22.6,54.5c0,20.6,8,40,22.6,54.5c30.1,30.1,79,30.1,109,0c30.1-30.1,30.1-79,0-109
		C1049.5,158.4,1029.7,150.9,1010,150.9z M955.1,173.1L955.1,173.1L955.1,173.1z"/>
</g>
<g>
	<path d="M784.5,186.7c-7,0-13.5-4.3-16.2-10.9l-3.8-9.3c-3.8-9.4-13.2-15.1-23.2-14.2c-13.8,1.1-26.7-5.5-33.8-17.3l-5.5-9.2
		c-8-13.5-9.6-29.7-4.3-44.5c4.8-13.3,14.7-24.2,27.2-30.1l37.7-17.8c2.1-1.1,4.2-1.9,6.5-2.4l28.2-6.5c9.6-2.2,19.9,0.1,27.6,6.3
		l3.7,3c8.1,6.5,12.6,16.5,12.1,26.8c-0.6,14.2-10.2,26.2-23.9,29.9l-4.1,1.1c-8.9,2.4-14.9,10.8-14.3,20l3.6,56.6
		c0.6,9.4-6.3,17.5-15.6,18.5C785.7,186.7,785.1,186.7,784.5,186.7z M743.4,151.2c9.6,0,18.3,5.8,22.1,14.9l3.8,9.3
		c2.7,6.8,9.7,11,17,10.2c8.9-1,15.3-8.6,14.8-17.5l-3.6-56.6c-0.6-9.6,5.7-18.5,15.1-21l4.1-1.1c13.2-3.6,22.5-15.2,23.1-28.9
		c0.5-10-3.9-19.7-11.7-26l-3.7-3c-7.4-6-17.5-8.3-26.8-6.1l-28.2,6.5c0,0,0,0,0,0c-2.2,0.5-4.3,1.3-6.3,2.3l-37.7,17.8
		c-12.3,5.7-22,16.5-26.6,29.5c-5.2,14.5-3.6,30.4,4.3,43.7l5.5,9.2c6.8,11.5,19.4,18,32.8,16.9C742,151.2,742.7,151.2,743.4,151.2z
		 M769.2,31.4L769.2,31.4L769.2,31.4z"/>
</g>
<g>
	<path d="M1004,256.4c-15.7,0-28.5-12.8-28.5-28.5s12.8-28.5,28.5-28.5s28.5,12.8,28.5,28.5S1019.7,256.4,1004,256.4z M1004,200.4
		c-15.2,0-27.5,12.3-27.5,27.5s12.3,27.5,27.5,27.5s27.5-12.3,27.5-27.5S1019.2,200.4,1004,200.4z"/>
</g>
<g>
	<path d="M794.2,397.7c-0.1,0-0.2,0-0.3-0.1c-0.2-0.2-0.2-0.5-0.1-0.7l10.7-12.8c0.2-0.2,0.5-0.2,0.7-0.1c0.2,0.2,0.2,0.5,0.1,0.7
		l-10.7,12.8C794.5,397.6,794.3,397.7,794.2,397.7z"/>
</g>
<g>
	<path d="M833.2,370.4c-1.7,0-3.4-0.7-4.6-2.1l-8.5-10.1c-0.6-0.7-1.1-1.7-1.3-2.7c-0.4-2.2,0.6-4.5,2.7-5.9l9-4.8
		c0.2-0.1,0.5,0,0.7,0.2c0.1,0.2,0,0.5-0.2,0.7l-9,4.8c-1.7,1.1-2.6,3.1-2.2,4.9c0.2,0.9,0.6,1.7,1.1,2.3l8.5,10.1
		c1.7,2,4.7,2.3,6.8,0.7c1.1-0.8,1.7-2.1,1.9-3.4c0.1-1.3-0.3-2.6-1.1-3.6l-4.2-5l-0.6-0.8c-0.1-0.2-0.1-0.5,0-0.7l2.5-2.5
		c0.2-0.2,0.5-0.2,0.7,0s0.2,0.5,0,0.7l-2.2,2.2l0.3,0.5l4.2,5c1,1.2,1.5,2.7,1.4,4.3c-0.1,1.6-1,3.1-2.2,4.1
		C835.7,370,834.5,370.4,833.2,370.4z"/>
</g>
<g>
	<path d="M852.9,324.6c-0.1,0-0.2,0-0.3-0.1c-0.2-0.2-0.2-0.5-0.1-0.7l79.5-99.2c0.2-0.2,0.5-0.2,0.7-0.1c0.2,0.2,0.2,0.5,0.1,0.7
		l-79.5,99.2C853.2,324.5,853,324.6,852.9,324.6z"/>
</g>
<g>
	<path d="M1048,160.5c-0.1,0-0.3,0-0.3-0.1c-0.2-0.2-0.2-0.5,0-0.7l54.5-56.1c6.1-6.3,8.8-14.9,7.4-23.6c-1.4-8.7-6.7-16-14.5-20.1
		c-0.1,0-0.3-0.1-0.4-0.2c-0.1-0.1-0.2-0.1-0.3-0.2c-11.7-6.1-26.1-3.1-34.2,7.2L990.9,153c-0.2,0.2-0.5,0.2-0.7,0.1
		c-0.2-0.2-0.2-0.5-0.1-0.7l69.2-86.3c8.4-10.7,23.3-13.8,35.4-7.5c0.1,0,0.3,0.1,0.4,0.2c0.1,0.1,0.2,0.1,0.3,0.2
		c8.2,4.3,13.7,11.8,15.1,20.9c1.5,9-1.4,17.9-7.7,24.5l-54.5,56.1C1048.3,160.4,1048.1,160.5,1048,160.5z"/>
</g>
<g>
	<path d="M882.6,330.6c-0.1,0-0.3,0-0.3-0.1c-0.2-0.2-0.2-0.5,0-0.7l60.6-62.3c0.2-0.2,0.5-0.2,0.7,0c0.2,0.2,0.2,0.5,0,0.7
		L883,330.4C882.9,330.5,882.7,330.6,882.6,330.6z"/>
</g>
<g>
	<path d="M806.7,408.8c-0.1,0-0.3,0-0.3-0.1c-0.2-0.2-0.2-0.5,0-0.7l40-41.2c0.2-0.2,0.5-0.2,0.7,0c0.2,0.2,0.2,0.5,0,0.7l-40,41.2
		C807,408.7,806.8,408.8,806.7,408.8z"/>
</g>
<g>
	<path d="M126.9,1317.2c-4.9,0-9.6-1.5-13.7-4.3c-10-6.9-13.5-20.2-8-31l19.8-39.1c0.1-0.2,0.4-0.3,0.7-0.2c0.2,0.1,0.3,0.4,0.2,0.7
		l-19.8,39.1c-5.3,10.4-2,23.1,7.6,29.8c5.2,3.6,11.6,4.9,17.8,3.6c6.3-1.3,11.6-4.9,15.1-10.3l28.9-45.1c0.1-0.2,0.5-0.3,0.7-0.2
		c0.2,0.1,0.3,0.5,0.2,0.7l-28.9,45.1c-3.6,5.6-9.2,9.4-15.7,10.7C130.2,1317,128.5,1317.2,126.9,1317.2z"/>
</g>
<g>
	<path d="M578,949.3c-0.1,0-0.1,0-0.2,0c-0.3-0.1-0.4-0.4-0.3-0.6l14.2-38.5c14-40-1.1-84.2-36.6-107.3l-95.3-62.1
		c-26-17-58.8-17.9-85.8-2.4l-9.8,5.7c-0.2,0.1-0.5,0.1-0.7-0.2c-0.1-0.2-0.1-0.5,0.2-0.7l9.8-5.7c27.3-15.7,60.5-14.8,86.8,2.4
		l95.3,62.1c35.9,23.4,51.1,68,37,108.5L578.5,949C578.4,949.2,578.2,949.3,578,949.3z"/>
</g>
<g>
	<path d="M116.6,1208.9c0,0-0.1,0-0.1,0c-0.3-0.1-0.4-0.3-0.4-0.6l59.7-289.2c10.8-49.3,42.1-91.9,85.7-117.1l21.1-12.2
		c0.2-0.1,0.5-0.1,0.7,0.2c0.1,0.2,0.1,0.5-0.2,0.7l-21.1,12.2c-43.4,25-74.5,67.5-85.3,116.5l-59.7,289.2
		C117,1208.7,116.8,1208.9,116.6,1208.9z"/>
</g>
<g>
	<path d="M103.3,1394.8c-6.1,0-11.7-2.2-16-6.3l-42.5-40.4c-8-7.7-9.7-20.3-4.2-31.2c0,0,0-0.1,0.1-0.1l17.2-21.7
		c7.8-9.9,13.3-21,16.5-32.8l11-40.9c0,0,0-0.1,0-0.1l2.2-4.9c4.7-9.6,15.8-14.2,24.7-10.1c20.1,9,51.4,9.7,68.4,9.4
		c9.6-0.2,18.1,5,22.1,13.7l7.4,16c5.2,15.8,1.3,34.1-9.9,47.8l-1.9,3.9c-16.6,34.7-41.9,64.8-73.3,87.1
		c-5.2,6.3-12.6,10.2-20.2,10.6C104.3,1394.7,103.8,1394.8,103.3,1394.8z M41.5,1317.4c-5.3,10.5-3.7,22.6,4,30l42.5,40.4
		c4.4,4.2,10.4,6.4,16.7,6c7.4-0.4,14.5-4.2,19.5-10.3c0,0,0.1-0.1,0.1-0.1c31.3-22.2,56.5-52.2,73-86.7l1.9-4c0,0,0-0.1,0.1-0.1
		c11.1-13.5,14.9-31.4,9.8-46.8l-7.4-15.9c-3.8-8.3-11.9-13.3-21.1-13.1c-17,0.4-48.6-0.4-68.8-9.4c-8.4-3.8-18.9,0.5-23.3,9.7
		l-2.2,4.8l-11,40.9c-3.2,12-8.8,23.2-16.7,33.2L41.5,1317.4z"/>
</g>
<g>
	<path d="M782.6,670.7c-8.6,0-17.2-2.5-24.6-7.4c-17.1-11.3-24.4-32.8-17.6-52.2l11.9-33.9c14.3-40.7,40.4-75.5,75.6-100.5
		l61.1-43.5c0.2-0.2,0.5-0.1,0.7,0.1c0.2,0.2,0.1,0.5-0.1,0.7l-61.1,43.5c-35,24.9-61,59.5-75.2,100.1l-11.9,33.9
		c-6.6,18.9,0.5,39.9,17.2,51c11,7.2,24.4,9.1,36.9,5.3c12.5-3.8,22.5-12.9,27.5-24.9l9.4-22.5c6.8-16.3,18.2-29.9,33-39.4
		l79.9-48.1c0.2-0.1,0.5-0.1,0.7,0.2c0.1,0.2,0.1,0.5-0.2,0.7L866,581.7c-14.6,9.4-25.9,22.9-32.6,39l-9.4,22.5
		c-5.1,12.3-15.4,21.6-28.2,25.5C791.5,670,787,670.7,782.6,670.7z"/>
</g>
<g>
	<path d="M228.6,155.1c-0.1,0-0.2,0-0.3-0.1c-0.2-0.1-0.3-0.4-0.2-0.7c3.6-6,5.5-13.1,5.5-20.3c0-10.6-4-20.5-11.3-27.8
		c-0.2-0.2-0.2-0.5,0-0.7c0.2-0.2,0.5-0.2,0.7,0c7.4,7.5,11.5,17.7,11.5,28.6c0,7.5-2,14.7-5.7,20.9
		C228.9,155,228.8,155.1,228.6,155.1z"/>
</g>
<g>
	<path d="M163.5,162.1c-0.1,0-0.3-0.1-0.4-0.2c-7-7.5-10.8-17.4-10.8-27.8c0-4.4,0.7-8.7,2-12.9c0.1-0.3,0.4-0.4,0.6-0.3
		c0.3,0.1,0.4,0.4,0.3,0.6c-1.3,4-2,8.3-2,12.5c0,10.2,3.8,19.8,10.6,27.2c0.2,0.2,0.2,0.5,0,0.7
		C163.7,162.1,163.6,162.1,163.5,162.1z"/>
</g>
<g>
	<path d="M193.9,304.4c-11.6,0-23.2-1-34.7-3.1l-5.6-1c-1.9-0.4-3.7-0.6-5.9-0.8c-8.6-0.9-16-6.9-18.8-15.1c-1-3-1.6-6.2-1.8-9.3
		l-0.7-12.8c-0.7-15.4,1.2-30.4,5.6-44.7l8.6-27.8c1.5-15.8,14.1-28.4,29.8-29.9l138.4-13.2c0.1,0,0.3,0,0.4,0.1
		c0.1,0.1,0.2,0.2,0.2,0.4l-1.2,40.1c0,0.2-0.2,0.4-0.4,0.5l-112.9,14.8c-0.3,0-0.5-0.2-0.6-0.4c0-0.3,0.2-0.5,0.4-0.6l112.5-14.7
		l1.2-39.1l-137.8,13.1c-15.3,1.5-27.5,13.7-28.9,29.1c0,0,0,0.1,0,0.1l-8.6,27.8c-4.4,14.1-6.3,29-5.6,44.3l0.7,12.8
		c0.2,3.1,0.8,6.1,1.8,9.1c2.7,7.9,9.8,13.6,18,14.5c2.2,0.2,4,0.4,5.9,0.8l5.6,1c20.8,3.8,42,4.1,63.1,1l17.7-2.6
		c4.1,0,7.9-1.6,10.8-4.5c2.9-2.9,4.4-6.8,4.3-10.9c-0.2-8.6-2.6-28.2-3.6-35.8c-0.4-3.4-0.9-6.3-1.6-9.2l-6.7-31
		c-0.1-0.3,0.1-0.5,0.4-0.6c0.3-0.1,0.5,0.1,0.6,0.4l6.7,31c0.7,2.9,1.2,5.9,1.6,9.2c1,7.6,3.4,27.3,3.6,36
		c0.1,4.4-1.5,8.5-4.6,11.6c-3,3.1-7.1,4.8-11.4,4.8l-17.6,2.6C213.1,303.7,203.5,304.4,193.9,304.4z"/>
</g>
<g>
	<path d="M244.4,439.1c-10,0-19-7.1-22.3-17.7L198.3,344c-0.9-2.9-3.2-4.7-5.9-4.6c-2.7,0.1-4.9,2-5.7,5l-18.4,74.5
		c-2.9,11.9-12.7,20.2-23.8,20.2c-6.6,0-12.8-2.8-17.4-8c-5.4-6-8-14.2-7.1-22.6l11.4-119.2c0-0.3,0.3-0.5,0.5-0.4
		c0.3,0,0.5,0.3,0.5,0.5l-11.4,119.2c-0.9,8.1,1.6,16.1,6.8,21.9c4.5,5,10.4,7.7,16.7,7.7c10.6,0,20-8,22.8-19.4l18.4-74.5
		c0.8-3.4,3.4-5.6,6.6-5.7c3.1-0.1,5.8,2,6.9,5.3l23.8,77.4c3.1,10.1,11.7,16.9,21.3,16.9c6,0,11.7-2.6,15.9-7.4
		c5-5.6,7.3-13.2,6.4-20.9l-13.2-119.1c0-0.3,0.2-0.5,0.4-0.6c0.3,0,0.5,0.2,0.6,0.4l13.2,119.1c0.9,8-1.5,15.9-6.6,21.7
		C256.6,436.3,250.7,439.1,244.4,439.1z"/>
</g>
<g>
	<path d="M281.9,288.5C281.9,288.5,281.9,288.5,281.9,288.5l-26.5-1.5c-0.3,0-0.5-0.3-0.5-0.5c0-0.3,0.3-0.5,0.5-0.5l25.8,1.5
		l-19.9-94.1c-0.1-0.3,0.1-0.5,0.4-0.6c0.3-0.1,0.5,0.1,0.6,0.4l20,94.7c0,0.2,0,0.3-0.1,0.4C282.2,288.4,282,288.5,281.9,288.5z"/>
</g>
<g>
	<path d="M474.9,702.4c-0.2,0-0.4-0.2-0.5-0.4c-0.1-0.5-9.6-48.6-6-113.3c2.1-38,8.2-74.2,18.2-107.7
		c12.5-41.8,31.1-79.3,55.2-111.6C605.4,284.7,707.4,235.8,845,224c0.3,0,0.5,0.2,0.5,0.5c0,0.3-0.2,0.5-0.5,0.5
		c-137.3,11.7-239,60.6-302.4,145.1c-24.1,32.1-42.6,69.6-55.1,111.2c-10,33.4-16.1,69.5-18.2,107.4c-3.6,64.6,5.9,112.6,6,113.1
		C475.4,702.1,475.3,702.3,474.9,702.4C475,702.4,474.9,702.4,474.9,702.4z"/>
</g>
<g>
	<path d="M540.4,605c-0.3,0-0.5-0.2-0.5-0.5c-4.9-70,7.4-132.2,36.4-184.8c39.9-72.5,111.1-125.3,211.7-156.9
		c0.3-0.1,0.5,0.1,0.6,0.3c0.1,0.3-0.1,0.5-0.3,0.6C688,295.3,616.9,347.9,577.2,420.2c-28.9,52.5-41.1,114.5-36.3,184.3
		C540.9,604.7,540.7,605,540.4,605C540.4,605,540.4,605,540.4,605z"/>
</g>
<g>
	<path d="M1084.2,769.2c-0.2,0-0.4-0.1-0.4-0.3l-23-47.2c-0.1-0.2,0-0.5,0.2-0.7c0.2-0.1,0.5,0,0.7,0.2l23,47.2
		c0.1,0.2,0,0.5-0.2,0.7C1084.3,769.2,1084.3,769.2,1084.2,769.2z"/>
</g>
<g>
	<path d="M1034.2,781.6c-0.2,0-0.3-0.1-0.4-0.2l-29.5-42.8c-0.2-0.2-0.1-0.5,0.1-0.7c0.2-0.2,0.5-0.1,0.7,0.1l29.5,42.8
		c0.2,0.2,0.1,0.5-0.1,0.7C1034.4,781.6,1034.3,781.6,1034.2,781.6z"/>
</g>
<g>
	<path d="M734,683.9C734,683.9,734,683.9,734,683.9c-0.3,0-0.5-0.3-0.5-0.6l6.7-43.6c0-0.3,0.3-0.5,0.6-0.4c0.3,0,0.5,0.3,0.4,0.6
		l-6.7,43.6C734.5,683.7,734.2,683.9,734,683.9z"/>
</g>
<g>
	<path d="M779.2,720.7c-0.1,0-0.1,0-0.2,0c-0.3-0.1-0.4-0.4-0.3-0.7l24-55c0.1-0.3,0.4-0.4,0.7-0.3c0.3,0.1,0.4,0.4,0.3,0.7l-24,55
		C779.6,720.6,779.4,720.7,779.2,720.7z"/>
</g>
<g>
	<path d="M975.6,453.9c-42.4,0-84.1-18.3-112.6-52.6l-11.1-13.9c-0.1-0.1-0.1-0.2-0.1-0.4c0-0.1,0.1-0.3,0.2-0.3l42-28.7
		c0.2-0.1,0.5-0.1,0.6,0.1l25.8,24.9c17.7,17.4,47.7,19.8,69.8,5.6l51.6-33.2c0.2-0.1,0.5-0.1,0.7,0.1c0.1,0.2,0.1,0.5-0.2,0.7
		l-51.6,33.2c-22.5,14.4-53,12-71-5.8l-25.5-24.6L853,387.1l10.8,13.5c44.3,53.3,120.6,67.8,181.5,34.5l33.6-18.4
		c27-14.7,41.1-46,34.2-76c-3.6-15.4-12.4-29.2-24.8-38.9l-22.8-17.8c-0.2-0.2-0.3-0.5-0.1-0.7c0.2-0.2,0.5-0.3,0.7-0.1l22.8,17.8
		c12.6,9.8,21.6,23.8,25.2,39.5c7,30.5-7.2,62.2-34.6,77.2l-33.6,18.4C1023.7,448,999.5,453.9,975.6,453.9z"/>
</g>
<g>
	<path d="M859.5,382.7c-0.1,0-0.3-0.1-0.4-0.2l-23.8-28.4c-0.1-0.2-0.2-0.3-0.3-0.4c-0.1-0.2-0.3-0.3-0.4-0.5
		c-6.5-8.7-6.1-20.8,0.8-29.4l1.6-2c3.5-4.3,8.3-7.4,13.6-8.6l5-1.2c2.1-0.5,3.8-0.7,5.5-0.8l1.8-0.1c0.3,0,0.5,0.2,0.5,0.5
		c0,0.3-0.2,0.5-0.5,0.5l-1.8,0.1c-1.6,0.1-3.3,0.3-5.3,0.8l-5,1.2c-5.1,1.2-9.7,4.1-13,8.2l-1.6,2c-6.7,8.3-7,19.9-0.8,28.2
		c0.1,0.2,0.2,0.3,0.3,0.4c0.1,0.2,0.3,0.3,0.4,0.5l10.1,12.1l13.7,16.3c0.2,0.2,0.1,0.5-0.1,0.7
		C859.7,382.7,859.6,382.7,859.5,382.7z"/>
</g>
<g>
	<path d="M892.4,360.3c-0.1,0-0.3-0.1-0.4-0.2l-5.9-6.9c-2.4-3-2.2-7.3,0.3-10.1l2.8-3c2.1-2.3,2.1-5.8-0.1-8.1
		c-0.8-0.8-1.6-1.3-2.5-1.6c-2-0.6-4.4,0.1-6,1.9l-0.8,0.9l-4.2,4.9c-3,3.5-8,4.8-12.4,3c-0.2-0.1-3.8-2-7-5.1
		c-4.3-4.2-5.6-8.4-3.9-12.3c0.1-0.3,0.4-0.4,0.7-0.3c0.3,0.1,0.4,0.4,0.3,0.7c-3.8,8.5,10.2,16.1,10.4,16.2
		c3.9,1.5,8.5,0.4,11.2-2.8l5-5.8c1.8-2,4.6-2.9,7-2.1c1,0.3,2,0.9,2.9,1.8c2.6,2.7,2.6,6.8,0.1,9.5l-2.8,3
		c-2.2,2.4-2.3,6.1-0.3,8.7l5.9,6.9c0.2,0.2,0.2,0.5-0.1,0.7C892.6,360.3,892.5,360.3,892.4,360.3z"/>
</g>
<g>
	<path d="M920.2,383.8c-0.1,0-0.2,0-0.2-0.1c-0.2-0.1-0.3-0.4-0.2-0.7l28.8-52.4c0.1-0.2,0.4-0.3,0.7-0.2c0.2,0.1,0.3,0.4,0.2,0.7
		l-28.8,52.4C920.5,383.7,920.4,383.8,920.2,383.8z"/>
</g>
<g>
	<path d="M919.2,293.1c-0.2,0-0.4-0.1-0.5-0.3c-0.1-0.3,0-0.5,0.3-0.7l32.3-13.8c0.3-0.1,0.5,0,0.7,0.3c0.1,0.3,0,0.5-0.3,0.7
		l-32.3,13.8C919.3,293.1,919.3,293.1,919.2,293.1z"/>
</g>
<g>
	<path d="M826.3,377.9c-1.7,0-3.4-0.7-4.5-2.1l-8.6-10.2c-1.9-2.3-1.9-5.5,0.1-7.8c0,0,0.1-0.1,0.1-0.1l5.5-2.9
		c0.2-0.1,0.5,0,0.7,0.2s0,0.5-0.2,0.7l-5.4,2.9c-1.6,1.8-1.6,4.5,0,6.4l8.6,10.2c1.7,2.1,4.7,2.4,6.8,0.7c1.8-1.4,2.4-4,1.4-6
		c-0.1-0.2,0-0.5,0.2-0.7c0.2-0.1,0.5,0,0.7,0.2c1.2,2.4,0.5,5.5-1.6,7.2C828.9,377.4,827.6,377.9,826.3,377.9z"/>
</g>
<g>
	<path d="M820.7,386.5c-1.7,0-3.4-0.7-4.5-2.1l-8.6-10.2c-1.9-2.3-1.9-5.5,0.1-7.8l4.3-4.3c0.2-0.2,0.5-0.2,0.7,0s0.2,0.5,0,0.7
		l-4.3,4.3c-1.6,1.8-1.7,4.5-0.1,6.4l8.6,10.2c1.7,2.1,4.7,2.4,6.8,0.7c2-1.6,2.4-4.7,0.9-6.7c-0.2-0.2-0.1-0.5,0.1-0.7
		c0.2-0.2,0.5-0.1,0.7,0.1c1.8,2.5,1.3,6.1-1.1,8.1C823.3,386,822,386.5,820.7,386.5z"/>
</g>
<g>
	<path d="M815.7,394.7c-1.7,0-3.4-0.7-4.5-2.1l-8.6-10.2c-1.9-2.3-1.9-5.5,0.1-7.8l3.5-3.6c0.2-0.2,0.5-0.2,0.7,0
		c0.2,0.2,0.2,0.5,0,0.7l-3.5,3.6c-1.7,1.8-1.7,4.5-0.1,6.4l8.6,10.2c1.7,2.1,4.7,2.4,6.8,0.7c2-1.5,2.5-4.2,1.2-6.3
		c-0.1-0.2-0.1-0.5,0.2-0.7c0.2-0.1,0.5-0.1,0.7,0.2c1.5,2.5,0.9,5.8-1.4,7.7C818.3,394.3,817,394.7,815.7,394.7z"/>
</g>
<g>
	<path d="M837.6,386.9c-1.4,0-2.9-0.6-4-1.5c-0.9-0.9-1.5-2.1-1.8-3.4c0-0.3,0.1-0.5,0.4-0.6c0.3,0,0.5,0.1,0.6,0.4
		c0.2,1.1,0.7,2.1,1.5,2.8c1,0.9,2.3,1.4,3.6,1.3c1.2-0.1,2.4-0.7,3.2-1.6l4.5-5.5c1.7-2,2.9-4.3,3.6-6.8l0.3-1.3
		c0.1-0.3,0.3-0.4,0.6-0.4c0.3,0.1,0.4,0.3,0.4,0.6l-0.3,1.3c-0.7,2.6-2,5.1-3.8,7.2l-4.5,5.5c-1,1.2-2.3,1.9-3.9,2
		C837.9,386.9,837.8,386.9,837.6,386.9z"/>
</g>
<g>
	<path d="M806.5,418.5c-1,0-2.1-0.4-3-1.1l-17.8-15.3c-0.9-0.8-1.5-1.8-1.6-3.1c-0.1-1.2,0.3-2.4,1-3.3l0.4-0.5
		c0.8-0.9,2-1.4,3.2-1.5c1.2-0.1,2.4,0.3,3.3,1.1c4.7,4.2,13.2,11.9,17.5,15.8c0.9,0.8,1.5,1.9,1.5,3.2c0.1,1.2-0.4,2.4-1.2,3.2
		C808.9,418,807.7,418.5,806.5,418.5z M789,394.7c-0.1,0-0.1,0-0.2,0c-0.9,0.1-1.8,0.5-2.5,1.2l-0.4,0.5c-0.6,0.7-0.9,1.7-0.8,2.6
		c0.1,1,0.5,1.8,1.2,2.4l17.8,15.3c1.5,1.2,3.6,1.1,4.9-0.3c0.6-0.7,1-1.6,0.9-2.5c0-1-0.5-1.8-1.2-2.5
		c-4.3-3.9-12.8-11.6-17.5-15.8c0,0,0,0,0,0C790.6,395,789.8,394.7,789,394.7z"/>
</g>
<g>
	<path d="M900,364.3c-0.2,0-0.4-0.1-0.5-0.3c-0.1-0.3,0-0.5,0.3-0.6l38.3-13.4c0.3-0.1,0.5,0,0.6,0.3c0.1,0.3,0,0.5-0.3,0.6
		l-38.3,13.4C900.1,364.3,900.1,364.3,900,364.3z"/>
</g>
<g>
	<path d="M1004.3,493.3c-32.4,0-65.2-4.7-78.6-14.7c-1.4-1-2.8-2.1-4.2-3.1c-21.7-16-40.4-29.8-29.6-48.5c0.1-0.2,0.4-0.3,0.7-0.2
		c0.2,0.1,0.3,0.4,0.2,0.7c-10.4,17.9,7.1,30.8,29.3,47.2c1.4,1,2.8,2,4.2,3.1c22.7,16.9,111.4,19.9,146,4.9
		c32.7-14.1,36.2-96.9,36.2-97.8c0-0.3,0.2-0.5,0.5-0.5c0.3,0,0.5,0.2,0.5,0.5c0,0.2-0.8,21.3-5.7,43.8
		c-6.6,30.4-17.1,48.8-31.1,54.9C1058.1,490,1031.4,493.3,1004.3,493.3z"/>
</g>
<g>
	<path d="M1023.9,743.4c-15.8,0-30.7-8.7-38.4-23.2l-28-52.5c-13.3-24.9-18.5-52.9-15-81l3.2-62.6c0-0.3,0.2-0.5,0.5-0.5
		c0.3,0,0.5,0.2,0.5,0.5l-3.2,62.6c-3.5,27.9,1.6,55.7,14.8,80.4l28,52.5c9.2,17.3,28.9,26.1,47.9,21.4c12.7-3.2,23-11.8,28.5-23.7
		c5.4-11.9,5.1-25.4-0.8-37.1c-17.1-33.6-19.4-73.2-6.4-108.6l22.6-61.4c4.5-12.2,4.3-19.8,3.3-24c-1-4.5-3.1-6.2-3.1-6.2
		c-0.2-0.2-0.3-0.5-0.1-0.7c0.2-0.2,0.5-0.3,0.7-0.1c0.4,0.3,9,7.3,0.2,31.4l-22.6,61.4c-12.9,35.2-10.6,74.5,6.4,107.8
		c6.1,11.9,6.4,25.7,0.8,37.9c-5.6,12.2-16.2,21-29.1,24.3C1031,743,1027.4,743.4,1023.9,743.4z"/>
</g>
<g>
	<path d="M1035,863.9c-2.8,0-5.3-0.6-7.3-1.5c-4.5-2.1-7-6.2-6.9-11.1l0.2-3.1c0-0.3,0.3-0.5,0.5-0.5c0.3,0,0.5,0.3,0.5,0.5
		l-0.2,3.1c-0.1,4.5,2.2,8.2,6.4,10.2c8.3,4,18.5-0.9,24.7-6.2c12-10.4,11-38.8,10-50.5c-0.3-3.1,1.1-6.2,3.7-8.1
		c13.2-9.8,18.9-31.1,18.1-34.7c-0.5-2.2-3.1-2.6-5.1-2.5c-0.3,0-0.5-0.2-0.5-0.5c0-0.3,0.2-0.5,0.5-0.5c3.4-0.1,5.6,1,6.1,3.3
		c0.8,3.7-5,25.7-18.5,35.7c-2.3,1.7-3.6,4.5-3.3,7.2c1,11.9,2,40.7-10.4,51.3C1046.8,861.8,1040.3,863.9,1035,863.9z"/>
</g>
<g>
	<path d="M1038.9,888.1c-7.4,0-14.3-1.6-19.1-4.5c-5.3-3.3-7.5-8-6-13.3c2.8-10.2,6.3-20,9.5-28.6c2.5-6.8,4.6-12.7,5.7-17.1
		c2.4-9.6-3-21.6-3.1-21.8c-0.2-0.3-5.9-9.2-2.6-15.9c2-3.9,6.6-6.2,13.9-6.7c24.2-1.7,27.8,13.3,27.8,13.5l1.4,3.7
		c0.1,0.3,0,0.5-0.3,0.6c-0.3,0.1-0.5,0-0.6-0.3l-1.4-3.8c0-0.1-0.9-3.7-4.6-7c-3.4-3.1-10.1-6.6-22.2-5.7
		c-6.9,0.5-11.3,2.6-13.1,6.2c-3.1,6.2,2.5,14.9,2.6,15c0.3,0.6,5.7,12.5,3.2,22.5c-1.1,4.4-3.3,10.4-5.8,17.2
		c-3.1,8.6-6.7,18.3-9.4,28.5c-1.7,6.2,2.1,10,5.6,12.2c11.4,7,34.8,6.1,48-5.7c19.4-17.5,39.5-74.9,39.5-85.4
		c0-10.8-22.8-29.1-23-29.3c-0.2-0.2-0.3-0.5-0.1-0.7c0.2-0.2,0.5-0.3,0.7-0.1c1,0.8,23.4,18.8,23.4,30.1
		c0,10.6-20.3,68.5-39.9,86.2C1061.1,884.9,1049.5,888.1,1038.9,888.1z"/>
</g>
<g>
	<path d="M1098.5,854.3c-1,0-1.9-0.3-2.8-0.9l-2.5-1.9c-0.2-0.2-0.3-0.5-0.1-0.7c0.2-0.2,0.5-0.3,0.7-0.1l2.5,1.9
		c0.9,0.7,2.1,0.9,3.2,0.5c1.1-0.3,2-1.1,2.4-2.1c0.5-1.3,0.2-2.9-0.9-4l-3.7-3.5c-0.2-0.2-0.2-0.5,0-0.7c0.2-0.2,0.5-0.2,0.7,0
		l3.7,3.5c1.3,1.3,1.8,3.4,1.1,5c-0.5,1.3-1.6,2.3-3,2.7C1099.4,854.2,1098.9,854.3,1098.5,854.3z"/>
</g>
<g>
	<path d="M1042.6,893.5c-4,0-7.8-0.5-11.2-1.3c-7-1.8-11.7-5.3-13.2-9.8c-0.1-0.3,0.1-0.5,0.3-0.6c0.3-0.1,0.5,0.1,0.6,0.3
		c1.4,4.1,5.9,7.4,12.6,9.1c11.9,3.1,29.7,1,40.7-9c19.4-17.3,39.4-74.4,39.5-85.3l-5.5-10.9c-0.1-0.2,0-0.5,0.2-0.7
		c0.2-0.1,0.5,0,0.7,0.2l5.6,11c0,0.1,0.1,0.1,0.1,0.2c0,10.7-20.3,68.6-39.9,86.2C1064.8,890.4,1053.1,893.5,1042.6,893.5z"/>
</g>
<g>
	<path d="M1029.1,811.7c-0.2,0-0.4-0.2-0.5-0.4c-0.1-0.3,0.1-0.5,0.4-0.6c1-0.2,23.5-4.7,34.8-1c0.3,0.1,0.4,0.4,0.3,0.6
		c-0.1,0.3-0.4,0.4-0.6,0.3c-11-3.6-34,1-34.2,1C1029.2,811.7,1029.1,811.7,1029.1,811.7z"/>
</g>
<g>
	<path d="M1063.8,818.2c-0.1,0-0.2,0-0.2-0.1c-9.7-4.9-33.2,0-33.5,0c-0.3,0.1-0.5-0.1-0.6-0.4c-0.1-0.3,0.1-0.5,0.4-0.6
		c1-0.2,24.1-5,34.1,0c0.2,0.1,0.3,0.4,0.2,0.7C1064.2,818.1,1064,818.2,1063.8,818.2z"/>
</g>
<g>
	<path d="M1063.3,829.6c0,0-0.1,0-0.1,0c-17.8-4.9-34.7-0.1-34.8,0c-0.3,0.1-0.5-0.1-0.6-0.3c-0.1-0.3,0.1-0.5,0.3-0.6
		c0.2-0.1,17.2-5,35.4,0c0.3,0.1,0.4,0.3,0.3,0.6C1063.7,829.5,1063.5,829.6,1063.3,829.6z"/>
</g>
<g>
	<path d="M1062.5,835.8c-0.1,0-0.2,0-0.2-0.1c-11.4-6.1-35.4-1.2-35.7-1.2c-0.3,0.1-0.5-0.1-0.6-0.4c-0.1-0.3,0.1-0.5,0.4-0.6
		c1-0.2,24.6-5.1,36.3,1.2c0.2,0.1,0.3,0.4,0.2,0.7C1062.8,835.7,1062.7,835.8,1062.5,835.8z"/>
</g>
<g>
	<path d="M1112.7,812.5c-1,0-1.9-0.3-2.8-0.9c-0.2-0.2-0.3-0.5-0.1-0.7c0.2-0.2,0.5-0.3,0.7-0.1c0.9,0.7,2.1,0.9,3.2,0.6
		c1.1-0.3,2-1.1,2.4-2.1c0.5-1.3,0.2-2.9-0.9-4l-3.7-3.5c-0.2-0.2-0.2-0.5,0-0.7c0.2-0.2,0.5-0.2,0.7,0l3.7,3.5
		c1.3,1.3,1.8,3.4,1.1,5c-0.5,1.3-1.6,2.3-3,2.7C1113.6,812.4,1113.1,812.5,1112.7,812.5z"/>
</g>
<g>
	<path d="M1106.6,831.9c-1,0-1.9-0.3-2.8-0.9l-1.3-1c-0.2-0.2-0.3-0.5-0.1-0.7c0.2-0.2,0.5-0.3,0.7-0.1l1.3,1
		c0.9,0.7,2.1,0.9,3.2,0.5c1.1-0.3,2-1.1,2.4-2.1c0.5-1.3,0.2-2.9-0.9-4l-3.2-3.1c-0.2-0.2-0.2-0.5,0-0.7c0.2-0.2,0.5-0.2,0.7,0
		l3.2,3.1c1.3,1.3,1.8,3.4,1.1,5c-0.5,1.3-1.6,2.3-3,2.7C1107.5,831.8,1107,831.9,1106.6,831.9z"/>
</g>
<g>
	<path d="M1088.2,873.1c-1,0-1.9-0.3-2.8-0.9l-2.5-1.9c-0.2-0.2-0.3-0.5-0.1-0.7c0.2-0.2,0.5-0.3,0.7-0.1l2.5,1.9
		c0.9,0.7,2.1,0.9,3.2,0.5c1.1-0.3,2-1.1,2.4-2.1c0.5-1.3,0.2-2.9-0.9-4l-3.4-3.2c-0.2-0.2-0.2-0.5,0-0.7c0.2-0.2,0.5-0.2,0.7,0
		l3.4,3.2c1.3,1.3,1.8,3.4,1.1,5c-0.5,1.3-1.6,2.3-3,2.7C1089.1,873,1088.6,873.1,1088.2,873.1z"/>
</g>
<g>
	<path d="M694,747.2c-1.6,0-3.2-0.2-4.7-0.5c-13.1-3.1-19-10.9-20.2-17.2c-0.9-4.9,0.9-9.3,4.9-12.1l2.5-1.6
		c0.2-0.1,0.5-0.1,0.7,0.2c0.1,0.2,0.1,0.5-0.2,0.7l-2.5,1.6c-3.7,2.5-5.3,6.6-4.5,11.1c1.1,5.9,6.8,13.4,19.4,16.4
		c15.5,3.6,37.9-13.7,46.9-21.4c2.4-2.1,5.7-2.8,8.8-1.8c15.8,5,36.4-2.9,38.8-5.6c1.2-1.3,0.9-3.2-0.9-5.6
		c-0.2-0.2-0.1-0.5,0.1-0.7c0.2-0.2,0.5-0.1,0.7,0.1c2.7,3.5,2,5.7,0.9,6.9c-3,3.4-24.4,10.8-39.8,5.8c-2.8-0.9-5.7-0.3-7.8,1.6
		C728.8,732.1,709.4,747.2,694,747.2z"/>
</g>
<g>
	<path d="M692.7,772.9c-4.5,0-8.5-0.3-11.9-1.1c-17.6-3.8-32.5-22.7-33.4-36.5c-0.4-6.3,2.1-10.8,7.3-12.7
		c9.7-3.6,19.5-6.4,28.2-8.8c7.2-2.1,13.5-3.8,17.8-5.6c9.2-3.7,15.8-15.2,15.9-15.3c0.1-0.4,4.1-10.2,11.4-11.4
		c4.3-0.7,8.9,1.8,13.5,7.4c8,9.7,9,17.5,8.5,22.2c-0.6,5.2-3.1,8.1-3.2,8.2l-2.3,3.3c-0.2,0.2-0.5,0.3-0.7,0.1
		c-0.2-0.2-0.3-0.5-0.1-0.7l2.3-3.3c0.4-0.5,9.5-11.2-5.3-29.2c-4.4-5.3-8.6-7.7-12.6-7.1c-6.8,1.1-10.7,10.8-10.7,10.8
		c-0.3,0.5-6.8,12-16.4,15.8c-4.4,1.7-10.6,3.5-17.9,5.6c-8.7,2.5-18.5,5.2-28.1,8.8c-6,2.2-6.9,7.6-6.6,11.7
		c1,13.4,15.4,31.8,32.7,35.6c25.7,5.5,83.9-11.7,92.4-17.8c8.8-6.4,10.4-35.5,10.4-35.8c0-0.3,0.2-0.5,0.5-0.5
		c0.3,0,0.5,0.2,0.5,0.5c-0.1,1.2-1.6,29.9-10.8,36.6C765.5,760.1,720.7,772.9,692.7,772.9z"/>
</g>
<g>
	<path d="M720.8,784.1c-1,0-2-0.3-2.8-1c-1.2-0.9-1.8-2.3-1.8-3.8l0.1-3.1c0-0.3,0.2-0.5,0.5-0.5c0,0,0,0,0,0c0.3,0,0.5,0.2,0.5,0.5
		l-0.1,3.1c0,1.2,0.5,2.2,1.5,3c0.9,0.7,2,0.9,3.1,0.6c1.4-0.4,2.6-1.6,2.7-3.1l0.7-5c0-0.3,0.3-0.5,0.6-0.4c0.3,0,0.5,0.3,0.4,0.6
		l-0.7,5c-0.2,1.8-1.6,3.5-3.5,3.9C721.5,784.1,721.1,784.1,720.8,784.1z"/>
</g>
<g>
	<path d="M691.2,779.4c-4.6,0-8.7-0.3-12.2-1.1c-15-3.3-27.4-16.8-31.9-28.5c-2.6-6.7-2.5-12.5,0.2-16.4c0.2-0.2,0.5-0.3,0.7-0.1
		c0.2,0.2,0.3,0.5,0.1,0.7c-2.5,3.6-2.6,9-0.1,15.4c4.4,11.4,16.5,24.7,31.2,27.9c25.5,5.6,83.4-11.5,92.3-17.7l5.5-10.9
		c0.1-0.2,0.4-0.3,0.7-0.2c0.2,0.1,0.3,0.4,0.2,0.7l-5.6,11c0,0.1-0.1,0.1-0.2,0.2C764.8,765.7,719.9,779.4,691.2,779.4z"/>
</g>
<g>
	<path d="M732.5,728.7c-0.2,0-0.4-0.1-0.5-0.3c-3.6-11.1-20.7-27.1-20.9-27.3c-0.2-0.2-0.2-0.5,0-0.7c0.2-0.2,0.5-0.2,0.7,0
		c0.7,0.7,17.4,16.3,21.1,27.7c0.1,0.3-0.1,0.5-0.3,0.6C732.6,728.7,732.6,728.7,732.5,728.7z"/>
</g>
<g>
	<path d="M726.5,733.1c-0.2,0-0.5-0.2-0.5-0.4c-1.7-10.7-19.4-26.9-19.5-27.1c-0.2-0.2-0.2-0.5,0-0.7c0.2-0.2,0.5-0.2,0.7,0
		c0.7,0.7,18.1,16.6,19.9,27.7C727,732.8,726.8,733.1,726.5,733.1C726.6,733.1,726.5,733.1,726.5,733.1z"/>
</g>
<g>
	<path d="M716.9,739.4c-0.2,0-0.4-0.1-0.5-0.3c-6.4-17.4-20.2-28.2-20.3-28.3c-0.2-0.2-0.3-0.5-0.1-0.7c0.2-0.2,0.5-0.3,0.7-0.1
		c0.1,0.1,14.2,11.1,20.7,28.7c0.1,0.3,0,0.5-0.3,0.6C717,739.4,717,739.4,716.9,739.4z"/>
</g>
<g>
	<path d="M711.5,742.3c-0.2,0-0.5-0.2-0.5-0.4c-1.7-12.8-19.7-29.4-19.8-29.6c-0.2-0.2-0.2-0.5,0-0.7c0.2-0.2,0.5-0.2,0.7,0
		c0.8,0.7,18.5,17.1,20.2,30.2C712,742,711.8,742.3,711.5,742.3C711.5,742.3,711.5,742.3,711.5,742.3z"/>
</g>
<g>
	<path d="M763,771.2c-1,0-2-0.3-2.8-1c-1.2-0.9-1.8-2.3-1.8-3.8c0-0.3,0.2-0.5,0.5-0.5s0.5,0.2,0.5,0.5c0,1.2,0.5,2.3,1.5,3
		c0.9,0.7,2,0.9,3.1,0.6c1.4-0.4,2.6-1.6,2.7-3.1l0.7-5c0-0.3,0.3-0.5,0.6-0.4c0.3,0,0.5,0.3,0.4,0.6l-0.7,5
		c-0.2,1.8-1.6,3.5-3.5,3.9C763.7,771.2,763.3,771.2,763,771.2z"/>
</g>
<g>
	<path d="M743.8,777.7c-1,0-2-0.3-2.8-1c-1.2-0.9-1.8-2.3-1.8-3.8v-1.6c0-0.3,0.2-0.5,0.5-0.5s0.5,0.2,0.5,0.5v1.6
		c0,1.2,0.5,2.3,1.5,3c0.9,0.7,2,0.9,3.1,0.6c1.4-0.4,2.6-1.6,2.7-3.1l0.6-4.4c0-0.3,0.3-0.5,0.6-0.4c0.3,0,0.5,0.3,0.4,0.6
		l-0.6,4.4c-0.2,1.8-1.6,3.5-3.5,3.9C744.5,777.7,744.1,777.7,743.8,777.7z"/>
</g>
<g>
	<path d="M699.5,786.8c-1,0-2-0.3-2.8-1c-1.2-0.9-1.8-2.3-1.8-3.8l0.1-3.1c0-0.3,0.2-0.5,0.5-0.5c0.3,0,0.5,0.2,0.5,0.5l-0.1,3.1
		c0,1.2,0.5,2.2,1.5,3c0.9,0.7,2,0.9,3.1,0.6c1.4-0.4,2.6-1.6,2.7-3.1l0.7-4.7c0-0.3,0.3-0.5,0.6-0.4c0.3,0,0.5,0.3,0.4,0.6
		l-0.7,4.7c-0.2,1.8-1.6,3.5-3.5,3.9C700.2,786.8,699.8,786.8,699.5,786.8z"/>
</g>
<g>
	<path d="M183.3,1215.9c-0.1,0-0.1,0-0.2,0c-0.3-0.1-0.4-0.4-0.2-0.7c0.5-1.2,54.3-118,59.2-129.4c4.9-11.3,37.1-143.7,37.5-145
		c0.1-0.3,0.3-0.4,0.6-0.4c0.3,0.1,0.4,0.3,0.4,0.6c-1.3,5.5-32.6,133.8-37.5,145.2c-4.9,11.4-58.7,128.2-59.2,129.4
		C183.7,1215.8,183.5,1215.9,183.3,1215.9z"/>
</g>
<g>
	<path d="M79.7,1380.8c-0.2,0-0.4-0.2-0.5-0.4c-0.1-0.3,0.1-0.5,0.4-0.6c29.2-6.6,77.1-69.9,77.6-70.5c0.2-0.2,0.5-0.3,0.7-0.1
		c0.2,0.2,0.3,0.5,0.1,0.7c-0.1,0.2-12.2,16.2-27.8,32.9c-21,22.4-37.9,35.2-50.3,38C79.8,1380.8,79.7,1380.8,79.7,1380.8z"/>
</g>
<g>
	<path d="M60.6,1362.8c-0.2,0-0.4-0.1-0.5-0.4c-0.1-0.3,0.1-0.5,0.3-0.6c29.3-9,52.4-49.2,52.6-49.6c0.1-0.2,0.4-0.3,0.7-0.2
		c0.2,0.1,0.3,0.4,0.2,0.7c-0.2,0.4-23.5,40.9-53.2,50C60.7,1362.8,60.6,1362.8,60.6,1362.8z"/>
</g>
<g>
	<path d="M45.3,1348.2c-0.2,0-0.3-0.1-0.4-0.2c-0.1-0.2-0.1-0.5,0.2-0.7c24.9-15.8,54.1-64.1,54.4-64.6c0.1-0.2,0.4-0.3,0.7-0.2
		c0.2,0.1,0.3,0.4,0.2,0.7c-0.3,0.5-29.7,49.1-54.8,65C45.5,1348.2,45.4,1348.2,45.3,1348.2z"/>
</g>
<g>
	<path d="M378.5,1590.9c-0.2,0-0.5-0.2-0.5-0.4l-17.1-107c0-0.3,0.1-0.5,0.4-0.6c0.3,0,0.5,0.1,0.6,0.4l17.1,107
		C379,1590.6,378.9,1590.9,378.5,1590.9C378.6,1590.9,378.5,1590.9,378.5,1590.9z"/>
</g>
<g>
	<path d="M452.8,1590C452.8,1590,452.8,1590,452.8,1590c-0.3,0-0.5-0.2-0.5-0.5l2.6-120.5c0-0.3,0.3-0.5,0.5-0.5
		c0.3,0,0.5,0.2,0.5,0.5l-2.6,120.5C453.3,1589.8,453.1,1590,452.8,1590z"/>
</g>
<g>
	<path d="M402.8,1664.9c-13.8,0-26.9-6.4-35.4-17.4l-41-53.6l-9.3-13.3c-0.2-0.2-0.1-0.5,0.1-0.7c0.2-0.2,0.5-0.1,0.7,0.1l9.3,13.3
		l41,53.6c8.5,11,21.9,17.4,35.8,17l39.1-1.1c6.7-0.2,12.1-5.6,12.4-12.2l2.8-59.4c0-0.8-0.3-1.5-1-1.9c-0.7-0.4-1.5-0.5-2.2-0.1
		c-3.8,2-8.6,1.3-11.8-1.7l-2.3-2.2c-4.4-4.2-10.6-6.5-16.9-6.2l-18.4,1c-4.6,0.3-8.9,1.9-12.5,4.6l-4.7,3.5
		c-5.5,4.2-13.2,3.7-18.1-1c-0.2-0.2-0.2-0.5,0-0.7c0.2-0.2,0.5-0.2,0.7,0c4.6,4.4,11.7,4.8,16.9,1l4.7-3.5
		c3.7-2.8,8.3-4.5,13.1-4.8l18.4-1c6.6-0.3,13.1,2,17.7,6.4l2.3,2.2c2.9,2.7,7.2,3.3,10.6,1.5c1-0.5,2.2-0.5,3.2,0.2
		c0.9,0.6,1.5,1.7,1.4,2.8l-2.8,59.4c-0.3,7.2-6.2,13-13.4,13.2l-39.1,1.1C403.6,1664.9,403.2,1664.9,402.8,1664.9z"/>
</g>
<g>
	<path d="M432,1680.8h-32.1c-15.1,0-29-7.5-37.2-20.1l-40.1-61.3c-3.7-5.8-5.7-12.4-5.7-19.2c0-18,14.1-33.1,32.1-34.3l22.3-1.3
		c0.3,0,0.5,0.2,0.5,0.5c0,0.3-0.2,0.5-0.5,0.5l-22.3,1.3c-17.5,1.2-31.1,15.8-31.1,33.3c0,6.6,1.9,13,5.5,18.6l40.1,61.3
		c8,12.3,21.6,19.7,36.4,19.7H432c6.6,0,12.9-2.9,17.3-7.8c4.4-5,6.4-11.6,5.6-18.2c0-0.3,0.2-0.5,0.4-0.6c0.3,0,0.5,0.2,0.6,0.4
		c0.9,6.9-1.2,13.8-5.8,19C445.5,1677.8,438.9,1680.8,432,1680.8z"/>
</g>
<g>
	<path d="M1034.5,1223c-0.1,0-0.2,0-0.2-0.1l-124-68c-0.2-0.1-0.3-0.4-0.2-0.7c0.1-0.2,0.4-0.3,0.7-0.2l124,68
		c0.2,0.1,0.3,0.4,0.2,0.7C1034.8,1222.9,1034.7,1223,1034.5,1223z"/>
</g>
<g>
	<path d="M1013.7,1286.4c0,0-0.1,0-0.1,0l-141.9-34.2c-0.3-0.1-0.4-0.3-0.4-0.6s0.3-0.4,0.6-0.4l141.9,34.2c0.3,0.1,0.4,0.3,0.4,0.6
		C1014.1,1286.2,1013.9,1286.4,1013.7,1286.4z"/>
</g>
<g>
	<path d="M1050.4,1315.4c-0.1,0-0.2,0-0.3-0.1l-26-16.7c-11.1-7.2-16.1-20.5-12.5-33.1l7-24.8c3.5-12.1,14.2-20.8,26.6-21.6
		l28.8-1.9c0.3,0,0.5,0.2,0.5,0.5c0,0.3-0.2,0.5-0.5,0.5l-28.8,1.9c-12.1,0.8-22.4,9.2-25.8,20.8l-7,24.8
		c-3.5,12.2,1.4,25,12.1,31.9l26,16.7c0.2,0.1,0.3,0.5,0.2,0.7C1050.7,1315.3,1050.6,1315.4,1050.4,1315.4z"/>
</g>
<g>
	<path d="M1072.8,1250.8c-4.7,0-8.6-3.9-8.6-8.6s3.9-8.6,8.6-8.6s8.6,3.9,8.6,8.6S1077.5,1250.8,1072.8,1250.8z M1072.8,1234.6
		c-4.2,0-7.6,3.4-7.6,7.6c0,4.2,3.4,7.6,7.6,7.6c4.2,0,7.6-3.4,7.6-7.6C1080.4,1238,1077,1234.6,1072.8,1234.6z"/>
</g>
<g>
	<path d="M1062.1,1302.6c-4.7,0-8.6-3.9-8.6-8.6s3.9-8.6,8.6-8.6s8.6,3.9,8.6,8.6S1066.8,1302.6,1062.1,1302.6z M1062.1,1286.4
		c-4.2,0-7.6,3.4-7.6,7.6s3.4,7.6,7.6,7.6c4.2,0,7.6-3.4,7.6-7.6S1066.3,1286.4,1062.1,1286.4z"/>
</g>
<g>
	<path d="M1112.9,1259c-4.7,0-8.6-3.9-8.6-8.6s3.9-8.6,8.6-8.6s8.6,3.9,8.6,8.6S1117.6,1259,1112.9,1259z M1112.9,1242.8
		c-4.2,0-7.6,3.4-7.6,7.6c0,4.2,3.4,7.6,7.6,7.6c4.2,0,7.6-3.4,7.6-7.6C1120.5,1246.2,1117.1,1242.8,1112.9,1242.8z"/>
</g>
<g>
	<path d="M1102.5,1309.2c-4.7,0-8.6-3.9-8.6-8.6s3.9-8.6,8.6-8.6s8.6,3.9,8.6,8.6S1107.2,1309.2,1102.5,1309.2z M1102.5,1293
		c-4.2,0-7.6,3.4-7.6,7.6c0,4.2,3.4,7.6,7.6,7.6s7.6-3.4,7.6-7.6C1110.1,1296.4,1106.7,1293,1102.5,1293z"/>
</g>
<g>
	<path d="M1149.6,1266.9c-4.7,0-8.6-3.9-8.6-8.6s3.9-8.6,8.6-8.6s8.6,3.9,8.6,8.6S1154.3,1266.9,1149.6,1266.9z M1149.6,1250.7
		c-4.2,0-7.6,3.4-7.6,7.6c0,4.2,3.4,7.6,7.6,7.6c4.2,0,7.6-3.4,7.6-7.6C1157.2,1254.1,1153.8,1250.7,1149.6,1250.7z"/>
</g>
<g>
	<path d="M1139.2,1319.3c-4.7,0-8.6-3.9-8.6-8.6s3.9-8.6,8.6-8.6s8.6,3.9,8.6,8.6S1143.9,1319.3,1139.2,1319.3z M1139.2,1303.1
		c-4.2,0-7.6,3.4-7.6,7.6c0,4.2,3.4,7.6,7.6,7.6c4.2,0,7.6-3.4,7.6-7.6C1146.8,1306.5,1143.4,1303.1,1139.2,1303.1z"/>
</g>
<g>
	<path d="M1186.8,1277.4c-4.7,0-8.6-3.9-8.6-8.6s3.9-8.6,8.6-8.6s8.6,3.9,8.6,8.6S1191.5,1277.4,1186.8,1277.4z M1186.8,1261.2
		c-4.2,0-7.6,3.4-7.6,7.6c0,4.2,3.4,7.6,7.6,7.6c4.2,0,7.6-3.4,7.6-7.6C1194.4,1264.6,1191,1261.2,1186.8,1261.2z"/>
</g>
<g>
	<path d="M1176.1,1327.5c-4.7,0-8.6-3.9-8.6-8.6s3.9-8.6,8.6-8.6s8.6,3.9,8.6,8.6S1180.8,1327.5,1176.1,1327.5z M1176.1,1311.3
		c-4.2,0-7.6,3.4-7.6,7.6c0,4.2,3.4,7.6,7.6,7.6c4.2,0,7.6-3.4,7.6-7.6C1183.7,1314.7,1180.3,1311.3,1176.1,1311.3z"/>
</g>
<g>
	<path d="M1030.7,1302.6c-0.2,0-0.4-0.1-0.5-0.3c-0.1-0.1-5.7-13.5-5.7-30.4c0.1-15.6,5.2-37.6,29.3-53.3c0.2-0.1,0.5-0.1,0.7,0.1
		c0.2,0.2,0.1,0.5-0.1,0.7c-23.7,15.5-28.7,37-28.8,52.4c-0.1,16.7,5.5,29.9,5.6,30.1c0.1,0.3,0,0.5-0.3,0.7
		C1030.8,1302.6,1030.8,1302.6,1030.7,1302.6z"/>
</g>
<g>
	<path d="M127.9,472.7c-0.3,0-0.5-0.2-0.5-0.5l-3.6-45.9c0-0.3,0.2-0.5,0.5-0.5c0.3,0,0.5,0.2,0.5,0.5l3.6,45.9
		C128.4,472.4,128.2,472.7,127.9,472.7C127.9,472.7,127.9,472.7,127.9,472.7z"/>
</g>
<g>
	<path d="M158,474C158,474,158,474,158,474c-0.3,0-0.5-0.3-0.5-0.5c1.4-14.5,4.1-42.3,4.1-43.5c0-0.3,0.2-0.5,0.5-0.5
		s0.5,0.2,0.5,0.5c0,1.5-3.9,41.8-4.1,43.5C158.5,473.8,158.3,474,158,474z"/>
</g>
<g>
	<path d="M239.3,474.1c-0.2,0-0.4-0.2-0.5-0.4l-10.2-41.6c-0.1-0.3,0.1-0.5,0.4-0.6c0.3-0.1,0.5,0.1,0.6,0.4l10.2,41.6
		c0.1,0.3-0.1,0.5-0.4,0.6C239.4,474.1,239.3,474.1,239.3,474.1z"/>
</g>
<g>
	<path d="M268.4,472.7c-0.3,0-0.5-0.2-0.5-0.5l-3.2-48.5c0-0.3,0.2-0.5,0.5-0.5c0.3,0,0.5,0.2,0.5,0.5l3.2,48.5
		C268.9,472.4,268.7,472.7,268.4,472.7C268.4,472.7,268.4,472.7,268.4,472.7z"/>
</g>
<g>
	<path d="M959.2,1728.6c-0.1,0-0.1,0-0.2,0c-0.3-0.1-0.4-0.4-0.3-0.6c4.2-12.3,6.3-25.1,6.3-37.9c0-63.7-52.1-124.1-146.8-170.3
		c-94.5-46-221.6-73-357.9-76.1c-0.3,0-0.5-0.2-0.5-0.5c0-0.3,0.2-0.5,0.5-0.5c136.4,3.1,263.7,30.2,358.3,76.3
		c95,46.3,147.4,107.1,147.4,171.1c0,13-2.1,25.9-6.3,38.3C959.6,1728.5,959.4,1728.6,959.2,1728.6z"/>
</g>
<g>
	<path d="M0,1547.6c-0.2,0-0.3-0.1-0.4-0.2c-0.2-0.2-0.1-0.5,0.1-0.7c40.3-26.4,90.4-48.5,149.1-65.9c59.9-17.7,125.6-29.5,195.4-35
		c0.3,0,0.5,0.2,0.5,0.5c0,0.3-0.2,0.5-0.5,0.5c-69.7,5.5-135.4,17.3-195.2,35c-58.5,17.3-108.6,39.4-148.8,65.8
		C0.2,1547.6,0.1,1547.6,0,1547.6z"/>
</g>
<g>
	<path d="M872.3,948.1c-105.6,0-206.2-19-276.1-52c-0.2-0.1-0.4-0.4-0.2-0.7c0.1-0.2,0.4-0.4,0.7-0.2c69.8,33,170.2,52,275.7,52
		c124.8,0,239.9-26.1,308.1-69.7c0.2-0.1,0.5-0.1,0.7,0.2c0.1,0.2,0.1,0.5-0.2,0.7C1112.6,922,997.2,948.1,872.3,948.1z"/>
</g>
<g>
	<path d="M1200.4,864.1c-0.1,0-0.3-0.1-0.4-0.2c-0.2-0.2-0.1-0.5,0.1-0.7c26.3-21.5,39.6-44.8,39.6-69.1c0-27.4-17.7-54.3-51-77.8
		c-32.5-22.9-79-41.9-134.3-55.1c-0.3-0.1-0.4-0.3-0.4-0.6c0.1-0.3,0.3-0.4,0.6-0.4c55.4,13.2,102,32.3,134.6,55.3
		c33.7,23.7,51.5,50.9,51.5,78.6c0,24.6-13.5,48.1-40,69.9C1200.6,864.1,1200.5,864.1,1200.4,864.1z"/>
</g>
<g>
	<path d="M947.8,644.3C947.8,644.3,947.8,644.3,947.8,644.3c-24.7-2.1-50.1-3.2-75.5-3.2c-17,0-33.2,0.4-48.4,1.3
		c-0.3,0-0.5-0.2-0.5-0.5s0.2-0.5,0.5-0.5c15.2-0.9,31.4-1.3,48.4-1.3c25.4,0,50.9,1.1,75.5,3.2c0.3,0,0.5,0.3,0.5,0.5
		C948.3,644.1,948.1,644.3,947.8,644.3z"/>
</g>
<g>
	<path d="M579.5,701.6c-0.2,0-0.3-0.1-0.4-0.3c-0.1-0.2,0-0.5,0.2-0.7c41.2-22.6,96.4-39.9,159.5-50.2c0.3,0,0.5,0.1,0.6,0.4
		c0,0.3-0.1,0.5-0.4,0.6c-63,10.2-118,27.5-159.1,50C579.7,701.6,579.6,701.6,579.5,701.6z"/>
</g>
<g>
	<path d="M508.4,771.8c-0.1,0-0.1,0-0.2,0c-0.3-0.1-0.4-0.4-0.3-0.6c7.2-20.2,23.8-39.4,49.3-56.9c0.2-0.2,0.5-0.1,0.7,0.1
		c0.2,0.2,0.1,0.5-0.1,0.7c-25.3,17.4-41.8,36.4-48.9,56.5C508.8,771.7,508.6,771.8,508.4,771.8z"/>
</g>
<g>
	<path d="M303.6,500.3h-60.4c-4.7,0-8.6-3.4-8.6-7.6v-13.5c0-3.4,2.9-6.2,6.8-6.5l25.8-0.8c1.7-0.1,3.2-0.8,4.1-2l0.8-1
		c0.7-0.8,1.8-1.3,2.9-1.2c1.1,0.1,2.1,0.7,2.6,1.6l0.4,1.1c6.6,7.3,16.5,12.1,27.1,13.1c4.5,0.4,8,3.8,8,7.9v0.5
		C313.1,496.5,308.8,500.3,303.6,500.3z M274.7,468.7c-0.7,0-1.4,0.3-1.8,0.8l-0.8,1c-1.1,1.4-2.9,2.3-4.9,2.4l-25.8,0.8
		c-3.3,0.3-5.8,2.6-5.8,5.5v13.5c0,3.6,3.4,6.6,7.6,6.6h60.4c4.7,0,8.5-3.4,8.5-7.5v-0.5c0-3.6-3-6.5-7-6.9
		c-10.9-1-21.1-5.9-27.8-13.5c0,0-0.1-0.1-0.1-0.2l-0.4-1.1c-0.3-0.5-1-0.9-1.8-1C274.9,468.7,274.8,468.7,274.7,468.7z"/>
</g>
<g>
	<path d="M374.8,1590c-0.1,0-0.3-0.1-0.4-0.2c-7.3-8.8-10.1-15.9-8.2-21.2c1.8-5.2,7.5-6.5,7.7-6.6c0.3-0.1,0.5,0.1,0.6,0.4
		c0.1,0.3-0.1,0.5-0.4,0.6c-0.1,0-5.4,1.2-7,6c-1.7,4.9,1,11.7,8.1,20.2c0.2,0.2,0.1,0.5-0.1,0.7C375,1590,374.9,1590,374.8,1590z"
		/>
</g>
<g>
	<path d="M303.6,507.2h-59.2c-4.4,0-8-3.6-8-8v-2.1c0-0.3,0.2-0.5,0.5-0.5s0.5,0.2,0.5,0.5v2.1c0,3.9,3.1,7,7,7h59.2
		c3.9,0,7-3.1,7-7V496c0-0.3,0.2-0.5,0.5-0.5s0.5,0.2,0.5,0.5v3.2C311.6,503.6,308,507.2,303.6,507.2z"/>
</g>
<g>
	<path d="M153.1,500.3H92.7c-5.3,0-9.6-3.8-9.6-8.5v-0.5c0-4.1,3.4-7.5,8-7.9c10.7-1,20.5-5.7,27.1-13.1l0.4-1
		c0.5-1,1.5-1.5,2.6-1.6c1.2-0.1,2.3,0.4,2.9,1.2l0.8,1c1,1.2,2.5,1.9,4.2,2l25.8,0.8c3.9,0.3,6.8,3.1,6.8,6.5v13.5
		C161.7,496.9,157.8,500.3,153.1,500.3z M121.5,468.7c-0.1,0-0.1,0-0.2,0c-0.8,0.1-1.5,0.5-1.8,1.1l-0.4,1c0,0.1-0.1,0.1-0.1,0.2
		c-6.7,7.6-16.9,12.5-27.8,13.5c-4,0.4-7,3.3-7,6.9v0.5c0,4.1,3.9,7.5,8.6,7.5h60.4c4.2,0,7.6-3,7.6-6.6v-13.5
		c0-2.9-2.5-5.2-5.8-5.5l-25.8-0.8c-2-0.1-3.8-1-5-2.4l-0.8-1C122.9,469,122.2,468.7,121.5,468.7z M118.6,470.6L118.6,470.6
		L118.6,470.6z"/>
</g>
<g>
	<path d="M151.8,507.2H92.6c-4.4,0-8-3.6-8-8V496c0-0.3,0.2-0.5,0.5-0.5s0.5,0.2,0.5,0.5v3.2c0,3.9,3.1,7,7,7h59.2c3.9,0,7-3.1,7-7
		v-2.1c0-0.3,0.2-0.5,0.5-0.5s0.5,0.2,0.5,0.5v2.1C159.8,503.6,156.2,507.2,151.8,507.2z"/>
</g>
<g>
	<path d="M257.6,323.2c-0.1,0-0.2,0-0.3-0.1c-0.2-0.2-0.2-0.5-0.1-0.7l1.8-2.1c8-9.2,13.5-20.5,16-32.7c0.1-0.3,0.3-0.4,0.6-0.4
		c0.3,0.1,0.4,0.3,0.4,0.6c-2.5,12.3-8.2,23.8-16.2,33.1L258,323C257.9,323.1,257.7,323.2,257.6,323.2z"/>
</g>
<g>
	<path d="M154.3,121.9c-0.1,0-0.2,0-0.2-0.1c-0.2-0.1-0.3-0.3-0.3-0.4v-7.7c0.6-13,9-24.5,21.5-29.5l8.6-3.3c2-1.1,4.2-1.8,6.5-2.1
		c7.4-1.1,13.9-1.3,19.2-0.6c6.9,0.8,12.4,6.3,13.3,13.2l0.6,4.1c0,0.3-0.1,0.5-0.4,0.6c-0.3,0-0.5-0.1-0.6-0.4l-0.6-4.1
		c-0.9-6.5-6-11.6-12.5-12.4c-5.2-0.7-11.6-0.5-19,0.6c-2.1,0.3-4.1,0.9-5.9,1.9c0,0-0.1,0.1-0.2,0.1l-0.1,0c-6,3.2-9.9,9.7-9.7,17
		l0.4,10.1c0,0.2-0.1,0.4-0.2,0.4l-20.3,12.5C154.5,121.9,154.4,121.9,154.3,121.9z M180.4,83.3l-4.7,1.8
		c-12.1,4.8-20.3,16-20.9,28.6l0,6.8l19.3-11.9l-0.4-9.8C173.5,92.7,176.1,87.1,180.4,83.3z"/>
</g>
<g>
	<path d="M174.7,109.4c-0.2,0-0.4-0.1-0.5-0.3c-0.1-0.2,0-0.5,0.3-0.6l6.7-3c3.8-1.7,7.7-2.9,11.7-3.6c8.5-3.4,31.1-10.8,56.2-3.1
		c0.2,0.1,0.4,0.3,0.4,0.5c0,0.2-0.1,0.4-0.4,0.5l-24.3,7.4c-0.1,0-0.2,0-0.4,0c-9.8-4.7-20.8-6.1-31.3-4.2
		c-2.1,0.9-3.3,1.5-3.4,1.5l-14.9,5C174.8,109.4,174.8,109.4,174.7,109.4z M202.2,101c7.7,0,15.3,1.7,22.4,5.1l22.5-6.9
		c-20.8-5.8-39.7-1.4-49.8,2C199,101.1,200.6,101,202.2,101z"/>
</g>
<g>
	<path d="M339.3,161c-0.3,0-0.5-0.2-0.5-0.5c0-0.3,0.2-0.5,0.5-0.5l16-1.2c1.1-0.1,2.2-0.6,2.9-1.5c0.6-0.9,0.9-1.9,0.7-3
		c-0.4-1.9-1.9-3.2-3.7-3.2l-46.2-1.7c-0.3,0-0.5-0.2-0.5-0.5c0-0.3,0.2-0.5,0.5-0.5l46.2,1.7h0c2.3,0,4.2,1.6,4.7,4
		c0.3,1.4-0.1,2.7-0.9,3.8c-0.8,1.1-2.1,1.8-3.6,1.9L339.3,161C339.3,161,339.3,161,339.3,161z"/>
</g>
<g>
	<path d="M308,178.8c-0.2,0-0.4-0.2-0.5-0.4c-0.1-0.3,0.1-0.5,0.4-0.6l9.9-2.1c0.3-0.1,0.5,0.1,0.6,0.4s-0.1,0.5-0.4,0.6l-9.9,2.1
		C308.1,178.8,308,178.8,308,178.8z"/>
</g>
<g>
	<path d="M324,183c-0.2,0-0.3-0.1-0.4-0.2c-0.2-0.2-0.1-0.5,0.1-0.7l11.1-8.9c0.9-1.1,1.3-2.6,1-4c-0.2-1.4-1-2.7-2.3-3.4l-4.3-2.8
		c-0.2-0.2-0.3-0.5-0.1-0.7c0.2-0.2,0.5-0.3,0.7-0.1l4.3,2.8c1.4,0.9,2.4,2.4,2.7,4.1c0.3,1.7-0.2,3.5-1.3,4.8c0,0,0,0.1-0.1,0.1
		l-4.3,3.4l10.4-6.5c1.3-0.9,2-2.5,2-4.1c0-1.7-0.9-3.3-2.3-4.3c-2.1-1.5-4.4-3-6.1-4.2c-1.4-1-2.3-1.6-2.5-1.7
		c-0.2-0.2-0.3-0.5-0.1-0.7c0.2-0.2,0.5-0.3,0.7-0.1c0.2,0.1,1.2,0.8,2.5,1.7c1.7,1.1,3.9,2.7,6.1,4.2c1.7,1.1,2.7,3,2.7,5.1
		c0,2-0.8,3.8-2.4,4.9l-17.8,11.2C324.2,183,324.1,183,324,183z"/>
</g>
<g>
	<path d="M320.1,184.8c-0.9,0-1.9-0.2-2.7-0.7c-2.5-1.4-3.5-4.6-2.2-7.3l0.2-0.4c0.1-0.2,0.4-0.3,0.7-0.2c0.2,0.1,0.3,0.4,0.2,0.7
		l-0.2,0.4c-1.1,2.2-0.3,4.8,1.8,5.9c1.9,1.1,4.4,0.6,5.8-1.1l3.7-4.6c0.9-1.1,1.3-2.7,1.1-4.1c-0.2-1.5-1.1-2.7-2.3-3.5l-3.1-2
		c-0.2-0.1-0.3-0.5-0.1-0.7c0.1-0.2,0.5-0.3,0.7-0.1l3.1,2c1.5,0.9,2.5,2.4,2.8,4.2c0.3,1.8-0.2,3.6-1.3,4.9l-3.7,4.6
		C323.4,184.1,321.7,184.8,320.1,184.8z"/>
</g>
<g>
	<path d="M790.6,74.5c-8,0-14.6-6.5-14.6-14.6s6.5-14.6,14.6-14.6c8.1,0,14.6,6.5,14.6,14.6S798.7,74.5,790.6,74.5z M790.6,46.3
		c-7.5,0-13.6,6.1-13.6,13.6s6.1,13.6,13.6,13.6s13.6-6.1,13.6-13.6S798.1,46.3,790.6,46.3z"/>
</g>
<g>
	<g>
		<circle cx="201.5" cy="124.7" r="1.8"/>
		<path d="M201.5,127c-1.3,0-2.3-1-2.3-2.3c0-1.3,1-2.3,2.3-2.3s2.3,1,2.3,2.3C203.8,126,202.8,127,201.5,127z M201.5,123.4
			c-0.7,0-1.3,0.6-1.3,1.3s0.6,1.3,1.3,1.3s1.3-0.6,1.3-1.3S202.2,123.4,201.5,123.4z"/>
	</g>
	<g>
		<circle cx="224.4" cy="124.7" r="1.8"/>
		<path d="M224.4,127c-1.3,0-2.3-1-2.3-2.3c0-1.3,1-2.3,2.3-2.3c1.3,0,2.3,1,2.3,2.3C226.7,126,225.7,127,224.4,127z M224.4,123.4
			c-0.7,0-1.3,0.6-1.3,1.3s0.6,1.3,1.3,1.3s1.3-0.6,1.3-1.3S225.1,123.4,224.4,123.4z"/>
	</g>
	<g>
		<path d="M211.7,142.4h-3.5c-0.3,0-0.5-0.2-0.5-0.5s0.2-0.5,0.5-0.5h3.5c2,0,3.8-1,4.9-2.7c1-1.6,1.2-3.7,0.4-5.4l-3.6-8
			c-0.1-0.3,0-0.5,0.3-0.7s0.5,0,0.7,0.3l3.6,8c0.9,2,0.8,4.4-0.5,6.4C216.1,141.2,214,142.4,211.7,142.4z"/>
	</g>
</g>
<g>
	<g>
		<path d="M946.9,318.7l-0.8-0.6c19.2-26.5,25-49.4,17.2-67.9c-10.6-24.9-43.5-35.8-59.8-39.7c-3-0.6-6.2-1.2-9.4-1.9
			c-0.3-0.1-0.4-0.3-0.4-0.6c0-0.3,0.3-0.4,0.6-0.4c0.1,0,3.8,0.6,9.3,1.9c34.2,6.2,58.2,2,71.4-12.6c10.8-12,12.2-28.9,11.4-41
			c-0.3-5.2-1.1-9.9-1.8-13.8c-1.9-6-2.5-9.9-2.5-9.9c0-0.3,0.1-0.5,0.4-0.6c0.3-0.1,0.5,0.1,0.6,0.3c0,0.1,1.3,3.9,2.4,9.7
			c0,0.1,0,0.2,0.1,0.2c4.1,12.7,14.5,35.7,38.8,47.1c23.2,10.9,53.5,8.8,90.2-6l0.4,0.9c-36.9,15-67.5,17-91,6
			c-21.6-10.1-32.3-29.1-37.5-42.3c2.1,14.4,2.2,35.7-10.7,50.1c-12.2,13.6-33.5,18.4-63.2,14.3c17.5,5.4,42.7,16.5,51.7,37.9
			C972.2,268.7,966.4,291.9,946.9,318.7z"/>
	</g>
	<g>
		<path d="M1066.8,297.6c-0.1-0.1-0.4-0.6-0.8-1c-0.8-1-1.1-1.4-1.1-1.5c-16-23.9-21-45.3-14.8-63.6c8.7-25.8,37.5-38.9,53.8-44.5
			l0.3,0.9c-16.2,5.5-44.6,18.5-53.2,43.9c-6.1,18-1.2,39.1,14.7,62.8c0.1,0.2,0.7,0.9,1.1,1.4c0.4,0.5,0.8,1,0.8,1.1L1066.8,297.6z
			"/>
	</g>
	<g>
		<path d="M946.9,318.5l-0.9-0.5c17.3-31.5,37-48.8,58.5-51.4c26.2-3.2,50.1,16,65.4,32.7l-0.7,0.7c-15.2-16.5-38.7-35.5-64.6-32.4
			C983.5,270.2,964.1,287.4,946.9,318.5z"/>
	</g>
</g>
<g>
	<path d="M193.9,328.3c0,0-0.1,0-0.1,0c-0.3-0.1-0.4-0.4-0.3-0.6c2.5-8.4-0.2-20.3-0.2-20.4c-0.1-0.3,0.1-0.5,0.4-0.6
		c0.3-0.1,0.5,0.1,0.6,0.4c0.1,0.5,2.8,12.3,0.2,21C194.3,328.2,194.1,328.3,193.9,328.3z"/>
</g>
<g>
	<path d="M21.1,26.1c-0.2,0-0.4-0.1-0.5-0.3c-0.1-0.3,0-0.5,0.2-0.7c0.6-0.3,59.1-26.2,99.7,0c0.2,0.2,0.3,0.5,0.1,0.7
		c-0.1,0.2-0.5,0.3-0.7,0.1c-40.1-25.9-98.1-0.2-98.7,0C21.2,26.1,21.2,26.1,21.1,26.1z"/>
</g>
<g>
	<path d="M21.1,66.3c-0.2,0-0.4-0.1-0.5-0.3c-0.1-0.3,0-0.5,0.2-0.7c0.6-0.3,59.1-26.2,99.7,0c0.2,0.2,0.3,0.5,0.1,0.7
		c-0.1,0.2-0.5,0.3-0.7,0.1c-40.1-25.9-98.1-0.2-98.7,0C21.2,66.3,21.2,66.3,21.1,66.3z"/>
</g>
<g>
	<path d="M21.1,104.4c-0.2,0-0.4-0.1-0.5-0.3c-0.1-0.3,0-0.5,0.2-0.7c0.6-0.3,59.1-26.2,99.7,0c0.2,0.2,0.3,0.5,0.1,0.7
		c-0.1,0.2-0.5,0.3-0.7,0.1c-40.1-25.9-98.1-0.2-98.7,0C21.2,104.4,21.2,104.4,21.1,104.4z"/>
</g>
<g>
	<path d="M21.1,147.1c-0.2,0-0.4-0.1-0.5-0.3c-0.1-0.3,0-0.5,0.2-0.7c0.6-0.3,59.1-26.2,99.7,0c0.2,0.2,0.3,0.5,0.1,0.7
		c-0.1,0.2-0.5,0.3-0.7,0.1c-40.1-25.9-98.1-0.2-98.7,0C21.2,147.1,21.2,147.1,21.1,147.1z"/>
</g>
<g>
	<path d="M168.2,27c-0.2,0-0.4-0.1-0.5-0.3c-0.1-0.3,0-0.5,0.2-0.7c0.6-0.3,59.1-26.2,99.7,0c0.2,0.2,0.3,0.5,0.1,0.7
		c-0.2,0.2-0.5,0.3-0.7,0.1C227,1,169,26.7,168.4,27C168.3,27,168.3,27,168.2,27z"/>
</g>
<g>
	<path d="M168.2,67.1c-0.2,0-0.4-0.1-0.5-0.3c-0.1-0.3,0-0.5,0.2-0.7c0.6-0.3,59.1-26.2,99.7,0c0.2,0.2,0.3,0.5,0.1,0.7
		c-0.2,0.2-0.5,0.3-0.7,0.1c-40.1-25.9-98.1-0.2-98.7,0C168.3,67.1,168.3,67.1,168.2,67.1z"/>
</g>
<g>
	<path d="M267.5,105.3c-0.1,0-0.2,0-0.3-0.1C255,97.4,240,93.5,222.7,93.6c-0.3,0-0.5-0.2-0.5-0.5c0-0.3,0.2-0.5,0.5-0.5
		c17.5-0.1,32.7,3.8,45.1,11.8c0.2,0.1,0.3,0.5,0.2,0.7C267.8,105.2,267.7,105.3,267.5,105.3z"/>
</g>
<g>
	<path d="M267.4,148c-0.1,0-0.2,0-0.3-0.1c-9.4-6.1-20.2-9.8-33.1-11.1c-0.3,0-0.5-0.3-0.4-0.5c0-0.3,0.3-0.5,0.5-0.4
		c13,1.4,24,5,33.5,11.3c0.2,0.2,0.3,0.5,0.1,0.7C267.7,147.9,267.6,148,267.4,148z"/>
</g>
<g>
	<path d="M315,24.2c-0.2,0-0.4-0.1-0.5-0.3c-0.1-0.3,0-0.5,0.2-0.7c0.6-0.3,59.1-26.2,99.7,0c0.2,0.2,0.3,0.5,0.1,0.7
		c-0.2,0.2-0.5,0.3-0.7,0.1c-40.1-26-98.1-0.2-98.7,0C315.1,24.2,315.1,24.2,315,24.2z"/>
</g>
<g>
	<path d="M315,64.3c-0.2,0-0.4-0.1-0.5-0.3c-0.1-0.3,0-0.5,0.2-0.7c0.6-0.3,59.1-26.2,99.7,0c0.2,0.2,0.3,0.5,0.1,0.7
		c-0.2,0.2-0.5,0.3-0.7,0.1c-40.1-25.9-98.1-0.2-98.7,0C315.1,64.3,315.1,64.3,315,64.3z"/>
</g>
<g>
	<path d="M315,102.5c-0.2,0-0.4-0.1-0.5-0.3c-0.1-0.3,0-0.5,0.2-0.7c0.6-0.3,59.1-26.2,99.7,0c0.2,0.2,0.3,0.5,0.1,0.7
		c-0.2,0.2-0.5,0.3-0.7,0.1c-40.1-25.9-98.1-0.2-98.7,0C315.1,102.5,315.1,102.5,315,102.5z"/>
</g>
<g>
	<path d="M315,145.2c-0.2,0-0.4-0.1-0.5-0.3c-0.1-0.3,0-0.5,0.2-0.7c0.6-0.3,59.1-26.2,99.7,0c0.2,0.2,0.3,0.5,0.1,0.7
		c-0.2,0.2-0.5,0.3-0.7,0.1c-40.1-26-98.1-0.2-98.7,0C315.1,145.2,315.1,145.2,315,145.2z"/>
</g>
<g>
	<path d="M463.1,24.2c-0.2,0-0.4-0.1-0.5-0.3c-0.1-0.3,0-0.5,0.2-0.7c0.6-0.3,59.1-26.2,99.7,0c0.2,0.2,0.3,0.5,0.1,0.7
		s-0.5,0.3-0.7,0.1c-40.1-25.9-98.1-0.2-98.7,0C463.2,24.2,463.2,24.2,463.1,24.2z"/>
</g>
<g>
	<path d="M463.1,64.3c-0.2,0-0.4-0.1-0.5-0.3c-0.1-0.3,0-0.5,0.2-0.7c0.6-0.3,59.1-26.2,99.7,0c0.2,0.2,0.3,0.5,0.1,0.7
		c-0.1,0.2-0.5,0.3-0.7,0.1c-40.1-25.9-98.1-0.2-98.7,0C463.2,64.3,463.2,64.3,463.1,64.3z"/>
</g>
<g>
	<path d="M463.1,102.5c-0.2,0-0.4-0.1-0.5-0.3c-0.1-0.3,0-0.5,0.2-0.7c0.6-0.3,59.1-26.2,99.7,0c0.2,0.2,0.3,0.5,0.1,0.7
		c-0.1,0.2-0.5,0.3-0.7,0.1c-40.1-25.9-98.1-0.2-98.7,0C463.2,102.5,463.2,102.5,463.1,102.5z"/>
</g>
<g>
	<path d="M463.1,145.2c-0.2,0-0.4-0.1-0.5-0.3c-0.1-0.3,0-0.5,0.2-0.7c0.6-0.3,59.1-26.2,99.7,0c0.2,0.2,0.3,0.5,0.1,0.7
		s-0.5,0.3-0.7,0.1c-40.1-25.9-98.1-0.2-98.7,0C463.2,145.2,463.2,145.2,463.1,145.2z"/>
</g>
<g>
	<path d="M606.9,24.7c-0.2,0-0.4-0.1-0.5-0.3c-0.1-0.3,0-0.5,0.2-0.7c0.6-0.3,59.1-26.2,99.7,0c0.2,0.2,0.3,0.5,0.1,0.7
		c-0.2,0.2-0.5,0.3-0.7,0.1c-40.1-25.9-98.1-0.2-98.7,0C607,24.7,607,24.7,606.9,24.7z"/>
</g>
<g>
	<path d="M606.9,64.9c-0.2,0-0.4-0.1-0.5-0.3c-0.1-0.3,0-0.5,0.2-0.7c0.6-0.3,59.1-26.2,99.7,0c0.2,0.2,0.3,0.5,0.1,0.7
		c-0.2,0.2-0.5,0.3-0.7,0.1c-40.1-25.9-98.1-0.2-98.7,0C607,64.9,607,64.9,606.9,64.9z"/>
</g>
<g>
	<path d="M606.9,103.1c-0.2,0-0.4-0.1-0.5-0.3c-0.1-0.3,0-0.5,0.2-0.7c0.5-0.2,49.3-21.9,88.6-5.8c0.3,0.1,0.4,0.4,0.3,0.7
		c-0.1,0.3-0.4,0.4-0.7,0.3c-38.9-15.9-87.3,5.6-87.8,5.8C607,103.1,607,103.1,606.9,103.1z"/>
</g>
<g>
	<path d="M606.9,145.8c-0.2,0-0.4-0.1-0.5-0.3c-0.1-0.3,0-0.5,0.2-0.7c0.6-0.3,59.1-26.2,99.7,0c0.2,0.2,0.3,0.5,0.1,0.7
		c-0.2,0.2-0.5,0.3-0.7,0.1c-40.1-25.9-98.1-0.2-98.7,0C607,145.8,607,145.8,606.9,145.8z"/>
</g>
<g>
	<path d="M762.7,27c-0.2,0-0.4-0.1-0.5-0.3c-0.1-0.3,0-0.5,0.2-0.7c0.6-0.3,59.1-26.2,99.7,0c0.2,0.2,0.3,0.5,0.1,0.7
		c-0.2,0.2-0.5,0.3-0.7,0.1c-40.1-26-98.1-0.2-98.7,0C762.8,27,762.8,27,762.7,27z"/>
</g>
<g>
	<path d="M862,67.1c-0.1,0-0.2,0-0.3-0.1c-6.6-4.3-13.7-7.3-21.6-9.1c-0.3-0.1-0.4-0.3-0.4-0.6c0.1-0.3,0.3-0.4,0.6-0.4
		c8,1.9,15.2,4.9,22,9.3c0.2,0.1,0.3,0.5,0.2,0.7C862.3,67,862.2,67.1,862,67.1z"/>
</g>
<g>
	<path d="M862,105.2c-0.1,0-0.2,0-0.3-0.1c-14.7-9.4-33.2-13.1-55.2-11c-0.3,0-0.5-0.2-0.5-0.5c0-0.3,0.2-0.5,0.5-0.5
		c22.2-2.1,41,1.6,55.8,11.2c0.2,0.1,0.3,0.5,0.2,0.7C862.3,105.1,862.2,105.2,862,105.2z"/>
</g>
<g>
	<path d="M862,148c-0.1,0-0.2,0-0.3-0.1c-16.3-10.5-37.2-14-62.2-10.2c-0.3,0-0.5-0.1-0.6-0.4c0-0.3,0.1-0.5,0.4-0.6
		c25.2-3.8,46.4-0.3,62.8,10.4c0.2,0.1,0.3,0.5,0.1,0.7C862.3,147.9,862.2,148,862,148z"/>
</g>
<g>
	<path d="M906,29.2c-0.2,0-0.4-0.1-0.5-0.3c-0.1-0.3,0-0.5,0.2-0.7c0.6-0.3,59.1-26.2,99.7,0c0.2,0.2,0.3,0.5,0.1,0.7
		c-0.2,0.2-0.5,0.3-0.7,0.1c-40.1-26-98.1-0.2-98.7,0C906.1,29.2,906.1,29.2,906,29.2z"/>
</g>
<g>
	<path d="M906,69.3c-0.2,0-0.4-0.1-0.5-0.3c-0.1-0.3,0-0.5,0.2-0.7c0.6-0.3,59.1-26.2,99.7,0c0.2,0.2,0.3,0.5,0.1,0.7
		c-0.2,0.2-0.5,0.3-0.7,0.1c-40.1-25.9-98.1-0.2-98.7,0C906.1,69.3,906.1,69.3,906,69.3z"/>
</g>
<g>
	<path d="M906,107.5c-0.2,0-0.4-0.1-0.5-0.3c-0.1-0.3,0-0.5,0.2-0.7c0.6-0.3,59.1-26.2,99.7,0c0.2,0.2,0.3,0.5,0.1,0.7
		c-0.2,0.2-0.5,0.3-0.7,0.1c-40.1-25.9-98.1-0.2-98.7,0C906.1,107.5,906.1,107.5,906,107.5z"/>
</g>
<g>
	<path d="M906,150.2c-0.2,0-0.4-0.1-0.5-0.3c-0.1-0.3,0-0.5,0.3-0.7c0.5-0.2,51.3-22.7,90.9-4.7c0.3,0.1,0.4,0.4,0.2,0.7
		c-0.1,0.3-0.4,0.4-0.7,0.2c-39.2-17.8-89.6,4.5-90.1,4.7C906.1,150.2,906.1,150.2,906,150.2z"/>
</g>
<g>
	<path d="M1056.7,29.2c-0.2,0-0.4-0.1-0.5-0.3c-0.1-0.3,0-0.5,0.2-0.7c0.6-0.3,59.1-26.2,99.7,0c0.2,0.2,0.3,0.5,0.1,0.7
		c-0.2,0.2-0.5,0.3-0.7,0.1c-40.1-25.9-98.1-0.2-98.7,0C1056.8,29.2,1056.8,29.2,1056.7,29.2z"/>
</g>
<g>
	<path d="M1155.9,69.3c-0.1,0-0.2,0-0.3-0.1c-16.1-10.4-36.9-13.9-61.9-10.2c-0.3,0-0.5-0.1-0.6-0.4c0-0.3,0.1-0.5,0.4-0.6
		c25.2-3.7,46.2-0.2,62.5,10.4c0.2,0.1,0.3,0.5,0.1,0.7C1156.2,69.2,1156.1,69.3,1155.9,69.3z"/>
</g>
<g>
	<path d="M1155.9,107.5c-0.1,0-0.2,0-0.3-0.1c-13-8.4-28.8-12.3-47.2-11.6c-0.3,0-0.5-0.2-0.5-0.5c0-0.3,0.2-0.5,0.5-0.5
		c18.6-0.7,34.7,3.3,47.8,11.8c0.2,0.2,0.3,0.5,0.1,0.7C1156.2,107.4,1156.1,107.5,1155.9,107.5z"/>
</g>
<g>
	<path d="M1155.9,150.2c-0.1,0-0.2,0-0.3-0.1c-36.1-23.3-86.5-5-96.2-1.1c-0.3,0.1-0.5,0-0.7-0.3c-0.1-0.3,0-0.5,0.3-0.7
		c9.8-3.9,60.6-22.4,97.2,1.1c0.2,0.1,0.3,0.5,0.1,0.7C1156.2,150.1,1156.1,150.2,1155.9,150.2z"/>
</g>
<g>
	<path d="M1206.2,29.2c-0.2,0-0.4-0.1-0.5-0.3c-0.1-0.3,0-0.5,0.2-0.7c0.5-0.2,50.7-22.5,90.2-5c0.3,0.1,0.4,0.4,0.3,0.7
		c-0.1,0.3-0.4,0.4-0.7,0.3c-39.1-17.3-88.9,4.8-89.4,5C1206.3,29.2,1206.3,29.2,1206.2,29.2z"/>
</g>
<g>
	<path d="M1206.2,69.3c-0.2,0-0.4-0.1-0.5-0.3c-0.1-0.3,0-0.5,0.3-0.7c0.5-0.2,50.7-22.4,90.2-5.1c0.3,0.1,0.4,0.4,0.3,0.7
		c-0.1,0.3-0.4,0.4-0.7,0.3c-39.1-17.1-88.9,4.9-89.4,5.1C1206.3,69.3,1206.3,69.3,1206.2,69.3z"/>
</g>
<g>
	<path d="M1206.2,107.5c-0.2,0-0.4-0.1-0.5-0.3c-0.1-0.3,0-0.5,0.2-0.7c0.5-0.2,50.7-22.5,90.3-5c0.3,0.1,0.4,0.4,0.3,0.7
		c-0.1,0.3-0.4,0.4-0.7,0.3c-39.2-17.3-89,4.8-89.5,5C1206.3,107.5,1206.3,107.5,1206.2,107.5z"/>
</g>
<g>
	<path d="M1206.2,150.2c-0.2,0-0.4-0.1-0.5-0.3c-0.1-0.3,0-0.5,0.2-0.7c0.5-0.2,50.7-22.5,90.2-5.1c0.3,0.1,0.4,0.4,0.3,0.7
		c-0.1,0.3-0.4,0.4-0.7,0.3c-39.1-17.2-88.9,4.9-89.4,5.1C1206.3,150.2,1206.3,150.2,1206.2,150.2z"/>
</g>
<g>
	<path d="M225.9,608.9c0,0-0.1,0-0.1,0L-0.1,549.7c-0.3-0.1-0.4-0.3-0.4-0.6c0.1-0.3,0.3-0.4,0.6-0.4L226,607.9
		c0.3,0.1,0.4,0.3,0.4,0.6C226.3,608.8,226.1,608.9,225.9,608.9z"/>
</g>
<g>
	<path d="M208.6,623.8c0,0-0.1,0-0.1,0L-0.1,569.4c-0.3-0.1-0.4-0.3-0.4-0.6c0.1-0.3,0.3-0.4,0.6-0.4l208.6,54.4
		c0.3,0.1,0.4,0.3,0.4,0.6C209,623.7,208.8,623.8,208.6,623.8z"/>
</g>
<g>
	<path d="M758.9,767.7c0,0-0.1,0-0.1,0l-2.7-0.7c-0.3-0.1-0.4-0.3-0.4-0.6c0.1-0.3,0.3-0.4,0.6-0.4l2.7,0.7c0.3,0.1,0.4,0.3,0.4,0.6
		C759.3,767.6,759.1,767.7,758.9,767.7z"/>
</g>
<g>
	<polyline class="st3" points="1296,888.7 1200.4,863.5 1180.7,877.8 1296,907.8 	"/>
	<path d="M1296,908.3c0,0-0.1,0-0.1,0l-115.3-30c-0.2,0-0.3-0.2-0.4-0.4s0-0.4,0.2-0.5l19.7-14.3c0.1-0.1,0.3-0.1,0.4-0.1l95.6,25.2
		c0.3,0.1,0.4,0.3,0.4,0.6c-0.1,0.3-0.3,0.4-0.6,0.4l-95.4-25.1l-18.7,13.5l114.3,29.7c0.3,0.1,0.4,0.3,0.4,0.6
		C1296.4,908.2,1296.2,908.3,1296,908.3z"/>
</g>
<g>
	<path d="M758.9,767c-0.3,0-0.5-0.2-0.5-0.5v-0.9c0-0.3,0.2-0.5,0.5-0.5s0.5,0.2,0.5,0.5v0.9C759.4,766.8,759.2,767,758.9,767z"/>
</g>
</svg>
