<?xml version="1.0" encoding="UTF-8"?><svg id="uuid-36417c64-218a-4632-adf0-57c09fda4ac6" xmlns="http://www.w3.org/2000/svg" viewBox="0 0 1200 1200"><polygon points="2136.39 -7.88 2309.38 124.6 2211.65 277.71 2345.21 386.84 2193.55 643.8 2343.65 746.78 2247.96 944.06 2399.57 1208.65 -1217.65 1243.04 -1217.65 -20.92 2136.39 -7.88" fill="#adadad" stroke="#000" stroke-miterlimit="10" stroke-width=".75"/><polygon points="672.31 308.65 958.43 243.67 1004.89 236.77 1181.6 238.83 1253.72 444.31 1031.92 414.58 909.37 404.97 899.1 390.75 760.14 423.69 672.31 308.65" fill="#f93d00" stroke="#000" stroke-miterlimit="10"/><path d="m-54.06,1065.82c4.68,8.01,12.7,17.98,23.36,20.65,14,3.5,64.34,2.32,94.6,3.86,13.94.71,15.27,19.36,11.59,32.82l-8.35,46.91H-98.84s-38.39-33.89-38.39-33.89l-5.02,34.42-110.39-.1-.79-104.14" fill="#fff" stroke="#000" stroke-linecap="round" stroke-linejoin="round"/><line x1="-118.65" y1="1152.58" x2="69.89" y2="1151.92" fill="#fff" stroke="#000" stroke-linecap="round" stroke-linejoin="round"/><rect x="915.45" y="583.06" width="225.81" height="481.93" fill="#fff" stroke="#000" stroke-linecap="round" stroke-linejoin="round"/><path d="m938.99,1065.56c-4.68,8.01-12.7,17.98-23.36,20.65-14,3.5-64.34,2.32-94.6,3.86-13.94.71-15.27,19.36-11.59,32.82l8.35,46.91h165.98s38.39-33.89,38.39-33.89l5.06,33.89,110.35.43.79-104.14" fill="#fff" stroke="#000" stroke-linecap="round" stroke-linejoin="round"/><line x1="1137.71" y1="1151.62" x2="1024.61" y2="1152.28" fill="#fff" stroke="#000" stroke-linecap="round" stroke-linejoin="round"/><line x1="1003.58" y1="1152.32" x2="815.05" y2="1151.67" fill="#fff" stroke="#000" stroke-linecap="round" stroke-linejoin="round"/><path d="m1039.32,1065.62c-4.68,8.01-12.7,17.98-23.36,20.65-14,3.5-64.34,2.32-94.6,3.86-13.94.71-15.27,19.36-11.59,32.82l8.35,46.91h165.98l38.39-33.89,5.06,33.89,110.35.43.79-104.14" fill="#fff" stroke="#000" stroke-linecap="round" stroke-linejoin="round"/><line x1="1238.04" y1="1151.69" x2="1124.94" y2="1152.34" fill="#fff" stroke="#000" stroke-linecap="round" stroke-linejoin="round"/><line x1="1103.91" y1="1152.38" x2="915.38" y2="1151.73" fill="#fff" stroke="#000" stroke-linecap="round" stroke-linejoin="round"/><rect x="1024.93" y="582.58" width="225.81" height="482.55" fill="#fff" stroke="#000" stroke-linecap="round" stroke-linejoin="round"/><path d="m899.38,380.9l2.04,204.06c-.29,28.57,16.05,54.7,41.87,66.94h0c41.51,19.68,87.39,28.3,133.21,25.04l54.41-3.87c35.08-2.5,68.64-15.37,96.38-36.98h0c16.39-12.77,26.59-31.89,28.05-52.61l10.14-143.18" fill="#f93d00" stroke="#000" stroke-miterlimit="10"/><path d="m1220.35,487.58l-32.88-75.72-134.08,68.29,29.15,63.24c17.77,38.55,53.59,65.7,95.51,72.39h0c60.21,9.61,118.76-24.84,139.62-82.13l4.38-12.03c8.38-23.01,9.94-47.95,4.49-71.82l-15.13-66.33c-9.85-43.2-41.43-78.19-83.41-92.4l-35.45-17.92" fill="#f93d00" stroke="#000" stroke-miterlimit="10"/><circle cx="1084.93" cy="197.06" r="133.18" fill="#fff" stroke="#000" stroke-linecap="round" stroke-linejoin="round"/><g><circle cx="1082.01" cy="160.12" r="6.93" stroke="#000" stroke-linecap="round" stroke-linejoin="round"/><circle cx="1170.04" cy="155.94" r="6.93" stroke="#000" stroke-linecap="round" stroke-linejoin="round"/><path d="m1129.54,157.84l15.2,29.8c7.9,15.48-2.82,33.95-20.18,34.77l-13.34.63" fill="none" stroke="#000" stroke-linecap="round" stroke-linejoin="round"/></g><g><path d="m1391.5,204.8l-27.98,13.81h0c-40.55-69.13-100.42-124.91-172.24-160.48l-3.68-1.82h0c84.06,22.2,156.75,75.09,203.74,148.23l.17.26Z" fill="#fff" stroke="#000" stroke-linecap="round" stroke-linejoin="round"/><polygon points="940.52 492.57 921.85 457.14 1398.22 188.55 1416.89 223.98 940.52 492.57" fill="#fff" stroke="#000" stroke-linecap="round" stroke-linejoin="round"/></g><path d="m754.9,1065.49c4.68,8.01,12.7,17.98,23.36,20.65,14,3.5,64.34,2.32,94.6,3.86,13.94.71,15.27,19.36,11.59,32.82l-8.35,46.91h-165.98s-38.39-33.89-38.39-33.89l-5.06,33.89-110.35.43-.79-104.14" fill="#fff" stroke="#000" stroke-linecap="round" stroke-linejoin="round"/><line x1="556.19" y1="1151.55" x2="669.29" y2="1152.21" fill="#fff" stroke="#000" stroke-linecap="round" stroke-linejoin="round"/><line x1="690.32" y1="1152.25" x2="878.85" y2="1151.6" fill="#fff" stroke="#000" stroke-linecap="round" stroke-linejoin="round"/><path d="m112.95,1065.79c-4.68,8.01-12.7,17.98-23.36,20.65-14,3.5-64.34,2.32-94.6,3.86-13.94.71-15.27,19.36-11.59,32.82l8.35,46.91h165.98l38.39-33.89,5.06,33.89,110.35.43.79-104.14" fill="#fff" stroke="#000" stroke-linecap="round" stroke-linejoin="round"/><line x1="311.67" y1="1151.86" x2="198.56" y2="1152.51" fill="#fff" stroke="#000" stroke-linecap="round" stroke-linejoin="round"/><line x1="177.53" y1="1152.55" x2="-11" y2="1151.9" fill="#fff" stroke="#000" stroke-linecap="round" stroke-linejoin="round"/><polyline points="665.8 628.29 802.88 1065.5 533.16 1067.16 446.75 733.13 341.96 1069.22 76.89 1066.54 222.09 626.74" fill="#0085ff" stroke="#000" stroke-miterlimit="10"/><path d="m201.66,624.25s-8.06,27.75-2.69,34.02,126.24,15.22,227.41,14.32c101.17-.9,262.32-6.27,268.59-17.01,6.27-10.74,3.03-43.58,3.03-43.58l-14.35-94.46-327.56-29.46-159.29,49.17,4.86,87Z" fill="#fff" stroke="#000" stroke-linecap="round" stroke-linejoin="round"/><path d="m617.79,574.17l20.98,17.69c31.81,26.83,77,30.88,113.08,10.14h0c29.2-16.79,47.84-47.28,49.49-80.91l2.54-51.96c.69-14.17-1.67-28.32-6.93-41.5l-5.63-14.12c-17.04-42.71-45.55-79.88-82.37-107.41l-24.98-18.67c-48.74-36.44-108.37-55.36-169.2-53.69l-159.32,4.38c-70.05,1.93-136.61,30.99-185.63,81.06h0c-29.53,30.16-51.58,66.82-64.38,107.03l-22.94,72.03c-10.23,32.14-3.3,67.28,18.38,93.12h0c24.65,29.38,64.11,41.76,101.12,31.74l19.42-5.26c22.99-6.23,42.95-20.58,56.16-40.4l3.63-5.44" fill="#fff" stroke="#000" stroke-linecap="round" stroke-linejoin="round"/><circle cx="428.24" cy="195.27" r="133.18" fill="#fff" stroke="#000" stroke-linecap="round" stroke-linejoin="round"/><g><circle cx="427.61" cy="166.35" r="6.93" stroke="#000" stroke-linecap="round" stroke-linejoin="round"/><circle cx="515.64" cy="162.18" r="6.93" stroke="#000" stroke-linecap="round" stroke-linejoin="round"/><path d="m475.15,164.08l15.2,29.8c7.9,15.48-2.82,33.95-20.18,34.77l-13.34.63" fill="none" stroke="#000" stroke-linecap="round" stroke-linejoin="round"/></g><path d="m714.03,490.16l-18.85-31.23c-4.78-7.92-2.25-18.22,5.66-23.02h0c7.5-4.55,17.23-2.56,22.34,4.56l16.38,21.99,3.04,3.73" fill="#fff" stroke="#000" stroke-linecap="round" stroke-linejoin="round"/><polygon points="355.9 284.63 474.48 236.37 595.82 270.26 558.59 339.78 617.88 385.28 678.54 441.81 669.04 559.84 579.27 593.49 495.96 573.16 434.49 547.98 388.99 568.67 292.92 579.81 169.77 506.59 209.74 432.16 199.73 376.78 245.59 298.42 355.9 284.63" fill="#ebeeea" stroke="#000" stroke-miterlimit="10"/><path d="m670.88,556.97l-51.12-40.98c-7.11-5.7-17.5-4.56-23.2,2.56h0c-5.7,7.11-4.56,17.5,2.56,23.2l33.58,26.92c11.5,9.22,25.17,15.35,39.7,17.81h0c20.38,3.44,41.08-3.94,54.67-19.51l17.7-20.28c20.34-23.3,19.4-58.31-2.16-80.49h0" fill="#fff" stroke="#000" stroke-linecap="round" stroke-linejoin="round"/><path d="m670.88,556.96l-51.12-40.98c-7.11-5.7-8.26-16.09-2.56-23.2h0c5.7-7.11,16.09-8.26,23.2-2.56l51.12,40.98" fill="#fff" stroke="#000" stroke-linecap="round" stroke-linejoin="round"/><path d="m691.2,531.33l-51.12-40.98c-7.11-5.7-8.26-16.09-2.56-23.2h0c5.7-7.11,16.09-8.26,23.2-2.56l51.12,40.98" fill="#fff" stroke="#000" stroke-linecap="round" stroke-linejoin="round"/><path d="m711.85,505.57l-51.44-40.4c-7.11-5.7-8.26-16.09-2.56-23.2h0c5.7-7.11,16.09-8.26,23.2-2.56l47.6,39.63" fill="#fff" stroke="#000" stroke-linecap="round" stroke-linejoin="round"/><path d="m159.64,500.62l19.6-30.76c4.97-7.8,2.69-18.16-5.09-23.15h0c-7.38-4.73-17.16-2.98-22.45,4.01l-16.91,21.58-3.13,3.66" fill="#fff" stroke="#000" stroke-linecap="round" stroke-linejoin="round"/><path d="m201.15,568.47l52.11-39.72c7.25-5.53,17.61-4.13,23.13,3.12h0c5.53,7.25,4.13,17.61-3.12,23.13l-34.23,26.09c-11.72,8.94-25.53,14.73-40.13,16.83h0c-20.45,2.95-40.97-4.95-54.17-20.84l-17.2-20.7c-19.76-23.79-17.97-58.76,4.12-80.41h0" fill="#fff" stroke="#000" stroke-linecap="round" stroke-linejoin="round"/><path d="m201.15,568.45l52.11-39.72c7.25-5.53,8.65-15.88,3.12-23.13h0c-5.53-7.25-15.88-8.65-23.13-3.12l-52.11,39.72" fill="#fff" stroke="#000" stroke-linecap="round" stroke-linejoin="round"/><path d="m181.45,542.34l52.11-39.72c7.25-5.53,8.65-15.88,3.12-23.13h0c-5.53-7.25-15.88-8.65-23.13-3.12l-52.11,39.72" fill="#fff" stroke="#000" stroke-linecap="round" stroke-linejoin="round"/><path d="m161.44,516.08l52.41-39.13c7.25-5.53,8.65-15.88,3.12-23.13h0c-5.53-7.25-15.88-8.65-23.13-3.12l-48.56,38.46" fill="#fff" stroke="#000" stroke-linecap="round" stroke-linejoin="round"/><path d="m-386.2,799.58l2.09,8.69c9.28,38.55,40.06,68.23,78.92,76.11l113.73,23.06-78.13,160.48,249.84-1.38,55.5-116.79c28.58-60.15,1.28-131.99-60.04-157.96l-107.04-46.45-85.79-40.12" fill="#fff" stroke="#000" stroke-linecap="round" stroke-linejoin="round"/><polygon points="-410.89 21.21 -444.49 76.14 -424.05 135.89 -319.71 161.58 -309.16 216.49 -234.24 241.46 -191.09 238.29 -148.23 280.31 -62.64 247.42 68.89 291.15 87.4 257.15 152.02 256.76 109.81 155.45 39.05 94.41 -60.83 95.8 -119.1 23.66 -269.66 29.65 -410.89 21.21" fill="#ebeeea" stroke="#000" stroke-miterlimit="10"/><path d="m29.85,290.09l-1.46,34.34-108.72-4.37-13.72-68.87c-6-14.24-5.01-30.47,2.68-43.88l3.44-6c5.49-9.58,17.96-12.47,27.11-6.29h0c8.36,5.65,10.84,16.84,5.66,25.49l-8.05,13.43,20.96,19.06,72.11,37.09" fill="#fff" stroke="#000" stroke-linecap="round" stroke-linejoin="round"/><path d="m17.35,256.84l46.22,3.54c8.83.68,15.44,8.38,14.77,17.21h0c-.68,8.83-8.38,15.44-17.21,14.77l-46.22-3.54" fill="#fff" stroke="#000" stroke-linecap="round" stroke-linejoin="round"/><path d="m-3.84,255.46l46.22,3.54c8.83.68,15.44,8.38,14.77,17.21h0c-.68,8.83-8.38,15.44-17.21,14.77l-46.22-3.54" fill="#fff" stroke="#000" stroke-linecap="round" stroke-linejoin="round"/><path d="m-21.08,254.39l46.22,3.54c8.83.68,15.44,8.38,14.77,17.21h0c-.68,8.83-8.38,15.44-17.21,14.77l-46.22-3.54" fill="#fff" stroke="#000" stroke-linecap="round" stroke-linejoin="round"/><path d="m-42.26,253.01l46.22,3.54c8.83.68,15.44,8.38,14.77,17.21h0c-.68,8.83-8.38,15.44-17.21,14.77l-46.22-3.54" fill="#fff" stroke="#000" stroke-linecap="round" stroke-linejoin="round"/><path d="m-232.47,489.44l82.62-13.1c17.83-2.83,31.31-17.63,32.46-35.65l8.17-127.87,169.65-6.11-7.83,165.83c-3.46,73.3-56.41,134.83-128.38,149.17l-60.18,11.34" fill="#f93d00" stroke="#000" stroke-miterlimit="10"/><path d="m1066.6,364.38l-1.06.42c-18.82,7.34-28.12,28.56-20.77,47.37l24.74,60.14,94.12-48.07,16.91-53.07c3.31-9.56-3.04-19.73-13.07-20.96h0c-6.52-.8-12.86,2.49-15.95,8.29l-3.15,5.9c-4.15,7.77-14.84,9.23-20.68,2.65-.04-.05-.08-.09-.12-.14h0c-3.48-3.99-5-9.32-4.16-14.55l.3-1.86c.66-4.12,2.73-7.84,5.8-10.55" fill="#fff" stroke="#000" stroke-linecap="round" stroke-linejoin="round"/><path d="m1061.93,399.9c-7.35-18.82,1.95-40.03,20.77-47.37l19.65-4.31" fill="#fff" stroke="#000" stroke-linecap="round" stroke-linejoin="round"/><path d="m1078.53,388.76c-.2-.52-.4-1.05-.57-1.57-7.69-22.64,10.06-45.96,33.97-45.62l2.33.03" fill="#fff" stroke="#000" stroke-linecap="round" stroke-linejoin="round"/><path d="m1095.02,382.72c-4.3-10.99-2.91-22.81,2.75-32.19,6.29-10.45,19.33-14.7,30.78-10.49" fill="#fff" stroke="#000" stroke-linecap="round" stroke-linejoin="round"/><path d="m581.41,144.52c0-72.82-66.93-131.85-149.5-131.85s-149.5,59.03-149.5,131.85h299Z" fill="#ebeeea" stroke="#000" stroke-miterlimit="10"/><circle cx="492.6" cy="96.33" r="30.61" fill="#fff" stroke="#000" stroke-linecap="round" stroke-linejoin="round"/><circle cx="503.63" cy="95.82" r="30.61" fill="#fffba3" stroke="#000" stroke-miterlimit="10"/><path d="m1233.86,142.57c0-72.82-66.93-131.85-149.5-131.85s-149.5,59.03-149.5,131.85h299Z" fill="#ebeeea" stroke="#000" stroke-miterlimit="10"/><circle cx="1145.05" cy="94.37" r="30.61" fill="#fff" stroke="#000" stroke-linecap="round" stroke-linejoin="round"/><circle cx="1156.09" cy="93.86" r="30.61" fill="#fffba3" stroke="#000" stroke-miterlimit="10"/><rect x="-1310.78" y="1170.21" width="5121.3" height="107.06" fill="#adadad" stroke="#000" stroke-miterlimit="10" stroke-width=".75"/></svg>