<?xml version="1.0" encoding="UTF-8"?><svg id="a" xmlns="http://www.w3.org/2000/svg" viewBox="0 0 1080 1350"><defs><style>.c{fill:#e8e6e2;}.d{fill:#34ff7f;}.d,.e,.f,.g,.h,.i,.j{stroke-linecap:round;stroke-linejoin:round;stroke-width:2px;}.d,.e,.g,.h,.i{stroke:#000;}.e{fill:#c0a0fb;}.f,.g{fill:#fff;}.f,.j{stroke:#1d1d1b;}.h{fill:#fce855;}.i{fill:none;}</style></defs><rect class="c" x="-3239.96" y="-4.19" width="4327.15" height="1349.92"/><circle class="f" cx="36.62" cy="963.06" r="129.21"/><path class="d" d="m783.42,1175.02c26.71-165.71-15.73-245.79-15.73-245.79,0,0,27.59,69.32-1.24,251.24l-.93,5.51"/><path class="d" d="m750.8,1189.7c-8.06-183.19-49.01-242.41-49.01-242.41,0,0,57.6,64.77,64.51,231.77l.21,10.68"/><path class="d" d="m761.8,1189.68l.07-4.43c2.52-183.68-34.78-249.35-34.78-249.35,0,0,53.58,74.68,50.84,242.05l-.27,11.67"/><path class="d" d="m789.31,1189.69l.14-9.4c6.91-167,64.51-231.77,64.51-231.77,0,0-40.75,58.05-48.82,241.24"/><path class="d" d="m793.57,1189.72c-2.52-183.68,34.85-252.9,34.85-252.9,0,0-53.58,74.68-50.84,242.05l.08,10.81"/><line class="d" x1="805.14" y1="1189.76" x2="750.76" y2="1189.74"/><path class="d" d="m886.22,1172.73c26.71-165.71-15.73-245.79-15.73-245.79,0,0,27.59,69.32-1.24,251.24l-.93,5.51"/><path class="d" d="m853.61,1187.41c-8.06-183.19-49.01-242.41-49.01-242.41,0,0,57.6,64.77,64.51,231.77l.21,10.68"/><path class="d" d="m864.61,1187.39l.07-4.43c2.52-183.68-34.78-249.35-34.78-249.35,0,0,53.58,74.68,50.84,242.05l-.27,11.67"/><path class="d" d="m892.11,1187.4l.14-9.4c6.91-167,64.51-231.77,64.51-231.77,0,0-40.75,58.05-48.82,241.24"/><path class="d" d="m896.37,1187.44c-2.52-183.68,34.85-252.9,34.85-252.9,0,0-53.58,74.68-50.84,242.05l.08,10.81"/><line class="d" x1="907.95" y1="1187.47" x2="853.56" y2="1187.45"/><path class="d" d="m985.78,1173.89c26.71-165.71-15.73-245.79-15.73-245.79,0,0,27.59,69.32-1.24,251.24l-.93,5.51"/><path class="d" d="m953.17,1188.57c-8.06-183.19-49.01-242.41-49.01-242.41,0,0,57.6,64.77,64.51,231.77l.21,10.68"/><path class="d" d="m964.17,1188.55l.07-4.43c2.52-183.68-34.78-249.35-34.78-249.35,0,0,53.58,74.68,50.84,242.05l-.27,11.67"/><path class="d" d="m991.67,1188.55l.14-9.4c6.91-167,64.51-231.77,64.51-231.77,0,0-40.75,58.05-48.82,241.24"/><path class="d" d="m995.94,1188.59c-2.52-183.68,34.85-252.9,34.85-252.9,0,0-53.58,74.68-50.84,242.05l.08,10.81"/><line class="d" x1="1007.51" y1="1188.63" x2="953.13" y2="1188.61"/><rect class="d" x="604.7" y="687.72" width="468.84" height="157" transform="translate(317.12 1775.55) rotate(-105.05)"/><path class="e" d="m867.23,970.43l-32.71,45.47c-7.92,11.01-4.21,26.48,7.84,32.71h0c10.96,5.66,24.43,1.31,30.01-9.69l27.09-53.42"/><path class="g" d="m883.49,1013.88l-17.95,11.36c-7.11,4.92-9.65,14.24-6.03,22.08h0c4.2,9.1,15.09,12.94,24.06,8.48h0c9.51-5.44,17.75-12.85,24.18-21.72l4.02-5.54"/><path class="g" d="m889.01,1002.35l-14.77,15.27c-5.75,6.46-6.03,16.11-.66,22.88h0c6.23,7.85,17.71,9.02,25.38,2.57h0c7.96-7.53,14.22-16.67,18.38-26.8l2.6-6.33"/><path class="g" d="m901.43,988.75l-14.77,15.27c-5.75,6.46-6.03,16.11-.66,22.88h0c6.23,7.85,17.71,9.02,25.38,2.57h0c7.96-7.53,14.22-16.67,18.38-26.8l2.6-6.33"/><path class="g" d="m12.8,472.26l1.42-32.29c.49-11.2,10.23-19.72,21.39-18.71h0c8.45.76,15.46,6.85,17.38,15.12h0c3.22,13.82,8.48,27.91,14.89,40.57l-7.27,5.76"/><path class="g" d="m-95.78,581.43H65.22v15.16c0,5.19-4.21,9.4-9.4,9.4H-86.39c-5.19,0-9.4-4.21-9.4-9.4v-15.16h0Z" transform="translate(-149.98 15.28) rotate(-14.58)"/><path class="h" d="m59.57,561.65l-155.8,40.36-40.79-167.16c-1.37-5.62,2.03-11.3,7.64-12.73L.04,389c5.55-1.42,11.22,1.84,12.77,7.35l46.76,165.29Z"/><path class="h" d="m20.19,486.89l-64.5,15.87c-3.75.92-7.55-1.34-8.52-5.08l-19.14-73.54c-.99-3.79,1.31-7.67,5.11-8.63l63.17-15.93c3.72-.94,7.5,1.26,8.53,4.96l20.47,73.6c1.07,3.84-1.25,7.8-5.12,8.75Z"/><path class="g" d="m53.72,487.86l-29.5,1.91c-8.64-.03-16.01-6.28-17.47-14.8h0c-1.68-9.88,5.12-19.2,15.04-20.61l30.14-1.85c3.92-.24,7.85.12,11.66,1.06h0c11.81,2.92,24.8,8.42,29.56,19.61l12.97,30.54,7.23,17.67c4.84,11.83,1.65,25.42-7.94,33.87h0c-5.67,5-13.02,7.67-20.58,7.48l-26.9-.67"/><path class="g" d="m65.07,477.06l-36.05,2.21c-9.92,1.4-16.73,10.72-15.04,20.61h0c1.45,8.52,8.82,14.76,17.47,14.8l29.5-1.91"/><path class="g" d="m72.12,500.74l-36.05,2.21c-9.92,1.4-16.73,10.72-15.04,20.61h0c1.45,8.52,8.82,14.76,17.47,14.8l28.88-1.42"/><path class="g" d="m58.1,562.05l-13.08,1.02c-8.64-.03-16.01-6.28-17.47-14.8h0c-1.68-9.88,5.12-19.2,15.04-20.61l36.05-2.21"/><path class="g" d="m735.93,1066.64c5.32,9.13,14.42,20.49,26.54,23.55,15.93,4.01,73.23,2.77,107.68,4.58,15.87.83,17.35,22.07,13.13,37.38l-9.6,53.38-188.93-.33-43.63-38.65-5.83,38.57-125.61.27-.7-119.15"/><line class="g" x1="509.63" y1="1164.21" x2="637.83" y2="1165.17"/><line class="g" x1="662.39" y1="1165.26" x2="876.85" y2="1164.9"/><rect class="e" x="497.36" y="459.23" width="256.87" height="606.89" transform="translate(-3.61 2.98) rotate(-.27)"/><path class="g" d="m617.62,1066.36c5.32,9.13,14.42,20.49,26.54,23.55,15.93,4.01,73.23,2.77,107.68,4.58,15.87.83,17.35,22.07,13.13,37.38l-9.6,53.38-188.93-.33-43.63-38.65-5.83,38.57-125.61.27-.7-119.15"/><line class="g" x1="391.31" y1="1163.93" x2="519.52" y2="1164.89"/><line class="g" x1="544.08" y1="1164.98" x2="758.53" y2="1164.61"/><rect class="e" x="379.04" y="452.83" width="256.87" height="613.73" transform="translate(-3.6 2.42) rotate(-.27)"/><path class="d" d="m368,497.99c40.14,78.66,117.56,135.21,226.64,169.33l275.42,83.01,7.91-128.77c5.01-81.62-30.04-160.57-93.95-211.58h0c-66.02-52.7-146.92-83.33-231.28-87.57h0c-175.4-6.38-184.74,175.59-184.74,175.59"/><path class="h" d="m1021.38,1185.21c4.48.02,8.13-3.6,8.15-8.08l.05-10.8c.02-4.48-3.6-8.13-8.08-8.15l-252.56-1.12c-4.44-.02-8.05,3.56-8.07,8l-.05,11.39c-.02,4.44,3.56,8.05,8,8.07l252.56.69Z"/><rect class="h" x="962.41" y="1146.97" width="35.5" height="11.15" rx="5.58" ry="5.58" transform="translate(1954.84 2309.73) rotate(-179.73)"/><rect class="h" x="925.9" y="1147.18" width="35.5" height="11.15" rx="5.58" ry="5.58" transform="translate(1881.82 2309.98) rotate(-179.73)"/><polyline class="d" points="797.8 491.31 558.35 195.45 434.99 292.57 654.49 562.44"/><path class="e" d="m155.01,1185.13c88.82,0,160.73-72.15,160.42-160.97l-1.47-422.31c-.3-88.66-89.59-149.32-172.12-116.94l-357.35,140.21,95.23,238.57,201.37-80.38v179.87c0,23.79-19.29,43.08-43.08,43.08H-231.56v178.84s386.56.03,386.56.03Z"/><path class="e" d="m-111.67,658.95h0c73.09,0,132.43,59.34,132.43,132.43v392.07H-244.11v-392.07c0-73.09,59.34-132.43,132.43-132.43Z"/><path class="g" d="m21.27,1184.93l-268.11-.32-14.25-81.05c-7.94-45.17,26.9-86.54,72.77-86.38l151.16.52c45.52.16,79.99,41.17,72.32,86.04l-13.88,81.19Z"/><line class="g" x1="-251.27" y1="1154.21" x2="24.87" y2="1154.21"/><line class="g" x1="81.08" y1="783.31" x2="222.04" y2="728.08"/><path class="g" d="m867.4,970.2c.39,4.95.98,9.85,1.77,14.63h0c1.4,8.37-2.74,16.69-10.25,20.63h0c-9.92,5.21-22.19,1.08-26.94-9.07l-6.16-15.21c-5.1-12.59-6.5-26.37-4.03-39.72l2.07-11.24"/><path class="g" d="m909.38,973.56l-14.77,15.27c-5.75,6.46-6.03,16.11-.66,22.88h0c6.23,7.85,17.71,9.02,25.38,2.57h0c7.96-7.53,14.22-16.67,18.38-26.8l2.6-6.33"/><path class="e" d="m989.04,973.47l8.26-16.52c11.57-25.29-16.95-63.13-63.7-84.52-46.75-21.39-94.03-18.23-105.6,7.06l-8.26,16.52"/><ellipse class="e" cx="903.78" cy="936.27" rx="46.55" ry="93.09" transform="translate(-323.64 1368.55) rotate(-65.41)"/><ellipse class="g" cx="903.78" cy="936.27" rx="39" ry="78" transform="translate(-323.64 1368.55) rotate(-65.41)"/><path class="g" d="m480.93,225.39l-56.13-19.66c-9.48-3.25-19.78,1.96-22.76,11.53h0c-2.57,8.25,1.16,17.16,8.84,21.12l18.8,11.14c8.43,5,16.23,10.99,23.22,17.85l6.43,6.31"/><path class="g" d="m482.95,213.63l-45.61-38.17c-7.73-6.38-19.2-5.13-25.36,2.77h0c-5.32,6.82-4.96,16.47.84,22.88l26.62,26.98"/><path class="g" d="m489.59,184.8l-32.25-32.85c-7.24-6.94-18.77-6.53-25.5.9h0c-5.8,6.41-6.16,16.06-.84,22.88l19.52,25.06"/><path class="g" d="m468.83,180.42l-13.76-34.91c-3.17-8.04-.1-17.2,7.27-21.71h0c8.55-5.23,19.73-2.36,24.71,6.34l52.08,80.47-79.51,62.73"/><path class="g" d="m473.17,239.49l-17.32-27.29c-6.01-9.46-2.9-22.02,6.83-27.59h0c7.36-4.21,16.6-3.23,22.91,2.45l15.88,14.29"/><path class="i" d="m20.54,151.68s111.01-95.06,173.08-55.25c77.97,50-66.8,179.17-91.64,89.54-24.84-89.63,434-265.59,649.8-71.88"/><line class="g" x1="734.79" y1="143.31" x2="755.17" y2="136.85"/><line class="g" x1="739.47" y1="155.55" x2="759.85" y2="149.09"/><line class="g" x1="789.04" y1="127.72" x2="809.42" y2="121.26"/><line class="g" x1="793.72" y1="139.96" x2="814.1" y2="133.5"/><line class="g" x1="770.37" y1="105.66" x2="777.45" y2="125.83"/><line class="g" x1="757.19" y1="109.72" x2="764.27" y2="129.89"/><line class="g" x1="787.27" y1="149.12" x2="794.35" y2="169.29"/><line class="g" x1="774.09" y1="153.18" x2="781.17" y2="173.35"/><rect class="d" x="-3244.42" y="1185.3" width="4326.76" height="167.27"/><path class="d" d="m208.95,1164.75c36.96-229.35-21.78-340.18-21.78-340.18,0,0,38.19,95.93-1.71,347.72l-1.28,7.63"/><path class="d" d="m163.81,1185.07c-11.16-253.54-67.83-335.49-67.83-335.49,0,0,79.72,89.65,89.29,320.77l.29,14.78"/><path class="d" d="m179.04,1185.04l.1-6.14c3.49-254.22-48.14-345.11-48.14-345.11,0,0,74.15,103.36,70.36,335l-.37,16.16"/><path class="d" d="m217.1,1185.05l.2-13.01c9.57-231.12,89.29-320.77,89.29-320.77,0,0-56.41,80.34-67.57,333.88"/><path class="d" d="m223,1185.1c-3.49-254.22,48.24-350.01,48.24-350.01,0,0-74.15,103.36-70.36,335l.11,14.96"/><line class="d" x1="239.02" y1="1185.15" x2="163.75" y2="1185.13"/><path class="d" d="m224.03,990.83s-51.73,38.12-71.46,134.06c8.03-103.24,41.04-143.91,41.04-143.91,0,0-44.07,34.65-57.29,125.65,7.27-90.57-28.59-128.35-28.59-128.35,0,0,22.82,27.46,8.15,127.93-11.67-92.98-56.24-123-56.24-123,0,0,33.24,35.92,39.38,142.05-18.42-97.14-69.91-132.55-69.91-132.55,0,0,48.61,47.33,57.4,192.32l77.65-.11c10.45-144.88,59.87-194.1,59.87-194.1Z"/><path class="d" d="m438.64,1037.71s-39.41,29.04-54.44,102.13c6.12-78.65,31.27-109.63,31.27-109.63,0,0-33.57,26.4-43.64,95.72,5.54-69-21.78-97.78-21.78-97.78,0,0,17.38,20.92,6.21,97.46-8.89-70.83-42.84-93.7-42.84-93.7,0,0,25.32,27.36,30,108.21-14.03-74-53.26-100.97-53.26-100.97,0,0,37.03,36.06,43.73,146.52l59.16-.08c7.96-110.38,45.61-147.87,45.61-147.87Z"/><circle class="f" cx="827.54" cy="662.2" r="129.21"/><circle class="j" cx="827.94" cy="695.74" r="6.72"/><circle class="j" cx="905.3" cy="732.14" r="6.72"/><path class="f" d="m869.72,715.37l-.5,32.46c-.26,16.86-17.84,27.82-33.09,20.64l-11.73-5.52"/></svg>