<?xml version="1.0" encoding="UTF-8"?><svg id="a" xmlns="http://www.w3.org/2000/svg" viewBox="0 0 960 835"><defs><style>.b{fill:none;stroke:#000;stroke-linecap:round;stroke-linejoin:round;}.c{fill:#fff;}</style></defs><rect class="c" y="-.76" width="960" height="836.52"/><path d="m502.84,574.76c21.39,0,42.53,5.59,61.13,16.17,19.16,10.89,35.08,26.82,46.05,46.07,16.3,28.6,20.49,61.84,11.79,93.59-8.7,31.75-29.24,58.21-57.84,74.51-18.58,10.59-39.65,16.19-60.91,16.19s-42.53-5.59-61.13-16.17c-19.16-10.89-35.08-26.82-46.05-46.07-16.3-28.6-20.49-61.84-11.79-93.58,8.7-31.75,29.24-58.21,57.84-74.51,18.58-10.59,39.65-16.19,60.91-16.19m0-1c-20.85,0-41.99,5.26-61.4,16.32-59.61,33.98-80.4,109.85-46.42,169.46,22.91,40.2,64.88,62.74,108.06,62.74,20.85,0,41.99-5.26,61.4-16.32,59.61-33.98,80.4-109.85,46.42-169.46-22.91-40.2-64.88-62.74-108.06-62.74h0Z"/><g><g><path d="m471.04,680.44c-.23,0-.45-.01-.68-.04-1.58-.18-3-.97-3.99-2.21-.99-1.25-1.44-2.8-1.26-4.39.34-3.01,2.89-5.29,5.92-5.29.23,0,.45.01.68.04,3.27.37,5.62,3.33,5.25,6.6-.34,3.01-2.88,5.29-5.91,5.29h0Z"/><path d="m471.03,669.02c.21,0,.42.01.63.04,1.45.17,2.75.88,3.66,2.03.91,1.14,1.32,2.57,1.15,4.02-.31,2.76-2.64,4.84-5.42,4.84-.21,0-.42-.01-.63-.04-1.45-.17-2.75-.88-3.66-2.03-.91-1.14-1.32-2.57-1.15-4.02.31-2.76,2.64-4.84,5.42-4.84m0-1c-3.24,0-6.04,2.43-6.41,5.73-.4,3.55,2.14,6.75,5.69,7.15.25.03.5.04.74.04,3.24,0,6.04-2.43,6.41-5.73.4-3.55-2.14-6.75-5.69-7.15-.25-.03-.5-.04-.74-.04h0Z"/></g><g><path d="m553.18,684.05c-.23,0-.45-.01-.68-.04-3.27-.37-5.62-3.33-5.25-6.6.34-3.01,2.89-5.29,5.92-5.29.23,0,.45.01.68.04,3.27.37,5.62,3.33,5.25,6.6-.34,3.01-2.89,5.29-5.92,5.29h0Z"/><path d="m553.16,672.62c.21,0,.42.01.63.04,1.45.17,2.75.88,3.66,2.03.91,1.14,1.32,2.57,1.15,4.02-.31,2.76-2.64,4.84-5.42,4.84-.21,0-.42-.01-.63-.04-1.45-.17-2.75-.88-3.66-2.03-.91-1.14-1.32-2.57-1.15-4.02.31-2.76,2.64-4.84,5.42-4.84m0-1c-3.24,0-6.04,2.43-6.41,5.73-.4,3.55,2.14,6.75,5.69,7.15.25.03.5.04.74.04,3.24,0,6.04-2.43,6.41-5.73.4-3.55-2.14-6.75-5.69-7.15-.25-.03-.5-.04-.74-.04h0Z"/></g><path class="b" d="m515.38,676.45l14.08-27.85c7.31-14.47-2.74-31.66-18.94-32.37l-12.45-.55"/></g><path class="b" d="m606.07,107.96l30.64-63.61,6.41-13.32,9.78-20.29,99.9,47.67-9.93,32.91,49.34-14.29,150.54,71.12-6.04,22.22-6.49,23.91c-2.42,13.79-11.63,30.13-24.57,24.8-28.11-11.57-73.27-34.21-87.46-37.03-10.81-2.15-22.35,3.46-30.03,8.72"/><line class="b" x1="644.8" y1="27.56" x2="746.36" y2="74.83"/><line class="b" x1="768.22" y1="85.11" x2="937.47" y2="165.78"/><line class="b" x1="545.08" y1="325" x2="502.96" y2="502.74"/><line class="b" x1="552.08" y1="295.44" x2="550.77" y2="300.99"/><line class="b" x1="565.34" y1="239.5" x2="562.95" y2="249.58"/><polyline class="b" points="720.66 416.97 798.93 197.65 597.44 104.04 574.56 200.61"/><path class="b" d="m353.93,107.96l-30.64-63.61-6.41-13.32-9.78-20.29-99.9,47.67,9.93,32.91-49.34-14.29L17.25,148.16l6.04,22.22,6.49,23.91c2.42,13.79,11.63,30.13,24.57,24.8,28.11-11.57,73.27-34.21,87.46-37.03,10.81-2.15,22.35,3.46,30.03,8.72"/><line class="b" x1="315.2" y1="27.56" x2="213.64" y2="74.83"/><line class="b" x1="191.78" y1="85.11" x2="22.53" y2="165.78"/><line class="b" x1="450.63" y1="354.14" x2="502.96" y2="502.74"/><polyline class="b" points="270.24 456.81 161.07 197.65 362.56 104.04 392.55 189.19"/><path class="b" d="m421.52,535.05l36.3-227.99-147.22-15.75-81.33,336.36c-6.12,25.31-4.82,51.86,3.75,76.45l10.19,29.23c18.78,53.88,69.3,90.23,126.36,90.9h0"/><path class="b" d="m570.5,260.74l-13.06-18.14c-2.65-5.05-8.38-7.65-13.92-6.32h0c-7.02,1.68-11.14,8.95-8.98,15.83l.65,2.06c6.73,21.45,7.57,27.64,20.74,45.85h0"/><path class="b" d="m570.5,260.74l-9.76-44.67c-1.49-6.82,2.96-13.51,9.83-14.77h0c6.64-1.22,13.04,3.12,14.35,9.75l8.14,41.27"/><path class="b" d="m592.73,250.63l-9.42-47.56c-1.49-6.82,2.96-13.51,9.83-14.77h0c6.64-1.22,13.04,3.12,14.35,9.75l11.02,51.11"/><path class="b" d="m618.5,249.16l-9.27-42.45c-1.49-6.82,2.96-13.51,9.83-14.77h0c6.64-1.22,13.04,3.12,14.35,9.75l8.14,41.27"/><path class="b" d="m641.78,244.86l-4.92-27.27c-1.49-6.82,2.96-13.51,9.83-14.77h0c6.64-1.22,13.04,3.12,14.35,9.75l8.14,41.27,6.45,32.89"/><path class="b" d="m426.87,258.87l10.35-19.81c1.9-5.37,7.21-8.76,12.88-8.24h0c7.18.67,12.3,7.28,11.14,14.4l-.35,2.13c-3.61,22.18-7.65,37.43-18.1,57.33h0"/><path class="b" d="m426.87,258.87l3.31-45.61c.5-6.96-4.85-12.95-11.83-13.23h0c-6.75-.27-12.46,4.94-12.81,11.69l-2.19,42"/><path class="b" d="m403.43,252.03l2.56-48.42c.5-6.96-4.85-12.95-11.83-13.23h0c-6.75-.27-12.46,4.94-12.81,11.69l-3.64,52.16"/><path class="b" d="m377.72,254.23l3.14-43.34c.5-6.96-4.85-12.95-11.83-13.23h0c-6.75-.27-12.46,4.94-12.81,11.69l-2.19,42"/><path class="b" d="m354.07,253.29l1-27.69c.5-6.96-4.85-12.95-11.83-13.23h0c-6.75-.27-12.46,4.94-12.81,11.69l-2.19,42-1.38,26.99"/><path class="b" d="m369.57,824.25l133.39-1.97,127.19-2.85h0c57.06-.68,107.58-37.02,126.36-90.9l10.19-29.23c8.57-24.59,9.87-51.13,3.75-76.45l-81.33-336.36-147.22,15.75,36.3,227.99"/></svg>