<?xml version="1.0" encoding="utf-8"?>
<!-- Generator: Adobe Illustrator 27.1.1, SVG Export Plug-In . SVG Version: 6.00 Build 0)  -->
<svg version="1.1" id="uuid-6e717374-b300-4333-b3b9-3f7004a7ec40"
	 xmlns="http://www.w3.org/2000/svg" xmlns:xlink="http://www.w3.org/1999/xlink" x="0px" y="0px" viewBox="0 0 1080 1080"
	 style="enable-background:new 0 0 1080 1080;" xml:space="preserve">
<style type="text/css">
	.st0{fill:#FFFFFF;}
	.st1{fill:#FFFFFF;stroke:#000000;stroke-width:2;stroke-miterlimit:10;}
	.st2{fill:none;stroke:#000000;stroke-width:2;stroke-miterlimit:10;}
</style>
<rect class="st0" width="1080" height="1080"/>
<path class="st1" d="M809.5,773.6c-10.3-25.2,8.2-56.6,41.3-70c33.1-13.4,68.2-3.8,78.5,21.4l23.2-9.4c-14.2-35-63-48.3-108.8-29.7
	c-45.9,18.6-71.6,62.2-57.3,97.2L809.5,773.6L809.5,773.6z"/>
<path class="st1" d="M474.5,226.3c0,70.8-38.1,128.2-85.1,128.2s-85.1-57.4-85.1-128.2h-33c0,98.2,52.9,177.9,118.1,177.9
	s118.1-79.6,118.1-177.9L474.5,226.3L474.5,226.3z"/>
<path class="st1" d="M347,532.1h467.9c31.8,0,57.7,25.8,57.7,57.7v4.3c0,31.8-25.8,57.7-57.7,57.7H347c-31.8,0-57.6-25.8-57.6-57.7
	v-4.3C289.3,557.9,315.1,532.1,347,532.1z"/>
<path class="st1" d="M321.6,446.2h518.6c17.8,0,32.3,14.5,32.3,32.3v2.4c0,17.8-14.5,32.3-32.3,32.3H321.6
	c-17.8,0-32.3-14.5-32.3-32.3v-2.4C289.3,460.6,303.8,446.2,321.6,446.2z"/>
<rect x="467.7" y="106.8" class="st1" width="60.9" height="168.8"/>
<path class="st2" d="M64.1,9.8c0,0,55.1,299.9,190,395.5c4.1,2.9,8.9,4.5,13.9,4.5h538.8c78.9,0,142.8,62.3,142.8,139.2l0,0
	c0,76.9-63.9,139.2-142.8,139.2H267.9c-6.3,0-12.5,1.4-18.1,4.2C154,741,64,1072,64,1072"/>
<ellipse class="st1" cx="64.1" cy="540.9" rx="54.2" ry="531.1"/>
<rect x="438.5" y="263.1" class="st1" width="115.7" height="707.3"/>
<g>
	<ellipse class="st1" cx="496.4" cy="106.8" rx="60.6" ry="64"/>
	<ellipse class="st1" cx="496.4" cy="90.2" rx="60.6" ry="64"/>
</g>
<rect x="604.3" y="105.9" class="st1" width="60.9" height="168.8"/>
<rect x="575.1" y="262.3" class="st1" width="115.7" height="707.3"/>
<g>
	<ellipse class="st1" cx="633" cy="105.9" rx="60.6" ry="64"/>
	<ellipse class="st1" cx="633" cy="89.4" rx="60.6" ry="64"/>
</g>
<rect x="743" y="105.9" class="st1" width="60.9" height="168.8"/>
<g>
	<ellipse class="st1" cx="771.7" cy="105.9" rx="60.6" ry="64"/>
	<ellipse class="st1" cx="771.7" cy="89.4" rx="60.6" ry="64"/>
</g>
<path class="st1" d="M1039.8,271.6c0,0-20,90.6-71.5,117.9h-185v91.4h185c36.8,8.3,71.5,111,71.5,111"/>
<ellipse class="st1" cx="1039.8" cy="431.8" rx="26.6" ry="160.2"/>
<rect x="713.8" y="262.3" class="st1" width="115.7" height="707.3"/>
<circle class="st1" cx="332.5" cy="793.4" r="106"/>
<circle class="st1" cx="332.5" cy="793.4" r="76.4"/>
</svg>
