<?xml version="1.0" encoding="UTF-8"?><svg id="uuid-fce70c89-fe1c-44de-a61b-110366033079" xmlns="http://www.w3.org/2000/svg" viewBox="0 0 1200 1200"><polygon points="3336.39 -7.88 3509.38 124.6 3411.65 277.71 3545.21 386.84 3393.55 643.8 3543.65 746.78 3447.96 944.06 3599.57 1208.65 -17.65 1243.04 -17.65 -20.92 3336.39 -7.88" fill="#adadad" stroke="#000" stroke-miterlimit="10" stroke-width=".75"/><polygon points="787.72 15.8 733.67 42.51 724.25 78.33 737.13 106.93 807.2 96.24 810.34 53.82 787.72 15.8" fill="#fff" stroke="#000" stroke-linecap="round" stroke-linejoin="round"/><path d="m831.54,54.94l22.35-20.05c6.4-5.74,7.3-15.43,2.08-22.25h0c-5.69-7.44-16.43-8.63-23.62-2.63l-16.08,12.32" fill="#fff" stroke="#000" stroke-linecap="round" stroke-linejoin="round"/><path d="m804.08,53.26l22.35-20.05c6.4-5.74,7.3-15.43,2.08-22.25h0c-5.69-7.44-16.43-8.63-23.62-2.63l-16.08,12.32" fill="#fff" stroke="#000" stroke-linecap="round" stroke-linejoin="round"/><path d="m774.43,51.94l22.35-20.05c6.4-5.74,7.3-15.43,2.08-22.25h0c-5.69-7.44-16.43-8.63-23.62-2.63l-16.08,12.32" fill="#fff" stroke="#000" stroke-linecap="round" stroke-linejoin="round"/><path d="m752.89,57.6l22.35-20.05c6.4-5.74,7.3-15.43,2.08-22.25h0c-5.69-7.44-16.43-8.63-23.62-2.63l-19.17,16.18c-10.48,8.85-16.97,21.54-18,35.21l-1.86,24.72" fill="#fff" stroke="#000" stroke-linecap="round" stroke-linejoin="round"/><path d="m739.88,85.96l-28.19-34.72c-6.49-8.44-18.57-10.09-27.08-3.7h0c-7.64,5.73-9.99,16.16-5.54,24.61,13.86,26.33,41.5,79.1,41.5,81.11l13.31,19.83,109.39,14.35,58.58-96.24-42.44-49.02" fill="#fff" stroke="#000" stroke-linecap="round" stroke-linejoin="round"/><polygon points="419.63 760.01 320.14 830.09 207.55 816.94 127.98 675.14 131.13 589.27 385.59 600.3 454.92 682.23 462.01 754.71 419.63 760.01" fill="#0085ff" stroke="#000" stroke-miterlimit="10"/><path d="m271.95,1065.64c4.68,8.01,12.7,17.98,23.36,20.65,14,3.5,64.34,2.32,94.6,3.86,13.94.71,15.27,19.36,11.59,32.82l-8.35,46.91h-165.98s-38.39-33.89-38.39-33.89l-5.06,33.89-110.35.43-.79-104.14" fill="#fff" stroke="#000" stroke-linecap="round" stroke-linejoin="round"/><line x1="73.23" y1="1151.7" x2="186.34" y2="1152.36" fill="#fff" stroke="#000" stroke-linecap="round" stroke-linejoin="round"/><line x1="207.36" y1="1152.4" x2="395.9" y2="1151.75" fill="#fff" stroke="#000" stroke-linecap="round" stroke-linejoin="round"/><path d="m300.51,763.37l24.53,84.1c9.43,26.67,10.58,55.57,3.3,82.91l-35.83,134.65-234.75,1.76,45.81-128.64c11.94-33.53,10.7-70.35-3.47-103.01h0s-18.97-64.19-18.97-64.19c-10.26-34.72-11.66-71.46-4.08-106.86l18.84-67.74" fill="#0085ff" stroke="#000" stroke-miterlimit="10"/><path d="m103.93,480.72l-11.83,88.22c-3.25,24.22,11.22,47.36,34.66,55.45h0c52.92,18.27,109.04,25.81,165,22.18l28.27-1.83c2.34-.15,4.67-.39,6.99-.71l114.39-15.89,37.15-45.35,25.62-63.99-13.43-119.53c-3.7-27.19,29.59-84.69,34.67-93.27.42-.7.79-1.58.79-1.58" fill="#fff" stroke="#000" stroke-linecap="round" stroke-linejoin="round"/><path d="m959.41,1066.28c4.68,8.02,12.7,18,23.36,20.66,14,3.5,64.34,2.33,94.6,3.87,13.94.71,15.27,19.38,11.59,32.84l-8.35,46.95h-165.98s-38.39-33.91-38.39-33.91l-5.06,33.91-110.35.43-.79-104.22" fill="#fff" stroke="#000" stroke-linecap="round" stroke-linejoin="round"/><line x1="760.69" y1="1152.35" x2="873.79" y2="1153" fill="#fff" stroke="#000" stroke-linecap="round" stroke-linejoin="round"/><line x1="894.82" y1="1153.04" x2="1083.35" y2="1152.39" fill="#fff" stroke="#000" stroke-linecap="round" stroke-linejoin="round"/><path d="m1145.94,1065.82c4.68,8.01,12.7,17.98,23.36,20.65,14,3.5,64.34,2.32,94.6,3.86,13.94.71,15.27,19.36,11.59,32.82l-8.35,46.91h-165.98s-38.39-33.89-38.39-33.89l-5.02,34.42-110.39-.1-.79-104.14" fill="#fff" stroke="#000" stroke-linecap="round" stroke-linejoin="round"/><line x1="947.22" y1="1151.88" x2="1060.33" y2="1152.53" fill="#fff" stroke="#000" stroke-linecap="round" stroke-linejoin="round"/><line x1="1081.35" y1="1152.58" x2="1269.89" y2="1151.92" fill="#fff" stroke="#000" stroke-linecap="round" stroke-linejoin="round"/><path d="m1312.95,1065.79c-4.68,8.01-12.7,17.98-23.36,20.65-14,3.5-64.34,2.32-94.6,3.86-13.94.71-15.27,19.36-11.59,32.82l8.35,46.91h165.98l38.39-33.89,5.06,33.89,110.35.43.79-104.14" fill="#fff" stroke="#000" stroke-linecap="round" stroke-linejoin="round"/><line x1="1377.53" y1="1152.55" x2="1189" y2="1151.9" fill="#fff" stroke="#000" stroke-linecap="round" stroke-linejoin="round"/><path d="m717.59,723.51l1.98,62.37c1.43,45.15,30.53,84.74,73.19,99.58l57.68,20.07-112.08,165.45,247.02-3.35,75.88-218.14,112.62-50.42" fill="#fff" stroke="#000" stroke-linecap="round" stroke-linejoin="round"/><path d="m813.8,799.58l2.09,8.69c9.28,38.55,40.06,68.23,78.92,76.11l113.73,23.06-78.13,160.48,249.84-1.38,55.5-116.79c28.58-60.15,1.28-131.99-60.04-157.96l-107.04-46.45-85.79-40.12" fill="#fff" stroke="#000" stroke-linecap="round" stroke-linejoin="round"/><path d="m1106.84,624.59l-.08,55.58c.11,37.3-27.8,68.74-64.85,73.05l-97.34,11.34c-68.69,8-138.28-2.45-201.59-30.29l-21.26-9.35c-27.59-12.13-44.95-39.92-43.76-70.04l7.17-180.64,9.7-321.72,169.67,12.35-1.65,99.66,18.14,189.33,86.09,34.77" fill="#f93d00" stroke="#000" stroke-miterlimit="10"/><circle cx="887.14" cy="383.25" r="133.18" fill="#fff" stroke="#000" stroke-linecap="round" stroke-linejoin="round"/><g><circle cx="894.68" cy="355.49" r="6.93" stroke="#000" stroke-linecap="round" stroke-linejoin="round"/><circle cx="978.29" cy="327.64" r="6.93" stroke="#000" stroke-linecap="round" stroke-linejoin="round"/><path d="m939.82,340.43l22.7,24.58c11.79,12.76,6.47,33.44-10.01,38.93l-12.67,4.22" fill="none" stroke="#000" stroke-linecap="round" stroke-linejoin="round"/></g><polygon points="789.11 21.21 755.51 76.14 775.95 135.89 880.29 161.58 890.84 216.49 965.76 241.46 1008.91 238.29 1051.77 280.31 1137.36 247.42 1268.89 291.15 1287.4 257.15 1352.02 256.76 1309.81 155.45 1239.05 94.41 1139.17 95.8 1080.9 23.66 930.34 29.65 789.11 21.21" fill="#ebeeea" stroke="#000" stroke-miterlimit="10"/><path d="m1229.85,290.09l-1.46,34.34-108.72-4.37-13.72-68.87c-6-14.24-5.01-30.47,2.68-43.88l3.44-6c5.49-9.58,17.96-12.47,27.11-6.29h0c8.36,5.65,10.84,16.84,5.66,25.49l-8.05,13.43,20.96,19.06,72.11,37.09" fill="#fff" stroke="#000" stroke-linecap="round" stroke-linejoin="round"/><path d="m1196.16,255.46l46.22,3.54c8.83.68,15.44,8.38,14.77,17.21h0c-.68,8.83-8.38,15.44-17.21,14.77l-46.22-3.54" fill="#fff" stroke="#000" stroke-linecap="round" stroke-linejoin="round"/><path d="m1178.92,254.39l46.22,3.54c8.83.68,15.44,8.38,14.77,17.21h0c-.68,8.83-8.38,15.44-17.21,14.77l-46.22-3.54" fill="#fff" stroke="#000" stroke-linecap="round" stroke-linejoin="round"/><path d="m1157.74,253.01l46.22,3.54c8.83.68,15.44,8.38,14.77,17.21h0c-.68,8.83-8.38,15.44-17.21,14.77l-46.22-3.54" fill="#fff" stroke="#000" stroke-linecap="round" stroke-linejoin="round"/><path d="m967.53,489.44l82.62-13.1c17.83-2.83,31.31-17.63,32.46-35.65l8.17-127.87,169.65-6.11-7.83,165.83c-3.46,73.3-56.41,134.83-128.38,149.17l-60.18,11.34" fill="#f93d00" stroke="#000" stroke-miterlimit="10"/><line x1="281.24" y1="488.95" x2="227.98" y2="429.7" fill="#fff" stroke="#000" stroke-linecap="round" stroke-linejoin="round"/><path d="m246.06,422.44l145.2,22.33-7.6,162.86-230.08-46.44c-76.68-15.48-120.56-96.68-91.5-169.3l18.74-46.84c15.71-39.25,49.83-68.16,91.12-77.22l188.82-24.29c12.67-1.63,22.2-12.34,22.34-25.11h0s33.71-9.32,33.71-9.32l44.52-6.58,64.56,102.15" fill="#fff" stroke="#000" stroke-linecap="round" stroke-linejoin="round"/><circle cx="236.55" cy="182.49" r="133.18" fill="#fff" stroke="#000" stroke-linecap="round" stroke-linejoin="round"/><g><circle cx="230.89" cy="193.58" r="6.93" stroke="#000" stroke-linecap="round" stroke-linejoin="round"/><circle cx="318.92" cy="189.41" r="6.93" stroke="#000" stroke-linecap="round" stroke-linejoin="round"/><path d="m278.42,191.31l15.2,29.8c7.9,15.48-2.82,33.95-20.18,34.77l-13.34.63" fill="none" stroke="#000" stroke-linecap="round" stroke-linejoin="round"/></g><path d="m552.43,852.61c7.25,5.79,18.31,12.23,29.21,10.89,14.32-1.76,60.88-20.93,89.68-30.36,13.26-4.35,21.21,12.59,22.6,26.47l9.05,46.78-154.91,59.59-48-17.85,7.44,33.45-102.84,40.02-38.12-96.92" fill="#fff" stroke="#000" stroke-linecap="round" stroke-linejoin="round"/><line x1="397.85" y1="1004.28" x2="503.65" y2="964.28" fill="#fff" stroke="#000" stroke-linecap="round" stroke-linejoin="round"/><line x1="523.29" y1="956.77" x2="699.02" y2="888.48" fill="#fff" stroke="#000" stroke-linecap="round" stroke-linejoin="round"/><path d="m439.13,712.75l-92.13,222.19,233.78-94.12,57.65-225.71c10.82-41.49-9.49-84.8-48.31-103.01h0c-32.87-15.41-71.8-9.32-98.38,15.41l-109.22,109.22" fill="#0085ff" stroke="#000" stroke-miterlimit="10"/><path d="m671.44,928.94l-211.28,49.46s73.57,185.29,143.63,196.82c0,0,77.79-41.63,67.66-246.27Z" fill="#fff" stroke="#000" stroke-linecap="round" stroke-linejoin="round"/><path d="m484.99,355.5c.77-2.76.82-5.67.16-8.46l-.06-.25c-2.16-9.09-11.27-14.73-20.37-12.59l-77.95,18.3c-9.37,2.2-15.04,11.76-12.47,21.04.71,2.55,2,4.9,3.78,6.86l30.1,33.21c9.12,10.06,15.49,22.31,18.49,35.55l118.75,524.51c6.71,29.63,21.26,56.91,42.12,79h0s.1-.32.1-.32c9.07-28.67,10.34-59.24,3.7-88.56l-119.11-526.08c-2.84-12.55-2.57-25.61.8-38.04l11.96-44.17Zm-80.18,15.64l51.76-12.63c3.01-.74,5.72,2.02,4.93,5.02l-15.52,59.22c-.14.52-.55.92-1.08,1.04h0c-.51.12-1.05-.05-1.4-.45l-40.78-45.49c-2.07-2.3-.93-5.98,2.08-6.71Z" fill="#fff" stroke="#000" stroke-linecap="round" stroke-linejoin="round"/><path d="m479.02,540.5l-.02,1.14c-.41,20.2-17.11,36.24-37.31,35.82l-56.52-1.37,4.91-106.14,43.3-34.07c7.83-6.4,19.57-3.95,24.19,5.05h0c3,5.84,2.09,12.93-2.28,17.83l-4.45,4.99c-5.86,6.57-3.55,17.11,4.64,20.33.06.02.11.04.17.07h0c4.95,1.89,10.48,1.48,15.1-1.11l1.65-.92c3.64-2.04,6.42-5.26,7.91-9.08" fill="#fff" stroke="#000" stroke-linecap="round" stroke-linejoin="round"/><path d="m447.29,557.12c20.2.42,36.9-15.63,37.31-35.82l-2.73-19.93" fill="#fff" stroke="#000" stroke-linecap="round" stroke-linejoin="round"/><path d="m452.03,537.7c.56.01,1.12.01,1.67,0,23.91-.59,39.68-25.29,31.11-47.61l-.84-2.18" fill="#fff" stroke="#000" stroke-linecap="round" stroke-linejoin="round"/><g><path d="m389.29,143.55c-1.16-72.81-69.02-130.77-151.57-129.46S89.18,75.48,90.33,148.29l298.96-4.75Z" fill="#ebeeea" stroke="#000" stroke-miterlimit="10"/><circle cx="299.73" cy="96.77" r="30.61" fill="#ebeeea" stroke="#000" stroke-miterlimit="10"/><circle cx="310.75" cy="96.08" r="30.61" fill="#ebeeea" stroke="#000" stroke-miterlimit="10"/></g><path d="m452.01,520.14c11.8.24,22.41-5.13,29.27-13.67,7.64-9.51,7.13-23.21-.76-32.51" fill="#fff" stroke="#000" stroke-linecap="round" stroke-linejoin="round"/><path d="m188.51,105.73c-15.58,2.78-30.1,10.19-41.58,21.42l-3.94,3.85c-10.05,12.06-3.02,30.46,12.5,32.76h0c6.69.99,13.44-1.45,17.94-6.5l4.96-5.56c6.02-6.74,13.67-11.83,22.22-14.78l1.47-.51c4.47-1.54,9.27,1.27,10.1,5.93l1.54,8.55c1.8,10.01,10.77,17.12,20.93,16.59h0c10.16-.53,18.34-8.53,19.1-18.68h0c.68-9.14,7.88-16.44,17.01-17.25l20.06-1.77,2.64-78.64-33.22-8.82-29.89,3.41-24.22,9.55-15.01,6.82-3.75,21.49-5.12,21.15" fill="#fff" stroke="#000" stroke-linecap="round" stroke-linejoin="round"/><path d="m185.83,87.85c-13.62,3.38-26.23,10.34-36.43,20.32l-3.94,3.85c-10.05,12.06-3.02,30.46,12.5,32.76h0c6.69.99,13.44-1.45,17.94-6.5l14.15-15.84" fill="#fff" stroke="#000" stroke-linecap="round" stroke-linejoin="round"/><path d="m211.92,65.97c-21.41-.51-42.12,7.66-57.43,22.64l-3.94,3.85c-10.05,12.06-3.02,30.46,12.5,32.76h0c6.69.99,13.44-1.45,17.94-6.5l14.15-15.84" fill="#fff" stroke="#000" stroke-linecap="round" stroke-linejoin="round"/><path d="m200.42,78.23l-14.15,15.84c-4.51,5.05-11.25,7.49-17.94,6.5h0c-15.52-2.3-22.55-20.7-12.5-32.76l3.94-3.85c15.31-14.98,36.02-23.14,57.43-22.64l43.04,1.02" fill="#fff" stroke="#000" stroke-linecap="round" stroke-linejoin="round"/><path d="m383.1,218.43l.52-60.6-112.88,1.77-1.26-129.25,161.13-1.82c63.23-.71,114.56,50.93,113.46,114.15l-1.64,94.38c-.32,18.57-4,36.94-10.85,54.21l-5.7,13.92" fill="#fff" stroke="#000" stroke-linecap="round" stroke-linejoin="round"/><path d="m1013.96,290.37c-24.19-68.69-106.93-102.13-184.81-74.71-77.88,27.42-121.4,105.34-97.21,174.02l282.02-99.31Z" fill="#ebeeea" stroke="#000" stroke-miterlimit="10"/><circle cx="914.18" cy="274.41" r="30.61" fill="#ebeeea" stroke="#000" stroke-miterlimit="10"/><circle cx="924.42" cy="270.26" r="30.61" fill="#fffba3" stroke="#000" stroke-miterlimit="10"/><rect x="-110.78" y="1170.21" width="5121.3" height="107.06" fill="#adadad" stroke="#000" stroke-miterlimit="10" stroke-width=".75"/></svg>