<?xml version="1.0" encoding="utf-8"?>
<!-- Generator: Adobe Illustrator 27.1.1, SVG Export Plug-In . SVG Version: 6.00 Build 0)  -->
<svg version="1.1" id="Layer_1" xmlns="http://www.w3.org/2000/svg" xmlns:xlink="http://www.w3.org/1999/xlink" x="0px" y="0px"
	 viewBox="0 0 3000 3000" style="enable-background:new 0 0 3000 3000;" xml:space="preserve">
<style type="text/css">
	.st0{fill:#FAE2D3;}
	.st1{fill:#FFFFFF;}
	.st2{fill:#22533A;}
	.st3{fill:#FF5723;}
	.st4{fill:none;stroke:#000000;stroke-width:10;stroke-linecap:round;stroke-linejoin:round;}
	.st5{stroke:#000000;stroke-width:10;stroke-linecap:round;stroke-linejoin:round;}
</style>
<path class="st0" d="M0,0h3000v3000H0V0z"/>
<circle class="st1" cx="1260" cy="970.9" r="211.3"/>
<path class="st1" d="M1815.2,1156.8l-2.8-27.5l-14.7-48.5l-11.9-30.2l-19.7-3.7l-6.4,12.4l6.9,26.3l0.9,9.9l-7.8,4.2l-5.9-6
	l-26.6-60.9l-16.5-2.3l-7.3,7.3l2.8,19.2l15.1,38.9l-7.8,0.9l-35.3-49.5l-11.2-6.3l-7.2,3.6l-7.7,3.9v11.6l39.8,66.9l-0.9,7.3
	l-4.1,0.5l-9.6-6.4l-41.2-40.4l-13.3,1l-5.7,5.8l-1.2,8.9l46.2,55.9l-16.7-5.3l-14.4-4.8l-8.7,2.8l-5,9.8l3.6,11.3l27.9,24.6
	l32.5,21.6l17.4,6.4L1815.2,1156.8z"/>
<path class="st1" d="M1464.6,1367.5l10.1-38.6c0,0,31-60.6,32.1-60.6s14.8-4.9,14.8-4.9l10,5.1l3.8,6.1l-9.1,40.9l45-61.3l10.6-2
	l9.5,5.2l7,9.9l-4.6,12.8l-31,41.4l-3.8,9.8l4.4,1l50.5-41.8l14.4-10.2l10.6,1.7l10.3,8.7l-1.5,11.2l-47.5,49.8l0.2,3.9l47.1-26.3
	l10.1-1.3l10.2,17.2l-6.1,10.3l-56.4,36.8l3.1,7.9l15.6-1.6l16.1-7.6l12.5-0.8l6.1,6.6l-1.8,15.8l-13.5,10.7l-82.1,35.6l-32.5-26.6
	L1464.6,1367.5L1464.6,1367.5z"/>
<path class="st2" d="M1590.5,1448.6l32.4,51.4l-28.6-2.7L1561,1459L1590.5,1448.6z"/>
<path class="st2" d="M1374,1171.4l26.5-39.4l-33.7,26.1l-36.8,12.2l-36.7,11.9l-50.1-1.3l-35.5-1.6l-36.2-8.9l-38.4-27.4l-33.9-29.5
	l-18.7-27.9l-52.9,32.3l-36.2,28.7l-39.9,46.2l-17,33.8l-13.5,28.5l-3.6,26.8l-3.1,22l-1.1,44.4l5,30.7l2.8,31.4l3.7,29.9l1,42
	l-0.8,54.2l-6.1,52.8L914,1635l-14.7,61.6l-9.8,40.2l-12.3,36.9l-22.1,54.1l-31.2,59.8l-21.3,31.2l-31.2,43.4l-41.8,46.7l-27.9,33.6
	l-55.7,62.3l-64.8,67.2l-51.6,45.1l-22.5,22.9l856.5,143.3l5.1-31.7l123.8,18.9v-9.5l-100.6-126.4h-4.3l64.6-399.8l6.7-49.2
	l7.3-111.7l3.1-103.4l125.1-73.3l-154-146.6l-39.4,18.5l-20.7-44.7l-14.8-42.2l-7-50.7l4.7-36.2L1374,1171.4z"/>
<path class="st2" d="M1648.1,1551.5l-30.8-60.4l-22.9,6.2l-46.2,26l76.2,388l26.5,39.3l125.7,172.8l136.5,182.7l105.1-91.3
	L1648.1,1551.5z"/>
<path class="st2" d="M1853.8,1134.3l-202.7,118.6l52,83.2l28.6,33.6l27.1,15.1l27,7.8l23.4,0.6l23.4-5.4l26.4-10.8l20.4-15l17.4-24
	l12.6-22.2l2.8-29.1l-1.7-24l-7.7-24.3l-42-106.4L1853.8,1134.3z"/>
<path class="st1" d="M1548.1,1523.3l74.8,376.9l15.2,30.9l433.8,601.5l-287.7,202.1l-392.3-499.9l1.9-30.1l62.2-397.8l13.3-236.2
	l21.6-12.7l27.6-18L1548.1,1523.3z"/>
<path class="st1" d="M695.9,2274.3l-267,242.8l327.1,132.1l389.2-301.8L695.9,2274.3z"/>
<path class="st3" d="M1842.7,2693.6l68.4,105.2l110-69l-18.3-37.5l59,9.6l161-104.4l-22.3-53.4l-13.6-20.7l-15.9-3.2l-91.7,55.8
	l-30.3-2.4l-22.9-8.8L1842.7,2693.6z"/>
<path class="st3" d="M430.2,2610.4v181.9h125l10.4-40.1l43.7,40.1h191.4l11.1-63v-16l-7.5-11.9l-23-2.6l-85.4-2.6l-26.3-12
	l-14.6-27.8l-4.2-16.6l22.2-24.1l-181.8-71.8L430.2,2610.4z"/>
<path class="st1" d="M2310.5,2676.9l158.8-1.5h50l29.9,16.7l17.1,25l4.7,31.9l-4.2,23l-12.2,20.1l-10.8,14.7l-19.3,9.1h-21.4
	l-29.9,0.7H2308l-29.1-10.1l-18.5-16.4l-10.3-16.2l-6.2-21.6v-23l13.1-26l13.7-13.7l19.6-10.3L2310.5,2676.9z"/>
<path class="st3" d="M1225.5,1444.7l-25.6-67.6l-29.4-74.1l-3.5-31l12.9-26.3l14.1-18.2L1153,1132l42.7-14.1l39.2,89l43.9,9.4
	l8.8-2.9l15.2-53.9l64.9,21.5v-28.3l5.9-44.1l28.1-53.7l28.7-36l29.3-25.5l29.3-16.7l28.1-17l24.4-25.6l40-69.4l12.9,15.1l24.3-11
	l6.3,18.9l-13.4,34.8l-8.6,37.4l4.8,33.5l12.8,36.1l26.6-18l57.5-22.3l43.1-13.7l24.4-15.1l37.4-33.1l6.5,24.4l20.1-2.9l11.5,15.1
	l-17.2,37.3l-3.7,36l3.7,45.5l-18,46.6l-11.5-41l-15-37.8l-13.7-6.8l-13.7,7.9l8.2,33.8l0.9,9.9l-7.8,4.2l-10-14.1l-22.5-52.8
	l-11.7-5.3l-10,6.6l-3.5,13l19.2,48.8l-7.8,0.9l-39.8-54.2l-11.6-1l-9.8,6.9v18.7l39.8,59.8l-0.9,7.3l-11.4-2.3l-43.5-44.1l-13.3,1
	l-6.9,9l4.5,11.1l39.3,45.6h-6.3l-26.2-5.5l-8.5,8.6l5.8,22.3l69.8,45.2l-43.2,27.6l64.5,97.9l-12.6,11.3l-13.6,19l-31.1,15.8
	l-6.1-6.6l-12.5,0.8l-28.2,11.3l-6.5-10.1l56.4-36.8l6.1-14.6l-4.8-8.7l-10.6-3.6l-52.1,26.9l-0.2-3.9l47.5-49.8l1.5-11.2l-10.3-8.7
	l-10.6-1.7l-64.8,52l-4.4-1l3.8-9.8l31.8-48.4l1.3-13.3l-5.1-7.7h-8.7l-55.5,63.3l7.1-26l-1.8-20.9l-14.5-5.6l-14.6,12.8l-27.8,53.3
	l-10.1,38.6l-9.8-4.5l-14.4-12.2l-91.7,49.7l-113.9,53.8L1225.5,1444.7z"/>
<path class="st1" d="M1852.2,956.1l9-18.4l28.7-14.8l12.1-3.1l8.1-9.9l-1.8-12.1l-23.3-12.6l-22.4-15.7l-14.1-17.3l-19.1,5.2
	l-6.7,14.8l4.5,21.1l-11.8,29l-2.5,24.4l23.5,2.2l15.5,15.1L1852.2,956.1z"/>
<path class="st1" d="M1628.2,878.5l8.3-21.7l28.6-17.4l5.4-12.3l-4.3-11.6l-18.8-7.2l-22.9-3.6l-18.4-16.3l-13.4-2.2l-13.1,10.9
	l1.8,18.1l5.8,19.6l-3.3,25.9l10.4,19.2l20.8-12.8l9.8,20.8L1628.2,878.5z"/>
<g>
	<path class="st4" d="M1116.6,1303.9l115.8,150.2l56-27.9l53.2-26.5l98.7-49.1l156.6,145.2l-10.2,5.8l-94.3,53l-146.3,82.2
		c-112.1,63-253.8,29.8-326.2-76.5l-63.8-93.6c-80.8-118.5-44.4-280.7,79.3-353.3c19.1-11.2,33.4-19.7,43.9-25.9"/>
	<path class="st4" d="M917.8,1375.2l4.4,46.2c13.2,137.9-9.4,277.1-67.2,403c-21.8,47.5-49.4,95.2-84.2,137.7
		c-139.4,170.2-263.8,278.4-263.8,278.4l856.8,143.5l53-331.1l39.1-243.9l15.6-242.8"/>
	<path class="st4" d="M1145.3,2347.5l-386.6,301.8l-328.5-132.7l267.7-244"/>
	<path class="st4" d="M1388.7,2228.7l396.6,506l286.7-203.4L1668.2,1973c-28.4-39.2-47.9-84.1-57.3-131.6l-62.8-318.1"/>
	<path class="st4" d="M656.6,2664.2l4,6.6c5.4,9.3,14.7,20.9,27.1,23.9c16.2,4.1,74.6,2.7,109.7,4.5c16.2,0.8,17.7,22.4,13.4,38.1
		l-9.7,54.4H608.7l-44.5-39.3l-5.9,39.3l-127.9,0.5l-1.4-182l219.5,32.3L656.6,2664.2L656.6,2664.2z"/>
	<path class="st4" d="M430.2,2770.7l129.5,0.8"/>
	<path class="st4" d="M587.6,2771.5l216.7-0.8"/>
	<path class="st4" d="M1842.7,2693.6l69.4,105.2l107-70.1l-16.5-36.1l58.7,8.7l161.4-104.8l-21.5-50.9c-4.9-15.4-18-32.7-32-24.6
		c-30.4,17.6-78.6,50.5-94.4,56c-12.1,4.1-26.1-0.5-35.8-5.3l-7-3.4"/>
	<path class="st4" d="M1900.2,2780.8l109-69.9"/>
	<path class="st4" d="M2032.7,2695.7l181.3-118.6"/>
	<path class="st4" d="M1590.5,1448.2l28.7,51.4l113.1,203.1l285.9,513.3l-106.2,94.1"/>
	<path class="st4" d="M1857.8,1132l45.3,106.2c21.2,49.7,3.7,107.5-41.5,137.1c-53.1,34.7-124.3,18.2-156.8-36.3l-52.5-88.3
		L1857.8,1132z"/>
	<circle class="st4" cx="2501.1" cy="2745.8" r="70"/>
	<path class="st4" d="M2501.1,2675.9h-187.1"/>
	<path class="st4" d="M2501.1,2815.8h-187.1"/>
	<path class="st4" d="M2313.9,2815.8c-38.6,0-70-31.3-70-70s31.3-70,70-70"/>
	<circle class="st4" cx="2509.2" cy="2778.1" r="15.3"/>
	<path class="st4" d="M1499.9,2370.6l-130.9-18.9"/>
	<path class="st4" d="M491.3,2543.9l-62.4,66.3"/>
	<path class="st4" d="M648.4,2642.5l25.3-27.5"/>
	<path class="st4" d="M1559.2,1459c4.9-1.8,14.6-5,22.5-7.6s15.9-6,23.3-10l46.4-24.9c7.9-4.3,11.1-13.7,7-21.2
		c-4.1-7.4-13.8-10-21.7-5.7l-22.9,12.3c-4.5,2.4-9.9-0.8-9.9-5.9c0-2.3,1.2-4.4,3.1-5.7l52.2-33.1c7.6-4.8,10-14.5,5.5-21.6
		c-4.6-7.1-14.4-9-22.1-4.2l-52.4,33.2c-1.6,1-3.7,0.5-4.6-1.2c-0.7-1.3-0.5-2.9,0.6-3.9l8.6-8.4l47.6-45c6.5-6.2,7.1-16.1,1.2-22.2
		c-5.8-6.1-15.9-6.1-22.4,0.1l-54.5,47.9c-1.8,1.6-4.5,1.8-6.5,0.6c-2.8-1.7-3.6-5.5-1.6-8.1l35.7-49.1c4.5-6.2,3.5-14.9-2.4-19.9
		c-6.5-5.5-16.2-4.4-21.3,2.4l-49.1,65.2"/>
	<path class="st4" d="M1521.6,1323.1l11.7-35c0.4-1.4,0.9-2.8,1.5-4.2c3-7.7-0.2-16.1-7.6-19.4c-7.9-3.5-17.5,0.2-21.6,8.2
		l-29.3,58.3l-12.8,36.5"/>
	<path class="st4" d="M1816.8,1153.9c-1-5.1-2.7-15.2-4.1-23.4c-1.4-8.4-3.5-16.6-6.3-24.6l-17.5-49.7c-3-8.5-11.9-13-19.8-10.2
		c-8,2.9-12,12.1-9,20.6l8.6,24.5c1.7,4.8-2.3,9.7-7.4,8.9c-2.3-0.3-4.2-1.8-5.1-4l-24.7-56.7c-3.6-8.2-12.8-12.1-20.5-8.7
		c-7.7,3.4-11.1,12.9-7.5,21.2l24.8,56.9c0.8,1.7-0.1,3.7-1.8,4.3c-1.4,0.5-2.9,0-3.8-1.2l-7-9.8l-37.2-54
		c-5.1-7.4-14.9-9.5-21.8-4.6s-8.4,14.8-3.3,22.2l39,61.2c1.3,2,1.1,4.7-0.4,6.6c-2.1,2.6-6,2.7-8.3,0.4l-43.1-42.7
		c-5.5-5.4-14.2-5.7-20-0.7c-6.4,5.6-6.8,15.3-0.9,21.4l56.9,58.5"/>
	<path class="st4" d="M1676.7,1170.3l-32.8-16.9c-1.3-0.6-2.6-1.4-3.9-2.1c-7.1-4.1-15.9-2.2-20.3,4.6c-4.7,7.2-2.5,17.3,4.8,22.6
		l53.1,37.9l17.8,9.5"/>
	
		<ellipse transform="matrix(0.9389 -0.3443 0.3443 0.9389 -237.1578 490.2113)" class="st5" cx="1261.6" cy="912.8" rx="11" ry="10.9"/>
	
		<ellipse transform="matrix(0.9389 -0.3443 0.3443 0.9389 -212.5523 532.4771)" class="st5" cx="1392.9" cy="864.7" rx="11" ry="10.9"/>
	<path class="st4" d="M1332.5,886.8l37,37.5c19.2,19.5,11.7,52.3-14.2,61.8l-19.9,7.3"/>
	<path class="st4" d="M1368.4,1386.5l-52.9-130.9c-13.7-30.8-45.2-48.2-77-45.4l-2.1,0.2l-41.5-93.4l-41.9,18.6l41.5,93.4l-2.6,2.4
		c-22.6,21.8-30.4,56.2-16.9,86.6l57.5,136.1"/>
	<path class="st4" d="M1620.5,1027.4c0,0-110.3-6.3-170.1,64.4c-59.7,70.7-146.9,83.6-49.5,277.5"/>
	<path class="st4" d="M1631.6,1241.8l-24.5-13c-24.9-13.2-43.7-36-50.9-63.2c-5.3-20-5.1-44.2,10-69.6
		c31.9-53.6,85.4-96.8,156.2-112.8c34.2-7.8,64.7-26.9,86.8-54l7.7,23.2l18-5l13.5,16.7l4-9.8c7.4-18.3,24.6-30.9,44.3-32.4
		c4.3-0.3,8.2-2.5,10.8-5.9c6.5-8.4,2.6-20.6-7.5-23.8l-4.7-1.5c-16.3-5.1-30.3-15.8-39.6-30.2c-5.1-7.9-15.5-10.5-23.7-5.8
		c-7,4-10.4,12.3-8.2,20.1l0.3,1.2c5.1,18,0.2,37.4-12.9,50.8l-2.3,2.3"/>
	<path class="st4" d="M1812.7,1130.5c20.3-29.6,20.8-61.9,16.5-86.3c-5-28.3,1.8-57.4,19.2-80.2"/>
	<path class="st4" d="M1658.5,1395.3c0,0,40-13.7,53.3-45.9"/>
	<path class="st4" d="M1370.6,1171.4c-3.8-14-4.3-30.1,0.9-48.3c17.2-59.9,57.9-115.4,122.2-149c31-16.2,55.7-42.5,70.1-74.4
		l17.6-39.1"/>
	<path class="st4" d="M1581.4,860.6l13.7,19.2l20.9-11.9l8.4,22.3"/>
	<path class="st4" d="M1581.4,860.6c9.8-16,7.8-31.5-1.2-47.9l-0.6-1.1c-3.9-7.1-2.5-15.9,3.4-21.4c6.9-6.4,17.6-6.3,24.3,0.3
		c12.2,12,28.3,19.3,45.3,20.6l4.9,0.4c10.6,0.8,17.1,11.9,12.6,21.5c-1.8,3.9-5.2,6.9-9.3,8.2s-33,12.2-35.5,46.7l-14.8,35.5
		c-11,26.5-10.1,56.4,1.9,82.4c3,6.5,5.8,13.7,8,21.6"/>
	<path class="st4" d="M1292.7,1180.3c-21.6,3.3-42.8,3.2-63.3,0.1l-6.8-1.2"/>
	<path class="st4" d="M1367.7,1154.1c-10.2,5.9-21,11-32.3,15.2"/>
	<path class="st4" d="M1161,1157.9c-57.7-30.6-100.6-87.2-111.1-156.7c-17.6-116.5,62.6-225.2,179.1-242.8s225.2,62.6,242.8,179.1
		c2.3,15.3,2.9,30.4,2,45.3"/>
	<path class="st4" d="M1284.7,1220.9l17.6-62.1l63.2,23.3"/>
	<path class="st4" d="M2009.2,1117c0,0,645.8-47.6,339.7,1355.4"/>
	<path class="st4" d="M2214,1027.2c0,0,579.7,96.5,386,969.4"/>
</g>
</svg>
