<?xml version="1.0" encoding="UTF-8"?>
<svg id="d" xmlns="http://www.w3.org/2000/svg" version="1.1" viewBox="0 0 1080 1080">
  <defs>
    <style>
      .cls-1 {
        fill: none;
      }

      .cls-1, .cls-2, .cls-3, .cls-4 {
        stroke: #000;
        stroke-linecap: round;
        stroke-linejoin: round;
      }

      .cls-2 {
        fill: #e1e2de;
      }

      .cls-3, .cls-4, .cls-5 {
        fill: #fcfdf7;
      }

      .cls-4 {
        stroke-width: 1.1px;
      }

      .cls-5 {
        stroke-width: 0px;
      }
    </style>
  </defs>
  <g id="e">
    <rect class="cls-5" y=".3" width="1080" height="1080"/>
  </g>
  <g id="f">
    <g id="g">
      <path class="cls-3" d="M860.1,1045.7l26.7-.6c14.8,0,26.6-12.2,26.2-27h0c-.3-14.2-11.8-25.6-26-25.8h-20.1"/>
      <path class="cls-3" d="M836.7,1046.4l27.2-.6c15,0,27.1-12.5,26.7-27.5h0c-.3-14.5-12-26.1-26.5-26.3h.3c-13.1-3.3-39.6-3.5-58.8-12.1-12.7-5.7-20.9-18.3-21.3-32.2l-1.4-46.7h-81c0,0-164.4,147.2-164.4,147.2"/>
      <path class="cls-3" d="M813.3,1046.8l27.8-.6c15.4,0,27.7-12.8,27.3-28.1h0c-.3-14.8-12.3-26.7-27.1-26.9"/>
      <path class="cls-3" d="M786.9,1047.3l28.6-.6c15.8-.1,28.4-13.1,28.1-28.9h0c-.3-15.2-12.6-27.4-27.8-27.7"/>
      <path class="cls-3" d="M538.2,1049.2l241.3-.7c15.2-.8,28.8-11.3,32.8-26.8h0c4.9-19.1-6.6-38.5-25.7-43.4l-36.6-5"/>
    </g>
    <polygon id="m" class="cls-2" points="533 603.7 631.3 901.1 833.8 901.1 834.1 531 514.3 435.8 533 603.7"/>
    <g id="n">
      <path class="cls-2" d="M614.2,538l-342.7.2c-51.7,0-93.7,116-93.7,259s41.9,259,93.7,259l342.7-.2"/>
      <path class="cls-2" d="M716.6,797.2c0,143-47.6,259-106.4,259s-106.4-116-106.4-259,47.6-259.4,106.4-259.4,106.4,116.4,106.4,259.4h0Z"/>
      <path class="cls-3" d="M503.8,537.9c-51.7,0-93.7,116-93.7,259s41.9,259,93.7,259l35.1.2c-51.7,0-93.7-116-93.7-259s41.9-259,93.7-259l-35.1-.2h0Z"/>
      <path class="cls-3" d="M323,538.3c-51.7,0-93.7,116-93.7,259s41.9,259,93.7,259h35c-51.7-.1-93.6-115.8-93.6-258.8s41.9-259,93.7-259l-35.1-.2Z"/>
      <path class="cls-3" d="M580.6,547.9c-44.4,31.3-76.8,131.2-76.8,249.3s32.7,218.3,77.3,249.2h.1c44.4-31.2,76.9-130.9,76.9-249s-32.6-218.2-77.2-249.1"/>
      <polyline class="cls-1" points="462.4 1029.2 533.9 977.4 423 928.6 278.1 930.9 206.9 984.9 282.7 1031.6"/>
      <polyline class="cls-1" points="423 928.5 507.1 861 410.1 798 264.4 800.2 181.9 868.6 278.1 930.9"/>
      <polyline class="cls-1" points="410.4 797.9 507.8 727.6 423.1 667.5 276.6 669.5 181.6 734.9 264.8 800.1"/>
      <polyline class="cls-1" points="247.6 1047.7 282.7 1031.6 462.4 1029.5 600.6 1055.2"/>
      <polyline class="cls-1" points="244 550.5 309.5 576.6 454.9 574.4 559.7 548.5"/>
      <polyline class="cls-1" points="276.9 669.6 203.2 619.7 309.3 576.6"/>
      <polyline class="cls-1" points="455.8 574.5 535.8 612.2 422 667.5"/>
    </g>
    <path id="o" class="cls-3" d="M490.7,439.3s172,114.7,353.6,101c9.6-.7,17-8.8,16.7-18.5l-10.1-298.9L321.2,75.9l10.8,324.9,158.8,38.5h0Z"/>
    <g id="p">
      <path class="cls-3" d="M716.1,569.6s8.8,15,17.6,22.9c8,7.2,54.8,46.1,74.3,45.7,2.6,0,4.4-2.8,3.3-5.2-4.6-10.8-16.4-41.9-9.8-60,8.1-22.3-50.8,9-59.1-14.9l-26.4,11.6h0Z"/>
      <path class="cls-3" d="M722.3,521.5l-27.5,12.7c-10,4.6-14.7,16.3-10.6,26.6h0c4.3,10.8,16.5,16,27.2,11.6l21.2-8.6c14.2-5.8,27.7-12.9,40.5-21.3h0c3.2-2,5.9-4.6,8-7.6l23.6-32.6-131.1-131-45.3,73.4"/>
      <path class="cls-3" d="M662.6,443.8l-2.7,23.3c-1.7,16.1-16.7,27.4-32.7,24.4h0c-13.3-2.5-22.9-14.1-22.8-27.6l3.1-28.4c1.1-9.8,6-18.8,13.8-24.9l52.3-39.4,131.1,130.9"/>
      <path class="cls-3" d="M697,504.8l-27.5,12.7c-10,4.6-14.7,16.3-10.6,26.6h0c4.3,10.8,16.5,16,27.2,11.6l12.2-4.9c15.3-6.1,29.5-14.5,42-25.1"/>
      <path class="cls-3" d="M672.9,482.4l-27.5,12.7c-10,4.6-14.7,16.3-10.6,26.6h0c4.3,10.8,16.5,16,27.2,11.6l12.2-4.8c15.2-5.9,29.3-14.2,41.9-24.6l2.9-2.4"/>
      <path class="cls-3" d="M673,444.8l-2.5,2.4c-8.5,8-18.2,14.6-28.7,19.5l-8.5,4c-10,4.6-14.7,16.3-10.6,26.6h0c4.3,10.8,16.5,16,27.2,11.6l9.1-4.1c16.1-7.2,30.8-17.2,43.5-29.4l3-2.9"/>
    </g>
    <g id="q">
      <path class="cls-3" d="M302.7,514.1c-17.5,15.2-33.5,32-47.7,50.3l-4,5.1-10.9,12.8c-10.2,12-28.3,13.3-40.2,2.9h0c-11.4-10-12.9-27.3-3.3-39.1h0c9.4-11.6,20.9-21.4,33.9-28.8l59.3-30.3c13.4-6.8,18.8-23,12.3-36.5l-15.2-31.5"/>
      <path class="cls-3" d="M332.5,510.8c-19.6,12.4-37.9,26.7-54.6,42.7l-4.7,4.5-12.6,11c-11.9,10.4-30,9-40.2-3h0c-9.8-11.6-8.7-28.9,2.5-39.1l16.1-14"/>
      <path class="cls-3" d="M355.4,497c-19.1,13.2-36.8,28.2-52.9,44.9l-4.5,4.7-12.2,11.5c-11.5,10.8-29.6,10.2-40.3-1.4h0c-10.3-11.2-9.9-28.5.9-39.2l16.1-15.9"/>
      <path class="cls-3" d="M322.2,542.2l-13.1,10.4c-12.4,9.8-30.4,7.7-40-4.8h0c-9.3-12-7.4-29.2,4.2-39l17.4-14.5"/>
      <path class="cls-3" d="M361.7,479.2l-43.7,11.2c-19.1,4.9-30.6,24.3-25.7,43.4h0c4.9,19.1,24.3,30.6,43.4,25.7l15.6-4c18.6-4.8,37.7-8,56.9-9.6h0c6.4-.5,12.9-.9,19.4-1h2.6c19.5-.6,39.1.4,58.5,2.9l25.3,3.2c15.4,2,30.7-4.5,40.1-16.8h0c13.2-17.5,11.4-42.1-4.3-57.4h0c-17-16.5-28.9-37.7-34.2-60.8l-7.8-34.1-228.4,30.6"/>
    </g>
    <path id="r" class="cls-2" d="M183.7,91.4l-4.7,43.4c-4.5,41.5,1.9,83.4,18.5,121.7l71.7,164.7,277.3-10.8-124.7-244.7c-13.4-26.3-40.4-43-69.9-43.2h0"/>
    <path id="s" class="cls-3" d="M342.6,108.7l61.8,97.7-164.4,101.6-65.6-150.1c-27-55.6,13.9-120.2,75.6-119.6l53.7-.3c113.5-.6,226.5,15.6,335.2,48.1l4.9,1.5,116.1,19.2,2.4.7c30.2,8.4,58.3,23.5,81.7,44.5,34.8,31.4,50.2,66.9,60.7,103.6h0c.3.9.5,1.8.8,2.7,13.9,50.7,4.2,105-25.7,148.2l-70,100.9-145.1-145,68.9-65.6"/>
    <g id="t">
      <polygon class="cls-3" points="420.7 654.2 343.5 361.4 367.1 354.8 465.3 642.5 420.7 654.2"/>
      <path class="cls-3" d="M667.6,449.7l-197.4,181.1-37.1-21.6s156.7-132.4,165-138.6c21.7-16.4,46.1-21.2,69.5-20.9h0Z"/>
      <path class="cls-3" d="M404.6,631.6s-2-29.6,20.8-33.2c22.9-3.6,47.9,6.8,56.3,21.6,8.4,14.8-15.2,48-15.2,48"/>
      <path class="cls-3" d="M483.4,628s-6.7,6.8-20.1,11.3"/>
      <path class="cls-3" d="M439.2,619.5c15.6,3,27.5,15.7,29.3,31.5,1,9.2.4,18.3-4.5,23.2-12,12.1-31.2,12.2-52.3,2.7-9-4-18.1-13.4-19-20.8-1.1-9.8.3-14.7,6.8-22.2l2.6-3c8.5-9.9,21.7-14.5,34.5-12l2.6.5h0Z"/>
      <path class="cls-3" d="M467.7,667s-9.8-35.2-69.2-31.4"/>
    </g>
    <g id="u">
      <path class="cls-3" d="M754.4,161.8c-1,52.4-55.8,93.9-122.5,92.7-66.7-1.2-120-44.7-119-97.1"/>
      <ellipse class="cls-2" cx="632.3" cy="122.3" rx="189.4" ry="77.7"/>
      <path class="cls-2" d="M520.4,122.3l43.8-79.1c9.3-16.6,30.5-22,46.7-12h0c11,6.8,24.9,6.7,35.7-.3l3.5-2.3c16.1-10.5,37.7-5.2,47.1,11.6l49.9,81.5"/>
    </g>
    <g id="v">
      <path class="cls-3" d="M392,271l4.2,23.1c2.7,16,18.5,26.2,34.1,22.3h0c13.1-3.3,22-15.5,21-29l-4.9-28.1c-1.7-9.7-7.2-18.3-15.3-23.9l-35.2-23.5-15.8,20.8,11.9,38.3h0Z"/>
      <path class="cls-3" d="M366.2,362.8l-.6.5c10.3,4,15.7,15.3,12.3,25.8h0c-3.6,11-15.4,17-26.4,13.3l-21.7-7.3c-14.5-4.9-28.5-11.1-41.8-18.6h0s0,0-.1,0c-4.5-2.4-8-6.3-10.2-10.9l-30.1-62.2,148.2-91.6,27.7,18.4-57.2,132.7Z"/>
      <path class="cls-3" d="M319.6,357.7c13.2,9.7,27.9,17.3,43.5,22.3l12.5,4.1c11,3.7,22.9-2.3,26.4-13.3h0c3.4-10.5-2-21.9-12.3-25.8l-28.2-10.9"/>
      <path class="cls-3" d="M339.4,332.2l3,2.2c13.2,9.5,27.8,16.9,43.4,21.9l12.5,4c11,3.7,22.9-2.3,26.4-13.3h0c3.4-10.5-2-21.9-12.3-25.8l-28.2-10.9"/>
      <path class="cls-3" d="M383.5,275.9s3.7-15.5,6.6-24.2c2.9-8.7,18.7-49.2,31.6-58.9,5.7-4.3-3.8,26.9,12.9,41.1s36.7,11.9,26.6,24.8c-10.8,13.8-51.5,15.1-49.4,34.7l-28.3-17.4h0Z"/>
      <path class="cls-3" d="M381.7,272.7l2.6,2.2c9,7.5,19.1,13.4,29.9,17.7l8.8,3.4c10.3,4,15.7,15.3,12.3,25.8h0c-3.6,11-15.4,17-26.4,13.3l-9.3-3.5c-16.5-6.2-31.8-15.2-45.3-26.6l-3.2-2.7"/>
    </g>
    <path class="cls-4" d="M727.2,1039.6l-42.9-237.8c13-13.8,18.7-40,13-67.6-7.7-36.5-32.6-61.4-55.7-55.5-23.1,5.8-35.6,40.2-28,76.7,5.3,25.5,19.1,45.2,34.7,52.9l42.9,237.8c1.8,9.9,11.3,16.5,21.2,14.7h0c9.9-1.8,16.5-11.3,14.7-21.2Z"/>
  </g>
</svg>