<?xml version="1.0" encoding="UTF-8"?><svg xmlns="http://www.w3.org/2000/svg" viewBox="0 0 3000 3000"><g id="uuid-cff5f96a-7464-4962-9e17-61579cab2825"><rect width="3000" height="3000" fill="#ff5723"/><polygon points="1975.47 1184.86 1987.03 1148.31 2009.02 1105.63 2035.62 1072.89 2068.16 1044.9 2110.81 1026.39 2160.55 1011.35 2466.01 1011.29 2504.35 1033.63 2544.44 1062.1 2582.4 1110.94 2597.71 1141.51 2629.72 1209.96 2640.61 1255.81 2649.78 1291.35 2652.75 1328.9 2648.41 1372.15 2635.45 1414.01 2621.12 1448.4 2599.34 1470.18 2582.82 1491.18 2586.73 1513.17 2608.16 1643.59 2613.42 1701.12 2613.42 1719.85 2600.8 1731.23 2573.37 1745.94 2522.53 1762.67 2482.39 1768.69 2412.81 1766.01 2380.03 1764.68 2325.84 1767.35 2268.31 1771.37 2168.63 1772.7 2116.45 1770.03 2028.81 1756.65 1984.66 1735.91 1975.47 1723.99 1964.59 1682.46 1961.54 1614.82 1969.42 1184.74 1975.47 1184.86" fill="#e6bcfe"/><polygon points="1374.45 951.38 1422.27 927.54 1421.87 875.09 1410.32 694.77 1250.67 744.44 1199.63 760.66 1162.68 774.96 905.32 897.85 540.04 1119.22 474.38 1176.62 429.65 1230.29 399.55 1285.67 378.41 1343.34 367.84 1395.39 362.14 1442.81 364.9 1477.62 362.14 1585.05 356.72 1663.69 355.17 1713.77 365.78 1739.56 378.86 1755.12 397.78 1766.22 422.92 1779.51 484.75 1807.91 542.79 1825.46 620.27 1840.62 675.88 1840.38 741.75 1839.76 810.85 1830.59 846.08 1818.18 888.72 1797.03 946.37 1761.48 968.5 1746.36 982.84 1731.16 988.19 1719.37 982 1648.64 1093.27 1607.52 1093.85 1414.57 961.15 1442.41 958.94 1402.53 952.85 1276.35 955.84 1223.49 977.02 1172.3 1008.8 1135.82 1061.16 1103.45 1142.01 1051.76 1126.08 941.63 1367.78 898.61 1374.45 951.38" fill="#e6bcfe"/><polygon points="1439.43 907.21 1384.61 1031.71 1367.78 898.61 1126.08 941.63 1155.06 1138.64 1145.61 1142.36 1116.78 1200.55 1106.64 1242.19 1105.81 1273.69 1122.12 1310.52 1132.26 1340.95 1222.58 1574.91 1245.85 1607.52 1272.62 1630.2 1295.46 1645.17 1333.22 1663.78 1396.22 1682.4 1457.49 1697.31 1515.17 1707.61 1588.62 1716.84 1647.28 1716.38 1758.97 1716.84 1814.37 1716.84 1871.76 1701.62 1905.19 1680.66 1947.11 1637.74 1964.08 1602.31 1978.55 1556.89 1995.38 1348.28 2000.42 1295.79 1986.91 1238.71 1962.92 1169.3 1942.62 1134.04 1954.36 908.39 1736.8 865.26 1733.64 971.8 1608.68 835.87 1439.43 907.21" fill="#ffde12"/><circle cx="730.52" cy="1010.34" r="207.85" fill="#fff"/><circle cx="2310.31" cy="856.57" r="211.33" fill="#fff"/><polygon points="1097.45 1450.66 1140.84 1425.25 1175.84 1409.44 1199.94 1402.53 1207.08 1414.57 1207.08 1423.28 1188.78 1442.81 1197.71 1445.15 1251.27 1432.05 1261.09 1439.79 1263.32 1448.72 1259.3 1458.09 1192.49 1479.79 1196.37 1486.66 1277.6 1486.66 1284.3 1492.46 1284.3 1501.39 1284.3 1508.82 1278.94 1514.78 1209.12 1521.91 1211.1 1528.62 1260.64 1535.31 1270.46 1542.01 1270.46 1557.63 1266 1564.32 1189.23 1561.65 1190.88 1569.68 1224.94 1580.39 1232.52 1590.21 1228.95 1600.92 1222.26 1607.52 1151.48 1596.9 1093.27 1576.37 1093.85 1457.2 1097.45 1450.66" fill="#fff"/><polygon points="1199.63 922.95 1172.39 885.28 1147.89 828.32 1150.34 813.32 1161.06 810.57 1170.55 814.55 1188.31 843.33 1194.44 843.03 1197.19 835.68 1175.67 769.34 1178.94 763.51 1194.74 760.66 1205.15 771.37 1224.75 813.94 1226.3 810.57 1220.16 752.69 1223.83 734.94 1232.71 732.18 1244.04 733.4 1270.07 817.3 1275.14 817.4 1279.87 743.2 1291.81 739.22 1302.22 742.59 1310.18 807.2 1314.47 806.89 1325.49 787.3 1340.5 787.6 1350.22 794.95 1341.3 854.12 1330.7 903.96 1201.48 927.54 1199.63 922.95" fill="#fff"/><polygon points="1415.59 711.24 1594.23 718.3 1606.62 737.38 1602.59 752.54 1598.11 763.51 1601.75 772.94 1603.98 795.03 1598.11 810.14 1604.82 820.18 1604.54 835.84 1597.55 854.12 1602.68 863.64 1606.62 885.31 1594.76 899.85 1532.98 901.24 1423.85 906.3 1412.01 719.73 1415.59 711.24" fill="#fff"/><polygon points="2573.37 1745.94 2672.02 2497.72 2384.17 2500.57 2245.48 1941.05 2098.24 2487.27 1830.11 2490.42 1843.78 2325.13 1936.53 1942.03 1970.39 1719.86 1984.66 1735.91 2021.7 1754.07 2058.96 1762.43 2099.63 1770.03 2177.94 1774.3 2216.33 1774.3 2268.31 1771.37 2312.89 1766.23 2365.73 1765.09 2444.04 1766.99 2471.79 1772.7 2507.9 1766.23 2557.7 1750.27 2573.37 1745.94" fill="#fff"/><polygon points="1789.77 870.63 1775.72 818.99 1767.25 765.63 1773.6 752.51 1786.73 749.96 1799.86 762.67 1810.12 795.44 1810.87 719.9 1815.1 707.62 1828.66 703.81 1837.97 709.73 1843.87 780.45 1848.56 782.57 1868.46 706.77 1877.78 695.89 1893.87 699.15 1897.26 724.56 1888.79 776.64 1894.72 778.76 1916.32 729.21 1931.14 725.4 1940.88 731.75 1940.88 743.61 1920.97 807.13 1927.33 810.14 1947.65 780.88 1957.82 775.37 1969.85 783.26 1969.85 791.04 1961.63 816.87 1941.72 860.07 1917.16 898.61 1791.81 876.16 1789.77 870.63" fill="#fff"/><polygon points="2504.35 1125.56 2495.63 1075.8 2459.22 1006.53 2439.34 977.53 2422.3 971.8 2399.48 979.28 2397.24 999.11 2408.43 1016.32 2419.68 1038.76 2433.15 1076.17 2413.32 1057.84 2390.88 1051.86 2369.96 1062.71 2345.61 1076.92 2328.4 1087.36 2306.54 1107.23 2310.3 1148.31 2504.35 1129.12 2504.35 1125.56" fill="#fff"/><polygon points="376.64 1762.7 323.07 2509.43 618.12 2515.24 637.87 2381.07 689.39 1995.14 701.98 2045.82 796.94 2528.58 1057.7 2526.64 983.67 1739.56 959.1 1754.3 914.05 1782.96 846.08 1818.18 792.82 1834.54 714.22 1840.66 664.26 1840.29 614.31 1840.66 560.25 1831.28 464.43 1799.34 409.56 1773.14 378.86 1755.12 376.64 1762.7" fill="#ffde12"/><polygon points="1388.93 1446.12 1398.44 1402.53 1418.99 1358.38 1446.61 1323.85 1489.67 1291.76 1529.48 1272.67 1574.51 1260.93 1625.34 1260.93 1665.15 1271.05 1700.48 1286.08 1736.23 1307.06 1757.76 1338.07 1782.94 1369.35 1796.35 1404.44 1804.98 1426.89 1736.23 1439.21 1647.27 1452.62 1561.56 1464.44 1510.21 1464.44 1469.36 1462.37 1388.08 1451.43 1388.93 1446.12" fill="#fff"/><polygon points="1300.48 1652.02 1457.49 2009.85 1933.57 1962.44 1928.22 1892.92 1913.86 1678.24 1863.82 1701.89 1826.82 1712.2 1785.59 1717.66 1647.28 1716.38 1588.62 1716.84 1529.66 1710.38 1452.04 1695.82 1409.59 1682.46 1318.62 1654.59 1300.48 1652.02" fill="#fff"/><polygon points="1938.82 1962.39 1955.39 1974.81 1964.13 1999.21 1973.8 2031.89 1987.14 2076.07 1998.55 2099.7 2003.67 2130.96 2006.93 2166.73 2000.7 2211.14 1988.49 2246.3 1965.17 2277.75 1938.82 2299.59 1895.97 2312.17 1838.97 2322.54 1753.85 2337.71 1730.54 2357.32 1723.13 2381.38 1727.94 2419.87 1746.11 2548.65 1471.84 2545.82 1454.31 2360.9 1456.01 2312.83 1442.44 2313.97 1419.82 2328.67 1407.94 2343.94 1405.68 2365.99 1430.56 2528.45 1154.35 2525.48 1151.5 2490.42 1143.29 2408.4 1137.5 2297 1147.81 2252.89 1166.47 2213.87 1194.18 2175.42 1221.89 2153.36 1254.69 2139.79 1271.09 2132.44 1323.12 2122.26 1402.85 2106.43 1423.78 2086.07 1435.65 2057.79 1440.17 2025.56 1449.79 2014.25 1480.89 2008.03 1938.82 1962.39" fill="#e6bcfe"/><polygon points="1732.01 2551.1 1732.01 2653.88 1601.74 2654.68 1599.67 2634.77 1572.21 2654.68 1357.1 2654.3 1348.89 2611.46 1352.87 2590.27 1357.1 2582.28 1403.23 2581.35 1471.2 2578.58 1482.29 2575.34 1494.29 2563.53 1504.1 2548.65 1732.01 2551.1" fill="#fff"/><polygon points="1417.46 2580.39 1415.57 2528.58 1185.91 2525.82 1179.81 2541.37 1169.15 2549.39 1155.95 2554.42 1137.5 2559.3 1041.46 2563.17 1030.01 2583.01 1036.62 2608.9 1040.66 2632.99 1257.38 2633.87 1281.37 2615 1285.3 2633.87 1352.87 2633.3 1348.57 2598.61 1352.87 2585.04 1357.1 2582.28 1417.46 2580.39" fill="#fff"/><polygon points="1040.66 2632.99 1044.79 2654.65 1236.95 2654.68 1257.38 2633.87 1040.66 2632.99" fill="#fff"/><polygon points="1285.3 2633.87 1288.24 2656.42 1357.1 2654.3 1352.87 2633.3 1285.3 2633.87" fill="#fff"/><polygon points="1357.1 2654.3 1361.06 2675.46 1555.08 2675.46 1572.21 2654.68 1357.1 2654.3" fill="#fff"/><polygon points="1601.74 2654.68 1606.04 2675.46 1730.16 2675.37 1732.01 2653.88 1601.74 2654.68" fill="#fff"/><polygon points="807.98 2526.64 807.98 2630.2 939.12 2633.87 943.48 2614.39 971.95 2633.87 1040.66 2632.99 1033.24 2595.66 1030.01 2583.01 1041.46 2563.17 1065.47 2557.93 1042.82 2540.36 1034.38 2525.82 807.98 2526.64" fill="#e6bcfe"/><polygon points="807.98 2630.2 809.82 2654.68 936.73 2654.68 939.12 2633.87 807.98 2630.2" fill="#fff"/><polygon points="969.37 2633.87 986.33 2654.02 1044.79 2654.65 1040.66 2632.99 969.37 2633.87" fill="#fff"/><polygon points="594.53 2642.44 594.53 2619.63 464.25 2623.62 468.26 2644.39 594.53 2642.44" fill="#fff"/><polygon points="436.33 2623.62 219.62 2623.62 225.15 2643.78 417.85 2644.39 436.33 2623.62" fill="#fff"/><polygon points="594.53 2518.32 594.53 2619.63 464.25 2623.62 458.98 2601.48 436.33 2623.62 219.62 2623.62 213.26 2590.27 211.09 2567.22 217.38 2552.94 246.11 2550.85 310.88 2549.28 335.95 2545.62 349.01 2539.88 359.76 2528.58 368.33 2513.76 558.36 2513.38 594.53 2518.32" fill="#e6bcfe"/><path d="m2294.67,1421.27l-134.06-125.48-7.25-21.76,5.39-12.4,15.1-7.01,13.48,4.85,10.79,12.94h11.33l17.26-14.02v-8.09l-10.79-12.4-23.73-14.02-23.07-1.75-23.31,4.99-15.1,10.25-9.17,15.64-3.78,20.49,3.24,14.02,10.25,25.35-4.44,8.83-21.45,22.45-6.17,24.81,3.47,25.35,7.55,15.64,12.4,14.56,16.18,7.01,17.8,4.44h20.49l19.84-4.82,17.37-7.17,17.26-16.18,20.49,22.65,53.39-1.08-10.79-8.09Zm-94.6-33.31l-14.88,12.28-16.29,4.77-16.07-5.31-14.02-10.79-1.08-22.11,8.63-18.34,11.86-6.47,41.85,37.44v8.53Z" fill="#ffde12"/><polygon points="2075.21 2492.36 2075.21 2596.85 1941.01 2597.22 1939.41 2578.16 1914.81 2597.65 1731.22 2596.85 1732.01 2551.1 1746.11 2548.65 1742.84 2525.48 1770.76 2525.48 1794.24 2523.72 1816.76 2519.02 1826.61 2514.64 1839.63 2500.57 1849.06 2488.9 2075.21 2492.36" fill="#ffde12"/><polygon points="2405.47 2500.36 2406.26 2606.28 2535.75 2606.71 2540.45 2587.1 2566.23 2607.08 2780.95 2606.28 2788.91 2574.21 2788.71 2553.72 2785.37 2540.03 2778.65 2534.42 2695.7 2532.18 2657.58 2529.38 2642.45 2517.05 2635.73 2499.11 2405.47 2500.36" fill="#ffde12"/><polygon points="2406.26 2606.28 2405.47 2629.67 2535.75 2627.86 2535.75 2606.71 2406.26 2606.28" fill="#fff"/><polygon points="2566.23 2607.08 2582.6 2627.86 2777.71 2627.86 2780.95 2606.28 2566.23 2607.08" fill="#fff"/><polygon points="2072.21 2595.39 2073.01 2618.78 1942.73 2616.97 1942.73 2595.82 2072.21 2595.39" fill="#fff"/><polygon points="1912.25 2596.19 1895.88 2616.97 1732.01 2617.93 1731.22 2596.85 1912.25 2596.19" fill="#fff"/></g><g id="uuid-95f22188-7f08-4152-a953-1566fa5a175a"><path d="m1388.08,1450.66c.2-2.09.44-4.19.7-6.29,14.69-115.79,120.47-197.76,236.26-183.07,91.18,11.57,161.38,79.61,179.93,164.56" fill="none" stroke="#000" stroke-linecap="round" stroke-linejoin="round" stroke-width="10"/><path d="m730.52,808.35c27.19,0,53.55,5.32,78.37,15.82,23.97,10.14,45.51,24.66,64,43.15,18.49,18.49,33.01,40.03,43.15,64,10.5,24.82,15.82,51.18,15.82,78.37s-5.32,53.55-15.82,78.37c-10.14,23.97-24.66,45.51-43.15,64-18.49,18.49-40.03,33.01-64,43.15-24.82,10.5-51.18,15.82-78.37,15.82s-53.55-5.32-78.37-15.82c-23.97-10.14-45.51-24.66-64-43.15-18.49-18.49-33.01-40.03-43.15-64-10.5-24.82-15.82-51.18-15.82-78.37s5.32-53.55,15.82-78.37c10.14-23.97,24.66-45.51,43.15-64,18.49-18.49,40.03-33.01,64-43.15,24.82-10.5,51.18-15.82,78.37-15.82m0-10c-116.72,0-211.34,94.62-211.34,211.34s94.62,211.34,211.34,211.34,211.34-94.62,211.34-211.34-94.62-211.34-211.34-211.34h0Z"/><polyline points="1424.88 1350.31 1367.68 897.85 1125.41 941.24 1191.22 1379.43" fill="none" stroke="#000" stroke-linecap="round" stroke-linejoin="round" stroke-width="10"/><line x1="1912.05" y1="1673.86" x2="1913.86" y2="1691.07" fill="none" stroke="#000" stroke-linecap="round" stroke-linejoin="round" stroke-width="10"/><polyline points="1734.46 1307.79 1733.38 863.64 1954.36 906.79 1928.66 1404.44" fill="none" stroke="#000" stroke-linecap="round" stroke-linejoin="round" stroke-width="10"/><path d="m1153.33,1127.14l-39.16,83.31c-16.83,39.51-7.79,85.29,22.78,115.45l54.26,53.52c35.49,35.01,81.51,57.37,130.96,63.64l136.68,17.34c46.93,5.95,94.46,5.31,141.22-1.9l310.11-47.86c60.92-9.4,101.11-68.4,87.62-128.55-12.29-54.79-30.49-115.99-55.12-149.31" fill="none" stroke="#000" stroke-linecap="round" stroke-linejoin="round" stroke-width="10"/><path d="m1140.84,1052.41l-112.19,70.34c-56.01,35.12-85.31,100.56-74.2,165.73l6.07,154.33" fill="none" stroke="#000" stroke-linecap="round" stroke-linejoin="round" stroke-width="10"/><path d="m1607.17,837.57c3.4,2.84,6.66,5.95,9.77,9.34l115.07,125.63" fill="none" stroke="#000" stroke-linecap="round" stroke-linejoin="round" stroke-width="10"/><line x1="1384.61" y1="1031.71" x2="1439.83" y2="906.3" fill="none" stroke="#000" stroke-linecap="round" stroke-linejoin="round" stroke-width="10"/><polyline points="1252.38 743.38 1410.81 691.45 1424.88 923.32 1374.45 951.38" fill="none" stroke="#000" stroke-linecap="round" stroke-linejoin="round" stroke-width="10"/><line x1="1199.63" y1="760.66" x2="1219.06" y2="754.3" fill="none" stroke="#000" stroke-linecap="round" stroke-linejoin="round" stroke-width="10"/><line x1="908.04" y1="894.99" x2="1173.15" y2="769.34" fill="none" stroke="#000" stroke-linecap="round" stroke-linejoin="round" stroke-width="10"/><path d="m1357.1,2653.93l-70.43.09-5.87-39.29-44.51,39.29h-192.44s-9.68-54.39-9.68-54.39c-4.27-15.6-2.73-37.23,13.44-38.05,35.09-1.78,93.46-.42,109.69-4.48,12.36-3.09,21.65-14.66,27.08-23.94l4.01-6.64" fill="none" stroke="#000" stroke-linecap="round" stroke-linejoin="round" stroke-width="10"/><line x1="1415.57" y1="2528.45" x2="1415.18" y2="2580.39" fill="none" stroke="#000" stroke-linecap="round" stroke-linejoin="round" stroke-width="10"/><line x1="1352.87" y1="2633.3" x2="1285.3" y2="2633.69" fill="none" stroke="#000" stroke-linecap="round" stroke-linejoin="round" stroke-width="10"/><line x1="1257.38" y1="2633.74" x2="1040.66" y2="2632.99" fill="none" stroke="#000" stroke-linecap="round" stroke-linejoin="round" stroke-width="10"/><line x1="1457.49" y1="2009.85" x2="1298.56" y2="1649.12" fill="none" stroke="#000" stroke-linecap="round" stroke-linejoin="round" stroke-width="10"/><path d="m1776.06,2114.82l-173.73,35.55c-93.56,19.15-157.32,106.17-147.38,201.15l15.89,195.66,275.05,2.21-22.1-163.5c-3.24-23.96,13.23-46.13,37.11-49.94l124.56-19.9c66.06-10.55,115.95-65.54,120.04-132.32l1.08-17.63c1.9-30.99-4.15-61.95-17.56-89.94l-29.15-91.88c-4.72-14.89-19.26-24.4-34.79-22.76l-462.87,48.77c-13.82,1.46-24.42,12.75-25.27,26.62-1.99,32.51-13.61,64.4-44.34,70.69l-106.71,21.84c-93.56,19.15-157.32,106.17-147.38,201.15l15.89,195.66,275.05,2.21-22.1-163.5c-3.24-23.96,13.23-46.13,37.11-49.94h0" fill="none" stroke="#000" stroke-linecap="round" stroke-linejoin="round" stroke-width="10"/><path d="m1732.01,2549.39l-.96,126.07-127.94-.5-5.87-39.29-44.51,39.29h-192.44s-9.68-54.39-9.68-54.39c-4.27-15.6-2.73-37.23,13.44-38.05,35.09-1.78,93.46-.42,109.69-4.48,12.36-3.09,21.65-14.66,27.08-23.94l4.01-6.64" fill="none" stroke="#000" stroke-linecap="round" stroke-linejoin="round" stroke-width="10"/><line x1="1731.22" y1="2653.88" x2="1601.74" y2="2654.63" fill="none" stroke="#000" stroke-linecap="round" stroke-linejoin="round" stroke-width="10"/><line x1="1573.82" y1="2654.68" x2="1357.1" y2="2653.93" fill="none" stroke="#000" stroke-linecap="round" stroke-linejoin="round" stroke-width="10"/><line x1="1160.34" y1="1414.57" x2="1111.57" y2="1285.67" fill="none" stroke="#000" stroke-linecap="round" stroke-linejoin="round" stroke-width="10"/><path d="m2000.42,1307.06l-22.55,239.74c-7.67,81.6-67.18,149.57-147.45,166.15-1.14.23-2.28.46-3.42.67h0c-11.43,2.14-23.04,3.22-34.67,3.22h-155.44c-89.83,0-179.07-14.51-264.27-42.98l-46.41-15.5c-47.8-15.97-87.13-50.41-109.29-95.5" fill="none" stroke="#000" stroke-linecap="round" stroke-linejoin="round" stroke-width="10"/><path d="m689.32,1380.12l58.52,32c66.12,36.16,143.24,46.71,216.64,29.66l129.37-30.06-.7,195.79-71.18,25.73c-129.98,52.94-256.9,32.11-384.53-26.27l-145.65-66.62" fill="none" stroke="#000" stroke-linecap="round" stroke-linejoin="round" stroke-width="10"/><path d="m546.99,1114.58l-43.78,36.1c-92.03,75.87-142.98,190.63-137.55,309.78l-10.41,236.55c-1.59,36.18,22.06,68.65,56.98,78.24l55.7,24.58c63.06,27.83,131.37,41.75,200.29,40.81l21.68-.29c93.04.92,138.21,1.66,269.4-87.19h0c19.43-8.41,31.04-28.56,28.56-49.59l-6.41-54.43" fill="none" stroke="#000" stroke-linecap="round" stroke-linejoin="round" stroke-width="10"/><polyline points="982.84 1731.16 1057.7 2526.52 794.74 2526.52 689.32 1986.53 619.08 2514.21 321.08 2510.28 379.24 1758.39" fill="none" stroke="#000" stroke-linecap="round" stroke-linejoin="round" stroke-width="10"/><path d="m2459.08,1006.32l18.28-20.26c27.76-35.77,44.29-80.69,44.29-129.47,0-116.72-94.62-211.34-211.34-211.34s-211.34,94.62-211.34,211.34,94.62,211.34,211.34,211.34c16.46,0,32.48-1.88,47.85-5.44,0,0,33.23-7.61,61.5-24.46" fill="none" stroke="#000" stroke-linecap="round" stroke-linejoin="round" stroke-width="10"/><path d="m2164.62,1009.69l-52.82,18.9c-59.64,21.34-106.57,68.28-127.89,127.92l-12.19,34.1" fill="none" stroke="#000" stroke-linecap="round" stroke-linejoin="round" stroke-width="10"/><path d="m2461.69,1009.1l16.6,8.86c70,37.34,122,101.32,144.24,177.47l21.69,74.28c14.48,49.59,10.43,102.76-11.39,149.58l-3.33,7.14c-32.13,68.95-98.62,115.5-174.39,122.13h0s0,0,0,0c-59.77,0-110.81-43.14-120.76-102.08l-49.93-295.62,234.8-23.22,21.74,176.13" fill="none" stroke="#000" stroke-linecap="round" stroke-linejoin="round" stroke-width="10"/><polyline points="2575.47 1743.32 2672.02 2499.86 2384.02 2499.86 2244.66 1937.57 2097.36 2489.01 1830.11 2489.01 1843.87 2322.69" fill="none" stroke="#000" stroke-linecap="round" stroke-linejoin="round" stroke-width="10"/><path d="m594.53,2518.32l-.96,126.07-127.94-.5-5.87-39.29-44.51,39.29h-192.44s-9.68-54.39-9.68-54.39c-4.27-15.6-2.73-37.23,13.44-38.05,35.09-1.78,93.46-.42,109.69-4.48,12.36-3.09,21.65-14.66,27.08-23.94l4.01-6.64" fill="none" stroke="#000" stroke-linecap="round" stroke-linejoin="round" stroke-width="10"/><line x1="593.74" y1="2622.82" x2="464.25" y2="2623.56" fill="none" stroke="#000" stroke-linecap="round" stroke-linejoin="round" stroke-width="10"/><line x1="436.33" y1="2623.62" x2="219.62" y2="2622.87" fill="none" stroke="#000" stroke-linecap="round" stroke-linejoin="round" stroke-width="10"/><path d="m1742.67,2525.48c35.09-1.78,55.83-.42,72.06-4.48,12.36-3.09,21.65-14.66,27.08-23.94l4.01-6.64" fill="none" stroke="#000" stroke-linecap="round" stroke-linejoin="round" stroke-width="10"/><polyline points="2073.01 2492.36 2072.05 2618.42 1944.11 2617.93 1938.24 2578.63 1893.72 2617.93 1732.01 2617.93" fill="none" stroke="#000" stroke-linecap="round" stroke-linejoin="round" stroke-width="10"/><line x1="2072.21" y1="2596.85" x2="1942.73" y2="2597.59" fill="none" stroke="#000" stroke-linecap="round" stroke-linejoin="round" stroke-width="10"/><line x1="1914.81" y1="2597.65" x2="1732.01" y2="2597.01" fill="none" stroke="#000" stroke-linecap="round" stroke-linejoin="round" stroke-width="10"/><path d="m2405.47,2501.79l.96,126.07,127.94-.5,5.87-39.29,44.51,39.29h192.44s9.68-54.39,9.68-54.39c4.27-15.6,2.73-37.23-13.44-38.05-35.09-1.78-93.46-.42-109.69-4.48-12.36-3.09-21.65-14.66-27.08-23.94l-4.01-6.64" fill="none" stroke="#000" stroke-linecap="round" stroke-linejoin="round" stroke-width="10"/><line x1="2406.26" y1="2606.28" x2="2535.75" y2="2607.03" fill="none" stroke="#000" stroke-linecap="round" stroke-linejoin="round" stroke-width="10"/><line x1="2563.67" y1="2607.08" x2="2780.38" y2="2606.33" fill="none" stroke="#000" stroke-linecap="round" stroke-linejoin="round" stroke-width="10"/><path d="m1072.68,2560.78c-12.36-3.09-28.86-18.21-34.29-27.5l-4.01-6.64" fill="none" stroke="#000" stroke-linecap="round" stroke-linejoin="round" stroke-width="10"/><polyline points="807.19 2528.58 808.15 2654.65 936.09 2654.15 941.96 2614.85 986.47 2654.15 1046.26 2654.15" fill="none" stroke="#000" stroke-linecap="round" stroke-linejoin="round" stroke-width="10"/><line x1="807.98" y1="2633.07" x2="937.46" y2="2633.82" fill="none" stroke="#000" stroke-linecap="round" stroke-linejoin="round" stroke-width="10"/><line x1="965.38" y1="2633.87" x2="1041.46" y2="2633.6" fill="none" stroke="#000" stroke-linecap="round" stroke-linejoin="round" stroke-width="10"/><path d="m1915.96,894.99c3.74-5.64,15.29-22.17,21.73-31.35,2.96-4.23,5.55-8.69,7.76-13.36l24.62-52.23c3.84-8.14.72-17.61-6.95-21.17h0c-7.68-3.55-17.01.17-20.84,8.3l-11.07,23.48c-2.17,4.59-8.45,5.22-11.48,1.14h0c-1.38-1.85-1.71-4.28-.88-6.43l22.24-57.68c3.24-8.39-.55-17.62-8.47-20.61h0c-7.91-2.99-16.95,1.4-20.19,9.79l-22.34,57.93c-.67,1.74-2.67,2.55-4.36,1.78h0c-1.33-.61-2.09-2.02-1.85-3.47l1.94-11.9,11.5-64.51c1.58-8.86-3.9-17.19-12.24-18.62h0c-8.34-1.42-16.37,4.6-17.95,13.46l-15.25,70.97c-.51,2.37-2.48,4.13-4.89,4.38h0c-3.3.34-6.17-2.26-6.15-5.58l-.58-60.66c-.07-7.71-6.07-14.06-13.76-14.57h0c-8.46-.56-15.65,6.11-15.72,14.59l-.66,81.61" fill="none" stroke="#000" stroke-linecap="round" stroke-linejoin="round" stroke-width="10"/><path d="m1810.12,800.3l-11.46-35.04c-.49-1.39-.9-2.8-1.29-4.22-2.15-7.92-9.74-12.79-17.65-11.03h0c-8.41,1.88-14,10.56-12.47,19.39l11.11,64.29,11.41,36.93" fill="none" stroke="#000" stroke-linecap="round" stroke-linejoin="round" stroke-width="10"/><path d="m1198.97,926.18c-5.29-7.96-23.88-34.3-23.88-34.3l-27.94-59.27c-3.84-8.14-.72-17.61,6.95-21.17h0c7.68-3.55,17.01.17,20.84,8.3l11.07,23.48c2.17,4.59,8.45,5.22,11.48,1.14h0c1.38-1.85,1.71-4.28.88-6.43l-22.24-57.68c-3.24-8.39.55-17.62,8.47-20.61h0c7.91-2.99,16.95,1.4,20.19,9.79l22.34,57.93c.67,1.74,2.67,2.55,4.36,1.78h0c1.33-.61,2.09-2.02,1.85-3.47l-1.94-11.9-11.5-64.51c-1.58-8.86,3.9-17.19,12.24-18.62h0c8.34-1.42,16.37,4.6,17.95,13.46l15.25,70.97c.51,2.37,2.48,4.13,4.89,4.38h0c3.3.34,6.17-2.26,6.15-5.58l.58-60.66c.07-7.71,6.07-14.06,13.76-14.57h0c8.46-.56,15.65,6.11,15.72,14.59l.66,81.61" fill="none" stroke="#000" stroke-linecap="round" stroke-linejoin="round" stroke-width="10"/><path d="m1307.1,834.87l11.46-35.04c.49-1.39.9-2.8,1.29-4.22,2.15-7.92,9.74-12.79,17.65-11.03h0c8.41,1.88,14,10.56,12.47,19.39l-11.11,64.29-11.41,36.93" fill="none" stroke="#000" stroke-linecap="round" stroke-linejoin="round" stroke-width="10"/><path d="m1412.01,711.24l172.22,6.96c12.51,0,22.65,10.14,22.65,22.65h0c0,12.51-10.14,22.65-22.65,22.65h-30.92" fill="none" stroke="#000" stroke-linecap="round" stroke-linejoin="round" stroke-width="10"/><path d="m1553.31,763.51h30.92c12.51,0,22.65,10.14,22.65,22.65h0c0,12.51-10.14,22.65-22.65,22.65h-30.92" fill="none" stroke="#000" stroke-linecap="round" stroke-linejoin="round" stroke-width="10"/><path d="m1553.31,808.81h30.92c12.51,0,22.65,10.14,22.65,22.65h0c0,12.51-10.14,22.65-22.65,22.65h-30.92" fill="none" stroke="#000" stroke-linecap="round" stroke-linejoin="round" stroke-width="10"/><path d="m1553.31,854.12h30.92c12.51,0,22.65,10.14,22.65,22.65h0c0,12.51-10.14,22.65-22.65,22.65h-30.92s-128.43,7.78-128.43,7.78" fill="none" stroke="#000" stroke-linecap="round" stroke-linejoin="round" stroke-width="10"/><path d="m1167.06,1453.76l78.81-21.2c8.19-2.2,16.55,2.94,18.27,11.25h0c1.56,7.55-2.95,15.03-10.36,17.16l-58.3,16.79c-3.2.87-4.94,4.33-3.73,7.42h0c.88,2.25,3.11,3.68,5.53,3.54l72.46-4.3c8.96-.85,16.91,5.28,17.77,13.7h0c.86,8.41-5.71,15.92-14.66,16.77l-65.23,6.19-11.98,1.31c-1.45.16-2.62,1.27-2.84,2.71h0c-.29,1.84,1.03,3.54,2.88,3.73l61.8,6.02c8.95.87,15.6,8.41,14.84,16.83h0c-.76,8.42-8.64,14.54-17.59,13.67l-61.53-6c-2.29-.22-4.54.74-5.96,2.56h0c-3.12,4.01-.83,9.89,4.17,10.75l25.59,4.38c8.87,1.52,14.95,9.52,13.58,17.86h0c-1.37,8.35-9.67,13.88-18.54,12.36l-64.59-11.06s-34.21-12.17-43.3-15.13c-9.09-2.96-6.4-2.69-6.4-2.69" fill="none" stroke="#000" stroke-linecap="round" stroke-linejoin="round" stroke-width="10"/><path d="m1167.06,1453.76l30.69-20.42c1.2-.84,2.46-1.62,3.72-2.37,7.06-4.19,9.72-12.81,5.9-19.96h0c-4.06-7.6-13.92-10.66-22.02-6.83l-58.97,27.91-32.53,20.87" fill="none" stroke="#000" stroke-linecap="round" stroke-linejoin="round" stroke-width="10"/><path d="m2439.34,1094.41c-2.4-20.43-14.43-50.32-26.51-67.33l-11.6-16.34c-10.91-15.38-1.85-36.87,16.77-39.79h0c9.85-1.55,19.7,2.82,25.17,11.16l27.36,41.69c19.08,29.07,30.54,62.47,33.33,97.14l.48,5.91" fill="none" stroke="#000" stroke-linecap="round" stroke-linejoin="round" stroke-width="10"/><path d="m2307.81,1144.14l-1.25-29.96c-.43-10.43,4.99-20.22,14.06-25.39h0c12.7-7.23,28.84-3.43,36.97,8.72l20.53,30.66" fill="none" stroke="#000" stroke-linecap="round" stroke-linejoin="round" stroke-width="10"/><path d="m2339.22,1084.54c2.37-5.37,6.42-9.96,11.71-12.98h0c12.7-7.23,28.84-3.43,36.97,8.72l20.53,30.66" fill="none" stroke="#000" stroke-linecap="round" stroke-linejoin="round" stroke-width="10"/><path d="m2369.96,1068.4c2.34-5.54,6.46-10.29,11.89-13.37h0c12.7-7.23,28.84-3.43,36.97,8.72l20.53,30.66" fill="none" stroke="#000" stroke-linecap="round" stroke-linejoin="round" stroke-width="10"/><path d="m2582.82,1491.18s33.12,207.36,30.45,225.66c-2.67,18.31-93.71,50.34-126.95,53.01-33.24,2.67-84.52-12.63-201.9,0-112.1,12.06-292.38,1.27-312.71-53.01-12.14-32.43-10.03-109.32-10.03-109.32" fill="none" stroke="#000" stroke-linecap="round" stroke-linejoin="round" stroke-width="10"/><polyline points="1971.71 1716.84 1932.75 1958.71 1913.86 1691.07" fill="none" stroke="#000" stroke-linecap="round" stroke-linejoin="round" stroke-width="10"/><line x1="2030.89" y1="1176.36" x2="1993.61" y2="1379.43" fill="none" stroke="#000" stroke-linecap="round" stroke-linejoin="round" stroke-width="10"/><g><ellipse cx="752.71" cy="1009.63" rx="10.99" ry="10.89" transform="translate(-31.97 24.64) rotate(-1.84)" stroke="#000" stroke-linecap="round" stroke-linejoin="round" stroke-width="10"/><ellipse cx="892.49" cy="1005.15" rx="10.99" ry="10.89" transform="translate(-31.75 29.12) rotate(-1.84)" stroke="#000" stroke-linecap="round" stroke-linejoin="round" stroke-width="10"/><path d="m828.18,1007.17l23.38,47.22c12.14,24.52-5.32,53.31-32.88,54.19l-21.19.68" fill="none" stroke="#000" stroke-linecap="round" stroke-linejoin="round" stroke-width="10"/></g><g><ellipse cx="2285.02" cy="878.21" rx="10.89" ry="10.99" transform="translate(1334.03 3133.91) rotate(-88.16)" stroke="#000" stroke-linecap="round" stroke-linejoin="round" stroke-width="10"/><ellipse cx="2145.24" cy="873.73" rx="10.89" ry="10.99" transform="translate(1203.21 2989.86) rotate(-88.16)" stroke="#000" stroke-linecap="round" stroke-linejoin="round" stroke-width="10"/><path d="m2209.54,875.75l-23.38,47.22c-12.14,24.52,5.32,53.31,32.88,54.19l21.19.68" fill="none" stroke="#000" stroke-linecap="round" stroke-linejoin="round" stroke-width="10"/></g><g><ellipse cx="1649.99" cy="1422.31" rx="10.89" ry="10.99" transform="translate(175.53 3025.87) rotate(-88.16)" stroke="#000" stroke-linecap="round" stroke-linejoin="round" stroke-width="10"/><ellipse cx="1510.21" cy="1417.83" rx="10.89" ry="10.99" transform="translate(44.71 2881.83) rotate(-88.16)" stroke="#000" stroke-linecap="round" stroke-linejoin="round" stroke-width="10"/><line x1="1574.51" y1="1419.86" x2="1553.11" y2="1463.53" fill="none" stroke="#000" stroke-linecap="round" stroke-linejoin="round" stroke-width="10"/></g><path d="m2301.33,1429c-1.01.06-1.65.12-2.3.12-14.79,0-29.58,0-44.37-.09-1.06,0-2.34-.54-3.12-1.25-7.22-6.62-14.34-13.34-21.5-20.03-2.89,2.99-5.57,6.04-8.55,8.76-11.19,10.22-24.52,16.03-39.39,18.29-14.16,2.15-28.21,1.49-41.71-3.53-23.14-8.61-37.52-24.93-40.64-49.7-2.41-19.13,3.3-36.14,16.73-50.19,4.68-4.89,9.95-9.21,14.96-13.78.66-.6,1.38-1.14,1.85-1.52-3.34-5.74-6.97-11.13-9.77-16.92-9.3-19.2-8.25-37.93,4.3-55.32,8.97-12.43,21.91-18.92,36.87-21.17,12.8-1.93,25.28-.54,37.03,5.27,11.99,5.92,20.01,15.48,24.99,27.74.22.55.03,1.68-.39,2.03-8.69,7.13-17.43,14.18-26.18,21.24-.16.13-.4.14-.46.16-1.36-3.61-2.41-7.31-4.09-10.7-5.82-11.77-19.57-16.36-31.39-10.69-10.59,5.08-14.64,17.76-9.33,28.99,2.99,6.32,7.44,11.54,12.43,16.26,19.51,18.44,39.12,36.79,58.7,55.16,20.35,19.1,40.71,38.18,61.06,57.28,4.4,4.13,8.78,8.28,13.16,12.43.3.29.58.61,1.1,1.17Zm-144.04-89.7c-1.78,1.35-3.42,2.54-5,3.82-8.12,6.55-14.34,14.28-16.39,24.9-3.71,19.23,9.79,37.48,30.88,36.96,15.48-.38,27.18-7.26,35.51-20.21,1.03-1.6.95-2.46-.46-3.75-5.9-5.38-11.68-10.9-17.51-16.37-8.96-8.4-17.91-16.81-27.03-25.36Z" fill="none" stroke="#000" stroke-linecap="round" stroke-linejoin="round" stroke-width="10"/><line x1="1444.47" y1="2315.01" x2="1454.92" y2="2312.92" fill="none" stroke="#000" stroke-linecap="round" stroke-linejoin="round" stroke-width="10"/><path d="m1140.84,674.88s226.62-197.96,431.65-29.64" fill="none" stroke="#fff" stroke-linecap="round" stroke-linejoin="round" stroke-width="10"/><path d="m1165.16,599.08s185.05-152.98,364.94-37.69" fill="none" stroke="#fff" stroke-linecap="round" stroke-linejoin="round" stroke-width="10"/><path d="m2049.08,2139.01s46.42,99.92-42.15,145.34" fill="none" stroke="#000" stroke-linecap="round" stroke-linejoin="round" stroke-width="10"/><path d="m2116.07,2161.72s27.69,138.53-68.83,157.83" fill="none" stroke="#000" stroke-linecap="round" stroke-linejoin="round" stroke-width="10"/><circle cx="903.47" cy="1004.37" r="65.23" fill="none" stroke="#000" stroke-linecap="round" stroke-linejoin="round" stroke-width="10"/><circle cx="749.52" cy="1009.97" r="65.23" fill="none" stroke="#000" stroke-linecap="round" stroke-linejoin="round" stroke-width="10"/><line x1="812.7" y1="993.76" x2="838.88" y2="995.26" fill="none" stroke="#000" stroke-linecap="round" stroke-linejoin="round" stroke-width="10"/><path d="m684.27,1004.37l-66.09-7.09c-19.74-2.12-38.68,8.43-47.27,26.32h0" fill="none" stroke="#000" stroke-linecap="round" stroke-linejoin="round" stroke-width="10"/></g></svg>