<?xml version="1.0" encoding="UTF-8"?><svg id="a" xmlns="http://www.w3.org/2000/svg" viewBox="0 0 1845.06 1080"><defs><style>.b{fill:#fff;stroke:#000;stroke-linecap:round;stroke-linejoin:round;stroke-width:1.5px;}</style></defs><path class="b" d="m692.7,879.71l187.98,93.52c32.46,16.15,71.84,6.48,93.13-22.86h0c27.19-37.46,13.83-90.41-27.88-110.48l-115.63-55.65"/><path class="b" d="m830.4,923.85l110.39-135.33c22.92-28.09,22.18-68.63-1.73-95.88h0c-30.54-34.79-85.12-33.44-113.91,2.81l-79.8,100.49"/><path class="b" d="m746.86,801.23l125.07,28.73c45.12,10.37,69.84,59.05,51.6,101.59h0c-14.29,33.32-50.56,51.44-85.78,42.86l-157.05-38.25c-31.14-7.59-61.07-19.49-88.92-35.38l-27.81-15.87c-29.65-16.92-56.62-38.16-80.01-63.03h0c-37.13-39.48-64.4-87.19-79.56-139.23l-4.45-15.28"/><path class="b" d="m1350.74,524.94c-220.92-2.51-265.61,136.37-347.23,114.8-35.67-6.8-73.04-20.07-104.87-51.17-5.51-5.38-19.82-20.22-30.15-33.16-65.86-82.43-199.31-66.94-199.42,43.84-4.27,90.05,101.3,126.33,175.79,78.53,33.47-21.48,89.04-5.44,112.85,1.11,31.38,8.66,67.1,34.15,73.01,82.02,1.1,8.93,18.69,101.78,56.05,138.74,58.05,57.43,89.15,48.63,169.22,49.03,94.6.48,219.95.05,340.93-1.72,60.78-.89,112.25-92.5,112.25-182.81,0-132.09-181.66-239.21-358.42-239.21Z"/><path class="b" d="m661.02,269.86l132.7,126.48c31.56,28.78,37.67,76.17,14.44,112.01h0c-27.14,41.87-83.78,52.52-124.28,23.38l-54.85-39.48"/><path class="b" d="m546.72,874.06c69.05,42.45,165.93,33.36,222.53-24.66l32.52-33.34c31.48-32.27,26.95-84.96-9.56-111.38h0c-27.97-20.25-66.24-18.4-92.14,4.44l-40.73,35.92c-13.6,11.99-33.98,12.03-47.62.1h0"/><ellipse class="b" cx="994.7" cy="669.99" rx="5.62" ry="57.5" transform="translate(98.59 1467.06) rotate(-75.61)"/><ellipse class="b" cx="909.08" cy="631.61" rx="5.62" ry="57.5" transform="translate(71.42 1355.27) rotate(-75.61)"/><polyline class="b" points="466.95 80.36 695.24 217.92 354.59 735.03 112.18 583.75"/><circle class="b" cx="488.44" cy="216.2" r="53.66"/><circle class="b" cx="487.86" cy="199" r="7.15"/><circle class="b" cx="504.93" cy="216.88" r="7.15"/><circle class="b" cx="471.96" cy="216.88" r="7.15"/><circle class="b" cx="487.86" cy="233.4" r="7.15"/></svg>