<?xml version="1.0" encoding="UTF-8"?><svg id="uuid-7a072f8c-4bda-47a1-8b12-8eacb8a21c72" xmlns="http://www.w3.org/2000/svg" viewBox="0 0 1200 1200"><rect x="-304.12" y="-35.28" width="1550.78" height="1248.51" fill="#ebeeea"/><polygon points="-263.61 -7.88 -90.62 124.6 -188.35 277.71 -54.79 386.84 -206.45 643.8 -56.35 746.78 -152.04 944.06 -.43 1208.65 -3617.65 1243.04 -3617.65 -20.92 -263.61 -7.88" fill="#adadad" stroke="#000" stroke-miterlimit="10" stroke-width=".75"/><path d="m590.01,1065.72c-4.65,8.03-12.63,18.03-23.28,20.73-13.98,3.55-64.33,2.56-94.59,4.2-13.94.76-15.2,19.42-11.47,32.86l8.52,46.88,165.98-.6,38.27-34.03,5.19,33.87,110.35.03.41-104.14" fill="#fff" stroke="#000" stroke-linecap="round" stroke-linejoin="round"/><line x1="789.04" y1="1151.06" x2="675.94" y2="1152.13" fill="#fff" stroke="#000" stroke-linecap="round" stroke-linejoin="round"/><line x1="654.91" y1="1152.24" x2="466.38" y2="1152.27" fill="#fff" stroke="#000" stroke-linecap="round" stroke-linejoin="round"/><path d="m778.39,1065.56c-4.65,8.03-12.63,18.03-23.28,20.73-13.98,3.55-64.33,2.56-94.59,4.2-13.94.76-15.2,19.42-11.47,32.86l8.52,46.88,165.98-.6,38.27-34.03,5.19,33.87,110.35.03.41-104.14" fill="#fff" stroke="#000" stroke-linecap="round" stroke-linejoin="round"/><line x1="977.42" y1="1150.9" x2="864.32" y2="1151.97" fill="#fff" stroke="#000" stroke-linecap="round" stroke-linejoin="round"/><line x1="843.29" y1="1152.08" x2="654.76" y2="1152.11" fill="#fff" stroke="#000" stroke-linecap="round" stroke-linejoin="round"/><polyline points="884.98 360.49 831.95 301.03 661.5 330.61 619.16 347.4 586.89 412.72 662.41 518.78 731.51 561.36" fill="#fff" stroke="#000" stroke-linecap="round" stroke-linejoin="round"/><path d="m535.43,768.69l-28.15,64.23c-16.42,37.46-14.2,80.48,5.98,116.06l66.03,116.42,231.08-.22-70.39-155.95,44.51-59.68c22.7-30.43,33.03-68.33,28.93-106.07l-4.82-75.56" fill="#0085ff" stroke="#000" stroke-miterlimit="10"/><path d="m730.4,759.65l-34.75,73.12c-16.42,37.46-14.2,80.48,5.98,116.06l66.03,116.42,231.68,1.29-70.99-157.46,44.51-59.68c22.7-30.43,33.03-68.33,28.93-106.07l-4.82-75.56" fill="#0085ff" stroke="#000" stroke-miterlimit="10"/><path d="m888.83,322.79l2.13,1.62c56.26,42.77,93.15,106.2,102.5,176.25l17.8,133.32c3.26,24.96-9.99,49.17-32.78,59.88l-28.3,13.3c-35.56,17.1-74.61,25.71-114.06,25.16l-42.28-.59c-28.75-.4-57.22-5.66-84.21-15.56h0s-79.17-63.48-79.17-63.48" fill="#fff" stroke="#000" stroke-linecap="round" stroke-linejoin="round"/><path d="m52.65,714.48c-9.21,1.15-22,.85-30.59-5.99-11.29-8.98-40.96-49.67-60.58-72.76-9.04-10.64-24.66-.36-33.1,10.75l-32.17,35.15L-2.9,813.41l50.25,9.88-23.83,24.62,66.74,87.87,83.16-62.69" fill="#fff" stroke="#000" stroke-linecap="round" stroke-linejoin="round"/><line x1="105.13" y1="924.58" x2="35.85" y2="835.17" fill="#fff" stroke="#000" stroke-linecap="round" stroke-linejoin="round"/><line x1="23.03" y1="818.5" x2="-91.07" y2="668.42" fill="#fff" stroke="#000" stroke-linecap="round" stroke-linejoin="round"/><path d="m346.28,502.13l-146.35-26.61-159.04,223.94,144.17,188.12,80.48-150.51c6.13-11.46,19.17-17.4,31.84-14.49l103.24,23.71,95.47,14.9,106.39-150" fill="#fff" stroke="#000" stroke-linecap="round" stroke-linejoin="round"/><path d="m404.99,1065.34c-4.68,8.01-12.7,17.98-23.36,20.65-14,3.5-64.34,2.32-94.6,3.86-13.94.71-15.27,19.36-11.59,32.82l8.35,46.91h165.98s38.39-33.89,38.39-33.89l5.06,33.89,110.35.43.79-104.14" fill="#fff" stroke="#000" stroke-linecap="round" stroke-linejoin="round"/><line x1="603.71" y1="1151.4" x2="490.6" y2="1152.05" fill="#fff" stroke="#000" stroke-linecap="round" stroke-linejoin="round"/><line x1="469.57" y1="1152.1" x2="281.04" y2="1151.44" fill="#fff" stroke="#000" stroke-linecap="round" stroke-linejoin="round"/><path d="m712.9,555.48l7.6,24.06c13.03,41.25,10.59,85.83-6.85,125.41h0c-8.66,19.66-20.81,37.59-35.86,52.92l-12.72,12.96c-35.45,36.12-53.25,85.98-48.68,136.38l14.34,158.35-245.3-.73-19.15-188.17c-3.05-29.97,1.8-60.21,14.07-87.72l33.65-75.45" fill="#fff" stroke="#000" stroke-linecap="round" stroke-linejoin="round"/><path d="m70.22,488.85l-8.41-40.8-42.47-14.66-25.3,14.63c-13.44,7.77-25.22,18.13-34.66,30.46l-7.16,9.37-11.58,16.3" fill="#fff" stroke="#000" stroke-linecap="round" stroke-linejoin="round"/><path d="m86.64,530.42l15.99,12.89,3.41,42.83-22.61,25.09-43.67,4.34c-15.08,1.5-30.3-.78-44.28-6.63l-16.66-6.97-9.08-9" fill="#fff" stroke="#000" stroke-linecap="round" stroke-linejoin="round"/><g><path d="m-58.38,506.61l50.62-21.55c7.95-3.38,17.16,0,21.02,7.73h0c4.25,8.5.38,18.82-8.41,22.43l-44.64,18.32" fill="#fff" stroke="#000" stroke-linecap="round" stroke-linejoin="round"/><path d="m-45.95,526.97l50.62-21.55c7.95-3.38,17.16,0,21.02,7.73h0c4.25,8.5.38,18.82-8.41,22.43l-44.64,18.32" fill="#fff" stroke="#000" stroke-linecap="round" stroke-linejoin="round"/><path d="m-42.98,550.52l50.62-21.55c7.95-3.38,17.16,0,21.02,7.73h0c4.25,8.5.38,18.82-8.41,22.43l-44.64,18.32" fill="#fff" stroke="#000" stroke-linecap="round" stroke-linejoin="round"/><path d="m-47.67,579.14l50.62-21.55c7.95-3.38,17.16,0,21.02,7.73h0c4.25,8.5.38,18.82-8.41,22.43l-94.09,34.46-25.61-8.33-1.14-20.07-15.53-59.85,15.56-24.07,33.26-33.89c7.32-7.52,19.23-8.04,27.18-1.19h0c8.75,7.54,9.24,20.92,1.07,29.09l-14.04,14.03" fill="#fff" stroke="#000" stroke-linecap="round" stroke-linejoin="round"/></g><polyline points="326.2 246.84 9.63 418.05 95.6 552.27 387.87 395.58" fill="#f93d00" stroke="#000" stroke-miterlimit="10"/><path d="m289.87,383.56l68.49,224.86c6.21,20.38,22.5,36.1,43.09,41.58l31.14,8.28c27.59,7.34,56.22,10.05,84.7,8.01h0c67.75-4.84,130.86-36.19,175.65-87.25h0c17.28-19.7,20.97-47.87,9.37-71.36l-25.02-50.64c-44.49-90.04-120.37-160.71-213.34-198.7h0" fill="#f93d00" stroke="#000" stroke-miterlimit="10"/><polyline points="431.52 544.21 95.25 646.58 58.59 517.3 358.32 395.8" fill="#f93d00" stroke="#000" stroke-miterlimit="10"/><polygon points="551.97 327.55 528.49 368.03 538.79 413 575.69 395.83 576.85 352.19 551.97 327.55" fill="#fff" stroke="#000" stroke-linecap="round" stroke-linejoin="round"/><circle cx="336.71" cy="235.92" r="127.38" fill="#fff" stroke="#000" stroke-linecap="round" stroke-linejoin="round"/><g><circle cx="325.57" cy="202.28" r="6.63" stroke="#000" stroke-linecap="round" stroke-linejoin="round"/><circle cx="246.43" cy="231.29" r="6.63" stroke="#000" stroke-linecap="round" stroke-linejoin="round"/><path d="m282.83,217.92l-2.33,31.91c-1.21,16.57,15.1,28.87,30.7,23.15l12-4.4" fill="none" stroke="#000" stroke-linecap="round" stroke-linejoin="round"/></g><path d="m56.27,490.75l-47.31,33.6c-8.27,6.46-20.15,5.36-27.09-2.51h0c-7.64-8.66-6.32-21.98,2.88-28.96l25.34-18.71" fill="#fff" stroke="#000" stroke-linecap="round" stroke-linejoin="round"/><path d="m40.88,580.74l-27.56-2.24c-10.42-1.24-18.08-10.39-17.47-20.86h0c.67-11.53,11-20.06,22.45-18.53l46.66,2.56" fill="#fff" stroke="#000" stroke-linecap="round" stroke-linejoin="round"/><path d="m560.64,336.07l2.75-33.74c7.51-9.97,22.01-11.22,31.12-2.69l5.97,5.59c7.75,7.25,13.08,16.7,15.3,27.08l4.99,24.85-46.07,51.18" fill="#fff" stroke="#000" stroke-linecap="round" stroke-linejoin="round"/><path d="m587.51,315.09l-6.07-4.13c-8.36-5.69-17.97-9.28-28.01-10.45l-15.21-1.79c-6.87-.92-13.18,3.91-14.09,10.78h0c-.22,1.7-.1,3.37.33,4.93l6.88,14.24,17.33,6.61" fill="#fff" stroke="#000" stroke-linecap="round" stroke-linejoin="round"/><path d="m572.32,331.04l-6.07-4.13c-8.36-5.69-17.97-9.28-28.01-10.45l-15.21-1.79c-6.87-.92-13.18,3.91-14.09,10.78h0c-.24,1.85-.07,3.65.44,5.33l11.86,13.38,20.67,11.8" fill="#fff" stroke="#000" stroke-linecap="round" stroke-linejoin="round"/><path d="m560.47,347.77l-6.07-4.13c-8.36-5.69-17.97-9.28-28.01-10.45l-15.21-1.79c-6.87-.92-13.18,3.91-14.09,10.78h0c-.4,3.02.31,5.93,1.82,8.33l7.78,14.04,24.96,5.72" fill="#fff" stroke="#000" stroke-linecap="round" stroke-linejoin="round"/><path d="m536.19,403.69l-7.29-13.35c-3.68-6.71-10.31-11.3-17.9-12.38l-15.39-2.19c-6.81-.97-11.56-7.24-10.66-14.05h0c.91-6.87,7.22-11.7,14.09-10.78l15.21,1.79c10.04,1.18,19.65,4.77,28.01,10.45l6.07,4.13" fill="#fff" stroke="#000" stroke-linecap="round" stroke-linejoin="round"/><path d="m728.11,473.13l-86.3-127.85-117.82,65.58,96.4,173.2c21.54,38.7,61.92,63.14,106.2,64.27h0c40.52,1.04,79.03-17.6,103.36-50.03l78.64-104.82" fill="#fff" stroke="#000" stroke-linecap="round" stroke-linejoin="round"/><circle cx="776.93" cy="276.09" r="127.38" fill="#fff" stroke="#000" stroke-linecap="round" stroke-linejoin="round"/><g><circle cx="786.26" cy="267.03" r="6.63" stroke="#000" stroke-linecap="round" stroke-linejoin="round"/><circle cx="711.16" cy="228.74" r="6.63" stroke="#000" stroke-linecap="round" stroke-linejoin="round"/><path d="m745.72,246.34l-24.98,20c-12.97,10.39-10.9,30.7,3.91,38.25l11.38,5.8" fill="none" stroke="#000" stroke-linecap="round" stroke-linejoin="round"/></g><rect x="-3710.78" y="1170.21" width="5121.3" height="107.06" fill="#adadad" stroke="#000" stroke-miterlimit="10" stroke-width=".75"/></svg>