<?xml version="1.0" encoding="utf-8"?>
<!-- Generator: $$$/GeneralStr/196=Adobe Illustrator 27.6.0, SVG Export Plug-In . SVG Version: 6.00 Build 0)  -->
<svg version="1.1" id="Layer_1" xmlns="http://www.w3.org/2000/svg" xmlns:xlink="http://www.w3.org/1999/xlink" x="0px" y="0px"
	 viewBox="0 0 2000 2000" style="enable-background:new 0 0 2000 2000;" xml:space="preserve">
<style type="text/css">
	.st0{fill:#81C7FF;}
	.st1{fill:#FDFAA2;}
	.st2{fill:#DED2D0;}
	.st3{fill:#0484FD;}
	.st4{fill:#FF3C00;}
	.st5{fill:#80C6FD;}
	.st6{fill:#09C76C;}
	.st7{fill:#F47235;}
	.st8{fill:#FCD2A5;}
	.st9{fill:#FBFFFF;}
	.st10{fill:none;stroke:#000000;stroke-width:2;stroke-linecap:round;stroke-linejoin:round;}
	.st11{stroke:#000000;stroke-width:2;stroke-linecap:round;stroke-linejoin:round;}
</style>
<g id="a">
	<rect x="-0.5" y="-0.5" class="st0" width="2001" height="2001"/>
	<rect x="542.2" y="365.6" class="st1" width="1009.9" height="1139.1"/>
	<rect x="601.3" y="428.6" class="st2" width="898.9" height="1013.5"/>
	<polygon class="st3" points="1093.8,926.8 1092.2,943.7 1088.6,987.1 1083.4,1041.8 1082.1,1058.7 1080.1,1085.6 1080.1,1105.8 
		1082.8,1161.3 1087.4,1265.9 1172.6,1266.1 1173.4,1270 1276,1270 1276.3,1259.3 1276,1185.5 1276.3,1114.4 1276.3,1100.4 
		1279.7,1072 1283.7,1045.8 1292.8,1019.7 1263,925.3 	"/>
	<polygon class="st4" points="1288.7,681.3 1299.1,691.2 1305.9,699.7 1314.5,712.5 1320.9,724.2 1324.9,735.4 1327.6,743.7 
		1330.2,756.2 1331.3,765.2 1326.2,968.1 1264,968.1 1263,925.3 1219.2,925.7 1093,925.7 1088.9,922.6 1087.8,917.7 1088.7,887 
		1091.4,753.9 1089.6,733.2 1085.6,717.4 1079.6,702.8 1075,694.3 1069.6,685.2 1060.8,674.5 1049.2,663 1035.9,652.9 1020.7,644.3 
		997.6,633.6 962,619.8 982.7,580.2 994.2,581.8 1021.7,584.6 1036,585.8 1052.5,588.8 1069.9,594.6 1090.6,602.5 1106.5,609.2 
		1121.3,615 1146.7,623.6 1239.9,637.6 	"/>
	<polygon class="st5" points="993.1,925.7 994.7,943.2 998.4,986.7 1003,1041.3 1004.1,1058.9 1005.9,1085.7 1006.3,1106.1 
		1004.2,1161.1 999.5,1265.9 915.4,1266.3 914.5,1270.1 809.6,1270 810.2,1259.5 812,1185.6 814.6,1113.6 815.2,1095.8 813,1067.5 
		806.6,1043.9 795.1,1019.9 824.9,925.5 	"/>
	<polygon class="st6" points="1077.1,698.3 1066.7,681 1055.6,669.3 1047.2,660.8 1027.6,647.7 1010.8,639 982.4,627.7 952.8,616.4 
		863,619.2 808.2,649.5 803.3,656.1 795.6,667.7 787.4,685.5 781,703.5 774.9,729.4 772.5,752.1 770.3,965 771.6,965.9 832.4,967.3 
		836,925.7 848.7,925.7 992,925.5 995.8,924.5 999,921.7 999,916.1 997.9,897.7 990.6,783.6 989.1,759.9 989.4,751.6 992.2,739.8 
		997.7,730.3 1007,719.7 1016.5,713.4 1027.1,709.3 	"/>
	<polygon class="st7" points="1110.1,1266.1 1107.7,1272 1101.6,1277.3 1091,1278.9 1054.4,1280.6 1050.7,1281.8 1048.8,1284.5 
		1048.5,1290.8 1051.7,1309.6 1207.7,1310.1 1217.9,1301.8 1219.6,1309.6 1272.1,1309.6 1272.3,1270 1173.4,1270 1172.6,1266.1 	"/>
	<polygon points="1051.7,1309.6 1053.3,1317.4 1201.6,1317.2 1207.7,1310.1 	"/>
	<polygon points="1272.1,1309.6 1272.1,1317 1220.7,1317 1219.6,1309.6 	"/>
	<polygon class="st8" points="977.8,1266.3 980.2,1272.2 986.3,1277.4 997,1279.1 1033.5,1280.7 1037.2,1281.9 1039.2,1284.6 
		1039.4,1291 1036.3,1309.7 880.3,1310.2 870,1301.9 868.3,1309.7 815.9,1309.7 815.6,1270.2 914.5,1270.1 915.4,1266.3 	"/>
	<polygon points="815.9,1309.7 815.9,1317.2 867.2,1317.2 868.3,1309.7 	"/>
	<polygon points="887,1317.5 880.3,1310.2 1036.3,1309.7 1034.7,1317.3 	"/>
	<polygon class="st9" points="0,1259.5 9.5,1254.1 26,1245.8 41.3,1237.7 63.7,1227.7 79,1221.5 106.3,1211 120,1205.8 
		137.4,1200.7 163.7,1193.1 185.2,1187.3 206.9,1182.8 247.3,1175.6 267.7,1173.5 301.8,1170.3 324.7,1169.4 368.9,1169.4 
		407.6,1171.7 452.5,1176.4 472.7,1180.3 518.7,1190.3 559.7,1201.9 611,1220.1 638.9,1232.4 673.8,1249.8 727.3,1280.2 776,1315 
		801,1335.6 816.7,1349 832,1363.5 851.1,1382 883.2,1417.5 910.7,1451.3 935.7,1487.8 950.2,1511.2 963.5,1533.9 976,1557.5 
		986.7,1579.8 1001.9,1615.4 1012.4,1643.6 1026,1688.4 1033.1,1716 1038.5,1745.5 1043.7,1772.8 1045.6,1790.7 1047.3,1807.4 
		1049.6,1835.6 1050.7,1861.1 1050.7,1878.4 1049.9,1905.4 1049.3,1922.8 1046.8,1949.2 1043.9,1971.3 1039.5,1999.8 0,1999.8 	"/>
	<path class="st9" d="M1898.5,1656.3l-2.8-66.2l-6.4-121.3l-6.4-132.8l-1.6-10.6l-6.9-12.2l-8.3-7.5l-13.2-5.9l-10.2-1l-8.1,1.4
		l-9.2,2.9l-8.5,6.9l-6.5,8.3l-2.9,6.5l-1.8,7.3l-0.6,80.9l-2.4-1.4l-1.6-51.8l-1.6-53.9l0.2-16.5l-2-13.4l-5.9-10l-11-10.2l-11-4.1
		l-9.4-0.8l-10.6,1.6l-9.8,4.5l-8.8,7.5l-5.5,9.1l-2.9,9.8l-0.6,107.6l-2.4,2v-13l-3.2-102.5l-1.2-16.7l-4.9-11.4l-4.1-5.9
		l-10.2-7.7l-8.7-3.9l-11.2-0.9l-9.6,1.7l-8.7,3.2l-7.7,6.3l-4.1,5.5l-4.9,9.1l-2.2,7.5l-0.4,8.8l0.2,181.4l-2.1,0.2l-1.6-15.4
		l-14.6-156.3l-1.9-12.1l-6.9-13.4l-6.9-7.2l-7.6-4.2l-8.8-2.8l-7.6-1.1l-9.1,1.3l-8.7,2.7l-10.2,7.2l-6.5,7.6l-4.2,9l-1.7,8.2
		l-0.6,7.6l1.9,152.7l-0.5,13.8l-2.7,11.6l-6,10.3l-5.2,7.1l-9.2,7.8l-7.3,4.1l-9,3.4l-7.7,1.2l-85.1,5.8l-11.3,3.4l-10.5,7.2
		l-6.3,6.3l-4.6,9.6l-3.3,9.3l0.2,9.6l1.4,9.3l3.7,8.4c0,0,5,6,5.1,6.5s6,6.5,6,6.5l8.9,5.4l9.2,2.5h12.3l53.9,0.7l14.7,0.3l13,2.9
		l6.9,3.3l6.9,3.6l7.7,6.6l6.7,8.2l5.1,8.2l36.4,86.7L1898.5,1656.3L1898.5,1656.3z"/>
	<path class="st9" d="M320.2,90.9l65.9-7L507,72.5l132.3-13.1h10.7l13.1,5l8.6,7.1l7.8,12.2l2.5,10l-0.2,8.2l-1.6,9.6l-5.6,9.4
		l-7.2,7.6l-6,3.9l-6.9,2.8l-79.9,12.4l1.7,2.1l51.4-6l53.6-6.3l16.3-2.6h13.5l10.8,4.4l11.7,9.4l5.7,10.3l2.2,9.2v10.7l-3,10.4
		l-6.1,9.9l-8.2,6.8l-9.3,4.4l-106.4,16.4l-1.6,2.6l12.8-1.9l101.9-11.9l16.7-1.3l12,3.2l6.4,3.2l9.1,9l5.2,8l2.6,11l-0.3,9.8
		l-1.8,9l-5.1,8.5l-4.8,4.9l-8.2,6.2l-7.1,3.2l-8.7,1.7l-179.5,26.4l0.2,2.1l15.5-0.7l156.7-8.4l12.2,0.1l14.2,4.9l8.2,5.8l5.3,6.8
		l4.1,8.3l2.2,7.3l0.1,9.2l-1.4,9l-5.6,11.1l-6.6,7.5l-8.2,5.5l-7.8,2.9l-7.4,1.7l-151.3,20.4l-13.6,2.5l-11.1,4.4l-9.3,7.5
		l-6.2,6.2l-6.3,10.3l-3,7.8l-2,9.4l-0.1,7.8l6.7,85l-1.7,11.6l-5.6,11.4l-5.3,7.1l-8.8,5.9l-8.7,4.6l-9.5,1.2l-9.4-0.1l-8.8-2.4
		c0,0-6.7-4-7.2-4.1s-7.4-5-7.4-5l-6.6-8l-3.8-8.7l-1.8-12.2l-8.5-53.2l-2.4-14.5l-4.8-12.4l-4.3-6.4l-4.6-6.4l-7.7-6.6l-9.1-5.5
		l-8.9-3.9l-91.1-23.3L320.2,90.9L320.2,90.9z"/>
	<polygon class="st9" points="1267.6,969.4 1262.5,980.9 1254.7,1006.7 1254.7,1011.3 1257.2,1014.2 1260.2,1015.1 1263.5,1015.1 
		1266.2,1012.1 1273.3,998.1 1275.7,1026.5 1277,1032.8 1279,1035.6 1283.4,1036.3 1287.4,1034.4 1288.9,1035 1291.2,1039.2 
		1294.2,1040.9 1298.7,1040.9 1300.7,1038.6 1301.7,1034.4 1301.9,1023.8 1304.8,1027.4 1307.1,1027 1309.8,1026.7 1312,1025.8 
		1313.8,1023.3 1314,1020.5 1314,1007.1 1316.6,1010.7 1319.4,1011.7 1322.3,1011.3 1324,1010.1 1326.2,1006.6 1325.2,997.4 
		1320.9,968.6 1268.4,968.1 	"/>
	<polygon class="st9" points="828.9,967.5 834,979 841.8,1004.7 841.8,1009.3 839.3,1012.2 836.3,1013.1 833,1013.1 830.2,1010.2 
		823.2,996.1 820.8,1024.6 819.5,1030.8 817.5,1033.7 813.1,1034.4 809.1,1032.5 808.2,1031.9 807.5,1033 805.2,1037.3 
		802.3,1038.9 797.8,1038.9 795.7,1036.6 794.8,1032.5 794.5,1021.9 791.7,1025.5 789.3,1025 786.7,1024.7 784.5,1023.8 
		782.7,1021.3 782.5,1018.6 782.5,1005.1 779.9,1008.8 777.1,1009.7 774.2,1009.3 772.5,1008.1 770.3,1004.6 771.3,995.5 
		775.6,966.6 828.9,967.5 	"/>
	<polygon class="st9" points="1287.6,679.5 1292.8,668.8 1293.4,660.8 1291.8,653.1 1284.3,644.7 1269.1,630.2 1262.6,627 
		1254.5,626.2 1245.7,628.3 1221.9,652.8 1220.7,656.8 1222.5,661.8 1227.2,664 1230.7,663.2 1230.8,666.9 1232.6,671.4 
		1234.8,673.6 1238.2,673.6 1240.8,672.8 1240.8,677.8 1243,681.9 1245.7,683.2 1250.1,683.2 1250.9,685.3 1252.1,689.9 
		1254.5,692.9 1257.8,692.9 1261.3,692 1266.1,687.4 1279.3,673.6 	"/>
	<polygon class="st9" points="838.9,590.4 830.8,588 822.9,588.8 815.5,591.8 808.6,600.7 797.1,618.3 795.1,625.2 795.7,633.3 
		799.4,641.6 827.7,660.6 831.8,661.1 836.5,658.5 837.8,653.4 836.3,650.2 840,649.4 844.1,646.9 845.8,644.3 845.2,640.9 
		844.1,638.6 848.9,637.7 852.6,634.8 853.4,631.8 852.6,627.6 854.5,626.3 858.8,624.4 861.3,621.4 860.8,618.3 859.3,614.9 
		853.9,611 845.5,603.7 	"/>
	<circle class="st9" cx="911.6" cy="564.2" r="77"/>
	<circle class="st9" cx="1192.2" cy="572.6" r="77"/>
	<polygon class="st4" points="1948.1,2000 1929.1,1651.8 1890.9,1658.1 1500.2,1719.8 1511.9,2001.7 	"/>
	<polygon class="st4" points="0,88.4 320.2,59.3 315.1,493.8 0,529.1 	"/>
</g>
<g id="b">
	<polyline class="st10" points="773.5,366 1552.2,366 1552.2,1252.9 	"/>
	<line class="st10" x1="542.2" y1="1196.6" x2="542.2" y2="440.7"/>
	<line class="st10" x1="1400.6" y1="1504.8" x2="946.8" y2="1504.8"/>
	<polyline class="st10" points="601.3,1216.3 601.3,428.6 1500.2,428.6 1500.2,1442.2 903.3,1442.2 	"/>
	<path class="st10" d="M0,1259.7c102.2-57.7,220.2-90.5,345.9-90.5c389.3,0,704.9,315.6,704.9,704.9c0,43-3.8,85.1-11.2,125.9"/>
	<path class="st10" d="M1898.5,1656.7l-15.6-320c-0.6-21-17.8-37.8-38.8-37.8l0,0c-21.5,0-38.9,17.4-38.9,38.9v144.5l-5.5-193.8
		c-0.6-21-17.8-37.8-38.8-37.8l0,0c-21.5,0-38.9,17.4-38.9,38.9v172.8l-5.5-193.8c-0.6-21-17.8-37.8-38.8-37.8l0,0
		c-21.5,0-38.9,17.4-38.9,38.9V1456c0,1.1-1.6,1.2-1.7,0.1l-17.1-177.9c-2-20.5-19.2-36.1-39.8-36.1l0,0
		c-22.2,0-40.2,18.1-39.9,40.3l1.5,160.1c0.3,29.2-22.4,53.6-51.6,55.3l-76.9,4.6c-22.5,1.3-40,20-40,42.5l0,0
		c0,23.5,19.1,42.6,42.6,42.6h66c23.9,0,45.5,14.4,54.7,36.5l34.9,83.6"/>
	<polyline class="st10" points="1948.1,2000 1929.2,1651.8 1500.2,1719.5 1512.3,2010.6 	"/>
	<path class="st10" d="M319.9,90.4l318.9-30.8c20.9-2.5,39.9,12.2,43,33l0,0c3.1,21.2-11.6,41-32.8,44.1l-143,20.8L698.5,135
		c20.9-2.4,39.9,12.2,43,33l0,0c3.1,21.2-11.6,41-32.8,44.1l-171,24.9l192.5-22.5c20.9-2.4,39.9,12.2,43,33l0,0
		c3.1,21.2-11.6,41-32.8,44.1l-184.4,26.9c-1.1,0.1-0.9,1.7,0.2,1.7l178.5-8.8c20.6-1,38.5,13.8,41.5,34.1l0,0
		c3.2,22-12.1,42.4-34.2,45.4l-158.7,21.6c-29,4-49.8,29.9-47.3,59.1l6.6,76.8c1.9,22.4-14,42.5-36.3,45.8l0,0
		c-23.3,3.4-44.9-12.7-48.3-36l-9.5-65.3c-3.5-23.7-20.8-43-44-48.9l-88.4-23"/>
	<polyline class="st10" points="0,88.4 320.2,59.3 315.2,493.6 0,529.1 	"/>
	<path class="st10" d="M860.4,621.7l7.4,5.7c12.6,8.7,27.8,13.8,44.3,13.7c41.5-0.2,75.7-34,76.4-75.5c0.8-43.7-34.7-79.2-78.4-78.4
		c-41.8,0.8-75.7,35.4-75.5,77.3c0,6.9,1,13.5,2.7,19.9c1.4,5,3.3,9.8,5.7,14.5l3.6,7.1"/>
	<circle class="st10" cx="1192.2" cy="572.6" r="76.9"/>
	<g>
		<circle class="st11" cx="916.9" cy="560.7" r="3.2"/>
		<circle class="st11" cx="958" cy="560.7" r="3.2"/>
		<path class="st10" d="M939.1,561.4l6.5,14.3c3.3,7.4-2.1,15.7-10.2,15.7l-6.2,0"/>
	</g>
	<g>
		<circle class="st11" cx="1185" cy="560.7" r="3.2"/>
		<circle class="st11" cx="1143.9" cy="560.7" r="3.2"/>
		<path class="st10" d="M1162.8,561.4l-6.5,14.3c-3.3,7.4,2.1,15.7,10.2,15.7l6.2,0"/>
	</g>
	<path class="st10" d="M1131.4,619.8l-33.3-13.7c-13.7-6.6-30.1-13.2-45.6-17.2c-5.7-1.5-11.4-2.5-17.3-3l-46.6-4.7"/>
	<path class="st10" d="M1263.3,925.7h-168.5c-3.6,0-6.5-2.9-6.4-6.5l3-162.4c0.2-9.4-0.8-18.8-2.8-28l0,0
		c-6.5-29.4-23.6-55.5-48.3-72.7c-15.2-10.6-31.9-19.1-49.6-25.4l-27.2-9.6"/>
	<path class="st10" d="M1260.2,736.7l3.8,231.6h62.2l5.1-193.7c1.2-39.9-20.1-76-51.2-101"/>
	<path class="st10" d="M838.5,925.7h153.4c4.2,0,7.5-3.5,7.2-7.7l-9.9-156.9c-0.8-13.3,3.7-26.4,12.6-36.4l0,0
		c6.9-7.7,16.1-13.1,26.2-15.4l49.4-11.1"/>
	<path class="st10" d="M804,1038L804,1038c7.9,19.3,11.7,40,11.1,60.8l-4.6,155.5l-0.9,15.7H914l13.5-154.6l6.3-120.9"/>
	<path class="st10" d="M993.1,925.7l11,127.8c2.1,24.3,2.6,48.7,1.5,73.1l-6.2,139.4h-85.2"/>
	<path class="st10" d="M851.1,731.8l-18.5,235.5l-62.1-1.5l1.8-205.4c0.3-28.9,6.6-57.2,18.4-83.1c4.8-10.6,11-20,18.8-28.6"/>
	<path class="st10" d="M1287.4,1033.8c-7.8,28.4-11.5,56.8-11.4,86.4l0.4,134.1l-0.4,15.7h-103.1l-13.5-154.6l-6.3-120.9"/>
	<path class="st10" d="M1093.8,925.7l-12.6,145.4c-1.1,12.6-1.3,25.2-0.8,37.9l7,157h85.2"/>
	<path class="st10" d="M809.7,1002.9l-1.9,24.9c-0.2,3.2,2,6,5.1,6.4l0,0c3.5,0.5,6.6-2,7-5.4l3.1-33.4"/>
	<path class="st10" d="M796,1000.1l-0.2,5l-1.2,26.9c-0.2,3.7,2.5,6.8,6,6.9l0,0c3.5,0.1,6.4-2.8,6.6-6.4l2.4-29.7"/>
	<path class="st10" d="M783.7,993l-1.3,25.4c-0.2,3.7,2.5,6.8,5.9,7l0,0c3.5,0.2,6.4-2.7,6.6-6.4l1.1-18.8"/>
	<path class="st10" d="M783.8,992.9l-1.2,10.6c-0.4,3.7-3.5,6.4-7,6l0,0c-3.5-0.3-5.9-3.6-5.5-7.3l5.4-36.4"/>
	<path class="st10" d="M823,995.3l5.9,12.1c0.3,0.5,0.5,1.1,0.7,1.7c1.2,3.1,4.5,4.7,7.7,3.6l0,0c3.3-1.2,5.2-4.9,4.1-8.5l-7.5-25.5
		l-5.2-11.4l0,0"/>
	<path class="st10" d="M1286.6,1005l1.9,24.9c0.2,3.2-2,6-5.1,6.4l0,0c-3.4,0.5-6.6-2-6.9-5.4l-3.1-33.4"/>
	<path class="st10" d="M1300.3,1002.2l0.2,5l1.2,26.9c0.2,3.7-2.5,6.8-6,6.9l0,0c-3.5,0.1-6.4-2.8-6.6-6.4l-2.4-29.7"/>
	<path class="st10" d="M1312.6,995.1l1.3,25.4c0.2,3.7-2.5,6.8-5.9,7l0,0c-3.5,0.2-6.4-2.7-6.6-6.4l-1.1-18.8"/>
	<path class="st10" d="M1312.5,995l1.2,10.6c0.4,3.7,3.5,6.4,7,6l0,0c3.5-0.3,5.9-3.6,5.5-7.3l-5.2-35"/>
	<path class="st10" d="M1273.3,997.4l-5.9,12.1c-0.3,0.5-0.5,1.1-0.7,1.7c-1.2,3.1-4.6,4.7-7.7,3.6l0,0c-3.3-1.2-5.2-4.9-4.1-8.5
		l7.5-25.5l5.2-11.4l0,0"/>
	<path class="st10" d="M908.5,1270c2.2,3.7,5.3,7.2,10.3,8.4c6.5,1.6,29.9,1.1,43.9,1.8c6.5,0.3,7.1,9,5.4,15.2l-3.9,21.8h-77.1
		l-17.8-15.7l-2.3,15.7l-51.2,0.2l-0.4-47.3 M867.9,1309.7h-52.1 M879,1309.7h86.6"/>
	<path class="st10" d="M885.9,1270.1l91-4l2.1,3.9c2.2,3.7,5.3,7.2,10.3,8.4c6.5,1.6,29.9,1.1,43.9,1.8c6.5,0.3,7.1,9,5.4,15.2
		l-3.9,21.8h-70.5 M886.2,1309.7h52.1h27.3h70.5"/>
	<path class="st10" d="M1272.3,1270l-0.4,47.3l-51.2-0.2l-2.3-15.7l-17.8,15.7h-77.1l-3.9-21.8c-1.7-6.2-1.1-14.9,5.4-15.2
		c14.1-0.7,37.4-0.2,43.9-1.8c4.9-1.2,8.1-4.7,10.3-8.4 M1272.1,1309.6h-52.1 M1122.2,1309.6h86.6"/>
	<path class="st10" d="M1201.8,1270l-78.3,47.1H1053l-3.9-21.8c-1.7-6.2-1.1-14.9,5.4-15.2c14.1-0.7,37.4-0.2,43.9-1.8
		c4.9-1.2,8.1-4.7,10.3-8.4l2.1-3.9 M1201.6,1309.6h-52.1h-97.8h70.5"/>
	<path class="st10" d="M836.3,596.8c-1.1-0.2-1.7,1.3-0.8,1.9l22.2,14.6c3.2,2.1,4.1,6.5,2,9.7l0,0c-2.1,3.2-6.5,4.1-9.7,2
		l-26.5-17.5"/>
	<path class="st10" d="M823.5,607.5L850,625c3.2,2.1,4.1,6.5,2,9.7l0,0c-2.1,3.2-6.5,4.1-9.7,2l-26.5-17.5"/>
	<path class="st10" d="M815.8,619.2l26.5,17.5c3.2,2.1,4.1,6.5,2,9.7l0,0c-2.1,3.2-6.5,4.1-9.7,2l-26.5-17.5"/>
	<path class="st10" d="M838.9,590.4l-6.2-1.7c-8.4-2.2-17.2,1.4-21.8,8.7l-12.7,20.1c-4.1,6.5-4.1,14.8,0,21.3l0,0
		c1.5,2.4,3.5,4.5,5.9,6L827,660c3.2,2.1,7.5,1.2,9.7-2l0,0c2.1-3.2,1.2-7.5-2-9.7l-26.5-17.5"/>
	<path class="st10" d="M1274.8,658.2l-22,22.9c-2.7,2.8-2.6,7.2,0.2,9.9l0,0c2.8,2.7,7.2,2.6,9.9-0.2l18.4-19.2
		c0.8-0.8,2.2,0,1.8,1.1"/>
	<path class="st10" d="M1274.8,658.2l-22,22.9c-2.7,2.8-7.1,2.9-9.9,0.2l0,0c-2.8-2.7-2.9-7.1-0.2-9.9l22-22.9"/>
	<path class="st10" d="M1264.7,648.5l-22,22.9c-2.7,2.8-7.1,2.9-9.9,0.2l0,0c-2.8-2.7-2.9-7.1-0.2-9.9l22-22.9"/>
	<path class="st10" d="M1287.6,680l4-9.4c3.6-7.9,1.8-17.2-4.6-23.1l-17.5-16.1c-5.7-5.2-13.8-6.7-20.9-3.8l0,0c-2.7,1-5,2.7-7,4.7
		l-19,19.8c-2.7,2.8-2.6,7.2,0.2,9.9l0,0c2.8,2.7,7.2,2.6,9.9-0.2l22-22.9"/>
</g>
</svg>
