<?xml version="1.0" encoding="UTF-8"?><svg xmlns="http://www.w3.org/2000/svg" viewBox="0 0 3000 3000"><g id="uuid-b9ee7e7f-081d-4cf4-a4bd-e1a7aab1410e"><rect width="3000" height="3000" fill="#ffde12"/><path d="m412.36,1680.69l-5.86,7.82-5.86,36.64-12.7,46.9-9.77,51.3s2.93,60.09,2.93,62.05,8.79,46.9,8.79,46.9l17.59,47.88,14.84,51.27,7.63,32.76,2.44,41.53-5.37,22.96-163.9,393.01,50.82,4.98,73.62,15.57,39.87,15.65,47.74,18.89,17.53,11.7,27.06,20.83,13.87,9.08,21.82,17.6,13.73,16.19,10.91,10.39,8.08-23.55,111.76-392.57,34.98-150.67,288.88,387.68,78.26-424.18-187.07-299.44-2.67,28.26-12.69,26.89-10.75,14.37-22.18,7.04h-27.3l-33.56-5.33-47.21,2.84-36.4-1.71-69.96-4.55-95.61-24.91-40.61-24.44-36.67-14.19-19.32-14.59-25.23-26.41-12.53-27.2-9.96-15.23Z" fill="#e6bcfe"/><polygon points="291.27 2526.69 241.74 2535.73 371.84 2537.89 405.03 2549.12 398.82 2666.67 399.35 2700.43 414.37 2718.67 442.75 2750.22 463.04 2781.33 483.16 2805.46 497.6 2818.2 519.41 2825.56 553.67 2830.66 576.04 2827.55 607.48 2822.73 620.5 2817.92 627.87 2795.55 630.83 2777.99 630.83 2765.53 621.64 2753.64 608.61 2745.14 587.37 2744.01 563.3 2749.95 538.38 2749.39 525.64 2744.01 514.03 2728.15 492.7 2695.49 490.55 2649.66 492.7 2588.5 461.27 2568.28 414.24 2547.83 344.92 2529.01 291.27 2526.69" fill="#22533a"/><polygon points="1189.81 629.7 1020.07 552.55 939.73 646.04 850.7 752.01 820.5 790.69 795.91 835.1 774.37 898.94 777.13 930.77 774.37 954.36 833.35 962.85 878.51 979.54 912.29 1006.71 936.41 1032.05 961.17 1070.97 972.07 1107.25 980.98 1139.43 981.36 1181.23 972.07 1210.49 1005.5 1223.61 1070.77 1251.42 1101.42 1282.07 1116.25 1297.98 1122.58 1291.97 1124.56 1231.57 1132.99 1220.67 1142.86 1220.67 1153.1 1241.31 1163.71 1230.7 1178.35 1205.71 1192.24 1189.67 1207.94 1189.67 1216.91 1197.31 1218.25 1208.74 1231.81 1202.17 1246.03 1202.17 1252.47 1212.41 1253.64 1225.91 1252.47 1233.95 1264.31 1232.64 1276.34 1235.06 1279.44 1241.7 1277.99 1256.52 1276.56 1269.62 1290.98 1267.32 1301.82 1269.18 1308.91 1280.7 1299.16 1300 1281.4 1322.78 1268.39 1352.37 1250.55 1386.15 1243.66 1399.55 1252.47 1412.08 1136.24 1584.67 1136.54 1725.94 1145.42 1766.43 1159.93 1792.05 1185.12 1806.16 1219.89 1814.22 1320.16 1815.23 1732.91 1812.73 1540.69 1508.89 1703.18 1417.76 1759.21 1491.72 1759.21 1421.18 1883.8 1679.4 1897.13 1700.96 2037.13 1536.36 2004.35 1430.42 1984.38 1399.55 1924.65 1270.29 1897.02 1212.47 1864.9 1164.93 1835.99 1134.09 1802.21 1111.63 1754.93 1087.55 1694.01 1072.42 1592.51 1053.79 1252.47 1022.72 995.74 937.91 1189.81 629.7" fill="#e6bcfe"/><polygon points="497.08 2591.87 560.83 2639.04 583.24 2664.65 558.65 2666.67 506.58 2658.69 494.96 2645.28 489.54 2585.2 497.08 2591.87" fill="#fff"/><polygon points="241.74 2535.73 233.27 2664.65 274.19 2694.83 256.42 2728.33 267.99 2761.39 279.1 2796.4 290.32 2813.07 323.8 2834.57 341.16 2842.42 374.36 2850 414.34 2848.62 461.05 2848.62 517.36 2850 555.72 2850.69 576.8 2850.69 600.78 2850 615.25 2834.98 620.5 2817.92 593.34 2827.12 570.6 2828.36 547.04 2828.36 525.13 2829.26 497.6 2818.2 470.97 2793.23 424.67 2735.35 399.35 2700.43 405.03 2549.12 371.84 2537.89 241.74 2535.73" fill="#fff"/><circle cx="774.37" cy="1162.21" r="207.85" fill="#fff"/><polygon points="1754.93 1379.83 1252.47 1375.48 1132.77 1595.28 1138.15 1612.56 1176.32 1616.5 1281.4 1625.83 1377.15 1634.78 1473.95 1636.12 1557.77 1636.38 1610.68 1634.78 1759.21 1491.72 1754.93 1379.83" fill="#22533a"/><polygon points="1121.86 1300 1128.05 1231.57 1132.99 1220.67 1142.86 1220.67 1149.72 1231.57 1154.64 1244.44 1167.1 1225.57 1194.93 1191.46 1207.94 1189.67 1215.7 1194.15 1220.51 1206.72 1228.29 1200.48 1250.14 1204.93 1253.64 1216.15 1249.69 1231.57 1256.42 1233.2 1268.99 1232.31 1281.4 1238.59 1280.66 1246.67 1276.62 1261.57 1279.31 1269.56 1290.98 1267.32 1304.45 1271.81 1307.09 1287.07 1281.4 1322.78 1269.89 1348.56 1243.66 1399.55 1121.86 1300" fill="#fff"/><polygon points="810.95 492.67 819.6 472 824.52 437.57 831.66 416.94 843.65 378.54 854.03 356.13 870.38 356.13 879.72 362.69 872.62 386.74 872.07 404.77 877.54 408.05 884.1 398.21 910.33 344.1 916.9 339.41 932.74 344.1 935.48 358.31 916.9 411.33 924.53 408.75 961.71 355.58 978.11 351.75 987.4 359.41 983.28 377.12 945.31 441.39 951.33 445.22 1001.61 398.76 1012 396.57 1016.92 400.95 1022.38 411.88 1009.27 431.56 983.28 463.81 995.05 462.17 1009.81 459.43 1020.2 470.91 1019.1 485.13 962.81 527.21 924.53 548.01 807.57 497.15 810.95 492.67" fill="#fff"/><polygon points="938.46 642.13 973.03 569.1 779.54 485.13 681.48 724.74 598.53 914.81 563 998.43 516.3 1109.73 474.41 1220.67 448.54 1307.8 431.14 1393.33 411.53 1514.03 406.69 1612.56 406.69 1668.86 428.57 1714.33 444.83 1739.15 492.77 1766.55 556.67 1802.76 631.81 1822.34 682.59 1829.65 740.15 1829.65 828.32 1829.65 846.97 1835.58 882.28 1830.62 899.62 1815.01 909.7 1798.82 918.46 1766.43 919.62 1720.62 920.67 1590.43 967.37 1624.47 1010.59 1653.27 1042.55 1657.76 1068.01 1653.77 1085.98 1646.78 1110.73 1624.47 1136.24 1584.67 1252.47 1412.08 1108.31 1297.98 1023.46 1426.25 922.21 1309.3 774.37 954.36 779.33 911.94 790.51 844.86 820.5 790.69 874.32 727.87 938.46 642.13" fill="#fff"/><polygon points="1045.72 563.01 1172.94 621.44 1197.01 606.63 1230.96 587.5 1269.22 554.78 1294.58 527.01 1294.58 514.67 1282.18 505.41 1271.07 507.26 1239.6 529.48 1218 527.01 1206.89 505.41 1243.01 386.91 1239.6 370.52 1228.29 365.99 1215.53 365.99 1209.97 375.19 1185.16 443.71 1161.22 477.02 1126.04 502.28 1045.72 563.01" fill="#fff"/><circle cx="1439.66" cy="914.81" r="207.85" fill="#fff"/><circle cx="2104.58" cy="1737.51" r="210.61" fill="#fff"/><polygon points="1869.74 1621.24 1869.74 1578.1 1874.84 1547.52 1893.46 1525.37 1926.21 1507.13 1976.02 1483.99 2102.28 1478.5 2121.46 1494.15 2121.46 1520.46 2094.83 1529.87 2007.93 1536.83 1971.31 1545.43 1939.15 1580.46 1932.1 1614.18 1926.61 1632.61 1902.29 1642.02 1880.7 1640.06 1869.74 1621.24" fill="#fff"/><polygon points="1677.35 1428.91 1667.44 1390.38 1651.99 1350.64 1637.63 1319.08 1617.49 1317.07 1611.27 1326.06 1617.09 1365 1577.21 1300.95 1560.69 1298.94 1551.12 1305.48 1553.44 1321.9 1584.46 1374.27 1578.42 1383.53 1518.8 1323.11 1503.49 1322.3 1495.44 1333.99 1500 1349.24 1543.37 1401.66 1533.3 1399.55 1491.41 1371.85 1474.7 1375.48 1470.86 1386.15 1473.95 1395.1 1528.87 1439.12 1527.66 1447.98 1515.58 1445.16 1500 1433.48 1482.14 1433.48 1473.95 1440.28 1479.73 1455.64 1503.49 1474.57 1546.1 1500.93 1677.35 1428.91" fill="#fff"/><polygon points="1726.59 1813.74 1647.97 1815.23 1480.08 1815.23 1219.89 1814.22 1185.12 1806.16 1166.47 1799.71 1154.31 1788.12 1147.64 1815.23 986.38 2690.16 1315 2690.16 1345.3 2524.12 1442.98 1995.84 1449.18 1984.13 1464.34 1983.44 1477.43 1988.95 1487.77 2028.23 1634.76 2670.35 1668.1 2673.52 1616.14 2314.73 1601.72 2222.27 1611.26 2177.78 1643.49 2129.2 1653.61 2118.15 1687.88 2096.34 1726.59 2082.67 1774.7 2080.68 1836.61 2105.3 1824.15 2060.52 1796.08 1910.16 1732.91 1812.73 1726.59 1813.74" fill="#fff"/><polygon points="2248.14 2541.22 2107.46 2732.74 1980.85 2673.75 1668.1 2673.52 1616.42 2329.22 1604.7 2245.65 1606.26 2194.89 1615.64 2164.43 1643.49 2129.2 1664.78 2108.54 1687.88 2096.34 1707.99 2089.24 1735.13 2081.64 1774.7 2080.68 1820.11 2098.73 2154.53 2215.98 2209.2 2208.95 2290.39 2211.05 2332.1 2216.4 2370.61 2221.75 2424.62 2216.4 2489.4 2200.91 2499.84 2223.89 2499.84 2273.48 2494.15 2322.29 2484.81 2362.59 2459.56 2415.74 2430.33 2453.81 2397.78 2483.51 2330.42 2521.39 2261.58 2541.22 2248.14 2541.22" fill="#e6bcfe"/><polygon points="2149.58 1281.61 2154.61 1249.43 2150.58 1200.15 2149.58 1172.5 2135 1162.21 2123.43 1164.91 2116.3 1183.89 2113.88 1206.19 2095.27 1140.32 2087.23 1127.75 2067.28 1127.75 2063.59 1143.33 2078.68 1204.68 2070.63 1210.21 2060.58 1200.15 2033.42 1138.81 2013.81 1131.27 2006.77 1139.81 2010.8 1164.45 2030.83 1213.73 2021.86 1214.74 1995.34 1176.23 1982.77 1169.27 1971.07 1174.01 1966.04 1186.58 1995.6 1235.35 2007.93 1249.43 2000.74 1257.48 1993.2 1255.47 1978.11 1234.85 1963.03 1225.37 1951.46 1232.84 1951.46 1244.91 1957.5 1263.51 1995.6 1311.04 2144.05 1288.53 2149.58 1281.61" fill="#fff"/><polygon points="1703.18 1417.76 1540.69 1508.89 1811.82 1936.72 1935.11 2140.32 2145.64 2216.47 2181.69 2216.47 2255.23 2207.82 2290.39 2211.05 2348.96 2216.47 2387.17 2220.8 2456.93 2208.67 2489.4 2200.91 2499.98 2183.3 2490.27 2154.46 2459.27 2084.53 2395.1 1987.19 2323.72 1877.6 2294.34 1832.23 2219.45 1485.77 2171.75 1288.53 1980.63 1314.97 2027.91 1541.74 1962.35 1578.67 1932.1 1614.18 1913.4 1649.04 1897.13 1700.96 1708.61 1414.31 1703.18 1417.76" fill="#fff"/><polygon points="2248.14 2541.22 2371.94 2581.65 2310.32 2764.13 2329.23 2802.5 2044.01 2799.32 2034.76 2735.6 2044.01 2709.56 2107.46 2732.74 2146.88 2677.28 2248.14 2541.22" fill="#22533a"/><polygon points="1984.63 2675.51 1981.82 2805.68 1816.68 2807.14 1810.73 2778.86 1776.48 2807.14 1508.64 2809.67 1492.62 2748.83 1497.84 2723.81 1508.64 2713 1545.61 2711.86 1634.89 2711.29 1667.3 2700.49 1684.93 2685.7 1688.34 2675.51 1984.63 2675.51" fill="#22533a"/><polygon points="2371.94 2581.65 2407.24 2590.2 2340.84 2776.03 2310.32 2764.13 2371.94 2581.65" fill="#fff"/><polygon points="2044.01 2799.32 2047.62 2823.65 2338.81 2827.34 2329.23 2802.5 2044.01 2799.32" fill="#fff"/><polygon points="1816.68 2807.14 1819.47 2831.53 1981.81 2831.53 1981.82 2805.68 1816.68 2807.14" fill="#fff"/><polygon points="1503.29 2806.69 1507.74 2829.1 1750.44 2831.53 1776.48 2807.14 1503.29 2806.69" fill="#fff"/><polygon points="1306.02 2692.83 1306.02 2819.11 1137.69 2819.11 1134.82 2794.56 1102.06 2821.1 826.55 2819.11 816.06 2760.83 821.17 2736.18 826.55 2725.49 851.4 2725.95 936.02 2725.02 975.55 2718.51 996.01 2708.28 1008.48 2692.83 1306.02 2692.83" fill="#22533a"/><polygon points="1306.02 2819.11 1305.07 2844.41 1142.23 2843.52 1137.69 2819.11 1306.02 2819.11" fill="#fff"/><polygon points="1102.06 2821.1 826.55 2819.11 831.22 2843.07 1073.41 2844.41 1102.06 2821.1" fill="#fff"/><polygon points="1259.31 1381.57 1298.88 1498.6 1233.9 1610.22 1188.04 1510.47 1252.47 1412.08 1238.54 1401.06 1253.64 1379.43 1259.31 1381.57" fill="#e6bcfe"/><polygon points="1439.11 1388.52 1394.55 1506.68 1449.85 1632 1496.25 1505.93 1439.11 1388.52" fill="#e6bcfe"/></g><g id="uuid-3aed2241-8570-450f-a942-9c0e10a4f899"><line x1="1794.48" y1="1910.16" x2="1834.47" y2="2098.93" fill="none" stroke="#000" stroke-linecap="round" stroke-linejoin="round" stroke-width="10"/><path d="m1152.63,1788.12l-166.25,903.84,328.2.45,128.1-695.46c1.57-8.49,8.97-14.65,17.61-14.65h0c8.35,0,15.59,5.77,17.45,13.92l157.37,676.99,29.67.55" fill="none" stroke="#000" stroke-linecap="round" stroke-linejoin="round" stroke-width="10"/><path d="m1045.72,563.01l72.62-53.08,23.17-16.4c24.11-17.07,42.3-41.23,52.04-69.12l16.62-47.6c2.68-7.66,10.63-12.14,18.57-10.47h0c9.07,1.91,14.66,11.05,12.24,20l-31.78,117.59c-1.73,6.4-.24,13.25,3.99,18.35h0c6.41,7.74,17.5,9.65,26.14,4.52l30.98-18.4c7.44-4.42,17.05-2.15,21.72,5.14h0c4.24,6.61,3.08,15.31-2.74,20.58l-33.22,30.1c-4.73,4.29-9.6,8.42-14.59,12.4h0c-19.45,15.48-40.74,28.49-63.39,38.73l-8.86,4" fill="none" stroke="#000" stroke-linecap="round" stroke-linejoin="round" stroke-width="10"/><line x1="994.6" y1="937.91" x2="1266.11" y2="1027.2" fill="none" stroke="#000" stroke-linecap="round" stroke-linejoin="round" stroke-width="10"/><line x1="1759.21" y1="1494.15" x2="1754.93" y2="1341.36" fill="none" stroke="#000" stroke-linecap="round" stroke-linejoin="round" stroke-width="10"/><path d="m1138.51,1584.67l-1.81,116.25-.44,30.37c-.16,10.71,1.91,21.34,6.07,31.21l2.23,5.28c11.62,27.57,38.1,46.36,68,47.19.74.02,1.48.03,2.22.03h488.68c4.48,0,8.95-.22,13.4-.67l16.05-1.61" fill="none" stroke="#000" stroke-linecap="round" stroke-linejoin="round" stroke-width="10"/><path d="m975.39,1210.49l57.19,21.99c34.19,12.99,62.31,36.27,81.42,65.5" fill="none" stroke="#000" stroke-linecap="round" stroke-linejoin="round" stroke-width="10"/><path d="m994.6,937.91l197.6-308-172.38-78.72-184.37,218.93c-.89,1.11-1.77,2.22-2.65,3.33-19.28,24.67-33.61,52.83-42.86,82.73l-3.71,11.98c-8.49,27.43-12.59,56.05-11.76,84.67" fill="none" stroke="#000" stroke-linecap="round" stroke-linejoin="round" stroke-width="10"/><path d="m1008.73,2692.41c-6.95,11.87-17.04,23.04-32.83,26.99-20.75,5.19-95.38,3.45-140.24,5.73-20.66,1.05-22.63,28.7-17.17,48.65l12.37,69.54h246.04l56.9-50.24,7.51,50.24,163.57.63,1.15-151.13" fill="none" stroke="#000" stroke-linecap="round" stroke-linejoin="round" stroke-width="10"/><line x1="1138.66" y1="2819.11" x2="1305.07" y2="2819.11" fill="none" stroke="#000" stroke-linecap="round" stroke-linejoin="round" stroke-width="10"/><line x1="826.55" y1="2819.11" x2="1103" y2="2819.11" fill="none" stroke="#000" stroke-linecap="round" stroke-linejoin="round" stroke-width="10"/><path d="m1439.92,713.43h0c47.66,0,94,17.13,130.47,48.24,36.84,31.42,61.11,75.12,68.35,123.05,4.06,26.88,2.74,53.75-3.93,79.85-6.45,25.22-17.58,48.68-33.11,69.73-15.52,21.05-34.65,38.62-56.84,52.23-22.97,14.09-48.25,23.29-75.13,27.35-10.05,1.52-20.26,2.29-30.34,2.29-47.66,0-94-17.13-130.47-48.24-36.83-31.42-61.11-75.12-68.35-123.05-4.06-26.88-2.74-53.75,3.93-79.85,6.44-25.22,17.58-48.68,33.11-69.73,15.52-21.05,34.65-38.62,56.84-52.23,22.97-14.09,48.25-23.29,75.13-27.35,10.05-1.52,20.26-2.29,30.34-2.29h0m0-10c-10.5,0-21.14.78-31.84,2.4-115.41,17.44-194.84,125.13-177.4,240.55,15.82,104.71,105.94,179.8,208.71,179.8,10.5,0,21.14-.78,31.84-2.4,115.41-17.44,194.84-125.13,177.4-240.55-15.82-104.71-105.94-179.8-208.71-179.8h0Z"/><line x1="1880.7" y1="1676.54" x2="1759.21" y2="1414.31" fill="none" stroke="#000" stroke-linecap="round" stroke-linejoin="round" stroke-width="10"/><path d="m1596.48,1056.49l99.06,15.08c91.02,13.86,169.11,72.24,208.15,155.62l104.24,222.65" fill="none" stroke="#000" stroke-linecap="round" stroke-linejoin="round" stroke-width="10"/><path d="m1869.04,1571.82l-1.77,39.33c-.69,15.26,9.76,28.79,24.7,31.97h0c17.55,3.74,34.65-8.03,37.41-25.76l1.86-11.93c2.92-18.77,12.34-35.92,26.61-48.46h0c13.11-11.52,29.59-18.5,46.99-19.9l95.14-7.68c13.24-1.07,23.44-12.13,23.44-25.41h0c0-14.78-12.53-26.47-27.28-25.43l-118.95,8.36c-8.33.59-16.45,2.85-23.88,6.67l-50.8,26.09c-19.7,10.12-32.48,30.02-33.47,52.15Z" fill="none" stroke="#000" stroke-linecap="round" stroke-linejoin="round" stroke-width="10"/><path d="m1897.53,1700.35c15.21-87.08,84.45-158.65,176.67-172.58,115.41-17.44,223.11,61.99,240.55,177.4,17.44,115.41-61.99,223.11-177.4,240.55-23.94,3.62-47.54,3.07-70.08-1.11" fill="none" stroke="#000" stroke-linecap="round" stroke-linejoin="round" stroke-width="10"/><path d="m1864.02,2305.66l146.55,368.02-345.79.06-59.51-426.12c-16.68-119.46,110.16-206.7,215.75-148.39l396.5,141.03" fill="none" stroke="#000" stroke-linecap="round" stroke-linejoin="round" stroke-width="10"/><path d="m2014.29,1484.31l-31.52-170.87,188.31-27.57s24,95.14,70.67,289.1" fill="none" stroke="#000" stroke-linecap="round" stroke-linejoin="round" stroke-width="10"/><path d="m1999.13,1311.04c-7.08-6.78-5.42-4.93-5.42-4.93l-41.3-53c-5.67-7.28-4.69-17.46,2.19-22.74h0c6.88-5.28,17.05-3.66,22.72,3.61l16.36,21c3.2,4.11,9.63,3.32,11.74-1.44h0c.96-2.16.74-4.66-.57-6.63l-35.24-52.7c-5.13-7.67-3.41-17.75,3.83-22.52h0c7.24-4.77,17.27-2.42,22.4,5.25l35.39,52.93c1.06,1.59,3.24,1.95,4.76.8h0c1.19-.9,1.63-2.5,1.07-3.88l-4.62-11.46-26.03-61.95c-3.57-8.51.03-18.08,8.05-21.38h0c8.02-3.3,17.42.92,20.99,9.42l31.24,67.56c1.04,2.25,3.41,3.58,5.88,3.28h0c3.38-.41,5.66-3.65,4.9-6.97l-13.08-60.81c-1.66-7.73,2.91-15.43,10.49-17.68h0c8.34-2.47,17.04,2.59,19.02,11.06l19.04,81.49" fill="none" stroke="#000" stroke-linecap="round" stroke-linejoin="round" stroke-width="10"/><path d="m2112.93,1219.36l3.57-37.63c.18-1.5.27-3,.34-4.51.36-8.41,6.87-14.99,15.18-15h0c8.84-.01,16.38,7.42,16.84,16.59l3.36,66.81-3.36,42.92" fill="none" stroke="#000" stroke-linecap="round" stroke-linejoin="round" stroke-width="10"/><path d="m2067.28,1944.61c-90.47-117.81-360.65-530.3-360.65-530.3l-165.94,93.21,319.08,506.66,76.76,126.14" fill="none" stroke="#000" stroke-linecap="round" stroke-linejoin="round" stroke-width="10"/><path d="m1546.1,1500.93c-8.9-4.11-9.32-4.02-9.32-4.02l-56.28-36.71c-7.73-5.04-10.11-14.99-5.32-22.22h0c4.79-7.23,14.94-9,22.66-3.96l22.29,14.54c4.36,2.85,10.18.01,10.63-5.18h0c.2-2.36-.81-4.65-2.69-6.08l-50.45-38.39c-7.34-5.59-9-15.68-3.69-22.54h0c5.3-6.86,15.55-7.9,22.89-2.31l50.67,38.56c1.52,1.16,3.7.79,4.76-.79h0c.83-1.24.73-2.89-.25-4.02l-8.09-9.34-44.74-50.13c-6.14-6.88-5.84-17.11.67-22.84h0c6.51-5.73,16.77-4.79,22.91,2.09l51.49,53.75c1.72,1.79,4.39,2.27,6.63,1.19h0c3.06-1.48,4.17-5.29,2.37-8.18l-32.13-53.27c-4.08-6.77-2.26-15.54,4.18-20.12h0c7.08-5.04,16.95-3.09,21.58,4.28l44.48,70.89" fill="none" stroke="#000" stroke-linecap="round" stroke-linejoin="round" stroke-width="10"/><path d="m1621.35,1376.14l-8.84-36.75c-.32-1.47-.72-2.93-1.15-4.38-2.39-8.07,1.62-16.41,9.48-19.12h0c8.36-2.88,17.9,1.69,21.32,10.22l24.88,62.1,10.76,41.68" fill="none" stroke="#000" stroke-linecap="round" stroke-linejoin="round" stroke-width="10"/><polyline points="2340.05 2828.2 2310.32 2766.27 2340.05 2776.5 2407.24 2591.54 2253.59 2539.86" fill="none" stroke="#000" stroke-linecap="round" stroke-linejoin="round" stroke-width="10"/><path d="m2046.02,2708.12c-12.16,7.38-13.2,29.11-9.06,45.69l10.82,69.8,292.27,4.59" fill="none" stroke="#000" stroke-linecap="round" stroke-linejoin="round" stroke-width="10"/><line x1="2310.32" y1="2766.27" x2="2373.29" y2="2580.12" fill="none" stroke="#000" stroke-linecap="round" stroke-linejoin="round" stroke-width="10"/><line x1="2044.01" y1="2799.32" x2="2329.23" y2="2805.68" fill="none" stroke="#000" stroke-linecap="round" stroke-linejoin="round" stroke-width="10"/><line x1="1815.4" y1="2806.69" x2="1981.81" y2="2806.69" fill="none" stroke="#000" stroke-linecap="round" stroke-linejoin="round" stroke-width="10"/><line x1="1503.29" y1="2806.69" x2="1779.74" y2="2806.69" fill="none" stroke="#000" stroke-linecap="round" stroke-linejoin="round" stroke-width="10"/><path d="m2294.34,1832.23l147.02,230.03c13.25,20.73,25.04,42.34,35.31,64.69l21.91,47.71c3.98,10.71-1.73,22.57-12.58,26.15-33.78,11.14-104.11,30.17-155.57,15.85-70.12-19.5-179.24,0-179.24,0" fill="none" stroke="#000" stroke-linecap="round" stroke-linejoin="round" stroke-width="10"/><path d="m1892.51,2377.21l192.3,122.09c79.08,50.21,178.58,55.68,262.68,14.45h0c73.43-36,126.51-103.44,144.24-183.28l.39-1.76c10.34-46.57,11.5-82.91-2.72-127.8" fill="none" stroke="#000" stroke-linecap="round" stroke-linejoin="round" stroke-width="10"/><path d="m2253.59,2539.86l-146.25,190.41-124.57-49.87-1.15,151.13-163.57-.63-7.51-50.24-56.9,50.24h-246.04l-12.37-69.54c-5.46-19.95-3.49-47.61,17.17-48.65,44.86-2.28,119.49-.53,140.24-5.73,15.79-3.95,25.89-15.12,32.83-26.99" fill="none" stroke="#000" stroke-linecap="round" stroke-linejoin="round" stroke-width="10"/><line x1="2144.97" y1="2681.28" x2="2195.51" y2="2702.6" fill="none" stroke="#000" stroke-linecap="round" stroke-linejoin="round" stroke-width="10"/><path d="m774.63,959.77h0c47.66,0,94,17.13,130.47,48.24,36.84,31.42,61.11,75.12,68.35,123.05,4.06,26.88,2.74,53.75-3.93,79.85-6.44,25.22-17.58,48.68-33.11,69.73-15.52,21.05-34.65,38.62-56.84,52.23-22.97,14.09-48.25,23.29-75.13,27.35-10.05,1.52-20.26,2.29-30.34,2.29-47.66,0-94-17.13-130.47-48.24-36.83-31.42-61.11-75.12-68.35-123.05-4.06-26.88-2.74-53.75,3.93-79.85,6.45-25.22,17.58-48.68,33.11-69.73,15.52-21.05,34.65-38.62,56.84-52.23,22.97-14.09,48.25-23.29,75.13-27.35,10.05-1.52,20.26-2.29,30.34-2.29h0m0-10c-10.5,0-21.14.78-31.84,2.4-115.41,17.44-194.84,125.13-177.4,240.55,15.82,104.71,105.94,179.8,208.71,179.8,10.5,0,21.14-.78,31.84-2.4,115.41-17.44,194.84-125.13,177.4-240.55-15.82-104.71-105.94-179.8-208.71-179.8h0Z"/><path d="m986.38,1482.31l124.74-188.57,142.52,117.84-139.21,207.79c-27.59,41.17-83.88,51.15-123.93,21.95l-179.55-130.87" fill="none" stroke="#000" stroke-linecap="round" stroke-linejoin="round" stroke-width="10"/><path d="m1176.32,1300l6.71-36.11c.72-3.89,2.21-7.66,4.37-11.05l25.52-40.19c4.44-7,3.49-15.91-2.22-20.7-6.53-5.47-16.64-3.43-21.94,4.43l-27.01,40.08c-3.1,4.6-5.51,9.64-7.11,14.91l-8.68,29.07" fill="none" stroke="#000" stroke-linecap="round" stroke-linejoin="round" stroke-width="10"/><path d="m1205.92,1322.27l8.14-37.76c1.4-6.5,4.15-12.72,8.06-18.19l26.45-37.06c5.59-7.83,5.13-18.28-1.05-24.36-7.66-7.52-20.6-5.15-26.94,4.94l-30.95,40.89c-3.6,4.76-6.06,10.31-7.14,16.11l-6.17,33.17" fill="none" stroke="#000" stroke-linecap="round" stroke-linejoin="round" stroke-width="10"/><path d="m1231.74,1352.37l11.25-36.77c1.4-6.51,4.15-12.72,8.06-18.19l26.45-37.06c5.59-7.83,5.13-18.28-1.06-24.36-7.65-7.52-20.59-5.15-26.93,4.94l-30.95,40.89c-3.6,4.76-6.06,10.31-7.14,16.11l-5.5,24.35" fill="none" stroke="#000" stroke-linecap="round" stroke-linejoin="round" stroke-width="10"/><path d="m1240.15,1326.23c10.16-15.26,6.9-10.96,10.16-15.26l27.97-36.95c5.73-9.11,17.42-11.26,24.34-4.46,5.59,5.49,5.99,14.94.95,22.01l-20.59,28.85c-3.82,5.35-8.58,14.84-10.59,21.07-3.85,11.95-9.3,23.4-16.18,33.98l-15.05,23.14" fill="none" stroke="#000" stroke-linecap="round" stroke-linejoin="round" stroke-width="10"/><path d="m1121.67,1302.47l5.29-70.59c.37-5.91,5.13-11.09,10.71-11.2,6.14-.12,13.39,5.73,16.96,30.69" fill="none" stroke="#000" stroke-linecap="round" stroke-linejoin="round" stroke-width="10"/><path d="m933.97,653.12l38.09-84.27-190.93-83.72-257.02,604.79-26.62,67.47c-56.84,144.06-87.38,297.16-90.16,452h0c-10.98,48.86,17.08,125.04,62.84,146.85,10.72,5.11,21.39,10.32,31.76,16.12l7.05,3.94c70.38,39.34,150.13,58.83,230.72,56.38l35.47-1.08c23.03-.7,46.04.83,68.87,3.92,30.44,4.12,49.7-5.77,62.52-32.36,6.31-13.08,9.53-27.43,9.88-41.95l4-169.19" fill="none" stroke="#000" stroke-linecap="round" stroke-linejoin="round" stroke-width="10"/><path d="m810.95,495.17s7.5-12.76,9.29-22.15c1.79-9.39,7.65-45.22,7.65-45.22l21.49-61.9c2.95-8.5,11.8-13.1,19.77-10.26h0c7.97,2.83,12.04,12.02,9.09,20.51l-8.51,24.52c-1.67,4.8,2.39,9.64,7.4,8.84h0c2.28-.36,4.21-1.86,5.12-3.98l24.45-56.78c3.56-8.26,12.72-12.21,20.47-8.81h0c7.74,3.4,11.14,12.86,7.58,21.12l-24.56,57.03c-.74,1.71.12,3.69,1.87,4.32h0c1.37.5,2.91.01,3.75-1.18l6.93-9.86,36.91-54.14c5.07-7.43,14.81-9.56,21.77-4.75h0c6.95,4.81,8.48,14.74,3.42,22.18l-38.74,61.39c-1.29,2.05-1.12,4.69.43,6.55h0c2.12,2.55,5.99,2.7,8.3.31l42.84-42.95c5.44-5.46,14.17-5.8,20.03-.79h0c6.44,5.52,6.91,15.32,1.03,21.43l-56.61,58.79" fill="none" stroke="#000" stroke-linecap="round" stroke-linejoin="round" stroke-width="10"/><path d="m962.11,479.39l32.7-17.02c1.32-.65,2.6-1.37,3.87-2.11,7.08-4.16,15.91-2.33,20.33,4.47h0c4.7,7.23,2.61,17.34-4.65,22.58l-52.91,38.17-36.91,20" fill="none" stroke="#000" stroke-linecap="round" stroke-linejoin="round" stroke-width="10"/><line x1="920.67" y1="1307.8" x2="1023.46" y2="1426.25" fill="none" stroke="#000" stroke-linecap="round" stroke-linejoin="round" stroke-width="10"/><line x1="918.46" y1="1766.43" x2="1102.06" y2="2063.07" fill="none" stroke="#000" stroke-linecap="round" stroke-linejoin="round" stroke-width="10"/><polyline points="374.36 2538.55 369.66 2662.59 230.24 2666.67 239.6 2537.89 374.36 2538.55" fill="none" stroke="#000" stroke-linecap="round" stroke-linejoin="round" stroke-width="10"/><path d="m506.36,2850h-108.39c-52.22,0-112.06-23.36-128.15-73.04l-15.16-48.62,140.13-2.85,14.4,29.04c20.74,41.84,54.98,75.47,97.17,95.48h0s84.25,0,84.25,0c10.37,0,19.85-5.83,24.54-15.07l14.37-50.06c6.77-23.61-13.86-46.01-37.94-41.19l-16.86,3.37c-24.65,1.12-48.24,7.32-59.93-14.41l-15.66-29.1c-5.61-10.43-8.23-22.22-7.56-34.05l-.79-82.14" fill="none" stroke="#000" stroke-linecap="round" stroke-linejoin="round" stroke-width="10"/><polyline points="254.67 2728.33 279.1 2698.58 230.24 2666.67" fill="none" stroke="#000" stroke-linecap="round" stroke-linejoin="round" stroke-width="10"/><polyline points="394.79 2725.48 397.19 2697.5 369.66 2662.59" fill="none" stroke="#000" stroke-linecap="round" stroke-linejoin="round" stroke-width="10"/><path d="m405.1,2547.83l-7.91,149.67s58.89,72.35,59.63,74.55c.33.99,26.91,42.5,62.34,52.81,43.22,12.57,96.81-5.74,96.81-5.74" fill="none" stroke="#000" stroke-linecap="round" stroke-linejoin="round" stroke-width="10"/><line x1="279.1" y1="2698.58" x2="397.19" y2="2697.5" fill="none" stroke="#000" stroke-linecap="round" stroke-linejoin="round" stroke-width="10"/><polyline points="581.52 2662.59 692.4 2270.2 734.91 2095.79" fill="none" stroke="#000" stroke-linecap="round" stroke-linejoin="round" stroke-width="10"/><line x1="494.96" y1="2644.06" x2="517.36" y2="2604.81" fill="none" stroke="#000" stroke-linecap="round" stroke-linejoin="round" stroke-width="10"/><path d="m410.06,1674.29l-23.03,101.02c-12.32,54.02-10.69,110.28,4.72,163.5h0c12.93,44.65,52.67,133.83,39.81,178.5l-61.9,150.53-106.54,254.9s190.69-4.42,318.41,139.84c0,0-69.39,9.69-88.82-12.93" fill="none" stroke="#000" stroke-linecap="round" stroke-linejoin="round" stroke-width="10"/><line x1="239.6" y1="2537.89" x2="303.6" y2="2525.2" fill="none" stroke="#000" stroke-linecap="round" stroke-linejoin="round" stroke-width="10"/><path d="m1024.12,2481.7l-261.09-357.3c-21.19-29.13-53.06-48.67-88.64-54.33h0c-61.85-9.84-114.5-50.35-139.87-107.61l-22.59-51" fill="none" stroke="#000" stroke-linecap="round" stroke-linejoin="round" stroke-width="10"/><g><ellipse cx="811.72" cy="1170.95" rx="10.99" ry="10.89" transform="translate(-445.93 1840.52) rotate(-83.3)" stroke="#000" stroke-linecap="round" stroke-linejoin="round" stroke-width="10"/><ellipse cx="828.04" cy="1032.05" rx="10.99" ry="10.89" transform="translate(-293.57 1734.03) rotate(-83.3)" stroke="#000" stroke-linecap="round" stroke-linejoin="round" stroke-width="10"/><path d="m820.5,1095.95l50.17-16.11c26.06-8.37,51.93,13.17,48.71,40.56l-2.47,21.05" fill="none" stroke="#000" stroke-linecap="round" stroke-linejoin="round" stroke-width="10"/></g><g><ellipse cx="1500.23" cy="834.28" rx="10.89" ry="10.99" transform="translate(200.42 1955.52) rotate(-69.86)" stroke="#000" stroke-linecap="round" stroke-linejoin="round" stroke-width="10"/><ellipse cx="1368.93" cy="786.12" rx="10.89" ry="10.99" transform="translate(159.53 1800.68) rotate(-69.86)" stroke="#000" stroke-linecap="round" stroke-linejoin="round" stroke-width="10"/><path d="m1429.34,808.24l-37.03,37.49c-19.23,19.47-11.69,52.28,14.2,61.78l19.9,7.3" fill="none" stroke="#000" stroke-linecap="round" stroke-linejoin="round" stroke-width="10"/></g><g><ellipse cx="2081.29" cy="1718.91" rx="10.89" ry="10.99" transform="translate(-515.62 982.38) rotate(-23.72)" stroke="#000" stroke-linecap="round" stroke-linejoin="round" stroke-width="10"/><ellipse cx="2025.03" cy="1590.88" rx="10.89" ry="10.99" transform="translate(-468.87 948.93) rotate(-23.72)" stroke="#000" stroke-linecap="round" stroke-linejoin="round" stroke-width="10"/><path d="m2062.76,1644.96h0c-6.93,2.7-14.31,4.08-21.75,4.08h-42.76c-27.36-.37-45.8,27.8-34.71,53.04l8.53,19.41" fill="none" stroke="#000" stroke-linecap="round" stroke-linejoin="round" stroke-width="10"/></g><polyline points="1551.12 1321.09 1527.67 1293.61 1499.86 1325.5 1472.35 1293.61 1443.28 1332.09 1412.39 1296.44 1383.48 1334.07 1353.38 1293.74 1325.66 1338.82 1302.69 1298.16" fill="none" stroke="#000" stroke-linecap="round" stroke-linejoin="round" stroke-width="10"/><polyline points="1587.25 1315.04 1609.96 1289.21 1636.61 1318.74 1662.3 1291.76 1690.9 1326.06 1716.73 1296.27" fill="none" stroke="#000" stroke-linecap="round" stroke-linejoin="round" stroke-width="10"/><path d="m1138.15,1612.56s377.38,41.69,477.99,14.76" fill="none" stroke="#000" stroke-linecap="round" stroke-linejoin="round" stroke-width="10"/><polyline points="1473.95 1376.37 1256.21 1375.48 1300.23 1499.82 1233.9 1612.56 1187.78 1509.88" fill="none" stroke="#000" stroke-linecap="round" stroke-linejoin="round" stroke-width="10"/><line x1="1754.93" y1="1379.83" x2="1662.3" y2="1376.37" fill="none" stroke="#000" stroke-linecap="round" stroke-linejoin="round" stroke-width="10"/><polygon points="1440.01 1386.15 1393.81 1506.79 1450.9 1634.78 1496.9 1504.08 1440.01 1386.15" fill="none" stroke="#000" stroke-linecap="round" stroke-linejoin="round" stroke-width="10"/><polyline points="1166.47 1650.71 1192.24 1683.71 1212.35 1650.71 1237.09 1681.13 1258.23 1652.26 1287.1 1682.68 1312.36 1650.71 1340.71 1681.65 1363.91 1652.78 1388.38 1684.86 1416.58 1654.72 1434.58 1687 1460.83 1655.87 1486.61 1687 1512.38 1654.84 1535.58 1687 1558.26 1654.32 1580.43 1687 1596.93 1655.35 1619.61 1687 1638.27 1662.45" fill="none" stroke="#000" stroke-linecap="round" stroke-linejoin="round" stroke-width="10"/><line x1="2084.42" y1="1441.35" x2="2084.42" y2="1348.42" fill="none" stroke="#000" stroke-linecap="round" stroke-linejoin="round" stroke-width="10"/><line x1="2021.64" y1="1415.71" x2="2056.83" y2="1448.81" fill="none" stroke="#000" stroke-linecap="round" stroke-linejoin="round" stroke-width="10"/><circle cx="2093.4" cy="1731.06" r="65.23" fill="none" stroke="#000" stroke-linecap="round" stroke-linejoin="round" stroke-width="10"/><path d="m1984.65,1651.37l-6.18-5.83c-27.65-23.09-31.36-64.22-8.27-91.88,23.09-27.65,64.22-31.36,91.88-8.27,27.65,23.09,31.36,64.22,8.27,91.88-1.44,1.73-2.96,3.36-4.53,4.9l-3.05,2.79,10.23,24.14" fill="none" stroke="#000" stroke-linecap="round" stroke-linejoin="round" stroke-width="10"/><path d="m2143.47,1772.87l38.15,48.03c10.76,13.55,10.43,32.83-.79,46h0" fill="none" stroke="#000" stroke-linecap="round" stroke-linejoin="round" stroke-width="10"/><rect x="1243.79" y="213.3" width="375.65" height="252.22" rx="12" ry="12" transform="translate(-22.26 565.15) rotate(-22.16)" fill="#22533a" stroke="#000" stroke-linecap="round" stroke-linejoin="round" stroke-width="10"/><path d="m1550.55,374.98c-.75.35-1.21.6-1.7.8-11.2,4.56-22.4,9.13-33.63,13.62-.8.32-1.94.32-2.75.01-7.51-2.79-14.98-5.68-22.46-8.54-1.27,3.15-2.35,6.29-3.77,9.27-5.33,11.19-13.62,19.7-24.19,26-10.06,5.99-20.9,9.83-32.68,10.19-20.18.62-36.1-7.3-46.11-25.1-7.73-13.74-8.65-28.39-2.82-43.17,2.03-5.15,4.69-10.05,7.07-15.05.31-.66.69-1.29.93-1.72-4.3-3.31-8.71-6.28-12.62-9.8-12.96-11.67-17.95-26.18-13.81-43.22,2.96-12.18,10.76-21.08,21.39-27.41,9.1-5.41,18.98-8.21,29.67-7.43,10.91.79,19.93,5.55,27.48,13.3.34.35.54,1.27.33,1.66-4.38,8.08-8.83,16.12-13.27,24.16-.08.14-.26.23-.3.27-2.14-2.32-4.08-4.79-6.4-6.84-8.04-7.11-19.86-6.35-27.07,1.59-6.45,7.11-5.61,17.97,1.88,24.83,4.21,3.86,9.19,6.44,14.43,8.48,20.47,7.95,40.97,15.79,61.47,23.67,21.3,8.18,42.61,16.35,63.91,24.54,4.61,1.77,9.2,3.56,13.8,5.35.32.12.62.28,1.2.54Zm-136.75-23.49c-.93,1.57-1.81,2.98-2.61,4.43-4.13,7.46-6.45,15.23-4.73,23.92,3.12,15.71,18.97,25.37,34.79,18.47,11.61-5.06,18.34-13.88,20.65-26.26.29-1.53-.04-2.15-1.5-2.69-6.13-2.25-12.21-4.65-18.31-6.99-9.37-3.6-18.75-7.2-28.29-10.87Z" fill="#fff" stroke="#fff" stroke-miterlimit="10" stroke-width="2"/></g></svg>