<?xml version="1.0" encoding="UTF-8"?><svg xmlns="http://www.w3.org/2000/svg" viewBox="0 0 1000 1000"><defs><style>.c{fill:none;stroke:#000;stroke-linecap:round;stroke-linejoin:round;}.d{fill:#edd6d4;}.e{fill:#fff;}.f{fill:#ffeb55;}.g{fill:#f2a0b5;}.h{fill:#cabbba;}.i{fill:#adadad;}.j{fill:#1e1e1e;}.k{fill:#2bc670;}.l{fill:#81c7ff;}</style></defs><g id="a"><rect class="d" width="1000" height="1000"/><rect class="h" y="561.51" width="1000" height="438.49"/><polygon class="d" points="786.24 890.26 727.78 890.26 727.09 890.81 725.37 891.74 723.74 892.35 721.59 892.93 719.16 893.35 716.91 893.57 712.89 893.69 710.42 893.61 707.93 893.43 706.78 893.31 706.18 893.31 706.41 917.65 706.05 890.41 706.21 889.67 646.86 890.07 642.78 889.53 638.8 888.43 634.11 887.15 630.67 886.42 624.17 885.53 621.49 885.32 616.7 885.18 615.51 885.29 614.08 886.3 612.5 889.11 611.13 893.72 610.33 898.04 609.67 903.67 609.17 910.21 619.05 913.9 650.78 925.77 673.55 934.13 677.67 935.1 680.4 935.54 682.88 935.81 685.57 935.97 695.57 935.54 706.64 935.09 706.41 917.66 729.2 925.63 740.62 929.63 743.89 930.75 746.74 931.61 751.68 932.9 757.07 934.01 760.94 934.61 765.51 935.13 769.94 935.54 773.11 935.54 777.85 935.54 782.28 935.3 786.79 935.09 786.24 890.26"/><polygon class="d" points="181.66 640.14 181.32 662.43 229.47 686.44 236.43 689.92 239.77 691.45 244.03 693.03 249.16 694.43 252.87 695.11 257.51 695.59 263.61 695.68 295.84 692.42 296.9 687.12 297.03 686.15 299.75 687.49 303.41 689.28 308.2 691.25 311.04 692.18 316.39 693.48 321.02 694.16 324.19 694.38 328.1 694.4 332.04 694.13 338.45 693.45 361.83 690.96 362.32 688.84 362.8 686.06 363.23 682.33 363.47 677.44 363.47 674.6 363.19 671.64 362.7 669.62 361.83 667.56 360.67 665.71 359.32 664.17 357.49 662.72 355.27 661.58 353.22 661.01 350.67 660.79 346.12 660.54 341.5 660.22 337.03 659.51 332.32 658.27 327.84 656.59 324.77 655.11 322.58 653.48 320.7 651.37 319.35 649 318.53 646.51 318.21 643.99 318.48 634.62 256.7 634.6 256.43 640.2 181.66 640.14"/><polygon class="k" points="155.47 390.53 155.98 395.99 156.54 400.89 157.21 406.78 159.81 428.69 160.64 434.9 161.07 440.69 161.59 449.35 164.33 506.11 165.8 542.98 167.43 587.88 169.32 640.2 256.43 640.2 256.7 634.6 325.22 634.6 329.1 599.72 332.86 566.9 336.39 537.48 338.78 519.68 339.75 513.15 340.55 504.55 341.79 486.49 343.1 463.53 344.44 437.47 345.81 407.26 346.51 390.4 345.23 391.86 342.3 394.45 337.2 397.36 335.06 398.19 331.4 398.85 327.6 399.22 317.15 399.18 308.91 398.98 289.02 398.08 276.55 397.34 270.06 398.43 247.33 402.24 181.15 402.93 175.64 401.89 170.08 400.2 163.97 397.37 160.53 395.18 155.47 390.53"/><polygon class="l" points="371.62 387.39 373.62 340.95 377.28 255.77 378.33 227.83 377.38 216.47 374.98 201.61 367.96 185.7 360.52 174.01 352.71 165.45 343.17 158.06 335.25 153.74 328.5 151.05 317.58 148.3 311.96 147.15 306.06 147.15 215.16 149.14 207.37 150.23 198.5 152.73 189.79 156.6 182.46 161.1 177.62 164.82 171.93 170.17 167.12 175.79 164.31 179.75 161.05 185.26 157.63 192.95 155.6 199.66 154.24 206.8 153.69 211.37 153.3 216.62 153 227.38 152.86 268.74 152.86 282.21 153.12 289.9 153.8 295.63 154.94 300.77 156.03 304.06 157.56 307.58 158.47 309.35 156.25 339.15 153.96 367.22 153.09 376.47 152.46 381.64 152.31 383.74 152.57 385.1 153 386.46 153.78 388.08 154.87 389.75 155.47 390.53 157.07 392.28 160.53 395.18 163.97 397.37 166.46 398.66 168.99 399.77 172.73 401.09 178.21 402.45 181.15 402.93 184.75 402.93 233.6 402.51 247.33 402.24 276.55 397.34 278.78 397.48 290.44 398.15 294.44 398.35 301.8 398.7 308.91 398.98 320.41 399.25 324.92 399.25 329.87 399.07 333.44 398.56 337.2 397.36 340.31 395.78 342.3 394.45 344.04 393.02 345.75 391.3 346.51 390.4 371.62 387.39"/><polygon class="f" points="674.07 376.58 670.03 377.06 667.28 377.53 664.13 378.22 661.42 378.95 655.7 380.93 652.12 382.49 648.96 384.1 646.11 385.74 643.49 387.45 641.14 389.13 638.11 391.56 635.59 393.82 633.36 396.04 630.44 399.31 627.73 402.81 625.76 405.7 623.8 408.98 622.07 412.28 619.67 417.91 617.62 424.54 616.24 431.85 615.83 435.5 614.74 443.37 590.11 621.75 639.23 633.45 640.18 624.97 647.51 625.93 656.61 626.76 670.61 627.43 681.02 627.55 705.11 627.33 716.81 627.53 726.26 627.85 733.26 627.93 744.01 627.66 753.6 627.26 777.88 626.88 810.22 627.45 810.22 631.18 810.05 635.29 847.69 635.29 846.32 624.97 839.21 571.19 835.48 542.98 828.04 486.71 822.95 448.19 821.63 438.23 820.85 433.63 820.16 430.7 818.98 426.62 817.63 422.8 815.93 418.78 813.33 413.64 810.62 409.19 807.99 405.46 805.19 401.97 801.56 398.03 799.36 395.9 794.91 392.11 787.48 386.99 782.62 384.32 778 382.21 771.13 379.76 766.49 378.53 760.67 377.45 757.75 377.1 752.99 376.58 717.26 381.03 674.88 376.58 674.07 376.58"/><path class="e" d="m317.7,109.09c0,32.08-26,58.08-58.08,58.08s-58.08-26-58.08-58.08,26-58.08,58.08-58.08,58.08,26,58.08,58.08"/><path class="e" d="m257.12,355.47l-6.16-6.6-2.42-.66-5.41-.36-5.07,1.09-2.42,1.03-5.06,2.93-2.96,3.24-3.15,4.95-1.59,4.38-.82,4.74.09,4.18,1.39,5.86,1.25,2.57,2.85,3.22,5.53,6.96,4.28,4.39,5.31,4.81s2.32,1.7,2.5,1.96c.18.27,5.07,2.66,5.07,2.66,0,0,4.83,1.98,5.19,2.07.36.09,5.71.98,5.98,1.16.27.18,3.39.57,3.39.57l2.17-.17,1.42-1.11.73-1.51-.91-2.48-1.02-.97,1.24-.23,2.93.27h2.35l2.17-.97.53-1.46.2-1.63-1.62-2.76,3.06-.2,2.04-.95.98-1.18-2.62-.15-6.93-4.62,7.17-.09.18-4.35-4.19-4.05-3.28-.82-2.96-.58-3.21-1.76-2.43-2.08-2.44-2.96-4.21-9.06.88-9.25Z"/><polygon class="e" points="346.97 390.38 367.68 388.1 367.07 404.1 366.3 412.19 366.06 415.63 364.51 419.02 359.1 427.82 352.44 435.44 347.63 439.96 344.24 442.1 344.71 431.09 346.51 392.17 346.51 390.4 346.97 390.38"/><polygon class="e" points="636.37 632.77 591.68 622.26 590.75 628.62 589.62 636.58 588.94 641.72 588.94 646.31 590.11 653.76 591.77 662.02 593.55 670.63 594.67 672.68 596.64 674.28 599.41 674.28 600.94 673.71 602.72 672.31 603.56 670.53 604.5 673.34 605.5 674.28 607.12 675.3 609.08 675.49 611.7 674.65 612.66 673.61 613.85 671.75 614.51 674.09 615.77 675.49 617.31 676.24 619.37 676.8 620.66 676.18 622.08 675.3 623.49 673.34 624.42 674.93 625.55 676.42 627.32 677.17 628.82 677.45 630.6 677.27 632 676.42 633.03 675.58 633.59 674.28 633.59 671.09 632.47 660.15 632.09 652.39 633.87 643.5 636.37 632.77"/><polygon class="e" points="836.59 635.24 810.23 635.29 809.23 642.8 808.33 653.43 806.63 661.49 805 671.52 804.19 677.37 805.42 678.81 805.99 681.24 807.61 683.04 809.5 683.85 810.98 683.85 813.1 683.67 815.62 682.32 818.95 679.89 823 676.56 826.52 672.42 828.41 668.64 829.85 664.14 836.59 635.24"/><polygon class="g" points="810.22 627.45 795.33 627.18 779.71 626.91 761.63 627.03 749.68 627.45 740.06 627.76 729.01 627.93 714.11 627.42 700.06 627.37 684.68 627.51 673.27 627.42 665.94 627.25 656.61 626.76 647.51 625.93 640.18 624.97 639.23 633.44 636.37 632.76 634.88 639.16 633.02 647.07 632.09 652.38 632.26 655.84 633.02 665.69 633.59 671.09 633.59 672.81 633.59 674.27 633.03 675.58 632 676.42 630.6 677.27 628.82 677.45 627.32 677.17 625.55 676.42 624.42 674.93 623.49 673.34 622.08 675.3 620.66 676.18 620.8 678.62 625.44 750.9 626.1 761.1 626.32 764.65 631.81 799.09 646.33 890.26 716.92 890.26 713.03 819.55 715.16 833.14 719.1 858.23 724.13 890.26 791.56 890.26 791.46 877.73 791.07 829.93 790.85 803.2 790.85 773.53 791.67 758.52 793.33 742.83 794.99 731.69 799.81 702.62 805.21 670.25 807.68 655.14 808.76 648.35 809.64 640.96 810.03 635.63 810.15 632.55 810.22 627.45"/><polygon class="j" points="609.17 910.21 608.45 919.62 643.85 935.37 656.22 935.37 657.61 940.35 679.66 948.99 706.78 947.32 706.64 935.09 692.22 935.79 686.41 935.93 682.88 935.81 679.35 935.37 676.67 934.86 673.55 934.13 670.32 932.94 666.15 931.41 644.61 923.46 636.36 920.38 627.55 917.08 620.65 914.5 609.17 910.21"/><polygon class="j" points="706.41 917.66 706.56 927.62 724 935.37 736.36 935.37 737.76 940.35 759.81 948.99 786.93 947.32 786.79 935.09 778.83 935.37 773.11 935.54 768.12 935.37 762.73 934.81 757.07 934.01 751.68 932.9 743.89 930.75 731.96 926.6 706.41 917.66"/><polygon class="i" points="308.73 398.17 310.04 380.55 273.34 346.11 258.25 347.18 256.24 365.46 259.23 371.22 260.45 373.78 262.33 376.07 262.89 376.74 263.71 377.54 264.6 378.3 265.94 379.23 267.46 380.03 268.52 380.58 270.33 381.11 272.09 381.47 273.71 381.62 274.41 381.64 278.96 386.03 278.78 390.38 270.84 389.97 272 390.73 278.54 395.09 285.65 395.09 285.65 392.49 292.29 398.9 308.73 398.17"/><polygon class="j" points="181.32 662.43 181.1 682.54 199.77 690.56 211.62 690.56 212.89 693.67 223.68 699.06 231.74 703.09 235.9 705.17 238.55 706.49 241.35 707.76 244.57 708.72 247.04 709.24 249.93 709.64 254.62 709.95 257.42 709.95 260.01 709.81 263.12 709.55 275.79 708.26 281.66 707.66 284.32 707.13 286.14 706.44 288.08 705.32 289.79 703.91 291.28 702.26 293.02 699.65 301.91 704.03 306.11 706.1 309.51 707.26 311.92 707.83 315.29 708.37 318.87 708.72 323.25 708.7 327.56 708.44 335.19 707.63 346.6 706.4 349.15 706.06 350.98 705.54 352.69 704.79 354.57 703.59 356.72 701.57 358.28 699.5 359.65 697.07 360.97 693.83 361.83 690.96 349.73 692.25 334.17 693.9 328.1 694.4 324.19 694.38 321.02 694.16 318.3 693.76 315.62 693.34 313 692.66 309.84 691.79 307.2 690.84 304.19 689.6 299.75 687.49 297.03 686.15 295.84 692.42 278.96 694.13 264.2 695.53 259.17 695.68 255.68 695.4 252.87 695.11 249.92 694.59 245.97 693.56 242.62 692.58 239.77 691.45 217.74 680.6 181.32 662.43"/><path d="m253.88,96.06c.12,1.66-1.14,3.1-2.8,3.22-1.66.12-3.1-1.14-3.22-2.8-.12-1.66,1.14-3.1,2.8-3.22,1.66-.12,3.1,1.14,3.22,2.8"/><path d="m292.23,96.03c.12,1.66-1.14,3.1-2.8,3.22-1.66.12-3.1-1.14-3.22-2.8-.11-1.66,1.14-3.1,2.8-3.22,1.66-.12,3.1,1.14,3.22,2.8"/><path d="m306.13,390.29c0,2.73-2.22,4.95-4.95,4.95s-4.95-2.22-4.95-4.95,2.22-4.95,4.95-4.95,4.95,2.22,4.95,4.95"/><path d="m779.12,288.84c-10.34-26.41-26.3-49.56-59.56-42.72,0,0-57.68-16.07-69.88,77.53-1.48,11.31-2.01,22.8-1.83,34.29l.02,1.07c.13,8.07,4.73,15.16,11.23,17.25,22.62,7.27,76.09,20.11,122.97-1.61,7.02-3.25,11.23-11.86,10.22-20.93l-2.11-18.92c-1.76-15.85-5.37-31.41-11.06-45.96"/></g><g id="b"><line class="c" x1="838.31" y1="561.51" x2="1000.36" y2="561.51"/><line class="c" x1="333.84" y1="561.51" x2="598.43" y2="561.51"/><line class="c" x1=".36" y1="561.51" x2="166.47" y2="561.51"/><circle class="c" cx="259.98" cy="108.98" r="57.96" transform="translate(103.8 343.66) rotate(-79.1)"/><path class="c" d="m254.24,95.96c.12,1.66-1.14,3.1-2.8,3.22-1.66.12-3.1-1.14-3.22-2.8-.12-1.66,1.14-3.1,2.8-3.22,1.66-.12,3.1,1.14,3.22,2.8Z"/><path class="c" d="m292.6,95.93c.12,1.66-1.14,3.1-2.8,3.22-1.66.12-3.1-1.14-3.22-2.8-.11-1.66,1.14-3.1,2.8-3.22,1.66-.12,3.1,1.14,3.22,2.8Z"/><path class="c" d="m271.94,96.83l6.03,13.34c3.11,6.89-1.94,14.7-9.51,14.67l-5.83-.02"/><path class="c" d="m346.87,390.27s-2.4-34.49,0-60.33c2.4-25.84-1.19-89.71-3.34-106.94"/><path class="c" d="m158.84,309.25s-4.66,64.71-6.05,72.5c-1.39,7.79,10.71,18.68,28.73,21.08l61.98-.5"/><path class="c" d="m304.19,147.05c46.74,0,74.5,37.29,74.5,84.03l-6.71,156.2-25.12,3"/><path class="c" d="m659.42,456.72l-19.83,176.62-49.11-11.69,25.8-186.88c1.64-19.88,12.26-37.01,27.69-47.51,0,0,15.27-11.43,28.55-10.55"/><path class="c" d="m810.41,635.18h37.64l-26.29-198.89c-3.49-19.99-15.01-36.86-30.91-47.5,0,0-12.48-8.01-21.96-9.82"/><path class="c" d="m717.28,681.67l-6.14,83.74c0,6.47.36,19.71.72,26.16l5.42,98.58h-70.59l-20-125.61-5.67-88.23"/><path class="c" d="m791.78,457.25l17.97,156.23c.01.09.02.18.03.28,1.42,12.53.93,25.2-1.14,37.65l-13.41,80.86c-2.92,17.62-4.32,35.46-4.17,53.32l.85,104.57h-67.43l-11.1-70.71"/><path class="c" d="m226.11,383.64c-15.06-12.76-41.22-42.84-54.47-57.48-6.32-6.98-12.55-14.4-15.64-23.29-2.83-8.14-2.83-16.94-2.8-25.56.05-15.23.1-30.45.15-45.68.04-11.16.09-22.47,2.92-33.27,6.94-26.54,31.9-47.31,59.26-49.33h2.4"/><path class="c" d="m209.37,213.95v51.09c0,16.06,5.81,31.58,16.35,43.7l31.95,42.79"/><path class="c" d="m222.47,371.51c0-13.13,10.23-23.77,22.85-23.77,4.65,0,8.76,1.29,12.36,3.78,0,0,.71,1.68-.28,3.73"/><polyline class="c" points="310.4 380.44 273.7 346 258.61 347.08 293.67 381.53 310.4 380.44 309.09 398.06 292.65 398.8 271.13 378.01 270.69 381"/><line class="c" x1="293.67" y1="381.53" x2="292.65" y2="398.8"/><line class="c" x1="256.6" y1="365.36" x2="258.61" y2="347.08"/><path class="c" d="m249.78,389.31l1.77,1.4c5.15,4.08,11.51,6.34,18.08,6.42l7.16.1s4.26.52,4.46-2.25"/><path class="c" d="m273.61,397.19c1.93.03,3.49,1.6,3.49,3.54s-1.7,3.64-3.73,3.53l-5.82-.31c-5.04-.27-9.92-1.86-14.14-4.62l-4.97-3.25"/><path class="c" d="m254.33,360.98l6.16,11.87c2.77,5.33,8.28,8.68,14.29,8.68"/><path class="c" d="m279.14,390.31l-9.55-.59c-6.63-.41-12.85-3.34-17.38-8.19"/><line class="c" x1="257.68" y1="355.54" x2="250.69" y2="348.37"/><polyline class="c" points="279.14 385.75 279.14 394.98 271.12 389.81"/><polyline class="c" points="279.14 394.98 286.01 394.98 286.01 392.38"/><path class="c" d="m222.47,371.48s-.7,6.93,3.64,12.16l7.44,8.96c2.98,3.58,6.31,6.84,9.95,9.73,3.89,3.09,8.44,5.25,13.25,6.49l3.7.95c1.81.46,3.67.71,5.53.72h.35c1.79.01,3.24-1.43,3.24-3.22s-2.61-3.45-4.32-3.55"/><path class="c" d="m276.8,397.23s45.26,2.94,55.11,1.57c9.85-1.36,14.96-8.53,14.96-8.53,0,0-4.57,112.17-7.3,126.79-2.73,14.62-13.98,117.43-13.98,117.43h-68.52"/><path class="c" d="m181.93,640.09l-.46,42.34,18.66,8.02,7.34-11.08,5.78,14.19,25.66,12.82s7.47,4.77,24.09,3.1l19.03-1.94c17.76-1.85,15.83-32.41,15.83-32.41-.08-6.93-5.09-12.61-11.46-13l-7.85-.47c-6.1-.37-12.08-1.94-17.67-4.63-5.06-2.21-8.4-7.14-8.57-12.66l-.14-4.3"/><path class="c" d="m181.68,662.33l55.11,27.48c9.25,4.62,19.46,6.52,29.6,5.5l29.81-3"/><path class="c" d="m293.09,699.4l11.89,5.86s7.5,4.73,24.1,2.96l19.02-2.05c17.75-1.95,15.65-32.5,15.65-32.5-.12-6.93-5.16-12.58-11.54-12.93l-7.85-.43c-6.1-.33-12.1-1.87-17.7-4.53-5.02-2.16-8.23-7.15-8.11-12.61l.13-5.73.14-2.93"/><path class="c" d="m297.39,686.05l5.38,2.65c9.28,4.57,19.49,6.41,29.63,5.33l29.79-3.17"/><path class="c" d="m155.72,390.27s4.17,37.45,5.13,43.2c.96,5.76,4.32,82.02,4.8,94.97.48,12.95,4.04,111.64,4.04,111.64"/><path class="c" d="m265.52,430.74s.16,68.68-2.75,100.84c-1.39,15.4-5.98,108.52-5.98,108.52h-87.11"/><path class="c" d="m368.04,387.75s-.72,22.78-1.69,27.81c-.97,5.03-12.1,20.11-20.75,25.89"/><line class="c" x1="200.13" y1="690.46" x2="211.98" y2="690.46"/><path class="c" d="m640.54,624.87c8.79,1.32,23.68,2.94,47.42,2.51,38.63-.71,32.5,1.32,60.71,0,28.21-1.32,61.92-.03,61.92-.03"/><path class="c" d="m706.51,890.15l.63,57.06-27.12,1.67-22.05-8.64-3.65-12.99-10.11,8.02-35.4-15.75,1.19-15.48c.31-4.06,1.84-18.82,6.45-18.97,0,0,8.84-.99,30.24,5.08"/><path class="c" d="m609.53,910.11l61.65,23.05c5.83,2.04,12.08,2.95,18.34,2.65l17.48-.83"/><polyline class="c" points="786.65 890.15 787.29 947.22 760.17 948.89 738.12 940.24 734.47 927.25 724.36 935.27 706.92 927.51"/><path class="c" d="m706.81,917.55l35,12.27c12.09,4.24,25.09,6.12,38.08,5.5l7.26-.34"/><path class="c" d="m836.95,635.18l-7.1,30c-1.3,5.48-4.6,10.27-9.25,13.44l-6.5,4.43c-2.78,1.9-6.61.76-7.91-2.34-1-2.38-.14-5.14,2.03-6.53l.29-.19c5.18-3.32,8.77-8.62,9.95-14.66l1.08-5.53"/><path class="c" d="m591.79,621.96l-2.2,17.63c-.5,3.95-.36,7.96.43,11.86l3.83,18.91c.42,2.09,2.19,3.65,4.35,3.85l.24.02c3.19.29,5.79-2.46,5.27-5.57l-3.25-19.54,3.68,22.11c.35,2.11,2.08,3.74,4.24,4l.24.03c3.1.36,5.74-2.18,5.45-5.23l-1.9-19.74,2.09,21.76c.22,2.28,2.04,4.09,4.35,4.33h.06c3.09.33,5.7-2.22,5.39-5.25l-2.02-19.78,2.23,21.84c.23,2.24,2.01,4.03,4.29,4.29,3.1.36,5.74-2.17,5.45-5.23l-1.13-11.78c-.51-5.27-.18-10.59.96-15.77l1.25-5.67,1.64-6.38"/><path class="c" d="m811.34,649.45s-1.49,8.85-4.35,11.93"/><line class="c" x1="644.21" y1="935.27" x2="656.58" y2="935.27"/><line class="c" x1="724.36" y1="935.27" x2="736.72" y2="935.27"/><path class="c" d="m728.14,890.15s-4.47,4.8-21.14,3.05"/><path class="c" d="m804.43,676.83s0,.75,1.35,1.77"/><path class="c" d="m779.48,288.73c-10.34-26.41-26.3-49.56-59.56-42.72,0,0-57.68-16.07-69.88,77.53-1.48,11.31-2.01,22.8-1.83,34.29l.02,1.07c.13,8.07,4.73,15.16,11.23,17.25,22.62,7.27,76.09,20.11,122.97-1.61,7.02-3.25,11.23-11.86,10.22-20.93l-2.11-18.92c-1.76-15.85-5.37-31.41-11.06-45.96Z"/></g></svg>