<?xml version="1.0" encoding="utf-8"?>
<!-- Generator: $$$/GeneralStr/196=Adobe Illustrator 27.6.0, SVG Export Plug-In . SVG Version: 6.00 Build 0)  -->
<svg version="1.1" id="Layer_1" xmlns="http://www.w3.org/2000/svg" xmlns:xlink="http://www.w3.org/1999/xlink" x="0px" y="0px"
	 viewBox="0 0 2000 2000" style="enable-background:new 0 0 2000 2000;" xml:space="preserve">
<style type="text/css">
	.st0{fill:#EAEDE9;}
	.st1{fill:#81C7FF;}
	.st2{fill:#FDFAA2;}
	.st3{fill:#DED2D0;}
	.st4{fill:#F47235;}
	.st5{fill:#FCD2A5;}
	.st6{fill:#80C6FD;}
	.st7{fill:#09C76C;}
	.st8{fill:#0484FD;}
	.st9{fill:#FF3C00;}
	.st10{fill:#FBFFFF;}
	.st11{fill:none;stroke:#000000;stroke-width:2;stroke-linecap:round;stroke-linejoin:round;}
	.st12{fill:none;stroke:#000000;stroke-linecap:round;stroke-linejoin:round;}
	.st13{stroke:#000000;stroke-linecap:round;stroke-linejoin:round;}
	.st14{stroke:#000000;stroke-width:2;stroke-linecap:round;stroke-linejoin:round;}
</style>
<g id="a">
	<rect x="-0.7" y="1360.5" class="st0" width="2000.7" height="639.9"/>
	<rect x="-0.7" y="0.1" class="st1" width="2000.7" height="1360.4"/>
	<rect x="837.1" y="343.8" class="st2" width="325.9" height="356.6"/>
	<rect x="860.1" y="369.1" class="st3" width="279.7" height="306.3"/>
	<polygon class="st4" points="1023.9,630.3 1023.2,632.1 1021.4,633.7 1018.2,634.2 1007.3,634.7 1006.2,635 1005.6,635.8 
		1005.5,637.7 1006.5,643.3 1052.9,643.4 1056,641 1056.5,643.3 1072.1,643.3 1072.2,631.5 1042.7,631.5 1042.5,630.3 	"/>
	<polygon points="1006.5,643.3 1007,645.6 1051.1,645.5 1052.9,643.4 	"/>
	<polygon points="1072.1,643.3 1072.1,645.5 1056.8,645.5 1056.5,643.3 	"/>
	<polygon class="st5" points="984.5,630.4 985.2,632.1 987,633.7 990.2,634.2 1001.1,634.7 1002.2,635 1002.8,635.8 1002.8,637.8 
		1001.9,643.3 955.5,643.5 952.4,641 951.9,643.3 936.3,643.3 936.2,631.6 965.7,631.5 965.9,630.4 	"/>
	<polygon points="936.3,643.3 936.3,645.5 951.6,645.5 951.9,643.3 	"/>
	<polygon points="957.5,645.6 955.5,643.5 1001.9,643.3 1001.4,645.6 	"/>
	<polygon class="st6" points="989.5,529.2 990,534.4 991.1,547.4 992.5,563.6 992.8,568.9 993.3,576.9 993.5,582.9 992.8,599.3 
		991.5,630.6 966.4,630.7 966.1,631.8 934.8,631.8 935,628.7 935.5,606.6 936.3,585.2 936.5,579.9 935.9,571.4 933.9,564.4 
		930.5,557.2 939.4,529.1 	"/>
	<polygon class="st7" points="1014.3,461.4 1011.2,456.2 1007.9,452.7 1005.4,450.2 999.5,446.3 994.5,443.7 986.1,440.4 977.3,437 
		950.6,437.8 934.3,446.8 932.8,448.8 930.6,452.2 928.1,457.5 926.2,462.9 924.4,470.6 923.7,477.3 923,540.7 923.4,540.9 
		941.5,541.3 942.5,529 946.3,529 989,528.9 990.1,528.6 991,527.8 991,526.1 990.7,520.6 988.5,486.7 988.1,479.7 988.2,477.2 
		989,473.7 990.6,470.9 993.4,467.7 996.2,465.9 999.4,464.6 	"/>
	<polygon class="st5" points="219.1,936.2 194.7,936.2 186.4,937 177.8,939.7 171.9,943.9 165.4,950.7 161.2,960.5 160.3,967.9 
		160.3,991.6 168,1360.5 168.1,1372.8 168.9,1385.9 171.9,1396.7 177.3,1404.8 182.9,1410.8 189.7,1415.5 197,1419.1 206.1,1421.9 
		408.4,1453.6 431.1,1452.7 801.5,1436.8 812.2,1435.1 822.2,1429.6 829.2,1421.5 833.6,1411.5 834.7,1400.6 835.5,1348.4 
		838,1219.9 836.7,1208.1 832.5,1198.8 823.7,1188.5 813.9,1182.3 806.9,1180.5 792.8,1178.6 786.1,1178.1 698.3,1169.9 
		685.7,1167.8 672.1,1161.6 664.3,1156 655,1145.2 650.2,1136.8 646.4,1126.5 644.6,1119.2 644.7,1111.4 641.9,991.7 640.5,982 
		635.7,968.9 630,960 623.4,953 615.1,946.5 605.1,941.3 596.5,937.7 582.6,936.6 	"/>
	<polygon class="st5" points="1780.9,939.5 1805.3,939.5 1813.6,940.4 1822.2,943 1828.1,947.2 1834.6,954 1838.8,963.8 
		1839.7,971.2 1839.7,994.9 1832,1363.8 1831.9,1376.1 1831.1,1389.2 1828.1,1400 1822.7,1408.1 1817.2,1414.1 1810.3,1418.9 
		1803,1422.4 1793.9,1425.2 1591.6,1456.9 1568.9,1456.1 1198.5,1440.1 1187.8,1438.4 1177.8,1432.9 1170.8,1424.8 1166.4,1414.8 
		1165.3,1403.9 1164.4,1351.8 1162,1223.2 1163.3,1211.4 1167.5,1202.2 1176.3,1191.8 1186.1,1185.7 1193.1,1183.8 1207.2,1181.9 
		1213.9,1181.4 1301.7,1173.2 1314.3,1171.1 1327.9,1164.9 1335.7,1159.4 1345,1148.5 1349.8,1140.1 1353.6,1129.8 1355.4,1122.5 
		1355.3,1114.7 1358.1,995.1 1359.5,985.3 1364.3,972.2 1370,963.3 1376.6,956.3 1384.9,949.8 1394.9,944.7 1403.5,941.1 
		1417.4,939.9 	"/>
	<polygon class="st8" points="1019.5,529.5 1019.1,534.5 1018,547.5 1016.4,563.8 1016,568.8 1015.5,576.8 1015.5,582.8 
		1016.2,599.4 1017.6,630.6 1043,630.6 1043.3,631.8 1073.8,631.8 1073.9,628.6 1073.8,606.6 1073.9,585.4 1073.9,581.2 
		1074.9,572.8 1076.1,565 1078.8,557.2 1070,529.1 	"/>
	<polygon class="st9" points="1077.6,456.6 1080.7,459.5 1082.7,462 1085.3,465.8 1087.2,469.3 1088.4,472.7 1089.2,475.1 
		1089.9,478.8 1090.3,481.5 1088.8,541.7 1070.3,541.7 1070,529 1057,529.2 1019.5,529.2 1018.3,528.2 1018,526.8 1018.2,517.7 
		1019,478.1 1018.5,472 1017.3,467.3 1015.5,463 1014.2,460.4 1012.5,457.8 1009.9,454.6 1006.5,451.2 1002.5,448.1 998,445.6 
		991.2,442.4 980.6,438.3 986.7,426.5 990.2,427 998.3,427.9 1002.6,428.2 1007.5,429.1 1012.6,430.8 1018.8,433.2 1023.5,435.2 
		1027.9,436.9 1035.4,439.5 1063.1,443.6 	"/>
	<path class="st9" d="M1651.7,993.1l15.8,9.6l13.5,7.7l12.4,12.8l7.8,10.2l6.1,10.5l3.9,8.6l3.2,12.3l6.7,31.2l7.2,29.8l-2.8,7.7
		l-4.9,10l-8.5,11.4l-25.1,18.1l-20.6,10h-8.8l-9.6-2.3l-8.8-6.2l-7.3,1.2l-19.2,0.8l-59.7,2.3l-23.6,2.1l-7.3,3.8l-11.6,7.8
		l-8.1,11.5l-161.6,5.1l5.9-4.4l13-11.7l29.3-27.6l8.6-9.9l6.2-7.4l9.9-13.3l10.7-15.9l4.8-10.4l4.3-8.4l8-21.3l3.3-10.3l1.6-10.6
		l2.1-13.4l3.6-15.5l5.2-10.2c0,0,8.7-10.7,9-10.9s10.8-7.9,10.8-7.9l13.8-5.9l22.9-6L1651.7,993.1L1651.7,993.1z"/>
	<path class="st10" d="M1661.1,954.5c0,23.3-10.4,44.2-26.8,58.4c-1.5,1.3,1.4,2.5,0.6,4.2c-0.7,1.5,2.1,5.8,0.8,7.3
		c-2.3,2.7-9.2,2.5-11.9,3.8c-3.5,1.7-12.1,4.1-15.9,5.2c-2.9,0.9-7.3,2.5-10.3,3c-0.8,0.1-1.3-5.8-2.2-5.7
		c-3.7,0.5-7.4,0.8-11.2,0.8c-42.5,0-77-34.5-77-77s34.5-77,77-77S1661.1,912,1661.1,954.5L1661.1,954.5z"/>
	<polygon class="st10" points="1070.8,542.3 1069.5,544.9 1068.1,549.2 1067,553.1 1067.8,555.1 1068.9,555.7 1070.1,555 
		1071,553.5 1072.2,551.1 1072.9,554.7 1073.5,560.3 1074,561.4 1075.1,562 1076.5,562 1077.1,561.2 1077.7,562.5 1078.8,563.4 
		1079.7,563.4 1080.3,563 1080.6,562 1081,558.3 1081.9,559.3 1083,559.2 1083.8,558.9 1084.4,558.2 1084.4,553.4 1085.8,554.5 
		1087,554.7 1088,553.9 1088.2,553.2 1086.7,542.1 1071.2,541.7 	"/>
	<polygon class="st10" points="940.2,541.7 941.5,544.2 942.9,548.6 944.1,552.5 943.2,554.4 942.2,555 940.9,554.3 940,552.9 
		938.8,550.5 938.1,554 937.6,559.7 937.1,560.8 935.9,561.3 934.5,561.3 934,560.5 933.3,561.9 932.3,562.7 931.4,562.7 
		930.7,562.4 930.5,561.3 930,557.6 929.1,558.7 928,558.6 927.2,558.3 926.6,557.6 926.6,552.8 925.2,553.9 924,554 923,553.3 
		922.8,552.6 924.3,541.4 939.8,541 	"/>
	<polygon class="st10" points="1076.8,456 1077.9,453.3 1078.5,450.6 1078.3,448.4 1074.9,444.4 1069.1,439.9 1064.9,440.1 
		1057.2,448.2 1056.9,449.9 1058,451.2 1059.9,451.2 1060,452.2 1061,454 1062.4,454.3 1063.2,455.8 1064,456.9 1065.6,457.3 
		1066.4,458.8 1067.4,459.8 1068.3,460 1074.6,454.2 	"/>
	<polygon class="st10" points="943.3,429 941.3,428.9 938.5,428.8 936.4,429.3 933.1,433.5 929.8,440 930.8,444 940,450.1 
		941.8,450.2 942.9,448.8 942.6,447 943.4,446.6 945.1,445.4 945.1,444 946.5,442.9 947.4,441.9 947.5,440.3 948.8,439.2 949.6,438 
		949.6,437.1 944.5,432.4 	"/>
	<circle class="st10" cx="1048.4" cy="424" r="23.1"/>
	<circle class="st10" cx="964.9" cy="421.4" r="23.1"/>
	<polygon class="st8" points="1442.2,1434.1 1328.7,1430.3 1328.7,1427 1226.9,1427 1226.9,1355.1 1227.2,1273.4 1227.1,1259.1 
		1229.2,1248.8 1232,1241.8 1237.8,1232 1243.9,1226.4 1252.6,1219.1 1261.7,1215 1268.6,1212.3 1279.5,1211.2 1379.3,1207.8 
		1500.9,1204 1498.3,1213.1 1495.8,1222.7 1496.3,1236.8 1496.7,1291.6 1495,1300.6 1482.2,1302.1 1465.7,1303.2 1458.4,1304.9 
		1450.5,1309.1 1447.8,1312.9 1444.8,1317.4 1441.7,1325.3 1441.1,1337.4 	"/>
	<polygon class="st4" points="1424.2,1434.1 1328.7,1431 1328.7,1427 1248.9,1427.3 1246.5,1429.6 1240.4,1433.1 1227.9,1436.5 
		1223.2,1438.5 1212.8,1439.2 1203.8,1439.2 1196.4,1438.6 1189.6,1441.6 1184.5,1445.9 1181.5,1456.6 1181.5,1463.1 1182.5,1473.9 
		1185.9,1475 1203.7,1478.1 1219.8,1480.7 1232.6,1482.1 1243.7,1482.1 1256,1478.5 1273.3,1472.9 1274.3,1481.4 1283.9,1483.2 
		1306.8,1487.5 1321.9,1489.6 1332.8,1489.6 1339,1488.8 1345.6,1487.4 1350.7,1485.6 1424.8,1459.2 	"/>
	<polygon points="1424.8,1459.2 1425.7,1477 1398.3,1486.8 1386,1486.2 1382.4,1492.3 1356.4,1501.7 1345.5,1505.7 1334.4,1507.8 
		1323.4,1506.6 1306.2,1504.8 1286.4,1500.2 1281.9,1497 1276.8,1489.6 1264.1,1494.7 1254.3,1497.9 1245.2,1499.7 1235.6,1499.8 
		1215.1,1496.8 1197.2,1493.4 1192.4,1491.4 1186.8,1486.1 1182.5,1475.3 1182.5,1473.9 1203.7,1478.1 1225.7,1481.8 1236.7,1482.3 
		1245.2,1481.2 1253.8,1479.6 1269.2,1474.4 1273.3,1472.9 1274.3,1481.4 1294.3,1485.6 1316.3,1489.1 1328.4,1489.6 1334.8,1489.6 
		1341.2,1487.9 1347.4,1486.8 1354,1484.2 	"/>
</g>
<g id="b">
	<g>
		<rect x="837.1" y="343.8" class="st11" width="325.9" height="356.6"/>
		<rect x="860.1" y="369.1" class="st11" width="279.7" height="306.1"/>
		<path class="st12" d="M949.7,438.6l2.2,1.7c3.7,2.6,8.3,4.1,13.2,4.1c12.3-0.1,22.5-10.1,22.8-22.5c0.2-13-10.3-23.6-23.3-23.3
			c-12.5,0.2-22.5,10.5-22.5,23c0,2,0.3,4,0.8,5.9c0.4,1.5,1,2.9,1.7,4.3l1.1,2.1"/>
		<circle class="st12" cx="1048.4" cy="424" r="22.9"/>
		<g>
			<circle class="st13" cx="966.5" cy="420.5" r="1"/>
			<circle class="st13" cx="978.7" cy="420.5" r="1"/>
			<path class="st12" d="M973.1,420.7l1.9,4.2c1,2.2-0.6,4.7-3,4.7h-1.9"/>
		</g>
		<g>
			<circle class="st13" cx="1046.3" cy="420.5" r="1"/>
			<circle class="st13" cx="1034" cy="420.5" r="1"/>
			<path class="st12" d="M1039.7,420.7l-1.9,4.2c-1,2.2,0.6,4.7,3,4.7h1.9"/>
		</g>
		<path class="st12" d="M1030.3,438l-9.9-4.1c-4.1-2-9-3.9-13.6-5.1c-1.7-0.4-3.4-0.7-5.1-0.9l-13.9-1.4"/>
		<path class="st12" d="M1069.6,529.1h-50.1c-1.1,0-1.9-0.9-1.9-1.9l0.9-48.3c0-2.8-0.2-5.6-0.8-8.3l0,0c-1.9-8.8-7-16.5-14.4-21.6
			c-4.5-3.1-9.5-5.7-14.8-7.5l-8.1-2.9"/>
		<path class="st12" d="M1068.6,472.8l1.1,68.9h18.5l1.5-57.6c0.3-11.9-6-22.6-15.2-30.1"/>
		<path class="st12" d="M943.2,529.1h45.6c1.2,0,2.2-1,2.2-2.3l-2.9-46.7c-0.2-4,1.1-7.9,3.8-10.8l0,0c2.1-2.3,4.8-3.9,7.8-4.6
			l14.7-3.3"/>
		<path class="st12" d="M932.9,562.5L932.9,562.5c2.4,5.7,3.5,11.9,3.3,18.1l-1.4,46.3l-0.3,4.7h31l4-46l1.9-36"/>
		<path class="st12" d="M989.2,529.1l3.3,38c0.6,7.2,0.8,14.5,0.5,21.8l-1.8,41.5h-25.3"/>
		<path class="st12" d="M946.9,471.4l-5.5,70.1L923,541l0.5-61.1c0.1-8.6,2-17,5.5-24.7c1.4-3.1,3.3-6,5.6-8.5"/>
		<path class="st12" d="M1076.7,561.2c-2.3,8.5-3.4,16.9-3.4,25.7l0.1,39.9l-0.1,4.7h-30.7l-4-46l-1.9-36"/>
		<path class="st12" d="M1019.1,529.1l-3.7,43.3c-0.3,3.8-0.4,7.5-0.2,11.3l2.1,46.7h25.4"/>
		<path class="st12" d="M934.6,552l-0.6,7.4c-0.1,0.9,0.6,1.8,1.5,1.9l0,0c1,0.2,2-0.6,2.1-1.6l0.9-9.9"/>
		<path class="st12" d="M930.5,551.2l0,1.5l-0.4,8c0,1.1,0.8,2,1.8,2.1l0,0c1,0,1.9-0.8,2-1.9l0.7-8.8"/>
		<path class="st12" d="M926.9,549.1l-0.4,7.5c-0.1,1.1,0.7,2,1.8,2.1l0,0c1,0,1.9-0.8,2-1.9l0.3-5.6"/>
		<path class="st12" d="M926.9,549.1l-0.3,3.2c-0.1,1.1-1,1.9-2.1,1.8l0,0c-1-0.1-1.8-1.1-1.7-2.2l1.6-10.8"/>
		<path class="st12" d="M938.6,549.8l1.8,3.6c0.1,0.2,0.2,0.3,0.2,0.5c0.4,0.9,1.4,1.4,2.3,1.1l0,0c1-0.3,1.5-1.5,1.2-2.5l-2.2-7.6
			l-1.5-3.4l0,0"/>
		<path class="st12" d="M1076.5,552.6l0.6,7.4c0.1,0.9-0.6,1.8-1.5,1.9l0,0c-1,0.2-2-0.6-2.1-1.6l-0.9-9.9"/>
		<path class="st12" d="M1080.6,551.8l0.1,1.5l0.4,8c0.1,1.1-0.8,2-1.8,2.1l0,0c-1,0-1.9-0.8-2-1.9l-0.7-8.8"/>
		<path class="st12" d="M1084.2,549.7l0.4,7.5c0.1,1.1-0.7,2-1.8,2.1l0,0c-1,0-1.9-0.8-2-1.9l-0.3-5.6"/>
		<path class="st12" d="M1084.2,549.7l0.3,3.2c0.1,1.1,1.1,1.9,2.1,1.8l0,0c1-0.1,1.8-1.1,1.7-2.2l-1.5-10.4"/>
		<path class="st12" d="M1072.6,550.4l-1.8,3.6c-0.1,0.2-0.2,0.3-0.2,0.5c-0.4,0.9-1.4,1.4-2.3,1.1l0,0c-1-0.3-1.5-1.5-1.2-2.5
			l2.2-7.6l1.6-3.4l0,0"/>
		<path class="st12" d="M964,631.5c0.7,1.1,1.6,2.2,3.1,2.5c1.9,0.5,8.9,0.3,13.1,0.5c1.9,0.1,2.1,2.7,1.6,4.5l-1.2,6.5h-22.9
			l-5.3-4.7l-0.7,4.7l-15.2,0.1l-0.1-14.1 M951.9,643.3h-15.5 M955.2,643.3H981"/>
		<path class="st12" d="M957.3,631.5l27.1-1.2l0.6,1.2c0.7,1.1,1.6,2.2,3.1,2.5c1.9,0.5,8.9,0.3,13.1,0.5c1.9,0.1,2.1,2.7,1.6,4.5
			l-1.2,6.5h-21 M957.4,643.3h15.5h8.1h21"/>
		<path class="st12" d="M1072.3,631.5l-0.1,14.1l-15.2-0.1l-0.7-4.7l-5.3,4.7H1028l-1.2-6.5c-0.5-1.9-0.3-4.4,1.6-4.5
			c4.2-0.2,11.1,0,13.1-0.5c1.5-0.4,2.4-1.4,3.1-2.5 M1072.2,643.3h-15.5 M1027.6,643.3h25.8"/>
		<path class="st12" d="M1051.3,631.5l-23.3,14h-21l-1.2-6.5c-0.5-1.9-0.3-4.4,1.6-4.5c4.2-0.2,11.1,0,13.1-0.5
			c1.5-0.4,2.4-1.4,3.1-2.5l0.6-1.2 M1051.2,643.3h-15.5h-29.1h21"/>
		<path class="st12" d="M942.5,431.2c-0.3-0.1-0.5,0.4-0.2,0.6l6.6,4.4c1,0.6,1.2,1.9,0.6,2.9l0,0c-0.6,1-1.9,1.2-2.9,0.6l-7.9-5.2"
			/>
		<path class="st12" d="M938.7,434.4l7.9,5.2c1,0.6,1.2,1.9,0.6,2.9l0,0c-0.6,1-1.9,1.2-2.9,0.6l-7.9-5.2"/>
		<path class="st12" d="M936.4,437.9l7.9,5.2c1,0.6,1.2,1.9,0.6,2.9l0,0c-0.6,1-1.9,1.2-2.9,0.6l-7.9-5.2"/>
		<path class="st12" d="M943.3,429.3l-1.9-0.5c-2.5-0.6-5.1,0.4-6.5,2.6l-3.8,6c-1.2,1.9-1.2,4.4,0,6.3l0,0c0.5,0.7,1,1.3,1.8,1.8
			l6.8,4.5c1,0.6,2.2,0.4,2.9-0.6l0,0c0.6-1,0.4-2.2-0.6-2.9l-7.9-5.2"/>
		<path class="st12" d="M1073,449.5l-6.6,6.8c-0.8,0.8-0.8,2.1,0.1,2.9l0,0c0.8,0.8,2.1,0.8,2.9-0.1l5.5-5.7c0.2-0.2,0.6,0,0.5,0.3"
			/>
		<path class="st12" d="M1073,449.5l-6.6,6.8c-0.8,0.8-2.1,0.9-2.9,0.1l0,0c-0.8-0.8-0.8-2.1-0.1-2.9l6.6-6.8"/>
		<path class="st12" d="M1070,446.6l-6.6,6.8c-0.8,0.8-2.1,0.9-2.9,0.1l0,0c-0.8-0.8-0.8-2.1-0.1-2.9l6.6-6.8"/>
		<path class="st12" d="M1076.8,456l1.2-2.8c1.1-2.3,0.5-5.1-1.4-6.9l-5.2-4.8c-1.7-1.5-4.1-2-6.2-1.1l0,0c-0.8,0.3-1.5,0.8-2.1,1.4
			l-5.7,5.9c-0.8,0.8-0.8,2.1,0.1,2.9l0,0c0.8,0.8,2.1,0.8,2.9-0.1l6.6-6.8"/>
	</g>
	<line class="st11" x1="1832.1" y1="1360.5" x2="2000" y2="1360.5"/>
	<line class="st11" x1="835.2" y1="1360.5" x2="1164.7" y2="1360.5"/>
	<line class="st11" x1="-0.7" y1="1360.5" x2="167.8" y2="1360.5"/>
	<g>
		<path class="st11" d="M449.2,1175.7l-142.6-5.9c-29.2-1.9-51.9-26.1-51.9-55.4V968.6c0-17.8-14.4-32.2-32.2-32.2h-30.1
			c-18,0-32.5,14.8-32.2,32.8l8,409.3c0.4,21.4,16.1,39.4,37.2,42.8l203.2,32.3l-0.4-247.9"/>
		<path class="st11" d="M408.4,1205.8L408.4,1205.8c4.9-18.3,21.9-30.8,40.8-30.1l8.9,0.3c25.6,0.5,46,21.5,45.9,47l-0.4,64.8
			c-0.1,13,10.5,23.5,23.5,23.3l202.8-2.7c14.9-0.2,27-12.2,27.3-27.1l1.3-63.2c0.4-21.6,18.1-39,39.7-39l0,0
			c22.3,0,40.2,18.3,39.7,40.5l-3.6,184.7c-0.3,17.4-14.2,31.6-31.6,32.3l-394,16.9"/>
		<path class="st11" d="M222.6,936.4h359.2c32.9,0,59.7,26.3,60.4,59.2l2.4,117.8c0.6,30,24.1,54.6,54,56.6l99.7,9.2"/>
		<path class="st11" d="M1591.6,1208.9l-0.4,247.9l203.2-32.3c21.1-3.4,36.8-21.4,37.2-42.8l8-409.3c0.3-18-14.2-32.8-32.2-32.8
			h-30.1c-17.8,0-32.2,14.4-32.2,32.2v145.9c0,29.2-22.7,53.5-51.9,55.4l-7.8,0.5"/>
		<line class="st11" x1="1550.8" y1="1178.9" x2="1639.8" y2="1175.4"/>
		<line class="st11" x1="1424.6" y1="1449.7" x2="1591.2" y2="1456.8"/>
		<path class="st11" d="M1241.7,1228.1l-0.1-6.7c-0.4-21.6-18.1-39-39.7-39l0,0c-22.3,0-40.2,18.3-39.7,40.5l3.6,184.7
			c0.3,15.6,11.5,28.7,26.4,31.7l1.4,0.2"/>
		<path class="st11" d="M1591.6,1208.9L1591.6,1208.9c-4.9-18.3-21.8-30.8-40.8-30.1l-8.9,0.3c-25.6,0.5-46,21.5-45.9,47l0.3,64.8
			c0.1,13-10.5,23.5-23.5,23.3l-25.9-0.3"/>
		<path class="st11" d="M1507.9,939.6h-89.6c-32.9,0-59.7,26.3-60.4,59.2l-2.4,117.8c-0.6,30-24.1,54.6-54,56.6l-99.7,9.2"/>
		<line class="st11" x1="1777.4" y1="939.6" x2="1659" y2="939.6"/>
		<path class="st11" d="M1594.8,1030.7c-20.5,2.9-42.2-2.5-59.5-16.6c-32.9-26.9-37.8-75.4-10.8-108.3
			c26.9-32.9,75.4-37.8,108.3-10.8c32.9,26.9,37.8,75.4,10.8,108.3c-2.8,3.4-5.8,6.5-9,9.3"/>
		<g>
			<circle class="st14" cx="1586" cy="940.8" r="3.2"/>
			<circle class="st14" cx="1554.2" cy="914.7" r="3.2"/>
			<path class="st11" d="M1568.4,927.3l-14.1,7c-7.3,3.6-8.4,13.5-2.1,18.6l4.8,3.9"/>
		</g>
		<path class="st11" d="M1390.1,1207.7l-110.4,3.3c-29.3,0.8-52.6,24.7-52.6,54v162h101.4"/>
		<path class="st11" d="M1494.1,1301.3l-25.9,1.2c-15.4,0.7-27.4,13.5-27.2,28.9l1.6,103.4l-113.9-4.4l1.8-161.8
			c0.4-33,26.6-59.8,59.6-60.9l111.5-3.7"/>
		<path class="st11" d="M1686.9,1113.1l-33.7-94.5l-62,20.5l37,119.5c5.1,16,20.8,26.2,37.5,24.1l0,0l19.9-9.3l16.1-10.5
			c13.2-8.7,22.8-22,26.7-37.3l0,0l0,0l-14.4-62.2c-5.2-22.6-18.5-42.4-37.4-55.9l-25.7-14.7"/>
		<path class="st11" d="M1514.7,988l-22.5,5.9c-24.9,6.5-42.7,28.3-44,54l0,0c-6.8,46-28.9,88.4-62.7,120.3l-20.2,19l-23.3,21.9"/>
		<path class="st11" d="M1276.9,1489.7l-21.2,7.6c0,0-10.2,4.9-31.7,1l-24.6-4.5c-22.9-4.2-17.3-40.7-17.3-40.7l0,0
			c0.8-8.3,7.9-14.6,16.3-14.3l10.3,0.3c8,0.2,16-1,23.5-3.6l6.5-2.2c4.2-1.4,7.4-3.2,10.7-6.1"/>
		<path class="st11" d="M1273.4,1472.9l-13.2,4.7c-12.5,4.5-26,5.6-39.2,3.2l-38.5-7"/>
		<path class="st11" d="M1424,1434.8l1.3,42.1l-27.6,9.9l-6.4-10.8l-9,16.4l-34.8,12.5c0,0-10.2,4.9-31.7,1l-24.6-4.5
			c-22.9-4.2-17.3-40.7-17.3-40.7l0,0c0.8-8.3,7.9-14.6,16.3-14.3l10.3,0.3c8,0.2,16-1,23.5-3.6l6.5-2.2c5.7-1.9,10.6-5.3,14.5-9.8"
			/>
		<path class="st11" d="M1424.2,1459.2l-72.2,25.9c-12.5,4.5-26,5.6-39.2,3.2l-38.5-7"/>
		<line class="st11" x1="1397.8" y1="1486.8" x2="1386" y2="1485.6"/>
		<path class="st11" d="M1442.3,1205.9c0,0,48.9-36.3,64.8-102.9"/>
		<path class="st11" d="M1597.2,1037.1l-10-33.8l2,7.3c1.1,4-1.5,8.2-5.6,9l0,0c-3.9,0.8-7.6-1.7-8.4-5.6l-1.3-6.1l-0.8-4.5
			c-1.3-7.1,3.5-13.8,10.6-15l31.1-5.2c0.3,0,0.6-0.1,1-0.1c7.5-0.8,14.2,4.7,15.6,12.1l5.2,29"/>
	</g>
</g>
</svg>
