<?xml version="1.0" encoding="UTF-8"?>
<svg id="g" xmlns="http://www.w3.org/2000/svg" xmlns:xlink="http://www.w3.org/1999/xlink" version="1.1" viewBox="0 0 1080 1080">
  <defs>
    <style>
      .cls-1, .cls-2 {
        fill: none;
      }

      .cls-1, .cls-3 {
        stroke-linecap: round;
        stroke-linejoin: round;
      }

      .cls-1, .cls-3, .cls-4 {
        stroke: #000;
      }

      .cls-5 {
        clip-path: url(#clippath);
      }

      .cls-2, .cls-6, .cls-7, .cls-8 {
        stroke-width: 0px;
      }

      .cls-3, .cls-6 {
        fill: #e1e2de;
      }

      .cls-4 {
        stroke-miterlimit: 10;
      }

      .cls-4, .cls-7 {
        fill: #fcfdf7;
      }

      .cls-8 {
        fill: url(#ap);
      }
    </style>
    <clipPath id="clippath">
      <path class="cls-2" d="M855.5,381.1c5,87.8,4.7,414.1-4.6,447.8-23.4,84.5-148.2,40.5-186.5,40.1-115.2-1.1-160.2,37.2-276.1,29.3-115.9-7.9-151.9-37.9-169-118.5-17-80.5,7.4-351.4,4-430-1.1-25.9.8-135.4.8-135.4l22.8-8.7c40.6,2.7,62.2-35.7,99.9-20.5,34.2,13.8,68.1,14.8,109.2,2.9,32.7-9.5,67.3-10.5,100.5-3l76,17.2c49.4,11.2,101.2,3.3,145-22l74.6,34.1,3.3,166.5h0Z"/>
    </clipPath>
    <pattern id="ap" x="0" y="0" width="30" height="30" patternTransform="translate(-4542.8 -12581.3) scale(.9 -.9)" patternUnits="userSpaceOnUse" viewBox="0 0 30 30">
      <g>
        <rect class="cls-2" width="30" height="30"/>
        <rect class="cls-2" width="30" height="30"/>
        <line class="cls-1" x1="30" x2="60" y2="-30"/>
        <line class="cls-1" x2="30" y2="-30"/>
        <line class="cls-1" x1="-30" y2="-30"/>
        <line class="cls-1" x1="30" y1="30" x2="60"/>
        <rect class="cls-7" width="30" height="30"/>
        <line class="cls-1" y1="30" x2="30"/>
        <line class="cls-1" x1="-30" y1="30"/>
        <line class="cls-1" x1="30" y1="60" x2="60" y2="30"/>
        <line class="cls-1" y1="60" x2="30" y2="30"/>
        <line class="cls-1" x1="-30" y1="60" y2="30"/>
      </g>
    </pattern>
  </defs>
  <g id="h">
    <rect class="cls-7" width="1080" height="1080"/>
  </g>
  <g id="i">
    <g id="j">
      <path class="cls-7" d="M855.5,381.1c5,87.8,4.7,414.1-4.6,447.8-23.4,84.5-148.2,40.5-186.5,40.1-115.2-1.1-160.2,37.2-276.1,29.3-115.9-7.9-151.9-37.9-169-118.5-17-80.5,7.4-351.4,4-430-1.1-25.9.8-135.4.8-135.4l22.8-8.7c40.6,2.7,62.2-35.7,99.9-20.4,34.2,13.8,68.1,14.8,109.2,2.9h0c32.7-9.5,67.3-10.5,100.5-3l76,17.2c49.4,11.2,101.2,3.3,145-22l74.6,34.1,3.3,166.5h0Z"/>
      <g class="cls-5">
        <g>
          <rect class="cls-6" x="470.4" y="827.3" width="113.2" height="154.5"/>
          <rect class="cls-6" x="620.7" y="826.5" width="113.1" height="154.9"/>
          <rect class="cls-6" x="770.9" y="826.7" width="113.2" height="154.5"/>
          <polygon class="cls-6" points="278.7 982.7 165.9 982.9 165.9 828.3 279.2 828.3 278.7 982.7"/>
          <rect class="cls-6" x="316.4" y="827.7" width="116.9" height="154.9"/>
          <rect class="cls-6" x="470.9" y="621.9" width="113.2" height="154.5"/>
          <rect class="cls-6" x="621.2" y="621.1" width="113.1" height="154.9"/>
          <rect class="cls-6" x="771.3" y="621.3" width="113.2" height="154.5"/>
          <polygon class="cls-6" points="279.2 777.2 166.4 777.5 166.4 622.9 279.6 622.9 279.2 777.2"/>
          <rect class="cls-6" x="316.8" y="622.2" width="116.9" height="154.9"/>
          <rect class="cls-6" x="470.8" y="416.6" width="113.4" height="154.3"/>
          <rect class="cls-6" x="621.3" y="415.9" width="113.2" height="154.7"/>
          <rect class="cls-6" x="771.8" y="416" width="113.4" height="154.3"/>
          <rect class="cls-6" x="165.8" y="417.7" width="113.4" height="154.3"/>
          <rect class="cls-6" x="316.5" y="417" width="117.1" height="154.7"/>
          <rect class="cls-6" x="471.1" y="206.3" width="113.4" height="159.4"/>
          <rect class="cls-6" x="621.7" y="205.5" width="113.2" height="159.8"/>
          <rect class="cls-6" x="772.1" y="205.7" width="113.4" height="159.4"/>
          <rect class="cls-6" x="166.1" y="207.4" width="113.4" height="159.4"/>
          <rect class="cls-6" x="316.8" y="206.7" width="117.1" height="159.8"/>
          <line class="cls-1" x1="128.9" y1="-60.5" x2="128.9" y2="1204.1"/>
          <line class="cls-1" x1="166.1" y1="-54.8" x2="166.1" y2="1209.8"/>
          <line class="cls-1" x1="279.3" y1="-67.2" x2="279.3" y2="1197.4"/>
          <line class="cls-1" x1="316.5" y1="-61.5" x2="316.5" y2="1203.1"/>
          <line class="cls-1" x1="433.6" y1="-71" x2="433.6" y2="1193.6"/>
          <line class="cls-1" x1="470.8" y1="-65.3" x2="470.8" y2="1199.3"/>
          <line class="cls-1" x1="584.2" y1="-48.5" x2="584.2" y2="1216.1"/>
          <line class="cls-1" x1="621.3" y1="-42.8" x2="621.3" y2="1221.8"/>
          <line class="cls-1" x1="734.6" y1="-55.2" x2="734.6" y2="1209.3"/>
          <line class="cls-1" x1="771.8" y1="-49.5" x2="771.8" y2="1215.1"/>
          <line class="cls-1" x1="888.9" y1="-59.1" x2="888.9" y2="1205.5"/>
          <line class="cls-1" x1="926" y1="-53.3" x2="926" y2="1211.3"/>
          <line class="cls-1" x1="867.9" y1="73.9" x2="210.8" y2="76.3"/>
          <line class="cls-1" x1="865" y1="109.8" x2="207.9" y2="112.2"/>
          <line class="cls-1" x1="1000.8" y1="153.5" x2="73.8" y2="156.9"/>
          <line class="cls-1" x1="996.7" y1="204.3" x2="69.7" y2="207.6"/>
          <line class="cls-1" x1="1004" y1="364" x2="77" y2="367.4"/>
          <line class="cls-1" x1="999.9" y1="414.7" x2="72.9" y2="418.1"/>
          <line class="cls-1" x1="987.9" y1="569.5" x2="60.9" y2="572.8"/>
          <line class="cls-1" x1="983.8" y1="620.2" x2="56.8" y2="623.5"/>
          <line class="cls-1" x1="993.2" y1="774.6" x2="66.2" y2="778"/>
          <line class="cls-1" x1="989.1" y1="825.3" x2="62.1" y2="828.7"/>
          <line class="cls-1" x1="996.4" y1="985.1" x2="69.4" y2="988.4"/>
          <line class="cls-1" x1="992.3" y1="1035.8" x2="65.3" y2="1039.2"/>
        </g>
      </g>
      <path class="cls-1" d="M855.5,381.1c5,87.8,4.7,414.1-4.6,447.8-23.4,84.5-148.2,40.5-186.5,40.1-115.2-1.1-160.2,37.2-276.1,29.3-115.9-7.9-151.9-37.9-169-118.5-17-80.5,7.4-351.4,4-430-1.1-25.9.8-135.4.8-135.4l22.8-8.7c40.6,2.7,62.2-35.7,99.9-20.4,34.2,13.8,68.1,14.8,109.2,2.9h0c32.7-9.5,67.3-10.5,100.5-3l76,17.2c49.4,11.2,101.2,3.3,145-22l74.6,34.1,3.3,166.5h0Z"/>
      <g id="ao">
        <path class="cls-8" d="M832.4,230.2c7.9-4.5,20.2,3.6,20.8,13.3s-8.2,38.5-9.2,48.1c-6.1,58.6,19.3,97.1,18.2,147.3-1.5,65.5-27.8,124.3-63.8,177-24.6,36-54.5,68.8-69.8,110.4s-11.1,96.4,23.2,121.5c19.7,14.4,45.7,16.2,68.7,9.7,16.7-4.7,23.8-10.1,29.2-24.5,1.1-3,2.6-11.5,3-14.7,2.3-20.8,2.6-35.8,2.6-35.8,19.3-7.1,31.1,36.6,24.9,55.7-6.8,20.8-16.2,34.6-34.9,43.3-21.8,10.1-45.7,14-69.2,10.3-37.5-5.9-56.1-21.4-72.2-40.2-13.1-15.2-18.8-32.6-23.5-64.4-2.9-19.6-1.7-33.1,4.2-51.9,16.8-53.4,51-97.8,81.3-143.7,30.4-45.8,58.4-97.2,59.6-153.6.8-36.9-10.1-72.7-15-109.1s-5-67.6,17.5-95.2l4.6-3.3h0Z"/>
        <path class="cls-3" d="M832.4,230.2c7.9-4.5,20.2,3.6,20.8,13.3s-8.2,38.5-9.2,48.1c-6.1,58.6,19.3,97.1,18.2,147.3-1.5,65.5-27.8,124.3-63.8,177-24.6,36-54.5,68.8-69.8,110.4s-11.1,96.4,23.2,121.5c19.7,14.4,45.7,16.2,68.7,9.7,16.7-4.7,23.8-10.1,29.2-24.5,1.1-3,2.6-11.5,3-14.7,2.3-20.8,2.6-35.8,2.6-35.8,19.3-7.1,31.1,36.6,24.9,55.7-6.8,20.8-16.2,34.6-34.9,43.3-21.8,10.1-45.7,14-69.2,10.3-37.5-5.9-56.1-21.4-72.2-40.2-13.1-15.2-18.8-32.6-23.5-64.4-2.9-19.6-1.7-33.1,4.2-51.9,16.8-53.4,51-97.8,81.3-143.7,30.4-45.8,58.4-97.2,59.6-153.6.8-36.9-10.1-72.7-15-109.1s-5-67.6,17.5-95.2l4.6-3.3h0Z"/>
        <path class="cls-6" d="M378.9,897.7c7.1,7.5,14.9,14.8,23.3,22.2,24.6,21.8,56.9,36.3,85.2,19.6,4.9-2.9,9.5-6.5,12.1-11.6,11.1-21.7-29.3-46.3-42-59.3-40.9-42-58.4-60.6-83.2-113.7-24.8-53.1-40.4-103.3-34.2-161.6,4.7-44.7,20.6-88.7,16.1-133.5-3.6-36.5-9.7-51.3-21.8-68.1-21.4-29.8-57.8-56.8-82.4-84-23.6-26.1-28-35.3-28-55,0-3.8,1.6-7.4,4.3-10.1h0c7.2-7.1,19.3-4.8,23.4,4.4,11.7,26.7,17.2,32.3,34.3,51.5,25.3,28.6,59.6,48.6,82,79.6,36.7,50.8,33.6,120,19.5,181.1-5.1,22-11.4,43.9-12,66.4-.5,19.3,3.3,38.5,8.8,57,8.7,29.3,35.6,85.2,52.6,110.6,39.2,59,97.2,83.2,101.6,127.2.8,8.4-1.7,18-1.7,18-2.2,7.6-8.3,19.1-14,24.5-24.2,23-52.3,26.5-84.4,17.4s-59.5-30.5-82.3-54.8c-13.7-14.5-21.5-24-29.1-35.1l14.5,2.7,14.6,2,13.8,1.6,9.1.8h0Z"/>
        <path class="cls-1" d="M378.9,897.7c7.1,7.5,14.9,14.8,23.3,22.2,24.6,21.8,56.9,36.3,85.2,19.6,4.9-2.9,9.5-6.5,12.1-11.6,11.1-21.7-29.3-46.3-42-59.3-40.9-42-58.4-60.6-83.2-113.7-24.8-53.1-40.4-103.3-34.2-161.6,4.7-44.7,20.6-88.7,16.1-133.5-3.6-36.5-9.7-51.3-21.8-68.1-21.4-29.8-57.8-56.8-82.4-84-23.6-26.1-28-35.3-28-55,0-3.8,1.6-7.4,4.3-10.1h0c7.2-7.1,19.3-4.8,23.4,4.4,11.7,26.7,17.2,32.3,34.3,51.5,25.3,28.6,59.6,48.6,82,79.6,36.7,50.8,33.6,120,19.5,181.1-5.1,22-11.4,43.9-12,66.4-.5,19.3,3.3,38.5,8.8,57,8.7,29.3,35.6,85.2,52.6,110.6,39.2,59,97.2,83.2,101.6,127.2.8,8.4-1.7,18-1.7,18-2.2,7.6-8.3,19.1-14,24.5-24.2,23-52.3,26.5-84.4,17.4s-59.5-30.5-82.3-54.8c-13.7-14.5-21.5-24-29.1-35.1l14.5,2.7,14.6,2,13.8,1.6,9.1.8h0Z"/>
      </g>
      <path class="cls-4" d="M840.5,184.1c58.4,79.4-91.7,29.4-302.3,86.9-167.3,45.7-317.3-25.5-314-56.5,6.5-61.8,223.3-40.3,314-56.5,179.8-32.1,271.1-16.5,302.3,26h0Z"/>
    </g>
  </g>
</svg>