<?xml version="1.0" encoding="utf-8"?>
<!-- Generator: $$$/GeneralStr/196=Adobe Illustrator 27.6.0, SVG Export Plug-In . SVG Version: 6.00 Build 0)  -->
<svg version="1.1" id="Layer_1" xmlns="http://www.w3.org/2000/svg" xmlns:xlink="http://www.w3.org/1999/xlink" x="0px" y="0px"
	 viewBox="0 0 2000 2000" style="enable-background:new 0 0 2000 2000;" xml:space="preserve">
<style type="text/css">
	.st0{fill:#81C7FF;}
	.st1{fill:#FBFFFF;}
	.st2{fill:#EAEDE9;}
	.st3{fill:none;stroke:#000000;stroke-width:2;stroke-linecap:round;stroke-linejoin:round;}
</style>
<g id="a">
	<rect x="-0.5" y="-0.5" class="st0" width="2001" height="2001"/>
	<polygon class="st1" points="0,575.1 10.9,569.2 28.1,561.1 50.8,552 73.7,545.3 95.4,540.1 118.1,537.5 136.3,535.2 151.5,535.3 
		173,536 190,537.7 206,540.1 222.7,543.4 240.6,547.7 258.2,554.2 281.4,562.8 307.6,576.9 321.9,585.2 345.3,602.2 392.7,637.7 
		429.3,665.7 476.6,700.7 531.3,741.6 626.5,812.6 735.2,894.2 778,926.2 1325.7,839.7 1329.6,831.1 1335.1,818.7 1342.7,799 
		1351.3,770.8 1354.7,753.5 1358.5,729.6 1360.9,698.3 1360.2,667.8 1356.1,631.9 1350,602.8 1338.2,567.6 1324.9,537.2 
		1316.4,521.7 1308,507.1 1292.9,486.5 1275.7,465.1 1260,448.5 1237.5,428.1 767.7,-2.6 0,0 	"/>
	<polygon class="st2" points="771.9,919.5 769.9,909.9 767.7,887.5 767.7,875 769.8,858.8 774.5,843.4 781.4,823.7 788.5,811.1 
		796.8,800.5 802.8,792.7 814,781.3 823.9,772.2 843.5,760.8 864,752.2 883.5,746.8 901.8,744.6 924.6,745.3 944.1,748.6 962.1,755 
		979.4,763.6 989.5,770.4 1001.3,779 1015.8,792.9 1028.5,810.7 1038.8,831.2 1042.2,840.3 1673.9,840.6 1733.7,885.4 1676.4,930.3 
		1042.2,930.5 1039.5,937.7 1033.8,950.1 1028.9,958.6 1021.8,969.8 1012.8,980.7 1003.8,989.3 988.6,1001.3 974.7,1009.8 
		958.9,1017.3 945.3,1021.9 915.7,1026.3 894.8,1025.7 875.1,1022.9 849.2,1013.9 823.9,998.6 804.7,980.8 791.3,963.8 782.5,949.7 
			"/>
	<path class="st1" d="M1735,2001.7l9.4-17.3l14.5-27.1l11.1-22.3l10.2-22.3l9.9-25.2l8.3-23.1l4.6-14.5l6.2-22.6l7.2-37.1l4.6-32
		l1.9-24.7l0.7-29.8l-0.5-30.4l-2.7-31.8l-4.6-29l-3.6-19.3l-8.2-35.1L1698,1116.1l-5.3-14.9l-8.7-23.4l-10.4-19.8l-12.1-20.4
		l-6.8-9.6l-6.6-10.2l-10.4-12.8l-10.8-11.9l-22.3-21.5l-27.7-21.1l-21.3-12.8l-30.2-15.7l-27.9-10.2l-18.1-5.3l-30.2-6.2l-35.7-2.8
		l-22.6,0.3l-39.3,4.2l-20,4.9l-31.3,8.9l-24.2,9.6l-22.2,12l-3,0.9l7.6-7.4l-214.5-0.2l-1.1,0.4c0,0-1.1,2.2-1.1,2.5
		s-2.1,5.5-2.1,5.5l-7.2,14.8l-3.7,6.3l-8.4,11.5l-12,13.9l-13.8,11.8l-16.9,11.2l-8.3,4.5l-13.4,6l5.2,1.6l9,1.1l21.5,3.1l18,1.3
		h13.3l17.5-0.3l20.6-1.4l18-2.9l20.6-3.9l9.4-2.5l19.8-5.7l19.6-7.1l46.8-22.3l-4.1,4.5l-12.2,13.1l-15.3,16.9l-12.3,17.8
		l-12.6,20.6l-7.6,13.9l-5.9,11.9l-9.3,24.5l-6.3,20.4l-4.4,17.4l-3.3,21.9l-2.6,23l-0.4,21.5l1.1,26.3l6.7,42.6l11.9,83.4
		l13.5,87.1l6,50.4l0.8,23.7l0.3,26.8l-0.3,13.5l-1.6,27l-2.9,20l-2.3,20l-6.5,30.9l-6.5,23.9l-8.3,26l-7,19.8l-6.2,15.9l-9.1,20.3
		l-8.8,17.9l-9.1,18.5l-9.4,14l-10.3,16.5l-13.3,19.3l-15.3,20.2l-19.6,23.2l-49.6,56.9l-49.3,50L1735,2001.7L1735,2001.7z"/>
	<polygon class="st1" points="542.2,2000 509.6,1985.4 465.4,1963.6 442,1951.6 416.7,1936.2 384,1915.9 352.2,1895 321.4,1873 
		282.2,1842.4 251.4,1816.7 221,1790.1 197.7,1766.8 154,1722.1 125.7,1689.1 104.5,1664 81.9,1635.2 57.2,1600.9 49.4,1589.6 
		23.3,1548.4 -0.9,1505.7 0,2000 	"/>
</g>
<g id="b">
	<g>
		<line class="st3" x1="1265.8" y1="930.5" x2="1042.2" y2="930.5"/>
		<polyline class="st3" points="1042.2,840.3 1674.3,840.3 1733.7,885.4 1676.1,930.5 1545,930.5 		"/>
		
			<ellipse transform="matrix(0.7071 -0.7071 0.7071 0.7071 -359.9366 901.8161)" class="st3" cx="908.6" cy="885.4" rx="140.9" ry="140.9"/>
		<path class="st3" d="M771.9,921.7L338.2,597.1c-98.4-73.7-231.1-82.3-338.2-22l0,0"/>
		<path class="st3" d="M954,1019.1c82.9,17.5,170.1,3,243.1-40.7l4.5-3.5"/>
		<path class="st3" d="M1259.2,930.5c-2.8,2.7-5.6,5.4-8.4,8l-2.6,2.2"/>
		<path class="st3" d="M767.7-2.6l483.8,443.2c112.8,103.4,140.1,267.3,73.7,399.7"/>
		<path class="st3" d="M1734.5,2002.6l9.8-17.8l19.1-36.6c59.4-113.9,75.7-245.6,45.7-370.5l-107.1-445.9
			c-34.7-144.5-168.3-243-316.5-233.6l0,0c-178.2,11.4-308.8,172.6-282.8,349.3l31.3,213.3c22.5,153.1-22.8,308.5-124,425.6
			l-58.5,67.6l-48.3,48.7"/>
	</g>
	<path class="st3" d="M0,1506.6c0,0,157.6,327,542.2,493.4"/>
</g>
</svg>
