<?xml version="1.0" encoding="UTF-8"?><svg id="uuid-ec905562-c492-465c-b8bc-97707bf3e705" xmlns="http://www.w3.org/2000/svg" viewBox="0 0 1080 1080"><defs><style>.uuid-37eff4cd-3b79-4850-a7dd-21a5c2f44082,.uuid-9d49755a-b518-405e-9afa-1738da406f17{fill:#fff;}.uuid-662ff60d-5c30-480c-b132-e4cb4a3efb4e{fill:#7e6044;}.uuid-662ff60d-5c30-480c-b132-e4cb4a3efb4e,.uuid-9d49755a-b518-405e-9afa-1738da406f17,.uuid-c44dedf0-7951-4b1c-9d53-94368b71b62a,.uuid-efb9c2ed-2614-4eeb-9345-d819947912b1,.uuid-16c146b6-4b4e-42b8-9834-cb257f29f61d{stroke:#7e6044;stroke-linecap:round;stroke-linejoin:round;stroke-width:1.5px;}.uuid-c44dedf0-7951-4b1c-9d53-94368b71b62a{fill:#fef9bb;}.uuid-efb9c2ed-2614-4eeb-9345-d819947912b1{fill:#e4eeff;}.uuid-16c146b6-4b4e-42b8-9834-cb257f29f61d{fill:none;}</style></defs><rect class="uuid-37eff4cd-3b79-4850-a7dd-21a5c2f44082" x="0" width="1080" height="1080"/><g><path class="uuid-9d49755a-b518-405e-9afa-1738da406f17" d="m410.2,972.81h151.44l-.6,79.51-83.81-.33-3.85-25.74-29.16,25.74h-126.07s-6.34-35.63-6.34-35.63c-2.8-10.22-1.79-24.39,8.8-24.93,22.99-1.17,61.23-.27,71.86-2.93,8.1-2.03,14.18-9.6,17.74-15.68"/><line class="uuid-16c146b6-4b4e-42b8-9834-cb257f29f61d" x1="560.91" y1="1038.25" x2="475.45" y2="1038.84"/><line class="uuid-16c146b6-4b4e-42b8-9834-cb257f29f61d" x1="459.05" y1="1038.77" x2="315.74" y2="1038.54"/><path class="uuid-9d49755a-b518-405e-9afa-1738da406f17" d="m510.92,972.91h151.44l-.6,79.51-83.81-.33-3.85-25.74-29.16,25.74h-126.07s-6.34-35.63-6.34-35.63c-2.8-10.22-1.79-24.39,8.8-24.93,22.99-1.17,61.23-.27,71.86-2.93,8.1-2.03,14.18-9.6,17.74-15.68"/><polygon class="uuid-efb9c2ed-2614-4eeb-9345-d819947912b1" points="510.92 972.91 397.56 972.91 397.62 588.62 665.5 588.02 671.81 915.19 671.81 972.91 662.36 972.91 510.92 972.91"/><polygon class="uuid-9d49755a-b518-405e-9afa-1738da406f17" points="585.11 637.2 584.39 684.5 628.84 701.35 678.65 701.35 694.07 634.33 585.11 637.2"/><polyline class="uuid-9d49755a-b518-405e-9afa-1738da406f17" points="585.66 645.95 571.84 699.42 583.69 723.99 611.75 718.04"/><polyline class="uuid-9d49755a-b518-405e-9afa-1738da406f17" points="552.13 883.33 552.13 699.42 735.79 699.42 735.79 883.33"/><g><path class="uuid-9d49755a-b518-405e-9afa-1738da406f17" d="m596.02,671.41v49.93c0,6.62,5.37,11.98,11.98,11.98h0c6.62,0,11.98-5.37,11.98-11.98v-47.37"/><path class="uuid-9d49755a-b518-405e-9afa-1738da406f17" d="m643.96,675.6v45.74c0,6.62,5.37,11.98,11.98,11.98h0c6.62,0,11.98-5.37,11.98-11.98v-30.82"/><path class="uuid-9d49755a-b518-405e-9afa-1738da406f17" d="m691.9,644.39v76.95c0,6.62-5.37,11.98-11.98,11.98h0c-6.62,0-11.98-5.37-11.98-11.98v-47.84"/></g><path class="uuid-9d49755a-b518-405e-9afa-1738da406f17" d="m549.51,919.84c9.85,0,18.81-3.49,25.5-9.2,6.34,4.49,14.27,7.18,22.9,7.18s16.89-2.79,23.29-7.46c6.4,4.67,14.49,7.46,23.29,7.46,7.71,0,14.88-2.14,20.84-5.81,5.96,3.67,13.13,5.81,20.84,5.81,8.8,0,16.89-2.79,23.29-7.46,6.4,4.67,14.49,7.46,23.29,7.46,20.72,0,37.52-15.44,37.52-34.48s-16.8-34.48-37.52-34.48c-8.8,0-16.89,2.79-23.29,7.46-6.4-4.67-14.49-7.46-23.29-7.46-7.71,0-14.88,2.14-20.84,5.81-5.96-3.67-13.13-5.81-20.84-5.81-8.8,0-16.89,2.79-23.29,7.46-6.4-4.67-14.49-7.46-23.29-7.46-9.85,0-18.81,3.49-25.5,9.2-6.34-4.49-14.27-7.18-22.9-7.18-20.72,0-37.52,15.44-37.52,34.48s16.8,34.48,37.52,34.48Z"/><line class="uuid-9d49755a-b518-405e-9afa-1738da406f17" x1="691.9" y1="822.28" x2="691.9" y2="720.89"/><g><path class="uuid-9d49755a-b518-405e-9afa-1738da406f17" d="m256.68,167.99l-56.9,14.34,3.74,26.97,7.98,57,76.13-4.13,16.02-17.17,16.98-22.07c4.71-6.12,3.05-14.97-3.56-18.96h0c-5.64-3.41-12.95-2.03-16.96,3.2l-6.59,8.6c-2.43,3.17-6.76,4.2-10.36,2.46l-6.73-3.25c-2.75-1.33-4.57-4.05-4.75-7.1l-.54-9.12c-.32-5.52,4.67-9.85,10.09-8.76h0c1.25.25,2.43.79,3.45,1.56l10.57,8.07c5.26,4.02,12.79,3.01,16.8-2.25h0c4.11-5.39,2.94-13.11-2.59-17.04l-16.83-12.06c-3.77-2.7-7.49-3.79-11.54-4.23-4.56-.49-9.17-.05-13.61,1.1l-10.82,2.82"/><path class="uuid-9d49755a-b518-405e-9afa-1738da406f17" d="m257.79,187.37l-4.77-58.97c-.9-6.38-6.8-10.82-13.18-9.92h0c-6.38.9-10.82,6.8-9.92,13.18l6.43,55.74"/><path class="uuid-9d49755a-b518-405e-9afa-1738da406f17" d="m239.4,190.1l-6.67-51.88c-.9-6.38-6.8-10.82-13.18-9.92h0c-6.38.9-10.82,6.8-9.92,13.18l3.18,22.52,4.85,32.21"/><path class="uuid-9d49755a-b518-405e-9afa-1738da406f17" d="m225.11,195.76l-3.1-21.96c-.9-6.38-6.8-10.82-13.18-9.92h0c-6.38.9-10.82,6.8-9.92,13.18l9.85,69.72"/></g><path class="uuid-9d49755a-b518-405e-9afa-1738da406f17" d="m464.79,229.16l-7.16,2.18c-49.72,15.11-93.28,45.75-124.32,87.43l-5.3,7.12-30.55,50.55,89.57,32.85v183.91h192.96v-237.18,289.53c5.79,0,130.15-1.35,130.15-1.35l-8.5-307.51c-1.13-41.02-25.79-77.72-63.33-94.28l-49.74-21.94"/><path class="uuid-9d49755a-b518-405e-9afa-1738da406f17" d="m619.99,690.52v30.82c0,6.62,5.37,11.98,11.98,11.98h0c6.62,0,11.98-5.37,11.98-11.98v-30.82"/><path class="uuid-9d49755a-b518-405e-9afa-1738da406f17" d="m328.47,350.23l-3.49-105.23-123.43,2.63,1.14,123.51c.38,41.7,28.3,78.11,68.47,89.31h0c34.33,9.57,71.11-1.18,94.89-27.72l21-23.45"/><line class="uuid-16c146b6-4b4e-42b8-9834-cb257f29f61d" x1="464.79" y1="303" x2="464.79" y2="593.19"/><path class="uuid-16c146b6-4b4e-42b8-9834-cb257f29f61d" d="m445.36,235.43l19.43,67.57,99.83-47.45c13.72-6.52,22.87-19.93,23.95-35.08h0"/><ellipse class="uuid-16c146b6-4b4e-42b8-9834-cb257f29f61d" cx="512.26" cy="386.92" rx="9.77" ry="16.06"/><ellipse class="uuid-16c146b6-4b4e-42b8-9834-cb257f29f61d" cx="512.26" cy="431.86" rx="9.77" ry="16.06"/><ellipse class="uuid-16c146b6-4b4e-42b8-9834-cb257f29f61d" cx="512.26" cy="474.88" rx="9.77" ry="16.06"/><ellipse class="uuid-16c146b6-4b4e-42b8-9834-cb257f29f61d" cx="512.26" cy="517.91" rx="9.77" ry="16.06"/><line class="uuid-16c146b6-4b4e-42b8-9834-cb257f29f61d" x1="661.64" y1="1038.36" x2="576.18" y2="1038.94"/><line class="uuid-16c146b6-4b4e-42b8-9834-cb257f29f61d" x1="559.77" y1="1038.87" x2="416.47" y2="1038.64"/><ellipse class="uuid-9d49755a-b518-405e-9afa-1738da406f17" cx="521.9" cy="157.89" rx="91.06" ry="91.03"/><g><circle class="uuid-662ff60d-5c30-480c-b132-e4cb4a3efb4e" cx="522.76" cy="155.7" r="4.23"/><circle class="uuid-662ff60d-5c30-480c-b132-e4cb4a3efb4e" cx="469.02" cy="152.86" r="4.23"/><path class="uuid-16c146b6-4b4e-42b8-9834-cb257f29f61d" d="m493.75,154.15l-9.38,18.15c-4.87,9.43,1.61,20.74,12.21,21.3l8.15.43"/></g><path class="uuid-c44dedf0-7951-4b1c-9d53-94368b71b62a" d="m525.53,67.03l-48.09.11s.04,1.47-.51,9.18c-.55,7.71,5.09,8.28,13.6,13.28,8.52,5.01,3.7,10.07,7.22,18.79,3.51,8.72,13.86,4.77,17.61,9.24,3.75,4.47-6.07,8.46-.89,15.94,5.18,7.48,17.85.19,23.37,11.16,5.52,10.97.97,20.93,13.93,22.67,12.96,1.74,27.68,7.49,34.43,27.99,6.75,20.51,11.53,22.76,20.5,19.53,8.98-3.23,21.48-18.01,21.48-18.01l.08-59.79-102.73-70.11Z"/><path class="uuid-9d49755a-b518-405e-9afa-1738da406f17" d="m631.37,199.68c38.07-44.21,33.09-110.91-11.12-148.98-44.21-38.07-110.91-33.09-148.98,11.12l160.11,137.86Z"/><line class="uuid-9d49755a-b518-405e-9afa-1738da406f17" x1="596.05" y1="819.25" x2="596.05" y2="717.87"/><line class="uuid-16c146b6-4b4e-42b8-9834-cb257f29f61d" x1="502.49" y1="593.19" x2="510.92" y2="972.91"/></g></svg>