<?xml version="1.0" encoding="UTF-8"?><svg id="uuid-981d5edd-6291-4ecf-9185-78600e44e8a7" xmlns="http://www.w3.org/2000/svg" viewBox="0 0 1080 1080"><defs><style>.uuid-e6378626-22b9-453f-86cc-74709a8ffcd3,.uuid-29454207-1298-4f86-aeac-de8affbcadc4{fill:#fff;}.uuid-29454207-1298-4f86-aeac-de8affbcadc4,.uuid-617b0451-9efa-4c84-a0d0-e44ea9c56815,.uuid-a4ad27b4-3188-45e0-852e-4e2e811df1eb,.uuid-50765543-66cd-4402-8c10-ec5fbd5a6345{stroke:#7e6044;stroke-linecap:round;stroke-linejoin:round;stroke-width:1.5px;}.uuid-617b0451-9efa-4c84-a0d0-e44ea9c56815{fill:#fef9bb;}.uuid-a4ad27b4-3188-45e0-852e-4e2e811df1eb{fill:#e4eeff;}.uuid-50765543-66cd-4402-8c10-ec5fbd5a6345{fill:none;}</style></defs><rect class="uuid-e6378626-22b9-453f-86cc-74709a8ffcd3" x="0" width="1080" height="1080"/><g><path class="uuid-29454207-1298-4f86-aeac-de8affbcadc4" d="m568.6,329.66s72.59.94,101.13,23.78l109.56,42.66-17.31,68.37-103.85-25.1-275.19,1.74-76.17,10.38,20.77-75.29s90-36.48,121.13-43.31c31.13-6.82,119.91-3.23,119.91-3.23Z"/><ellipse class="uuid-29454207-1298-4f86-aeac-de8affbcadc4" cx="518.17" cy="290" rx="63.69" ry="64.15"/><path class="uuid-29454207-1298-4f86-aeac-de8affbcadc4" d="m384.51,938.49c-2.8,4.79-7.59,10.75-13.97,12.35-8.37,2.09-38.47,1.39-56.57,2.31-8.34.42-9.13,11.58-6.93,19.62l4.99,28.05h99.24s22.96-20.26,22.96-20.26l3.03,20.26,65.98.26.48-62.59"/><line class="uuid-50765543-66cd-4402-8c10-ec5fbd5a6345" x1="502.81" y1="989.95" x2="436.56" y2="990.33"/><line class="uuid-50765543-66cd-4402-8c10-ec5fbd5a6345" x1="423.13" y1="990.36" x2="310.36" y2="990.24"/><path class="uuid-29454207-1298-4f86-aeac-de8affbcadc4" d="m525.53,938.53c-2.8,4.79-7.59,10.75-13.97,12.35-8.37,2.09-38.47,1.39-56.57,2.31-8.34.42-9.13,11.58-6.93,19.62l4.99,28.05h99.24s22.96-20.26,22.96-20.26l3.03,20.26,65.98.26.48-62.59"/><polyline class="uuid-29454207-1298-4f86-aeac-de8affbcadc4" points="681.42 410.54 686.42 637.55 382.95 637.55 382.95 409.63"/><polyline class="uuid-50765543-66cd-4402-8c10-ec5fbd5a6345" points="507.83 637.55 502.84 391.08 457.96 351.85"/><path class="uuid-50765543-66cd-4402-8c10-ec5fbd5a6345" d="m502.84,391.08l62.33-30.35c11.39-5.55,17.12-18.5,13.56-30.66h0"/><ellipse class="uuid-29454207-1298-4f86-aeac-de8affbcadc4" cx="557.52" cy="433.36" rx="10.63" ry="17.47" transform="translate(-13.19 17.52) rotate(-1.78)"/><ellipse class="uuid-29454207-1298-4f86-aeac-de8affbcadc4" cx="559.04" cy="482.23" rx="10.63" ry="17.47" transform="translate(-14.71 17.59) rotate(-1.78)"/><ellipse class="uuid-29454207-1298-4f86-aeac-de8affbcadc4" cx="560.49" cy="529.02" rx="10.63" ry="17.47" transform="translate(-16.16 17.66) rotate(-1.78)"/><ellipse class="uuid-29454207-1298-4f86-aeac-de8affbcadc4" cx="561.94" cy="575.81" rx="10.63" ry="17.47" transform="translate(-17.61 17.73) rotate(-1.78)"/><path class="uuid-a4ad27b4-3188-45e0-852e-4e2e811df1eb" d="m670.64,637.58h0c-2.39,36.01-14.7,70.66-35.56,100.11l-6.96,9.82c-14.27,20.13-19.98,45.25-15.12,69.44,1.06,5.27,2.56,10.47,4.5,15.56l40.54,106.05h-156.01,25.45-156.01l-22.31-92.47c-7.23-29.96-5.98-61.33,3.6-90.62l38.57-117.89h279.32Z"/><line class="uuid-50765543-66cd-4402-8c10-ec5fbd5a6345" x1="643.83" y1="990" x2="577.58" y2="990.38"/><line class="uuid-50765543-66cd-4402-8c10-ec5fbd5a6345" x1="564.15" y1="990.41" x2="451.38" y2="990.28"/><path class="uuid-617b0451-9efa-4c84-a0d0-e44ea9c56815" d="m713.53,273.33c-50.63-42.81-102.83,13.23-142.24-17.28-35.08-27.16-37.34,6.4-75.41-7.21-10.7-3.83-18.87,1.96-23.88,6.29-10.93,9.44-24.2,15.74-38.46,18.02-.11.02-.23.04-.34.05-45.26,7.26-63.65,3.52-71.03-.14l-35.05,7.82-16.79,25.78-1.54,75.56,74.1-21.11,4.02-.1s47.01-.75,65.15-7.03c29.78-10.3,35.74-18.05,40.48-21.69,1.59-1.22,3.11-2.52,4.6-3.86l1.09-.98c11.38-12.45,26.56-12.35,55.2-4.51,3.09.48,6.22.7,9.35.65,23.35-.37,65.12-3.74,113.05,34.49l48.27,3.56,48.32-42.66-58.88-45.67Zm-312,11.18c21.58-1.73,51.72,4.72,71.88-8.31-29.14,21.16-58.18,21.25-70.35,22.87-2.54.34-5.06-.76-6.61-2.88-3.37-4.62-.5-11.23,5.07-11.68Zm8,64.51c-2.77.62-5.65-.19-7.53-2.13-4.1-4.23-1.49-11.14,4.61-12.22,23.65-4.17,57.44-1.15,78.57-16.42-30.35,24.4-62.37,27.78-75.65,30.77Zm70.83-50.17c-1.27.01-2.53.03-3.79.06-46.42,34.55-115.51,22.64-115.51,22.64l-16.97-.52,22.58-5.36s53.49-15.57,109.9-16.76c.03-.02.06-.04.08-.06h3.71c2.01-.02,4.02-.02,6.03,0h-6.03Zm152.22-29.34c17.24-4,45.68-6.77,51.87,3.69,6.19,10.46-4.02,16.2-11.05,14.46s-19.28-10.62-40.37-10.71c-21.09-.1-37.67-5.99-37.67-5.99,0,0,19.98,2.55,37.21-1.44Zm46.46,65.4c-9.63,3.38-21.73-3.23-31.33-7.24-39.38-16.48-68.18-17.19-80.41-28.83,0,0,23.63,8.13,58.75,10.28,22.5,1.38,41.77,6.62,52.71,10.2,7.42,2.44,7.66,13.01.29,15.6Zm-105.89-47.25l-7.27,1.96s61.33-27.2,114.51,8.62l8.02,10.87c-62.62-2.34-115.25-21.45-115.25-21.45Z"/><polyline class="uuid-29454207-1298-4f86-aeac-de8affbcadc4" points="442.47 243.19 442.47 98.41 587.05 98.41 587.05 243.19 442.47 243.19"/><path class="uuid-29454207-1298-4f86-aeac-de8affbcadc4" d="m589.11,69.68c-7.75,0-14.8,2.75-20.07,7.24-4.99-3.54-11.24-5.65-18.03-5.65s-13.3,2.2-18.33,5.87c-5.04-3.67-11.4-5.87-18.33-5.87-6.07,0-11.71,1.69-16.41,4.57-4.69-2.89-10.34-4.57-16.41-4.57-6.93,0-13.3,2.2-18.33,5.87-5.04-3.67-11.4-5.87-18.33-5.87-16.31,0-29.54,12.15-29.54,27.15s13.22,27.15,29.54,27.15c6.93,0,13.3-2.2,18.33-5.87,5.04,3.67,11.4,5.87,18.33,5.87,6.07,0,11.71-1.69,16.41-4.57,4.69,2.89,10.34,4.57,16.41,4.57,6.93,0,13.3-2.2,18.33-5.87,5.04,3.67,11.4,5.87,18.33,5.87,7.75,0,14.8-2.75,20.07-7.24,4.99,3.54,11.24,5.65,18.03,5.65,16.31,0,29.54-12.15,29.54-27.15s-13.22-27.15-29.54-27.15Z"/><line class="uuid-29454207-1298-4f86-aeac-de8affbcadc4" x1="476.69" y1="144.39" x2="476.69" y2="224.2"/><path class="uuid-50765543-66cd-4402-8c10-ec5fbd5a6345" d="m539.02,319.46c1.13,6.79-4.07,13.42-11.42,13.42h-6.46"/><path class="uuid-50765543-66cd-4402-8c10-ec5fbd5a6345" d="m503.88,285.03s-.19-13.54,10.88-14.06c11.07-.52,19.93-9.75,19.93-9.75"/><path class="uuid-50765543-66cd-4402-8c10-ec5fbd5a6345" d="m524.02,299.13s8.86-15.88,25.08-15.95c16.23-.07,16.79-6.22,16.79-6.22"/><path class="uuid-29454207-1298-4f86-aeac-de8affbcadc4" d="m339.18,375.67l38.52-6.36c4.65-1.5,7.8-5.82,7.8-10.7h0c0-6.44-5.39-11.56-11.82-11.23l-12.46.64c-5.79.3-10.72-4.18-10.97-9.97h0c-.12-2.84.91-5.61,2.88-7.67l25.34-26.58c3.77-3.95,3.31-10.29-.99-13.65h0c-3.56-2.79-8.62-2.59-11.95.48l-36.2,33.31,16.53-15.21,16.72-24.57c3.09-4.53,1.45-10.74-3.48-13.16h0c-3.96-1.94-8.75-.73-11.31,2.86l-33.53,46.04,10.91-15.21,7.02-22.66c1.62-5.24-1.77-10.7-7.18-11.56h0c-4.36-.7-8.58,1.86-9.97,6.04l-15.63,46.85,4.67-14,1.6-24.54.1-2.66c.19-4.93-4.03-8.89-8.95-8.39h0c-3.95.41-7.03,3.62-7.27,7.59l-2.66,44.41-3.24,41.26,55.52,8.65Z"/><path class="uuid-29454207-1298-4f86-aeac-de8affbcadc4" d="m722.51,373.91l-38.52-6.36c-4.65-1.5-7.8-5.82-7.8-10.7h0c0-6.44,5.39-11.56,11.82-11.23l12.46.64c5.79.3,10.72-4.18,10.97-9.97h0c.12-2.84-.91-5.61-2.88-7.67l-25.34-26.58c-3.77-3.95-3.31-10.29.99-13.65h0c3.56-2.79,8.62-2.59,11.95.48l36.2,33.31-16.53-15.21-16.72-24.57c-3.09-4.53-1.45-10.74,3.48-13.16h0c3.96-1.94,8.75-.73,11.31,2.86l33.53,46.04-10.91-15.21-7.02-22.66c-1.62-5.24,1.77-10.7,7.18-11.56h0c4.36-.7,8.58,1.86,9.97,6.04l15.63,46.85-4.67-14-1.6-24.54-.1-2.66c-.19-4.93,4.03-8.89,8.95-8.39h0c3.95.41,7.03,3.62,7.27,7.59l2.66,44.41,3.24,41.26-55.52,8.65Z"/><line class="uuid-29454207-1298-4f86-aeac-de8affbcadc4" x1="552.36" y1="144.39" x2="552.36" y2="224.2"/><path class="uuid-29454207-1298-4f86-aeac-de8affbcadc4" d="m382.95,441.11l-69.57,32.34-5.1,2.37c-19.94,9.27-43.59,4.49-58.37-11.79h0c-13.51-14.88-16.84-36.38-8.48-54.66l41.67-93.69,68.57,64.16-31.01,59.08"/><path class="uuid-29454207-1298-4f86-aeac-de8affbcadc4" d="m682.52,444.85l74.06,34.66c19.94,9.27,43.59,4.49,58.37-11.79h0c13.51-14.88,16.84-36.38,8.48-54.66l-41.67-93.69-68.57,64.16,31.01,59.08"/><path class="uuid-50765543-66cd-4402-8c10-ec5fbd5a6345" d="m503.53,938.44l-22.31-92.47c-7.23-29.96-5.98-61.33,3.6-90.62l38.06-117.52"/></g></svg>