<?xml version="1.0" encoding="UTF-8"?><svg id="a" xmlns="http://www.w3.org/2000/svg" xmlns:xlink="http://www.w3.org/1999/xlink" viewBox="0 0 1080 1080"><defs><style>.n{fill:url(#c);}.o,.p,.q{fill:none;}.r,.s,.t{fill:#fff;}.u{fill:#1d1d1b;}.s,.t,.p,.q{stroke:#1d1d1b;stroke-width:2px;}.s,.q{stroke-miterlimit:10;}.t,.p{stroke-linecap:round;stroke-linejoin:round;}</style><pattern id="c" x="0" y="0" width="5.67" height="5.67" patternTransform="translate(-4837.94 -2037.51)" patternUnits="userSpaceOnUse" viewBox="0 0 5.67 5.67"><g><rect class="o" width="5.67" height="5.67"/><circle class="u" cx="2.83" cy="2.83" r=".99"/></g></pattern></defs><g id="b"><rect class="r" x="0" width="1080" height="1080"/><g><g><rect class="n" x="40" y="104.12" width="1000" height="614.56"/><rect class="t" x="41.01" y="772.59" width="998.28" height="202.29"/><rect class="t" x="40.92" y="718.05" width="998.92" height="54.54"/><rect class="t" x="181.48" y="587.25" width="717.72" height="236.95"/><rect class="t" x="181.48" y="824.52" width="205.79" height="150.45"/><rect class="t" x="693.44" y="824.12" width="205.79" height="150.69"/><rect class="t" x="422.74" y="618.24" width="241.35" height="157.96"/><rect class="t" x="435.93" y="618.29" width="214.97" height="140.7"/><line class="t" x1="543.48" y1="617.43" x2="543.67" y2="739.3"/><rect class="p" x="119.19" y="167.46" width="842.21" height="354.35"/><rect class="t" x="181.48" y="824.2" width="717.81" height="17.72"/><path class="t" d="m463.41,737.33h153.78c25.5,0,46.21,20.71,46.21,46.21v191.3h-246.19v-191.3c0-25.5,20.71-46.21,46.21-46.21Z"/><path class="t" d="m463.7,769.92h153.66c25.5,0,46.21,20.71,46.21,46.21v159.08h-246.08v-159.08c0-25.5,20.71-46.21,46.21-46.21Z"/><ellipse class="t" cx="250.88" cy="624.09" rx="43.48" ry="16.4"/><path class="t" d="m240.74,554.06h22.28v62.56c0,3.13-2.54,5.67-5.67,5.67h-10.94c-3.13,0-5.67-2.54-5.67-5.67v-62.56h0Z"/><ellipse class="t" cx="251.92" cy="553.41" rx="11.44" ry="8.16"/><ellipse class="t" cx="222.72" cy="606.56" rx="10.9" ry="10.93"/><line class="t" x1="241.53" y1="597.36" x2="263.01" y2="597.36"/><path class="p" d="m678.11,200.38c-12.33,1.74-23.36,5.42-32.08,10.44-7.03-3.3-14.63-5.19-22.62-5.19-16.64,0-31.73,7.93-42.99,20.78-12.73-14.33-35.96-23.97-62.6-23.97-23.13,0-43.71,7.26-57.07,18.55-6.35-3.18-13.66-5.01-21.46-5.01s-14.84,1.75-21.1,4.81"/><path class="p" d="m701.73,324.03c6.13-.34,11.99-.92,17.52-1.72,10.16,15.25,26.39,25.17,44.74,25.17s33.64-9.34,43.85-23.83c2.99.46,6.09.72,9.28.72,2.46,0,4.86-.18,7.21-.46,8.99,10.09,30.29,17.2,55.16,17.2,32.99,0,59.73-12.49,59.73-27.89,0-5.17-3.06-9.99-8.31-14.14,5.63-9.98,8.97-22.13,8.97-35.27,0-33.89-22.01-61.36-49.17-61.36-17.16,0-32.24,10.98-41.04,27.61-9.75-15.82-30.97-26.81-55.65-26.81-16.79,0-32,5.09-43.08,13.32-11.09-9.36-28.88-15.84-49.36-17.09"/><path class="p" d="m418.05,350.81c16.33-4.6,28.54-17.12,30.7-32.35,11.37,4.21,25.28,6.71,40.36,6.71,25.18,0,47.16-6.94,59.3-17.28,5.09,1.22,10.56,2.09,16.32,2.54,9.16,28.66,31.95,49.01,58.69,49.01,22.29,0,41.83-14.15,53.04-35.46.76.04.96.06,1.72.1"/><path class="p" d="m393.77,233.36c-11.32-3.39-25.51-5.42-40.94-5.42-3.65,0-7.21.14-10.71.36-2.93-17.1-22.79-30.34-46.89-30.34-20.15,0-37.31,9.26-44.13,22.28-10.29-3.98-23.3-6.37-37.46-6.37-33.32,0-60.32,13.14-60.32,29.35,0,1.41.27,2.78.67,4.14-14.25,6.26-23.23,15.23-23.23,25.21,0,6.91,4.31,13.32,11.65,18.71-3.73,4.08-5.86,8.74-5.86,13.7,0,15.97,21.98,28.92,49.1,28.92,20.17,0,37.48-7.17,45.04-17.42,7.4,2.94,16.53,4.7,26.44,4.7,3.93,0,7.71-.3,11.34-.81,10.45,9.06,27.37,14.97,46.52,14.97s34.69-5.44,45.21-13.88c3.48,14.88,16.69,26.69,33.61,30.18"/><rect class="p" x="119.27" y="167.47" width="274.69" height="354.33"/><rect class="p" x="417.67" y="167.47" width="260.71" height="354.33"/><rect class="p" x="701.22" y="167.47" width="260.21" height="354.33"/><path class="p" d="m204.6,332.28s5,138.81-44.38,158.23"/><path class="p" d="m285.03,329.67s-13.1,102.68,26.96,143.95"/><path class="p" d="m376.69,345.36s-2.28,136.35-85.19,161.44"/><path class="p" d="m473.84,325.41s-10.93,139.3,43.1,178.15"/><path class="p" d="m534.03,318.14s9.6,66.92-24.87,118.78"/><path class="p" d="m604.87,356.88s-9.17,76.95,32.02,105.81"/><path class="p" d="m735.23,340.19s6.33,73.93-33.53,131.69"/><path class="p" d="m816.42,325.59s7.63,136.65,62.54,173.12"/><path class="p" d="m867.66,341.6s4.04,46.29-19.38,68.74"/><path class="p" d="m914.49,338.79s-2.42,63.83,23.42,88.38"/><ellipse class="t" cx="280.37" cy="889.19" rx="10.61" ry="10.65"/><ellipse class="t" cx="796.75" cy="888.59" rx="10.61" ry="10.65"/><rect class="p" x="181.48" y="841.92" width="206.01" height="98.53"/><rect class="p" x="693.7" y="842.04" width="205.56" height="98.53"/><path class="t" d="m251.92,553.41s-11.13-4.58-12.9-9.24c-1.77-4.66.12-8.94,5.43-16.05,5.31-7.1,3.67-16.87,3.67-16.87,0,0,14.14,19.6,13.03,28.04-1.11,8.44-9.23,14.13-9.23,14.13Z"/><rect class="q" x="40" y="105.65" width="1000" height="868.85"/></g><path class="s" d="m923.22,577.21c46.27-25.15,75.51-62.13,75.51-103.37,0-9.29-1.5-18.35-4.33-27.12,2.68-6.2,4.14-12.76,4.14-19.56,0-7.55-1.8-14.8-5.08-21.59,21.06-9.44,34.99-25.77,34.99-44.35,0-22.65-20.71-41.97-49.82-49.52,18.4-20.04,28.91-43.23,28.91-67.97,0-11.97-2.47-23.57-7.09-34.64,10.49-9.04,16.78-20.5,16.78-32.96,0-29.23-34.46-52.92-76.98-52.92-12.02,0-23.39,1.9-33.53,5.27-34.44-13.87-75.48-21.93-119.55-21.93-55.76,0-106.65,12.91-145.46,34.17-10.3-20.89-39.04-35.93-72.9-35.93-37.53,0-68.78,18.47-75.59,42.91-20.74-5.78-43.5-8.98-67.39-8.98-15.86,0-31.22,1.42-45.82,4.05-35.1-18.17-85.06-29.53-140.51-29.53-106.22,0-192.32,41.66-192.32,93.06,0,14.02,6.42,27.3,17.89,39.23-13.37,16.38-20.96,35.14-20.96,55.08,0,25.5,12.43,49.08,33.47,68.21-15.57,9.68-25.35,23.68-25.35,39.25,0,14.36,8.33,27.38,21.84,36.91-.87,3.18-1.34,6.46-1.34,9.82,0,12.3,6.12,23.62,16.37,32.6-27.04,8.21-45.92,26.8-45.92,48.42,0,16.06,10.42,30.44,26.86,40.15-16.89,9.71-27.64,24.3-27.64,40.62s11.54,31.94,29.47,41.63c-12.6,11.47-20.08,25.75-20.08,41.23s7,28.8,18.84,40.06c-1.86,5.23-2.86,10.68-2.86,16.3,0,20.95,13.69,39.69,35.25,52.25-23.71,12.99-37.22,27.92-37.22,43.8,0,9.61,4.95,18.86,14.1,27.55-7.06,8-11.13,17.39-11.13,27.43,0,29.23,34.46,52.92,76.98,52.92,30.25,0,56.41-12,68.99-29.45,44.78,7.94,96.94,12.5,152.64,12.5,30.73,0,60.38-1.39,88.31-3.97,37.03,17.55,83.24,27.98,133.37,27.98,23.11,0,45.38-2.22,66.3-6.32,26.1,6.78,54.74,10.53,84.79,10.53,121.7,0,220.37-61.42,220.37-137.18,0-16.38-4.65-32.07-13.11-46.63,11.84-11.27,18.83-25.09,18.83-40.05,0-13.73-5.9-26.51-16.02-37.23,38.32-9.54,65.71-34.77,65.71-64.41,0-36.23-40.92-65.87-92.72-68.31Zm-753.72-.79c16.89-9.71,27.64-24.3,27.64-40.62,0-12.3-6.12-23.62-16.37-32.6,4.17-1.27,8.15-2.77,11.89-4.5,5.12,5.45,14.21,9.1,24.6,9.1,13.61,0,25-6.24,28.12-14.64,2.4.15,4.82.24,7.27.24,23.8,0,45.07-7.43,59.19-19.09,3.53,1.96,7.24,3.76,11.14,5.37-1.58,4.23-2.42,8.66-2.42,13.23,0,15.21,9.35,28.91,24.29,38.57-9.85,9.67-16.15,21.16-17.63,33.59-18.88,12.46-30.65,29.98-30.65,49.39,0,34.3,36.68,62.71,84.55,67.71-2.22,3.38-4.07,6.89-5.47,10.53-17.87-11.68-42.02-18.86-68.62-18.86-21.55,0-41.49,4.72-57.79,12.72-6.25-22.58-28.6-41.23-58.55-50.08,3.63-6.15,5.65-12.86,5.65-19.91,0-16.06-10.42-30.44-26.86-40.15Z"/></g></g></svg>