<?xml version="1.0" encoding="UTF-8"?><svg id="a" xmlns="http://www.w3.org/2000/svg" xmlns:xlink="http://www.w3.org/1999/xlink" viewBox="0 0 1296 1728"><defs><style>.g,.h,.i{fill:#fffba3;}.h,.j{stroke-width:0px;}.k{fill:#bfbb80;}.k,.i,.l{stroke:#000;stroke-linecap:round;stroke-linejoin:round;stroke-width:1.5px;}.j{fill:#000;}.l{fill:none;}.m{clip-path:url(#e);}.n{clip-path:url(#f);}.o{clip-path:url(#d);}.p{clip-path:url(#b);}.q{clip-path:url(#c);}</style><clipPath id="b"><path class="i" d="M639.81,591.74c10.01-.98,25.64-3.56,38.19-20.72,38.85-53.16-10.38-88.7-41.13-88.7h0c-30.32,0-57.06,19.86-65.82,48.89h0s-4.93,14.69-16.19,15.66"/></clipPath><clipPath id="c"><path class="i" d="M770.06,715.05l-46.56,11.66-36.77-13.84-11.33-24.37,16.91-31.32s80.38-34.77,110.35,41.73l2.12,5.43"/></clipPath><clipPath id="d"><path class="i" d="M451.82,718.5c36.37-47.71,42.34-72.01,37.8-125.53-2.9-34.12,41.4-35.65,41.4-35.65l118.44,48.58c18.8,9,48.94,19.91,41.12,66.91-3.84,23.05,7.29,38.52,25.54,53.9"/></clipPath><clipPath id="e"><path class="i" d="M394.42,731.9s101.82-153.2,303.44,8.65l-95.74,44.02-105.15-15.6-102.55-37.06Z"/></clipPath><clipPath id="f"><path class="i" d="M583.96,774.9s31.9-29.37,78.88-52.76c72.7-36.2,159.59-28.48,225.09,19.54h0s7.45,42.81,7.45,42.81l-197.52,97.19-105.37-35.69-8.53-71.09Z"/></clipPath></defs><rect class="h" x="-5.79" y="-5.33" width="1307.58" height="1738.66"/><path class="i" d="M98.63,395.35l530.76,185.78-2.85,16.8L82.72,445.94c-14.58-4.07-22.8-19.5-18.05-33.87h0c4.65-14.09,19.95-21.62,33.96-16.72Z"/><path class="k" d="M1298.87,919.77v812.01H-1.86v-812.01c177.84-143.49,404.07-229.4,650.36-229.4,245.86,0,472.67,86.36,650.36,229.4"/><path class="i" d="M879.45,984.99l132.74,3.95c131.76,3.92,240.69-101.82,240.69-233.64v-406.12c0-129.09-104.65-233.74-233.74-233.74h-226.25l-589.76,38.18-109.14,379.25-1.58,116.43"/><path class="i" d="M27.34,752.27v-406.12c0-129.09,104.65-233.74,233.74-233.74h246.27"/><line class="i" x1="234.06" y1="609.34" x2="231" y2="854.45"/><path class="h" d="M648,567.78c-62,0-120.3-24.15-164.14-67.99-43.84-43.84-67.99-102.14-67.99-164.14s24.15-120.3,67.99-164.14c43.84-43.84,102.14-67.99,164.14-67.99s120.3,24.15,164.14,67.99c43.84,43.84,67.99,102.14,67.99,164.14s-24.15,120.3-67.99,164.14c-43.84,43.84-102.14,67.99-164.14,67.99Z"/><path class="j" d="M648,104.27c31.24,0,61.54,6.12,90.06,18.18,27.55,11.65,52.3,28.34,73.55,49.59s37.93,45.99,49.59,73.55c12.06,28.52,18.18,58.83,18.18,90.06s-6.12,61.54-18.18,90.06c-11.65,27.55-28.34,52.3-49.59,73.55-21.25,21.25-45.99,37.93-73.55,49.59-28.52,12.06-58.83,18.18-90.06,18.18s-61.54-6.12-90.06-18.18c-27.55-11.65-52.3-28.34-73.55-49.59-21.25-21.25-37.93-45.99-49.59-73.55-12.06-28.52-18.18-58.83-18.18-90.06s6.12-61.54,18.18-90.06c11.65-27.55,28.34-52.3,49.59-73.55s45.99-37.93,73.55-49.59c28.52-12.06,58.83-18.18,90.06-18.18M648,102.77c-128.62,0-232.88,104.26-232.88,232.88s104.26,232.88,232.88,232.88,232.88-104.26,232.88-232.88-104.26-232.88-232.88-232.88h0Z"/><path class="k" d="M895.38,309.49v22.29h0c0,61.35-92.25,111.09-206.05,111.09h-114.76c-113.8,0-206.05-49.74-206.05-111.09h0s0-22.29,0-22.29"/><path class="k" d="M368.52,309.49c0-146.69,117.94-265.6,263.43-265.6s263.43,118.91,263.43,265.6h0c-173.71,36.63-353.15,36.63-526.86,0h0Z"/><path class="i" d="M584.42,249.91c-1.99.19-8.43.37-10.42.56-3.54.33-7.12.67-10.5,1.79-.17.06-.34.13-.52.21-5.47,2.51-6.28,10.01-1.77,14,5.47,4.84,16.58,7.34,20,8.16"/><path class="i" d="M659.44,287.95c-18.51,5.89-46.8,8.78-65.44,3.33-3.57-1.04-8.31-2.74-10.66-5.62-5.54-6.8-4.71-9.83-5.45-13.47-.47-2.32,1.03-6.67,2.32-8.65l45.92-5.03h18.07l17.65,3.75"/><path class="i" d="M666.85,258.51c-5.73,1.49-27.48,7.36-33.36,8-6.1.67-12.24.88-18.38,1.08-7.35.25-14.69.49-22.04.74-1.49.05-3.39-.09-5.29-.31-5.58-.64-9.72-5.48-9.55-11.1,0-.07,0-.13,0-.2.13-3.79,2.22-7.23,5.53-9.08,5.27-2.93,11.25-4.66,17.16-6.05,8.75-2.05,17.75-3.52,26.7-2.67s18.24,2.77,24.51,9.2"/><path class="i" d="M651.9,247.47c2.04,2.64,16.88,1.22,19.92-.14"/><path class="i" d="M654.88,254.23c5.1,2.48,13.52,1.5,18.58-1.07"/><path class="i" d="M678.78,229.44l-8.22,11.64c-.05.48,1.1,4.54,1.39,5.31,1.26,3.33,1.99,6.48,2.21,10.03.39,6.23-.68,12.18-2.62,18.12-1.94,5.94-6.18,11.42-12.1,13.41-2.01.68-6.81,2.17-6.36.1,1.57-7.24,1.8-15.12-1.18-23.84-1.45-4.24,4.31-8.14,2.58-12.28-.66-1.59-2.16-2.79-2.58-4.46-.29-1.13-.04-2.33.21-3.47.47-2.18.95-4.36,1.42-6.54,1.5-6.91,3.8-14.84,10.84-17,1.45-.44,3-.51,4.49-.27,9.25,1.5,8.82,10.67,13.98,15.39,2.19,2,6.31,3.25,9.51,3.97,2.51.56,4.17,2.96,3.8,5.5h0c-.34,2.37-2.34,4.14-4.73,4.21-.69.02-1.45.03-2.25.01-4.32-.07-8.55-1.3-12.28-3.47l-.09-.05c-.75-.44-5.67-4.03-6.24-4.68"/><polygon class="k" points="471.19 554.51 505.59 564.12 534.48 557.32 479.85 532.87 471.19 554.51"/><path class="i" d="M337.12,403.15l105.98,97.25c17.91,16.44,44.78,18.41,64.9,4.77h0c27.09-18.37,30.94-56.78,8.02-80.15l-143.65-146.47-33.08-16.29"/><path class="i" d="M312.63,257.28l143.65,146.47c22.92,23.37,19.08,61.79-8.02,80.15h0c-20.13,13.64-46.99,11.67-64.9-4.77l-105.98-97.25"/><path class="i" d="M234.06,307.91l150.95-20.61c28.63-3.91,49.08-29.72,46.34-58.49h0c-2.8-29.34-28.65-50.98-58.02-48.58l-126.73,10.37c-24.2,1.66-47.95,7.29-70.33,16.65h0c-55.68,23.3-99.45,68.3-121.2,124.6h0c-7.58,19.63-11.47,40.49-11.47,61.53v218.77s150.26,84.9,150.26,84.9l202.75-70.5-10.61-24.39,29.11-54.85"/><path class="i" d="M15.86,879.83l.59-267.75,398.67,1.08v267.11c0,109.21-87.76,198.15-196.96,199.61h0c-111.46,1.49-202.54-88.59-202.3-200.06Z"/><line class="i" x1="628.15" y1="588.38" x2="628.15" y2="588.38"/><ellipse class="i" cx="636.88" cy="718.83" rx="303.76" ry="96.72"/><path class="k" d="M895.38,824.29l37.6-36.97,5.57-57.89c-17.72-36.46-146.02-64.74-301.67-64.74s-283.66,28.55-301.84,64.89l.91,2.41c.17.45.36.9.56,1.33h0c.19.4.39.79.6,1.17l1.13,2.02,1.12,1.87c.26.43.54.85.83,1.26l1.08,1.51c.29.4.59.79.9,1.16l2.72,3.23c.33.39.68.77,1.04,1.13l1.97,1.99,2.48,2.36c.31.29.62.57.95.84l2.9,2.41,4.45,3.38c.39.3.79.57,1.2.84l10.39,6.68c.48.31.97.59,1.47.85l12.23,6.37c.47.24.95.47,1.44.67l21.56,8.98"/><line class="i" x1="946.9" y1="577.84" x2="1104.03" y2="577.84"/><path class="g" d="M639.81,591.74c10.01-.98,25.64-3.56,38.19-20.72,38.85-53.16-10.38-88.7-41.13-88.7h0c-30.32,0-57.06,19.86-65.82,48.89h0s-4.93,14.69-16.19,15.66"/><g class="p"><path class="i" d="M642.48,474.47c-1.51,12.2-12.79,20.33-22.25,28.17-25.79,21.36-44.33,51.32-51.93,83.94"/><path class="i" d="M661.83,484.93c-9.59,19.79-29.05,32.62-43.31,49.36-12.69,14.89-21.34,33.19-24.79,52.45"/><path class="i" d="M678.68,494.01c-4.41,16.74-20.67,27.02-32.03,40.1-13.36,15.37-20.2,35.28-25.31,55"/><path class="i" d="M695.67,518.47c-12.06,5.61-22.45,14.75-29.54,26-3.93,6.24-6.85,13.06-9.74,19.85-5.99,14.04-11.99,28.09-17.98,42.13"/></g><path class="l" d="M639.81,591.74c10.01-.98,25.64-3.56,38.19-20.72,38.85-53.16-10.38-88.7-41.13-88.7h0c-30.32,0-57.06,19.86-65.82,48.89h0s-4.93,14.69-16.19,15.66"/><path class="g" d="M770.06,715.05l-46.56,11.66-36.77-13.84-11.33-24.37,16.91-31.32s80.38-34.77,110.35,41.73l2.12,5.43"/><g class="q"><path class="i" d="M681.36,669.68c8.63-3.53,20.46-6.26,28.57-8.19,33.75-8.03,68.35,2.57,88.88,41.88"/><path class="i" d="M679.21,678.36c20.16-10.92,45.08-12.63,66.54-4.58,21.46,8.05,42.92,22.22,50.92,43.7"/><path class="i" d="M671.71,689.89c19.15-8.44,41.12-10.41,61.41-5.28,20.29,5.13,38.74,17.38,51.16,34.23"/><path class="i" d="M672.49,701.27c16.61-8.67,36.57-9.93,54.69-5.15s34.42,15.29,47.65,28.55"/><path class="i" d="M674.57,718.04c.69-1.91,2.73-2.92,4.62-3.66,24.14-9.51,53.53-3.87,72.45,13.88"/></g><path class="l" d="M770.06,715.05l-46.56,11.66-36.77-13.84-11.33-24.37,16.91-31.32s80.38-34.77,110.35,41.73l2.12,5.43"/><path class="g" d="M451.82,718.5c36.37-47.71,42.34-72.01,37.8-125.53-2.9-34.12,41.4-35.65,41.4-35.65l118.44,48.58c18.8,9,48.94,19.91,41.12,66.91-3.84,23.05,7.29,38.52,25.54,53.9"/><g class="o"><path class="i" d="M556.26,567.65c-16.52-2.22-33.93,7.65-40.52,22.97-3.82,8.88-4.16,18.81-4.44,28.47-.9,30.82-2.7,64.26-22.68,87.74"/><path class="i" d="M582.87,578.08c-8.56-2.75-18-3.32-26.51-.4s-15.91,9.57-18.63,18.14c-1.05,3.32-1.4,6.82-1.45,10.3-.14,9.88,2.05,19.62,3.24,29.42s1.3,20.12-2.75,29.13c-4.05,9.01-13.18,16.32-23.03,15.59"/><path class="i" d="M599.63,586.59c-8.34-.79-17.49,4.96-21.61,12.25-7.19,12.71-.34,28.41.23,43,.83,21.4-14.14,42.42-34.63,48.63"/><path class="i" d="M623.1,591.49c-11.15,4.82-17.51,17.04-19.27,29.05-1.75,12.01.21,24.21,1.02,36.33s.3,24.91-5.8,35.4c-2.82,4.85-7,9.18-12.35,10.87"/><path class="i" d="M639.79,601.79c-3.82,3.16-4.99,8.62-4.54,13.56s2.22,9.66,3.26,14.51c2.45,11.42.75,23.33-2.05,34.66-4.43,17.95-12.01,35.78-25.6,48.32"/><path class="i" d="M650.69,600.88c7.44,4.41,23.84,47.85,13.09,79.96-9.06,27.05,16.4,49.83,27.25,54.1"/></g><path class="l" d="M451.82,718.5c36.37-47.71,42.34-72.01,37.8-125.53-2.9-34.12,41.4-35.65,41.4-35.65l118.44,48.58c18.8,9,48.94,19.91,41.12,66.91-3.84,23.05,7.29,38.52,25.54,53.9"/><path class="k" d="M163.54,342.94l495.46,250.03c3.8,1.92,5.66,6.29,4.4,10.35h0c-1.52,4.94-6.99,7.48-11.75,5.45l-510.47-217.75c-13.92-5.94-20.06-22.3-13.48-35.93h0c6.45-13.36,22.6-18.84,35.85-12.15Z"/><path class="h" d="M250.73,250.46l143.65,146.47c22.92,23.37,19.08,61.79-8.02,80.15h0c-20.13,13.64-46.99,11.67-64.9-4.77l-113.84-107.12"/><path class="k" d="M320.36,512.39l-237.64-66.45c-14.58-4.07-22.8-19.5-18.05-33.87h0c4.65-14.09,19.95-21.62,33.96-16.72l262.94,92.03"/><path class="i" d="M297.28,526.69l93.06-56.21c20.73-12.41,46.89-11.13,66.31,3.24h0c32.93,24.38,32.16,73.9-1.52,97.23l-66.17,42.14"/><path class="g" d="M394.42,731.9s101.82-153.2,303.44,8.65l-95.74,44.02-105.15-15.6-102.55-37.06Z"/><g class="m"><path class="i" d="M394.42,747.31s101.82-153.2,303.44,8.65"/><path class="i" d="M394.42,766.55s101.82-153.2,303.44,8.65"/><path class="i" d="M394.42,784.86s101.82-153.2,303.44,8.65"/><path class="i" d="M394.42,806.99s101.82-153.2,303.44,8.65"/></g><path class="l" d="M394.42,731.9s101.82-153.2,303.44,8.65l-95.74,44.02-105.15-15.6-102.55-37.06Z"/><path class="g" d="M583.96,774.9s31.9-29.37,78.88-52.76c72.7-36.2,159.59-28.48,225.09,19.54h0s7.45,42.81,7.45,42.81l-197.52,97.19-105.37-35.69-8.53-71.09Z"/><g class="n"><line class="i" x1="848.34" y1="735.08" x2="900.34" y2="765.76"/><path class="i" d="M584.27,800.3s133.92-133.8,264.07-65.23"/><line class="i" x1="848.34" y1="759.54" x2="900.34" y2="790.22"/><path class="i" d="M584.27,824.77s133.92-133.8,264.07-65.23"/><line class="i" x1="851.18" y1="781.09" x2="903.17" y2="811.77"/><path class="i" d="M587.1,846.32s133.92-133.8,264.07-65.23"/><line class="i" x1="851.18" y1="805.56" x2="903.17" y2="836.24"/><path class="i" d="M587.1,870.78s133.92-133.8,264.07-65.23"/><line class="i" x1="845.71" y1="828.47" x2="897.71" y2="859.15"/><path class="i" d="M581.64,893.7s133.92-133.8,264.07-65.23"/><line class="i" x1="845.71" y1="852.93" x2="897.71" y2="883.61"/><path class="i" d="M581.64,918.16s133.92-133.8,264.07-65.23"/></g><path class="l" d="M583.96,774.9s31.9-29.37,78.88-52.76c72.7-36.2,159.59-28.48,225.09,19.54h0s7.45,42.81,7.45,42.81l-197.52,97.19-105.37-35.69-8.53-71.09Z"/><path class="k" d="M312.96,464.31l-171.78-73.28c-13.92-5.94-20.06-22.3-13.48-35.93h0c6.45-13.36,22.6-18.84,35.85-12.15l44.09,22.25"/><path class="k" d="M703.71,819.36l-10.5.99c-2.16.2-3.99,1.68-4.65,3.74l-3.22,10.05c-1.06,3.31-4.93,4.78-7.92,3.01l-9.08-5.37c-1.87-1.11-4.22-.99-5.97.29l-8.5,6.24c-2.81,2.06-6.8.98-8.18-2.22l-4.18-9.68c-.86-1.99-2.83-3.28-5-3.27l-10.54.05c-3.48.02-6.08-3.21-5.32-6.61l2.31-10.28c.48-2.12-.36-4.32-2.12-5.59l-8.56-6.16c-2.82-2.03-3.03-6.16-.42-8.46l7.91-6.98c1.63-1.43,2.24-3.7,1.56-5.76l-3.3-10.02c-1.09-3.3,1.17-6.76,4.64-7.09l10.5-.99c2.16-.2,3.99-1.68,4.65-3.74l3.22-10.05c1.06-3.31,4.93-4.78,7.92-3.01l9.08,5.37c1.87,1.11,4.22.99,5.97-.29l8.5-6.24c2.81-2.06,6.8-.98,8.18,2.22l4.18,9.68c.86,1.99,2.83,3.28,5,3.27l10.54-.05c3.48-.02,6.08,3.21,5.32,6.61l-2.31,10.28c-.48,2.12.36,4.32,2.12,5.59l8.56,6.16c2.82,2.03,3.03,6.16.42,8.46l-7.91,6.98c-1.63,1.43-2.24,3.7-1.56,5.76l3.3,10.02c1.09,3.3-1.17,6.76-4.64,7.09Z"/><path class="k" d="M703.71,819.36l-10.5.99c-2.16.2-3.99,1.68-4.65,3.74l-3.22,10.05c-1.06,3.31-4.93,4.78-7.92,3.01l-9.08-5.37c-1.87-1.11-4.22-.99-5.97.29l-8.5,6.24c-2.81,2.06-6.8.98-8.18-2.22l-4.18-9.68c-.86-1.99-2.83-3.28-5-3.27l-10.54.05c-3.48.02-6.08-3.21-5.32-6.61l2.31-10.28c.48-2.12-.36-4.32-2.12-5.59l-8.56-6.16c-2.82-2.03-3.03-6.16-.42-8.46l7.91-6.98c1.63-1.43,2.24-3.7,1.56-5.76l-3.3-10.02c-1.09-3.3,1.17-6.76,4.64-7.09l10.5-.99c2.16-.2,3.99-1.68,4.65-3.74l3.22-10.05c1.06-3.31,4.93-4.78,7.92-3.01l9.08,5.37c1.87,1.11,4.22.99,5.97-.29l8.5-6.24c2.81-2.06,6.8-.98,8.18,2.22l4.18,9.68c.86,1.99,2.83,3.28,5,3.27l10.54-.05c3.48-.02,6.08,3.21,5.32,6.61l-2.31,10.28c-.48,2.12.36,4.32,2.12,5.59l8.56,6.16c2.82,2.03,3.03,6.16.42,8.46l-7.91,6.98c-1.63,1.43-2.24,3.7-1.56,5.76l3.3,10.02c1.09,3.3-1.17,6.76-4.64,7.09Z"/><path class="k" d="M691.49,778.02c-2.77-8.72-11.15-14.63-19.88-17.36-3.23-1.01-6.62-1.67-9.98-1.33-8.63.87-15.26,8.07-19.63,15.56-2.68,4.6-4.91,9.83-4.14,15.1.4,2.72,1.58,5.27,2.96,7.64,4.9,8.43,12.94,15.39,22.5,17.29,9.56,1.9,20.48-2.11,25.17-10.66.81-1.47,1.43-3.04,1.74-4.69,1.25-6.47-2.35-12.92-6.7-17.87-2.82-3.21-6.32-6.24-10.56-6.74-5.6-.66-11.13,3.82-12.23,9.35-1.09,5.53,1.92,11.46,6.74,14.38"/><ellipse class="i" cx="439.24" cy="721.87" rx="66.93" ry="108.18" transform="translate(-394.32 583.27) rotate(-49.24)"/><ellipse class="k" cx="450.24" cy="731.35" rx="46.72" ry="43.05"/><ellipse class="i" cx="516.05" cy="743.69" rx="66.93" ry="108.18" transform="translate(-333 429.86) rotate(-34.96)"/><circle class="k" cx="526.33" cy="758.39" r="43.72"/><path class="k" d="M697.11,807.23l.4-10.54c.08-2.17-1.14-4.17-3.1-5.1l-9.53-4.52c-3.14-1.49-4.09-5.52-1.94-8.25l6.52-8.29c1.34-1.71,1.54-4.05.49-5.96l-5.06-9.24c-1.67-3.05-.07-6.87,3.28-7.82l10.15-2.87c2.09-.59,3.63-2.37,3.9-4.53l1.34-10.46c.44-3.45,3.98-5.6,7.25-4.4l9.89,3.64c2.04.75,4.33.21,5.82-1.37l7.24-7.68c2.39-2.53,6.51-2.19,8.45.7l5.87,8.76c1.21,1.8,3.37,2.71,5.5,2.31l10.37-1.95c3.42-.64,6.55,2.06,6.42,5.53l-.4,10.54c-.08,2.17,1.14,4.17,3.1,5.1l9.53,4.52c3.14,1.49,4.09,5.52,1.94,8.25l-6.52,8.29c-1.34,1.71-1.54,4.05-.49,5.96l5.06,9.24c1.67,3.05.07,6.87-3.28,7.82l-10.15,2.87c-2.09.59-3.63,2.37-3.9,4.53l-1.34,10.46c-.44,3.45-3.98,5.6-7.25,4.4l-9.89-3.64c-2.04-.75-4.33-.21-5.82,1.37l-7.24,7.68c-2.39,2.53-6.51,2.19-8.45-.7l-5.87-8.76c-1.21-1.8-3.37-2.71-5.5-2.31l-10.37,1.95c-3.42.64-6.55-2.06-6.42-5.53Z"/><path class="k" d="M697.11,807.23l.4-10.54c.08-2.17-1.14-4.17-3.1-5.1l-9.53-4.52c-3.14-1.49-4.09-5.52-1.94-8.25l6.52-8.29c1.34-1.71,1.54-4.05.49-5.96l-5.06-9.24c-1.67-3.05-.07-6.87,3.28-7.82l10.15-2.87c2.09-.59,3.63-2.37,3.9-4.53l1.34-10.46c.44-3.45,3.98-5.6,7.25-4.4l9.89,3.64c2.04.75,4.33.21,5.82-1.37l7.24-7.68c2.39-2.53,6.51-2.19,8.45.7l5.87,8.76c1.21,1.8,3.37,2.71,5.5,2.31l10.37-1.95c3.42-.64,6.55,2.06,6.42,5.53l-.4,10.54c-.08,2.17,1.14,4.17,3.1,5.1l9.53,4.52c3.14,1.49,4.09,5.52,1.94,8.25l-6.52,8.29c-1.34,1.71-1.54,4.05-.49,5.96l5.06,9.24c1.67,3.05.07,6.87-3.28,7.82l-10.15,2.87c-2.09.59-3.63,2.37-3.9,4.53l-1.34,10.46c-.44,3.45-3.98,5.6-7.25,4.4l-9.89-3.64c-2.04-.75-4.33-.21-5.82,1.37l-7.24,7.68c-2.39,2.53-6.51,2.19-8.45-.7l-5.87-8.76c-1.21-1.8-3.37-2.71-5.5-2.31l-10.37,1.95c-3.42.64-6.55-2.06-6.42-5.53Z"/><path class="k" d="M739.7,800.57c9.01-1.6,15.97-9.12,19.83-17.42,1.42-3.07,2.53-6.34,2.64-9.72.27-8.67-5.99-16.19-12.84-21.51-4.2-3.26-9.1-6.16-14.42-6.09-2.75.04-5.43.87-7.97,1.93-9,3.75-16.96,10.79-20.11,20.02s-.61,20.58,7.25,26.35c1.35.99,2.83,1.82,4.41,2.35,6.25,2.09,13.12-.63,18.6-4.29,3.55-2.37,7.02-5.44,8.07-9.58,1.39-5.47-2.31-11.54-7.65-13.35-5.34-1.81-11.61.39-15.15,4.79"/><path class="i" d="M636.95,815.55c-167.76,0-303.76-43.3-303.76-96.72v.14c0,167.76,136,303.76,303.76,303.76h0c167.76,0,303.76-136,303.76-303.76v-.14c0,53.42-136,96.72-303.76,96.72Z"/><path class="i" d="M811.8,1001.68l-11.54,4.16c-62.53,22.57-128.98,32.27-195.36,28.51l-30.63-1.74c-31.5-1.79-54.88-29.89-50.9-61.19h0c3.58-28.13,28.16-48.8,56.49-47.5l9.72.45c80.84,3.72,161.36-12.5,234.45-47.25l3.84-1.82"/><path class="i" d="M890.99,980.83l-11.54,4.16c-62.53,22.57-128.98,32.27-195.36,28.51l-30.63-1.74c-31.5-1.79-54.88-29.89-50.9-61.19h0c3.58-28.13,28.16-48.8,56.49-47.5l9.72.45c80.84,3.72,161.36-12.5,234.45-47.25l3.84-1.82"/><path class="i" d="M867.14,948.24c-38.15,12.39-77.77,20.12-117.98,22.93l-30.6,2.14c-31.47,2.2-58.21-22.74-58.21-54.28h0c0-28.36,21.78-51.96,50.05-54.24l9.7-.78"/><path class="i" d="M890.99,980.83h0c72.02-20.74,123.07-84.72,127.31-159.54l4.21-74.47c1.31-23.1-1.37-46.25-7.92-68.44h0c-17.56-59.48-61.52-107.56-119.19-130.36l-26.75-10.58c-37.87-15.63-79.89,10.59-82.5,51.48h0c-1.54,24.11,11.58,46.78,33.26,57.46l40.88,20.14c19.78,9.75,32.34,29.85,32.42,51.9h0c.09,26.16-17.3,49.16-42.49,56.17-34.22,9.52-71.44,16.5-103.72,19.1l-9.7.78c-28.27,2.28-50.05,25.88-50.05,54.24h0c0,31.55,26.74,56.48,58.21,54.28l30.6-2.14c39.41-2.76,78.26-10.23,115.71-22.2"/><path class="i" d="M1279.01,1060.13v.14c0,167.76-136,303.76-303.76,303.76h0c-167.76,0-303.76-136-303.76-303.76v-.14"/><ellipse class="g" cx="975.25" cy="1060.13" rx="303.76" ry="96.72"/><ellipse class="l" cx="975.25" cy="1060.13" rx="303.76" ry="96.72"/><path class="l" d="M855.55,1148.44c23.56-20.89,70.61-35.14,124.81-35.14s99.24,13.65,123.27,33.81"/><path class="k" d="M680.02,1022.09l581.05-8.34c4.45-.06,8.3,3.09,9.11,7.47h0c.98,5.33-2.86,10.34-8.26,10.76l-579.32,45.58c-15.8,1.24-29.44-10.96-29.94-26.8h0c-.5-15.53,11.83-28.45,27.37-28.67Z"/><path class="k" d="M698.28,1110.74l563.34-122.83c4.32-.94,8.81,1.42,10.64,5.59h0c2.22,5.08-.33,10.79-5.48,12.28l-552.8,159.33c-15.08,4.35-31.24-5.04-35.5-20.62h0c-4.17-15.27,4.76-30.48,19.82-33.76Z"/><path class="i" d="M630.51,1101.61v.14c0,162.04-131.36,293.39-293.39,293.39h0c-162.04,0-293.39-131.36-293.39-293.39v-.14"/><ellipse class="i" cx="337.12" cy="1101.61" rx="293.4" ry="93.42"/><path class="k" d="M574.29,1156.32c-9.36-33.45-106.19-63.68-237.18-63.68s-237.18,28.6-237.18,63.33c0,.72,2.76,1.71,2.76,1.71,53.53,22.68,138.71,37.35,234.67,37.35s181.15-14.67,234.68-37.35c0,0,2.31-1.1,2.24-1.36Z"/><path class="l" d="M238.6,1163.72c-13.44-.48-24.63-28.48-21.39-53.56,3.42-26.55,19.63-47.29,16.03-73.74-2.03-14.87-9.66-23.72-15.51-34.22-17.07-30.64-19.54-86.69-5.4-122.42,6.45-16.29,17.03-28.71,27.45-24.52,6.05,2.43,11.18,10.01,15.6,18.3,9.8,18.36,17.26,41.29,21.56,66.26,1.38,8.04,2.44,16.79,1.17,24.89-1.03,6.54-3.51,11.95-6.4,15.92-6.69,9.18-15.91,11.06-23.46,4.78s-13.13-20.51-14.22-36.17c-.88-12.71,1.9-27.59,8.2-31.82"/><path class="l" d="M339.91,1163.72c-13.44-.48-24.63-28.48-21.39-53.56,3.42-26.55,19.63-47.29,16.03-73.74-2.03-14.87-9.66-23.72-15.51-34.22-17.07-30.64-19.54-86.69-5.4-122.42,6.45-16.29,17.03-28.71,27.45-24.52,6.05,2.43,11.18,10.01,15.6,18.3,9.8,18.36,17.26,41.29,21.56,66.26,1.38,8.04,2.44,16.79,1.17,24.89-1.03,6.54-3.51,11.95-6.4,15.92-6.69,9.18-15.91,11.06-23.46,4.78-7.54-6.29-13.13-20.51-14.22-36.17-.88-12.71,1.9-27.59,8.2-31.82"/><path class="l" d="M445.75,1163.72c-13.44-.48-24.63-28.48-21.39-53.56,3.42-26.55,19.63-47.29,16.03-73.74-2.03-14.87-9.66-23.72-15.51-34.22-17.07-30.64-19.54-86.69-5.4-122.42,6.45-16.29,17.03-28.71,27.45-24.52,6.05,2.43,11.18,10.01,15.6,18.3,9.8,18.36,17.26,41.29,21.56,66.26,1.38,8.04,2.44,16.79,1.17,24.89-1.03,6.54-3.51,11.95-6.4,15.92-6.69,9.18-15.91,11.06-23.46,4.78-7.54-6.29-13.13-20.51-14.22-36.17-.88-12.71,1.9-27.59,8.2-31.82"/><path class="i" d="M225.52,1015.18c-2.55-4.42-5.33-8.55-7.8-12.98-17.07-30.64-19.54-86.69-5.4-122.42,6.45-16.29,17.03-28.71,27.45-24.52,6.05,2.43,11.18,10.01,15.6,18.3,9.8,18.36,17.26,41.29,21.56,66.26,1.38,8.04,2.44,16.79,1.17,24.89-1.03,6.54-3.51,11.95-6.4,15.92-6.69,9.18-15.91,11.06-23.46,4.78s-13.13-20.51-14.22-36.17c-.88-12.71,1.9-27.59,8.2-31.82"/><path class="i" d="M322.66,1008.3c-1.24-2.01-2.47-4.02-3.62-6.09-17.07-30.64-19.54-86.69-5.4-122.42,6.45-16.29,17.03-28.71,27.45-24.52,6.05,2.43,11.18,10.01,15.6,18.3,9.8,18.36,17.26,41.29,21.56,66.26,1.38,8.04,2.44,16.79,1.17,24.89-1.03,6.54-3.51,11.95-6.4,15.92-6.69,9.18-15.91,11.06-23.46,4.78-7.54-6.29-13.13-20.51-14.22-36.17-.88-12.71,1.9-27.59,8.2-31.82"/><path class="i" d="M449.38,917.43c-6.3,4.23-9.08,19.11-8.2,31.82,1.08,15.66,6.67,29.88,14.22,36.17,7.54,6.29,16.77,4.41,23.46-4.78,2.89-3.97,5.37-9.39,6.4-15.92,1.28-8.1.22-16.85-1.17-24.89-4.3-24.97-11.76-47.9-21.56-66.26-4.42-8.29-9.55-15.87-15.6-18.3-10.43-4.18-21.01,8.23-27.45,24.52-4.78,12.08-7.66,26.49-8.72,41.45"/><path class="i" d="M665.32,1372.48v.14c0,167.76-136,303.76-303.76,303.76h0c-167.76,0-303.76-136-303.76-303.76v-.14"/><ellipse class="i" cx="361.57" cy="1372.48" rx="303.76" ry="96.72"/><path class="i" d="M242.88,1461.34c23.56-20.89,70.61-35.14,124.81-35.14s99.24,13.65,123.27,33.81"/><path class="k" d="M477.57,1460.1c-4.73,10.19,28.6,14.53,19.26,23.29-5.41,5.08-5.93,13.6-3.13,20.37,4.46,10.8,28.2,12.17,35.29,9.06,19.46-8.54,13.58-34.19,20.57-34.46,5.14-.19,9.9,2.51,14.98,3.3,9.95,1.54,19.89-4.74,25-13.15,5.11-8.42,6.24-18.53,6.29-28.3s17.4,4.68,18.89-4.98c.1-.66.82-8.48-3.75-10.54-8.89-4.01-37.6,10.66-64.49,16.74-22.88,5.18-62.25,4.3-68.92,18.66Z"/><path class="k" d="M111.57,1315.91l9.02,15.6c1.12,1.94,2.76,3.53,4.73,4.6l2.68,1.45c4.11,2.22,6.58,6.61,6.34,11.28l-.13,2.58c-.25,4.88,2.46,9.43,6.87,11.55h0c5.36,2.57,8.06,8.64,6.39,14.34h0c-1.67,5.72-.89,11.88,2.15,17.01l2.02,3.39c1.61,2.71,5.03,3.73,7.86,2.36l.8-.39c4.72-2.29,9.2-5.03,13.61-7.88,5.18-3.35,11.37-4.91,17.62-4.32h0c8.56.81,17-2.41,22.85-8.72l.07-.08c6.49-7,16.14-10.15,25.51-8.33l3.69.72c3.4.66,6.32-2.46,5.43-5.81l-.62-5.8c-.98-9.18-5.09-17.73-11.65-24.23h0c-4.59-4.55-8.04-10.12-9.98-16.28-2.44-7.74-6.75-18.45-12.85-22.66h0c-12.74-8.78-28.1-12.92-43.53-11.74l-28.71,2.21c-7.94.61-15.58,2.6-22.63,5.79-16.83,7.6-29.42,22.3-35.11,39.87h0"/><path class="k" d="M431.52,1399.45l-5.38,14.45c-3.38,9.07-8.05,17.6-13.88,25.33l-2.47,3.27c-3.9,5.17-10.59,7.4-16.81,5.59l-33.6-9.77c-4.86-1.41-6.6-7.41-3.25-11.2h0c9.03-10.21,15.88-22.16,20.14-35.11l.38-1.15c-1.46.31-7.55.93-10.22,1.14-31.11,2.5-48.45-21.78-32.9-42.38,16.1-21.33,53.47-30.36,85.98-27.83,49.54,3.86,75.59,26.89,78.3,53.59,1.84,18.12-15.49,32.75-33.65,34.18-12.7,1-26.05-1.65-32.64-10.12Z"/><path class="i" d="M382.12,1379.2l-4.88-.82c-4.5-.75-9.65-.38-14.92,1.08h0c-3.83,1.06-6.31-1.2-4.66-4.24h0c4.07-7.54,12.71-14.08,22.19-16.82l15.76-4.55-13.49,25.36Z"/><path class="i" d="M432.9,1386.73l8.55.92c4.73.32,10.97,4.3,10.97,4.3,4.03,2.22,7.4.35,8.59-3.17h0c2.93-8.72.39-17.56-6.53-22.73l-11.5-8.59-10.07,29.26Z"/><path class="i" d="M1253.72,1405.86v.14c0,167.76-136,303.76-303.76,303.76h0c-167.76,0-303.76-136-303.76-303.76v-.14"/><ellipse class="i" cx="949.97" cy="1405.86" rx="303.76" ry="96.72"/><path class="i" d="M832.86,1496.48c23.56-20.89,70.61-35.14,124.81-35.14s99.24,13.65,123.27,33.81"/><path class="i" d="M1000.78,1442.82c-5.06,60.58-52.27,83.37-105.32,81.27h0c-5.83-.23-12.1-1.24-18.49-2.74-39.42-9.29-72.95-34.98-93.4-69.93-4.64-7.93-16.77-41.18-18.69-47.34"/><path class="i" d="M943.21,1401.56c-29-6.52-56.52-18.59-80.28-36.44-7.62-5.72-14.54-11.65-19.42-17.26-19.37-22.27-33.79-48.37-46.92-74.81-7.6-15.3-14.94-30.98-25.96-44.04-26.28-31.15-73.4-42.64-111.06-27.08-9.9,4.09-19.35,10.06-25.53,18.81-6.18,8.75-8.6,20.63-4.3,30.44,7.92,18.06,31.71,20.6,50.8,25.55,22.84,5.92,44.09,19.39,57.15,39.04,15,22.57,18.09,50.65,23.98,77.1,4.95,22.23,29.08,89.39,133.29,96.31,58.32,3.87,105.83-20.75,105.83-46.35,0-17.98-23.39-33.57-57.57-41.26Z"/><path class="i" d="M949.97,1502.57c-167.76,0-303.76-43.3-303.76-96.72v.14c0,167.76,136,303.76,303.76,303.76h0c167.76,0,303.76-136,303.76-303.76v-.14c0,53.42-136,96.72-303.76,96.72Z"/><path class="k" d="M1122.79,1470.62c-6.21,1.24-8.44,5.33-4.99,8.4,2.97,2.66,3.18,6.47,3.01,11.1-.29,7.94-7.03,15.36-10.22,23.12-11.88,28.88,23.48,28.6,23.29,50.21-.07,8.48-25.81,16.88-13.3,44,2.45,5.31,1.27,11.05-3.94,15.77-5.19,4.7-4.6,8.85-.27,13.72,2.37,2.67,11.37,6.2,6.56,11.43-6.99,7.6-22.47,10.34-18.94,32.86.46,2.91,3.54,9.91,6.62,12.28,8.53,6.53,27.75,3.15,27.3-4.98-.04-.78-.29-1.49-.82-2.1-3.68-4.24-10.29-7.76-11.75-12.41-1.84-5.88,5.01-11.45,10.95-16.5,6.94-5.9,13.28-13.58,3.68-19.42-3.81-2.32-6.19-5.29-6.01-8.46.21-3.82,2.21-6.77,6-9.86,4.68-3.82,5.65-8.95,2.48-13.16-1.82-2.42-4.88-4.51-6.55-6.97-3.56-5.24-.23-11.23,4.62-16.22,4.85-4.99,11.27-9.59,14.51-14.96,6.02-9.99-.03-21.02-10.08-29.79-5.32-4.65-11.96-9.21-12.84-14.74-.88-5.5,4.15-10.74,8.64-15.72,8.41-9.32,15.59-19.7,12.2-29.85-.12-.36-.29-.72-.42-1.08-3.52-9.67-17.93-9.03-29.74-6.67Z"/><path class="k" d="M1182.76,1466.82c.04,4.5-.34,15.53-.68,25.79-.3,9.14,1.07,18.24,4.04,26.8l5.12,14.74c2.39,6.88,9.63,10.16,15.83,7.17h0c5.97-2.88,8.63-10.48,5.94-16.94l-3.35-8.01c-3.87-9.27-5.81-19.36-5.66-29.54l.38-27.32c-.03-2-1.28-4.04-3.08-5.67-2.1-1.9-4.74-2.93-7.47-3.16-7.61-.65-29.17-.59-27.34,21.07"/><path class="i" d="M207.63,365.19l113.84,107.12c17.91,16.44,44.78,18.41,64.9,4.77h0c27.09-18.37,30.94-56.78,8.02-80.15l-95.93-97.81"/><line class="i" x1="234.06" y1="307.91" x2="298.45" y2="299.12"/></svg>