<?xml version="1.0" encoding="UTF-8"?><svg id="uuid-21aeb839-e7aa-4aa0-a000-4cb196251f04" xmlns="http://www.w3.org/2000/svg" viewBox="0 0 1080 1080"><defs><style>.uuid-36937f44-ebf3-46c2-bdfa-0fb020443a2f{fill:#fffaa5;stroke-miterlimit:10;}.uuid-36937f44-ebf3-46c2-bdfa-0fb020443a2f,.uuid-f701ef9b-fe85-4d56-9e03-e6cefe858d92,.uuid-91ca8242-ee95-48d3-b7f7-9e176930073f{stroke:#000;stroke-width:2px;}.uuid-f701ef9b-fe85-4d56-9e03-e6cefe858d92{fill:#edd6d4;}.uuid-f701ef9b-fe85-4d56-9e03-e6cefe858d92,.uuid-91ca8242-ee95-48d3-b7f7-9e176930073f{stroke-linecap:round;stroke-linejoin:round;}</style></defs><rect class="uuid-36937f44-ebf3-46c2-bdfa-0fb020443a2f" x="-3.58" y="-3.74" width="1087.15" height="1087.47"/><g><polygon class="uuid-f701ef9b-fe85-4d56-9e03-e6cefe858d92" points="271.53 1014.16 233.28 1013.23 222.35 1014.61 223.7 1024.09 231.6 1032.02 274.31 1032.28 271.53 1014.16"/><polygon class="uuid-f701ef9b-fe85-4d56-9e03-e6cefe858d92" points="135.26 896.84 152.22 929.19 137.06 942.42 125.33 935.2 118.74 931.04 103.67 895.49 135.26 896.84"/><path class="uuid-f701ef9b-fe85-4d56-9e03-e6cefe858d92" d="m81.26,521.52s52.62-35.34,56.21-90.35l12.95,29.63-1.76,19.02-11.25,4.76c-5.98,22.12-29.59,36.75-29.59,36.75l-17.27,17.66-9.28-17.47Z"/><rect class="uuid-f701ef9b-fe85-4d56-9e03-e6cefe858d92" x="137.39" y="75.69" width="875.56" height="892.78" rx="129" ry="129"/><polygon class="uuid-f701ef9b-fe85-4d56-9e03-e6cefe858d92" points="295.63 840.35 281.93 886.86 313.75 887.35 325.99 846.22 295.63 840.35"/><rect class="uuid-f701ef9b-fe85-4d56-9e03-e6cefe858d92" x="214.9" y="138.85" width="192.34" height="717.67" rx="63.18" ry="63.18"/><rect class="uuid-36937f44-ebf3-46c2-bdfa-0fb020443a2f" x="507.54" y="210.35" width="170.78" height="170.78"/><rect class="uuid-36937f44-ebf3-46c2-bdfa-0fb020443a2f" x="717.4" y="212.3" width="170.78" height="170.78"/><rect class="uuid-36937f44-ebf3-46c2-bdfa-0fb020443a2f" x="509.42" y="413.61" width="170.78" height="170.78"/><rect class="uuid-36937f44-ebf3-46c2-bdfa-0fb020443a2f" x="717.77" y="412.37" width="170.78" height="170.78"/><rect class="uuid-f701ef9b-fe85-4d56-9e03-e6cefe858d92" x="611.09" y="681.84" width="288.58" height="22.37" rx="11.18" ry="11.18"/><rect class="uuid-f701ef9b-fe85-4d56-9e03-e6cefe858d92" x="611.09" y="716.72" width="288.58" height="22.37" rx="11.18" ry="11.18"/><rect class="uuid-f701ef9b-fe85-4d56-9e03-e6cefe858d92" x="611.09" y="751.61" width="288.58" height="22.37" rx="11.18" ry="11.18"/><rect class="uuid-f701ef9b-fe85-4d56-9e03-e6cefe858d92" x="611.09" y="786.49" width="288.58" height="22.37" rx="11.18" ry="11.18"/><circle class="uuid-f701ef9b-fe85-4d56-9e03-e6cefe858d92" cx="548.24" cy="710.77" r="28.74"/><rect class="uuid-f701ef9b-fe85-4d56-9e03-e6cefe858d92" x="239.37" y="879.21" width="97.21" height="38.67" rx="12" ry="12"/><rect class="uuid-f701ef9b-fe85-4d56-9e03-e6cefe858d92" x="265.55" y="917.21" width="97.21" height="38.67" rx="12" ry="12"/><rect class="uuid-f701ef9b-fe85-4d56-9e03-e6cefe858d92" x="262.28" y="955.48" width="97.21" height="38.67" rx="12" ry="12"/><rect class="uuid-f701ef9b-fe85-4d56-9e03-e6cefe858d92" x="262.31" y="993.61" width="97.21" height="38.67" rx="12" ry="12"/><rect class="uuid-f701ef9b-fe85-4d56-9e03-e6cefe858d92" x="87.61" y="954.94" width="97.21" height="38.67" rx="12" ry="12" transform="translate(1110.49 838.06) rotate(90)"/><rect class="uuid-f701ef9b-fe85-4d56-9e03-e6cefe858d92" x="126.83" y="955.26" width="97.21" height="38.67" rx="12" ry="12" transform="translate(1150.04 799.16) rotate(90)"/><rect class="uuid-f701ef9b-fe85-4d56-9e03-e6cefe858d92" x="165.37" y="969.24" width="97.21" height="38.67" rx="12" ry="12" transform="translate(1202.55 774.6) rotate(90)"/><rect class="uuid-f701ef9b-fe85-4d56-9e03-e6cefe858d92" x="67.05" y="826.89" width="97.21" height="38.67" rx="12" ry="12"/><rect class="uuid-f701ef9b-fe85-4d56-9e03-e6cefe858d92" x="67.08" y="865.02" width="97.21" height="38.67" rx="12" ry="12"/><rect class="uuid-f701ef9b-fe85-4d56-9e03-e6cefe858d92" x="67.87" y="750.46" width="97.21" height="38.67" rx="12" ry="12"/><rect class="uuid-f701ef9b-fe85-4d56-9e03-e6cefe858d92" x="67.91" y="788.59" width="97.21" height="38.67" rx="12" ry="12"/><rect class="uuid-f701ef9b-fe85-4d56-9e03-e6cefe858d92" x="68.93" y="674.15" width="97.21" height="38.67" rx="12" ry="12"/><rect class="uuid-f701ef9b-fe85-4d56-9e03-e6cefe858d92" x="68.96" y="712.28" width="97.21" height="38.67" rx="12" ry="12"/><rect class="uuid-f701ef9b-fe85-4d56-9e03-e6cefe858d92" x="68.84" y="597.21" width="97.21" height="38.67" rx="12" ry="12"/><rect class="uuid-f701ef9b-fe85-4d56-9e03-e6cefe858d92" x="68.87" y="635.34" width="97.21" height="38.67" rx="12" ry="12"/><rect class="uuid-f701ef9b-fe85-4d56-9e03-e6cefe858d92" x="69.26" y="521.52" width="97.21" height="38.67" rx="12" ry="12"/><rect class="uuid-f701ef9b-fe85-4d56-9e03-e6cefe858d92" x="69.29" y="559.65" width="97.21" height="38.67" rx="12" ry="12"/><path class="uuid-91ca8242-ee95-48d3-b7f7-9e176930073f" d="m624.27,350.03h-60.81v-11.47h23.39v-75.3h-23.39v-10.26c3.17,0,6.56-.26,10.19-.79,3.62-.53,6.36-1.29,8.22-2.3,2.31-1.26,4.14-2.85,5.47-4.79,1.33-1.94,2.1-4.54,2.3-7.81h11.69v101.25h22.94v11.47Z"/><path class="uuid-91ca8242-ee95-48d3-b7f7-9e176930073f" d="m844.92,351.98h-76.05v-15.77c5.28-4.53,10.57-9.05,15.88-13.58,5.31-4.53,10.25-9.03,14.83-13.51,9.66-9.36,16.27-16.79,19.84-22.29,3.57-5.51,5.36-11.46,5.36-17.84,0-5.83-1.92-10.4-5.77-13.69-3.85-3.29-9.22-4.94-16.11-4.94-4.58,0-9.53.81-14.86,2.41-5.33,1.61-10.54,4.07-15.62,7.39h-.75v-15.84c3.57-1.76,8.34-3.37,14.3-4.83,5.96-1.46,11.73-2.19,17.32-2.19,11.52,0,20.55,2.78,27.09,8.34,6.54,5.56,9.81,13.09,9.81,22.6,0,4.28-.54,8.26-1.62,11.96-1.08,3.7-2.68,7.21-4.79,10.53-1.96,3.12-4.26,6.19-6.9,9.2-2.64,3.02-5.85,6.36-9.62,10.03-5.38,5.28-10.94,10.4-16.67,15.35-5.73,4.95-11.09,9.54-16.07,13.77h60.43v12.9Z"/><path class="uuid-91ca8242-ee95-48d3-b7f7-9e176930073f" d="m624.81,499.2c2.41,2.16,4.4,4.88,5.96,8.15,1.56,3.27,2.34,7.5,2.34,12.68s-.93,9.83-2.79,14.11c-1.86,4.28-4.48,8-7.85,11.17-3.77,3.52-8.21,6.12-13.32,7.81s-10.7,2.53-16.79,2.53-12.37-.74-18.41-2.23c-6.04-1.48-10.99-3.11-14.86-4.87v-15.77h1.13c4.27,2.82,9.3,5.16,15.09,7.02,5.78,1.86,11.37,2.79,16.75,2.79,3.17,0,6.54-.53,10.11-1.58,3.57-1.06,6.46-2.62,8.68-4.68,2.31-2.21,4.04-4.65,5.17-7.32,1.13-2.67,1.7-6.04,1.7-10.11s-.64-7.36-1.92-10c-1.28-2.64-3.06-4.72-5.32-6.22-2.26-1.56-5.01-2.63-8.22-3.21s-6.69-.87-10.41-.87h-6.79v-12.52h5.28c7.65,0,13.74-1.6,18.3-4.79,4.55-3.19,6.83-7.86,6.83-14,0-2.72-.58-5.09-1.74-7.13-1.16-2.04-2.77-3.71-4.83-5.02-2.16-1.31-4.48-2.21-6.94-2.72-2.46-.5-5.26-.75-8.37-.75-4.78,0-9.86.86-15.24,2.57-5.38,1.71-10.46,4.12-15.24,7.24h-.75v-15.77c3.57-1.76,8.34-3.38,14.3-4.87,5.96-1.48,11.73-2.23,17.32-2.23s10.31.5,14.49,1.51c4.17,1.01,7.95,2.62,11.32,4.83,3.62,2.41,6.36,5.33,8.22,8.75,1.86,3.42,2.79,7.42,2.79,12,0,6.24-2.2,11.68-6.6,16.33-4.4,4.65-9.59,7.58-15.58,8.79v1.06c2.41.4,5.18,1.25,8.3,2.53,3.12,1.28,5.76,2.88,7.92,4.79Z"/><path class="uuid-91ca8242-ee95-48d3-b7f7-9e176930073f" d="m843.27,520.44h-16.67v31.61h-14.49v-31.61h-53.79v-17.35l54.4-63.38h13.88v68.66h16.67v12.07Zm-31.16-12.07v-50.7l-43.53,50.7h43.53Z"/></g></svg>