<?xml version="1.0" encoding="UTF-8"?><svg xmlns="http://www.w3.org/2000/svg" viewBox="0 0 1000 1000"><defs><style>.c{stroke-linecap:round;stroke-linejoin:round;}.c,.d{fill:none;stroke:#000;}.e{fill:#f93d00;}.f{fill:#edd6d4;}.g{fill:#fff;}.h{fill:#ffeb55;}.i{fill:#f2a0b5;}.j{fill:#cabbba;}.k{fill:#adadad;}.l{fill:#1e1e1e;}.m{fill:#2bc670;}.n{fill:#81c7ff;}.d{stroke-miterlimit:10;}</style></defs><g id="a"><rect class="f" width="1000" height="1000"/><rect class="j" x=".18" y="561.51" width="1000" height="438.49"/><path class="f" d="m523.3,821.24h-2.77l-4.15.2-4.3.08-4.38-.18-3.14-.31-4.24-.65-1.93-.35-2.06-.29-2,.13-2.08.6-.96.46-1.38.92-1.12,1.06-1.05,1.39-.56,1.04-.46,1.21-.33,1.54-.08,1.49v14.29s19.22,2.49,19.55,2.53,11.79,1.53,11.79,1.53l22.96,2.97,25.51,2.2,23.42-2.38-.65-20.54-.44-15.22h-55.95l-1.19,1.58-3.25,2.97-4.74,1.71Z"/><polygon class="f" points="847.77 833.18 802.04 857.83 804.46 864.94 805.98 869.52 806.97 873.12 807.63 876.22 808.26 880.54 808.48 883.12 808.61 886.69 808.54 889.95 808.37 892.33 808.22 893.73 808.09 894.84 806.19 895.2 795.52 897.25 794.82 897.38 794.36 897.5 793.94 897.62 793.14 897.92 792.28 898.34 791.48 898.85 790.88 899.3 790.14 899.99 789.62 900.58 789.02 901.4 788.43 902.45 787.96 903.64 787.71 904.64 787.57 905.61 787.53 906.59 787.57 907.32 787.71 908.26 787.96 909.23 788.39 910.34 789 911.44 789.66 912.35 790.6 913.33 791.39 913.96 792.6 914.7 795.52 915.87 803.15 918.81 804.34 919.15 805.15 919.24 806.19 919.2 807.36 918.96 808.24 918.61 808.96 918.19 809.86 917.4 810.47 916.53 812.28 913.48 831.17 881.58 830.2 878.55 832.27 879.15 833.32 877.38 841.15 863.97 869.5 859.95 847.77 833.18"/><polygon class="f" points="291.34 661.19 291.01 683.48 339.15 707.49 346.12 710.96 349.46 712.49 353.72 714.08 358.84 715.47 362.55 716.15 367.2 716.63 373.3 716.73 405.52 713.46 406.59 708.16 407.28 705.82 410.7 707.4 415.23 709.49 419.68 711.57 422.93 712.63 427.11 713.6 432.21 714.26 435.58 714.49 439.05 714.61 443.48 714.27 449.52 713.66 472.84 711.34 473.37 709.05 473.93 705.82 474.37 701.75 474.56 696.61 474.49 693.72 473.94 690.33 473.05 688.05 471.93 686.19 470.38 684.4 468.59 682.97 466.59 681.93 464.6 681.33 461.6 681.03 459.08 680.88 454.43 680.59 450.14 680.06 445.53 679.04 441.04 677.56 437.45 676 435.98 675.25 434.59 674.31 432.59 672.39 431.26 670.52 430.2 668.05 429.97 666.01 429.5 663.88 429.09 661.38 428.79 658.56 428.62 655.56 366.9 655.39 366.63 660.99 291.34 661.19"/><polygon class="m" points="265.27 411.11 265.87 415.35 266.59 420.73 267.23 427.34 269.52 446.74 270.48 453.95 271.04 460.47 271.61 470.17 274.32 526.05 275.68 562.8 277.25 603.1 277.44 608.39 279.34 660.99 366.63 660.99 366.9 655.39 435.88 655.54 440.22 620.27 443.97 587.45 447.5 558.02 449.9 540.23 450.87 533.7 451.66 525.09 452.91 507.04 454.21 484.08 455.55 458.02 456.93 427.81 457.62 410.95 456.35 412.41 453.42 414.99 448.32 417.91 446.18 418.74 442.51 419.4 438.71 419.77 428.26 419.72 420.02 419.52 401.46 418.03 387.67 417.89 381.18 418.98 358.31 421.35 292.27 423.48 286.76 422.44 281.2 420.75 275.09 417.92 271.64 415.73 265.27 411.11"/><path class="n" d="m178.3,323.06l-2.74,9.53,3.37-1.47.13-.53,5.67-13.11,5.73-13.26,4.97-11.48,4.59-10.6,1.79-4.6,3.22-6.63,3.36-5.41,3.13-4.18,5.41-5.91,3.7-3.33,4.44-3.4,6.19-3.86,30.7-17.62,8.14-4.67.73,7.28.6,11.11.04,8.97-.66,16.98-.36,8.42-.44,10.24-.79,18.51-1.09,25.54-1.07,14.54-1.93,25.04-.77,9.51-1.64,18.23-.66,5.34-.11,1.43.19,1.54.54,1.74,1.02,2,1.59,2.19,2.94,2.71,4.85,3.83,7.53,3.1,6.92,2.04,11.04.49h13.7l11.81-.2s24.19-.41,24.7-.44c.51-.03,12.52-1.14,12.52-1.14l11.7-1.87,10.69-.71,9.21-.18,23.58.29,17.42,2.16,12.18-4.18s6.27-10.6,6.57-11.2c.3-.6,3.36-40.82,3.36-40.82v-7.03l.46-6.72.45-6.08.42-9.63v-13.6l-.21-11.39-.52-16.23-.38-8.74-.52-10.11-.54-8.93-1.3-16.98-2.01-20.74-.73-7.82,17,8.52,22.99,11.57,55.64-26.24-3.92-4.71-3-3.13-3.15-3.2-2.61-2.49-2.14-1.82-2.21-1.63-2.71-1.7-2.17-1.19-14.6-7.27-13.32-6.62-15.37-7.63-3.7-1.75-4.89-2.1-5.57-2.12-7.08-2.29-4.49-1.24-4.98-1.18-5.81-1.12-5.11-.77-4.61-.53-6.3-.52-8.51-.67-100.92-.99-.71.06-3.83.52-12.65,1.72-6.35.86-9.82,1.34-6.75.92-5.87.95-7.15,1.53-6.38,1.71-8.09,2.66-7.72,3.09-7.18,3.39-7.76,4.25-30.88,17.59-6.99,3.98-10.48,6.34-6.63,5.1-3.7,3.74-2.63,3.38-2.3,3.63-2.3,4.46-2.84,6.87-2.72,7.99-11.94,36.55-3.82,12.44-2.74,9.56-1.8,6.84-1.23,5.18s-.99,4.37-.88,4.06,1.74-3.01,1.74-3.01l2.21-2.57,2.37-1.94,5.15-2.78,2.6-.93,2.88-.66,3.65-.33,3.79.21,3.84.94,2.87,1.23,2.67,1.57,2.95,2.11,1.66,1.86,1.79,2.02,1.26,2.56,1.48,3.9Z"/><path class="e" d="m382.01,262.33c-4.24-1.53-9.1.1-12.57,3-3.47,2.9-5.83,6.89-8.12,10.8-2.33,3.98-4.66,7.95-6.99,11.93-2.02,3.45-4.09,7.03-4.58,11.01-.59,4.8,1.06,10.2-1.67,14.17-1.13,1.64-2.88,2.77-4.05,4.38-2.57,3.5-1.84,8.64.63,12.21,2.47,3.57,6.32,5.89,10.15,7.91,2.06,1.09,4.33,2.15,6.61,1.7,5.02-.99,5.97-7.86,9.59-11.52,7.76-7.84,23.96,1.85,31.03-6.64,2.91-3.49,2.69-8.58,4.28-12.86,1.57-4.24,5.03-8.14,4.39-12.62-.83-5.85-7.81-8.31-11.46-12.93-1.29-1.63-2.14-3.51-2.86-5.47-2.48-6.71-7.62-12.17-14.16-14.99-.07-.03-.14-.06-.21-.09"/><polygon class="h" points="512.2 318.22 510.31 318.86 508.42 319.5 505.94 320.6 500.25 323.22 494.75 326.12 489.41 329.38 482.33 334.44 478.89 337.25 473.04 342.65 468.72 347.24 464.27 352.62 458.98 360.17 457.33 362.86 453.5 369.93 450.1 377.66 447.49 385.12 441.68 403.55 437.4 417.13 434.07 427.83 430.66 430.93 426.91 434.54 423.08 438.4 421.62 440.17 420.22 442.62 418.66 446.06 417.99 449.02 417.65 451.61 417.65 453.96 417.78 456.41 418.14 458.48 418.7 460.56 419.49 462.65 420.68 465.13 421.7 467.22 423.22 470.04 424.33 471.65 426.1 473.74 428.61 476.03 431.79 478.13 436.47 480.08 440.43 480.88 442.84 481.03 446.12 480.82 448.6 480.36 451.39 479.49 454.35 478.12 456.35 476.88 460.2 473.65 471.34 463.49 479.02 456.47 481.97 453.01 484.13 449.2 485.5 445.35 486.91 440.69 488.04 437.47 489.25 436.07 491.16 435.11 492.83 434.97 493.98 435.2 495.51 436.01 496.62 437.17 497.35 438.81 498.88 444.94 508.63 483.6 513.04 500.71 519.86 526.29 521.68 532.75 523.67 539.36 524.62 542.02 525.08 542.78 530.54 543.86 542.99 545.45 553.03 546 558.61 546 565.3 545.77 575.42 545.02 587.13 543.54 597.41 541.77 608.08 539.49 621.31 536.13 637.4 531.32 647.77 527.88 657.29 524.6 663.97 522.41 666.75 521.68 673.04 520.35 680.98 518.46 690.95 515.64 699.92 512.34 703.8 510.39 705.04 509.56 705.31 508.96 705.42 507.73 705.16 505.59 704.46 502.62 702.56 496.75 699.85 489.62 696.21 480.88 691.68 470.65 687.61 461.8 684.6 455.4 681.49 448.87 676.45 438.49 667.96 421.34 664.1 413.64 658.67 402.95 655.6 396.96 653.53 392.89 652.77 389.6 653.33 386.17 654.35 384.23 655.34 383.04 657.44 381.47 658.77 380.88 661.12 380.41 663.1 380.52 666.9 381.59 682.03 386.22 692.07 389.3 696.4 391.08 699.79 393.23 702.95 396.05 706.28 400.44 707.95 403.79 709.88 409.74 725.77 461.6 782.44 452.57 777.68 434.1 770.9 407.82 767.55 394.83 763.19 381.17 757.39 368.79 754.75 364.23 750.22 357.44 743.83 349.41 738.62 343.88 732.36 338.15 719.08 328.53 710.63 323.85 694.2 317.07 685.58 314.39 670.61 310.55 656.57 308.73 631 308.73 582.36 308.73 512.2 318.22"/><path class="g" d="m427.54,128.89c0,32.08-26,58.08-58.08,58.08s-58.08-26-58.08-58.08,26-58.08,58.08-58.08,58.08,26,58.08,58.08"/><polygon class="g" points="434.07 427.83 436.54 419.85 434.92 417.54 433.55 416.43 431.58 416.29 430 417.08 428.76 418.98 428.04 419.24 425.81 418.2 422.07 418 419.58 418.13 417.58 418.78 416.41 419.62 414.53 420.82 412.3 422.98 410.93 425.41 410.11 427.83 410.07 431.83 410.01 436.68 411.12 440.16 412.43 442 414.01 443.5 417.15 445.67 418.66 446.06 420.76 441.6 423.51 437.8 429.55 431.7 434.07 427.83"/><path class="g" d="m175.55,332.59l2.74-9.52-.4-1.57-2.35-4.89-3.45-3.88-2.08-1.6-5.04-2.96-4.28-.98-5.86-.3-4.59.77-4.52,1.62-3.59,2.13-4.42,4.1-1.62,2.35-1.4,4.07-3.33,8.23-1.71,5.89-1.57,6.99s-.33,2.85-.48,3.14c-.14.29.18,5.73.18,5.73,0,0,.66,5.18.76,5.54s1.96,5.46,1.94,5.78c-.02.32,1.18,3.23,1.18,3.23l1.21,1.8,1.66.69,1.67-.11,1.71-2.01.34-1.37.81.97,1.21,2.68,1.16,2.04,1.92,1.41,1.54-.26,1.52-.63,1.6-2.77,1.68,2.56,1.83,1.31,1.51.27-1.16-2.35.6-8.31,3.61,6.2,3.88-1.99,1.46-5.64-.9-3.26-.95-2.86-.05-3.66.61-3.13,1.38-3.58,5.1-7.92,8.94-3.95Z"/><polygon class="g" points="771.25 454.35 738.21 459.62 738.85 463.63 738.67 466.13 737.83 468.61 731.82 481.86 727.54 491.18 725.5 495.5 725.41 497.81 726.48 500.39 727.99 501.46 730.47 502.15 732.2 501.85 733.65 501.09 735.38 498.82 738.86 494.21 742.56 498.82 745.21 502.15 746.94 502.88 748.68 502.67 749.64 502.15 751.67 500.96 753.01 500 753.99 499.17 757.91 497.5 763.5 494.52 767.77 492.44 769.96 489.47 771.25 486.34 773.06 485.42 774.53 483.71 774.88 482.35 771.25 454.35"/><polygon class="i" points="705.04 509.56 703.8 510.39 702.02 511.29 699.92 512.34 696.39 513.76 693.31 514.86 688.16 516.51 685.11 517.35 665.33 522.05 660.21 523.64 653.39 525.95 644.29 529.03 635.82 531.79 626.23 534.66 619.86 536.51 613.61 538.24 603.34 540.5 596.05 542 586.03 543.68 576.61 544.87 567.02 545.65 557.27 546 551.99 545.94 546.21 545.63 536.77 544.85 529.52 543.66 525.08 542.78 523 549.43 518.32 564.47 512.78 582.27 505.15 606.74 499.75 624.17 497.14 633.8 495.04 643.4 493.42 652.9 492.05 664.68 491.59 671.15 491.27 678.71 491.56 693.21 492.43 704.21 493.16 710.22 494.44 718.36 496.25 727.34 497.86 734.02 511.47 780.81 521.47 814.98 593.42 814.98 590.42 799.54 584.18 767.52 580.36 747.94 575.52 723.1 573.22 710.22 572.81 702.34 573.31 694.93 575.74 683.77 578.49 676.58 584.78 665.67 592.9 655.05 614.64 626.84 622.41 640.68 658.43 704.39 665.73 717.15 673.67 730.84 678.3 738.67 682.78 745.74 690.33 756.36 696.73 765.58 771.25 874.42 851.04 831.41 826.84 796.36 795.88 751.39 785.75 735.38 781.01 727.33 773.17 713.05 764.71 696.07 757.67 680.32 751.78 665.66 747.92 655.14 738.96 625.66 734.08 609.12 723.89 574.53 717.73 553.59 710.47 528.94 705.52 512.16 704.82 509.77 704.98 509.63 705.04 509.56"/><polygon class="l" points="486.29 843.89 486.29 853.38 501.19 855.49 506.11 856.39 528.37 860.41 543.33 858.1 543.33 862.57 565.93 865.16 589.86 862.01 589.52 850.74 566.1 853.12 543.9 851.2 539.09 850.72 521.5 848.44 486.29 843.89"/><polygon class="l" points="869.5 859.96 872.56 863.4 864.16 879.09 860.16 879.35 862.3 885.67 842.7 922.66 827.36 925.45 819.47 926.89 811.61 928.31 806.81 929.19 798.24 926.19 794.19 924.76 792.67 924.07 790.91 922.92 789.75 921.9 788.35 920.24 787.63 919.11 787.09 918.04 786.29 915.61 785.99 913.31 786.13 910.9 786.78 908.21 787.66 904.98 787.53 906.07 787.55 907.02 787.75 908.46 788.06 909.59 788.52 910.57 789 911.44 789.66 912.35 790.86 913.56 792.23 914.49 793.8 915.18 797.11 916.48 801.64 918.21 803.15 918.81 804.62 919.18 805.79 919.24 806.69 919.14 807.36 918.96 808.23 918.61 808.96 918.19 809.86 917.4 810.47 916.53 831.17 881.58 830.2 878.55 832.27 879.15 841.15 863.97 869.5 859.96"/><polygon class="k" points="164.4 398.43 180.32 390.76 191.81 341.76 183.34 329.22 166.5 336.62 163.01 342.09 161.4 344.42 160.36 347.19 160.05 348.01 159.77 349.12 159.56 350.28 159.43 351.9 159.49 353.61 159.55 354.81 159.99 356.64 160.55 358.34 161.24 359.83 161.57 360.44 160.04 366.57 156.18 368.59 152.56 361.51 152.49 362.9 151.99 370.74 155.54 376.89 157.79 375.59 155.55 384.56 164.4 398.43"/><polygon class="l" points="291.23 683.48 291.01 703.58 309.67 711.6 321.52 711.6 322.79 714.72 333.58 720.11 341.64 724.13 345.81 726.21 348.45 727.54 351.26 728.8 354.48 729.77 356.94 730.28 359.84 730.69 364.53 730.99 367.33 730.99 369.91 730.86 373.02 730.59 385.7 729.3 391.57 728.7 394.23 728.17 396.05 727.48 397.98 726.36 399.69 724.96 401.19 723.3 403.55 719.51 413.19 724.33 417.25 726.33 420.76 727.5 423.98 728.2 427.46 728.67 430.89 728.91 435.07 728.6 438.18 728.68 445.51 727.95 454.03 727.08 457.83 726.69 460.33 726.34 462.6 725.83 464.47 724.63 465.81 723.71 467.95 721.61 469.73 719.18 471.17 716.73 472.84 711.34 462.9 712.28 445.93 714.02 440.06 714.61 435.58 714.49 432.21 714.26 429.65 713.91 426.74 713.56 424.42 713.09 421.04 712.05 418.37 711.12 415.23 709.49 410.7 707.4 407.28 705.82 405.74 713.46 388.86 715.17 374.1 716.57 369.08 716.73 365.59 716.44 362.77 716.15 359.83 715.63 355.88 714.6 352.52 713.62 349.68 712.49 327.65 701.64 291.23 683.48"/><path d="m364.08,142.13c.12,1.66-1.14,3.11-2.8,3.22-1.67.12-3.11-1.14-3.22-2.8-.12-1.67,1.14-3.11,2.8-3.22,1.67-.12,3.11,1.14,3.22,2.8"/><path d="m402.51,142.1c.12,1.67-1.14,3.11-2.8,3.22-1.66.12-3.11-1.14-3.22-2.8s1.14-3.11,2.8-3.22c1.66-.12,3.11,1.14,3.22,2.8"/><path d="m169.8,392.29c-2.38,1.36-5.41.54-6.77-1.83-1.36-2.38-.54-5.41,1.83-6.77,2.38-1.36,5.41-.54,6.77,1.83,1.36,2.38.54,5.41-1.83,6.77"/><path d="m594.9,229.53c-13.21-23.29-31.24-42.78-61.4-31.91,0,0-56.05-7.26-54.87,81.83.14,10.77,1.19,21.57,2.9,32.29l.16,1c1.2,7.52,6.46,13.53,12.81,14.61,22.11,3.75,73.8,8.55,114.68-18.04,6.12-3.98,8.9-12.59,6.74-20.93l-4.51-17.4c-3.78-14.57-9.24-28.63-16.52-41.46"/></g><g id="b"><line class="c" x1="720.67" y1="561.51" x2="1000.36" y2="561.51"/><line class="c" x1="447.09" y1="561.51" x2="519.09" y2="561.51"/><line class="c" x1=".36" y1="561.51" x2="275.68" y2="561.51"/><path class="c" d="m427.9,128.79c0,32.08-26,58.08-58.08,58.08s-58.08-26-58.08-58.08,26-58.08,58.08-58.08,58.08,26,58.08,58.08Z"/><path class="c" d="m364.44,142.02c.12,1.66-1.14,3.11-2.8,3.22-1.67.12-3.11-1.14-3.22-2.8-.12-1.67,1.14-3.11,2.8-3.22,1.67-.12,3.11,1.14,3.22,2.8Z"/><path class="c" d="m402.87,141.99c.12,1.67-1.14,3.11-2.8,3.22-1.66.12-3.11-1.14-3.22-2.8s1.14-3.11,2.8-3.22c1.66-.12,3.11,1.14,3.22,2.8Z"/><path class="c" d="m382.18,142.9l6.04,13.37c3.12,6.91-1.95,14.73-9.53,14.7l-5.84-.02"/><path class="c" d="m454.06,478.35s-.71,32.79-4.27,59.81c-3.7,28.11-13.92,117.38-13.92,117.38l-52.47-.15h-16.5"/><path class="c" d="m270.44,222.41v.05c1.27,10.72,1.67,21.53,1.21,32.32l-3.18,74.68s-4.67,64.85-6.07,72.65c-1.4,7.81,10.73,18.72,28.79,21.12l48.31-.39c9.18-.07,18.35-.81,27.43-2.2,12.67-1.94,25.51-2.61,38.31-1.98,3.68.18,7.62.36,11.52.51"/><path class="c" d="m456.35,364.89c-.05-4.98.1-9.95.54-14.68,2.41-25.89-1.19-89.9-3.35-107.16l-2.07-22.17"/><path class="c" d="m135.75,319.06c3.58-19.46,16.67-57.2,22.78-76.01,2.92-8.98,6.25-18.09,12.44-25.22,5.66-6.51,13.31-10.91,20.81-15.18l39.78-22.65c.1-.06.19-.11.29-.17,14.96-8.52,31.43-14.08,48.49-16.4l39.34-5.35"/><path class="c" d="m274.87,219.87l-44.4,25.48c-13.96,8.01-24.55,20.8-29.82,36.01l-21.25,49.11"/><path class="c" d="m144.47,309.85c11.41-6.55,25.76-2.97,32.05,8,2.32,4.04,3.24,8.25,2.88,12.63"/><polyline class="c" points="180.57 390.72 192.2 341.65 183.73 329.07 171.28 376.73 180.57 390.72 164.61 398.38 155.77 384.46 163.1 355.38 160.54 356.39"/><line class="c" x1="171.28" y1="376.73" x2="155.77" y2="384.46"/><line class="c" x1="166.84" y1="336.44" x2="183.73" y2="329.07"/><path class="c" d="m142.63,342.46l-.33,2.24c-.97,6.51.24,13.16,3.44,18.92l3.49,6.27s1.68,3.96,4.18,2.76"/><path class="c" d="m147.67,367.1c.94,1.69.35,3.83-1.33,4.8-1.76,1.01-4.01.34-4.93-1.48l-2.64-5.22c-2.28-4.51-3.33-9.55-3.03-14.59l.34-5.94"/><path class="c" d="m169.51,332.28l-7.24,11.28c-3.25,5.07-3.41,11.52-.42,16.74"/><path class="c" d="m156.4,368.48l-4.25-8.59c-2.95-5.96-3.51-12.83-1.55-19.19"/><line class="c" x1="175.91" y1="332.48" x2="178.66" y2="322.83"/><polyline class="c" points="160.37 366.2 152.35 370.81 152.83 361.26"/><polyline class="c" points="152.35 370.81 155.77 376.78 158.03 375.48"/><path class="c" d="m144.49,309.83s-6.37,2.85-8.75,9.23l-4.08,10.93c-1.63,4.37-2.8,8.9-3.49,13.5-.74,4.92-.36,9.95.97,14.75l1.02,3.69c.5,1.8,1.21,3.54,2.13,5.17l.17.3c.88,1.56,2.86,2.1,4.42,1.21,1.49-.85,1.7-3.99.93-5.52"/><path class="c" d="m291.61,660.99l-.46,42.43,18.7,8.04,7.36-11.1,5.79,14.22,25.71,12.85s7.49,4.78,24.14,3.11l19.07-1.94c17.79-1.85,15.86-32.47,15.86-32.47-.08-6.94-5.1-12.64-11.48-13.02l-7.86-.48c-6.11-.37-12.11-1.94-17.71-4.64-5.07-2.21-8.41-7.15-8.58-12.68l-.12-4.16"/><path class="c" d="m291.37,683.27l55.22,27.54c9.27,4.63,19.5,6.53,29.66,5.51l29.87-3"/><path class="c" d="m403.91,719.41l11.88,5.94s7.49,4.78,24.14,3.11l19.07-1.94c17.79-1.85,15.87-32.48,15.87-32.48-.08-6.94-5.1-12.64-11.48-13.02l-7.86-.48c-6.11-.37-12.11-1.94-17.7-4.64-2.72-1.19-4.9-3.21-6.3-5.68,0,0-2.53-4.14-2.89-14.66"/><path class="c" d="m407.64,705.72l6.03,3.01c9.27,4.63,19.5,6.53,29.66,5.51l29.87-3"/><path class="c" d="m265.35,410.66s4.17,37.52,5.14,43.29c.96,5.77,4.33,82.19,4.81,95.17.48,12.98,4.05,111.87,4.05,111.87"/><path class="c" d="m375.38,451.21s.16,68.82-2.76,101.04c-1.39,15.43-5.99,108.74-5.99,108.74h-87.29"/><line class="c" x1="309.85" y1="711.46" x2="321.73" y2="711.46"/><path class="c" d="m419.46,158.96l13.78,1.08c17.17,1.35,33.92,5.97,49.34,13.63l.3.15c13.66,6.79,27.33,13.58,40.99,20.37,7.73,3.84,10.61,6.83,16.62,13.02.95.97,1.94,2.01,2.96,3.1l1.86,2.01"/><polyline class="c" points="441.89 216.09 487.66 239.02 490.01 240.07"/><path class="d" d="m382.46,262.23c-4.24-1.53-9.1.1-12.57,3-3.47,2.9-5.83,6.89-8.12,10.8-2.33,3.98-4.66,7.95-6.99,11.93-2.02,3.45-4.09,7.03-4.58,11.01-.59,4.8,1.06,10.2-1.67,14.17-1.13,1.64-2.88,2.77-4.05,4.38-2.57,3.5-1.84,8.64.63,12.21,2.47,3.57,6.32,5.89,10.15,7.91,2.06,1.09,4.33,2.15,6.61,1.7,5.02-.99,5.97-7.86,9.59-11.52,7.76-7.84,23.96,1.85,31.03-6.64,2.91-3.49,2.69-8.58,4.28-12.86,1.57-4.24,5.03-8.14,4.39-12.62-.83-5.85-7.81-8.31-11.46-12.93-1.29-1.63-2.14-3.51-2.86-5.47-2.48-6.71-7.62-12.17-14.16-14.99-.07-.03-.14-.06-.21-.09Z"/><path class="c" d="m436.83,419.95l-1.56-2.38c-1.15-1.76-3.7-1.86-4.98-.19l-1.47,1.93-3.36-1.05c-4.09-1.28-8.54-.02-11.35,3.21l-1.23,1.41c-1.71,1.96-2.65,4.48-2.65,7.09v5.2c0,3.95,2.16,7.59,5.63,9.47l3.22,1.41"/><path class="c" d="m771.61,454.25l3.41,26.79c.14,1.11-.16,2.23-.85,3.11-.64.83-1.58,1.4-2.61,1.58l-1.23.22c-.57.1-1.16.08-1.72-.05l-9.56-2.32c-1.79-.43-2.84-2.29-2.29-4.04.49-1.58,2.11-2.52,3.73-2.16l7,1.45"/><path class="c" d="m738.57,459.51c1.47,5.19.37,7.52-1.88,12.43l-10.49,22.86c-.95,2.07-.41,4.53,1.32,6.01,2.25,1.93,5.67,1.54,7.43-.84l4.46-5.93"/><path class="c" d="m742.93,488.35c-1.05-1.28-3.42-2.31-4.79-1.37-1.51,1.05-1.83,3.15-.69,4.6l7.86,9.95c.96,1.21,2.62,1.6,4.01.94l5.97-3.78"/><path class="c" d="m764.75,493.97l-9.45,4.71c-1.36.72-3.04.41-4.05-.75l-8.32-9.58c-1.21-1.39-.99-3.51.48-4.62,1.32-1,3.18-.83,4.29.4l5.29,5.86c.72.8,1.89,1.01,2.85.52"/><path class="c" d="m772.33,485.52l-1.71,3.12c-1.21,2.46-3.31,4.36-5.87,5.33-2.67,1.01-5.68.25-7.55-1.9l-6.93-7.98c-1.21-1.39-.99-3.51.48-4.62,1.32-1,3.18-.83,4.29.4l5.89,6.52c.86.96,2.43.7,2.94-.49l.45-1.05"/><path class="c" d="m645.52,587.15l-59.04,76.6c-11.29,14.65-15.7,33.47-12.09,51.61l19.39,99.51h-71.95l-21.04-71.92c-12.25-39.59-12.21-81.96.11-121.52l24.53-78.77"/><path class="c" d="m615,626.74s62.92,112.4,68.13,118.9c5.21,6.49,88.47,128.68,88.47,128.68l79.79-43.01-50.71-73.46c-23.06-33.41-41.34-69.87-54.32-108.34l-41.2-139.85"/><path class="c" d="m434.24,428.18c-2.04,1.48-5.65,4.86-9.32,8.46-7.19,7.06-9.02,17.95-4.57,26.99l2.09,4.24c2.55,5.18,6.93,9.24,12.3,11.38h0c8.33,3.33,17.82,1.61,24.45-4.44l19.74-18.01c3.11-2.84,5.4-6.46,6.62-10.49l2.38-7.85c.69-2.29,2.89-3.79,5.27-3.59,2.18.18,4,1.72,4.52,3.84,4.6,18.59,25.86,103.56,27.72,103.97,59.93,13.26,128.89-18.54,141.67-21.09,12.78-2.56,30.68-7.03,38.07-11.92,6.21-4.1-37.08-89.29-51.07-116.4-2.32-4.49-.43-10,4.14-12.14,2-.93,4.27-1.09,6.38-.45l27.8,8.52c7.97,2.44,14.21,8.68,16.66,16.65l17.04,55.64,56.67-9.03-15.16-58.78c-8.32-32.26-31.02-58.9-61.55-72.23-19.39-8.47-40.32-12.84-61.47-12.84h-56.87"/><path class="c" d="m434.24,428.18l13.89-44.03c3.49-11.06,8.83-21.44,15.8-30.71,10.44-13.87,24.23-24.86,40.09-31.92l4.75-2.11,3.78-1.28"/><polyline class="c" points="566.29 865.05 590.22 861.9 588.79 814.87"/><line class="c" x1="528.48" y1="860.3" x2="543.69" y2="857.99"/><polygon class="c" points="872.92 863.3 845.72 867.81 838.25 880.67 864.52 878.99 872.92 863.3"/><path class="c" d="m788.01,904.87l-1.22,4.56c-1.73,6.45,1.81,13.15,8.11,15.36l12.28,4.29"/><line class="c" x1="869.86" y1="859.85" x2="848.13" y2="833.08"/><path class="c" d="m838.25,880.67l-7.69-2.22,2.82,8.83-13,27.57c-2.83,6-7.44,10.97-13.21,14.24"/><polyline class="c" points="832.63 879.04 841.51 863.86 845.72 867.81"/><path class="c" d="m831.53,881.47l-20.79,35.11c-1.29,2.2-4.63,3.28-7.47,2.02l-9.43-3.62c-4.09-1.57-6.52-5.79-5.83-10.11.62-3.87,3.6-6.93,7.45-7.65l5.66-1.06,6.85-1.35"/><path class="c" d="m802.4,857.72l3.43,10.11c3.5,10.32,4.09,21.4,1.7,32.03l-.74,3.3"/><line class="c" x1="862.66" y1="885.56" x2="860.52" y2="879.24"/><polyline class="c" points="872.92 863.3 869.86 859.85 841.51 863.86"/><polyline class="c" points="807.17 929.08 843.06 922.56 862.66 885.56 833.38 887.27"/><path class="c" d="m566.29,865.05l-22.6-2.59v-11.3l-15.21,9.14-26.93-4.92-14.89-2.1v-24.01c0-6,5.43-10.54,11.34-9.47l3.03.55c4.59.83,9.26,1.18,13.92,1.04l8.71-.26s5.5-.7,9.18-6.26"/><polyline class="c" points="486.65 843.78 543.69 851.17 566.46 853.01 589.88 850.64"/><path class="c" d="m595.26,229.43c-13.21-23.29-31.24-42.78-61.4-31.91,0,0-56.05-7.26-54.87,81.83.14,10.77,1.19,21.57,2.9,32.29l.16,1c1.2,7.52,6.46,13.53,12.81,14.61,22.11,3.75,73.8,8.55,114.68-18.04,6.12-3.98,8.9-12.59,6.74-20.93l-4.51-17.4c-3.78-14.57-9.24-28.63-16.52-41.46Z"/></g></svg>