<?xml version="1.0" encoding="UTF-8"?><svg xmlns="http://www.w3.org/2000/svg" viewBox="0 0 1000 1000"><defs><style>.c{stroke-linecap:round;stroke-linejoin:round;}.c,.d{fill:none;stroke:#000;}.e{fill:#ff3c00;}.f{fill:#edd6d4;}.g{fill:#fff;}.h{fill:#cabbba;}.i{fill:#adadad;}.j{fill:#1e1e1e;}.k{fill:#2bc670;}.l{fill:#81c7ff;}.d{stroke-miterlimit:10;}</style></defs><g id="a"><rect class="f" width="1000" height="1000"/><rect class="h" y="561.51" width="1000" height="438.49"/><polygon class="f" points="361.26 632.26 360.55 631.89 297.73 652.48 292.95 654.07 290.43 655.24 288.49 656.44 285.95 658.51 283.6 661.18 281.84 664 280.73 666.54 280.01 668.97 279.56 671.81 277.98 697.37 276.49 721.56 288.14 725.08 293.81 726.79 296.56 727.53 298.35 727.83 300.51 727.98 302.01 727.98 303.68 727.8 306.52 727.22 308.57 726.54 312.23 724.82 360.07 701.2 361.26 632.26"/><polygon class="f" points="224.82 589.88 223.83 589.36 161.14 609.95 156.36 611.55 153.84 612.71 151.9 613.91 149.36 615.98 147.01 618.65 145.25 621.47 144.14 624.01 143.42 626.44 142.97 629.28 141.39 654.84 139.9 679.03 151.55 682.55 157.23 684.26 159.97 685 161.76 685.3 163.92 685.45 165.42 685.45 167.09 685.27 169.93 684.69 171.98 684.01 175.64 682.29 222.75 658.95 224.82 589.88"/><polygon class="k" points="569.86 594.11 570.36 591.29 570.42 586.33 570.35 582.24 570.01 575.71 569.64 571.24 568.69 567 567.37 561.62 566.28 556.19 565.63 552.75 565.63 550.51 565.91 548.92 555.45 546.48 543.77 543.91 531.7 541.38 516.15 538.24 509.24 537.04 501.15 536.22 493.41 536.04 487.72 536.37 483.61 536.82 479.94 537.4 475.94 538.23 471.34 539.45 463.55 542.24 457.42 545.16 451.86 548.47 446.01 552.78 442.94 555.47 438.87 559.67 435.52 563.91 432.24 569.38 378.14 575.58 340.74 579.86 225.24 576.02 222.37 671.81 262.1 671.81 293 651.65 361.26 632.26 359.8 716.97 415.24 716.97 487.65 716.97 526.45 716.97 533.38 716.75 539.33 715.97 547.23 714 552.74 711.95 560.2 708.15 567.32 703.19 570.94 700.01 575.05 695.82 577.82 692.64 582.21 685.88 584.75 681.46 587.2 675.34 588.97 668.27 590.08 663.02 590.5 658.99 590.5 651.09 589.92 644.88 588.66 638.79 587.29 635.55 574.73 605.69 569.86 594.11"/><polygon class="l" points="793.3 631.89 789.35 619.52 783.5 605.29 779.1 596.71 771.26 584.52 764.63 576.45 756.66 568.82 748.4 562.8 741.5 559.02 733.81 556.02 725.38 554.29 711.7 553.94 695.71 554.66 676.6 556.12 659.32 557.85 647.42 559.22 635.47 559.89 625.36 560.03 613.71 559.63 607.2 557.85 599.33 556.1 592.47 554.42 585.28 552.22 574.08 548.45 567.87 546.8 566.55 547.42 565.91 548.91 565.63 552.75 567.06 560.37 568.53 566.28 569.64 571.24 570.21 578.26 570.41 583.98 570.41 588.03 570.15 592.56 569.86 594.11 576.17 609.12 581.32 621.35 587.29 635.55 588.66 638.79 589.7 643.58 590.42 649.03 590.66 655.31 590.08 663.02 588.64 670.26 586.47 677 583.93 682.73 582.21 685.88 577.82 692.64 573.27 697.88 568.44 702.28 574.08 703.8 579.5 705.22 585.71 706.31 591.15 707.12 599.73 708.28 610.05 709.29 613.85 709.58 615.33 721.18 617.4 722.1 619.81 722.89 622.37 723.47 625.42 723.93 628.57 723.93 692.12 724.61 694.56 724.55 697.58 724.32 700.66 723.96 706.25 723.23 711.48 722.66 718.34 722.35 724.04 722.53 729.77 723.33 732.89 723.93 736.44 725.11 737.9 725.55 739.04 725.88 740.06 726.57 740.74 727.25 741.31 728.18 741.66 729.29 741.74 730.57 742.18 728.35 742.77 726.05 743.36 725.07 744.26 724.23 745.25 723.72 746.62 723.48 747.37 723.48 748.3 723.72 749.22 724.2 749.97 724.83 750.62 725.75 751.05 726.95 751.1 728.36 750.96 729.48 753.01 729.66 756.62 729.91 761.14 730.16 767.78 730.34 773.11 730.23 777.23 729.81 778.84 729.48 793.64 632.98 793.3 631.89"/><polygon class="e" points="723.5 646.15 721.11 639.2 715.66 630.19 712.1 625.88 707.6 621.35 679.35 634.39 676.55 636.19 674.62 637.78 672.45 639.99 670.37 642.74 668.92 645.24 667.12 649.85 666.28 654.24 666.21 658.69 666.56 662.72 671.02 714.64 671.13 715.95 672.81 717.25 674.26 718.12 676.02 719.04 678.13 719.97 679.29 720.4 681.66 721.12 683.87 721.6 685.84 722.01 688.48 722.56 689.87 722.85 691.02 723.44 691.57 723.93 692.12 724.61 693.78 724.6 696.16 724.45 697.59 724.32 700.66 723.96 706.25 723.23 710.32 722.76 712.65 722.56 713.84 721.02 715.1 719.22 716.81 715 718.08 708.87 718.51 703.85 718.44 695.26 717.59 684.14 717.74 676.84 718.94 669.53 721.22 662.06 722.85 656.92 723.72 652.58 723.5 646.15"/><polygon class="e" points="607.41 659.15 606.86 654.88 606.35 650.21 606.35 645.78 606.65 640.19 607.17 636.21 608.01 631.89 609.19 627.47 610.86 622.68 612.98 617.85 616.41 611.66 618.54 608.49 619.81 606.76 615.82 606.96 612.19 606.91 608.26 606.6 603.84 605.95 598.67 604.99 597.18 604.72 595.19 604.44 592.76 604.46 590 604.83 586.79 605.52 581.29 607.18 576.17 609.12 579.62 617.32 583.82 627.3 587.88 636.94 588.66 638.79 589.3 641.51 589.7 643.58 590.18 646.73 590.42 649.03 590.66 655.31 590.5 658.99 590.08 663.02 589.4 666.98 588.64 670.26 587.61 673.79 586.47 677 585.17 680.12 583.93 682.73 582.22 685.88 580.56 688.57 578.64 691.36 576.25 694.41 573.27 697.88 568.44 702.28 578.51 705 580.93 705.53 586.63 706.46 591.15 707.12 598.29 708.06 606.34 708.96 612.14 709.48 613.85 709.58 607.41 659.15"/><path class="g" d="m874.62,685.66c0,32.08-26,58.08-58.08,58.08s-58.08-26-58.08-58.08,26-58.08,58.08-58.08,58.08,26,58.08,58.08"/><polygon class="g" points="691.02 723.44 689.87 722.85 688.48 722.56 687.06 722.26 685.2 721.88 683.87 721.6 681.66 721.12 680.3 720.75 679.29 720.4 676.64 719.35 674.26 718.12 672.81 717.25 671.13 715.95 669.91 715.16 667.4 713.82 665.55 713 663.01 712.11 660.37 711.41 658.62 711.06 655.82 710.68 652.82 710.5 650.62 710.52 648.23 710.66 645.24 711.02 642.81 711.45 640.16 712.06 637.64 712.77 635.35 713.52 631.96 714.81 630.21 715.7 629.23 716.69 628.57 717.82 628.05 719.78 628.05 721.78 628.24 722.83 628.57 723.93 629.01 724.94 629.68 726.02 631.06 727.77 632.45 729.58 633.61 731.28 634.95 733.54 635.77 735.1 636.81 737.43 639.56 745.06 640.92 748.88 641.45 750.33 641.97 751.23 642.77 752.11 644.08 752.96 645.43 753.37 646.7 753.42 648.12 753.11 649.3 752.5 650.28 751.62 651.05 750.46 651.4 749.53 651.57 748.6 651.49 747.14 652.73 751.86 653.52 754.84 653.82 755.61 654.25 756.34 654.88 757.08 655.71 757.77 656.55 758.23 657.11 758.45 657.85 758.63 658.48 758.71 659.77 758.64 660.93 758.31 661.57 758 662.45 757.38 663.2 756.61 663.77 755.73 664.11 754.95 664.37 753.84 664.41 753.03 664.29 751.99 664.97 755.22 665.14 755.82 665.37 756.42 665.75 757.11 666.21 757.72 666.77 758.3 667.65 758.93 668.51 759.34 669.4 759.59 670.42 759.7 671.51 759.61 672.48 759.34 673.17 759.03 673.89 758.56 674.57 757.96 675.18 757.2 675.68 756.28 676.01 755.21 676.11 754.53 676.12 753.71 676.04 753.03 675.79 752 673.02 740.8 675.67 744.35 681.22 751.8 682.56 753.61 683.39 754.66 684.45 755.56 684.94 755.86 685.73 756.21 686.62 756.44 687.34 756.54 688.19 756.51 688.86 756.41 689.56 756.22 690.08 756.01 690.59 755.75 691.08 755.43 691.7 754.91 692.17 754.4 692.68 753.66 692.98 753.09 693.2 752.51 693.37 751.87 693.45 751.3 693.48 750.61 693.44 750.02 693.37 749.56 693.22 748.99 692.98 748.34 692.75 747.89 692.53 747.53 692.21 747.09 680.16 731.01 681.45 731.01 684.27 731.01 687.2 731.01 688.67 731.01 689.4 730.93 689.98 730.76 690.68 730.43 691.31 729.98 691.84 729.42 692.23 728.84 692.62 727.84 692.73 727.2 692.71 726.3 692.59 725.68 692.32 724.98 692.12 724.61 691.57 723.93 691.02 723.44"/><polygon class="g" points="696.88 724.38 700.6 731.87 704.81 740.39 706.46 743.75 708.39 747.68 709.08 749.09 709.66 750.26 710.18 751.32 710.64 752.14 711.24 753.02 712.15 754.11 713.01 754.94 714.72 756.2 715.79 756.91 717.85 758.27 720.87 760.27 722.32 761.12 723.87 761.77 724.7 762.02 726.22 762.33 727.63 762.44 729.31 762.44 747.84 762.44 750.51 762.15 751.65 761.84 752.69 761.45 753.94 760.83 754.94 760.21 756.13 759.27 757.13 758.26 758.29 756.72 758.9 755.65 759.63 753.9 760.02 752.4 760.2 751.03 760.25 749.67 759.95 746.97 763.9 747.11 765.05 747.01 766.24 746.59 766.97 746.14 767.82 745.32 768.37 744.47 768.72 743.57 768.9 742.61 768.86 741.72 768.69 740.87 768.22 739.81 767.57 738.96 767.02 738.46 766.13 737.92 758.29 734.64 757.94 733.9 757.4 733.19 756.88 732.71 756.25 732.31 755.51 732.02 754.68 731.86 753.96 731.87 752.88 732.11 752.08 732.52 751.35 733.12 750.83 733.78 750.26 735.03 750.78 730.96 751.1 728.36 751.05 726.95 750.62 725.75 749.97 724.83 749.22 724.2 748.3 723.72 747.37 723.48 746.16 723.48 745.25 723.72 744.26 724.23 743.36 725.07 742.77 726.05 742.41 727.3 741.74 730.57 741.66 729.29 741.31 728.18 740.74 727.25 740.06 726.57 739.52 726.18 738.43 725.7 736.44 725.11 732.89 723.93 729.77 723.32 727.76 722.97 724.04 722.53 719.96 722.32 714.88 722.41 711.48 722.66 696.88 724.38"/><polygon class="i" points="743.39 862.04 741.74 851.34 783.82 828.94 839.09 855.61 839.53 866.35 826.84 874.51 799.51 861.26 788.3 866.34 778.82 862.24 760.25 870.4 743.39 862.04"/><polygon class="j" points="360.55 631.89 348.48 625.57 327.51 634.25 327.51 639.84 316.34 637.78 295.55 644.48 278.45 649.99 275.33 651.33 273.26 652.57 270.71 654.61 268.69 656.77 267.02 659.13 265.76 661.53 264.76 664.25 264.17 666.9 263.85 670.51 263.49 676.77 262.12 700.71 262.16 703.18 262.5 705.68 263 707.69 264.04 710.42 265.31 712.76 266.52 714.49 268.33 716.54 270.12 718.13 272.94 720 276.13 721.44 276.49 721.56 276.73 717.86 279.29 676.23 279.56 671.81 280.28 667.66 281.84 664 283.6 661.18 285.95 658.51 288.48 656.44 290.43 655.24 292.95 654.08 360.55 631.89"/><polygon class="j" points="223.83 589.36 211.89 583.04 190.92 591.72 190.92 597.31 179.75 595.25 158.96 601.95 141.86 607.46 138.74 608.8 136.67 610.04 134.12 612.08 132.1 614.24 130.44 616.6 129.18 619 128.17 621.72 127.58 624.37 127.26 627.98 126.9 634.25 125.53 658.18 125.57 660.65 125.91 663.15 126.41 665.16 127.45 667.89 128.72 670.23 129.93 671.96 131.74 674.01 133.53 675.6 136.35 677.47 139.54 678.91 139.9 679.03 140.14 675.33 142.7 633.7 142.97 629.28 143.69 625.14 145.25 621.47 147.01 618.65 149.36 615.98 151.9 613.91 153.84 612.71 156.36 611.55 223.83 589.36"/><path d="m836.63,866.29c-1.39,1.59-3.92,2.26-5.65,1.49-1.73-.77-2.01-2.69-.62-4.28,1.39-1.59,3.92-2.26,5.65-1.49,1.73.77,2.01,2.69.62,4.28"/><path d="m811.26,697.99c-1.65-.23-2.8-1.75-2.57-3.4.23-1.65,1.75-2.79,3.4-2.57,1.65.23,2.8,1.75,2.57,3.4-.23,1.65-1.75,2.79-3.4,2.57"/><path d="m803.37,735.48c-1.65-.23-2.8-1.75-2.57-3.4.23-1.65,1.75-2.8,3.4-2.57,1.65.23,2.8,1.75,2.57,3.4-.23,1.65-1.75,2.79-3.4,2.57"/></g><g id="b"><line class="c" x1="746.81" y1="561.51" x2="1000.36" y2="561.51"/><line class="c" x1=".36" y1="561.51" x2="437.41" y2="561.51"/><line class="c" x1="790.63" y1="852.89" x2="790" y2="855.18"/><path class="c" d="m786.86,851.83l3.77,1.06c-.31-4.08,3.44-4.01,3.44-4.01"/><path class="c" d="m790.63,846.99s-4.19,1.66-3.77,4.84l-.52,2.71"/><line class="c" x1="777.45" y1="850.03" x2="778.95" y2="861.93"/><line class="c" x1="788.65" y1="866.24" x2="778.95" y2="861.93"/><polyline class="c" points="788.65 855.72 788.65 866.24 799.49 860.98"/><polyline class="c" points="777.45 850.03 788.65 855.72 799.87 851.24 799.49 860.98"/><polyline class="c" points="742.1 851.24 743.79 861.27 760.49 870.35"/><polyline class="c" points="759 859.25 760.49 870.35 778.95 861.93"/><line class="c" x1="827.2" y1="874.16" x2="799.49" y2="860.98"/><polyline class="c" points="839.89 855.72 839.89 866.1 827.2 874.16 826.33 863.4"/><polygon class="c" points="742.1 851.24 784.36 828.84 839.89 855.72 826.33 863.4 786.93 845.29 759 859.25 742.1 851.24"/><path class="c" d="m804.93,742.2c-31.28-6.61-51.28-37.33-44.67-68.61,6.61-31.28,37.33-51.28,68.61-44.67,31.28,6.61,51.28,37.33,44.67,68.61-6.61,31.28-37.33,51.28-68.61,44.67Z"/><path class="c" d="m811.62,697.89c-1.65-.23-2.8-1.75-2.57-3.4.23-1.65,1.75-2.79,3.4-2.57,1.65.23,2.8,1.75,2.57,3.4-.23,1.65-1.75,2.79-3.4,2.57Z"/><path class="c" d="m803.73,735.37c-1.65-.23-2.8-1.75-2.57-3.4.23-1.65,1.75-2.8,3.4-2.57,1.65.23,2.8,1.75,2.57,3.4-.23,1.65-1.75,2.79-3.4,2.57Z"/><path class="c" d="m807.11,715.01l-14.28,3.13c-7.38,1.62-13.96-4.93-12.37-12.32l1.22-5.69"/><path class="c" d="m614.21,709.5c-9.83-.71-20.16-2.03-30.56-3.66-2.42-.38-4.81-.9-7.18-1.56l-7.67-2.11"/><path class="c" d="m722.48,754l8.61-17.15c1.2-2.38.06-5.28-2.44-6.22-1.97-.74-4.19,0-5.34,1.76l-7.17,11.06"/><path class="c" d="m731.51,734.16l1.77-5.94c.79-1.87,2.71-3,4.72-2.78,2.69.29,4.55,2.85,3.99,5.5l-4.82,23.06"/><path class="c" d="m742,730.94l.85-4.12c.47-2.26,2.6-3.76,4.88-3.44,2.37.33,4.03,2.5,3.73,4.88l-3.4,26.85,2.49-19.7c.28-2.22,2.25-3.82,4.48-3.64,1.97.16,3.56,1.68,3.81,3.64l1.65,12.97c.64,5.01-1.83,9.92-6.24,12.39-1.85,1.04-3.94,1.58-6.06,1.58h-19.97c-2.43,0-4.81-.72-6.84-2.06l-6.68-4.42c-1.84-1.22-3.32-2.9-4.3-4.88l-8.22-16.75-3.68-7.33-1.27-2.62"/><path class="c" d="m758.65,734.53l7.63,3.19c1.8.75,2.97,2.51,2.97,4.46,0,2.73-2.27,4.92-5,4.82l-3.94-.14"/><path class="c" d="m751.32,729.38s20.84,1.93,27.74,0"/><path class="c" d="m360.43,701.08l-49.84,24.62c-4.79,2.37-10.29,2.82-15.4,1.29l-17.73-5.33c-9.34-2.81-15.53-11.66-14.97-21.39l1.8-31.34c.51-8.83,6.39-16.43,14.81-19.14l37.59-12.11,18.48,3.4-7.3-6.93,20.97-8.68,12.78,6.7"/><path class="c" d="m264.14,671.7h-41.41l2.87-95.79,110.18,3.66c3.54.12,7.09-.02,10.62-.43l86.21-9.87"/><line class="c" x1="334.51" y1="640.44" x2="360.91" y2="631.78"/><path class="c" d="m276.85,721.46l3.03-49.18c.53-8.58,6.24-15.98,14.41-18.66l39.22-12.85"/><line class="c" x1="327.87" y1="634.14" x2="327.87" y2="639.73"/><path class="c" d="m223.11,658.85l-49.24,24.32c-4.79,2.36-10.29,2.82-15.4,1.29l-17.73-5.33c-9.34-2.81-15.53-11.66-14.97-21.39l1.8-31.34c.51-8.83,6.39-16.43,14.81-19.14l37.59-12.11,18.48,3.4-7.3-6.93,20.97-8.68,13.06,6.85"/><line class="c" x1="197.78" y1="597.91" x2="224.19" y2="589.25"/><path class="c" d="m140.13,679.11l3.03-49.36c.53-8.58,6.24-15.98,14.41-18.66l39.22-12.86"/><line class="c" x1="191.15" y1="591.61" x2="191.15" y2="597.2"/><path class="c" d="m500.42,630.85l-138.73-2.78-1.53,88.8h168.4c28.53,0,53.44-19.33,60.51-46.98,2.62-10.24,2.6-20.97-.06-31.2l-22.07-52.46"/><path class="c" d="m793.66,631.78c-21.3-75.05-67.23-77.49-67.23-77.49-12.48-2.01-60.01,2.42-71.28,4.03-11.28,1.61-30.61,2.01-41.08,1.21l-21.24-5.21c-.92-.18-8.2-2.52-9.09-2.81-1.93-.63-6-2.51-15.51-4.81,0,0-1.87-.67-2.27,4.01-.4,4.68,3.61,16.71,4.14,21.12.54,4.41,1.16,18.82.11,22.18"/><path class="c" d="m430.61,579.55c-3.54-12.1,26.87-53.1,85-41.6,20.72,4.1,35.43,7.29,45.79,9.69l4.88,1.16"/><line class="c" x1="475.59" y1="630.35" x2="455.38" y2="608.72"/><path class="c" d="m687.42,565.87l-44.05,21.7c-25.18,12.4-39.69,39.43-36.14,67.26l8.46,66.24,13.58-4.04"/><path class="c" d="m722.19,614.72l-40.66,18.64c-9.75,4.47-15.71,14.52-14.96,25.23l4.92,57.26"/><path class="c" d="m692.48,724.51c10.89.18,27.33-5.86,45.53.93"/><path class="c" d="m678.97,728.82l13.68,18.27c2.47,3.24.92,7.96-2.99,9.1-2.38.69-4.93-.19-6.37-2.2l-9.91-13.3"/><path class="c" d="m680.52,730.91h8.4c2.58,0,4.55-2.32,4.13-4.86-.31-1.89-1.85-3.32-3.76-3.49l-5.95-1.23c-3.62-.75-7.05-2.19-10.18-4.17,0,0-14.45-13.63-41.53-2.16-4.07,1.72-4.16,7.71-1.41,11.17l1.56,1.96c2.61,3.29,4.65,6.98,6.05,10.93l3.8,10.74c.83,2.33,3.15,3.78,5.61,3.5,3.21-.37,5.35-3.49,4.53-6.62l-3.18-12.15,5.19,19.91c.74,2.85,3.57,4.63,6.46,4.08,3.07-.59,5.05-3.58,4.41-6.63l-3.62-17.21,4.3,20.45c.63,2.99,3.53,4.94,6.54,4.39,3.2-.59,5.24-3.75,4.46-6.9l-4.57-18.46"/><path class="c" d="m615.69,721.08s5.27,2.93,12.83,2.74h.4"/><path class="d" d="m576.53,609.02s13.24-5.7,20.06-4.57c6.82,1.14,13.26,3.05,23.58,2.21"/><path class="d" d="m707.96,621.24s14.1,12.24,15.9,25.86c1.8,13.62-8.01,17.98-5.56,41.69,2.45,23.7-2.68,31.1-5.29,33.67"/></g></svg>