<?xml version="1.0" encoding="UTF-8"?><svg id="uuid-48b7690e-6d01-44d8-a7bd-f7ebbce9f03a" xmlns="http://www.w3.org/2000/svg" viewBox="0 0 1080 1080"><defs><style>.uuid-a6412ba5-5384-426e-b4c4-a7cd1ec1bcd7,.uuid-fc1dbfc3-bea0-4a94-ad1b-8a38c86d80c2{fill:#fff;}.uuid-247cd3ad-2497-48b4-a87c-3a225255d59b{fill:#fef9bb;}.uuid-3431a6fd-938a-496b-b085-e33296ac5035,.uuid-fbb26ad5-1147-4718-b1c3-2a2317a33947{fill:#7e6044;}.uuid-fbb26ad5-1147-4718-b1c3-2a2317a33947,.uuid-fc1dbfc3-bea0-4a94-ad1b-8a38c86d80c2,.uuid-9a1e8504-05ba-4a9b-95fd-f4ca42e2030f,.uuid-0b146d4c-edd8-41cb-a190-c2ee4c500e9f{stroke:#7e6044;stroke-linecap:round;stroke-linejoin:round;stroke-width:1.5px;}.uuid-9a1e8504-05ba-4a9b-95fd-f4ca42e2030f{fill:#e4eeff;}.uuid-0b146d4c-edd8-41cb-a190-c2ee4c500e9f{fill:none;}</style></defs><rect class="uuid-a6412ba5-5384-426e-b4c4-a7cd1ec1bcd7" x="0" width="1080" height="1080"/><g><polygon class="uuid-a6412ba5-5384-426e-b4c4-a7cd1ec1bcd7" points="231.64 564.1 226.1 561.3 173.75 541.65 176.92 533.31 197.93 479.52 217.91 484.42 218.43 483.62 207 455.41 207.78 452.26 242.09 362.28 244.89 361.99 272.4 367.52 281.92 370.48 285.62 373.3 287.02 376.56 286.76 380.32 284.74 386.41 272.75 420.02 270.11 429.16 268.53 436.84 270.22 444.65 272.69 449.3 276.2 453.59 231.64 564.1"/><polygon class="uuid-9a1e8504-05ba-4a9b-95fd-f4ca42e2030f" points="566.28 740.02 230.07 567.07 279.02 446.65 485.37 574.61 570.28 613.37 566.28 740.02"/><polygon class="uuid-fc1dbfc3-bea0-4a94-ad1b-8a38c86d80c2" points="728.14 906.98 791.05 957.46 807.19 964.85 827.1 885.94 792.98 834.05 716.92 873.15 728.14 906.98"/><path class="uuid-fc1dbfc3-bea0-4a94-ad1b-8a38c86d80c2" d="m806.85,1022.61c-.28-10.65-.74-19.8-1.81-24.03-1.82-7.18-8.57-12.55-13.98-15.69v-108.14l.5-29.33,50.41,3.26,19.15.07v74.39s-22.84,3.5-22.84,3.5l22.94,25.79.25,65.51c.07,17.53-14.09,31.79-31.62,31.86l-37.18.14-44.64.17-5.75-31.6c-2.52-9.06-1.67-21.64,7.73-22.15,10.11-.55,40.63-.73,52.76-1"/><path class="uuid-9a1e8504-05ba-4a9b-95fd-f4ca42e2030f" d="m681.93,611.81c31.7,64.83,72.06,137.39,121.97,189.69l42.74,44.79-130.85,67.01-78.65-84c-33.75-36.05-63.62-75.56-89.1-117.86l-43.99-73.01c-5.92-9.83-7.89-21.54-5.52-32.77h0s122.65-1.54,122.65-1.54l60.74,7.7Z"/><path class="uuid-fc1dbfc3-bea0-4a94-ad1b-8a38c86d80c2" d="m410.32,243.37l-2.19-26.25c-.3-6.21,4.71-11.39,10.93-11.3h0c5.26.08,9.69,3.93,10.5,9.12l6.8,43.67-7.49,40.29-49.7-20.23-10.16-9.98c-9.38-9.21-17.19-19.89-23.12-31.62l-1.27-2.52,16.8-21.22,36.9-20.27,16.81,10.77"/><path class="uuid-fc1dbfc3-bea0-4a94-ad1b-8a38c86d80c2" d="m476.98,458.06c-1.7-10.09-5.35-19.77-10.74-28.49l-94.42-152.56,78.38-27.06,85.18,114.68,102.89,102.65-134.11,56.84-27.18-66.07Z"/><path class="uuid-fc1dbfc3-bea0-4a94-ad1b-8a38c86d80c2" d="m591.34,332.76l47,29.65,71.46,217.17-10.17,20.16c-3.55,11.04-13.03,19.13-24.48,20.92l-.82.13c-1.4.22-2.81.34-4.22.36l-152.38,2.5c-14.08,1.04-26.28-9.65-27.11-23.74l-10.89-143.85"/><path class="uuid-fc1dbfc3-bea0-4a94-ad1b-8a38c86d80c2" d="m576.66,550.56l35.91-62.78-10.99-10.57h0c-5.94-6.54-10.87-13.92-14.63-21.91l-1.78-3.79-32.73-16.29-42.54,56.95"/><g><path class="uuid-fc1dbfc3-bea0-4a94-ad1b-8a38c86d80c2" d="m568.5,458.37l-24.27,40.9c-3.6,6.07-10.83,8.98-17.63,7.09l-45.26-12.54c-4.69-1.47-8.03-5.62-8.47-10.51l-.39-4.37c-.14-1.56.02-3.13.48-4.63l12.64-41.44c1.37-4.49.12-9.39-3.3-12.6-4.84-4.54-6.78-11.76-4.14-18.49.1-.25.2-.49.31-.74,3.98-8.86,15.02-11.99,23.3-6.92l9.81,6.01s27.65,12.38,36.81,13.92c5.3.89,15.03.82,20.52,1.17,1.46.09,2.91.34,4.32.75l.09.02c6.73,1.93,12.01,7.16,14,13.87l2.08,7c1.18,3.99.48,8.36-2.1,11.61-2.95,3.72-7.36,6.03-12.09,6.35-2.69.18-5.12,1.5-6.7,3.54"/><path class="uuid-0b146d4c-edd8-41cb-a190-c2ee4c500e9f" d="m578.25,418.18c4.81,3.51,9.23,9.81,8.09,16.1-.05.26-.1.52-.16.79-1.74,7.53-8.16,12.58-15.31,13.05-3.24.21-6.09,2.08-7.56,4.88h0l-22.62,40.39c-3.4,6.08-10.45,9.13-17.21,7.47h0s-36.11-11.14-36.11-11.14c-2.27-.7-4.38-1.81-6.25-3.27h0c-3.19-2.51-5.5-5.95-6.62-9.85l-1.11-3.87"/></g><g><path class="uuid-fc1dbfc3-bea0-4a94-ad1b-8a38c86d80c2" d="m537.92,496.47c-3.65-3.99-10.08-3.52-13.11.97h0c-2.13,3.15-1.86,7.33.64,10.19l8.17,9.33c8.67,9.91,18.21,19.03,28.49,27.25l3.61,2.88,28.59-1.68"/><path class="uuid-fc1dbfc3-bea0-4a94-ad1b-8a38c86d80c2" d="m581.22,471.59l-19.19-19.4c-3.81-3.85-10.21-3.13-13.06,1.47h0c-2,3.23-1.58,7.4,1.03,10.16l20.25,22.79"/><path class="uuid-fc1dbfc3-bea0-4a94-ad1b-8a38c86d80c2" d="m573.51,485.75l-19.19-19.4c-3.81-3.85-10.21-3.13-13.06,1.47h0c-2,3.23-1.58,7.4,1.03,10.16l18.19,23.98"/><path class="uuid-fc1dbfc3-bea0-4a94-ad1b-8a38c86d80c2" d="m553.67,514.64l-19.62-22.7c-2.5-2.86-2.76-7.04-.64-10.19h0c3.03-4.49,9.45-4.96,13.11-.97l18.43,20.12"/></g><path class="uuid-fc1dbfc3-bea0-4a94-ad1b-8a38c86d80c2" d="m680.43,537.33l-68.96-59.34-49.23,73.97,64.22,50.34c.35.28.71.55,1.07.82,15.16,11.39,35.06,14.33,53.03,8.3l20.13-6.76c15.27-5.13,27.74-16.35,34.43-31h0c9.82-21.48,13.11-45.37,9.48-68.71l-5.46-35.06c-.09-.56-.18-1.11-.27-1.67-5.71-33.5-26.94-62.33-56.94-78.3l-43.18-23"/><circle class="uuid-fc1dbfc3-bea0-4a94-ad1b-8a38c86d80c2" cx="585.77" cy="330.94" r="64.05"/><line class="uuid-0b146d4c-edd8-41cb-a190-c2ee4c500e9f" x1="659.05" y1="518.94" x2="650.24" y2="454.86"/><line class="uuid-0b146d4c-edd8-41cb-a190-c2ee4c500e9f" x1="184.49" y1="545.66" x2="208.03" y2="482.59"/><line class="uuid-0b146d4c-edd8-41cb-a190-c2ee4c500e9f" x1="213.13" y1="469.07" x2="253.33" y2="364.31"/><path class="uuid-0b146d4c-edd8-41cb-a190-c2ee4c500e9f" d="m275.24,452.22c-3.5-4.34-7.39-10.96-6.61-17.51,1.02-8.6,12.41-36.6,17.99-53.91,2.57-7.97-7.61-12.7-15.95-13.5l-28.1-5.31-35.37,93.14,10.84,28.77-20.1-4.38-23.76,61.83,58.57,22.75"/><g><path class="uuid-247cd3ad-2497-48b4-a87c-3a225255d59b" d="m384.06,125.11c-45.66-13.75-49.09-12.2-68.99,31.13,13.75-45.66,12.2-49.09-31.13-68.99,45.66,13.75,49.09,12.2,68.99-31.13-13.75,45.66-12.2,49.09,31.13,68.99Z"/><path class="uuid-3431a6fd-938a-496b-b085-e33296ac5035" d="m315.07,157c-.09,0-.18-.02-.27-.05-.37-.14-.57-.54-.45-.92,13.62-45.21,12.18-48.39-30.73-68.09-.36-.16-.53-.58-.39-.95.14-.37.54-.57.92-.45,45.21,13.62,48.39,12.18,68.09-30.73.17-.36.58-.53.95-.39.37.14.57.54.45.92-13.61,45.21-12.18,48.39,30.73,68.09.36.16.53.58.39.95-.14.37-.54.57-.92.45-45.21-13.62-48.39-12.18-68.09,30.73-.13.27-.4.44-.68.44Zm-21.81-66.21c32,15.3,35.03,22.02,25.33,56.14,15.3-32,22.03-35.03,56.14-25.34-32-15.3-35.03-22.03-25.34-56.14-15.29,32-22.03,35.03-56.14,25.34Z"/></g><g><path class="uuid-247cd3ad-2497-48b4-a87c-3a225255d59b" d="m327.97,255.01c-28-8.43-30.1-7.48-42.3,19.09,8.43-28,7.48-30.1-19.09-42.3,28,8.43,30.1,7.48,42.3-19.09-8.43,28-7.48,30.1,19.09,42.3Z"/><path class="uuid-247cd3ad-2497-48b4-a87c-3a225255d59b" d="m327.97,255.01c-28-8.43-30.1-7.48-42.3,19.09,8.43-28,7.48-30.1-19.09-42.3,28,8.43,30.1,7.48,42.3-19.09-8.43,28-7.48,30.1,19.09,42.3Z"/><path class="uuid-3431a6fd-938a-496b-b085-e33296ac5035" d="m285.67,274.85c-.09,0-.18-.02-.27-.05-.37-.14-.57-.54-.45-.92,8.36-27.76,7.66-29.31-18.68-41.4-.36-.16-.53-.58-.39-.95.14-.37.54-.57.92-.45,27.76,8.36,29.31,7.66,41.4-18.68.17-.36.58-.53.95-.39.37.14.57.54.45.92-8.36,27.76-7.66,29.31,18.68,41.4.36.16.53.58.39.95-.14.37-.54.57-.92.45-27.76-8.36-29.31-7.66-41.4,18.69-.13.27-.4.44-.68.44Z"/><path class="uuid-247cd3ad-2497-48b4-a87c-3a225255d59b" d="m275.26,235.08c16.26,8.1,18.37,12.79,13.69,30.34,8.1-16.25,12.79-18.37,30.34-13.69-16.26-8.1-18.37-12.79-13.69-30.34-8.1,16.26-12.8,18.37-30.34,13.69Z"/></g><g><polyline class="uuid-fc1dbfc3-bea0-4a94-ad1b-8a38c86d80c2" points="702.72 186.79 660.63 325.91 521.7 283.87 563.79 144.76"/><path class="uuid-fc1dbfc3-bea0-4a94-ad1b-8a38c86d80c2" d="m713.05,159.78c-7.45-2.25-15.02-1.66-21.39,1.12-3.76-4.85-9.16-8.69-15.68-10.67-6.66-2.01-13.42-1.75-19.32.31-3.77-4.99-9.25-8.96-15.91-10.97-5.83-1.77-11.75-1.79-17.1-.38-3.67-4.14-8.6-7.4-14.44-9.17-6.66-2.01-13.42-1.75-19.32.31-3.77-4.99-9.25-8.96-15.91-10.97-15.67-4.74-31.91,3.09-36.27,17.5-4.36,14.41,4.81,29.93,20.49,34.67,6.66,2.01,13.42,1.75,19.32-.31,3.77,4.99,9.25,8.96,15.91,10.97,5.83,1.77,11.75,1.79,17.1.38,3.67,4.14,8.6,7.4,14.44,9.17,6.66,2.01,13.42,1.75,19.32-.31,3.77,4.99,9.25,8.96,15.91,10.97,7.45,2.25,15.02,1.66,21.39-1.12,3.76,4.85,9.16,8.69,15.68,10.67,15.67,4.74,31.91-3.09,36.27-17.5,4.36-14.41-4.81-29.93-20.49-34.67Z"/><line class="uuid-fc1dbfc3-bea0-4a94-ad1b-8a38c86d80c2" x1="582.86" y1="200.36" x2="559.66" y2="277.05"/><line class="uuid-fc1dbfc3-bea0-4a94-ad1b-8a38c86d80c2" x1="652.53" y1="227.33" x2="631.68" y2="296.23"/></g><line class="uuid-0b146d4c-edd8-41cb-a190-c2ee4c500e9f" x1="849.16" y1="849.52" x2="849.59" y2="924.28"/><path class="uuid-0b146d4c-edd8-41cb-a190-c2ee4c500e9f" d="m849.38,939.13l.02,71.78h0c-.07,14.96-12.18,27.07-27.14,27.13l-76.37.29"/><g><circle class="uuid-fbb26ad5-1147-4718-b1c3-2a2317a33947" cx="586.39" cy="318.93" r="3.34"/><circle class="uuid-fbb26ad5-1147-4718-b1c3-2a2317a33947" cx="545.03" cy="309.02" r="3.34"/><path class="uuid-0b146d4c-edd8-41cb-a190-c2ee4c500e9f" d="m564.06,313.57l-9.89,12.76c-5.14,6.63-1.72,16.35,6.43,18.3l6.27,1.5"/></g><path class="uuid-fc1dbfc3-bea0-4a94-ad1b-8a38c86d80c2" d="m422.92,212.21l-32.84,34.49c-4.84,5.08-12.48,6.29-18.65,2.96l-41.38-22.37c-4.24-2.48-6.57-7.27-5.91-12.14l.6-4.35c.21-1.55.72-3.05,1.5-4.4l21.58-37.57c2.33-4.06,2.23-9.11-.38-12.99-3.72-5.51-4.01-13,.08-18.97.15-.22.31-.44.47-.65,5.86-7.74,17.32-8.33,24.26-1.54l8.22,8.05s24.19,18.25,32.77,21.79c4.96,2.05,14.47,4.16,19.74,5.73,1.41.42,2.76.99,4.04,1.69l.08.04c6.13,3.38,10.11,9.66,10.55,16.65l.46,7.29c.26,4.15-1.4,8.25-4.65,10.85-3.7,2.96-8.52,4.24-13.21,3.49-2.66-.43-5.32.32-7.33,1.96"/><path class="uuid-0b146d4c-edd8-41cb-a190-c2ee4c500e9f" d="m325.89,207.36c-2.09,8.98,3.59,14.23,11.31,18.37l33.02,17.17c6.29,3.27,14.01,1.8,18.65-3.56l19.26-22.23,10.93-11.3c2.06-2.39,5.26-3.58,8.46-3.06,7.08,1.14,14.46-2.35,17.84-9.3.12-.24.23-.49.33-.73,2.52-5.88-.38-13.01-4.29-17.5"/><g><path class="uuid-247cd3ad-2497-48b4-a87c-3a225255d59b" d="m472.61,194.83c-20.32-25.41-22.85-25.87-50.81-9.23,25.41-20.32,25.87-22.85,9.23-50.81,20.32,25.41,22.85,25.87,50.81,9.23-25.41,20.32-25.87,22.85-9.23,50.81Z"/><path class="uuid-247cd3ad-2497-48b4-a87c-3a225255d59b" d="m472.61,194.83c-20.32-25.41-22.85-25.87-50.81-9.23,25.41-20.32,25.87-22.85,9.23-50.81,20.32,25.41,22.85,25.87,50.81,9.23-25.41,20.32-25.87,22.85-9.23,50.81Z"/><path class="uuid-3431a6fd-938a-496b-b085-e33296ac5035" d="m472.61,195.58c-.22,0-.44-.1-.59-.28-20-25-22.33-25.43-49.84-9.05-.34.2-.78.11-1-.22-.22-.32-.16-.77.15-1.01,25-20,25.43-22.33,9.05-49.84-.2-.34-.11-.78.22-1,.32-.22.77-.16,1.01.15,20,25,22.33,25.43,49.84,9.05.34-.2.78-.1,1,.22.22.32.16.77-.15,1.01-25,20-25.43,22.33-9.05,49.84.2.34.11.78-.22,1-.13.09-.28.13-.43.13Z"/><path class="uuid-247cd3ad-2497-48b4-a87c-3a225255d59b" d="m447.73,173.48c6.47,0,11.63,4.28,19.49,13.57-10.33-18.48-9.33-23.98,6.84-37.65-18.48,10.33-23.98,9.33-37.65-6.84,10.33,18.48,9.33,23.98-6.84,37.65,7.86-4.39,13.37-6.74,18.16-6.74Z"/></g></g></svg>