<?xml version="1.0" encoding="UTF-8"?><svg id="b" xmlns="http://www.w3.org/2000/svg" viewBox="0 0 1000 1000"><defs><style>.c{fill:none;stroke:#211915;stroke-linecap:round;stroke-linejoin:round;}.d{fill:#eaecea;}.e{fill:#fdd1a6;}.f{fill:#e4d4d2;}.g{fill:#fff;}.h{fill:#fffaa5;}.i{fill:#fdf9a7;}.j{fill:#dc9eb2;}.k{fill:#2bc670;}</style></defs><polygon class="f" points="0 0 .06 1000 1000 1000 1000 0 0 0"/><polygon class="k" points="90.65 610.86 87.01 609.7 80.07 608.71 75.93 608.34 69.48 608.54 64.19 609.6 56.75 611.52 46.5 615.98 38.39 621.44 32.44 626.24 29.3 629.87 27.48 634.17 25.44 636.23 .04 668 .06 1000 365.7 1000 371.49 993.47 410.56 949.5 408.43 937.9 394.7 875.29 90.65 610.86"/><polygon class="d" points="451.39 716.67 244.03 598.64 247.88 574.31 253.37 553.43 257.97 541.06 264.39 527.3 272.64 513.35 278.15 504.92 286.96 492.03 294.26 481.34 300.68 471.44 303.11 465.87 304.63 460.37 305.32 454.61 305.49 449.34 304.48 442.74 302.52 436.68 300.07 431.21 294.96 424.03 291.03 420.13 291.99 420 293.64 417.47 409.71 251.92 720.2 302.58 641.96 433.5 630.73 447.89 628.7 450.3 597.75 503.8 451.39 716.67"/><path class="g" d="m33.11,663.17l2.63-2.2,8.23-6.87,11.43-9.55,13.28-11.09,9.14-7.79,5.36-5.21,5.8-6.44,3.87-4.88,4.3-5.67,6.98-9.22,2.03-2.68,1.63-2.8,6.57-11.31,9.16-15.77,11.06-19.28,15.44-26.35,8.64-14.73,7.17-10.8,7.53-9.96,7.72-9.04,7.08-7.44,8.51-8.07,11.57-10.64s12.6-11.58,13.32-12.24,10.64-9.79,10.64-9.79l5.77-5.05,5.71-3.64,4.78-2.17,5.83-1.73,8.68-1,6.65.46,7.04,1.68,7.54,3.36,6.85,4.87,3.93,3.9,5.11,7.18,3.72,8.82.7,2.71.83,5.34v6.52l-.68,5.76-1.53,5.5-2.43,5.57-4.53,7.13-1.89,2.76-7.3,10.69-8.81,12.89-8.71,13.32-5.06,9.06-6.42,13.76-4.6,12.37-3.38,11.56-2.11,9.31-1.62,9.51-2.22,14.82,121.32,69.36,86.04,48.67,97.36-141.24,4.87-2.48,7.68-2.37,7.16-.76,7.89.7,7.92,2.4,6.21,3.28,5.76,4.5,5.4,6.25,2.79,4.64,2.41,5.8,1.49,6.29.46,7.23-.64,5.9-1.64,6.15-1.57,3.79-1.78,3.22-3.56,5.29-57.25,85.03-5.29,7.86-5.52,8.19-3.76,5.58-4.77,7.04-4,5.69-9.93,13.27-10.85,13.23-6.21,7.06-4.57,4.97-5.94,6.21-10.46,10.3-16.57,15.27-6.22,5.71-5.49,5.04-6.98,6.41-12.95,11.89-28.16,25.84-48.5,44.51-4.27-2.45-12.16-7.3-27.31-17.84-17.23-12.09-29.11-21.57-37.95-29.85-24.59-20.21-38.44-32.73-40.72-35.99-38.52-35.2-11.45-10.69-12.43-12.12-9.19-9.88-5.66-7.81-4.04-5.5Z"/><path class="g" d="m1000,167.37l-7.92-8.82-6.38-5.57-8.15-6.49-5.22-4.07-7.13-4.33-9.04-4.2-10.57-3.82-8.28-1.27-1.69.38-7.22,5.22-12.12,8.62-2.54,2.28-5.31,2.48-12.9,6.1-6.65,2.54-8.58,2.63-14.95,3.32-11.75,2.16-19.68,2.86-16.43,1.12-16.19,1.38-60.21,4.43-30.63,2.43-23.67,1.77h-22.72l-19.86-.77-29.97-1.88-11.61-1h-8.52l-13.71.88-12.39,1.55-12.6,2.7-7.99,2.36-38.1,14.4-18.07,6.55-5.11,2.36-6.02,5.24-4.19,5.37-2.09,5.5-1.31,5.37-.3,5.89,1.08,6.55,1.57,4.71,2.75,4.06,3.93,4.98,3.54,3.01,4.06,2.62,5.89,1.96,3.8.65,3.14.12h2.49l4.19-.52,4.45-1.18,23.04-8.51,8.22-2.75,11.68-3.8,9.03-2.49,9.3-1.96,9.65-1.39-1,1.52-5.37,3.8-5.49,3.99-8.24,6.43-12.85,11.86-7.41,7.25-10.38,12.19-9.24,11.83-13.82,17.66-8.9,11.2-6.43,7.74-5.11,6.76-4.12,5.11-2.8,4.28-1.3,3.95-2,5.93-.33,5.11v9.56l1.65,6.76,2.47,6.26,3.13,4.61,3.62,5.11,4.36,3.93-.5,2.6-.64,6.3.44,7,1.6,6.7,1.9,5.1,4,6.6,6.28,7.21,6.02,4.5,4.56,2.37,9.64,3.03,5.77.79,6.94-.05,11.4-2.94,3.15,4.29,5.63,5.49,5.22,3.88,5.63,2.81,4.96,1.88,3.21.94,5.36.4,3.75.27,7.63-.8,3.88-.94,4.15-1.74,5.09-2.41,3.75-2.28,3.62-3.08,3.21-3.88,3.75-4.02,3.88-3.62,21.29-22.28,9.63-9.78,7.1-7.1,6-5.36,6.15-5.21,8.36-6.23,7.28-5.42,11.92-8.2,27.86-18.88,5.88-4.33,5.11-2.17,5.11-.77h5.94s6.91,1.7,6.91,1.7l5.73,2.17,5.88,2.63,3.94,2.68,3.79,3.08,4.13,6.1,2.15,5.38.9,5.38-.36,7.54-2.51,7.36-3.52,5.32-3.3,3.11-5.2,3.59-6.1,3.77-5.74,3.23-8.97,4.84-6.64,3.59-11.84,5.02-12.49,4.75-28.71,9.13-23.9,7.81-9.37,3.12-5.17,2.28-3.12,2.04-5.29,4.08-4.8,5.17-2.54,3.64-3.71,7.17-2.04,6.85-.72,8.17.72,5.77,1.32,6.73,2.64,5.65,3.48,6.01,3.48,4.32s5.05,4.2,5.41,4.56,5.41,3.36,5.41,3.36l8.29,3.48,8.41,1.58h5.77l3.84-.62,5.65-1.2,81.84-23.94,27.02-7.72,22.64-7.2,12.1-5.08,16.46-7.52,18.37-9.61,22.78-13.96,14.68-10.73,12.99-10.05,12.53-9.82,7-5.87,9.26-6.32,8.13-4.86,6.44-3.39,9.71-4.29,10.05-3.73,9.37-2.82,11.44-2.24v-226.4Z"/><polygon class="k" points="1000 167.37 989.36 156.32 982.84 150.71 968.29 139.76 965.2 138.09 956.16 133.89 951.37 131.75 942.45 129.38 936.19 128.54 916.28 143.01 911.5 146.34 903.91 149.9 896.91 153.22 882.65 158.26 870.93 161.11 865.35 162.35 867.76 159.28 873.85 152.51 881.98 145.63 892.7 138.52 902.74 133.78 916.52 128.79 924.74 125.88 1000.08 100.38 1000 167.37"/><polyline class="i" points="468.28 603.12 477.54 610.69 486.96 614.95"/><polyline class="h" points="546.27 588.8 576.51 665.35 540.7 631.84 498.63 724.74 480.19 638.48 415.92 675.71 438.04 597.08 377.34 585.86 445.09 548.88 415.67 510.91 471.05 524.85 471.32 500.94 501.72 530.52 522.11 511.66 522.9 556.39 534.8 559.51 586.15 561.91 545.96 587.98"/><polygon class="e" points="733.36 359.87 606.12 471.23 531.32 536.49 519.15 547.2 515.99 549.9 510.92 552.61 503.48 555.08 498.3 556.1 492.66 557.23 488.94 558.8 483.65 564.33 481.62 568.61 480.61 572.44 480.72 576.95 482.39 582.53 485.56 587.2 490.3 590.92 496.04 592.84 501.34 594.25 506.07 594.25 510.24 592.84 513.17 591.6 515.99 589.23 518.92 585.74 520.5 581.68 523.2 575.93 525.34 571.88 527.82 568.27 532.11 562.86 536.16 558.8 763.14 355.01 761.34 354.06 759.35 353.23 754.3 352.31 751.25 352.59 746.62 353.02 741.82 354.44 737.46 356.5 733.36 359.87"/><polygon class="j" points="518.02 548.49 525.75 547.66 525.84 554.08 534.14 552.27 534.8 559.51 530.69 564.53 527.82 568.27 525.34 571.88 522.03 578.43 521.06 580.82 519.67 584.35 518.02 586.8 515.99 589.23 513.17 591.6 509.3 593.16 507.08 593.9 504.94 594.14 501.34 594.25 496.8 593.4 490.3 590.92 485.56 587.2 482.87 583.49 481.01 578.43 480.61 572.44 481.24 569.82 482.73 565.84 484.46 562.96 486.6 560.74 488.94 558.8 492.66 557.23 495.56 556.55 500.91 555.73 506.17 554.74 510.21 553.01 513.66 550.95 518.02 548.49"/><line class="i" x1="503.46" y1="616.08" x2="511.19" y2="613.91"/><line class="c" x1="478.27" y1="507.27" x2="518.16" y2="450.31"/><line class="c" x1="466.45" y1="524.15" x2="470.62" y2="518.19"/><polyline class="c" points="486.23 666.09 451.39 716.67 365.7 668 418.05 593.24"/><line class="c" x1="599.07" y1="502.25" x2="558.73" y2="560.82"/><path class="c" d="m763.14,354.66l-226.87,204.08c-6.14,5.53-11,12.34-14.22,19.94l-1.79,4.24c-3.61,8.53-12.96,13.09-21.91,10.68l-3.99-1.07c-8.08-2.17-13.7-9.48-13.74-17.84h0c-.04-9.18,6.64-17.02,15.71-18.43l4.87-.76c6.7-1.04,12.97-3.96,18.08-8.43l217.23-189.78"/><path class="c" d="m683.98,287.72c-.57-1.82-56.08,42.08-56.08,42.08-7.33,5.83-13.87,11.77-20.46,18.49l-50.42,51.42c-17.98,19.26-14.21,50.09,7.88,64.45h0c16.95,11.02,39.33,8.54,53.45-5.94l36.25-38.09c11.62-12.21,24.48-23.2,38.36-32.77l43.55-30.05c7.83-5.4,17.89-6.4,26.63-2.64l9.11,3.92c20.96,9.01,22.6,38.1,2.79,49.42l-20.47,11.69c-9.07,5.18-18.65,9.43-28.58,12.67l-65.99,21.52c-16.4,6.43-27.53,22.38-27.02,40.19.3,10.44,4.47,20.89,12.91,28.99h0c10.85,10.42,26.45,14.23,40.89,10l111.71-32.72c38.66-11.32,74.8-29.92,106.49-54.79l27.88-21.88c.89-.7,1.79-1.39,2.7-2.07,19.2-14.4,41.32-23.74,64.43-27.82"/><path class="c" d="m551.71,451.01c-11.47,4.66-24.76,4.21-36.24-2.04h0c-23.14-12.6-29.29-43.04-12.87-63.64l46.27-55.19c15.05-17.95,32.73-33.44,52.4-45.96,0,0,63.06-41.84,108.76-54.38"/><path class="c" d="m494.49,401.93c-17.28-14.05-20.91-39.77-6.83-58.34l44.9-56.3c20.44-25.63,46.15-46.56,75.39-61.37,0,0,57.61-32.69,81.17-31.93"/><path class="c" d="m585.24,238.95c-12.58,1.36-25,4.17-37.01,8.42l-34.94,12.35c-13.55,5.11-28.81-.07-36.46-12.36h0c-9.96-16.01-3.06-37.14,14.44-44.18l48.29-18.04c21.98-8.21,45.47-11.6,68.87-9.94l31.99,2.27c21.15,1.5,42.39,1.44,63.53-.21l121.08-9.4c3.57-.28,7.14-.6,10.71-.97,13.96-1.44,27.79-3.89,41.42-7.2,10.07-2.45,19.82-6.08,29.04-10.81h0c5.3-2.71,10.37-5.83,15.18-9.34l14.79-11.02"/><polyline class="c" points="291.47 420.51 409.59 251.85 544.39 273.6"/><line class="c" x1="365.7" y1="668" x2="244.38" y2="598.84"/><path class="c" d="m244.03,668c-1.44-7.84-1.34-34.49-1.13-50.58.1-8.15.76-16.29,1.97-24.35l1.58-10.57c3.94-26.28,13.77-51.33,28.76-73.27l22.95-33.59c11.92-17.45,9.06-41.03-6.68-55.13h0c-16.15-14.47-40.65-14.31-56.61.37l-40.53,37.27c-15.24,14.01-28.27,30.24-38.67,48.14l-47.23,81.35c-1.52,2.61-3.19,5.13-5.02,7.54l-10.79,14.25c-5.5,7.27-11.82,13.89-18.81,19.74l-40.36,33.71"/><path class="c" d="m574.01,570.14c6.97.9,13.79,3.68,19.73,8.39h0c15.32,12.16,19.53,33.66,9.92,50.71l-78.46,116.54c-16.74,24.86-36.35,47.67-58.43,67.94l-120.58,110.66"/><path class="c" d="m395.59,879.1l15.3,70.04c-80.11-5.08-289.03-196.53-351.33-255.23-11.63-10.96-21.81-23.35-30.31-36.89h0c-6.54-10.41-4.47-24.01,4.84-32.04,11.77-10.15,30.08-20.38,53.06-15.28l4.41,1.16"/><line class="c" x1="410.88" y1="949.14" x2="365.7" y2="1000"/><line class="c" x1="27.77" y1="633.32" y2="668"/><path class="c" d="m865.35,162.34s59.26-80.17,134.65,5.03"/><line class="c" x1="910.28" y1="130.92" x2="1000" y2="100.38"/><line class="c" y1="180.63" x2="553.55" y2="180.63"/><line class="c" x1="755.4" y1="361.78" x2="777.85" y2="361.78"/><line class="c" x1=".06" y1="361.78" x2="332.52" y2="361.78"/><line class="c" x1="571.36" y1="542.41" x2="1000.03" y2="542.41"/><line class="c" x1=".03" y1="542.41" x2="134.56" y2="542.41"/><line class="c" x1="539.94" y1="723.89" x2="1000.08" y2="723.89"/><line class="c" x1="401.25" y1="905.04" x2="1000.03" y2="905.04"/><line class="c" x1="304.86" x2="305.49" y2="180.63"/><line class="c" x1="689.11" y1="723.89" x2="689.11" y2="542.41"/><line class="c" x1="454.49" y1="825" x2="454.49" y2="905.04"/><line class="c" x1="139.04" y1="180.63" x2="139.04" y2="361.78"/><line class="c" x1="545.96" y1="560.31" x2="562.93" y2="534.76"/><polyline class="c" points="433.61 596.26 386.79 662.83 451.32 702.78 483.69 654.05"/><line class="c" x1="533.6" y1="454.09" x2="488.89" y2="517.67"/><path class="c" d="m322.1,443.44s36.89-5.69,51.64-22.93,13.12-65.25,60.66-78.54c47.54-13.29,74.81-25.41,74.81-25.41"/><path class="c" d="m322.1,534.76s55.05,3.78,77.23-34.76c22.19-38.53,58.57-67.82,69.22-66.93"/><polyline class="c" points="522.39 544.34 522.25 511.56 501.76 530.66 470.57 499.87 470.8 525.29 414.35 510.51 445.28 548.79 376.76 585.88 438.43 596.77 415.71 675.91 480.34 638.2 498.57 725.4 540.74 632.27 577.18 666.33 546.02 588.23 586.15 561.91 535.04 559.88 534.45 552.22 525.8 554.16 525.8 547.54 517.58 548.47"/><line class="c" x1="643.95" y1="431.31" x2="625.67" y2="454.14"/></svg>