<?xml version="1.0" encoding="UTF-8"?><svg id="a" xmlns="http://www.w3.org/2000/svg" viewBox="0 0 1080 1350"><defs><style>.c{fill:#e8e6e2;}.d{fill:#34ff7f;}.d,.e,.f,.g,.h,.i{stroke-linecap:round;stroke-linejoin:round;stroke-width:2px;}.d,.e,.g,.h,.i{stroke:#000;}.e{fill:#c0a0fb;}.f{stroke:#1d1d1b;}.f,.g{fill:#fff;}.h{fill:#fce855;}.i{fill:none;}</style></defs><rect class="c" x="-2159.96" y="-4.19" width="4327.15" height="1349.92"/><circle class="f" cx="1116.62" cy="963.06" r="129.21"/><path class="g" d="m984.12,503.39l-16.98-27.51c-5.89-9.54-18.54-12.23-27.8-5.92h0c-7.01,4.78-10.16,13.52-7.81,21.67h0c3.92,13.64,6.2,28.51,6.77,42.68l9.15,1.49"/><path class="g" d="m984.22,581.43h161.01v15.16c0,5.19-4.21,9.4-9.4,9.4h-142.21c-5.19,0-9.4-4.21-9.4-9.4v-15.16h0Z" transform="translate(-115.18 287.2) rotate(-14.58)"/><path class="h" d="m1139.57,561.65l-155.8,40.36-40.79-167.16c-1.37-5.62,2.03-11.3,7.64-12.73l129.43-33.11c5.55-1.42,11.22,1.84,12.77,7.35l46.76,165.29Z"/><ellipse class="h" cx="970.39" cy="440.45" rx="13.42" ry="11.47" transform="translate(-79.63 258.51) rotate(-14.58)"/><ellipse class="h" cx="978.13" cy="469.15" rx="13.42" ry="11.47" transform="translate(-86.61 261.38) rotate(-14.58)"/><path class="h" d="m1100.19,486.89l-64.5,15.87c-3.75.92-7.55-1.34-8.52-5.08l-19.14-73.54c-.99-3.79,1.31-7.67,5.11-8.63l63.17-15.93c3.72-.94,7.5,1.26,8.53,4.96l20.47,73.6c1.07,3.84-1.25,7.8-5.12,8.75Z"/><path class="g" d="m966.87,534.34l26.69-12.71c7.53-4.24,10.92-13.29,8.04-21.43h0c-3.34-9.45-13.83-14.27-23.18-10.66l-27.22,13.07c-3.54,1.7-6.8,3.93-9.67,6.61h0c-8.89,8.3-13.35,20.3-12.06,32.4l1.59,14.86,7.75,34.65,35.46-8.49"/><path class="g" d="m951.69,530.44l32.56-15.64c9.35-3.61,19.84,1.21,23.18,10.66h0c2.88,8.15-.51,17.19-8.04,21.43l-26.69,12.71"/><path class="g" d="m963.99,579.66l-22.3-19.41c-6.89-5.21-16.54-4.72-22.86,1.18h0c-7.33,6.83-7.57,18.37-.53,25.51l16.78,14.62c14.3,12.45,33.51,17.67,52.15,14.16h0s-8.01-32.12-8.01-32.12l25.56-12.59c7.53-4.24,10.92-13.29,8.04-21.43h0c-3.34-9.45-13.83-14.27-23.18-10.66l-32.56,15.64"/><rect class="g" x="1046.04" y="590.08" width="32.33" height="9.24" rx="4.62" ry="4.62" transform="translate(-115.51 286.6) rotate(-14.58)"/><path class="g" d="m464.57,950.62c9.79,3.96,23.95,7.38,35.41,2.38,15.05-6.57,59.61-42.63,87.96-62.28,13.06-9.05,27.23,6.84,33.26,21.53l25.09,48.09-149.61,115.38-58.16-3.86,18.99,34.07-99.16,77.09-73.48-93.8"/><line class="g" x1="345.32" y1="1166.29" x2="447.3" y2="1088.58"/><line class="g" x1="466.78" y1="1073.62" x2="636.15" y2="942.07"/><rect class="d" x="81.43" y="528.52" width="256.87" height="546.62" transform="translate(-449.25 299.31) rotate(-38.01)"/><path class="g" d="m-54.23,1143.6c-.46-17.62-1.22-32.77-3-39.76-3.02-11.88-14.18-20.78-23.13-25.97v-178.94l.83-48.54,83.42,5.39,31.68.12v123.1s-37.8,5.79-37.8,5.79l37.97,42.68.41,108.39c.11,29-23.31,52.6-52.32,52.71l-61.52.23-73.87.28-9.51-52.3c-4.17-15-2.76-35.81,12.79-36.66,16.72-.91,67.24-1.21,87.3-1.65"/><line class="i" x1="15.78" y1="857.18" x2="16.49" y2="980.9"/><path class="i" d="m16.14,1005.46l.04,118.78h0c-.11,24.76-20.16,44.8-44.91,44.89l-126.37.48"/><path class="d" d="m103.86,405.72l186.32,231.48-179.7,102.1c-53.02,30.14-120.52,20.24-161.04-25.35"/><path class="g" d="m465.94,290.28c5.88-8.77,12.12-21.93,9.56-34.17-3.36-16.08-29.55-67.06-43-98.83-6.2-14.63,12.25-25.26,27.87-28.16l52.2-14.73,82.38,170.02-15.66,56.15,37.23-11.63,55.21,112.82-106.83,52.77"/><line class="g" x1="652.7" y1="451.08" x2="597.46" y2="335.38"/><line class="g" x1="586.8" y1="313.25" x2="492.63" y2="120.58"/><polyline class="d" points="91.19 453.3 458.11 270.39 571.6 500.83 128.87 729.01"/><path class="i" d="m742.04,209.07s29.49,237.29-140.91,358.3"/><polygon class="e" points="231.75 247.77 -140.99 485.16 -211.9 353.5 153.69 107.89 231.75 247.77"/><path class="e" d="m-177.99,273.49c-63.97,52.54-69.79,177.35-10.82,252.15l115.3,175.15c6.95,10.56,20.04,15.22,32.13,11.52,5.74-1.76,12.14-4.05,18.54-6.97,24.06-10.99,69.43-30.27,115.61-87.88,23.9-29.82,26.01-53.2,26.01-53.2"/><polyline class="e" points="-26.3 340.56 254.54 448.96 198.97 595.8 -42.28 503.41"/><path class="g" d="m231.09,207.06l-17.43,8.3-48.9-87.65c-1.7-14.09-2.75-29.12-7.74-42.41h0c-2.99-7.94-.54-16.9,6.07-22.22h0c8.73-7.03,21.56-5.35,28.18,3.69l19.1,26.08"/><path class="g" d="m876.58,642.46c-10.44-1.59-24.36-5.88-31.66-16.04-9.58-13.34-29.48-67.09-43.82-98.47-6.6-14.45-26.9-8.03-39.59,1.52l-46.13,28.53,69.7,175.6,51.98,26.38-33.73,19.59,45.89,116.92,111.08-43.12"/><line class="g" x1="868.96" y1="888.78" x2="820.98" y2="769.89"/><line class="g" x1="811.87" y1="747.08" x2="733.43" y2="547.49"/><path class="e" d="m1235.01,1185.13c88.82,0,160.73-72.15,160.42-160.97l-1.47-422.31c-.3-88.66-89.59-149.32-172.12-116.94l-357.35,140.21,95.23,238.57,201.37-80.38v179.87c0,23.79-19.29,43.08-43.08,43.08h-269.55v178.84s386.56.03,386.56.03Z"/><path class="e" d="m968.33,658.95h0c73.09,0,132.43,59.34,132.43,132.43v392.07h-264.87v-392.07c0-73.09,59.34-132.43,132.43-132.43Z"/><path class="g" d="m1101.27,1184.93l-268.11-.32-14.25-81.05c-7.94-45.17,26.9-86.54,72.77-86.38l151.16.52c45.52.16,79.99,41.17,72.32,86.04l-13.88,81.19Z"/><line class="g" x1="828.73" y1="1154.21" x2="1104.87" y2="1154.21"/><path class="g" d="m273.73,504.34l30.48-10.77c10.57-3.73,15.88-15.53,11.67-25.92h0c-3.19-7.86-11.06-12.79-19.53-12.23h0c-14.16.95-29.17.02-43.15-2.42l-3.39,8.63-47.24,123.76,45.73,22.68,27.36-21.24,24.48-25.92,8.64-41.04"/><path class="d" d="m298.62,411.09h0c8.47,0,15.34,6.87,15.34,15.34v156.17h-30.68v-156.17c0-8.47,6.87-15.34,15.34-15.34Z" transform="translate(421.41 1063.37) rotate(-161.22)"/><path class="g" d="m371.81,392.37c-.35-.05-.71-.09-1.06-.12,1.93-3.14,3.27-6.72,3.83-10.61,2.17-15.17-8.37-29.22-23.53-31.39-14.57-2.08-28.12,7.57-31.08,21.78-4.21-4.79-10.08-8.16-16.89-9.14-15.17-2.17-29.22,8.37-31.39,23.53-2.17,15.17,8.37,29.22,23.53,31.39,1.88.27,3.75.34,5.58.23-3.59,3.96-6.08,9-6.89,14.69-2.17,15.17,8.37,29.22,23.53,31.39,15.17,2.17,29.22-8.37,31.39-23.53.03-.18.04-.36.06-.54,4.01,3.77,9.18,6.4,15.05,7.24,15.17,2.17,29.22-8.37,31.39-23.53,2.17-15.17-8.37-29.22-23.53-31.39Z"/><ellipse class="e" cx="333.24" cy="407.04" rx="16.56" ry="27.34" transform="translate(-170.78 557.7) rotate(-67.34)"/><ellipse class="d" cx="349.8" cy="484.65" rx="42.91" ry="12.89" transform="translate(-48.76 39.24) rotate(-6)"/><path class="g" d="m258.89,576.85l20.2,23.12c5.98,8.05,4.13,19.44-4.08,25.18h0c-7.08,4.96-16.7,4.1-22.8-2.02l-16.32-14.53c-7.32-6.52-15.4-12.13-24.06-16.71l-9.38-4.87,5.85-15.86"/><path class="g" d="m247.99,579.45l33.11,18.44c7.73,3.88,17.12,1.64,22.27-5.3h0c5.97-8.05,4.11-19.44-4.1-25.18l-14.17-8.69-19.55-12.23"/><path class="g" d="m257.19,556.32l42.96,18.76c8.11,2.99,17.2-.27,21.54-7.75h0c5.04-8.66,1.93-19.78-6.88-24.57l-22.66-10.71-22.25-10.9"/><path class="g" d="m268.62,492.15l50.86,18.7c9.19,4,13.27,14.79,9.02,23.87h0c-3.67,7.83-12.43,11.88-20.78,9.61l-43.49-14.67"/><ellipse class="e" cx="1024.66" cy="203" rx="49.17" ry="22.75" transform="translate(108.98 705.67) rotate(-39.97)"/><ellipse class="e" cx="1040.15" cy="221.98" rx="37.64" ry="11.23" transform="translate(-12.39 69.21) rotate(-3.79)"/><ellipse class="e" cx="1012.83" cy="187.23" rx="37.64" ry="11.23" transform="translate(490.04 1074.67) rotate(-69.97)"/><rect class="d" x="-2164.42" y="1185.3" width="4326.76" height="167.27"/><path class="d" d="m575.76,1185.11c-13.68-137.69-55.48-151.39-55.48-151.39,0,0,52.58,13.22,70.4,128.3-6.33-125.83-39.22-187.79-39.22-187.79,0,0,52.42,29.5,57.82,162.38,5.61-132.22,56.95-156.3,56.95-156.3,0,0-31.15,58.59-38.14,181.08,18.02-113.91,60.27-119.04,60.27-119.04,0,0-31.79,4.92-45.42,142.69l-67.18.07Z"/><path class="d" d="m837.61,990.94s-51.73,38.12-71.46,134.06c8.03-103.24,41.04-143.91,41.04-143.91,0,0-44.07,34.65-57.29,125.65,7.27-90.57-28.59-128.35-28.59-128.35,0,0,22.82,27.46,8.15,127.93-11.67-92.98-56.24-123-56.24-123,0,0,33.24,35.92,39.38,142.05-18.42-97.14-69.91-132.55-69.91-132.55,0,0,48.61,47.33,57.4,192.32l77.65-.11c10.45-144.88,59.87-194.1,59.87-194.1Z"/><path class="d" d="m55.17,1184.72C41.49,1047.03-.31,1033.33-.31,1033.33c0,0,52.58,13.22,70.4,128.3-6.33-125.83-39.22-187.79-39.22-187.79,0,0,52.42,29.5,57.82,162.38,5.61-132.22,56.95-156.3,56.95-156.3,0,0-31.15,58.59-38.14,181.08,18.02-113.91,60.27-119.04,60.27-119.04,0,0-31.79,4.92-45.42,142.69l-67.18.07Z"/><path class="d" d="m204.12,1168.24c30.99-192.31-18.26-285.23-18.26-285.23,0,0,32.02,80.44-1.44,291.56l-1.08,6.4"/><path class="d" d="m166.27,1185.27c-9.36-212.59-56.87-281.31-56.87-281.31,0,0,66.84,75.17,74.87,268.96l.24,12.4"/><path class="d" d="m179.04,1185.25l.09-5.15c2.93-213.16-40.36-289.37-40.36-289.37,0,0,62.17,86.67,59,280.89l-.31,13.55"/><path class="d" d="m210.95,1185.26l.17-10.91c8.02-193.79,74.87-268.96,74.87-268.96,0,0-47.29,67.37-56.65,279.95"/><path class="d" d="m215.9,1185.3c-2.93-213.16,40.45-293.48,40.45-293.48,0,0-62.17,86.67-59,280.89l.1,12.54"/><line class="d" x1="229.33" y1="1185.34" x2="166.22" y2="1185.32"/><rect class="h" x="203.23" y="48.45" width="98.57" height="160.38" rx="11.75" ry="11.75" transform="translate(-30.09 107.52) rotate(-22.72)"/><rect class="h" x="211.29" y="58.88" width="82.27" height="139.63" rx="10.02" ry="10.02" transform="translate(-30.12 107.49) rotate(-22.72)"/><circle class="h" cx="227.61" cy="74.31" r="4.2"/><path class="g" d="m306.25,136.02l-1.11,23.63c.55,8.63,7.23,15.61,15.82,16.55h0c9.96,1.09,18.86-6.26,19.67-16.25l.3-5.3c.66-11.81-2.01-23.57-7.7-33.94l-.57-1.04"/><path class="g" d="m297.6,113.34l-1.11,23.63c.55,8.63,7.23,15.61,15.82,16.55h0c9.96,1.09,18.86-6.26,19.67-16.25l.68-12.21c.41-7.27-1.42-14.49-5.23-20.69l-2.79-4.54"/><path class="g" d="m289.66,93.46l-1.11,23.63c.55,8.63,7.23,15.61,15.82,16.55h0c9.96,1.09,18.86-6.26,19.67-16.25l.62-11.06c.45-7.95-1.9-15.81-6.63-22.22l-1.66-2.25"/><path class="g" d="m280.69,67.19l-.78,27.23c.55,8.63,7.23,15.61,15.82,16.55h0c9.96,1.09,18.86-6.26,19.67-16.25l.83-14.8c.31-5.59-1.03-11.14-3.87-15.97h0c-4.95-8.42-13.89-13.7-23.66-13.97l-15.16-.83"/></svg>