<?xml version="1.0" encoding="UTF-8"?><svg id="b" xmlns="http://www.w3.org/2000/svg" viewBox="0 0 1000 1000"><defs><style>.c{fill:none;stroke:#211915;stroke-linecap:round;stroke-linejoin:round;}.d{fill:#fdf9a7;}.e{fill:#d3d1d2;}</style></defs><rect class="e" x="0" width="1000" height="1000"/><polygon class="e" points="0 0 0 81.7 11.27 74.08 16.78 71.14 23.27 68.81 29.64 67.74 36.26 67.74 42.63 69.3 50.34 72.12 56.83 76.53 64.18 82.16 68.36 86.6 89.89 79.26 107.2 74.57 118.46 72.79 129.82 71.33 141.81 71.54 153.7 72.48 166.32 74.15 195.24 78.82 225.57 83.92 255.64 88.12 268.51 89.53 283.55 90.42 291.96 90.54 303.6 89.82 313.37 88.51 335.29 84.43 358.23 79.59 369.82 77.29 384.9 75.44 402.3 74.65 418.52 75.71 440.79 80.19 460.3 84.54 490.75 89.68 514.88 93.5 529.38 95.61 562.33 99.43 592.65 102.33 628.64 105.1 677.54 106.87 696.13 106.87 714.32 106.55 743.19 105.5 761.64 104.18 781.42 101.94 828.21 95.74 859.98 90.87 879.49 87.97 911.26 83.22 977.17 72.41 1000 68.26 1000 0 0 0"/><polygon class="e" points="0 81.7 6.96 76.76 13.98 72.34 20.44 69.51 26.11 68.26 34.82 67.81 42.63 69.3 51.5 72.91 58.48 77.32 65.28 83.78 70.6 88.87 75.25 94.54 80.59 101.51 88.43 114.48 93.77 124.17 100.3 137.02 105.31 149.22 110.98 163.39 116.42 178.64 123.94 203.58 125.25 199.99 128.08 189.42 135.38 168.4 140.55 156.51 146.1 145.09 152.95 134.21 159.81 124.85 164.7 120.17 171.56 115.17 176.24 113.1 181.68 111.58 185.59 111.47 189.29 112.23 192.67 113.65 195.93 116.26 198.65 119.52 203.44 126.27 206.59 133.23 209.75 140.96 212.14 149.12 215.73 161.85 219.54 179.8 221.5 190.03 223.46 201.23 225.2 214.07 226.83 226.91 229.33 249.32 230.86 267.28 233.47 298.39 234.77 293.61 237.49 279.24 240.43 264.77 245.28 242.76 250.33 222.83 255.91 203.73 262.21 184.94 268.51 170.28 274.61 158.55 280.65 150.03 287.1 144.41 292.65 141.85 296.28 141.35 299.76 141.6 304.14 142.76 308.28 145.82 312.58 150.2 316.19 154.19 320.78 160.88 326.3 171.06 331.68 183.43 337.94 198.99 341.87 210.7 345.94 226.11 348.34 236.88 350.52 247.35 352.63 258.99 353.57 266.91 354.37 264.37 355.61 257.24 356.85 249.6 359.49 233.42 362.09 219.64 363.92 210.68 366.72 197.48 369.32 188.71 372.02 179.08 375.67 167.33 379.79 156.82 383.9 147.57 387.9 141.51 390.76 137.29 393.61 134.2 397.5 130.66 401.61 128.26 405.26 127.23 410.41 126.78 413.83 128.26 418.06 129.86 421.37 132.15 424.91 135.23 430.17 140.94 433.37 144.94 438.25 152.88 442.41 159.3 447.77 170.26 451.4 177.59 455.25 187.49 459.41 197.99 463.19 209.7 467.87 223.61 470.44 234.19 473.39 244.99 475.05 254.14 477.09 268.8 477.09 273.86 478.78 264.16 479.71 256.82 481.58 245.11 485.24 224.45 487.56 212.31 489.74 201.75 492.96 189.54 496.4 176.73 502.57 158.16 507.13 147.09 512.75 135.74 517.31 128.33 524.31 120 530.83 114.95 536.15 112.66 541.93 112.01 547.17 112.93 553.41 114.95 559.47 119.36 565.52 125.05 571.12 131.66 576.17 138.08 582.04 147.63 587.83 156.62 593.42 167.47 604.95 192.37 607.2 197.71 608.34 194.8 610.87 186.93 614.86 177.65 617.4 173.43 621.32 166.97 624.7 163.9 628 161.13 632.68 160.14 636.22 160.29 641.21 162.44 644.21 165.28 648.43 169.74 652.58 176.04 658.19 186.1 665.48 203.08 674.55 228.81 681.85 253.93 682.23 250.93 682.31 242.25 683 220.59 683.77 207.76 686.1 184.93 688.74 169.27 691.09 158.09 695.22 144.5 700.94 132.48 706.11 125.88 713.04 121.14 718.63 120.08 722.77 120.38 726.58 121.65 730.55 123.09 735.29 126.13 739.86 129.85 744.14 134.64 747.12 138.49 749.98 143.51 753.4 150.99 755.32 157.16 757.08 166.07 757.64 172.8 757.88 180.49 757.48 188.18 756.92 195.55 755.88 203.24 754.03 213.58 750.35 229.28 742.34 254.84 743.94 253.56 745.54 250.51 751.87 237.7 755.56 230.96 764.94 214.88 773.13 201.77 783.41 187.32 792.65 176 802.03 166.02 810.67 158.87 819.46 152.47 828.4 149.04 835.25 147.4 843.14 147.55 851.04 150.08 857.29 153.81 862.95 159.02 867.42 164.68 872.34 171.98 876.51 179.72 878.89 186.73 880.53 193.28 881.13 199.68 881.13 207.78 882.5 208.17 885.92 208.34 890.02 209.65 892.75 211.02 895.6 213.07 899.42 217.06 903.58 222.98 906.77 229.31 909.67 235.46 912.7 244.84 914.61 250.67 919.53 270.83 922.11 282.2 922.83 278.9 922.83 272.4 923.55 261.27 925 238.5 927.61 215.23 930.48 195.19 933.46 178.89 938.11 160.71 942.33 149.67 945.18 142.85 948.9 136.4 952.25 131.68 956.23 128.08 960.5 125.06 964.62 123.82 968.19 123.54 972.53 123.82 976.24 124.99 980.16 127.19 987.51 132.2 992.53 136.95 1000 145.71 1000 430.73 996.63 437.36 991.29 446.88 985.09 457.12 976.87 467.94 971.82 473.57 965.18 479.91 959.7 483.38 953.79 485.54 950.5 485.79 945.61 485.48 941.08 483.77 936.25 480.22 932.36 476.43 928.36 471.06 923.34 462.46 918.23 449.78 914.14 436.89 910.96 423.35 909.28 415.98 906.01 420.27 897.8 432.69 889.23 444.4 883.27 452.13 877.11 458.98 869.36 465.94 861.42 471.3 855.42 473.62 849.99 474.38 846.12 474.08 841.55 472.3 838.87 470.41 836.58 468.12 832.71 463.65 830.32 459.08 828.19 454.14 825.59 447.99 822.29 438.15 820.9 429.71 819.12 433.2 817.22 438.03 815.26 441.87 809.54 448.36 804.42 451.57 799.07 453.01 792.35 452.79 786.24 451.19 775.47 445.23 767.89 438.03 736.04 407.33 442.42 393.45 442.51 306.89 344.63 306.89 344.68 388.83 296.36 386.36 295.17 384.73 293.22 380.82 290.78 373.99 288.95 366.43 287.98 357.17 286.27 362.65 285.54 371.07 283.59 380.95 281.52 389.73 280.78 394.48 207.77 491.07 204.51 491.07 197.91 491.07 191.47 490.25 182.01 487.87 175.09 484.77 164.67 478.42 155.8 470.61 147.09 462.06 141.72 455.88 133.86 445.25 128.59 436.77 127.01 440.34 123.08 450.21 117.8 462.7 109.85 478.3 104.14 487.98 99.1 495.05 95.23 500.48 87.86 508.23 80.31 514.33 73.43 518.4 68.3 520.34 61.32 521.98 55.22 522.15 48.92 521.3 41.56 519.37 34.96 516.06 27.56 511.53 20.54 505.52 13.23 497.93 4.91 487.95 0 480.27 0 81.7"/><polygon class="e" points="442.42 393.45 442.51 306.89 344.63 306.89 344.68 388.83 287.62 386.15 185.55 520.15 185.59 762.73 608.15 808.3 855.42 763.25 855.47 523.93 736.04 407.33 442.42 393.45"/><polygon class="e" points="734.69 785.49 746.01 784.88 752.63 784.88 759.81 785.19 770.57 786.56 778.25 788.15 786.46 790.59 793.15 793.55 800 797.58 805.47 802.37 810.03 807.24 815.47 814.95 818.39 821.23 820.24 827.12 821.76 832.18 822.77 838.98 823.29 847.14 822.77 855.07 820.86 861.54 818.19 866.97 814.07 872.13 810.53 875.67 804.78 879.94 799.19 883.03 790.2 887.01 775.03 892.9 765.01 896 745.86 902.48 729.21 909.4 718.75 915.44 711.82 920.3 707.77 924.24 702.19 931.17 698.77 936.66 695.55 944.46 694.2 950.33 693.33 956.63 693.19 959.82 693.19 966.43 693.83 974.47 694.67 980.08 696.16 985.55 698.2 991.55 702.18 1000 1000 1000 1000 936.37 992.3 932.68 979.03 924.62 970.66 918.8 963.31 912.88 956.25 905.96 949.28 896.39 945.73 889.14 944.02 883.47 943.1 876.6 943.61 870.12 945.06 864.29 946.96 858.91 949.36 853.88 950.6 848.28 951.04 842.23 949.87 836.12 948.71 832.99 944.95 826.48 939.8 820.52 933.93 815.69 926.45 810.54 915.5 805.07 895.64 797.18 882.58 792.97 851.64 785.52 835.33 782.36 787.21 775.88 734.69 785.49"/><polygon class="d" points="238.99 601.29 238.67 689.74 325.66 699.66 328.04 608.77 238.99 601.29"/><polygon class="d" points="431.55 614.56 431.23 702.47 518.23 712.93 520.44 622.09 431.55 614.56"/><polyline class="c" points="185.52 519.9 607.99 556.6 736.32 407.33 855.42 523.58"/><polyline class="c" points="607.99 556.6 607.99 808.3 185.52 762.74 185.52 519.9 287.4 386.13 736.32 407.33"/><polyline class="c" points="607.99 808.3 855.42 763.18 855.42 523.58"/><path class="c" d="m702.18,1000c-4.06-7.3-6.81-15-8.04-23.12-15.07-99.43,129.95-63.45,129.03-129.02-1.22-86.38-109.5-58.83-109.5-58.83v-113.62l72.82-8.82v109.16s192.32,16.12,161,82.19c-16.3,34.39,16.91,60.9,52.51,78.42"/><polygon class="c" points="325.8 699.66 238.74 689.79 238.74 601.29 328.04 608.45 325.8 699.66"/><polygon class="c" points="518.24 712.93 431.17 703.06 431.17 614.56 520.47 621.72 518.24 712.93"/><polyline class="c" points="344.68 388.83 344.68 306.89 405.29 306.89 405.29 391.69"/><polyline class="c" points="405.29 306.89 442.42 306.89 442.42 393.45"/><circle class="c" cx="741.35" cy="523.58" r="27.36"/><path class="c" d="m68.36,86.6s37.26-16.39,71.24-15.23c33.98,1.15,97.46,17.77,145.8,19.17,48.34,1.4,90.41-26.11,150.27-11.54s226.51,39.18,352.7,22.02c126.2-17.16,211.62-32.76,211.62-32.76"/><path class="c" d="m475.14,138.07c53.22,19.6-8.67,35.01-8.67,35.01,171.54,32.22-18.7,54.16-18.7,54.16,0,0,58.9,29.72-71,21.02-121.02-9.28-42.67-41.45-42.67-41.45,0,0-98.57-46.92,34.39-44.92,0,0-55.62-31.86,21.24-36.47,0,0,17.63-61.01,51.97-22.87,0,0,74.34-16.5,33.45,35.52"/><path class="c" d="m0,480.27s69.16,118.72,128.4-43.63c0,0,33.79,60.11,78.96,54.32"/><path class="c" d="m881.1,208.16c1.05-14.86-3.01-30.39-15.31-45.65-53.45-66.31-128.7,104.98-128.7,104.98,0,0,49.42-110.33-4.6-143.09s-50.25,131.49-50.25,131.49c-35.65-133.23-63.09-105.21-77.24-49.79-13.65,53.42-8.55,109.91,13.61,160.41h0c2.7,6.14,5.71,12.14,9.03,17.97l10.37,18.21"/><path class="c" d="m1000,430.73c-67.15,132.07-90.6-14.94-90.6-14.94l-14.54,20.85c-44.43,63.73-63.72,34.11-71.94,2.93-2.02-7.64-4.88-25.2-7.66-44.03-7.76-52.57,2.58-106.38,29.96-151.93,25.75-42.83,58.19-65.15,77.15,41.29,0,0,3.3-243.39,82.57-132.63"/><path class="c" d="m131.3,817.66s19.13-16.8,18.35-35.89c0,0,1.25,35.13,11.31,29.78,10.06-5.35,17.69-23.67,17.69-23.67,0,0-1.53,31.31,6.87,32.84"/><path class="c" d="m457.18,900.9s19.13-16.8,18.35-35.89c0,0,1.25,35.13,11.31,29.78s17.69-23.67,17.69-23.67c0,0-1.53,31.31,6.87,32.84"/><path class="c" d="m196.3,952.94s19.13-16.8,18.35-35.89c0,0,1.25,35.13,11.31,29.78,10.06-5.35,17.69-23.67,17.69-23.67,0,0-1.53,31.31,6.87,32.84"/><path class="c" d="m889.23,444.4s77.04,53.56,19.69,247.43"/><path class="c" d="m63.6,522.15s46.52,109.59,0,196.73"/><path class="c" d="m485.67,221.31c-6.05,30.59-8.73,55.65-8.73,55.65,1.15-7.32-1.86-25.85-7.7-47.49l-1.35-4.83"/><path class="c" d="m607.2,198.1c-57.3-137.16-92.35-84.82-111.44-18.97"/><path class="c" d="m350.17,245.4c1.08,5.71,2.02,11.46,2.81,17.22l.81,5.92c.98-7.01,2.42-15.77,3.45-22.17"/><path class="c" d="m0,81.7l7.18-5.27c71.35-49.29,116.89,127.21,116.89,127.21,14.35-55.8,39.74-97.46,64.7-91.65,35.87,8.35,44.57,188.1,44.57,188.1,33.38-182.48,66.76-175.47,89.2-136.09"/><path class="c" d="m820.64,428.86s-8.97,42.37-47.03,14.86"/><path class="c" d="m280.57,395.27c3.75-16.87,7.1-34.77,7.1-44.91,0,0-.29,22.28,8.68,36"/><path class="c" d="m930.14,743.31s19.13-16.8,18.35-35.89c0,0,1.25,35.13,11.31,29.78s17.69-23.67,17.69-23.67c0,0-1.53,31.31,6.87,32.84"/><path class="c" d="m180.48,486.99s-28.89,113.5,5.04,186.08"/><path class="c" d="m476.94,276.96s.34,94.43-11.36,116.49"/><path class="c" d="m474.74,63.48c-8.32-1.07-9.4-12.72-1.4-15.26,22.22-7.07,51.74-12.29,64.18,3.97,14.04,18.35-30.91,15.37-62.78,11.29Z"/></svg>