<svg viewBox="0 0 1080 1080" xmlns="http://www.w3.org/2000/svg"><g stroke="#000" stroke-width="2"><path d="m-3.18-2.05h1087.15v1087.47h-1087.15z" fill="#edd6d4" stroke-linecap="round" stroke-linejoin="round"/><path d="m105.42 571.79-20.72 30.18c-43.88 63.92-54.38 145.03-28.21 218.02l35.54 99.12 5.15 13.09 214.9-65.14 16.12-106.11-179.98-207.52z" fill="#fff" stroke-linecap="round" stroke-linejoin="round"/><path d="m691.09 255.4-528.08-109.66-103.89 378.02" fill="#fffaa5" stroke-miterlimit="10"/><path d="m59.12 523.76 285.68 300.12 623.31-317.43-277.02-251.05z" fill="#fffaa5" stroke-miterlimit="10"/><g stroke-linecap="round" stroke-linejoin="round"><path d="m672.03 579.81 29.23 23.01c16.19 12.74 30.76 27.4 43.41 43.66l12.89 16.58 164.77-3.63 69.48-70.83-27.66-19.56-72.54-91.09c-26.69-35.87-64.19-62.22-106.98-75.18l-78.47-23.78-74.57 176.38z" fill="#fff"/><path d="m59.12 523.76 479.03-14.42 152.94-253.94" fill="none"/><path d="m108.76 668.37 63.88-94.78c13.48-19.58 40.12-24.85 60.04-11.88 19.05 12.41 25.46 37.32 14.76 57.38l-45.72 85.73" fill="#fff"/></g><path d="m91.96 1083.47-49.17-143.75 322.94-100.42 126.38 245.59z" fill="#2bc670" stroke-miterlimit="10"/><path d="m299.06 360.7h410.68v227.89h-410.68z" fill="#fff" stroke-linecap="round" stroke-linejoin="round" transform="matrix(.99849867 -.05477591 .05477591 .99849867 -25.24 28.34)"/><path d="m1083.28 671.36-99.45-137.87s-260.17 149.41-263.3 150.46l289.13 400.42 74.31 1.06-.69-414.06z" fill="#2bc670" stroke-miterlimit="10"/><path d="m801.84 465.88-72.71-29.3c-22.47-9.05-48.06 1.45-57.69 23.68-9.21 21.26-.64 46.03 19.73 57.05l93.87 51.82" fill="#fff" stroke-linecap="round" stroke-linejoin="round"/></g><path d="m398.44 478.27c.23 6.83-.68 11.88-2.71 15.15s-5.3 4.97-9.8 5.12c-4.57.15-7.95-1.36-10.17-4.53-2.21-3.17-3.43-8.11-3.65-14.82-.22-6.76.68-11.8 2.7-15.1s5.29-5.02 9.81-5.17c4.57-.15 7.96 1.38 10.17 4.59s3.43 8.13 3.65 14.76zm-6.34 11.82c.55-1.4.9-3.04 1.05-4.91s.18-4.12.1-6.75c-.08-2.59-.27-4.84-.54-6.74-.28-1.9-.74-3.51-1.4-4.81-.64-1.29-1.49-2.25-2.54-2.88s-2.39-.92-4.01-.87c-1.6.05-2.92.43-3.94 1.13s-1.82 1.73-2.39 3.1c-.54 1.28-.88 2.94-1.03 4.97s-.18 4.26-.1 6.68c.09 2.66.25 4.88.5 6.66s.7 3.37 1.36 4.76c.61 1.31 1.44 2.3 2.49 2.96 1.05.67 2.43.97 4.14.91 1.6-.05 2.92-.43 3.95-1.13 1.04-.7 1.82-1.73 2.35-3.1z"/><path d="m432.33 485.59c.11 3.29-1.08 6.07-3.58 8.33-2.49 2.27-5.68 3.46-9.56 3.59-4.12.14-7.44-.82-9.96-2.87-2.51-2.05-3.83-4.73-3.94-8.06-.07-2.11.48-4.05 1.65-5.8s2.85-3.17 5.05-4.25v-.15c-2.09-1.02-3.64-2.16-4.66-3.43-1.02-1.26-1.57-2.87-1.63-4.81-.09-2.86 1-5.29 3.29-7.27 2.29-1.99 5.25-3.04 8.88-3.16 3.8-.13 6.86.69 9.19 2.43 2.33 1.75 3.54 4.03 3.63 6.84.06 1.72-.42 3.43-1.44 5.13s-2.55 3.05-4.6 4.05v.15c2.42.94 4.29 2.15 5.6 3.6 1.31 1.46 2 3.34 2.08 5.66zm-5.25.66c-.05-1.57-.44-2.81-1.16-3.74-.72-.92-2.1-1.83-4.15-2.72-.81-.35-1.7-.67-2.67-.96-.96-.29-2.25-.7-3.85-1.23-1.51.89-2.7 2.06-3.58 3.52s-1.29 3.1-1.23 4.9c.08 2.3.93 4.17 2.57 5.62 1.63 1.45 3.67 2.13 6.11 2.05 2.49-.08 4.46-.79 5.9-2.11 1.45-1.33 2.14-3.11 2.06-5.34zm-1.42-19.04c-.06-1.82-.81-3.25-2.25-4.29s-3.25-1.52-5.43-1.45c-2.15.07-3.89.64-5.23 1.71s-1.98 2.47-1.92 4.21c.04 1.23.42 2.28 1.14 3.15s1.79 1.63 3.21 2.29c.64.29 1.56.66 2.76 1.11s2.37.83 3.5 1.11c1.65-1.18 2.78-2.39 3.39-3.62s.88-2.64.83-4.22z"/><path d="m464.71 462.75-16.16 32.93-5.47.18 17.21-34.19-21.67.72-.15-4.47 26.04-.86.19 5.7z"/><path d="m506.86 479.39-15.95.53-.15-4.63 15.95-.53z"/><path d="m558.77 470.69c.11 3.32-.17 6.35-.84 9.09-.67 2.73-1.74 5.08-3.21 7.04-1.49 1.99-3.38 3.56-5.68 4.69s-5.02 1.75-8.18 1.86c-.89.03-1.72 0-2.51-.06-.79-.07-1.49-.19-2.11-.38l-.16-4.88h.26c.5.23 1.21.45 2.12.65s1.92.28 3.03.25c3.77-.12 6.68-1.35 8.74-3.68s3.2-5.48 3.41-9.46c-1.55 1.01-3.02 1.74-4.41 2.19-1.38.46-2.9.71-4.55.76-1.57.05-2.99-.05-4.27-.32s-2.57-.82-3.88-1.66c-1.53-.99-2.71-2.27-3.52-3.85s-1.25-3.48-1.33-5.71c-.13-3.88 1.04-7.09 3.52-9.61 2.47-2.52 5.55-3.84 9.23-3.96 1.84-.06 3.55.17 5.14.69s2.99 1.33 4.2 2.43c1.49 1.37 2.67 3.15 3.53 5.35s1.34 5.06 1.46 8.59zm-5.2-.93c-.09-2.64-.43-4.75-1.03-6.34-.6-1.58-1.39-2.8-2.37-3.66-.83-.74-1.7-1.26-2.63-1.56s-1.93-.44-3.01-.4c-2.45.08-4.37.91-5.74 2.49s-2.01 3.76-1.92 6.54c.05 1.62.33 2.93.82 3.94s1.3 1.88 2.41 2.61c.79.5 1.64.83 2.57.98s1.95.2 3.08.17c1.33-.04 2.67-.27 4.02-.67s2.61-.96 3.78-1.69c0-.36.01-.71.03-1.06.01-.35.01-.8 0-1.34z"/><path d="m592.73 480.29c.11 3.29-1.08 6.07-3.58 8.33-2.49 2.27-5.68 3.46-9.57 3.59-4.12.14-7.44-.82-9.96-2.87s-3.83-4.73-3.94-8.06c-.07-2.11.48-4.05 1.65-5.8s2.85-3.17 5.05-4.25v-.15c-2.09-1.02-3.64-2.17-4.66-3.43s-1.57-2.87-1.63-4.81c-.09-2.86 1-5.29 3.29-7.27 2.29-1.99 5.25-3.04 8.88-3.16 3.8-.13 6.86.69 9.19 2.43 2.33 1.75 3.54 4.03 3.63 6.84.06 1.72-.42 3.43-1.44 5.13s-2.55 3.05-4.6 4.05v.15c2.42.94 4.29 2.15 5.6 3.6 1.31 1.46 2 3.34 2.08 5.66zm-5.25.66c-.05-1.57-.44-2.81-1.16-3.74-.72-.92-2.1-1.83-4.14-2.72-.81-.35-1.7-.67-2.67-.96-.96-.29-2.25-.7-3.85-1.23-1.51.89-2.7 2.06-3.58 3.52s-1.29 3.1-1.23 4.9c.08 2.3.93 4.17 2.57 5.62 1.63 1.45 3.67 2.13 6.11 2.05 2.49-.08 4.46-.79 5.9-2.11 1.45-1.33 2.14-3.11 2.06-5.34zm-1.42-19.04c-.06-1.82-.81-3.25-2.25-4.29s-3.25-1.52-5.43-1.45c-2.15.07-3.89.64-5.23 1.71s-1.98 2.47-1.92 4.21c.04 1.23.42 2.28 1.14 3.15s1.79 1.63 3.21 2.29c.64.29 1.56.66 2.76 1.11 1.2.46 2.37.83 3.5 1.11 1.65-1.18 2.78-2.39 3.39-3.62s.88-2.64.83-4.22z"/><path d="m626.23 477.44c.13 3.87-1.04 7.07-3.51 9.6s-5.55 3.85-9.25 3.98c-1.87.06-3.59-.17-5.14-.7s-2.94-1.34-4.15-2.45c-1.51-1.37-2.7-3.2-3.57-5.51s-1.36-5.11-1.47-8.4c-.11-3.37.15-6.38.79-9.01s1.72-4.99 3.23-7.07c1.44-1.97 3.32-3.54 5.65-4.7s5.08-1.79 8.23-1.9c1-.03 1.85-.02 2.53.04s1.38.19 2.08.39l.16 4.88h-.26c-.49-.23-1.21-.45-2.18-.65s-1.96-.28-2.96-.25c-3.66.12-6.55 1.36-8.65 3.73-2.11 2.36-3.27 5.5-3.5 9.42 1.4-.92 2.79-1.62 4.16-2.12s2.97-.78 4.79-.84c1.62-.05 3.05.05 4.29.3 1.25.26 2.53.82 3.86 1.68 1.53.99 2.71 2.26 3.52 3.82s1.25 3.47 1.33 5.74zm-5.18.38c-.05-1.58-.33-2.89-.83-3.91s-1.3-1.9-2.4-2.63c-.8-.52-1.68-.85-2.64-.99s-1.96-.19-3-.16c-1.45.05-2.79.26-4.02.65-1.23.38-2.49.95-3.78 1.71-.02.38-.04.74-.04 1.09s0 .79.02 1.32c.09 2.69.44 4.81 1.04 6.35s1.41 2.75 2.41 3.62c.81.72 1.67 1.24 2.6 1.56.92.32 1.92.46 3 .43 2.47-.08 4.39-.9 5.75-2.46 1.36-1.55 2-3.75 1.91-6.57z"/></svg>