<svg enable-background="new 0 0 3000 3000" viewBox="0 0 3000 3000" xmlns="http://www.w3.org/2000/svg"><path d="m0 0h3000v3000h-3000z" fill="#22533a"/><path d="m764.7 989 .5 1418.1 1048.6-.4-1.3-1413.1z" fill="#fff"/><path d="m816 1041.1 2.4 1320.6 949.7-1.4-3.8-1322.4z" fill="#ffde12"/><path d="m1624.1 2336.4-64.5-76.4-.1.1c18.8-16 68.1-67.8 70.9-114.2 1-16.8-4.6-31.3-17.6-45.5-6.5-7.1-14.9-13.7-39.1-10.4-25.8 3.5-58.9 16.9-94 31.1-42.2 17.1-90 36.4-140.3 44.9-62.5 10.6-117.5 2.7-168-24-30.6-16.2-49.6-42.6-53.5-74.2-3.6-29 5.4-60.7 27.5-97.1 15.9-26.2 38.9-55.6 70.3-89.6 55.4-60.1 127.6-124.9 197.4-187.6 50.7-45.5 98.6-88.5 135.4-125.5 10.7-10.8 19.4-20 26.5-28-17.5 6.3-40.6 15.7-70.7 29.9-64.6 30.3-141.2 72.4-215.2 113.2-74.2 40.8-144.2 79.3-201.5 105.8-32.5 15.1-58.4 25.1-79.2 30.7-23.2 6.2-57 12-83.8-9-10.4-8.1-33.3-31.9-21.2-77.1 10.8-40.5 46.3-92.2 115.2-167.6 55.2-60.4 123.7-127.1 190-191.6 55.2-53.8 107.4-104.6 147.7-147.7 10.5-11.2 19.4-21 26.8-29.6-46.4 15.8-121.4 48.7-240.5 116-123.4 69.7-232.1 141.4-233.2 142.1l-55.1-83.4c4.5-3 112.7-74.4 239.1-145.8 74.9-42.3 140.4-75.7 194.9-99.2 75.6-32.7 129.1-46.5 168.4-43.6 42.6 3.2 57.1 31 61.4 42.8 15.4 42.4-14.9 87.5-72.3 151-43.9 48.5-103.9 107-167.5 168.9-65.2 63.5-132.7 129.2-185.9 187.5-26.8 29.3-46 52.4-59.7 70.6 9.6-4.3 20.6-9.4 33.1-15.5 50.8-24.7 111.2-58 175.2-93.1 83.9-46.1 170.6-93.8 242.8-126.1 41-18.4 74-30.3 100.7-36.4 15.8-3.6 63.7-14.5 97.4 13.8 15.6 13.1 24.4 31.7 24.7 52.4.6 34.5-21.9 72-77.5 129.5-40.1 41.4-93 89-149.1 139.3-67.6 60.6-137.4 123.4-189.5 179.7-62.9 68-71.9 97.4-73.1 105.6.3.2.6.3.9.5 30.7 16.3 63.9 20.7 104.5 13.8 39.6-6.7 80.2-23.1 119.5-39 41-16.6 79.8-32.2 117.8-37.5 51.9-7.1 94.4 6.9 126.4 41.8 31.4 34.2 46.5 75.6 43.8 119.7-2.7 42.8-21.8 87-56.6 131.5-24.1 30.7-47.1 50.4-49.6 52.5z" fill="#e6bcfe"/><path d="m1930.8 1622.8-15-257.2-9.3-66.2-29.1-42.6-46.7-52.5-16.8-18.9-1.3-165.6.4-31.1-176-2.1-26.7-31.7-13.8-40.8-3.3-61.6 19.2-36.8 22.2-33.1 33.9-20 35.7-13.5 32.6-4.4 41.8 7.9 198.8 91.2-28.9 99.3 6.8 43.4 10.6 24.3 16.6 7.7 18.8-3.4 14.3-11.5 15.5-75.7 15.3-25.8 21.1-19.5-16.8 48.8-8.7 47.8 6.1 58.6 14.8 43.6 6.4 18.3 30.6 39.9 47.8 36.5 89.1 23.9 64.4-4.7 54.6-23.1 49.8-42 29.7-44.9 16.1-46.4 4.8-44.6-6.2-50.7-29.1-65.3 91.4-29.7-5.1-22.3 39-28.9 113.7-86 48.4-13.5 45 2.2 43.7 15.9 34.9 31.5 21.4 35.5 8.5 42.1-3.1 44.5-9.6 22.2-20.4 37.1-112.4 120.8-69.5 78-49.4 57.8-38.7 53-26.2 49-19.1 70-8 54.3 1.6 63.3 14.8 72.9-75.5 64.8-412.9 59.8-98.6-6.1-1.8-21" fill="#e6bcfe"/><circle cx="316.9" cy="1093.8" fill="#fff" r="212.5"/><ellipse cx="2248.1" cy="996.4" fill="#fff" rx="207.9" ry="207.9" transform="matrix(.7071 -.7071 .7071 .7071 -46.075 1881.505)"/><path d="m1484.8 1492.2c-9.1-7.2-16.6-16.1-22-26.3l-2-3.6c-4.8-8.9-7.9-18.5-9.3-28.5-.1-.8-.2-1.5-.3-2.3-1.5-13.3.7-26.8 5.9-39.2l17.6-41.8-66.2 38.4-97.5 44.1-36.1 14.7-43.6 3.6-59.1-18.2-51.3-41.4-28.6-39.5 14.2 60.7-4.8 50.9-28.8 28.2-46.1.2-14.3 39.3c-3.9 10.7-9.2 20.7-15.9 29.9-10 13.9-22.9 25.5-37.7 34.2l-13.9 8.1 30.8 18.8 27.2 29.2 13.6 35.4-3.8 28.7-13.7 25.3-28 29.4 42.6 6.1c9.2 1.3 17.7 5.7 24.2 12.4 15.5 16.2 15.5 41.7-.1 57.8l-28.1 29.1 32.9-6.8 41.7 4.4 19.9 15.7 29.6 51.4 2 29s54.5-26.7 79.4-26.3c26.3.4 45.8 33.6 45.8 33.6l75.3-14.5 42.5 2.9 33.7 17.1 13.3 30.8-1.7 36.2-6.2 32.9 6.7 7.5 17.9-14.1 15.4-14.1 18.7-17.9 12.5-16.7 12.1-22.5 15-42.9 6.2-44.5 8.3-38.2c2.7-12.7 9.6-24.2 19.6-32.5 7.4-6.3 16.3-10.6 25.8-12.6l9.1-1.9c8.8-1.9 18-1.7 26.7.6l18.8 4.8 1.2-30.9 33.8-182.6-52.7-10.7-40.7-21-14.3-28.2 8.7-44.1-51.3-10.8c-11.1-4.1-21.5-9.5-30.6-16.8z" fill="#fff"/><path d="m357.7 1865.2-116.4 765 284.1 8 97.6-533.2 75.4 526.6 159.3.4 34.6-223.1-126.6-.9-1.6-529.8-12.3-157.4z" fill="#ffde12"/><ellipse cx="2177.4" cy="1619.7" fill="#fff" rx="207.9" ry="207.9" transform="matrix(.7071 -.7071 .7071 .7071 -507.5422 2014.0646)"/><circle cx="1289.3" cy="1709.3" fill="#fff" r="207.8"/><path d="m541 869.7-59.8 15.9-32 22.1-23.5 18.3-13.4 17v13.4l10.2 8 14.4 1.9 19.7-11.4 18.9-13.7 27.3-11.6-22.3 20.2-3 13 7.8 13.5 5.9 7.2 3.6 7.3 7.1 13.4 7 7.3 8.8 12.8 15.5 7.4 25.4-4.1 71.9-21.4z" fill="#fff"/><path d="m200.1 1272.3-31.5 69.3-12.4 39.1-6.8 57.2 4.1 47.6 13 53.9 22.3 37.1 37.4 52 44.2 30 43.6 23.2 18.5 5.9-1.4 45.9 2.2 83 18.9 15.5 52.1-3.5-45.3-10.5-6.8-9.8 6.8-15.4 15.8-6.2 66.9 6.2-13.4-41.1 338.5-102.2-1.1-277.2-16.6-30.5-27.8-74.5-2.1-37.7 9.4-19.5 34-35.3 2.6-184.9 71.2-1.2-1.8-24.9-22.3-45.3-27.6-20.5-50.1-16-206.5-43.4 109.1 173-107.8 58-3.9 64.9-15.2 46.7-15.9 35.1-23.1 23.5-46 36.8-12.1 6.7 1.8-17.8-1.8-9.5-11.8-9.6-18.9 9.9-17.7 44.7-48 5.3-43.2-4.6-31.1-10.9z" fill="#e6bcfe"/><g fill="#fff"><path d="m343.1 1372.2 39.5-115.8 18.9-9.9 11.8 9.6v16.7l-12.2 47.8 16.2-6.1 11.6 6.1 4.1 6 10.1-3.3h14.1l5.5 5.7 4.7 6.5 9-5.2 14.5.5 7.5 4.7v9.8l-5.2 63.5-150.1-30.4"/><path d="m1659.5 1668.5-71-45.7-22.9-4.7-19.6 6.8-1.4 11.5-13.1 1.9-55.1-15.4 18.6 51.8v23.5l-.6 44.3-14.8 40.6-11.1 31.4 11.1 9h17.4l14.1-8.7 12.1-19.2 17.2-9.3 11-3.1 36.6 10.1 35 2.3 29 2.3 14.9-127.9z"/><path d="m441.7 1792.8-58-3.4-24.6 3.4-6.8 7.3 4.1 13.2 18 9.4 24.7 3.1-27.5 7-44.7 5.7-12.9 12.9 2.9 13.5 7 4.7 47.6-6.2 23.8-2 3.6 8.2-21.2 9.9-53.3 19.3-9.2 8.8 4.3 15.9 6 5.1 19.4-5.1 67.4-21.3-10 10-52.7 32.2 2.5 14.6 6.8 7h12.5l53.1-31.2 11.8-.5.6 9.4-24.5 15.7-8.9 11.2 4.1 12.3 8.2 5.2 11.7-1.1 58.6-36.4 25-28.8z"/><path d="m2082.8 1334.8 16.1-33.6 28.9-49.3 14.7-7.1 12.8 5.2 1.9 9.9-13.7 38.9 53.5-58.3 11.9-2 8.7 5.8 4.1 9-22.7 29.8-23.2 25.4 4.3 9.2 7.2-2.7 57.7-42.8h14.7l7.1 8.1v12.2l-57.8 49.3 8.7 3.1 39.1-19.2 17.5-3.3 9.2 6.5-.7 11.5-29.4 21.8-33.6 17.5.5 9h9.1l24-9.7 10 3.5 7.6 10.4-3.1 10.5-32.2 15.8-43.8-7.1-46.1 1.9-30.7 5.2-34-77.7z"/><path d="m2724.3 1381 14.6-36.7 24.7-54.4 13.5-8.3 11.6 5.1 3.3 12.6-10.2 37.7 45.1-63.3 15.8-4.2 9.7 6.5 1 9.3-37.2 58.2 4.2 7.4 61.4-52.1 15.4-2.8 7.9 9.8-1.9 12.6-55.8 54.4 20.5-4.2 40.9-25.1 11.2 3.7 5.4 10.5-5.4 15.1-53.5 32.6v7.4l5.6 6.1 27-14.9 14.9 2.8 6.5 9.3-5.1 13.9-54.4 31.6-55.4 18.6z"/><path d="m1948.5 948.8 8.6 48 13.6 21.7h26.3l18.6-14.9 5.4-35.3 6.8-34.9 18.6-31.2 27.2-28.1 42.6-42.1 6.3-14.5v-17l-8.6-11.5-16.8-10-13.1 4.1-17.7 8.2-93.3 67.9z"/><path d="m2542.6 947.4-33.2-98.8-93.3-65.6-21.6-2.9s-15.6 8.3-16.6 9.8-8.4 12.2-8.4 12.2v16.6l7.4 10.8 45.9 48.4 24.9 24.4 16.6 27.9 6.8 34.7 6.4 41.4 18.6 11.9 16.1 1.5 14.2-6.4 8-12.2z"/><path d="m766.8 1649.5-338.5 102.2 101.2 198.7 234.7-72.2z"/><path d="m507.9 2638.1v113.9l-132 .7-1.6-19.2-24.7 20.9-217.1-1.7-8.1-50.4 5.3-16.2 5.4-6.4h67l42.3-1 15.8-8.4 16.2-17.2 13.3-23.6z"/><path d="m506.8 2771.9 1.1-19.9-132 .7 4.6 20.8z"/><path d="m325 2773.6 24.6-19.1-217.1-1.7 7.4 20.8z"/><path d="m557.3 1402.5 14-33-34.2-15.1-30.7 2.2-5.8 6.1-7.2 43.1 13 5 8.1-15.1 11.2-5.8 15.8 1.2z"/><path d="m523.2 1440.1-18.9 45.5-7.8 37.2 5.6 22.5 15.5 24.9 24.6 12.3 24.5 5.6 24.6-2.1 11.4-9.4 20.4-10.2 17.9-24 11.2-24.3 34.1 8.8 46.1-23.2zm85.8 86.2-12.1 12.1s-13.2 7.8-14.2 8.2-16 3.8-16 3.8l-18.5-8-7.8-12.4-3.2-22.1 6.5-21 52.3 13.2 16 8.2z"/><path d="m714 2636.4 1.1 142.9h56.3l-13.2-68.7 3.2-20.1 18.5-3.7 77.8-1.9 28.7-4.4 18.5-12.2 18.1-31.8h-209z"/><path d="m892.2 2408.8-34.6 223.1 298.2 5.5 29.7-228.6z"/><path d="m1299.2 2410.7 20.9 237.3 287.1.9-7.4-243.5z"/></g><path d="m1339.4 2653.1v111.5l129.5.9 5-18.1 22.9 19.7 216.7-2.5 4.2-20.2 4.4-26.8-2.4-12.4-6.1-9.9-31-4.4-67.2-.7-26.4-4.3-12.9-10.7-14.9-25.6z" fill="#e6bcfe"/><path d="m922.9 2636.4 217.9 1.8v120.8h-132l-2.1-21.2-24.2 22.3-217.1-1.1-5.9-41.4v-15.6l1.8-11.6 18.5-3.7 69-1.6 37.4-4.7 18.5-12.2z" fill="#e6bcfe"/><path d="m765.4 2759 6 20.3 188.2.5 22.9-19.6z" fill="#fff"/><path d="m1005 2742.7-41.8 35.2 51.5 1.8z" fill="#fff"/><path d="m1008.8 2759 5.9 20.8 126.1-.5v-20.3z" fill="#fff"/><path d="m1339.4 2764.6v23.4l127.3-1.9 2.2-20.7z" fill="#fff"/><path d="m1496.8 2767 22 18.6 192.9-1.1 1.8-20z" fill="#fff"/><path d="m1812.9 1419.5v236.2l160.2-62.4 10.8-49.8 22.5-42 28.7-33.3 36.5-27.4 43.4-21.3-50.6-110z" fill="#fff"/><path d="m1670.6 1643.6-23.9 214.8 285.4 56.5 103 23.8 35.7 23.5 24.7 30.4 20.6 48.3 18.3 50.1 16.7 45.6 16.9 21.1 18.1 10.2 25.5 5.5 39.4 6.1 50.6 2.8h64l63.2-12.7 60.4-19.9 48.3-23.4 55.4-38.7 39.1-23.1 19.2-15.7 4.3-22.7.3-22.8-21.4-49.6-41.5-69.7-11.9-31.3-2.9-48.9 10.1-33.5 18.3-29 36.2-38.4 182.5-195.4-121.4-149.2-318.6 254.7-412.9 59.8z" fill="#fff"/><path d="m2188.1 2404.6-18.3.5-22.5 18.1-7.7 16.9 2.1 46.5 20.9 131.9-275.6-3-19.3-219.6 4.7-34.1 12.5-37.1 24-38.1 36-36 36.5-19.8 37.1-13.1 112.8-19.8 51.7-11 21.9-11 14.4-2.2 41.7 6.4 52.7 4.9 43.2-5.3 32.7-2.4 44.4-9.6 55.2-18.2 43.2-21 35.6-25.4 40.2-24.9 35.8-25.4 14.1-18.6 18 38 16.8 36.5 27.7 64.4 18.6 46.8-1 31.2-2 35.7-16.1 36.8-25.2 37.3-20.6 16.1-28.2 17.1-36.8 11.6-64.9 13.1-58.9 9.1-22.9 12.1-7.3 35.7 7.3 52.4 16.4 111.2-278.9-1.9z" fill="#e6bcfe"/><path d="m2463.4 2639.4v104.5l-129.5.8-4.4-20.9-26 24.8-214.2-1.5-7.5-53.1 6-17.9 11.5-4.3 29-1.3 62.9-1 26.1-8 16.7-21 156.4-3z" fill="#ffde12"/><path d="m2147.3 2670.2v-51.7h-228l-12.7 16.9-17.3 9.1-33.6 6.2-83 3-8.5 13.8 4.7 21.7 3.9 31.6 213.9 3 25.7-19.8 5 19.8h68.5l-5.3-35.6 7.1-12.2 22.9-5.6z" fill="#ffde12"/><path d="m2463.2 2763.1.1-19.2-129.5.8 4.8 20.8z" fill="#fff"/><path d="m2303.4 2748.6-21.4 16.9-189.5-3.2-3.4-19.5 207.9 1.9z" fill="#fff"/><path d="m1772.8 2720.8 3.8 23.9h188.6l21.5-20.9z" fill="#fff"/><path d="m2017.4 2723.8 3.7 20.9 68.1 2.4-3.3-23.3z" fill="#fff"/><path d="m2055.1 1945.1 85.6-11.3 59.7-9.9 72.6-15.3 78-22.2 50.5-15.3 40.5-18.6 57-25.8 61.5-39.8 28.3-23.7-10.8 40.3 2.9 48.9 18.3 45.5 18.8 31.8-13.7 18-43.6 36.3-42.9 28.6-75.5 33.8-57.1 15.4-44.1 12.6-55.1 8.6-54.6 6.7-40.9.9h-56.1l-18.3-50.1-11.7-30.4-14.2-26.2-22.2-26.8z" fill="#ffde12"/><path d="m2509.8 1831.1-7.4 91.2 51.4 62.1 19.1-76.6z" fill="#fff"/><path d="m2392.9 1885.5 57.4 73.4-18.5 82-50-57.9z" fill="#fff"/><path d="m2264.6 1921.1-9.8 90.2 49.8 61.1 22.4-78.8z" fill="#fff"/><path d="m2155.1 1941.4 55.9 69-18.1 75.1-52.2-54.2 7.4-89.8z" fill="#fff"/><path d="m1901.6 2298.2 25.2-29.5 29-24.2 25.6-13.7 48.2-15.8 44.5-7.1 80.2-16.2 28.6-4.8 21.9-11-18.8-8.2-18.1-10.2-16.9-21.1-28.2-77.3-32.7-74.9-35.2-39.2-19.9-6.5-84.6-20.2-18.4 128.7-31.5 234.6" fill="#ffde12"/><path d="m1869.6 2493.9-2 32 11.8 2.5-5.9-34.5z" fill="#ffde12"/><path d="m2577.1 2416.7 17 108.5-131.4 3-5.1-40.4 3.3-39 24.7-20.8 40.3-11.3z" fill="#ffde12"/><path d="m1876.1 2530.6-8.5 16.6-30.1 14.1-102.1 2.8-10.9 12.8 8.5 58.1 173.8.4 12.7-16.9 25.7-2.3-10.3-.1-47.8-.5z" fill="#fff"/><path d="m1732.4 2634.1 6.6 20 145.1-4.1 20.1-14.3z" fill="#fff"/><path d="m1872.9 2630.9 3.6 15.9 26.1-5.7 6.6-12.7z" fill="#fff"/><path d="m2548 2528.2 12.6 24.4 18.9 16 34.9 7.2h48.4l42.1 4.4 4.5 14.8-3 26.1-9.1 47.6h-192l-26.2-29.3-5.2-31-11.2-80.2z" fill="#fff"/><path d="m1289.3 1508c27.2 0 53.6 5.3 78.4 15.8 24 10.1 45.5 24.7 64 43.2s33 40 43.2 64c10.5 24.8 15.8 51.2 15.8 78.4s-5.3 53.6-15.8 78.4c-10.1 24-24.7 45.5-43.2 64s-40 33-64 43.2c-24.8 10.5-51.2 15.8-78.4 15.8s-53.6-5.3-78.4-15.8c-24-10.1-45.5-24.7-64-43.2s-33-40-43.2-64c-10.5-24.8-15.8-51.2-15.8-78.4s5.3-53.6 15.8-78.4c10.1-24 24.7-45.5 43.2-64s40-33 64-43.2c24.8-10.5 51.2-15.8 78.4-15.8m0-10c-116.7 0-211.3 94.6-211.3 211.3s94.6 211.3 211.3 211.3 211.3-94.6 211.3-211.3-94.6-211.3-211.3-211.3z"/><path d="m1812.9 2412.5h-1047.3c-2.8 0-5-2.2-5-5v-1418.9c0-2.8 2.2-5 5-5h1047.2c2.8 0 5 2.2 5 5v665.9c0 2.8-2.2 5-5 5s-5-2.2-5-5v-660.9h-1037.2v1408.9h1037.2v-511.1c0-2.8 2.2-5 5-5s5 2.2 5 5v516.1c.1 2.8-2.1 5-4.9 5z"/><path d="m2116.4 1427.4c-1.9 0-3.8-1.1-4.6-3l-47.7-109.2-249.2 111.8c-2.5 1.1-5.5 0-6.6-2.5s0-5.5 2.5-6.6l253.8-113.8c1.2-.5 2.6-.6 3.8-.1s2.2 1.4 2.8 2.7l49.8 113.8c1.1 2.5 0 5.5-2.6 6.6-.7.2-1.3.3-2 .3z"/><path d="m528.1 1955.8c-1.8 0-3.6-1-4.4-2.7l-103.5-199.7c-.7-1.3-.7-2.9-.2-4.3.6-1.4 1.7-2.4 3.2-2.8l341-101.7c2.6-.8 5.4.7 6.2 3.4s-.7 5.4-3.4 6.2l-335.2 99.9 98.7 190.6 233.5-74.1c2.6-.8 5.4.6 6.3 3.3.8 2.6-.6 5.4-3.3 6.3l-237.6 75.4c-.3.1-.8.2-1.3.2z"/><path d="m356.4 1888.9c-.3 0-.5 0-.8-.1-2.7-.4-4.6-3-4.2-5.7l2.7-17.2c.4-2.7 3-4.6 5.7-4.2s4.6 3 4.2 5.7l-2.7 17.2c-.4 2.5-2.5 4.3-4.9 4.3z"/><path d="m527.8 2641.3h-.1l-288.2-6.3c-1.4 0-2.8-.7-3.7-1.8s-1.3-2.6-1.1-4l110.5-706.5c.4-2.7 3-4.6 5.7-4.2s4.6 3 4.2 5.7l-109.6 700.9 278.2 6.1 94.8-530.7c.4-2.4 2.6-4.2 5-4.1 2.5 0 4.5 1.9 4.9 4.3l72.5 526 156.8 2c2.8 0 5 2.3 4.9 5.1 0 2.7-2.3 4.9-5 4.9 0 0 0 0-.1 0l-161.1-2.1c-2.5 0-4.6-1.9-4.9-4.3l-68.8-498.9-90 503.8c-.4 2.4-2.5 4.1-4.9 4.1z"/><path d="m316 1309.7c-57.6-.5-111.5-23.3-151.8-64s-62.5-94.8-62.5-152.4c0-57.8 22.5-112.1 63.4-153s95.2-63.4 153-63.4h3.8c40.8.7 80.6 13.6 115 37.2 2.3 1.6 2.9 4.7 1.3 7s-4.7 2.9-7 1.3c-32.8-22.5-70.7-34.8-109.5-35.5-1.2 0-2.4 0-3.6 0-113.8 0-206.3 92.6-206.3 206.3 0 54.9 21.2 106.5 59.6 145.3s89.9 60.5 144.8 61h3.2c15.2-.1 30.6-2.2 45.8-6.4 2.7-.7 5.4.8 6.1 3.5s-.8 5.4-3.5 6.1c-16 4.4-32.3 6.6-48.4 6.7h-3.4z"/><path d="m413.2 1285.3c-1.8 0-3.6-1-4.5-2.8-1.2-2.5-.2-5.5 2.3-6.7 43.3-21.3 77.6-57 96.4-100.3 11.3-26 17-53.6 17-82.2 0-13.9-1.4-27.7-4.1-41.2-1.4-7-3.3-14.1-5.5-21-.8-2.6.6-5.4 3.2-6.3 2.6-.8 5.4.6 6.3 3.2 2.3 7.3 4.3 14.7 5.8 22.1 2.9 14.1 4.3 28.6 4.3 43.1 0 29.9-6 58.9-17.8 86.1-19.8 45.5-55.7 82.9-101.1 105.3-.8.5-1.5.7-2.3.7z"/><path d="m477.6 961.3c-1.4 0-2.8-.6-3.7-1.7-3-3.4-6.1-6.7-9.2-9.7-2-1.9-2-5.1 0-7.1s5.1-2 7.1 0c3.3 3.2 6.5 6.7 9.7 10.2 1.8 2.1 1.6 5.2-.4 7.1-1.2.8-2.3 1.2-3.5 1.2z"/><path d="m2177.7 1418.3c47.7 0 94 17.1 130.5 48.2 36.8 31.4 61.1 75.1 68.4 123.1 4.1 26.9 2.7 53.8-3.9 79.8-6.4 25.2-17.6 48.7-33.1 69.7-15.5 21.1-34.6 38.6-56.8 52.2-23 14.1-48.2 23.3-75.1 27.3-10.1 1.5-20.3 2.3-30.3 2.3-47.7 0-94-17.1-130.5-48.2-36.8-31.4-61.1-75.1-68.3-123.1-4.1-26.9-2.7-53.8 3.9-79.8 6.4-25.2 17.6-48.7 33.1-69.7 15.5-21.1 34.7-38.6 56.8-52.2 23-14.1 48.2-23.3 75.1-27.3 9.9-1.5 20.1-2.3 30.2-2.3zm0-10c-10.5 0-21.1.8-31.8 2.4-115.4 17.4-194.8 125.1-177.4 240.6 15.8 104.7 105.9 179.8 208.7 179.8 10.5 0 21.1-.8 31.8-2.4 115.4-17.4 194.8-125.1 177.4-240.6-15.8-104.7-106-179.8-208.7-179.8z"/><path d="m1913.9 1380.3c-2.6 0-4.8-2-5-4.6l-3.3-41.1v-.1c-1.6-26.6-12.3-52.3-30-72.2l-65.6-73.7c-1.8-2.1-1.7-5.2.4-7.1 2.1-1.8 5.2-1.7 7.1.4l65.6 73.7c19.2 21.6 30.8 49.4 32.5 78.2l3.3 41c.2 2.8-1.8 5.2-4.6 5.4-.1.1-.3.1-.4.1z"/><path d="m1916.3 1046.1c-1.1 0-2.1-.3-3-1l-190.6-141.3c-2.2-1.6-2.7-4.8-1-7 1.6-2.2 4.8-2.7 7-1l184.9 137.1 58.6-186.4-176.7-81c-.1 0-.2-.1-.3-.1-31-16.4-66.6-20.1-100.3-10.4s-61.8 31.9-79.3 62.3c-28.8 50.2-22.2 112.9 16.2 156.1l9.3 10.4c1.8 2.1 1.7 5.2-.4 7.1-2.1 1.8-5.2 1.7-7.1-.4l-9.3-10.4c-41.3-46.4-48.3-113.8-17.4-167.8 18.7-32.7 49-56.4 85.2-66.9 36.1-10.5 74.3-6.5 107.6 11.1l180.6 82.8c2.3 1.1 3.4 3.6 2.7 6l-62 197.3c-.5 1.5-1.7 2.8-3.2 3.3-.4.1-.9.2-1.5.2z"/><path d="m2511.9 1513.2c-2.4 0-4.5-1.7-4.9-4.1-11.1-59.8-8.3-122.3 8.2-180.9s46.8-113.5 87.5-158.8l219.5-243.8c38.8-43.1 45.6-105.9 16.7-156.3-17.4-30.3-45.5-52.4-79-62.1s-68.8-6.1-99.6 10.1l-149.1 112.7 61.2 182.1 176.5-146.1c2.1-1.8 5.3-1.5 7 .7 1.8 2.1 1.5 5.3-.7 7l-182.1 150.7c-1.3 1.1-3 1.4-4.6 1-1.6-.5-2.8-1.7-3.4-3.2l-64.6-192.4c-.7-2 0-4.3 1.7-5.6l152.3-115.1c.2-.2.4-.3.7-.4 33.2-17.6 71.4-21.5 107.5-11.1s66.3 34.1 84.9 66.7c31 54.1 23.8 121.6-17.9 168l-219.5 243.8c-39.7 44.1-69.2 97.6-85.3 154.8-16.1 57.1-18.8 118.1-8 176.3.5 2.7-1.3 5.3-4 5.8-.4.2-.7.2-1 .2z"/><path d="m2508.6 1025.7c-7.3 0-14.6-2.3-20.7-6.6-8.4-6-13.8-15.3-14.8-25.5l-2.9-29.2c-2.5-25.5-13.9-49.5-31.9-67.7l-60.7-61.2c-11.6-11.7-13.8-29.8-5.4-44 5.2-8.8 14-15 24-17s20.5.4 28.7 6.5l90.2 67.4c2.2 1.7 2.7 4.8 1 7s-4.8 2.7-7 1l-90.2-67.4c-5.9-4.4-13.5-6.1-20.7-4.7-7.3 1.4-13.6 5.9-17.4 12.3-6.1 10.3-4.5 23.4 3.9 31.8l60.7 61.2c19.6 19.8 32 46 34.8 73.7l2.9 29.2c.7 7.4 4.6 14 10.6 18.3s13.6 5.8 20.8 4.1c10.1-2.4 17.7-10.6 19.4-20.8l7.2-44.3c.4-2.7 3-4.6 5.7-4.1 2.7.4 4.6 3 4.1 5.7l-7.2 44.3c-2.3 14.3-12.9 25.6-27 29-2.6.7-5.4 1-8.1 1z"/><path d="m1867 2533.9c-1.4 0-2.8-.6-3.7-1.6-1-1.1-1.5-2.6-1.3-4l7.7-56.2c.4-2.7 2.9-4.6 5.6-4.3 2.7.4 4.6 2.9 4.3 5.6l-6.9 50.3 6.5-.3c2.7-.1 5.1 2 5.2 4.8s-2 5.1-4.8 5.2l-12.5.5z"/><path d="m1897.9 2307.9c-.2 0-.5 0-.7 0-2.7-.4-4.6-2.9-4.3-5.6l52.6-384.4c.4-2.7 2.9-4.6 5.6-4.3 2.7.4 4.6 2.9 4.3 5.6l-52.6 384.4c-.3 2.4-2.4 4.3-4.9 4.3z"/><path d="m343.1 1378.4c-.5 0-1.1-.1-1.6-.3-2.6-.9-4-3.7-3.2-6.3l38.4-115.5c3.9-11 15.6-17.2 26.8-14.2 5.8 1.6 10.6 5.3 13.6 10.6 2.9 5.2 3.6 11.3 2 17l-14.4 56.4c-.7 2.7-3.4 4.3-6.1 3.6s-4.3-3.4-3.6-6.1l14.4-56.4c0-.1 0-.1 0-.2.9-3.2.5-6.5-1.1-9.4s-4.3-4.9-7.5-5.8c-6.1-1.7-12.6 1.7-14.7 7.8l-38.2 115.4c-.7 2.1-2.7 3.4-4.8 3.4z"/><path d="m528.1 1074.6c-1.8 0-3.5-1-4.4-2.7-1.3-2.4-.4-5.5 2.1-6.8l109.1-58c2.4-1.3 5.5-.4 6.8 2.1 1.3 2.4.4 5.5-2.1 6.8l-109.1 58c-.8.5-1.6.6-2.4.6z"/><path d="m349.7 1692.6c-16.6 0-33.2-3.6-48.8-10.9-2.5-1.2-3.6-4.1-2.4-6.6s4.1-3.6 6.6-2.4c25.6 11.9 54.3 13.2 80.9 3.5 26.5-9.7 47.6-29.1 59.5-54.7l77.1-202.9-208.6-40.7-62.7 160.6c-1 2.6-3.9 3.8-6.5 2.8s-3.8-3.9-2.8-6.5l64.2-164.5c.9-2.3 3.2-3.5 5.6-3.1l218.5 42.6c1.4.3 2.7 1.2 3.4 2.5s.8 2.8.3 4.2l-79.3 208.6c0 .1-.1.2-.1.3-13 28.1-36.2 49.4-65.2 60-12.9 4.9-26.3 7.2-39.7 7.2z"/><path d="m765.6 1053.3c-.3 0-.6 0-.9-.1l-118.5-21.4c-1.4-.2-2.5-1-3.3-2.2l-123.6-189.2c-1.1-1.7-1.1-3.9.1-5.6s3.2-2.5 5.2-2.1l235.4 49.5c34 7.2 61.9 30.8 74.4 63.2 5.1 13.1 7.4 26.7 6.9 40.5-.1 2.8-2.4 4.9-5.2 4.8s-4.9-2.4-4.8-5.2c.4-12.5-1.7-24.8-6.3-36.6-11.4-29.2-36.5-50.6-67.2-57l-223.6-47 115.9 177.3 116.4 21c2.7.5 4.5 3.1 4 5.8-.4 2.6-2.5 4.3-4.9 4.3z"/><path d="m1769.1 2366.7h-953.1c-2.8 0-5-2.2-5-5v-1323.8c0-2.8 2.2-5 5-5h953c2.8 0 5 2.2 5 5v613.4c0 2.8-2.2 5-5 5s-5-2.2-5-5v-608.4h-943v1313.8h943v-473.9c0-2.8 2.2-5 5-5s5 2.2 5 5v478.9c.1 2.8-2.2 5-4.9 5z"/><path d="m2018.8 2749c-2.5 0-4.6-1.8-4.9-4.3l-4.5-30.2-37.6 33.2c-.9.8-2.1 1.3-3.3 1.3h-192.5c-2.4 0-4.5-1.7-4.9-4.1l-9.6-54.2c-2.9-10.7-3.7-26.5 3.3-36.2 3.5-4.9 8.7-7.6 14.8-7.9 12.9-.7 29.1-.9 44.8-1.1 26.6-.4 54.2-.8 63.9-3.2 11.5-2.9 20-14.8 24-21.6l4-6.7c1.4-2.4 4.5-3.1 6.9-1.7s3.1 4.5 1.7 6.9l-4 6.6c-4.8 8.1-15.1 22.4-30.1 26.2-10.9 2.7-37.7 3.1-66.2 3.5-15.6.2-31.7.5-44.5 1.1-3.2.2-5.5 1.4-7.2 3.8-4 5.5-4.7 17-1.7 27.9 0 .1.1.3.1.4l8.9 50.3h186.4l43.1-38c1.4-1.2 3.3-1.6 5-.9 1.7.6 3 2.1 3.2 4l5.2 35 66.1-.1c2.8 0 5 2.2 5 5s-2.2 5-5 5z"/><path d="m2147.3 2675.5c-2.8 0-5-2.3-5-5l.4-52c0-2.7 2.3-5 5-5 2.8 0 5 2.3 5 5l-.4 52c0 2.7-2.2 5-5 5z"/><path d="m2017.4 2728.7c-2.7 0-5-2.2-5-5s2.2-5 5-5l67.6-.4c2.7 0 5 2.2 5 5s-2.2 5-5 5l-67.6.4c.1 0 .1 0 0 0z"/><path d="m1989.5 2728.8-216.7-.8c-2.8 0-5-2.3-5-5 0-2.8 2.2-5 5-5l216.7.8c2.8 0 5 2.3 5 5s-2.2 5-5 5z"/><path d="m2311 2187.8c-24.1 0-48.4-1.9-72.2-5.7l-36.6-5.8c-27.6-4.4-50.7-23.5-60.1-49.8-2-5.7-4.2-11.6-6.4-17.8-11-30.5-23.4-65.1-35.4-95.4-16.2-41-51.8-70.5-95.1-79l-360.6-70.9c-2.5-.5-4.3-2.9-4-5.4l23.6-217.2c.3-2.7 2.7-4.7 5.5-4.4l306.7 30.8c2.7.3 4.8 2.7 4.5 5.5-.3 2.7-2.7 4.8-5.5 4.5l-301.8-30.3-22.5 207.7 356.1 70c46.6 9.2 84.9 41 102.4 85.2 12.1 30.5 24.5 65.2 35.5 95.7 2.2 6.2 4.4 12.1 6.4 17.8 8.2 22.9 28.3 39.4 52.3 43.3l36.6 5.8c23.3 3.7 47.1 5.6 70.7 5.6 86.2 0 170.1-24.6 242.7-71.1l75.5-48.4c7.6-4.9 13.8-11.7 17.8-19.8 7.3-14.7 7-32.1-.8-46.5l-61.6-112.9c-.1-.1-.1-.2-.2-.4-22.8-51.6-12.4-111.3 26.4-152.2l208.4-219.7-116.4-142.3-314.1 249.6c-2.2 1.7-5.3 1.4-7-.8s-1.4-5.3.8-7l318-252.7c2.1-1.7 5.2-1.4 7 .7l122.3 149.6c1.6 1.9 1.5 4.8-.2 6.6l-211.5 222.9c-36 37.9-45.6 93.3-24.6 141.1l61.5 112.7c9.4 17.3 9.8 38.1 1 55.7-4.8 9.7-12.2 17.9-21.3 23.8l-75.5 48.5c-74.4 47.3-160.2 72.4-248.3 72.4z"/><path d="m303 1682.2c-.8 0-1.7-.2-2.5-.6l-21.9-12.3c-31-17.5-57.7-40.6-79.4-68.8s-37.3-59.9-46.3-94.4c-15.3-58.6-9.8-121.2 15.4-176.3l27.2-59.5c1.1-2.5 4.1-3.6 6.6-2.5s3.6 4.1 2.5 6.6l-27.2 59.5c-24.2 53-29.5 113.2-14.8 169.6 8.6 33.1 23.6 63.7 44.5 90.8s46.6 49.4 76.4 66.2l21.9 12.3c2.4 1.4 3.3 4.4 1.9 6.8-.8 1.7-2.5 2.6-4.3 2.6z"/><path d="m2478 2644.4-275.1-2.2c-2.6 0-4.7-2-4.9-4.6l-15.9-195.6c-4.9-47.2 7.8-94.2 35.8-132.4 28-38.3 69.1-64.6 115.5-74.1l173.7-35.5c2.7-.6 5.3 1.2 5.9 3.9s-1.2 5.3-3.9 5.9l-173.7 35.5c-44 9-82.9 33.9-109.5 70.2s-38.6 80.8-33.9 125.5v.1l15.5 191.1 264.7 2.1-21.3-157.8c-1.7-12.9 1.6-25.7 9.3-36.2 7.8-10.4 19.1-17.3 32-19.4l103.7-16.6c36.7-5.9 70.7-24.3 95.7-51.8s40-63.1 42.3-100.3c1.7-27.8-3.8-55.8-15.8-81l-67-139.8c-1.2-2.5-.1-5.5 2.3-6.7 2.5-1.2 5.5-.1 6.7 2.3l67 139.8c12.8 26.7 18.6 56.4 16.8 85.9-2.4 39.4-18.3 77.2-44.8 106.4s-62.6 48.7-101.5 55l-103.7 16.6c-21.4 3.4-35.8 22.9-32.9 44.3l22.1 163.5c.2 1.4-.2 2.9-1.2 4-1 1.3-2.4 1.9-3.9 1.9z"/><path d="m2463.2 2770.5-128-.5c-2.5 0-4.6-1.8-4.9-4.3l-4.5-30.2-37.6 33.2c-.9.8-2.1 1.3-3.3 1.3h-192.4c-2.4 0-4.5-1.7-4.9-4.1l-9.6-54.2c-2.9-10.7-3.7-26.5 3.3-36.2 3.5-4.9 8.7-7.6 14.8-7.9 12.9-.7 29.1-.9 44.8-1.1 26.6-.4 54.2-.8 63.9-3.2 11.5-2.9 20-14.8 24-21.6l4-6.7c1.4-2.4 4.5-3.1 6.9-1.7s3.1 4.5 1.7 6.9l-4 6.6c-4.8 8.1-15 22.4-30.1 26.2-10.9 2.7-37.7 3.1-66.2 3.5-15.6.2-31.7.5-44.5 1.1-3.2.2-5.5 1.4-7.2 3.8-4 5.5-4.7 17-1.7 27.9 0 .1.1.3.1.4l8.9 50.3h186.3l43.1-38c1.4-1.2 3.3-1.6 5-.9 1.7.6 3 2.1 3.2 4l5.2 35 118.7.5.9-121.1c0-2.7 2.3-5 5-5 2.8 0 5 2.3 5 5l-1 126.1c.1 2.7-2.2 4.9-4.9 4.9z"/><path d="m2333.9 2749.7c-2.7 0-5-2.2-5-5s2.2-5 5-5l129.5-.8c2.7 0 5 2.2 5 5s-2.2 5-5 5z"/><path d="m2306 2749.7-216.7-.8c-2.8 0-5-2.3-5-5 0-2.8 2.2-5 5-5l216.7.8c2.8 0 5 2.3 5 5 0 2.8-2.3 5-5 5z"/><path d="m765.7 1391.2c-2 0-3.9-1.2-4.7-3.3l-41.6-111.6c-12.2-32.7-2.5-69.8 24.2-92.3l18.8-15.9c2.1-1.8 5.3-1.5 7 .6 1.8 2.1 1.5 5.3-.6 7l-18.8 15.9c-23.5 19.8-32 52.4-21.3 81.2l41.6 111.6c1 2.6-.4 5.5-2.9 6.4-.6.3-1.2.4-1.7.4z"/><path d="m1155.8 2643.1c-.1 0-.1 0 0 0l-298.2-4.4c-1.4 0-2.8-.7-3.7-1.8s-1.3-2.5-1.1-4l33.3-226.2c.4-2.7 2.9-4.6 5.7-4.2 2.7.4 4.6 2.9 4.2 5.7l-32.5 220.6 292.4 4.3c2.8 0 5 2.3 4.9 5.1-.1 2.7-2.3 4.9-5 4.9z"/><path d="m1605.5 2653.9h-285.9c-2.6 0-4.8-2-5-4.6l-20.4-241.4c-.2-2.8 1.8-5.2 4.6-5.4s5.2 1.8 5.4 4.6l20 236.8h276.1l-7.2-236.3c-.1-2.8 2.1-5.1 4.8-5.2s5.1 2.1 5.2 4.8l7.4 241.4c0 1.4-.5 2.7-1.4 3.6-1 1.2-2.3 1.7-3.6 1.7z"/><path d="m1339.5 2791.2c-2.7 0-5-2.2-5-5l-1-136.6c0-2.8 2.2-5 5-5 2.7 0 5 2.2 5 5l1 131.6 118.7-.5 5.2-35c.3-1.8 1.5-3.3 3.2-4 1.7-.6 3.6-.3 5 .9l43.1 38h186.4l8.9-50.3c0-.1.1-.3.1-.4 3-11 2.3-22.4-1.7-27.9-1.8-2.4-4.1-3.6-7.2-3.8-12.7-.6-28.9-.9-44.5-1.1-28.5-.4-55.3-.8-66.2-3.5-15.1-3.8-25.4-18.1-30.2-26.3l-9.1-15.9c-1.4-2.4-.5-5.5 1.9-6.8 2.4-1.4 5.5-.5 6.8 1.9l9.1 15.9c4 6.8 12.4 18.7 24 21.6 9.7 2.4 37.3 2.8 63.9 3.2 15.7.2 31.9.5 44.8 1.1 6.2.3 11.3 3.1 14.8 7.9 7 9.7 6.1 25.5 3.3 36.2l-9.6 54.2c-.4 2.4-2.5 4.1-4.9 4.1h-192.4c-1.2 0-2.4-.4-3.3-1.3l-37.6-33.2-4.5 30.2c-.4 2.4-2.5 4.3-4.9 4.3z"/><path d="m1468.9 2770.3c-.1 0-.1 0 0 0l-129.5-.8c-2.8 0-5-2.3-5-5 0-2.8 2.3-5 5-5l129.5.8c2.8 0 5 2.3 5 5-.1 2.8-2.3 5-5 5z"/><path d="m1496.8 2770.4c-2.8 0-5-2.2-5-5s2.2-5 5-5l216.7-.8c2.8 0 5 2.2 5 5s-2.2 5-5 5z"/><path d="m1155.8 2643.1c-.2 0-.4 0-.6 0-2.7-.4-4.7-2.9-4.3-5.6l29.9-230.6c.4-2.7 2.9-4.7 5.6-4.3s4.7 2.9 4.3 5.6l-29.9 230.6c-.4 2.5-2.5 4.3-5 4.3z"/><path d="m1817.9 1661.2c-1.9 0-3.8-1.1-4.6-3-1.1-2.5.1-5.5 2.6-6.6l155.2-66.9c2.5-1.1 5.5.1 6.6 2.6s-.1 5.5-2.6 6.6l-155.2 66.9c-.7.3-1.3.4-2 .4z"/><path d="m1987.3 1025.7c-2.7 0-5.5-.3-8.2-1-14-3.3-24.6-14.7-26.9-28.9l-9.9-51.7c-.5-2.7 1.3-5.3 4-5.8s5.3 1.3 5.8 4l9.9 51.8v.1c1.7 10.3 9.3 18.4 19.4 20.8 7.2 1.7 14.8.2 20.8-4.1s9.9-11 10.6-18.3l2.9-29.2c2.8-27.8 15.1-53.9 34.8-73.7l60.7-61.2c8.4-8.5 10-21.6 3.9-31.8-3.8-6.4-10.1-10.8-17.4-12.3-7.3-1.4-14.8.3-20.7 4.7l-100.8 75.4c-2.2 1.7-5.3 1.2-7-1s-1.2-5.3 1-7l100.8-75.4c8.2-6.1 18.6-8.5 28.7-6.5 10 2 18.8 8.2 24 17 8.5 14.2 6.2 32.3-5.4 44l-60.7 61.2c-18 18.2-29.4 42.2-31.9 67.7l-2.9 29.2c-1 10.2-6.4 19.5-14.8 25.5-6.1 4.2-13.4 6.5-20.7 6.5z"/><path d="m2804.9 1486.8c-2.5 0-3.8-1.4-4.5-2.7-1.1-2-.7-5 1.9-6.8 1-.6 2.1-.9 3.2-.8.8-.3 2.2-.8 4.4-1.7 8.4-3.3 38.7-14.3 42.7-15.8l56.5-32.4c2.8-1.6 4.7-4.1 5.5-7 .7-2.6.4-5.2-.9-7.4-2.9-4.9-9.6-6.4-15-3.3l-22.5 12.9c-3.6 2.1-7.9 2.1-11.6.1-3.6-2-5.9-5.7-6-9.9-.1-4 1.8-7.8 5.2-10.1l51.3-34.5c2.7-1.8 4.4-4.4 5-7.4.5-2.6 0-5.2-1.5-7.4-3.2-4.7-10.1-5.7-15.2-2.2l-51.5 34.7c-1.9 1.3-4.2 1.7-6.4 1.2s-4.1-1.9-5.3-3.9c-1.9-3.2-1.4-7.3 1.2-9.9l8.4-8.6 46.4-46.3c2.3-2.3 3.5-5.2 3.5-8.2 0-2.7-1-5.1-2.8-6.9-4.1-4-11-3.7-15.4.7 0 0-.1.1-.1.1l-53.2 49.4c-3.4 3.1-8.3 3.7-12.4 1.5-2.6-1.5-4.5-4-5.2-6.9s-.1-6 1.7-8.5l34.2-50c2.9-4.2 2-9.9-1.9-13.1-2.1-1.7-4.8-2.4-7.4-2.1-2.7.4-5 1.8-6.6 4l-47.3 66.5c-1.6 2.3-4.7 2.8-7 1.2-2.2-1.6-2.8-4.7-1.2-7l47.3-66.5c3.1-4.4 8-7.4 13.4-8.1s10.9.8 15.1 4.2c8 6.4 9.7 18.1 3.9 26.6l-34.3 50c-.1.2-.2.4-.1.5 0 .2.1.3.3.4s.5.1.7-.1l53.1-49.4c8.3-8.2 21.5-8.5 29.4-.7 3.7 3.7 5.8 8.7 5.8 14 0 5.7-2.3 11.2-6.4 15.3l-42.5 42.4 37-24.9c9.7-6.5 22.8-4.4 29.1 4.9 3 4.3 4 9.6 3 14.9-1.1 5.6-4.4 10.5-9.2 13.8l-51.3 34.5c-.5.3-.8.9-.8 1.5 0 .9.6 1.3.9 1.5s1 .4 1.7 0l22.5-12.9c10.2-5.8 23-2.7 28.6 7 2.6 4.5 3.3 9.9 2 15.1-1.5 5.5-5.1 10.2-10.2 13.1l-56.9 32.6c-.2.1-.5.3-.8.4s-34.2 12.4-42.9 15.8c-2.7 1.1-4.6 1.8-5.9 2.2-1 .3-1.9.4-2.7.4z"/><path d="m2724.3 1386c-.5 0-1-.1-1.5-.2-2.6-.8-4.1-3.7-3.2-6.3l9.8-30.5c.1-.2.1-.4.2-.6l27.7-59.1c4.9-10.5 17.4-15.5 27.8-11.2 9.8 4 14.6 15.2 11 25.5-.4 1-.9 2.4-1.2 3.8v.1l-10.7 35.3c-.8 2.6-3.6 4.1-6.2 3.3s-4.1-3.6-3.3-6.2l10.7-35.2c.5-1.7 1-3.3 1.5-4.5 1.9-5.3-.4-10.8-5.3-12.8-5.5-2.3-12.2.5-14.9 6.3l-27.6 58.8-9.7 30.2c-1.1 1.9-3 3.3-5.1 3.3z"/><path d="m1597.6 1697.8c-1 0-1.9-.3-2.8-.8l-45.8-30.6c-.2-.1-.3-.2-.5-.4-11.6-10-14.2-26.8-6.2-39.9 4.4-7.1 11.3-12.1 19.4-14s16.5-.5 23.7 3.9l83 51.9c2.3 1.5 3.1 4.5 1.6 6.9s-4.5 3.1-6.9 1.6l-83-51.9c-4.8-3-10.5-4-16.1-2.7-5.5 1.3-10.2 4.7-13.2 9.5-5.4 8.8-3.7 20.1 4 26.9l45.6 30.4c2.3 1.5 2.9 4.6 1.4 6.9-1 1.5-2.6 2.3-4.2 2.3z"/><path d="m1487.8 1829.7c-7.3 0-14.7-2.6-20.6-7.9-2.1-1.8-2.2-5-.4-7.1s5-2.2 7.1-.4c8.5 7.6 21.4 7 29.2-1.2l24.3-25.6c8.5-8.9 21.4-11.9 33-7.6 29 10.9 60.6 14.3 91.4 9.9 2.7-.4 5.3 1.5 5.7 4.2s-1.5 5.3-4.2 5.7c-32.4 4.6-65.7 1-96.3-10.4-7.8-2.9-16.5-.9-22.2 5.1l-24.3 25.6c-6.3 6.4-14.5 9.7-22.7 9.7z"/><path d="m1551.5 1697.8c-.5 0-.9-.1-1.4-.2l-56.4-16.4c-2.7-.8-4.2-3.5-3.4-6.2s3.5-4.2 6.2-3.4l56.4 16.4c2.7.8 4.2 3.5 3.4 6.2-.7 2.2-2.7 3.6-4.8 3.6z"/><path d="m1488.2 1773.9c-1.2 0-2.3-.4-3.3-1.2-2.1-1.8-2.3-5-.5-7l15.1-17.7c1.8-2.1 5-2.3 7.1-.5s2.3 5 .5 7l-15.1 17.7c-1 1.1-2.4 1.7-3.8 1.7z"/><path d="m1535.5 1739.3c-.4 0-.8 0-1.2-.1l-39.7-9.4c-2.7-.6-4.3-3.3-3.7-6s3.3-4.3 6-3.7l39.7 9.4c2.7.6 4.3 3.3 3.7 6-.5 2.2-2.6 3.8-4.8 3.8z"/><path d="m2161.6 2623.5-275.1-2.2c-2.6 0-4.7-2-4.9-4.6l-15.9-195.6c-4.9-47.2 7.8-94.2 35.8-132.4 28-38.3 69.1-64.6 115.5-74.1 1.7-.3 167.4-34.1 173.6-35.5 4.7-1.1 8.7-4 11-8.2 1.4-2.4 4.4-3.3 6.8-1.9s3.3 4.4 1.9 6.8c-3.7 6.6-10.1 11.4-17.6 13-6.4 1.4-167 34.2-173.8 35.6-44 9-82.9 33.9-109.5 70.2s-38.6 80.8-33.9 125.5v.1l15.5 191.1 264.7 2.1-21.3-157.8c-1.7-12.9 1.6-25.7 9.3-36.2 7.8-10.4 19.1-17.3 32-19.4 2.7-.4 5.3 1.4 5.7 4.1s-1.4 5.3-4.1 5.7c-21.4 3.4-35.8 22.9-32.9 44.3l22.1 163.5c.2 1.4-.2 2.9-1.2 4-.9 1.3-2.3 1.9-3.7 1.9z"/><path d="m1770.3 2660.7h-34.7c-2.4 0-4.5-1.7-4.9-4.1l-9.6-54.2c-2.9-10.7-3.7-26.5 3.3-36.2 3.5-4.9 8.7-7.6 14.8-7.9 12.9-.7 29.1-.9 44.8-1.1 26.6-.4 54.2-.8 63.9-3.2 11.5-2.9 20-14.8 24-21.6l2.5-4.2c1.4-2.4 4.5-3.1 6.9-1.7s3.1 4.5 1.7 6.9l-2.5 4.2c-4.8 8.1-15 22.4-30.1 26.2-10.9 2.7-37.7 3.1-66.2 3.5-15.6.2-31.7.5-44.5 1.1-3.2.2-5.5 1.4-7.2 3.8-4 5.5-4.7 17-1.7 27.9 0 .1.1.3.1.4l8.9 50.3h30.5c2.8 0 5 2.2 5 5s-2.3 4.9-5 4.9z"/><path d="m1906.7 2640.4-174.4-.7c-2.8 0-5-2.3-5-5 0-2.8 2.2-5 5-5l174.3.7c2.8 0 5 2.3 5 5 .1 2.7-2.1 5-4.9 5z"/><path d="m1139.8 2784.7-128-.5c-2.5 0-4.6-1.8-4.9-4.3l-4.5-30.2-37.6 33.2c-.9.8-2.1 1.3-3.3 1.3h-192.5c-2.4 0-4.5-1.7-4.9-4.1l-9.6-54.2c-2.9-10.7-3.7-26.5 3.3-36.2 3.5-4.9 8.7-7.6 14.8-7.9 12.9-.7 29.1-.9 44.8-1.1 26.6-.4 54.2-.8 63.9-3.2 11.5-2.9 20-14.8 24-21.6l13.4-22.1c1.4-2.4 4.5-3.1 6.9-1.7s3.1 4.5 1.7 6.9l-13.3 22c-4.8 8.1-15 22.4-30.1 26.2-10.9 2.7-37.7 3.1-66.2 3.5-15.6.2-31.7.5-44.5 1.1-3.2.2-5.5 1.4-7.2 3.8-4 5.5-4.7 17-1.7 27.9 0 .1.1.3.1.4l8.9 50.3h186.4l43.1-38c1.4-1.2 3.3-1.6 5-.9 1.7.6 3 2.1 3.2 4l5.2 35 118.7.5 1-131.6c0-2.7 2.3-5 5-5 2.8 0 5 2.3 5 5l-1 136.6c-.2 2.7-2.4 4.9-5.1 4.9z"/><path d="m982.5 2764-216.7-.8c-2.8 0-5-2.3-5-5 0-2.8 2.2-5 5-5l216.7.8h27.9l129.5-.8c2.7 0 5 2.2 5 5s-2.2 5-5 5l-129.5.8z"/><path d="m506.9 2778.6c-.1 0-.1 0 0 0l-128-.5c-2.5 0-4.6-1.8-4.9-4.3l-4.5-30.2-37.6 33.2c-.9.8-2.1 1.3-3.3 1.3h-192.5c-2.4 0-4.5-1.7-4.9-4.1l-9.6-54.2c-2.9-10.7-3.7-26.5 3.3-36.2 3.5-4.9 8.7-7.6 14.8-7.9 12.9-.7 29.1-.9 44.8-1.1 26.6-.4 54.2-.8 63.9-3.2 11.5-2.9 20-14.8 24-21.6l9.1-15.8c1.4-2.4 4.4-3.2 6.8-1.9 2.4 1.4 3.2 4.4 1.9 6.8l-9.1 15.9c-4.8 8.2-15.1 22.5-30.2 26.3-10.9 2.7-37.7 3.1-66.2 3.5-15.6.2-31.7.5-44.5 1.1-3.2.2-5.5 1.4-7.2 3.8-4 5.5-4.7 17-1.7 27.9 0 .1.1.3.1.4l8.9 50.3h186.4l43.1-38c1.4-1.2 3.3-1.6 5-.9 1.7.6 3 2.1 3.2 4l5.2 35 118.7.5 1-131.6c0-2.7 2.3-5 5-5 2.8 0 5 2.3 5 5l-1 136.6c-.1 2.7-2.3 4.9-5 4.9z"/><path d="m377.5 2757.8c-2.7 0-5-2.2-5-5s2.2-5 5-5l129.5-.8c2.7 0 5 2.2 5 5s-2.2 5-5 5z"/><path d="m349.6 2757.8-216.7-.7c-2.8 0-5-2.3-5-5 0-2.8 2.2-5 5-5l216.7.7c2.8 0 5 2.3 5 5 0 2.8-2.2 5-5 5z"/><path d="m715.1 2784.7c-1.3 0-2.6-.5-3.5-1.4s-1.5-2.2-1.5-3.5l-1.1-147.8c0-2.8 2.2-5 5-5 2.7 0 5 2.2 5 5l1.1 142.8 48.9-.5c2.8 0 5 2.2 5 5s-2.2 5-5 5z"/><path d="m765.8 2763.2h-50.9c-2.8 0-5-2.2-5-5s2.2-5 5-5h50.9c2.8 0 5 2.2 5 5s-2.2 5-5 5z"/><path d="m1011.8 2784.2h-50.4c-2.8 0-5-2.2-5-5s2.2-5 5-5h50.4c2.8 0 5 2.2 5 5s-2.2 5-5 5z"/><path d="m2235.7 1424.5c-1.9 0-3.8-1.1-4.6-3-1.1-2.5.1-5.5 2.6-6.6l25.8-11.1c2.9-1.2 5.2-3.6 6.3-6.3 1-2.5 1-5.1-.1-7.5-2.3-5.2-8.8-7.5-14.6-5l-23.9 10.2c-3.8 1.6-8.1 1.2-11.5-1.3-3.4-2.4-5.2-6.4-4.8-10.5.3-4 2.7-7.5 6.3-9.4l54.9-28.4c2.8-1.5 4.9-3.9 5.8-6.8.8-2.6.6-5.2-.6-7.5-2.7-5-9.3-6.8-14.9-3.9l-55.1 28.5c-2 1-4.4 1.2-6.5.5-2.1-.8-3.9-2.4-4.8-4.4-1.5-3.4-.5-7.4 2.3-9.7l9.3-7.6 51.4-40.7c2.5-2 4.1-4.8 4.4-7.8.3-2.7-.4-5.2-2-7.2-3.6-4.4-10.5-4.9-15.4-1 0 0-.1.1-.1.1l-58.5 43c-3.7 2.7-8.7 2.8-12.4.1-2.5-1.8-4-4.5-4.4-7.5-.3-3 .6-6 2.6-8.2l39.7-45.7c3.3-3.8 3.1-9.6-.4-13.2-1.9-1.9-4.4-3-7.2-2.9-2.7.1-5.2 1.2-7 3.2l-54.6 60.7c-1.8 2.1-5 2.2-7.1.4s-2.2-5-.4-7.1l54.6-60.7c3.6-4 8.8-6.4 14.2-6.5s10.7 2 14.5 5.9c7.2 7.3 7.6 19.1.9 26.8l-39.8 45.8c-.1.1-.2.2-.2.5 0 .2.1.3.2.4.2.1.5.1.7 0l58.4-43c9.2-7.2 22.3-6 29.3 2.7 3.3 4.1 4.8 9.3 4.2 14.6-.6 5.6-3.6 10.9-8.2 14.5l-47.1 37.3 39.7-20.5c10.4-5.4 23.1-1.7 28.3 8.2 2.4 4.6 2.9 10 1.3 15.1-1.7 5.5-5.5 10-10.8 12.7l-54.9 28.4c-.5.3-.9.8-.9 1.4-.1.8.4 1.3.7 1.5s.9.5 1.7.2l23.9-10.2c10.8-4.6 23.2 0 27.7 10.2 2.1 4.8 2.2 10.2.2 15.2-2.1 5.3-6.2 9.5-11.7 11.9l-25.8 11.1c-.3-.1-1 .1-1.6.1z"/><path d="m2081.1 1342.1c-.7 0-1.4-.1-2.1-.4-2.5-1.1-3.6-4.1-2.5-6.6l13.2-29.2c.1-.2.2-.4.3-.6l34.3-55.5c6.1-9.8 19-13.4 28.9-8 9.3 5.1 12.8 16.8 8 26.6-.5 1.1-1.1 2.4-1.7 3.7v.1l-14.7 33.8c-1.1 2.5-4 3.7-6.6 2.6-2.5-1.1-3.7-4-2.6-6.6l14.6-33.8c.6-1.6 1.3-3.1 2-4.3 2.5-5 .8-10.8-3.8-13.4-5.2-2.9-12.2-.9-15.5 4.5l-34.1 55.2-13.1 28.9c-.9 1.9-2.7 3-4.6 3z"/><path d="m419.7 1993.3c-1.4 0-2.7-.1-4.1-.4-5.3-1-9.8-4-12.7-8.4-6.2-9.3-3.4-22.2 6.3-28.8l21.5-14.6c.7-.5.8-1.2.8-1.5s-.2-1-.9-1.4c-.5-.3-1.1-.3-1.6 0l-53.6 30.9c-5 2.9-11 3.7-16.5 2.2-5.2-1.4-9.4-4.7-12-9.3-5.5-9.7-1.7-22.4 8.4-28.3l38.6-22.3-56.7 19.5c-5.6 1.9-11.5 1.6-16.6-1-4.8-2.4-8.4-6.4-10-11.4-3.5-10.6 2.5-22.3 13.6-26.1l67.7-26c.2-.1.4-.3.4-.6 0-.2-.1-.3-.2-.4s-.3-.1-.5-.1l-60.1 8.8c-10.1 1.5-19.9-5.2-22.1-15.2-1.2-5.3-.1-10.9 2.9-15.4s7.8-7.6 13.2-8.4l80.5-13.2c2.7-.4 5.3 1.4 5.7 4.1s-1.4 5.3-4.1 5.7l-80.5 13.2c-2.7.4-5 1.9-6.5 4.2-1.5 2.2-2 4.9-1.4 7.6 1.1 4.9 5.9 8.2 10.9 7.5l60-8.8c2.9-.5 5.9.3 8.3 2.2 2.3 1.9 3.8 4.7 3.9 7.7.2 4.6-2.5 8.8-6.8 10.4l-67.8 26c-.1 0-.1 0-.2.1-5.9 2-9.2 8.1-7.4 13.5.8 2.4 2.6 4.4 5 5.6 2.7 1.3 5.9 1.5 8.9.5l62-21.3 11.5-3.8c3.5-1.2 7.4.2 9.5 3.3 1.2 1.9 1.6 4.2 1.1 6.4s-1.9 4.1-3.9 5.2l-53.8 31c-5.4 3.1-7.5 9.7-4.7 14.7 1.3 2.2 3.4 3.8 6 4.5 2.9.8 6.1.3 8.9-1.2l53.6-30.9c3.5-2 7.7-2.1 11.3-.2 3.7 1.9 6 5.6 6.2 9.7s-1.7 8-5.1 10.4l-21.5 14.6c-5.2 3.5-6.8 10.2-3.6 15 1.4 2.1 3.7 3.6 6.3 4.1 3 .6 6.1-.1 8.7-1.9l53.9-36.5c2.7-2.7 21-20.4 27.6-26.4 2-1.9 5.2-1.7 7.1.3s1.7 5.2-.3 7.1c-6.9 6.3-27.5 26.3-27.7 26.5s-.4.4-.7.6l-54.2 36.8c-4 2.6-8.2 3.9-12.5 3.9z"/><path d="m406.7 1832c-.3 0-.5 0-.8-.1l-36.4-5.9h-.1c-1.1-.2-2.4-.4-4-.6-10.8-1.2-18.8-10.4-18.1-21 .7-11.2 10.7-20.2 22.3-20l65.2 1.1c.2 0 .4 0 .6.1l11.1 1.6c2.7.4 4.6 2.9 4.2 5.7-.4 2.7-2.9 4.6-5.7 4.2l-10.8-1.6-64.9-1.1c-.1 0-.1 0-.2 0-6.2 0-11.6 4.7-12 10.6-.3 5.3 3.6 9.8 9.2 10.4 1.8.2 3.3.4 4.7.7l36.3 5.9c2.7.4 4.6 3 4.1 5.7-.2 2.5-2.3 4.3-4.7 4.3z"/><path d="m359 1839.8c-.6 0-1.1-.1-1.7-.3s-14.1-5.2-23.8-13c-2.9-2.3-7.6-6.1-7.4-74.9.1-32.9 1.4-65.3 1.4-65.6.1-2.8 2.4-4.9 5.2-4.8s4.9 2.4 4.8 5.2c0 .3-1.2 31-1.4 62.8-.3 57.6 3 67.9 3.9 69.7 8.4 6.6 20.6 11.1 20.7 11.1 2.6 1 3.9 3.8 3 6.4-.7 2.1-2.6 3.4-4.7 3.4z"/><path d="m427.9 1361.6c-.4 0-.7 0-1.1-.1-2.7-.6-4.4-3.3-3.8-6l4.7-21.1c.7-3.2.1-6.6-1.7-9.3-1.8-2.8-4.6-4.7-7.8-5.3-6.2-1.3-12.4 2.5-14.2 8.6l-5.7 23.1c-.7 2.7-3.4 4.3-6 3.7-2.7-.7-4.3-3.4-3.7-6l5.7-23.1c0-.1 0-.1 0-.2 3.1-11.1 14.5-18 25.8-15.8 5.9 1.2 11 4.6 14.2 9.7 3.3 5.1 4.4 11.1 3.1 17l-4.7 21.1c-.5 2.1-2.6 3.7-4.8 3.7z"/><path d="m462.2 1367.7c-.4 0-.7 0-1.1-.1-2.7-.6-4.4-3.3-3.8-6l4.7-21.1c.7-3.2.1-6.6-1.7-9.3-1.8-2.8-4.6-4.7-7.8-5.3-6.2-1.3-12.4 2.5-14.2 8.6l-5.7 23.1c-.7 2.7-3.4 4.3-6 3.7-2.7-.7-4.3-3.4-3.7-6l5.7-23.1c0-.1 0-.1 0-.2 3.1-11.1 14.5-18 25.8-15.8 5.9 1.2 11 4.6 14.2 9.7 3.3 5.1 4.4 11.1 3.1 17l-4.7 21.1c-.4 2.1-2.5 3.7-4.8 3.7z"/><path d="m492.1 1407.5c-.3 0-.6 0-.9-.1-2.7-.5-4.5-3.1-4-5.8l9.7-52.4c0-.1 0-.1 0-.2.7-3.2.1-6.6-1.7-9.3-1.8-2.8-4.6-4.7-7.8-5.3-6.2-1.3-12.4 2.5-14.2 8.6l-5.7 23.1c-.7 2.7-3.4 4.3-6 3.7-2.7-.7-4.3-3.4-3.7-6l5.7-23.1c0-.1 0-.1 0-.2 3.1-11.1 14.5-18 25.8-15.8 5.9 1.2 11 4.6 14.2 9.7 3.3 5 4.4 11 3.1 16.9l-9.7 52.3c-.4 2.2-2.5 3.9-4.8 3.9z"/><path d="m432.8 972.2c-2.7 0-5.4-.4-8-1.3-8.5-2.8-14.8-9.6-16.9-18.2-2.4-9.7 1.2-20 9.1-26.1l31.7-24.8c22.7-17.8 49.8-29.6 78.3-34.3l4.6-.8 8.3-1.8c2.7-.6 5.4 1.1 6 3.8s-1.1 5.4-3.8 6l-8.4 1.9c-.1 0-.2 0-.3.1l-4.7.8c-26.8 4.4-52.3 15.6-73.7 32.3l-31.8 24.8c-4.8 3.7-7 10-5.5 15.9 1.3 5.3 5.1 9.4 10.3 11.1 5.1 1.7 10.7.6 14.8-2.9l12.4-10.4c13.9-11.7 37.9-23.5 54.7-26.9 2.7-.5 5.3 1.2 5.9 3.9.5 2.7-1.2 5.3-3.9 5.9-15.1 3.1-37.6 14.2-50.2 24.8l-12.4 10.4c-4.8 3.7-10.5 5.8-16.5 5.8z"/><path d="m532.8 1036.8c-9 0-17.5-4.4-22.7-12-8.1-11.8-5.7-28.1 5.6-37.1l23.3-18.6c2.2-1.7 5.3-1.4 7 .8s1.4 5.3-.8 7l-23.3 18.6c-7.2 5.7-8.7 16.1-3.5 23.6 3.7 5.4 10.1 8.3 16.6 7.5l1.7-.2c14.5-1.8 29-5.1 42.9-9.6l51.6-16.8c2.6-.9 5.4.6 6.3 3.2s-.6 5.4-3.2 6.3l-51.6 16.8c-14.5 4.8-29.6 8.1-44.8 10l-1.7.2c-1.1.3-2.3.3-3.4.3z"/><path d="m509.6 1012.3c-.5 0-1.1-.1-1.6-.3-5.5-1.9-10.4-5.6-13.7-10.5-8.1-11.9-5.7-28.1 5.6-37.1l23.3-18.6c2.2-1.7 5.3-1.4 7 .8s1.4 5.3-.8 7l-23.4 18.7c-7.2 5.7-8.7 16.1-3.5 23.6 2.1 3.1 5.2 5.4 8.7 6.7 2.6.9 4 3.8 3.1 6.4-.7 2-2.7 3.3-4.7 3.3z"/><path d="m494.5 988.7c-.5 0-1-.1-1.6-.3-5.7-1.9-10.7-5.6-14.1-10.6-8.1-11.9-5.7-28.1 5.6-37.1l23.3-18.6c2.2-1.7 5.3-1.4 7 .8s1.4 5.3-.8 7l-23.3 18.6c-7.2 5.7-8.7 16.1-3.5 23.6 2.2 3.2 5.4 5.6 9 6.8 2.6.9 4 3.7 3.2 6.3-.7 2.1-2.7 3.5-4.8 3.5z"/><ellipse cx="330.6" cy="1107.3" rx="11" ry="10.9" transform="matrix(.9389 -.3443 .3443 .9389 -361.0594 181.5263)"/><path d="m330.5 1123.2c-2.3 0-4.5-.5-6.7-1.5-3.9-1.8-6.8-5-8.3-8.9-3-8.2 1.3-17.4 9.5-20.4 8.3-3 17.5 1.2 20.5 9.4 1.5 4 1.3 8.3-.5 12.2-1.8 3.8-5 6.8-9 8.2-1.8.7-3.6 1-5.5 1zm-2-21.4c-3.1 1.1-4.7 4.5-3.6 7.6.5 1.5 1.6 2.6 3.1 3.3s3.1.7 4.6.2c1.5-.6 2.7-1.7 3.4-3.1s.7-3 .2-4.5c-1.1-3.1-4.6-4.6-7.7-3.5z"/><ellipse cx="461.9" cy="1059.2" rx="11" ry="10.9" transform="matrix(.9389 -.3443 .3443 .9389 -336.4539 223.792)"/><path d="m461.8 1075.1c-2.3 0-4.5-.5-6.7-1.5-3.9-1.8-6.8-5-8.3-8.9-3-8.2 1.3-17.4 9.5-20.4 8.3-3 17.5 1.2 20.5 9.4 1.5 4 1.3 8.3-.5 12.2-1.8 3.8-5 6.8-9 8.2-1.8.7-3.6 1-5.5 1zm-2-21.4c-3.1 1.1-4.7 4.5-3.6 7.6.5 1.5 1.6 2.6 3.1 3.3s3.1.7 4.6.2c1.5-.6 2.7-1.7 3.4-3.1s.7-3 .2-4.5c-1.1-3.1-4.6-4.7-7.7-3.5z"/><path d="m404.4 1192.9c-2 0-4-1.3-4.7-3.3-1-2.6.4-5.5 3-6.4l19.9-7.3c10.6-3.9 18.5-12.8 20.9-23.8 2.4-10.8-.8-21.9-8.5-29.8l-37-37.5c-1.9-2-1.9-5.1 0-7.1 2-1.9 5.1-1.9 7.1 0l37 37.5c10.2 10.3 14.4 24.9 11.2 39-3.2 14.3-13.4 25.9-27.2 31l-19.9 7.3c-.7.3-1.3.4-1.8.4z"/><ellipse cx="1241.2" cy="1784.7" rx="10.9" ry="11" transform="matrix(.1719 -.9851 .9851 .1719 -730.3854 2700.561)"/><path d="m1241.2 1800.6c-.9 0-1.9-.1-2.8-.2-4.2-.7-7.9-3-10.3-6.5-2.5-3.5-3.4-7.7-2.7-11.9.7-4.2 3.1-7.8 6.6-10.3 3.5-2.4 7.7-3.4 11.9-2.6 4.2.7 7.9 3 10.3 6.5 2.5 3.5 3.4 7.7 2.7 11.9s-3.1 7.8-6.6 10.3c-2.7 1.8-5.8 2.8-9.1 2.8zm-5.9-16.9c-.3 1.5.1 3.1 1 4.4s2.3 2.2 3.9 2.4c1.6.3 3.2-.1 4.5-1s2.2-2.2 2.4-3.8c.3-1.5-.1-3.1-1-4.4s-2.3-2.2-3.9-2.4c-1.6-.3-3.2.1-4.5 1s-2.2 2.3-2.4 3.8z"/><ellipse cx="1378.9" cy="1808.8" rx="10.9" ry="11" transform="matrix(.1719 -.9851 .9851 .1719 -639.9998 2856.1802)"/><path d="m1379 1824.7c-.9 0-1.8-.1-2.8-.2-8.7-1.5-14.5-9.8-13-18.4 1.5-8.6 9.8-14.4 18.5-12.9s14.5 9.8 13 18.4c-1.4 7.6-8.1 13.1-15.7 13.1zm-.1-21.8c-2.8 0-5.4 2-5.9 4.9-.6 3.2 1.6 6.3 4.9 6.8 3.3.6 6.4-1.6 6.9-4.8.6-3.2-1.6-6.3-4.9-6.8-.3-.1-.7-.1-1-.1z"/><path d="m1292.3 1900.7c-2.5 0-5-.2-7.5-.7l-20.9-3.7c-2.7-.5-4.5-3.1-4.1-5.8s3.1-4.5 5.8-4.1l20.9 3.7c11.2 1.9 22.4-1.8 30-10.1 7.5-8.1 10.3-19.4 7.5-30.1l-13.3-51c-.7-2.7.9-5.4 3.6-6.1s5.4.9 6.1 3.6l13.3 51c3.6 14 0 28.7-9.8 39.4-8.2 9-19.7 13.9-31.6 13.9z"/><ellipse cx="2166.4" cy="1666.5" rx="10.9" ry="11" transform="matrix(.3443 -.9389 .9389 .3443 -144.1072 3126.6699)"/><path d="m2166.5 1682.4c-1.8 0-3.7-.3-5.5-1-4-1.5-7.2-4.4-9-8.2-1.8-3.9-2-8.2-.5-12.2s4.4-7.2 8.3-8.9c3.9-1.8 8.2-1.9 12.2-.5 8.3 3 12.6 12.2 9.5 20.4-2.4 6.4-8.5 10.4-15 10.4zm-.1-21.8c-.9 0-1.7.2-2.5.5-1.4.7-2.5 1.8-3.1 3.3-.5 1.5-.5 3.1.2 4.5s1.9 2.5 3.4 3.1c3.1 1.1 6.5-.4 7.7-3.5s-.5-6.5-3.6-7.6c-.7-.2-1.4-.3-2.1-.3z"/><ellipse cx="2035.1" cy="1618.3" rx="10.9" ry="11" transform="matrix(.3443 -.9389 .9389 .3443 -184.9824 2971.8276)"/><path d="m2035.2 1634.3c-1.9 0-3.7-.3-5.5-1-8.3-3-12.6-12.2-9.5-20.4 3-8.2 12.2-12.4 20.5-9.4 4 1.5 7.2 4.4 9 8.2 1.8 3.9 2 8.2.5 12.2s-4.4 7.2-8.3 8.9c-2.2 1-4.4 1.5-6.7 1.5zm-5.7-18c-1.1 3 .5 6.5 3.6 7.6 1.5.6 3.1.5 4.6-.2 1.4-.7 2.5-1.8 3.1-3.3s.5-3.1-.2-4.5-1.9-2.5-3.4-3.1c-3.1-1.1-6.6.4-7.7 3.5z"/><path d="m2092.6 1752c-.6 0-1.2-.1-1.7-.3l-19.9-7.3c-13.8-5.1-24-16.7-27.2-31-3.2-14.1 1-28.7 11.2-39l37-37.5c1.9-2 5.1-2 7.1 0 2 1.9 2 5.1 0 7.1l-37 37.5c-7.8 7.9-11 19-8.5 29.8 2.5 11 10.3 19.9 20.9 23.8l19.9 7.3c2.6 1 3.9 3.8 3 6.4-.8 2-2.7 3.2-4.8 3.2z"/><ellipse cx="2271.1" cy="1001" rx="11" ry="10.9" transform="matrix(.9976 -.06958236 .06958236 .9976 -64.1475 160.4516)"/><path d="m2271 1016.9c-8.3 0-15.3-6.4-15.9-14.8-.6-8.7 6.1-16.4 14.8-17 8.8-.6 16.4 6 17.1 14.7.3 4.2-1.1 8.3-3.9 11.6-2.8 3.2-6.7 5.1-10.9 5.4-.4.1-.8.1-1.2.1zm-.4-21.8c-3.3.2-5.8 3.1-5.6 6.3s3.1 5.7 6.4 5.5c1.6-.1 3.1-.8 4.1-2s1.6-2.7 1.4-4.3c-.1-3.3-2.9-5.7-6.3-5.5z"/><ellipse cx="2131.5" cy="1010.7" rx="11" ry="10.9" transform="matrix(.9976 -.06958236 .06958236 .9976 -65.1622 150.7673)"/><path d="m2131.5 1026.6c-8.3 0-15.3-6.4-15.9-14.8-.6-8.7 6.1-16.4 14.8-17 4.3-.3 8.4 1.1 11.6 3.8 3.2 2.8 5.2 6.7 5.5 10.9s-1.1 8.3-3.9 11.6c-2.8 3.2-6.7 5.1-10.9 5.4-.4.1-.8.1-1.2.1zm.1-21.8c-.1 0-.3 0-.4 0-3.3.2-5.8 3.1-5.6 6.3s3.1 5.7 6.4 5.5c1.6-.1 3.1-.8 4.1-2s1.6-2.7 1.4-4.3c-.1-1.6-.8-3-2-4-1.1-1-2.5-1.5-3.9-1.5z"/><path d="m2212.7 1111.4c-13.6 0-26.3-6.3-34.5-17.2-8.7-11.6-10.8-26.6-5.7-40.2l18.5-49.4c1-2.6 3.8-3.9 6.4-2.9s3.9 3.8 2.9 6.4l-18.5 49.4c-3.9 10.4-2.2 21.8 4.4 30.7 6.7 9 17.5 13.9 28.8 13.1l21.2-1.5c2.8-.2 5.1 1.9 5.3 4.6.2 2.8-1.9 5.1-4.6 5.3l-21.2 1.5c-1 .1-2 .2-3 .2z"/><path d="m2047.7 1950.1c-2.6 0-4.8-2-5-4.6-.2-2.8 1.9-5.2 4.6-5.4 1-.1 97.3-7.6 211.9-34 67.2-15.5 127.4-34.3 179-56 64.2-27 115.1-58.5 151.1-93.6 2-1.9 5.1-1.9 7.1.1 1.9 2 1.9 5.1-.1 7.1-37 36-88.9 68.2-154.3 95.7-52.1 21.9-112.9 40.9-180.7 56.6-115.3 26.5-212.3 34.1-213.3 34.2 0-.1-.1-.1-.3-.1z"/><path d="m2149.1 2096c-9.4 0-14.7-.2-14.9-.2-2.8-.1-4.9-2.4-4.8-5.2s2.4-4.9 5.2-4.8c.9 0 87.1 2.9 189-15.4 59.7-10.7 113-26.5 158.5-46.8 56.5-25.3 100.9-57.9 132-96.8 1.7-2.2 4.9-2.5 7-.8 2.2 1.7 2.5 4.9.8 7-32.1 40.2-77.8 73.7-135.8 99.7-46.2 20.7-100.4 36.7-160.9 47.5-77.9 14-146.8 15.8-176.1 15.8z"/><path d="m2190.5 2095c-1.4 0-2.8-.6-3.8-1.7l-49.8-57.4c-.9-1-1.3-2.3-1.2-3.7l8.1-100.2c.2-2 1.6-3.8 3.5-4.4 2-.6 4.1.1 5.4 1.7l62.8 78.8c1 1.2 1.3 2.9.9 4.4l-21.1 78.8c-.5 1.8-1.9 3.2-3.7 3.6-.3.1-.7.1-1.1.1zm-44.7-64 42.3 48.7 18-67.2-53.4-66.9z"/><path d="m2304.3 2077.3c-1.4 0-2.8-.6-3.8-1.7l-49.8-57.3c-.9-1-1.3-2.3-1.2-3.7l8.1-100.2c.2-2 1.6-3.8 3.5-4.4 2-.6 4.1.1 5.4 1.7l62.8 78.8c1 1.2 1.3 2.9.9 4.4l-21.1 78.8c-.5 1.8-1.9 3.2-3.7 3.6-.4 0-.8 0-1.1 0zm-44.7-64 42.3 48.7 18-67.2-53.4-66.9z"/><path d="m2430.8 2045.9c-1.4 0-2.8-.6-3.8-1.7l-49.8-57.4c-.9-1-1.3-2.3-1.2-3.7l8.1-100.2c.2-2 1.6-3.8 3.5-4.4 2-.6 4.1.1 5.4 1.7l62.8 78.8c1 1.2 1.3 2.9.9 4.4l-21.1 78.8c-.5 1.8-1.9 3.2-3.7 3.6-.4.1-.7.1-1.1.1zm-44.7-64 42.3 48.7 18-67.2-53.4-66.9z"/><path d="m2551.9 1989.3c-1.4 0-2.8-.6-3.8-1.7l-49.8-57.4c-.9-1-1.3-2.3-1.2-3.7l8.1-100.1c.2-2 1.6-3.8 3.5-4.4 2-.6 4.1.1 5.4 1.7l62.8 78.8c1 1.2 1.3 2.9.9 4.4l-21.1 78.8c-.5 1.8-1.9 3.2-3.7 3.6-.4-.1-.7 0-1.1 0zm-44.7-64.1 42.3 48.7 18-67.2-53.4-66.9z"/><path d="m2082.3 1927.2c-.2 0-.5 0-.7 0-2.7-.4-4.7-2.9-4.3-5.6l4.5-33.4c.2-1.8 1.4-3.3 3.1-4s3.6-.4 5 .8l27.1 22.1 12.9-25.9c.7-1.4 1.9-2.3 3.4-2.7 1.5-.3 3 .1 4.2 1l21.8 18 12.1-26.7c.6-1.4 1.8-2.4 3.3-2.8s3-.1 4.2.8l20.8 15.5 14-26c.7-1.3 2-2.3 3.5-2.6s3 .1 4.2 1.1l21.8 18.6 13.1-25.2c.6-1.2 1.7-2.1 3-2.5s2.7-.3 3.8.4l23.7 12.8 8.6-27.6c.5-1.5 1.7-2.8 3.2-3.3s3.2-.2 4.5.7l25.4 18.6 9.2-31.2c.4-1.4 1.5-2.6 2.9-3.2s3-.5 4.3.2l26.6 14.3 12.4-32.2c.6-1.5 1.8-2.6 3.3-3s3.1-.1 4.4.9l22.4 17.2 11.4-28.8c.5-1.4 1.7-2.4 3.1-2.9s2.9-.3 4.2.5l27.8 16.9 15.3-30.2c.7-1.3 1.8-2.2 3.2-2.6s2.9-.1 4.1.7l26.6 18.4c2.3 1.6 2.8 4.7 1.3 7-1.6 2.3-4.7 2.8-7 1.3l-21.9-15.1-15.1 30c-.6 1.2-1.8 2.2-3.1 2.6s-2.8.2-4-.5l-27.3-16.7-11.6 29.4c-.6 1.5-1.8 2.6-3.3 3s-3.1.1-4.4-.9l-22.3-17.2-12 31.2c-.5 1.3-1.6 2.4-2.9 2.9s-2.8.4-4.1-.3l-26.2-14.1-9.5 32.1c-.5 1.6-1.7 2.8-3.2 3.3s-3.2.3-4.6-.7l-25.5-18.6-8.4 26.8c-.4 1.4-1.5 2.6-2.9 3.1-1.4.6-2.9.5-4.3-.2l-24.6-13.3-13.6 26.3c-.7 1.4-2 2.3-3.5 2.6s-3-.1-4.2-1.1l-21.9-18.7-13.8 25.7c-.7 1.3-1.9 2.2-3.3 2.5s-2.9 0-4.1-.9l-20.5-15.3-12.3 27c-.6 1.4-1.9 2.5-3.4 2.8s-3.1 0-4.3-1l-22-18.1-12.9 25.8c-.7 1.4-1.9 2.3-3.4 2.7-1.5.3-3-.1-4.2-1l-25-20.4-3.3 24.6c-.2 2.5-2.3 4.3-4.8 4.3z"/><path d="m2228.5 2158.5c-1.4 0-2.8-.6-3.7-1.7l-21.6-24.1-9.2 21.7c-1.1 2.5-4 3.7-6.6 2.7-2.5-1.1-3.7-4-2.7-6.6l12.3-29c.7-1.6 2.1-2.7 3.8-3s3.4.3 4.5 1.6l22.6 25.2 24.3-35.6c1-1.5 2.8-2.3 4.6-2.2 1.8.2 3.4 1.3 4.1 3l13.4 31.2 21.2-35.9c.9-1.6 2.7-2.5 4.5-2.5 1.8.1 3.5 1.1 4.3 2.8l13.5 27.4 21.3-35.2c1-1.6 2.8-2.5 4.6-2.4 1.9.1 3.5 1.3 4.2 3l13.8 32.5 18.9-35c.8-1.5 2.4-2.5 4.1-2.6s3.4.7 4.4 2.1l17 24.2 14.8-42.1c.7-1.9 2.4-3.2 4.4-3.3s3.9.9 4.8 2.7l17.3 33.4 14.7-48.3c.6-1.8 2.1-3.2 4-3.5s3.8.5 4.9 2l19 26.8 16.2-50.9c.5-1.7 1.9-3 3.6-3.4s3.5.1 4.7 1.4l24.3 25.5 4.5-38.9c.2-1.8 1.4-3.3 3-4s3.5-.5 5 .6l28.7 21.7 7-37.6c.3-1.7 1.5-3.1 3.1-3.7s3.4-.4 4.8.6l28.3 20.9c2.2 1.6 2.7 4.8 1.1 7s-4.8 2.7-7 1.1l-21.9-16.2-7 37.7c-.3 1.7-1.5 3.1-3.1 3.8-1.6.6-3.4.4-4.8-.7l-28.2-21.3-4.8 40.8c-.2 1.9-1.5 3.5-3.4 4.2-1.8.6-3.9.1-5.2-1.3l-25.8-27.1-16.7 52.4c-.6 1.8-2.1 3.1-4 3.4s-3.8-.5-4.8-2.1l-18.9-26.7-15.3 50.3c-.6 1.9-2.3 3.3-4.3 3.5s-4-.9-4.9-2.7l-17.6-34-14.2 40.3c-.6 1.8-2.2 3-4 3.3-1.9.3-3.7-.5-4.8-2.1l-17.9-25.5-20 37c-.9 1.7-2.7 2.7-4.6 2.6s-3.6-1.3-4.4-3l-14-33.1-21 34.7c-.9 1.6-2.7 2.5-4.5 2.4s-3.5-1.1-4.3-2.8l-13.4-27.3-21.5 36.4c-1 1.6-2.8 2.6-4.6 2.5-1.9-.1-3.5-1.3-4.3-3l-13.7-31.9-22.8 33.4c-.9 1.3-2.3 2.1-3.8 2.2 0 .3-.2.3-.3.3z"/><path d="m563.4 1590.9c-25.1 0-45-10.7-59.2-31.8-12.7-18.9-15.9-40.5-9.2-62.5 1.6-5.2 3.6-10.3 5.5-15.1.8-2.1 1.7-4.2 2.5-6.4.3-.8.6-1.5.9-2.1.1-.2.2-.4.3-.6 1.1-2.5 4.1-3.7 6.6-2.6s3.7 4 2.6 6.6c-.1.2-.2.5-.3.8-.2.5-.5 1-.6 1.4-.8 2.2-1.7 4.4-2.6 6.5-2 4.9-3.8 9.5-5.3 14.3-5.9 19.3-3.2 37.5 7.9 54 14 20.7 34.4 29.7 60.6 26.8 14.1-1.6 27.4-7 40.9-16.5 13.3-9.5 22.8-21.4 28.2-35.6 1-2.7 1.8-5.5 2.7-8.4.4-1.4.8-2.8 1.3-4.3.8-2.6 3.6-4.1 6.2-3.3l7 2c8 2.3 16.2 4.8 24.4 7.1h.2c11.8-5.9 23.7-11.9 35.3-17.7-3.1-.9-6.2-1.8-9.3-2.7l-108.3-31.8c-22-6.5-44.8-13.2-67.1-19.8-1.7-.5-3-.8-4.3-1.2-4.2-1.1-7.3-1.9-12.8-6.1-2.2-1.7-2.6-4.8-.9-7s4.8-2.6 7-.9c3.9 3 5.3 3.4 9.1 4.3 1.3.3 2.8.7 4.6 1.3 22.3 6.7 45.1 13.3 67.1 19.8l108.2 31.8c4.5 1.3 9 2.7 13.5 4l5.9 1.8c.4.1.9.3 1.5.5l.5.2c1.8.7 3.1 2.3 3.2 4.3.2 1.9-.8 3.8-2.5 4.7-.3.2-.6.3-.8.5-.6.3-1.1.6-1.7.9l-7.7 3.9c-11.9 6-24.2 12.2-36.4 18.3-2.2 1.1-4.9 1.3-7.3.7-8.2-2.3-16.5-4.7-24.5-7.1l-2.2-.6c-.8 2.8-1.7 5.7-2.8 8.6-6.1 16.1-16.8 29.6-31.7 40.2-14.8 10.6-29.7 16.5-45.5 18.3-3.6.3-7.2.5-10.7.5zm6.6-35.5c-5 0-9.9-1-14.7-3-11-4.7-19.3-14.2-22.7-26.2-3.3-11.5-2-23.1 4-36.4.7-1.6 1.4-3 2.2-4.6.3-.6.6-1.2.9-1.8 1.1-2.2 3.6-3.3 5.9-2.6 7.3 2.2 14.6 4.3 21.8 6.4l17.7 5.2c2.3.7 4.6 1.4 6.9 2 6.1 1.8 12.4 3.7 18.6 5.4 3.1.8 6.6 3.1 6 8.8-2 18.9-11.3 33-27.7 41.8-6 3.3-12.5 5-18.9 5zm-23.1-63.9c-.4.8-.8 1.6-1.1 2.4-5 11.1-6.1 20.4-3.5 29.5s8.8 16.2 17 19.7c8 3.4 16.9 2.8 25-1.5 13.1-7 20.4-17.7 22.4-32.6-5.8-1.6-11.7-3.4-17.3-5.1-2.3-.7-4.6-1.4-6.9-2l-17.7-5.2c-6-1.7-11.9-3.4-17.9-5.2zm-40.6-77.6c-.4 0-.9-.1-1.3-.2-2.7-.7-4.2-3.5-3.5-6.1 1-3.5 2.6-6.7 4.8-9.6 10.6-13.8 29.7-16.4 43.5-6.1 1.8 1.3 3.4 2.8 4.9 4.2 3.9-8.6 7.8-17.4 11.7-26.1-10.3-8.5-21.3-12.5-33.8-12.4-9.7.1-19.2 2.5-28.1 7.2-2.4 1.3-5.5.3-6.8-2.1s-.3-5.5 2.1-6.8c10.3-5.4 21.3-8.2 32.6-8.3 15.4-.1 29.6 5.3 42.1 16.3 1.9 1.7 3.1 5.2 1.9 8-4.9 11.1-9.9 22.3-14.8 33.1l-.5 1.2c-.5 1.1-1.3 1.8-1.7 2.1-.8.7-1.9 1.1-2.9 1.2-1.4.1-2.7-.4-3.7-1.3s-2-1.9-3-2.8c-2-2-4-3.9-6.1-5.4-9.4-7-22.4-5.2-29.6 4.2-1.4 1.9-2.5 3.9-3.1 6.2-.5 2.1-2.5 3.5-4.7 3.5z"/><path d="m1648.3 1658.7c-.8 0-1.7-.2-2.4-.6-2.4-1.3-3.3-4.4-1.9-6.8l15.9-28.6c-53.3-5.4-86.9-21-100-46.3-14.6-28.1 2.1-56.9 2.8-58.1 1.4-2.4 4.5-3.2 6.8-1.8 2.4 1.4 3.2 4.5 1.8 6.8-.2.4-14.5 25.5-2.5 48.5 11.9 22.8 46.3 37.2 99.6 41.5 1.7.1 3.2 1.1 4 2.6s.8 3.3 0 4.8l-19.6 35.3c-1 1.8-2.7 2.7-4.5 2.7z"/><path d="m1051.8 1496.7c-7.6 0-15.9-.9-24.9-2.7-2.7-.5-4.5-3.2-3.9-5.9s3.2-4.5 5.9-3.9c28.6 5.7 49.1 1.6 60.9-12.2 29.9-34.9-.7-120.3-1-121.2-.9-2.5.3-5.2 2.7-6.3s5.2 0 6.4 2.3c.2.3 18.1 34.9 52.4 62.1 19.9 15.8 41.4 26 63.9 30.4 28.1 5.5 57.9 1.8 88.7-10.9 137-56.5 169.5-82.9 169.8-83.2 2-1.7 5-1.5 6.8.3 1.8 1.9 1.9 4.8.2 6.8 0 0-.4.5-1.1 1.3-.7.9-1.7 1.4-2.7 1.7-10.9 7.8-52.5 34.2-169.2 82.3-32.7 13.5-64.5 17.3-94.6 11.4-24.1-4.7-47.1-15.7-68.3-32.6-15.5-12.3-27.7-25.9-36.6-37.5 6.8 30.2 11.6 74.6-9.8 99.4-10.4 12.3-25.7 18.4-45.6 18.4z"/><path d="m1416.5 2097.3c-1.1 0-2.2-.4-3.1-1.1-1.6-1.3-2.3-3.4-1.6-5.4 16.6-53.1 14.4-90.1-6.6-110-40.8-38.8-140.2-2.8-141.2-2.5-2 .7-4.2.1-5.6-1.5-20-24-45.9-32.5-76.9-25.1-23.6 5.6-41.4 18.5-41.5 18.6-1.4 1-3.3 1.3-4.9.6s-2.8-2.2-3-3.9c-6.3-45.1-22.1-74.7-46.8-87.9-33.6-17.9-72.9.7-73.3.9-2.5 1.2-5.5.2-6.7-2.3s-.2-5.5 2.3-6.7c1.8-.9 44.4-21 82.4-.7 26.2 14 43.3 43.4 50.8 87.6 7.8-4.7 21.6-12 38.4-15.9 33.4-7.9 62.6 1 84.6 25.8 8-2.7 29.4-9.4 54.6-12.9 42.9-5.9 74.4.4 93.6 18.6 22.2 21.1 26.5 57.3 12.9 107.8 25.8-16.8 47.6-39.4 63.6-65.8 17.9-29.7 28.1-63.7 29.6-98.5.8-18.7 2.7-33.4 5.6-43.8.7-2.7 3.5-4.2 6.2-3.5s4.2 3.5 3.5 6.2c-2.7 9.6-4.5 23.6-5.2 41.5-1.5 36.5-12.3 72.2-31 103.3-18.8 31.2-45.4 57.3-77 75.4l-1.1.6c-.9.4-1.7.6-2.6.6z"/><path d="m971 1775.2c-1.4 0-2.8-.6-3.8-1.8-1.8-2.1-1.5-5.3.6-7 32.4-27.6 47-55 43.5-81.4-6.3-47-67.8-76.6-68.5-76.9-2.5-1.2-3.6-4.2-2.4-6.7s4.2-3.6 6.7-2.4c.7.3 16.9 8 34.2 22.2 23.2 19 37 40.6 39.9 62.4 4 30-11.8 60.4-46.9 90.4-1 .8-2.1 1.2-3.3 1.2z"/><path d="m2176.6 2410c-2.5 0-4.6-1.9-5-4.4-.3-2.7 1.6-5.2 4.3-5.6l10.4-1.3c2.7-.3 5.2 1.6 5.6 4.3s-1.6 5.2-4.3 5.6l-10.4 1.3c-.2.1-.4.1-.6.1z"/><path d="m2462.7 2533.2c-2.7 0-4.9-2.2-5-4.9-.1-2.8 2.1-5 4.9-5.1l125.7-2.9-16.7-106.9c-.4-2.7 1.4-5.3 4.2-5.7 2.7-.4 5.3 1.4 5.7 4.2l17.6 112.6c.2 1.4-.2 2.9-1.1 4s-2.3 1.8-3.7 1.8l-131.4 3c-.2-.1-.2-.1-.2-.1z"/><path d="m2697.7 2673.2h-192.4c-1.2 0-2.4-.4-3.3-1.3l-31.4-27.7c-2.1-1.8-2.3-5-.4-7.1 1.8-2.1 5-2.3 7.1-.4l29.9 26.4h186.4l8.9-50.3c0-.1.1-.3.1-.4 3-11 2.3-22.4-1.7-27.9-1.8-2.4-4.1-3.6-7.2-3.8-12.7-.6-28.9-.9-44.5-1.1-28.5-.4-55.3-.8-66.2-3.5-15.1-3.8-25.4-18.1-30.2-26.3l-9.1-15.9c-1.4-2.4-.5-5.5 1.9-6.8 2.4-1.4 5.5-.5 6.8 1.9l9.1 15.9c4 6.8 12.4 18.7 24 21.6 9.7 2.4 37.3 2.8 63.9 3.2 15.7.2 31.9.5 44.8 1.1 6.2.3 11.3 3.1 14.8 7.9 7 9.7 6.1 25.5 3.3 36.2l-9.6 54.2c-.6 2.4-2.6 4.1-5 4.1z"/><path d="m2484.1 2653c-2.8 0-5-2.2-5-5s2.2-5 5-5l216.7-.8c2.8 0 5 2.2 5 5s-2.2 5-5 5z"/><path d="m1934.6 1671.5c-2.6 0-4.7-2-5-4.6l-5.2-58.4c-.2-2.8 1.8-5.2 4.5-5.4 2.8-.3 5.2 1.8 5.4 4.5l5.2 58.4c.2 2.8-1.8 5.2-4.5 5.4-.1.1-.2.1-.4.1z"/><path d="m2248.4 794.1c47.7 0 94 17.1 130.5 48.2 36.8 31.4 61.1 75.1 68.4 123 4.1 26.9 2.7 53.8-3.9 79.9-6.4 25.2-17.6 48.7-33.1 69.7-15.5 21.1-34.6 38.6-56.8 52.2-23 14.1-48.2 23.3-75.1 27.3-10.1 1.5-20.3 2.3-30.3 2.3-47.7 0-94-17.1-130.5-48.2-36.8-31.4-61.1-75.1-68.4-123.1-4.1-26.9-2.7-53.8 3.9-79.8 6.4-25.2 17.6-48.7 33.1-69.7s34.6-38.6 56.8-52.2c23-14.1 48.2-23.3 75.1-27.3 10-1.5 20.2-2.3 30.3-2.3zm0-10c-10.5 0-21.1.8-31.8 2.4-115.4 17.4-194.8 125.1-177.4 240.6 15.8 104.7 105.9 179.8 208.7 179.8 10.5 0 21.1-.8 31.8-2.4 115.4-17.4 194.8-125.1 177.4-240.5-15.8-104.8-105.9-179.9-208.7-179.9z"/><path d="m2347.5 1379.7c-1.3 0-2.6-.5-3.6-1.5-1.9-2-1.9-5.1.1-7.1 19.7-19.3 27-43.4 21.7-71.7-6-31.5-25-54.1-29-56.1-2.6-.6-4.3-3.1-3.8-5.7.5-2.7 3-4.6 5.8-4.1 8.4 1.4 25.3 24.2 33.5 50.5 11.4 36.3 3.9 69.8-21.1 94.3-1 1-2.3 1.4-3.6 1.4z"/><path d="m362.3 865.9c-1.8 0-3.6-1-4.5-2.7l-59.2-116.2c-1.3-2.5-.3-5.5 2.2-6.7 2.5-1.3 5.5-.3 6.7 2.2l59.3 116.2c1.3 2.5.3 5.5-2.2 6.7-.7.3-1.5.5-2.3.5z" fill="#fff"/><path d="m397.4 868.2c-.6 0-1.1-.1-1.7-.3-2.6-.9-3.9-3.8-3-6.4l23.3-64.8c.9-2.6 3.8-3.9 6.4-3s3.9 3.8 3 6.4l-23.3 64.8c-.7 2-2.6 3.3-4.7 3.3z" fill="#fff"/><path d="m2310.9 1386c-1.6 0-3.1-.7-4.1-2.1-1.6-2.2-1.1-5.4 1.1-7 16.4-11.8 25.4-25.2 26.9-39.9 2.3-23.5-15.3-42.7-15.5-42.9-1.9-2-1.8-5.2.3-7.1 2-1.9 5.2-1.8 7.1.3.9.9 20.9 22.8 18.1 50.7-1.8 17.7-12.2 33.5-31 47-.9.7-1.9 1-2.9 1z"/><path d="m314.7 2056.5c-.5 0-1-.1-1.5-.2-18.5-6-33.2-16.6-43.8-31.5-8.6-12.1-14.3-26.8-16.9-43.5-4.3-27.2.7-55.1 7.6-60.2 2.2-1.6 5.4-1.1 7 1.1s1.1 5.2-.9 6.8c-3.4 4.3-9.3 33.7-1.1 63.1 7.8 27.7 25 46.1 51.3 54.6 2.6.9 4.1 3.7 3.2 6.3-.9 2.1-2.8 3.5-4.9 3.5z" fill="#fff"/><path d="m350.3 2045.8c-.3 0-.5 0-.8-.1-22.9-3.8-39.2-13.3-48.7-28.4-14.9-23.8-6.7-52.2-6.3-53.4.8-2.6 3.6-4.2 6.2-3.4s4.2 3.6 3.4 6.2c-.1.4-7.2 25.5 5.2 45.4 7.8 12.5 21.9 20.5 41.8 23.8 2.7.5 4.6 3 4.1 5.7-.4 2.5-2.5 4.2-4.9 4.2z" fill="#fff"/><path d="m2273.5 1068.5c-38.7 0-70.2-31.5-70.2-70.2s31.5-70.2 70.2-70.2 70.2 31.5 70.2 70.2-31.5 70.2-70.2 70.2zm0-130.4c-33.2 0-60.2 27-60.2 60.2s27 60.2 60.2 60.2 60.2-27 60.2-60.2-27-60.2-60.2-60.2z"/><path d="m2119.6 1074.1c-38.7 0-70.2-31.5-70.2-70.2s31.5-70.2 70.2-70.2 70.2 31.5 70.2 70.2-31.5 70.2-70.2 70.2zm0-130.4c-33.2 0-60.2 27-60.2 60.2s27 60.2 60.2 60.2 60.2-27 60.2-60.2-27-60.2-60.2-60.2z"/><path d="m2208.9 994.2c-.1 0-.2 0-.3 0l-26.2-1.5c-2.8-.2-4.9-2.5-4.7-5.3s2.5-4.9 5.3-4.7l26.2 1.5c2.8.2 4.9 2.5 4.7 5.3-.1 2.6-2.3 4.7-5 4.7z"/><path d="m2337.4 982.7c-1.9 0-3.7-1.1-4.5-2.9-1.2-2.5-.1-5.5 2.4-6.6l39.8-18.5s.1 0 .1-.1c23.8-10.3 40.5-11.9 51-5 7.3 4.8 10.9 13.3 10.9 25.3 0 2.8-2.2 5-5 5-2.8 0-5-2.3-5-5 0-8.4-2.1-14.1-6.4-17-5-3.3-16.3-5-41.5 5.8l-39.7 18.5c-.6.3-1.4.5-2.1.5z"/></svg>