<?xml version="1.0" encoding="UTF-8"?><svg id="a" xmlns="http://www.w3.org/2000/svg" xmlns:xlink="http://www.w3.org/1999/xlink" viewBox="0 0 1080 1080"><defs><style>.n{fill:url(#c);}.o,.p,.q{fill:none;}.r,.s,.t{fill:#fff;}.u{fill:#1d1d1b;}.s,.t,.p,.q{stroke:#1d1d1b;stroke-width:2px;}.s,.q{stroke-miterlimit:10;}.t,.p{stroke-linecap:round;stroke-linejoin:round;}</style><pattern id="c" x="0" y="0" width="5.67" height="5.67" patternTransform="translate(-4843.1 -934.25)" patternUnits="userSpaceOnUse" viewBox="0 0 5.67 5.67"><g><rect class="o" width="5.67" height="5.67"/><circle class="u" cx="2.83" cy="2.83" r=".99"/></g></pattern></defs><g id="b"><rect class="r" x="0" width="1080" height="1080"/><g><g><rect class="n" x="40.53" y="104.43" width="1000" height="614.56"/><rect class="t" x="41.01" y="772.16" width="998.28" height="202.29"/><rect class="t" x="40.92" y="717.62" width="998.92" height="54.54"/><rect class="t" x="181.48" y="586.82" width="717.72" height="236.95"/><rect class="t" x="181.48" y="824.08" width="205.79" height="150.45"/><rect class="t" x="693.44" y="823.68" width="205.79" height="150.69"/><rect class="t" x="422.74" y="617.81" width="241.35" height="157.96"/><rect class="t" x="435.93" y="617.86" width="214.97" height="140.7"/><line class="t" x1="543.48" y1="616.99" x2="543.67" y2="738.87"/><rect class="p" x="119.19" y="167.03" width="842.21" height="354.35"/><rect class="t" x="181.48" y="823.77" width="717.81" height="17.72"/><path class="t" d="m463.41,736.9h153.78c25.5,0,46.21,20.71,46.21,46.21v191.3h-246.19v-191.3c0-25.5,20.71-46.21,46.21-46.21Z"/><path class="t" d="m463.7,769.49h153.66c25.5,0,46.21,20.71,46.21,46.21v159.08h-246.08v-159.08c0-25.5,20.71-46.21,46.21-46.21Z"/><ellipse class="t" cx="250.88" cy="623.66" rx="43.48" ry="16.4"/><path class="t" d="m240.74,553.63h22.28v62.56c0,3.13-2.54,5.67-5.67,5.67h-10.94c-3.13,0-5.67-2.54-5.67-5.67v-62.56h0Z"/><ellipse class="t" cx="251.92" cy="552.97" rx="11.44" ry="8.16"/><ellipse class="t" cx="222.72" cy="606.12" rx="10.9" ry="10.93"/><line class="t" x1="241.53" y1="596.93" x2="263.01" y2="596.93"/><path class="p" d="m678.11,199.95c-12.33,1.74-23.36,5.42-32.08,10.44-7.03-3.3-14.63-5.19-22.62-5.19-16.64,0-31.73,7.93-42.99,20.78-12.73-14.33-35.96-23.97-62.6-23.97-23.13,0-43.71,7.26-57.07,18.55-6.35-3.18-13.66-5.01-21.46-5.01s-14.84,1.75-21.1,4.81"/><path class="p" d="m701.73,323.6c6.13-.34,11.99-.92,17.52-1.72,10.16,15.25,26.39,25.17,44.74,25.17s33.64-9.34,43.85-23.83c2.99.46,6.09.72,9.28.72,2.46,0,4.86-.18,7.21-.46,8.99,10.09,30.29,17.2,55.16,17.2,32.99,0,59.73-12.49,59.73-27.89,0-5.17-3.06-9.99-8.31-14.14,5.63-9.98,8.97-22.13,8.97-35.27,0-33.89-22.01-61.36-49.17-61.36-17.16,0-32.24,10.98-41.04,27.61-9.75-15.82-30.97-26.81-55.65-26.81-16.79,0-32,5.09-43.08,13.32-11.09-9.36-28.88-15.84-49.36-17.09"/><path class="p" d="m418.05,350.37c16.33-4.6,28.54-17.12,30.7-32.35,11.37,4.21,25.28,6.71,40.36,6.71,25.18,0,47.16-6.94,59.3-17.28,5.09,1.22,10.56,2.09,16.32,2.54,9.16,28.66,31.95,49.01,58.69,49.01,22.29,0,41.83-14.15,53.04-35.46.76.04.96.06,1.72.1"/><path class="p" d="m393.77,232.93c-11.32-3.39-25.51-5.42-40.94-5.42-3.65,0-7.21.14-10.71.36-2.93-17.1-22.79-30.34-46.89-30.34-20.15,0-37.31,9.26-44.13,22.28-10.29-3.98-23.3-6.37-37.46-6.37-33.32,0-60.32,13.14-60.32,29.35,0,1.41.27,2.78.67,4.14-14.25,6.26-23.23,15.23-23.23,25.21,0,6.91,4.31,13.32,11.65,18.71-3.73,4.08-5.86,8.74-5.86,13.7,0,15.97,21.98,28.92,49.1,28.92,20.17,0,37.48-7.17,45.04-17.42,7.4,2.94,16.53,4.7,26.44,4.7,3.93,0,7.71-.3,11.34-.81,10.45,9.06,27.37,14.97,46.52,14.97s34.69-5.44,45.21-13.88c3.48,14.88,16.69,26.69,33.61,30.18"/><rect class="p" x="119.27" y="167.03" width="274.69" height="354.33"/><rect class="p" x="417.67" y="167.03" width="260.71" height="354.33"/><rect class="p" x="701.22" y="167.03" width="260.21" height="354.33"/><path class="p" d="m204.6,331.85s5,138.81-44.38,158.23"/><path class="p" d="m285.03,329.24s-13.1,102.68,26.96,143.95"/><path class="p" d="m376.69,344.93s-2.28,136.35-85.19,161.44"/><path class="p" d="m473.84,324.98s-10.93,139.3,43.1,178.15"/><path class="p" d="m534.03,317.7s9.6,66.92-24.87,118.78"/><path class="p" d="m604.87,356.44s-9.17,76.95,32.02,105.81"/><path class="p" d="m735.23,339.76s6.33,73.93-33.53,131.69"/><path class="p" d="m816.42,325.16s7.63,136.65,62.54,173.12"/><path class="p" d="m867.66,341.16s4.04,46.29-19.38,68.74"/><path class="p" d="m914.49,338.36s-2.42,63.83,23.42,88.38"/><ellipse class="t" cx="280.37" cy="888.76" rx="10.61" ry="10.65"/><ellipse class="t" cx="796.75" cy="888.16" rx="10.61" ry="10.65"/><rect class="p" x="181.48" y="841.49" width="206.01" height="98.53"/><rect class="p" x="693.7" y="841.61" width="205.56" height="98.53"/><path class="t" d="m251.92,552.97s-11.13-4.58-12.9-9.24c-1.77-4.66.12-8.94,5.43-16.05,5.31-7.1,3.67-16.87,3.67-16.87,0,0,14.14,19.6,13.03,28.04-1.11,8.44-9.23,14.13-9.23,14.13Z"/><rect class="q" x="40" y="105.22" width="1000" height="868.85"/></g><path class="s" d="m620.12,263.95c1.27-5.64,1.94-11.41,1.94-17.29,0-63.95-78.08-115.79-174.41-115.79-61.62,0-115.78,21.22-146.8,53.25-18.85-4.63-39.24-7.17-60.52-7.17-96.32,0-174.41,51.84-174.41,115.79s78.08,115.79,174.41,115.79c61.62,0,115.78-21.22,146.8-53.25,9.17,2.25,18.7,4.01,28.53,5.21-1.27,5.64-1.94,11.41-1.94,17.29,0,63.95,78.08,115.79,174.41,115.79s174.41-51.84,174.41-115.79c0-56.7-61.37-103.87-142.41-113.84Z"/><ellipse class="s" cx="239.07" cy="480.71" rx="28.99" ry="19.25"/><ellipse class="s" cx="210.58" cy="403.9" rx="60.52" ry="40.18"/></g></g></svg>