<svg viewBox="0 0 1080 1080" xmlns="http://www.w3.org/2000/svg"><g stroke="#000" stroke-width="2"><path d="m-9.44-4.96h1109.2v1095.51h-1109.2z" fill="#edd6d4" stroke-linecap="round" stroke-linejoin="round"/><path d="m550.11 149.34 69.6-35.61 30.94 33.22 67.9-9.19-54.18 65.82-118 3.51z" fill="#fffaa5" stroke-miterlimit="10"/><path d="m584.46 113.83-53.78 9.43-45.26-23.82-43.26 25.09-56.94-23.27-22.97 19.26-45.4-22.63 89.01 124.24 23.97 5.96 57.74 36.74 79.9-89.68z" fill="#fffaa5" stroke-miterlimit="10"/><path d="m483.75 451.98 128.79 168.47c25.76 33.7 54.04 65.4 84.6 94.82l28.85 27.78 65 11.72 164.63-58.6 29.31-241.83-193.89-179.24-61.28-54.07c-15.56-13.73-33.25-24.82-52.38-32.86-36.9-15.49-77.73-19-116.73-10.02l-13.74 3.16c-40.68 13.08-74.41 41.94-93.63 80.11l-26.11 51.85c-11.59 28.05.9 60.26 28.38 73.15 29.58 13.87 64.75 0 76.88-30.34l17.86-37.09c10.17-21.13 31.73-34.4 55.18-33.96 6.52.12 12.93 1.75 18.72 4.75l43.76 22.71" fill="#fff" stroke-linecap="round" stroke-linejoin="round"/><path d="m239.41 314.56-10.75-67.71s26.87-9.67 27.94-12.9 12.9-30.09 12.9-30.09l12.9 10.75 29.02-15.05-9.67 34.39-62.33 80.6z" fill="#fffaa5" stroke-miterlimit="10"/><path d="m335.36 356.23 33.29-36.37c4.41-4.81 9.86-8.54 15.95-10.9 21.87-8.47 46.67-3.42 63.49 12.93l29.51 28.69c21.82 24.32 59.61 25.27 82.62 2.07 21.38-21.55 22.05-56.09 1.52-78.45l-42.34-39.72c-31.16-29.24-72.76-44.75-115.46-43.06l-13.99 1.75c-39.71 4.97-76.85 22.29-106.18 49.52-15.2 14.12-28 30.62-37.9 48.86l-38.97 71.83-60.65 132.79 310.57 299.17 108.31-191.74-13.17-125.87" fill="#fff" stroke-linecap="round" stroke-linejoin="round"/><path d="m548.06 340.62-21.22-8.98-22.04 26.12-14.53-12.37-21.39-8.72-6.34-19.01-16.63-16.63-20.42-29.44-21.56 1.04-27.9-9.3-19.93 14.61-30.02 1.64-12.88 47.5-74.7 26.67 17.34 70.43-23.11 40.84 41.96 12.12 37.55 14.56 22.01 35.5-2.23 26.18 31.64 22.61 23.88 32.97 37.16 6.21 10.04 43.53 40.45.93 35.41 18.84 33.15-6.03 28.33-16.01 37.58-.59 21.72-18.2 35.16 1.01 16.28-44.54 33.67 3.67 3.01-205.05 3.42-10.68-1.71-14.07 2.49-12.47-.83-14.96-13.19-10.6 17.66-9.28 2.15-31.23-19.38-41.99-38.76 30.15 3.23-46.3-35.53-8.61-27.47 57.62-24.97-3.27-20.65 24.36 4.94 21.27-13.87 7.34z" fill="#fffaa5" stroke-miterlimit="10"/><path d="m178.79 469.27 50.88-118.88c12.83-29.97 46.14-45.5 77.34-36.06 35.59 10.77 54.53 49.51 41.18 84.21l-41.53 107.89" fill="#fff" stroke-linecap="round" stroke-linejoin="round"/><path d="m-6.59 566.45 131.86-118.79 478.5 421.32-173.58 226.78-434.57.43z" fill="#2bc670" stroke-miterlimit="10"/><path d="m1085.79 491.01-68.66-72.49-386.19 434.81 228.06 243.78 227.59.32z" fill="#2bc670" stroke-miterlimit="10"/><path d="m785.76 416.24-101.4-80.24c-25.56-20.23-62.25-18-85.18 5.18-26.15 26.44-24.33 69.52 3.95 93.66l40.79 33.68c40.04 33.07 68.44 78.09 81.04 128.47" fill="#fff" stroke-linecap="round" stroke-linejoin="round"/></g></svg>