<?xml version="1.0" encoding="UTF-8"?><svg id="a" xmlns="http://www.w3.org/2000/svg" xmlns:xlink="http://www.w3.org/1999/xlink" viewBox="0 0 1080 1350"><defs><style>.g,.h,.i,.j,.k,.l,.m{fill:none;}.n,.o,.p,.q,.r,.s,.t,.h,.u,.v,.w,.x,.y,.m,.z,.aa,.ab{stroke-linecap:round;stroke-linejoin:round;}.n,.o,.p,.q,.r,.s,.h,.u,.v,.x,.y,.m,.z{stroke:#000;}.n,.z{fill:#5cd6ff;}.o{fill:#9fdffb;}.p{fill:#cefc7f;}.q{fill:#efff44;}.r{fill:#fbb7fa;}.s,.t,.ac,.w,.x{fill:#fff;}.t,.w,.aa,.ab{stroke:#1d1d1b;}.ad{fill:#e8d3cd;}.ae{fill:#e8e6e2;}.af{fill:#e8e8e3;}.u{fill:#34ff7f;}.u,.v,.w,.x,.y,.m,.ab{stroke-width:2px;}.v{fill:#c0a0fb;}.y{fill:#fce855;}.i{clip-path:url(#e);}.j{clip-path:url(#c);}.k{clip-path:url(#d);}.l{clip-path:url(#b);}.z{stroke-width:1.08px;}</style><clipPath id="b"><rect class="g" x="-4185.59" y="804.72" width="2674" height="720"/></clipPath><clipPath id="c"><rect class="g" x="-1893.59" y="804.72" width="382" height="720"/></clipPath><clipPath id="d"><rect class="g" x="-4179.97" y="44.3" width="2674" height="720"/></clipPath><clipPath id="e"><rect class="g" x="-1887.97" y="44.3" width="382" height="720"/></clipPath></defs><g class="l"><g class="j"><rect class="ad" x="-1892.29" y="803.32" width="2674.62" height="719.96"/><path class="q" d="m253.51,1432.22c14.24-88.38-8.39-131.09-8.39-131.09,0,0,14.72,36.97-.66,133.99l-.5,2.94"/><path class="q" d="m236.12,1440.05c-4.3-97.7-26.14-129.28-26.14-129.28,0,0,30.72,34.55,34.41,123.61l.11,5.7"/><path class="q" d="m241.99,1440.04l.04-2.37c1.35-97.96-18.55-132.99-18.55-132.99,0,0,28.57,39.83,27.11,129.09l-.14,6.23"/><path class="q" d="m256.65,1440.05l.08-5.01c3.69-89.06,34.41-123.61,34.41-123.61,0,0-21.74,30.96-26.04,128.66"/><path class="q" d="m258.93,1440.07c-1.35-97.96,18.59-134.88,18.59-134.88,0,0-28.57,39.83-27.11,129.09l.04,5.76"/><path class="q" d="m308.34,1431.01c14.24-88.38-8.39-131.09-8.39-131.09,0,0,14.72,36.97-.66,133.99l-.5,2.94"/><path class="q" d="m290.95,1438.83c-4.3-97.7-26.14-129.28-26.14-129.28,0,0,30.72,34.55,34.41,123.61l.11,5.7"/><path class="q" d="m296.81,1438.82l.04-2.37c1.35-97.96-18.55-132.99-18.55-132.99,0,0,28.57,39.83,27.11,129.09l-.14,6.23"/><path class="q" d="m311.48,1438.83l.08-5.01c3.69-89.06,34.41-123.61,34.41-123.61,0,0-21.74,30.96-26.04,128.66"/><path class="q" d="m313.76,1438.85c-1.35-97.96,18.59-134.88,18.59-134.88,0,0-28.57,39.83-27.11,129.09l.04,5.76"/><path class="q" d="m361.44,1431.62c14.24-88.38-8.39-131.09-8.39-131.09,0,0,14.72,36.97-.66,133.99l-.5,2.94"/><path class="q" d="m344.05,1439.45c-4.3-97.7-26.14-129.28-26.14-129.28,0,0,30.72,34.55,34.41,123.61l.11,5.7"/><path class="q" d="m349.91,1439.44l.04-2.37c1.35-97.96-18.55-132.99-18.55-132.99,0,0,28.57,39.83,27.11,129.09l-.14,6.23"/><path class="q" d="m364.58,1439.44l.08-5.01c3.69-89.06,34.41-123.61,34.41-123.61,0,0-21.74,30.96-26.04,128.66"/><path class="q" d="m366.86,1439.46c-1.35-97.96,18.59-134.88,18.59-134.88,0,0-28.57,39.83-27.11,129.09l.04,5.76"/><rect class="q" x="158.2" y="1172.33" width="250.05" height="83.74" transform="translate(-815.76 1803.05) rotate(-105.05)"/><path class="o" d="m298.21,1323.11l-17.44,24.25c-4.22,5.87-2.25,14.13,4.18,17.45h0c5.85,3.02,13.03.7,16.01-5.17l14.45-28.49"/><path class="s" d="m306.88,1346.28l-9.57,6.06c-3.79,2.62-5.15,7.59-3.22,11.78h0c2.24,4.85,8.05,6.9,12.83,4.52h0c5.07-2.9,9.47-6.85,12.9-11.58l2.14-2.96"/><path class="s" d="m309.83,1340.13l-7.88,8.14c-3.07,3.44-3.21,8.59-.35,12.2h0c3.32,4.19,9.44,4.81,13.54,1.37h0c4.24-4.02,7.59-8.89,9.8-14.29l1.39-3.38"/><path class="s" d="m316.45,1332.88l-7.88,8.14c-3.07,3.44-3.21,8.59-.35,12.2h0c3.32,4.19,9.44,4.81,13.54,1.37h0c4.24-4.02,7.59-8.89,9.8-14.29l1.39-3.38"/><rect class="o" x="100.95" y="1050.47" width="137" height="323.67" transform="translate(-5.75 .82) rotate(-.27)"/><rect class="o" x="37.84" y="1047.06" width="137" height="327.32" transform="translate(-5.74 .52) rotate(-.27)"/><path class="q" d="m31.96,1071.14c21.41,41.95,62.7,72.11,120.87,90.31l146.89,44.27,4.22-68.68c2.67-43.53-16.02-85.64-50.1-112.85h0c-35.21-28.11-78.36-44.45-123.35-46.71h0c-93.55-3.4-98.53,93.65-98.53,93.65"/><polyline class="q" points="261.18 1067.58 133.48 909.79 67.68 961.58 184.75 1105.52"/><path class="o" d="m-81.64,1437.62c47.37,0,85.72-38.48,85.56-85.85l-.79-225.23c-.16-47.28-47.78-79.64-91.8-62.37l-190.59,74.78,50.79,127.24,107.39-42.87v95.93c0,12.69-10.29,22.98-22.98,22.98h-143.76v95.38s206.17.02,206.17.02Z"/><path class="s" d="m298.3,1322.99c.21,2.64.52,5.25.95,7.8h0c.74,4.46-1.46,8.9-5.47,11h0c-5.29,2.78-11.83.58-14.37-4.84l-3.28-8.11c-2.72-6.71-3.47-14.06-2.15-21.19l1.11-5.99"/><path class="s" d="m320.69,1324.78l-7.88,8.14c-3.07,3.44-3.21,8.59-.35,12.2h0c3.32,4.19,9.44,4.81,13.54,1.37h0c4.24-4.02,7.59-8.89,9.8-14.29l1.39-3.38"/><path class="o" d="m363.18,1324.73l4.41-8.81c6.17-13.49-9.04-33.67-33.97-45.08-24.93-11.41-50.15-9.72-56.32,3.76l-4.41,8.81"/><ellipse class="o" cx="317.7" cy="1304.89" rx="24.82" ry="49.65" transform="translate(-1001.06 1050.87) rotate(-65.41)"/><ellipse class="s" cx="317.7" cy="1304.89" rx="20.8" ry="41.6" transform="translate(-1001.06 1050.87) rotate(-65.41)"/><path class="s" d="m92.19,925.76l-29.94-10.49c-5.06-1.74-10.55,1.05-12.14,6.15h0c-1.37,4.4.62,9.15,4.72,11.26l10.03,5.94c4.5,2.66,8.65,5.86,12.38,9.52l3.43,3.36"/><path class="s" d="m93.26,919.48l-24.33-20.36c-4.12-3.41-10.24-2.74-13.53,1.48h0c-2.83,3.64-2.65,8.78.45,12.2l14.2,14.39"/><path class="s" d="m96.81,904.11l-17.2-17.52c-3.86-3.7-10.01-3.48-13.6.48h0c-3.09,3.42-3.28,8.56-.45,12.2l10.41,13.36"/><path class="s" d="m85.73,901.77l-7.34-18.62c-1.69-4.29-.05-9.17,3.88-11.58h0c4.56-2.79,10.52-1.26,13.18,3.38l27.77,42.92-42.41,33.46"/><path class="s" d="m88.05,933.28l-9.24-14.56c-3.2-5.05-1.54-11.75,3.64-14.72h0c3.93-2.25,8.85-1.72,12.22,1.3l8.47,7.62"/><path class="h" d="m-153.36,886.44s59.2-50.7,92.31-29.47c41.59,26.67-35.63,95.56-48.87,47.76-13.25-47.8,231.47-141.65,346.56-38.33"/><line class="s" x1="227.58" y1="881.98" x2="238.45" y2="878.54"/><line class="s" x1="230.07" y1="888.51" x2="240.94" y2="885.06"/><line class="s" x1="256.51" y1="873.67" x2="267.38" y2="870.22"/><line class="s" x1="259.01" y1="880.19" x2="269.87" y2="876.75"/><line class="s" x1="246.55" y1="861.9" x2="250.33" y2="872.66"/><line class="s" x1="239.52" y1="864.06" x2="243.3" y2="874.82"/><line class="s" x1="255.57" y1="885.08" x2="259.34" y2="895.84"/><line class="s" x1="248.54" y1="887.24" x2="252.31" y2="898"/><circle class="t" cx="277.05" cy="1158.72" r="68.91"/><circle class="aa" cx="277.26" cy="1176.61" r="3.58"/><circle class="aa" cx="318.52" cy="1196.02" r="3.58"/><path class="t" d="m299.54,1187.08l-.27,17.31c-.14,8.99-9.51,14.84-17.65,11.01l-6.25-2.94"/></g></g><rect class="ae" x="-1079.96" y="-4.19" width="4327.15" height="1349.92"/><path class="x" d="m13.98,140.47l-59.07,6.97c-9.95,1.24-16.91,10.44-15.39,20.35h0c1.31,8.54,8.57,14.91,17.21,15.09l21.78,1.76c9.77.79,19.4,2.76,28.7,5.85l10.6,4.21,35.12-49.41,9.09-40.78"/><path class="x" d="m10.63,129.01l-57.73-14.29c-9.74-2.35-19.5,3.81-21.57,13.62h0c-1.79,8.46,2.77,16.97,10.79,20.19l35.76,12.56"/><path class="x" d="m3.95,100.19l-43.39-15.36c-9.55-3.06-19.73,2.37-22.52,12h0c-2.4,8.3,1.51,17.13,9.28,20.93l28.54,13.95"/><path class="x" d="m-16.63,105.36l-27.68-25.33c-6.38-5.83-7.64-15.41-2.99-22.7h0c5.39-8.45,16.7-10.78,24.99-5.15l80.76,49.18,17.65,43.92-42.98,39.95"/><path class="x" d="m13.19,156.54l-27.54-16.92c-9.55-5.87-12.27-18.52-5.97-27.79h0c4.77-7.02,13.5-10.19,21.66-7.85l20.54,5.87"/><polygon class="u" points="380.55 406.8 7 218.78 68.24 86.05 446.78 264.45 380.55 406.8"/><polygon class="ac" points="119.11 401.35 128.64 377.22 139.37 336.71 131.02 296.5 102.73 259.56 78 272.07 46.72 284.88 17.53 322.41 119.11 401.35"/><path class="x" d="m126.95,300.45c5.71-8.24,17.09-10.13,25.17-4.19h0c6.96,5.12,9.23,14.51,5.38,22.25l-12.64,30.98c-5.66,13.88-12.35,27.32-20,40.21l-2.62,4.6"/><path class="x" d="m113.36,279.28c4.38-9.02,15.33-12.64,24.22-8.01h0c7.67,3.99,11.35,12.92,8.74,21.16l-16.61,47.04"/><path class="x" d="m97.28,251.94c5.35-8.47,16.64-10.86,24.96-5.27h0c7.17,4.82,9.85,14.1,6.33,22l-16.33,46.09"/><path class="x" d="m49.45,290.07l29.96-63.71c4.59-8.91,15.64-12.26,24.41-7.42h0c7.57,4.18,11.04,13.19,8.22,21.37l-15.39,46.85"/><path class="x" d="m66.57,294.61l-8.67-19.56c-4.85-10.95-17.69-15.84-28.6-10.89h0c-8.66,3.93-13.72,13.08-12.45,22.5l4.24,31.41"/><rect class="u" x="1161.43" y="528.52" width="256.87" height="546.62" transform="translate(-220.18 964.38) rotate(-38.01)"/><path class="x" d="m1025.77,1143.6c-.46-17.62-1.22-32.77-3-39.76-3.02-11.88-14.18-20.78-23.13-25.97v-178.94l.83-48.54,83.42,5.39,31.68.12v123.1s-37.8,5.79-37.8,5.79l37.97,42.68.41,108.39c.11,29-23.31,52.6-52.32,52.71l-61.52.23-73.87.28-9.51-52.3c-4.17-15-2.76-35.81,12.79-36.66,16.72-.91,67.24-1.21,87.3-1.65"/><path class="m" d="m1096.14,1005.46l.04,118.78h0c-.11,24.76-20.16,44.8-44.91,44.89l-126.37.48"/><polygon class="v" points="1055.97 854.87 940.93 1041.08 497.92 595.75 674.24 448.12 1055.97 854.87"/><polygon class="u" points="134.67 399.62 14.94 308.08 -280.27 607.69 -170.91 717.04 134.67 399.62"/><path class="x" d="m522.36,1067.14c-5.29,9.14-14.35,20.54-26.46,23.64-15.91,4.07-73.22,3.02-107.66,4.95-15.86.89-17.27,22.13-13,37.43l9.78,53.35,188.93-.97,43.5-38.8,5.96,38.55,125.61-.15.29-119.15"/><line class="x" x1="748.99" y1="1163.95" x2="620.79" y2="1165.34"/><line class="x" x1="596.23" y1="1165.52" x2="381.77" y2="1165.88"/><path class="x" d="m85.29,604.49c1.33-10.48,1.02-25.04-6.75-34.84-10.2-12.87-56.44-46.74-82.68-69.13-12.09-10.31-.35-28.07,12.32-37.65l40.09-36.54,149.76,115.17,11.12,57.22,28.09-27.07,99.86,76.18-71.92,95"/><line class="x" x1="324.26" y1="664.69" x2="223.08" y2="585.95"/><line class="x" x1="203.64" y1="570.94" x2="33.2" y2="440.79"/><polyline class="v" points="508.37 588.3 508.37 1068.61 752.18 1068.61 751.01 699.33"/><polygon class="v" points="69.37 593.39 274.01 748.66 -57.79 1179.33 -261.04 1028.83 69.37 593.39"/><path class="x" d="m249.61,690.33c3.15-10.08,5.4-24.47-.53-35.48-7.79-14.46-47.37-55.92-69.28-82.56-10.09-12.27,4.58-27.7,18.73-34.91l45.87-28.94,127.25,139.65.92,58.28,32.4-21.72,84.96,92.51-87.46,80.92"/><line class="x" x1="474.33" y1="791.51" x2="388.52" y2="696.24"/><line class="x" x1="372.02" y1="678.05" x2="227.03" y2="520.03"/><path class="v" d="m235.89,676.61l174.23,188.75-297.49,242.76c-61.24,49.98-137.93,77.16-216.97,76.92l-27.45-.08c-101.45-.18-192.96-60.99-232.42-154.45h0s236.37-59.38,236.37-59.38l363.73-294.52Z"/><path class="u" d="m690.53,364.34l112.22,164.52c-62.13,77.94-142.27,116.38-241.94,116.88h-2.44c-46.18.24-89.96-20.53-118.99-56.45l-156.57-233.49"/><path class="u" d="m1183.86,405.72l186.32,231.48-179.7,102.1c-53.02,30.14-120.52,20.24-161.04-25.35"/><path class="u" d="m581.95,428.91l132.04,266.74,145.42-70.62-131.36-251.17c-33.78-56.4-84.79-100.45-145.51-125.66l-63.44-26.33-181.63,21.63"/><polygon class="x" points="956.92 1015.22 999.48 1060.12 999.64 946.15 956.92 1015.22"/><path class="x" d="m777.13,706.22l-7.64,31.41c-2.65,10.89-13.86,17.36-24.61,14.22h0c-8.14-2.38-13.84-9.72-14.13-18.2h0c-.48-14.18-2.92-29.03-6.75-42.69l8.25-4.25,119.06-57.82,21.24,49.92,6.34,9.38-30.34,34.48-32,6.07"/><path class="x" d="m847.14,686.02l25.04,17.77c8.61,5.14,19.76,2.15,24.65-6.6h0c4.22-7.55,2.4-17.03-4.31-22.48l-16.1-14.77c-7.22-6.63-13.62-14.1-19.05-22.25l-5.79-8.84-15.19,7.41-100.78,48.83"/><path class="x" d="m831.73,713.77l10.08,13.22c6.54,7.6,18.06,8.3,25.47,1.55h0c6.39-5.82,7.67-15.39,3.04-22.69l-21.68-31.09"/><path class="x" d="m805.9,723.48l12.94,21.46c5.65,8.28,17.02,10.25,25.14,4.37h0c7-5.08,9.33-14.45,5.54-22.21l-22.99-40.86"/><path class="x" d="m763.83,704.08l23.72,48.72c4.9,8.74,16.05,11.71,24.65,6.57h0c7.42-4.44,10.57-13.57,7.47-21.64l-18.97-41.79"/><polygon class="v" points="1311.75 247.77 939.01 485.16 868.1 353.5 1233.69 107.89 1311.75 247.77"/><path class="v" d="m902.01,273.49c-63.97,52.54-69.79,177.35-10.82,252.15l115.3,175.15c6.95,10.56,20.04,15.22,32.13,11.52,5.74-1.76,12.14-4.05,18.54-6.97,24.06-10.99,69.43-30.27,115.61-87.88,23.9-29.82,26.01-53.2,26.01-53.2"/><polyline class="v" points="1053.7 340.56 1334.54 448.96 1278.97 595.8 1037.72 503.41"/><line class="x" x1="292.54" y1="1155.81" x2="198.18" y2="1156.21"/><path class="u" d="m439.62,946.99s-63.57,46.84-87.82,164.74c9.87-126.87,50.43-176.85,50.43-176.85,0,0-54.15,42.58-70.4,154.41,8.93-111.3-35.13-157.72-35.13-157.72,0,0,28.04,33.74,10.01,157.21-14.34-114.26-69.11-151.16-69.11-151.16,0,0,40.85,44.14,48.39,174.56-22.63-119.37-85.91-162.88-85.91-162.88,0,0,59.73,58.16,70.54,236.35l95.43-.13c12.84-178.05,73.57-238.53,73.57-238.53Z"/><path class="y" d="m203.3,1051.78l81.4-1.18,1.08,135.7-92.93-.08-.76-123.08c-.04-6.23,4.98-11.31,11.21-11.35Z"/><path class="y" d="m153.12,1121.07h29.43v94.53c0,4.12-3.34,7.46-7.46,7.46h-14.51c-4.12,0-7.46-3.34-7.46-7.46v-94.53h0Z" transform="translate(1338.84 996.98) rotate(89.65)"/><rect class="y" x="290.58" y="1073.07" width="35.5" height="11.15" rx="5.58" ry="5.58" transform="translate(1383.67 758.98) rotate(89.4)"/><rect class="y" x="290.58" y="1109.58" width="35.5" height="11.15" rx="5.58" ry="5.58" transform="translate(1420.18 795.11) rotate(89.4)"/><path class="y" d="m178.07,1186.67l116.25-.5c5.19-.02,9.38-4.24,9.36-9.43l-.5-116.14c-.02-5.54-4.53-10-10.07-9.98l-9.47.04"/><path class="y" d="m271.81,1156.64l-71.79.33-.13-92.43c0-4.16,3.37-7.53,7.53-7.53l56.92-.22c4.16,0,7.53,3.37,7.53,7.53l-.06,92.32Z"/><circle class="y" cx="232.3" cy="1068.28" r="5.27"/><rect class="u" x="-1084.42" y="1185.3" width="4326.76" height="167.27"/><path class="u" d="m1135.17,1184.72c-13.68-137.69-55.48-151.39-55.48-151.39,0,0,52.58,13.22,70.4,128.3-6.33-125.83-39.22-187.79-39.22-187.79,0,0,52.42,29.5,57.82,162.38,5.61-132.22,56.95-156.3,56.95-156.3,0,0-31.15,58.59-38.14,181.08,18.02-113.91,60.27-119.04,60.27-119.04,0,0-31.79,4.92-45.42,142.69l-67.18.07Z"/><path class="u" d="m748.51,1185c-13.68-137.69-55.48-151.39-55.48-151.39,0,0,52.58,13.22,70.4,128.3-6.33-125.83-39.22-187.79-39.22-187.79,0,0,52.42,29.5,57.82,162.38,5.61-132.22,56.95-156.3,56.95-156.3,0,0-31.15,58.59-38.14,181.08,18.02-113.91,60.27-119.04,60.27-119.04,0,0-31.79,4.92-45.42,142.69l-67.18.07Z"/><circle class="w" cx="452.92" cy="246.59" r="129.21"/><circle class="ab" cx="438.58" cy="234.48" r="6.72"/><circle class="ab" cx="358.16" cy="205.45" r="6.72"/><path class="w" d="m395.17,218.79l-22.61,23.29c-11.74,12.09-7.08,32.28,8.77,38l12.19,4.4"/><circle class="w" cx="889.1" cy="334.11" r="129.21"/><circle class="ab" cx="898.94" cy="352.32" r="6.72"/><circle class="ab" cx="974.05" cy="311.47" r="6.72"/><path class="w" d="m939.49,330.24l25.87,19.6c13.44,10.18,11.88,30.84-2.93,38.89l-11.39,6.19"/><g class="k"><g class="i"><rect class="af" x="-1886.67" y="42.89" width="2674.62" height="719.96"/><path class="n" d="m259.13,671.8c14.24-88.38-8.39-131.09-8.39-131.09,0,0,14.72,36.97-.66,133.99l-.5,2.94"/><path class="n" d="m241.74,679.63c-4.3-97.7-26.14-129.28-26.14-129.28,0,0,30.72,34.55,34.41,123.61l.11,5.7"/><path class="n" d="m247.6,679.62l.04-2.37c1.35-97.96-18.55-132.99-18.55-132.99,0,0,28.57,39.83,27.11,129.09l-.14,6.23"/><path class="n" d="m262.27,679.62l.08-5.01c3.69-89.06,34.41-123.61,34.41-123.61,0,0-21.74,30.96-26.04,128.66"/><path class="n" d="m264.54,679.64c-1.35-97.96,18.59-134.88,18.59-134.88,0,0-28.57,39.83-27.11,129.09l.04,5.76"/><line class="n" x1="270.72" y1="679.66" x2="241.71" y2="679.65"/><path class="n" d="m313.96,670.58c14.24-88.38-8.39-131.09-8.39-131.09,0,0,14.72,36.97-.66,133.99l-.5,2.94"/><path class="n" d="m296.56,678.41c-4.3-97.7-26.14-129.28-26.14-129.28,0,0,30.72,34.55,34.41,123.61l.11,5.7"/><path class="n" d="m302.43,678.4l.04-2.37c1.35-97.96-18.55-132.99-18.55-132.99,0,0,28.57,39.83,27.11,129.09l-.14,6.23"/><path class="n" d="m317.1,678.41l.08-5.01c3.69-89.06,34.41-123.61,34.41-123.61,0,0-21.74,30.96-26.04,128.66"/><path class="n" d="m319.37,678.42c-1.35-97.96,18.59-134.88,18.59-134.88,0,0-28.57,39.83-27.11,129.09l.04,5.76"/><line class="n" x1="325.55" y1="678.44" x2="296.54" y2="678.43"/><path class="n" d="m367.06,671.2c14.24-88.38-8.39-131.09-8.39-131.09,0,0,14.72,36.97-.66,133.99l-.5,2.94"/><path class="n" d="m349.66,679.03c-4.3-97.7-26.14-129.28-26.14-129.28,0,0,30.72,34.55,34.41,123.61l.11,5.7"/><path class="n" d="m355.53,679.02l.04-2.37c1.35-97.96-18.55-132.99-18.55-132.99,0,0,28.57,39.83,27.11,129.09l-.14,6.23"/><path class="n" d="m370.2,679.02l.08-5.01c3.69-89.06,34.41-123.61,34.41-123.61,0,0-21.74,30.96-26.04,128.66"/><path class="n" d="m372.47,679.04c-1.35-97.96,18.59-134.88,18.59-134.88,0,0-28.57,39.83-27.11,129.09l.04,5.76"/><line class="n" x1="378.65" y1="679.06" x2="349.64" y2="679.05"/><rect class="n" x="163.81" y="411.91" width="250.05" height="83.74" transform="translate(-74.35 850.56) rotate(-105.05)"/><path class="r" d="m303.83,562.69l-17.44,24.25c-4.22,5.87-2.25,14.13,4.18,17.45h0c5.85,3.02,13.03.7,16.01-5.17l14.45-28.49"/><path class="s" d="m312.5,585.86l-9.57,6.06c-3.79,2.62-5.15,7.59-3.22,11.78h0c2.24,4.85,8.05,6.9,12.83,4.52h0c5.07-2.9,9.47-6.85,12.9-11.58l2.14-2.96"/><path class="s" d="m315.45,579.71l-7.88,8.14c-3.07,3.44-3.21,8.59-.35,12.2h0c3.32,4.19,9.44,4.81,13.54,1.37h0c4.24-4.02,7.59-8.89,9.8-14.29l1.39-3.38"/><path class="s" d="m322.07,572.46l-7.88,8.14c-3.07,3.44-3.21,8.59-.35,12.2h0c3.32,4.19,9.44,4.81,13.54,1.37h0c4.24-4.02,7.59-8.89,9.8-14.29l1.39-3.38"/><path class="s" d="m233.8,614c2.84,4.87,7.69,10.93,14.16,12.56,8.49,2.14,39.06,1.48,57.43,2.44,8.46.44,9.25,11.77,7,19.94l-5.12,28.47-100.76-.17-23.27-20.61-3.11,20.57-66.99.14-.37-63.55"/><line class="s" x1="113.11" y1="666.04" x2="181.48" y2="666.55"/><line class="s" x1="194.58" y1="666.6" x2="308.96" y2="666.4"/><rect class="r" x="106.57" y="290.05" width="137" height="323.67" transform="translate(-2.14 .84) rotate(-.27)"/><path class="s" d="m170.7,613.85c2.84,4.87,7.69,10.93,14.16,12.56,8.49,2.14,39.06,1.48,57.43,2.44,8.46.44,9.25,11.77,7,19.94l-5.12,28.47-100.76-.17-23.27-20.61-3.11,20.57-66.99.14-.37-63.55"/><line class="s" x1="50.01" y1="665.89" x2="118.38" y2="666.4"/><line class="s" x1="131.48" y1="666.45" x2="245.86" y2="666.25"/><rect class="r" x="43.46" y="286.64" width="137" height="327.32" transform="translate(-2.14 .54) rotate(-.27)"/><path class="n" d="m37.57,310.72c21.41,41.95,62.7,72.11,120.87,90.31l146.89,44.27,4.22-68.68c2.67-43.53-16.02-85.64-50.1-112.85h0c-35.21-28.11-78.36-44.45-123.35-46.71h0c-93.55-3.4-98.53,93.65-98.53,93.65"/><path class="p" d="m386.05,677.24c2.39.01,4.34-1.92,4.35-4.31l.03-5.76c.01-2.39-1.92-4.34-4.31-4.35l-134.7-.6c-2.37-.01-4.29,1.9-4.3,4.27l-.03,6.08c-.01,2.37,1.9,4.29,4.27,4.3l134.7.37Z"/><rect class="p" x="354.59" y="656.84" width="18.93" height="5.95" rx="2.97" ry="2.97" transform="translate(724.98 1321.35) rotate(-179.73)"/><rect class="p" x="335.12" y="656.95" width="18.93" height="5.95" rx="2.97" ry="2.97" transform="translate(686.04 1321.48) rotate(-179.73)"/><polyline class="n" points="266.8 307.16 139.09 149.37 73.3 201.16 190.37 345.09"/><path class="r" d="m-76.02,677.2c47.37,0,85.72-38.48,85.56-85.85l-.79-225.23c-.16-47.28-47.78-79.64-91.8-62.37l-190.59,74.78,50.79,127.24,107.39-42.87v95.93c0,12.69-10.29,22.98-22.98,22.98h-143.76v95.38s206.17.02,206.17.02Z"/><path class="s" d="m303.92,562.57c.21,2.64.52,5.25.95,7.8h0c.74,4.46-1.46,8.9-5.47,11h0c-5.29,2.78-11.83.58-14.37-4.84l-3.28-8.11c-2.72-6.71-3.47-14.06-2.15-21.19l1.11-5.99"/><path class="s" d="m326.31,564.36l-7.88,8.14c-3.07,3.44-3.21,8.59-.35,12.2h0c3.32,4.19,9.44,4.81,13.54,1.37h0c4.24-4.02,7.59-8.89,9.8-14.29l1.39-3.38"/><path class="r" d="m368.8,564.31l4.41-8.81c6.17-13.49-9.04-33.67-33.97-45.08-24.93-11.41-50.15-9.72-56.32,3.76l-4.41,8.81"/><ellipse class="r" cx="323.32" cy="544.47" rx="24.82" ry="49.65" transform="translate(-306.31 611.94) rotate(-65.41)"/><ellipse class="s" cx="323.32" cy="544.47" rx="20.8" ry="41.6" transform="translate(-306.31 611.94) rotate(-65.41)"/><path class="s" d="m97.8,165.34l-29.94-10.49c-5.06-1.74-10.55,1.05-12.14,6.15h0c-1.37,4.4.62,9.15,4.72,11.26l10.03,5.94c4.5,2.66,8.65,5.86,12.38,9.52l3.43,3.36"/><path class="s" d="m98.88,159.06l-24.33-20.36c-4.12-3.41-10.24-2.74-13.53,1.48h0c-2.83,3.64-2.65,8.78.45,12.2l14.2,14.39"/><path class="s" d="m102.42,143.69l-17.2-17.52c-3.86-3.7-10.01-3.48-13.6.48h0c-3.09,3.42-3.28,8.56-.45,12.2l10.41,13.36"/><path class="s" d="m91.35,141.35l-7.34-18.62c-1.69-4.29-.05-9.17,3.88-11.58h0c4.56-2.79,10.52-1.26,13.18,3.38l27.77,42.92-42.41,33.46"/><path class="s" d="m93.67,172.85l-9.24-14.56c-3.2-5.05-1.54-11.75,3.64-14.72h0c3.93-2.25,8.85-1.72,12.22,1.3l8.47,7.62"/><path class="h" d="m-147.74,126.02s59.2-50.7,92.31-29.47c41.59,26.67-35.63,95.56-48.87,47.76S127.17,2.66,242.26,105.97"/><line class="s" x1="233.2" y1="121.56" x2="244.06" y2="118.11"/><line class="s" x1="235.69" y1="128.08" x2="246.56" y2="124.64"/><line class="s" x1="262.13" y1="113.24" x2="273" y2="109.8"/><line class="s" x1="264.62" y1="119.77" x2="275.49" y2="116.33"/><line class="s" x1="252.17" y1="101.48" x2="255.95" y2="112.24"/><line class="s" x1="245.14" y1="103.64" x2="248.92" y2="114.4"/><line class="s" x1="261.19" y1="124.66" x2="264.96" y2="135.41"/><line class="s" x1="254.15" y1="126.82" x2="257.93" y2="137.58"/><rect class="z" x="-1889.05" y="677.29" width="2678.71" height="88.41"/><path class="n" d="m-42.9,677.15l.11-6.94c5.1-123.27,47.62-171.08,47.62-171.08,0,0-30.08,42.85-36.04,178.07"/><path class="n" d="m75.25,598.57s-21.02,15.49-29.03,54.47c3.26-41.95,16.67-58.47,16.67-58.47,0,0-17.9,14.08-23.28,51.05,2.95-36.8-11.61-52.15-11.61-52.15,0,0,9.27,11.16,3.31,51.98-4.74-37.78-22.85-49.98-22.85-49.98,0,0,13.51,14.59,16,57.71-7.48-39.47-28.41-53.85-28.41-53.85,0,0,19.75,19.23,23.32,78.14l31.55-.04c4.25-58.87,24.33-78.86,24.33-78.86Z"/><circle class="t" cx="282.66" cy="398.3" r="68.91"/><circle class="aa" cx="282.87" cy="416.19" r="3.58"/><circle class="aa" cx="324.14" cy="435.6" r="3.58"/><path class="t" d="m305.16,426.66l-.27,17.31c-.14,8.99-9.51,14.84-17.65,11.01l-6.25-2.94"/></g></g></svg>