<?xml version="1.0" encoding="UTF-8"?><svg id="a" xmlns="http://www.w3.org/2000/svg" xmlns:xlink="http://www.w3.org/1999/xlink" viewBox="0 0 1080 1350"><defs><style>.g,.h,.i,.j,.k,.l,.m{fill:none;}.n,.o,.p,.q,.r,.s,.t,.u,.h,.v,.w,.x,.y,.z,.m,.aa,.ab,.ac{stroke-linecap:round;stroke-linejoin:round;}.n,.o,.p,.q,.r,.s,.t,.h,.v,.w,.y,.z,.m,.aa{stroke:#000;}.n,.aa{fill:#5cd6ff;}.o{fill:#9fdffb;}.p{fill:#cefc7f;}.q{fill:#efff44;}.r{fill:#fca367;}.s{fill:#fbb7fa;}.t,.u,.ad,.x,.y{fill:#fff;}.u,.x,.ab,.ac{stroke:#1d1d1b;}.ae{fill:#e8d3cd;}.af{fill:#e8e6e2;}.ag{fill:#e8e8e3;}.v{fill:#34ff7f;}.v,.w,.x,.y,.z,.m,.ac{stroke-width:2px;}.w{fill:#c0a0fb;}.z{fill:#fce855;}.i{clip-path:url(#e);}.j{clip-path:url(#c);}.k{clip-path:url(#d);}.l{clip-path:url(#b);}.aa{stroke-width:1.08px;}</style><clipPath id="b"><rect class="g" x="-3105.59" y="804.72" width="2674" height="720"/></clipPath><clipPath id="c"><rect class="g" x="-813.59" y="804.72" width="382" height="720"/></clipPath><clipPath id="d"><rect class="g" x="-3099.97" y="44.3" width="2674" height="720"/></clipPath><clipPath id="e"><rect class="g" x="-807.97" y="44.3" width="382" height="720"/></clipPath></defs><g class="l"><g class="j"><rect class="ae" x="-812.29" y="803.32" width="2674.62" height="719.96"/><polygon class="q" points="-33.35 1022.51 -232.58 922.23 -199.92 851.44 1.97 946.59 -33.35 1022.51"/><circle class="u" cx="935.22" cy="1319.18" r="68.91"/><path class="t" d="m864.55,1074.02l-9.05-14.67c-3.14-5.09-9.89-6.52-14.83-3.15h0c-3.74,2.55-5.42,7.21-4.17,11.56h0c2.09,7.27,3.3,15.2,3.61,22.76l4.88.79"/><path class="t" d="m922.51,1057.42l.76-17.22c.26-5.97,5.46-10.52,11.41-9.98h0c4.51.4,8.25,3.66,9.27,8.06h0c1.72,7.37,4.52,14.89,7.94,21.64l-3.88,3.07"/><path class="t" d="m864.61,1115.65h85.87v8.08c0,2.77-2.25,5.01-5.01,5.01h-75.85c-2.77,0-5.01-2.25-5.01-5.01v-8.08h0Z" transform="translate(-253.31 264.65) rotate(-14.58)"/><path class="r" d="m947.46,1105.09l-83.1,21.52-21.76-89.15c-.73-3,1.09-6.02,4.07-6.79l69.03-17.66c2.96-.76,5.98.98,6.81,3.92l24.94,88.15Z"/><ellipse class="r" cx="857.23" cy="1040.45" rx="7.16" ry="6.12" transform="translate(-234.35 249.35) rotate(-14.58)"/><ellipse class="r" cx="861.36" cy="1055.76" rx="7.16" ry="6.12" transform="translate(-238.07 250.88) rotate(-14.58)"/><path class="r" d="m926.46,1065.22l-34.4,8.47c-2,.49-4.03-.71-4.55-2.71l-10.21-39.22c-.53-2.02.7-4.09,2.72-4.6l33.69-8.5c1.98-.5,4,.67,4.55,2.64l10.92,39.25c.57,2.05-.67,4.16-2.73,4.67Z"/><path class="t" d="m855.35,1090.53l14.24-6.78c4.02-2.26,5.83-7.09,4.29-11.43h0c-1.78-5.04-7.38-7.61-12.36-5.69l-14.52,6.97c-1.89.91-3.63,2.1-5.16,3.52h0c-4.74,4.43-7.12,10.83-6.43,17.28l.85,7.92,4.13,18.48,18.91-4.53"/><path class="t" d="m847.26,1088.45l17.36-8.34c4.99-1.93,10.58.65,12.36,5.69h0c1.54,4.35-.27,9.17-4.29,11.43l-14.24,6.78"/><path class="t" d="m853.82,1114.7l-11.9-10.35c-3.68-2.78-8.82-2.52-12.19.63h0c-3.91,3.65-4.04,9.8-.28,13.6l8.95,7.8c7.63,6.64,17.87,9.43,27.81,7.55h0s-4.27-17.13-4.27-17.13l13.63-6.72c4.02-2.26,5.83-7.09,4.29-11.43h0c-1.78-5.04-7.38-7.61-12.36-5.69l-17.36,8.34"/><path class="t" d="m944.34,1065.74l-15.74,1.02c-4.61-.02-8.54-3.35-9.31-7.89h0c-.9-5.27,2.73-10.24,8.02-10.99l16.07-.99c2.09-.13,4.19.06,6.22.57h0c6.3,1.56,13.23,4.49,15.77,10.46l6.92,16.29,3.85,9.43c2.58,6.31.88,13.56-4.23,18.07h0c-3.03,2.67-6.95,4.09-10.98,3.99l-14.35-.36"/><path class="t" d="m950.4,1059.98l-19.23,1.18c-5.29.75-8.92,5.72-8.02,10.99h0c.77,4.54,4.7,7.87,9.31,7.89l15.74-1.02"/><path class="t" d="m954.15,1072.61l-19.23,1.18c-5.29.75-8.92,5.72-8.02,10.99h0c.77,4.54,4.7,7.87,9.31,7.89l15.4-.76"/><path class="t" d="m946.68,1105.31l-6.98.55c-4.61-.02-8.54-3.35-9.31-7.89h0c-.9-5.27,2.73-10.24,8.02-10.99l19.23-1.18"/><rect class="t" x="897.58" y="1120.26" width="17.24" height="4.93" rx="2.46" ry="2.46" transform="translate(-253.48 264.33) rotate(-14.58)"/><path class="t" d="m587.46,1312.54c5.22,2.11,12.77,3.94,18.88,1.27,8.03-3.51,31.79-22.74,46.91-33.22,6.96-4.83,14.52,3.65,17.74,11.48l13.38,25.65-79.79,61.53-31.02-2.06,10.13,18.17-52.89,41.12-39.19-50.03"/><line class="t" x1="588.64" y1="1378.14" x2="678.97" y2="1307.99"/><rect class="q" x="383.12" y="1087.42" width="137" height="291.53" transform="translate(-663.62 539.67) rotate(-38.01)"/><path class="t" d="m310.77,1415.47c-.25-9.4-.65-17.48-1.6-21.21-1.61-6.33-7.56-11.08-12.34-13.85v-95.43l.44-25.89,44.49,2.88,16.9.06v65.65s-20.16,3.09-20.16,3.09l20.25,22.76.22,57.81c.06,15.47-12.43,28.06-27.9,28.11l-32.81.12-39.4.15-5.07-27.89c-2.22-8-1.47-19.1,6.82-19.55,8.92-.49,35.86-.65,46.56-.88"/><line class="h" x1="348.1" y1="1262.71" x2="348.49" y2="1328.69"/><path class="h" d="m348.3,1341.79l.02,63.35h0c-.06,13.2-10.75,23.89-23.95,23.94l-67.4.26"/><polygon class="o" points="326.87 1261.48 265.52 1360.79 29.24 1123.28 123.28 1044.55 326.87 1261.48"/><polyline class="o" points="34.82 1119.31 34.82 1375.47 164.85 1375.47 164.23 1178.53"/><path class="t" d="m-103.19,1173.73c1.68-5.38,2.88-13.05-.28-18.92-4.15-7.71-25.26-29.82-36.95-44.03-5.38-6.54,2.44-14.77,9.99-18.62l24.47-15.44,67.86,74.48.49,31.08,17.28-11.58,45.31,49.34-46.65,43.16"/><line class="t" x1="16.66" y1="1227.69" x2="-29.1" y2="1176.88"/><path class="q" d="m131.97,999.86l59.85,87.75c-33.14,41.57-75.88,62.07-129.03,62.34h-1.3c-24.63.13-47.98-10.95-63.46-30.11l-83.5-124.53"/><path class="q" d="m395.08,1021.93l99.37,123.46-95.84,54.45c-28.28,16.07-64.28,10.79-85.89-13.52"/><path class="t" d="m588.19,960.37c3.14-4.68,6.46-11.7,5.1-18.23-1.79-8.57-15.76-35.77-22.93-52.71-3.3-7.8,6.54-13.47,14.86-15.02l27.84-7.86,43.93,90.68-8.35,29.95,19.86-6.2,29.44,60.17-56.98,28.14"/><line class="t" x1="687.8" y1="1046.12" x2="658.34" y2="984.42"/><line class="t" x1="652.65" y1="972.62" x2="602.43" y2="869.86"/><polyline class="q" points="388.33 1047.31 584.01 949.76 644.54 1072.66 408.42 1194.35"/><path class="h" d="m735.45,917.05s15.73,126.56-75.15,191.1"/><path class="q" d="m74.06,1034.3l70.42,142.26,77.56-37.66-70.06-133.96c-18.02-30.08-45.22-53.57-77.61-67.02l-33.83-14.04-96.87,11.54"/><polygon class="t" points="274.05 1347 296.75 1370.95 296.83 1310.16 274.05 1347"/><path class="t" d="m178.16,1182.2l-4.08,16.75c-1.41,5.81-7.39,9.26-13.13,7.58h0c-4.34-1.27-7.38-5.18-7.54-9.71h0c-.26-7.56-1.56-15.48-3.6-22.77l4.4-2.26,63.5-30.84,11.33,26.63,3.38,5-16.18,18.39-17.06,3.24"/><path class="t" d="m215.5,1171.42l13.35,9.48c4.59,2.74,10.54,1.15,13.14-3.52h0c2.25-4.02,1.28-9.08-2.3-11.99l-8.59-7.88c-3.85-3.53-7.26-7.52-10.16-11.87l-3.09-4.71-8.1,3.95-53.75,26.04"/><path class="t" d="m207.28,1186.23l5.37,7.05c3.49,4.05,9.63,4.43,13.58.83h0c3.41-3.1,4.09-8.21,1.62-12.1l-11.56-16.58"/><path class="t" d="m193.5,1191.4l6.9,11.45c3.01,4.41,9.08,5.47,13.41,2.33h0c3.73-2.71,4.98-7.7,2.95-11.85l-12.26-21.79"/><path class="t" d="m171.07,1181.06l12.65,25.98c2.61,4.66,8.56,6.25,13.15,3.5h0c3.96-2.37,5.64-7.24,3.99-11.54l-10.12-22.29"/><polygon class="o" points="463.29 937.69 264.5 1064.3 226.68 994.08 421.66 863.09 463.29 937.69"/><path class="o" d="m244.76,951.41c-34.12,28.02-37.22,94.58-5.77,134.48l61.49,93.41c3.71,5.63,10.69,8.12,17.13,6.14,3.06-.94,6.48-2.16,9.89-3.72,12.83-5.86,37.03-16.15,61.66-46.87,12.75-15.91,13.87-28.37,13.87-28.37"/><polyline class="o" points="325.66 987.18 475.45 1044.99 445.81 1123.31 317.14 1074.03"/><path class="t" d="m462.94,915.98l-9.3,4.43-26.08-46.74c-.91-7.51-1.47-15.53-4.13-22.62h0c-1.59-4.24-.29-9.02,3.24-11.85h0c4.66-3.75,11.5-2.85,15.03,1.97l10.19,13.91"/><path class="t" d="m807.2,1148.19c-5.57-.85-12.99-3.14-16.88-8.55-5.11-7.11-15.72-35.78-23.37-52.52-3.52-7.71-14.35-4.28-21.11.81l-24.6,15.22,37.18,93.65,27.72,14.07-17.99,10.45,24.47,62.36,59.24-23"/><line class="t" x1="803.14" y1="1279.56" x2="777.54" y2="1216.16"/><line class="t" x1="772.69" y1="1203.99" x2="730.85" y2="1097.54"/><path class="o" d="m998.36,1437.62c47.37,0,85.72-38.48,85.56-85.85l-.79-225.23c-.16-47.28-47.78-79.64-91.8-62.37l-190.59,74.78,50.79,127.24,107.39-42.87v95.93c0,12.69-10.29,22.98-22.98,22.98h-143.76v95.38s206.17.02,206.17.02Z"/><path class="o" d="m856.13,1156.99h0c38.98,0,70.63,31.65,70.63,70.63v209.11h-141.26v-209.11c0-38.98,31.65-70.63,70.63-70.63Z"/><path class="t" d="m927.04,1437.51l-142.99-.17-7.6-43.23c-4.24-24.09,14.35-46.15,38.81-46.07l80.62.28c24.28.08,42.66,21.96,38.57,45.89l-7.4,43.3Z"/><line class="t" x1="958.93" y1="1223.31" x2="1034.11" y2="1193.86"/><path class="t" d="m485.68,1074.53l16.26-5.74c5.64-1.99,8.47-8.28,6.22-13.82h0c-1.7-4.19-5.9-6.82-10.41-6.52h0c-7.55.51-15.56.01-23.01-1.29l-1.81,4.6-25.19,66.01,24.39,12.1,14.59-11.33,13.06-13.83,4.61-21.89"/><path class="q" d="m498.95,1024.8h0c4.52,0,8.18,3.67,8.18,8.18v83.29h-16.36v-83.29c0-4.52,3.67-8.18,8.18-8.18Z" transform="translate(626.74 2244.69) rotate(-161.22)"/><path class="t" d="m537.99,1014.81c-.19-.03-.38-.05-.57-.07,1.03-1.68,1.75-3.58,2.04-5.66,1.16-8.09-4.46-15.58-12.55-16.74-7.77-1.11-14.99,4.04-16.57,11.62-2.25-2.55-5.38-4.35-9.01-4.87-8.09-1.16-15.58,4.46-16.74,12.55-1.16,8.09,4.46,15.58,12.55,16.74,1.01.14,2,.18,2.98.13-1.91,2.11-3.24,4.8-3.68,7.83-1.16,8.09,4.46,15.58,12.55,16.74,8.09,1.16,15.58-4.46,16.74-12.55.01-.1.02-.19.03-.29,2.14,2.01,4.9,3.41,8.03,3.86,8.09,1.16,15.58-4.46,16.74-12.55,1.16-8.09-4.46-15.58-12.55-16.74Z"/><ellipse class="o" cx="517.42" cy="1022.64" rx="8.83" ry="14.58" transform="translate(-625.63 1106.04) rotate(-67.34)"/><ellipse class="q" cx="526.25" cy="1064.03" rx="22.88" ry="6.88" transform="translate(-108.38 60.86) rotate(-6)"/><path class="t" d="m477.76,1113.2l10.77,12.33c3.19,4.29,2.2,10.37-2.18,13.43h0c-3.78,2.64-8.91,2.19-12.16-1.08l-8.7-7.75c-3.9-3.48-8.21-6.47-12.83-8.91l-5-2.6,3.12-8.46"/><path class="t" d="m471.95,1114.59l17.66,9.84c4.12,2.07,9.13.87,11.88-2.83h0c3.18-4.29,2.19-10.37-2.19-13.43l-7.56-4.64-10.43-6.52"/><path class="t" d="m476.86,1102.25l22.91,10c4.32,1.6,9.17-.15,11.49-4.13h0c2.69-4.62,1.03-10.55-3.67-13.1l-12.08-5.71-11.87-5.81"/><path class="t" d="m482.96,1068.03l27.12,9.97c4.9,2.13,7.08,7.89,4.81,12.73h0c-1.96,4.17-6.63,6.34-11.08,5.13l-23.2-7.82"/><ellipse class="o" cx="886.17" cy="913.82" rx="26.22" ry="12.13" transform="translate(-380 782.77) rotate(-39.97)"/><ellipse class="o" cx="894.44" cy="923.94" rx="20.08" ry="5.99" transform="translate(-59.09 61.12) rotate(-3.79)"/><ellipse class="o" cx="879.86" cy="905.4" rx="20.08" ry="5.99" transform="translate(-272.13 1421.96) rotate(-69.97)"/><path class="h" d="m926.64,886.44s59.2-50.7,92.31-29.47c41.59,26.67-35.63,95.56-48.87,47.76-13.25-47.8,231.47-141.65,346.56-38.33"/><path class="q" d="m646.76,1437.61c-7.29-73.44-29.59-80.74-29.59-80.74,0,0,28.04,7.05,37.55,68.43-3.38-67.11-20.92-100.15-20.92-100.15,0,0,27.96,15.73,30.84,86.61,2.99-70.52,30.37-83.36,30.37-83.36,0,0-16.61,31.25-20.34,96.58,9.61-60.75,32.15-63.49,32.15-63.49,0,0-16.95,2.62-24.23,76.1l-35.83.04Z"/><path class="q" d="m786.42,1334.05s-27.59,20.33-38.11,71.5c4.28-55.06,21.89-76.75,21.89-76.75,0,0-23.5,18.48-30.55,67.01,3.88-48.3-15.25-68.45-15.25-68.45,0,0,12.17,14.64,4.34,68.23-6.22-49.59-29.99-65.6-29.99-65.6,0,0,17.73,19.16,21,75.76-9.82-51.81-37.29-70.69-37.29-70.69,0,0,25.92,25.24,30.61,102.57l41.41-.06c5.57-77.27,31.93-103.52,31.93-103.52Z"/><path class="q" d="m1027.13,1426.75c19.71-122.32-11.61-181.43-11.61-181.43,0,0,20.37,51.17-.91,185.45l-.69,4.07"/><path class="q" d="m1003.05,1437.58c-5.95-135.22-36.18-178.93-36.18-178.93,0,0,42.52,47.81,47.62,171.08l.16,7.88"/><path class="q" d="m1011.18,1437.57l.05-3.27c1.86-135.58-25.67-184.06-25.67-184.06,0,0,39.55,55.12,37.53,178.67l-.2,8.62"/><path class="q" d="m1031.48,1437.58l.11-6.94c5.1-123.27,47.62-171.08,47.62-171.08,0,0-30.08,42.85-36.04,178.07"/><path class="q" d="m1034.62,1437.6c-1.86-135.58,25.73-186.67,25.73-186.67,0,0-39.55,55.12-37.53,178.67l.06,7.98"/><path class="q" d="m1035.17,1333.99s-27.59,20.33-38.11,71.5c4.28-55.06,21.89-76.75,21.89-76.75,0,0-23.5,18.48-30.55,67.01,3.88-48.3-15.25-68.45-15.25-68.45,0,0,12.17,14.64,4.34,68.23-6.22-49.59-29.99-65.6-29.99-65.6,0,0,17.73,19.16,21,75.76-9.82-51.81-37.29-70.69-37.29-70.69,0,0,25.92,25.24,30.61,102.57l41.41-.06c5.57-77.27,31.93-103.52,31.93-103.52Z"/><path class="q" d="m369.11,1437.4c-7.29-73.44-29.59-80.74-29.59-80.74,0,0,28.04,7.05,37.55,68.43-3.38-67.11-20.92-100.15-20.92-100.15,0,0,27.96,15.73,30.84,86.61,2.99-70.52,30.37-83.36,30.37-83.36,0,0-16.61,31.25-20.34,96.58,9.61-60.75,32.15-63.49,32.15-63.49,0,0-16.95,2.62-24.23,76.1l-35.83.04Z"/><path class="q" d="m448.55,1428.61c16.53-102.56-9.74-152.12-9.74-152.12,0,0,17.08,42.9-.77,155.5l-.57,3.41"/><path class="q" d="m428.37,1437.69c-4.99-113.38-30.33-150.03-30.33-150.03,0,0,35.65,40.09,39.93,143.45l.13,6.61"/><path class="q" d="m435.18,1437.68l.05-2.74c1.56-113.69-21.53-154.33-21.53-154.33,0,0,33.16,46.22,31.46,149.81l-.17,7.23"/><path class="q" d="m452.2,1437.68l.09-5.82c4.28-103.36,39.93-143.45,39.93-143.45,0,0-25.22,35.93-30.21,149.31"/><path class="q" d="m454.84,1437.71c-1.56-113.69,21.57-156.52,21.57-156.52,0,0-33.16,46.22-31.46,149.81l.05,6.69"/><path class="q" d="m162.9,1437.55c-7.29-73.44-29.59-80.74-29.59-80.74,0,0,28.04,7.05,37.55,68.43-3.38-67.11-20.92-100.15-20.92-100.15,0,0,27.96,15.73,30.84,86.61,2.99-70.52,30.37-83.36,30.37-83.36,0,0-16.61,31.25-20.34,96.58,9.61-60.75,32.15-63.49,32.15-63.49,0,0-16.95,2.62-24.23,76.1l-35.83.04Z"/><circle class="u" cx="5.25" cy="937.06" r="68.91"/><circle class="ab" cx="-2.4" cy="930.61" r="3.58"/><circle class="u" cx="237.88" cy="983.74" r="68.91"/><circle class="ab" cx="243.13" cy="993.45" r="3.58"/><circle class="ab" cx="283.19" cy="971.67" r="3.58"/><path class="u" d="m264.75,981.68l13.8,10.45c7.17,5.43,6.34,16.45-1.56,20.74l-6.07,3.3"/><rect class="r" x="448.08" y="831.39" width="52.57" height="85.54" rx="6.27" ry="6.27" transform="translate(-300.83 251.06) rotate(-22.72)"/><rect class="r" x="452.38" y="836.95" width="43.88" height="74.47" rx="5.34" ry="5.34" transform="translate(-300.85 251.05) rotate(-22.72)"/><circle class="r" cx="461.08" cy="845.18" r="2.24"/><path class="t" d="m503.02,878.09l-.59,12.61c.3,4.6,3.85,8.32,8.44,8.82h0c5.31.58,10.06-3.34,10.49-8.67l.16-2.83c.35-6.3-1.07-12.57-4.11-18.1l-.3-.55"/><path class="t" d="m498.41,866l-.59,12.61c.3,4.6,3.85,8.32,8.44,8.82h0c5.31.58,10.06-3.34,10.49-8.67l.36-6.51c.22-3.88-.76-7.73-2.79-11.03l-1.49-2.42"/><path class="t" d="m494.17,855.39l-.59,12.61c.3,4.6,3.85,8.32,8.44,8.82h0c5.31.58,10.06-3.34,10.49-8.67l.33-5.9c.24-4.24-1.01-8.43-3.54-11.85l-.88-1.2"/><path class="t" d="m489.39,841.38l-.42,14.52c.3,4.6,3.85,8.32,8.44,8.82h0c5.31.58,10.06-3.34,10.49-8.67l.44-7.89c.17-2.98-.55-5.94-2.07-8.52h0c-2.64-4.49-7.41-7.31-12.62-7.45l-8.09-.44"/></g></g><rect class="af" x=".04" y="-4.19" width="4327.15" height="1349.92"/><path class="y" d="m1093.98,140.47l-59.07,6.97c-9.95,1.24-16.91,10.44-15.39,20.35h0c1.31,8.54,8.57,14.91,17.21,15.09l21.78,1.76c9.77.79,19.4,2.76,28.7,5.85l10.6,4.21,35.12-49.41,9.09-40.78"/><path class="y" d="m1090.63,129.01l-57.73-14.29c-9.74-2.35-19.5,3.81-21.57,13.62h0c-1.79,8.46,2.77,16.97,10.79,20.19l35.76,12.56"/><path class="y" d="m1083.95,100.19l-43.39-15.36c-9.55-3.06-19.73,2.37-22.52,12h0c-2.4,8.3,1.51,17.13,9.28,20.93l28.54,13.95"/><path class="y" d="m1063.37,105.36l-27.68-25.33c-6.38-5.83-7.64-15.41-2.99-22.7h0c5.39-8.45,16.7-10.78,24.99-5.15l80.76,49.18,17.65,43.92-42.98,39.95"/><path class="y" d="m1093.19,156.54l-27.54-16.92c-9.55-5.87-12.27-18.52-5.97-27.79h0c4.77-7.02,13.5-10.19,21.66-7.85l20.54,5.87"/><path class="v" d="m474.43,88.29h0c8.47,0,15.34,6.87,15.34,15.34v156.17h-30.68V103.62c0-8.47,6.87-15.34,15.34-15.34Z" transform="translate(961.14 310.02) rotate(175.46)"/><path class="v" d="m607.29,103.7h0c9.92,0,17.97,8.05,17.97,17.97v182.93h-35.93V121.67c0-9.92,8.05-17.97,17.97-17.97Z" transform="translate(1186.41 478.19) rotate(-173.26)"/><path class="v" d="m475.14,276.9h0c7.55-3.84,10.55-13.08,6.71-20.63l-57.5-112.68c-14.93-29.25-49.61-42.39-80.17-30.37l-61.81,24.31c-8.75,3.44-12.26,13.95-7.34,21.95h0c3.81,6.19,11.48,8.8,18.27,6.19l64.79-24.85c14.53-5.57,30.92.73,37.99,14.59l58.44,114.77c3.84,7.55,13.08,10.55,20.63,6.71Z"/><polygon class="v" points="1214.67 399.62 1094.94 308.08 799.73 607.69 909.09 717.04 1214.67 399.62"/><path class="y" d="m480.44,502.67c-5.3-9.13-14.39-20.51-26.51-23.59-15.92-4.03-73.23-2.87-107.67-4.73-15.86-.85-17.32-22.09-13.08-37.4l9.67-53.37,188.93.58,43.58,38.71,5.88-38.56,125.61-.11.54,119.15"/><line class="y" x1="706.87" y1="405.4" x2="578.67" y2="404.27"/><line class="y" x1="554.11" y1="404.15" x2="339.65" y2="404.23"/><path class="y" d="m1165.29,604.49c1.33-10.48,1.02-25.04-6.75-34.84-10.2-12.87-56.44-46.74-82.68-69.13-12.09-10.31-.35-28.07,12.32-37.65l40.09-36.54,149.76,115.17,11.12,57.22,28.09-27.07,99.86,76.18-71.92,95"/><path class="y" d="m694.3,1129.28h0c-23.56,34.56-62.8,55.09-104.62,54.74l-44.67-.38-84.82-120.37V500.36h254.64l1.24,558.07c.05,25.27-7.54,49.97-21.77,70.85Z"/><path class="w" d="m594.04,1183.57l-329.23,1.53c-22.65.1-41.06-18.23-41.05-40.88l.04-67.66-3.38-98.49,193.24-24.21c29.93-2.18,59.7,6,84.31,23.17h0c4.04,2.82,7.97,5.78,11.8,8.89l9.45,7.68c19.53,15.88,35.9,35.31,48.24,57.25h0c.83,1.48,1.65,2.97,2.44,4.47,13.24,25,20.34,52.79,21.76,81.03l2.38,47.22Z"/><polygon class="w" points="1149.37 593.39 1354.01 748.66 1022.21 1179.33 818.96 1028.83 1149.37 593.39"/><path class="w" d="m1315.89,676.61l174.23,188.75-297.49,242.76c-61.24,49.98-137.93,77.16-216.97,76.92l-27.45-.08c-101.45-.18-192.96-60.99-232.42-154.45h0s236.37-59.38,236.37-59.38l363.73-294.52Z"/><path class="v" d="m954.81,669.45l33.28,195.14c7.32,41.67-7.65,84.14-39.47,112.02h0c-40.43,35.42-92.23,55.13-145.98,55.55l-86.58.68-.06-345.79c-.01-55.88,46.2-100.7,102.05-98.98l37.33,1.15"/><path class="v" d="m679.27,383.25c.22-9.07-.83-18.12-3.13-26.89h0c-2.18-8.31-1.71-17.09,1.33-25.12l.27-.72c3.69-9.73,3.57-20.5-.33-30.15h0c-3.01-7.45-3.79-15.61-2.24-23.49h0c2.57-13.06,3.87-26.34,3.87-39.66l-.08-8.54c-.05-5.38-4.42-9.72-9.8-9.72h-279.49c-5.41,0-9.8,4.39-9.8,9.8h0c0,13.31,1.3,26.59,3.87,39.66h0c1.55,7.88.78,16.04-2.24,23.49h0c-3.9,9.65-4.02,20.41-.33,30.15l.27.72c3.04,8.03,3.51,16.81,1.33,25.12h0c-2.3,8.77-3.35,17.82-3.13,26.89l.23,9.2h299.01"/><path class="m" d="m396.41,278.33s153.63,18.26,266.97-1.89"/><path class="m" d="m397.82,329.57s153.63,18.26,266.97-1.89"/><path class="y" d="m325.77,598.74l-16.26-107.13c-.95-11.23-9.77-20.19-20.99-21.31h0c-13.5-1.35-25.32,9.03-25.71,22.6l-2.67,69.47-21.48,2.27-7.87-18.77c-5.16-12.49-19.25-18.69-31.95-14.07h0c-11.28,4.11-18.09,15.6-16.3,27.47l11.49,68.01"/><path class="ad" d="m171.92,399.37c-39.9-28.07-41.79-27.8-72.51,10.09,28.07-39.9,27.8-41.79-10.09-72.51,39.9,28.07,41.79,27.8,72.51-10.09-28.07,39.9-27.8,41.79,10.09,72.51Z"/><path class="m" d="m171.92,399.37c-39.9-28.07-41.79-27.8-72.51,10.09,28.07-39.9,27.8-41.79-10.09-72.51,39.9,28.07,41.79,27.8,72.51-10.09-28.07,39.9-27.8,41.79,10.09,72.51Z"/><path class="z" d="m137.28,430.48c-5.54,0-10.03,4.49-10.03,10.03v9.47c0,5.54,4.49,10.03,10.03,10.03h96.11v96.11c0,5.54,4.49,10.03,10.03,10.03h9.47c5.54,0,10.03-4.49,10.03-10.03v-116.25c0-5.19-4.21-9.4-9.4-9.4h-116.25Z"/><rect class="z" x="133.23" y="419.42" width="35.5" height="11.15" rx="5.58" ry="5.58"/><rect class="z" x="169.75" y="419.42" width="35.5" height="11.15" rx="5.58" ry="5.58"/><circle class="x" cx="156.46" cy="1055.54" r="129.21"/><circle class="ac" cx="142.35" cy="1043.16" r="6.72"/><circle class="ac" cx="101.69" cy="967.95" r="6.72"/><path class="x" d="m120.38,1002.56l19.67-25.82c10.21-13.41,30.87-11.8,38.88,3.02l6.16,11.4"/><polyline class="w" points="414.05 954.37 334.09 597.47 174.59 633.13 274.94 1100.46"/><rect class="v" x="-4.42" y="1185.3" width="4326.76" height="167.27"/><path class="v" d="m828.63,1175.63c36.64-114.96-21.59-170.52-21.59-170.52,0,0,37.86,48.09-1.7,174.3l-1.27,3.82"/><path class="v" d="m783.88,1185.81c-11.06-127.09-67.24-168.17-67.24-168.17,0,0,79.03,44.94,88.51,160.79l.29,7.41"/><path class="v" d="m798.97,1185.8l.1-3.08c3.46-127.43-47.72-172.99-47.72-172.99,0,0,73.51,51.81,69.75,167.92l-.37,8.1"/><path class="v" d="m836.71,1185.81l.2-6.52c9.48-115.85,88.51-160.79,88.51-160.79,0,0-55.92,40.27-66.98,167.36"/><path class="v" d="m842.55,1185.83c-3.46-127.43,47.82-175.45,47.82-175.45,0,0-73.51,51.81-69.75,167.92l.11,7.5"/><line class="v" x1="858.44" y1="1185.85" x2="783.82" y2="1185.84"/><path class="v" d="m227.33,1187.01c-13.68-137.69-55.48-151.39-55.48-151.39,0,0,52.58,13.22,70.4,128.3-6.33-125.83-39.22-187.79-39.22-187.79,0,0,52.42,29.5,57.82,162.38,5.61-132.22,56.95-156.3,56.95-156.3,0,0-31.15,58.59-38.14,181.08,18.02-113.91,60.27-119.04,60.27-119.04,0,0-31.79,4.92-45.42,142.69l-67.18.07Z"/><circle class="x" cx="843.97" cy="496" r="129.21"/><circle class="ac" cx="858.14" cy="477.83" r="6.72"/><circle class="ac" cx="929.25" cy="430.35" r="6.72"/><path class="x" d="m896.53,452.18l27.54,17.18c14.3,8.92,14.62,29.63.6,39l-10.78,7.2"/><ellipse class="v" cx="859.27" cy="209.42" rx="42.91" ry="12.89" transform="translate(-22.61 276.37) rotate(-18.04)"/><path class="v" d="m811.76,146.26h0c8.47,0,15.34,6.87,15.34,15.34v156.17h-30.68v-156.17c0-8.47,6.87-15.34,15.34-15.34Z" transform="translate(1590.66 557.73) rotate(-173.26)"/><path class="y" d="m338.73,134.46c-.55.04-1.09.1-1.63.15,1.9-5.35,2.77-11.17,2.36-17.19-1.6-23.52-21.97-41.29-45.49-39.69-22.6,1.54-39.89,20.41-39.78,42.76-7.88-5.86-17.79-9.05-28.35-8.33-23.52,1.6-41.29,21.97-39.69,45.49,1.6,23.52,21.97,41.29,45.49,39.69,2.92-.2,5.76-.69,8.47-1.44-4.13,7.11-6.26,15.49-5.66,24.32,1.6,23.52,21.97,41.29,45.49,39.69,23.52-1.6,41.29-21.97,39.69-45.49-.02-.28-.05-.56-.08-.83,7.25,4.39,15.87,6.68,24.98,6.06,23.52-1.6,41.29-21.97,39.69-45.49-1.6-23.52-21.97-41.29-45.49-39.69Z"/><circle class="w" cx="285.46" cy="166.05" r="36.44"/><ellipse class="w" cx="623.25" cy="89.07" rx="30.83" ry="50.89" transform="translate(239.05 587.83) rotate(-60.53)"/><ellipse class="y" cx="656.21" cy="147.29" rx="10.65" ry="23.58" transform="translate(-2.52 282.87) rotate(-24.28)"/><ellipse class="y" cx="678.32" cy="138.31" rx="10.65" ry="23.58" transform="translate(65.38 460.1) rotate(-39.22)"/><ellipse class="y" cx="692.24" cy="115.23" rx="10.65" ry="23.58" transform="translate(393.3 750.14) rotate(-74.24)"/><ellipse class="y" cx="601.32" cy="27.9" rx="10.65" ry="23.58" transform="translate(-.32 47.67) rotate(-4.54)"/><ellipse class="y" cx="623.61" cy="31.21" rx="23.58" ry="10.65" transform="translate(539.37 649.89) rotate(-85.11)"/><ellipse class="y" cx="645.42" cy="38.58" rx="23.58" ry="10.65" transform="translate(377.04 626.83) rotate(-68.9)"/><ellipse class="y" cx="664.41" cy="50.84" rx="23.58" ry="10.65" transform="translate(226.14 552.78) rotate(-53.25)"/><ellipse class="y" cx="680.16" cy="67.79" rx="23.58" ry="10.65" transform="translate(75 385.6) rotate(-33.4)"/><ellipse class="y" cx="691.38" cy="89.69" rx="23.58" ry="10.65" transform="translate(-4.81 126.72) rotate(-10.44)"/><ellipse class="y" cx="632.16" cy="149.12" rx="10.65" ry="23.58" transform="translate(-9.82 50.49) rotate(-4.54)"/><ellipse class="y" cx="609.91" cy="142.57" rx="23.58" ry="10.65" transform="translate(391.48 729.6) rotate(-82.75)"/><ellipse class="y" cx="589.2" cy="132.62" rx="23.58" ry="10.65" transform="translate(238.87 624.58) rotate(-67.23)"/><ellipse class="y" cx="579.21" cy="33.96" rx="10.65" ry="23.58" transform="translate(20.19 189.32) rotate(-18.89)"/><ellipse class="y" cx="559.78" cy="50.23" rx="10.65" ry="23.58" transform="translate(184.31 468.44) rotate(-53.21)"/><ellipse class="y" cx="552.71" cy="75.75" rx="23.58" ry="10.65" transform="translate(-4.37 45.92) rotate(-4.74)"/><ellipse class="y" cx="558.19" cy="98.52" rx="23.58" ry="10.65" transform="translate(3.83 216.69) rotate(-22.04)"/><ellipse class="y" cx="571.11" cy="116.71" rx="23.58" ry="10.65" transform="translate(59.6 396.25) rotate(-40.21)"/><path class="w" d="m511.12,123.44h0c12.24-.9,22.23,9.62,20.71,21.8l-3.07,24.52c-.64,5.07-6.57,7.5-10.58,4.33h0c-2.6-2.06-6.33-1.84-8.69.5l-.16.16c-3.72,3.7-10.07,1.74-11.07-3.41l-4.8-24.83c-2.21-11.42,6.05-22.21,17.65-23.06Z"/><path class="w" d="m563.37,140.26h0c10.31,6.64,11.97,21.07,3.42,29.87l-17.21,17.73c-3.56,3.67-9.76,2.04-11.05-2.9h0c-.84-3.21-3.95-5.28-7.24-4.83l-.22.03c-5.2.71-9.09-4.67-6.78-9.38l11.11-22.71c5.11-10.45,18.2-14.09,27.98-7.8Z"/><path class="w" d="m592.46,185.89h0c2.97,11.9-5.7,23.55-17.95,24.12l-24.68,1.15c-5.1.24-8.51-5.19-6.07-9.68h0c1.58-2.92.74-6.56-1.97-8.48l-.18-.13c-4.28-3.04-3.43-9.63,1.48-11.49l23.65-8.95c10.88-4.12,22.91,2.18,25.73,13.47Z"/><path class="w" d="m581.57,240.39h0c-5.52,10.96-19.69,14.12-29.34,6.55l-19.44-15.25c-4.02-3.15-3.05-9.49,1.72-11.3h0c3.1-1.18,4.84-4.48,4.04-7.71l-.05-.22c-1.26-5.1,3.68-9.53,8.62-7.74l23.76,8.66c10.93,3.98,15.93,16.61,10.7,27Z"/><path class="w" d="m459.52,149.61h0c-8.59,8.76-7,23.19,3.28,29.88l20.71,13.48c4.28,2.79,9.97-.17,10.14-5.28h0c.11-3.32,2.68-6.03,5.99-6.32l.23-.02c5.23-.46,7.83-6.57,4.54-10.65l-15.87-19.69c-7.3-9.06-20.87-9.71-29.01-1.4Z"/><path class="w" d="m442.5,204.47h0c.43,12.26,11.98,21.06,23.91,18.22l24.04-5.71c4.97-1.18,6.74-7.34,3.16-10.98h0c-2.33-2.37-2.52-6.1-.45-8.69l.14-.18c3.27-4.1.64-10.2-4.59-10.63l-25.2-2.07c-11.59-.95-21.42,8.42-21.01,20.05Z"/><path class="w" d="m465.33,254.4h0c8.29,9.05,22.78,8.24,30.02-1.67l14.57-19.95c3.01-4.13.36-9.96-4.73-10.41h0c-3.31-.29-5.88-3-5.99-6.32v-.23c-.18-5.25-6.14-8.17-10.4-5.1l-20.51,14.79c-9.44,6.8-10.82,20.31-2.96,28.89Z"/><path class="w" d="m524.4,273.59h0c-12.2,1.32-22.55-8.85-21.45-21.07l2.23-24.61c.46-5.09,6.3-7.72,10.42-4.7h0c2.67,1.97,6.39,1.62,8.67-.79l.16-.17c3.6-3.83,10-2.09,11.18,3.03l5.65,24.65c2.6,11.34-5.28,22.4-16.85,23.66Z"/><circle class="y" cx="516.95" cy="201.79" r="29.35"/><ellipse class="v" cx="458.07" cy="70.61" rx="36.17" ry="57.5" transform="translate(.32 143.28) rotate(-17.78)"/><path class="v" d="m470.54,126.37c-.37-71.86-42.08-101.84-42.08-101.84"/><path class="v" d="m473.17,27.44s-13.68,12.94-2.13,97.46"/><path class="w" d="m861.55,114.57c-.36.02-.71.06-1.06.1,1.24-3.48,1.8-7.26,1.53-11.17-1.04-15.29-14.28-26.83-29.56-25.79-14.69,1-25.92,13.26-25.85,27.78-5.12-3.81-11.56-5.88-18.42-5.41-15.29,1.04-26.83,14.28-25.79,29.56s14.28,26.83,29.56,25.79c1.9-.13,3.74-.45,5.51-.93-2.69,4.62-4.07,10.07-3.68,15.8,1.04,15.29,14.28,26.83,29.56,25.79,15.29-1.04,26.83-14.28,25.79-29.56-.01-.18-.03-.36-.05-.54,4.71,2.85,10.32,4.34,16.23,3.94,15.29-1.04,26.83-14.28,25.79-29.56-1.04-15.29-14.28-26.83-29.56-25.79Z"/><ellipse class="y" cx="826.89" cy="136.97" rx="16.56" ry="27.34" transform="translate(539.75 924.4) rotate(-79.37)"/><path class="y" d="m788.72,251.29l8.89-5.48c10.52-6.48,13.54-20.42,6.63-30.67h0c-6.7-9.95-20.2-12.6-30.16-5.92l-18.71,14.22c-15.34,11.66-24.04,30.05-23.32,49.31l2.4,64.01,54.32-1.53"/><path class="y" d="m820.15,292.5l-17.19-14.8c-10.37-8.93-10.8-24.86-.92-34.34h0c7.7-7.38,19.43-8.57,28.45-2.88l17,10.73c10.7,6.35,17.56,17.59,18.32,30.01l2.95,48.12-134.75,5.46"/><path class="y" d="m783.23,267.17l8.89-5.48c10.52-6.48,13.54-20.42,6.63-30.67h0c-6.7-9.95-20.2-12.6-30.16-5.92l-18.43,14.7"/><path class="y" d="m782.05,282.48l8.89-5.48c10.52-6.48,13.54-20.42,6.63-30.67h0c-6.7-9.95-20.2-12.6-30.16-5.92l-18.88,14.7"/><path class="y" d="m788.4,297.86l8.89-5.48c10.52-6.48,13.54-20.42,6.63-30.67h0c-6.7-9.95-20.2-12.6-30.16-5.92l-28.04,20.48"/><polyline class="v" points="894.67 709.65 883.11 324.23 716.77 331.97 715.68 683.84"/><path class="v" d="m788.46,298.61l-.3,2.5c-.99,8.41,5.02,16.04,13.43,17.03h0c8.41.99,16.04-5.02,17.03-13.43l1.42-12.14"/><g class="k"><g class="i"><rect class="ag" x="-806.67" y="42.89" width="2674.62" height="719.96"/><polygon class="n" points="-27.73 262.08 -226.96 161.81 -194.3 91.02 7.59 186.16 -27.73 262.08"/><circle class="u" cx="940.84" cy="558.76" r="68.91"/><path class="t" d="m870.17,313.6l-9.05-14.67c-3.14-5.09-9.89-6.52-14.83-3.15h0c-3.74,2.55-5.42,7.21-4.17,11.56h0c2.09,7.27,3.3,15.2,3.61,22.76l4.88.79"/><path class="t" d="m928.13,297l.76-17.22c.26-5.97,5.46-10.52,11.41-9.98h0c4.51.4,8.25,3.66,9.27,8.06h0c1.72,7.37,4.52,14.89,7.94,21.64l-3.88,3.07"/><path class="t" d="m870.22,355.22h85.87v8.08c0,2.77-2.25,5.01-5.01,5.01h-75.85c-2.77,0-5.01-2.25-5.01-5.01v-8.08h0Z" transform="translate(-61.67 241.57) rotate(-14.58)"/><path class="p" d="m953.08,344.67l-83.1,21.52-21.76-89.15c-.73-3,1.09-6.02,4.07-6.79l69.03-17.66c2.96-.76,5.98.98,6.81,3.92l24.94,88.15Z"/><ellipse class="p" cx="862.85" cy="280.03" rx="7.16" ry="6.12" transform="translate(-42.71 226.27) rotate(-14.58)"/><ellipse class="p" cx="866.98" cy="295.34" rx="7.16" ry="6.12" transform="translate(-46.43 227.8) rotate(-14.58)"/><path class="p" d="m932.08,304.8l-34.4,8.47c-2,.49-4.03-.71-4.55-2.71l-10.21-39.22c-.53-2.02.7-4.09,2.72-4.6l33.69-8.5c1.98-.5,4,.67,4.55,2.64l10.92,39.25c.57,2.05-.67,4.16-2.73,4.67Z"/><path class="t" d="m860.97,330.1l14.24-6.78c4.02-2.26,5.83-7.09,4.29-11.43h0c-1.78-5.04-7.38-7.61-12.36-5.69l-14.52,6.97c-1.89.91-3.63,2.1-5.16,3.52h0c-4.74,4.43-7.12,10.83-6.43,17.28l.85,7.92,4.13,18.48,18.91-4.53"/><path class="t" d="m852.88,328.03l17.36-8.34c4.99-1.93,10.58.65,12.36,5.69h0c1.54,4.35-.27,9.17-4.29,11.43l-14.24,6.78"/><path class="t" d="m859.44,354.28l-11.9-10.35c-3.68-2.78-8.82-2.52-12.19.63h0c-3.91,3.65-4.04,9.8-.28,13.6l8.95,7.8c7.63,6.64,17.87,9.43,27.81,7.55h0s-4.27-17.13-4.27-17.13l13.63-6.72c4.02-2.26,5.83-7.09,4.29-11.43h0c-1.78-5.04-7.38-7.61-12.36-5.69l-17.36,8.34"/><path class="t" d="m949.96,305.32l-15.74,1.02c-4.61-.02-8.54-3.35-9.31-7.89h0c-.9-5.27,2.73-10.24,8.02-10.99l16.07-.99c2.09-.13,4.19.06,6.22.57h0c6.3,1.56,13.23,4.49,15.77,10.46l6.92,16.29,3.85,9.43c2.58,6.31.88,13.56-4.23,18.07h0c-3.03,2.67-6.95,4.09-10.98,3.99l-14.35-.36"/><path class="t" d="m956.01,299.56l-19.23,1.18c-5.29.75-8.92,5.72-8.02,10.99h0c.77,4.54,4.7,7.87,9.31,7.89l15.74-1.02"/><path class="t" d="m959.77,312.19l-19.23,1.18c-5.29.75-8.92,5.72-8.02,10.99h0c.77,4.54,4.7,7.87,9.31,7.89l15.4-.76"/><path class="t" d="m952.3,344.89l-6.98.55c-4.61-.02-8.54-3.35-9.31-7.89h0c-.9-5.27,2.73-10.24,8.02-10.99l19.23-1.18"/><rect class="t" x="903.19" y="359.83" width="17.24" height="4.93" rx="2.46" ry="2.46" transform="translate(-61.84 241.25) rotate(-14.58)"/><path class="t" d="m593.08,552.12c5.22,2.11,12.77,3.94,18.88,1.27,8.03-3.51,31.79-22.74,46.91-33.22,6.96-4.83,14.52,3.65,17.74,11.48l13.38,25.65-79.79,61.53-31.02-2.06,10.13,18.17-52.89,41.12-39.19-50.03"/><line class="t" x1="529.48" y1="667.15" x2="583.87" y2="625.7"/><line class="t" x1="594.26" y1="617.72" x2="684.59" y2="547.56"/><rect class="n" x="388.74" y="327" width="137" height="291.53" transform="translate(-194.15 381.85) rotate(-38.01)"/><path class="t" d="m316.38,655.05c-.25-9.4-.65-17.48-1.6-21.21-1.61-6.33-7.56-11.08-12.34-13.85v-95.43l.44-25.89,44.49,2.88,16.9.06v65.65s-20.16,3.09-20.16,3.09l20.25,22.76.22,57.81c.06,15.47-12.43,28.06-27.9,28.11l-32.81.12-39.4.15-5.07-27.89c-2.22-8-1.47-19.1,6.82-19.55,8.92-.49,35.86-.65,46.56-.88"/><line class="h" x1="353.72" y1="502.29" x2="354.1" y2="568.27"/><path class="h" d="m353.92,581.37l.02,63.35h0c-.06,13.2-10.75,23.89-23.95,23.94l-67.4.26"/><polygon class="s" points="332.49 501.06 271.13 600.37 34.86 362.86 128.9 284.13 332.49 501.06"/><path class="t" d="m47.9,614.27c-2.82,4.88-7.65,10.96-14.11,12.61-8.49,2.17-39.05,1.61-57.42,2.64-8.46.47-9.21,11.8-6.93,19.96l5.21,28.45,100.76-.52,23.2-20.69,3.18,20.56,66.99-.08.16-63.55"/><line class="t" x1="168.77" y1="665.9" x2="100.39" y2="666.64"/><line class="t" x1="87.3" y1="666.73" x2="-27.08" y2="666.93"/><polyline class="s" points="40.44 358.89 40.44 615.05 170.47 615.05 169.85 418.1"/><path class="t" d="m-97.57,413.3c1.68-5.38,2.88-13.05-.28-18.92-4.15-7.71-25.26-29.82-36.95-44.03-5.38-6.54,2.44-14.77,9.99-18.62l24.47-15.44,67.86,74.48.49,31.08,17.28-11.58,45.31,49.34-46.65,43.16"/><line class="t" x1="22.28" y1="467.26" x2="-23.48" y2="416.45"/><path class="n" d="m137.59,239.44l59.85,87.75c-33.14,41.57-75.88,62.07-129.03,62.34h-1.3c-24.63.13-47.98-10.95-63.46-30.11l-83.5-124.53"/><path class="n" d="m400.7,261.51l99.37,123.46-95.84,54.45c-28.28,16.07-64.28,10.79-85.89-13.52"/><path class="t" d="m593.81,199.94c3.14-4.68,6.46-11.7,5.1-18.23-1.79-8.57-15.76-35.77-22.93-52.71-3.3-7.8,6.54-13.47,14.86-15.02l27.84-7.86,43.93,90.68-8.35,29.95,19.86-6.2,29.44,60.17-56.98,28.14"/><line class="t" x1="693.42" y1="285.7" x2="663.96" y2="223.99"/><line class="t" x1="658.27" y1="212.19" x2="608.04" y2="109.43"/><polyline class="n" points="393.94 286.89 589.63 189.33 650.16 312.23 414.04 433.93"/><path class="h" d="m741.06,156.63s15.73,126.56-75.15,191.1"/><path class="n" d="m79.68,273.88l70.42,142.26,77.56-37.66-70.06-133.96c-18.02-30.08-45.22-53.57-77.61-67.02l-33.83-14.04-96.87,11.54"/><polygon class="t" points="279.67 586.58 302.36 610.52 302.45 549.74 279.67 586.58"/><path class="t" d="m183.77,421.78l-4.08,16.75c-1.41,5.81-7.39,9.26-13.13,7.58h0c-4.34-1.27-7.38-5.18-7.54-9.71h0c-.26-7.56-1.56-15.48-3.6-22.77l4.4-2.26,63.5-30.84,11.33,26.63,3.38,5-16.18,18.39-17.06,3.24"/><path class="t" d="m221.12,411l13.35,9.48c4.59,2.74,10.54,1.15,13.14-3.52h0c2.25-4.02,1.28-9.08-2.3-11.99l-8.59-7.88c-3.85-3.53-7.26-7.52-10.16-11.87l-3.09-4.71-8.1,3.95-53.75,26.04"/><path class="t" d="m212.89,425.8l5.37,7.05c3.49,4.05,9.63,4.43,13.58.83h0c3.41-3.1,4.09-8.21,1.62-12.1l-11.56-16.58"/><path class="t" d="m199.12,430.98l6.9,11.45c3.01,4.41,9.08,5.47,13.41,2.33h0c3.73-2.71,4.98-7.7,2.95-11.85l-12.26-21.79"/><path class="t" d="m176.69,420.63l12.65,25.98c2.61,4.66,8.56,6.25,13.15,3.5h0c3.96-2.37,5.64-7.24,3.99-11.54l-10.12-22.29"/><polygon class="s" points="468.91 177.27 270.12 303.88 232.29 233.66 427.28 102.67 468.91 177.27"/><path class="s" d="m250.38,190.98c-34.12,28.02-37.22,94.58-5.77,134.48l61.49,93.41c3.71,5.63,10.69,8.12,17.13,6.14,3.06-.94,6.48-2.16,9.89-3.72,12.83-5.86,37.03-16.15,61.66-46.87,12.75-15.91,13.87-28.37,13.87-28.37"/><polyline class="s" points="331.28 226.76 481.06 284.57 451.42 362.88 322.76 313.61"/><path class="t" d="m468.56,155.56l-9.3,4.43-26.08-46.74c-.91-7.51-1.47-15.53-4.13-22.62h0c-1.59-4.24-.29-9.02,3.24-11.85h0c4.66-3.75,11.5-2.85,15.03,1.97l10.19,13.91"/><path class="t" d="m812.82,387.77c-5.57-.85-12.99-3.14-16.88-8.55-5.11-7.11-15.72-35.78-23.37-52.52-3.52-7.71-14.35-4.28-21.11.81l-24.6,15.22,37.18,93.65,27.72,14.07-17.99,10.45,24.47,62.36,59.24-23"/><line class="t" x1="808.75" y1="519.14" x2="783.16" y2="455.73"/><line class="t" x1="778.3" y1="443.57" x2="736.47" y2="337.12"/><path class="s" d="m1003.98,677.2c47.37,0,85.72-38.48,85.56-85.85l-.79-225.23c-.16-47.28-47.78-79.64-91.8-62.37l-190.59,74.78,50.79,127.24,107.39-42.87v95.93c0,12.69-10.29,22.98-22.98,22.98h-143.76v95.38s206.17.02,206.17.02Z"/><path class="s" d="m861.75,396.57h0c38.98,0,70.63,31.65,70.63,70.63v209.11h-141.26v-209.11c0-38.98,31.65-70.63,70.63-70.63Z"/><path class="t" d="m932.65,677.09l-142.99-.17-7.6-43.23c-4.24-24.09,14.35-46.15,38.81-46.07l80.62.28c24.28.08,42.66,21.96,38.57,45.89l-7.4,43.3Z"/><line class="t" x1="787.29" y1="660.7" x2="934.57" y2="660.7"/><line class="t" x1="964.55" y1="462.89" x2="1039.73" y2="433.43"/><path class="t" d="m491.3,314.11l16.26-5.74c5.64-1.99,8.47-8.28,6.22-13.82h0c-1.7-4.19-5.9-6.82-10.41-6.52h0c-7.55.51-15.56.01-23.01-1.29l-1.81,4.6-25.19,66.01,24.39,12.1,14.59-11.33,13.06-13.83,4.61-21.89"/><path class="n" d="m504.57,264.37h0c4.52,0,8.18,3.67,8.18,8.18v83.29h-16.36v-83.29c0-4.52,3.67-8.18,8.18-8.18Z" transform="translate(882.46 766.13) rotate(-161.22)"/><path class="t" d="m543.6,254.39c-.19-.03-.38-.05-.57-.07,1.03-1.68,1.75-3.58,2.04-5.66,1.16-8.09-4.46-15.58-12.55-16.74-7.77-1.11-14.99,4.04-16.57,11.62-2.25-2.55-5.38-4.35-9.01-4.87-8.09-1.16-15.58,4.46-16.74,12.55-1.16,8.09,4.46,15.58,12.55,16.74,1.01.14,2,.18,2.98.13-1.91,2.11-3.24,4.8-3.68,7.83-1.16,8.09,4.46,15.58,12.55,16.74,8.09,1.16,15.58-4.46,16.74-12.55.01-.1.02-.19.03-.29,2.14,2.01,4.9,3.41,8.03,3.86,8.09,1.16,15.58-4.46,16.74-12.55,1.16-8.09-4.46-15.58-12.55-16.74Z"/><ellipse class="s" cx="523.03" cy="262.21" rx="8.83" ry="14.58" transform="translate(79.53 643.82) rotate(-67.34)"/><ellipse class="n" cx="531.87" cy="303.61" rx="22.88" ry="6.88" transform="translate(-28.83 57.28) rotate(-6)"/><path class="t" d="m483.38,352.78l10.77,12.33c3.19,4.29,2.2,10.37-2.18,13.43h0c-3.78,2.64-8.91,2.19-12.16-1.08l-8.7-7.75c-3.9-3.48-8.21-6.47-12.83-8.91l-5-2.6,3.12-8.46"/><path class="t" d="m477.57,354.17l17.66,9.84c4.12,2.07,9.13.87,11.88-2.83h0c3.18-4.29,2.19-10.37-2.19-13.43l-7.56-4.64-10.43-6.52"/><path class="t" d="m482.47,341.83l22.91,10c4.32,1.6,9.17-.15,11.49-4.13h0c2.69-4.62,1.03-10.55-3.67-13.1l-12.08-5.71-11.87-5.81"/><path class="t" d="m488.57,307.6l27.12,9.97c4.9,2.13,7.08,7.89,4.81,12.73h0c-1.96,4.17-6.63,6.34-11.08,5.13l-23.2-7.82"/><path class="n" d="m3.77,550.18s-33.9,24.98-46.84,87.86c5.26-67.66,26.9-94.32,26.9-94.32,0,0-28.88,22.71-37.55,82.35,4.76-59.36-18.74-84.12-18.74-84.12,0,0,14.96,18,5.34,83.84-7.65-60.94-36.86-80.62-36.86-80.62,0,0,21.79,23.54,25.81,93.1-12.07-63.67-45.82-86.87-45.82-86.87,0,0,31.86,31.02,37.62,126.05l50.89-.07c6.85-94.96,39.24-127.22,39.24-127.22Z"/><ellipse class="s" cx="891.79" cy="153.39" rx="26.22" ry="12.13" transform="translate(109.81 608.72) rotate(-39.97)"/><ellipse class="s" cx="900.06" cy="163.52" rx="20.08" ry="5.99" transform="translate(-8.84 59.83) rotate(-3.79)"/><ellipse class="s" cx="885.48" cy="144.98" rx="20.08" ry="5.99" transform="translate(446 927.25) rotate(-69.97)"/><path class="h" d="m932.26,126.02s59.2-50.7,92.31-29.47c41.59,26.67-35.63,95.56-48.87,47.76s231.47-141.65,346.56-38.33"/><rect class="aa" x="-809.05" y="677.29" width="2678.71" height="88.41"/><path class="n" d="m652.38,677.18c-7.29-73.44-29.59-80.74-29.59-80.74,0,0,28.04,7.05,37.55,68.43-3.38-67.11-20.92-100.15-20.92-100.15,0,0,27.96,15.73,30.84,86.61,2.99-70.52,30.37-83.36,30.37-83.36,0,0-16.61,31.25-20.34,96.58,9.61-60.75,32.15-63.49,32.15-63.49,0,0-16.95,2.62-24.23,76.1l-35.83.04Z"/><path class="n" d="m792.03,573.63s-27.59,20.33-38.11,71.5c4.28-55.06,21.89-76.75,21.89-76.75,0,0-23.5,18.48-30.55,67.01,3.88-48.3-15.25-68.45-15.25-68.45,0,0,12.17,14.64,4.34,68.23-6.22-49.59-29.99-65.6-29.99-65.6,0,0,17.73,19.16,21,75.76-9.82-51.81-37.29-70.69-37.29-70.69,0,0,25.92,25.24,30.61,102.57l41.41-.06c5.57-77.27,31.93-103.52,31.93-103.52Z"/><path class="n" d="m1032.75,666.33c19.71-122.32-11.61-181.43-11.61-181.43,0,0,20.37,51.17-.91,185.45l-.69,4.07"/><path class="n" d="m1008.67,677.16c-5.95-135.22-36.18-178.93-36.18-178.93,0,0,42.52,47.81,47.62,171.08l.16,7.88"/><path class="n" d="m1016.79,677.15l.05-3.27c1.86-135.58-25.67-184.06-25.67-184.06,0,0,39.55,55.12,37.53,178.67l-.2,8.62"/><path class="n" d="m1037.1,677.15l.11-6.94c5.1-123.27,47.62-171.08,47.62-171.08,0,0-30.08,42.85-36.04,178.07"/><path class="n" d="m1040.24,677.18c-1.86-135.58,25.73-186.67,25.73-186.67,0,0-39.55,55.12-37.53,178.67l.06,7.98"/><line class="n" x1="1048.79" y1="677.2" x2="1008.64" y2="677.19"/><path class="n" d="m1040.79,573.57s-27.59,20.33-38.11,71.5c4.28-55.06,21.89-76.75,21.89-76.75,0,0-23.5,18.48-30.55,67.01,3.88-48.3-15.25-68.45-15.25-68.45,0,0,12.17,14.64,4.34,68.23-6.22-49.59-29.99-65.6-29.99-65.6,0,0,17.73,19.16,21,75.76-9.82-51.81-37.29-70.69-37.29-70.69,0,0,25.92,25.24,30.61,102.57l41.41-.06c5.57-77.27,31.93-103.52,31.93-103.52Z"/><path class="n" d="m374.73,676.98c-7.29-73.44-29.59-80.74-29.59-80.74,0,0,28.04,7.05,37.55,68.43-3.38-67.11-20.92-100.15-20.92-100.15,0,0,27.96,15.73,30.84,86.61,2.99-70.52,30.37-83.36,30.37-83.36,0,0-16.61,31.25-20.34,96.58,9.61-60.75,32.15-63.49,32.15-63.49,0,0-16.95,2.62-24.23,76.1l-35.83.04Z"/><path class="n" d="m454.17,668.18c16.53-102.56-9.74-152.12-9.74-152.12,0,0,17.08,42.9-.77,155.5l-.57,3.41"/><path class="n" d="m433.98,677.27c-4.99-113.38-30.33-150.03-30.33-150.03,0,0,35.65,40.09,39.93,143.45l.13,6.61"/><path class="n" d="m440.79,677.26l.05-2.74c1.56-113.69-21.53-154.33-21.53-154.33,0,0,33.16,46.22,31.46,149.81l-.17,7.23"/><path class="n" d="m457.82,677.26l.09-5.82c4.28-103.36,39.93-143.45,39.93-143.45,0,0-25.22,35.93-30.21,149.31"/><path class="n" d="m460.45,677.28c-1.56-113.69,21.57-156.52,21.57-156.52,0,0-33.16,46.22-31.46,149.81l.05,6.69"/><line class="n" x1="467.62" y1="677.31" x2="433.96" y2="677.3"/><path class="n" d="m1155.25,598.57s-21.02,15.49-29.03,54.47c3.26-41.95,16.67-58.47,16.67-58.47,0,0-17.9,14.08-23.28,51.05,2.95-36.8-11.61-52.15-11.61-52.15,0,0,9.27,11.16,3.31,51.98-4.74-37.78-22.85-49.98-22.85-49.98,0,0,13.51,14.59,16,57.71-7.48-39.47-28.41-53.85-28.41-53.85,0,0,19.75,19.23,23.32,78.14l31.55-.04c4.25-58.87,24.33-78.86,24.33-78.86Z"/><path class="n" d="m168.51,677.12c-7.29-73.44-29.59-80.74-29.59-80.74,0,0,28.04,7.05,37.55,68.43-3.38-67.11-20.92-100.15-20.92-100.15,0,0,27.96,15.73,30.84,86.61,2.99-70.52,30.37-83.36,30.37-83.36,0,0-16.61,31.25-20.34,96.58,9.61-60.75,32.15-63.49,32.15-63.49,0,0-16.95,2.62-24.23,76.1l-35.83.04Z"/><circle class="u" cx="10.87" cy="176.64" r="68.91"/><circle class="ab" cx="3.22" cy="170.18" r="3.58"/><circle class="u" cx="243.49" cy="223.32" r="68.91"/><circle class="ab" cx="248.74" cy="233.03" r="3.58"/><circle class="ab" cx="288.8" cy="211.24" r="3.58"/><path class="u" d="m270.37,221.26l13.8,10.45c7.17,5.43,6.34,16.45-1.56,20.74l-6.07,3.3"/><rect class="p" x="453.7" y="70.97" width="52.57" height="85.54" rx="6.27" ry="6.27" transform="translate(-6.68 194.22) rotate(-22.72)"/><rect class="p" x="458" y="76.53" width="43.88" height="74.47" rx="5.34" ry="5.34" transform="translate(-6.7 194.2) rotate(-22.72)"/><circle class="p" cx="466.7" cy="84.76" r="2.24"/><path class="t" d="m508.64,117.67l-.59,12.61c.3,4.6,3.85,8.32,8.44,8.82h0c5.31.58,10.06-3.34,10.49-8.67l.16-2.83c.35-6.3-1.07-12.57-4.11-18.1l-.3-.55"/><path class="t" d="m504.03,105.57l-.59,12.61c.3,4.6,3.85,8.32,8.44,8.82h0c5.31.58,10.06-3.34,10.49-8.67l.36-6.51c.22-3.88-.76-7.73-2.79-11.03l-1.49-2.42"/><path class="t" d="m499.79,94.97l-.59,12.61c.3,4.6,3.85,8.32,8.44,8.82h0c5.31.58,10.06-3.34,10.49-8.67l.33-5.9c.24-4.24-1.01-8.43-3.54-11.85l-.88-1.2"/><path class="t" d="m495.01,80.96l-.42,14.52c.3,4.6,3.85,8.32,8.44,8.82h0c5.31.58,10.06-3.34,10.49-8.67l.44-7.89c.17-2.98-.55-5.94-2.07-8.52h0c-2.64-4.49-7.41-7.31-12.62-7.45l-8.09-.44"/></g></g></svg>